G04*
G04 #@! TF.GenerationSoftware,Altium Limited,Altium Designer,23.8.1 (32)*
G04*
G04 Layer_Color=13391121*
%FSLAX44Y44*%
%MOMM*%
G71*
G04*
G04 #@! TF.SameCoordinates,D96BB530-8D29-4B5F-9446-CCACF09A0524*
G04*
G04*
G04 #@! TF.FilePolarity,Positive*
G04*
G01*
G75*
%ADD10C,0.2000*%
%ADD11C,0.1000*%
%ADD95C,0.0500*%
D10*
X485070Y202710D02*
X561070D01*
X485070Y345710D02*
X561070D01*
X485070Y202710D02*
Y345710D01*
X561070Y202710D02*
Y345710D01*
X317060Y55210D02*
X393060D01*
X317060Y138210D02*
X393060Y138210D01*
X317060Y55210D02*
Y138210D01*
X393060Y55210D02*
Y138210D01*
X235520Y24210D02*
Y62210D01*
X286520Y24210D02*
Y62210D01*
X235520Y62210D02*
X286520Y62210D01*
X235520Y24210D02*
X286520D01*
X222070Y414300D02*
Y449300D01*
Y414300D02*
X263070D01*
Y449300D01*
X222070D02*
X263070D01*
X294500Y231500D02*
X423500D01*
Y360500D01*
X294500D02*
X423500D01*
X294500Y231500D02*
Y360500D01*
D11*
X181610Y424260D02*
Y434260D01*
X176610Y429260D02*
X186610D01*
X207010Y424260D02*
Y434260D01*
X202010Y429260D02*
X212010D01*
D95*
X170110Y406260D02*
X193110D01*
X170110Y452260D02*
X193110D01*
X170110Y406260D02*
Y452260D01*
X193110Y406260D02*
Y452260D01*
X195510Y406260D02*
X218510D01*
X195510Y452260D02*
X218510D01*
X195510Y406260D02*
Y452260D01*
X218510Y406260D02*
Y452260D01*
M02*
