G04*
G04 #@! TF.GenerationSoftware,Altium Limited,Altium Designer,23.8.1 (32)*
G04*
G04 Layer_Physical_Order=4*
G04 Layer_Color=16711680*
%FSLAX44Y44*%
%MOMM*%
G71*
G04*
G04 #@! TF.SameCoordinates,D96BB530-8D29-4B5F-9446-CCACF09A0524*
G04*
G04*
G04 #@! TF.FilePolarity,Positive*
G04*
G01*
G75*
%ADD10C,0.2000*%
%ADD65C,1.0000*%
%ADD71C,0.7000*%
%ADD81C,1.7000*%
%ADD82R,1.7000X1.7000*%
%ADD83C,0.7500*%
%ADD84O,1.2000X2.0000*%
%ADD85O,1.2000X2.3000*%
%ADD86C,0.5000*%
G36*
X717246Y526670D02*
X716800Y525593D01*
Y523206D01*
X717713Y521001D01*
X719401Y519313D01*
X721607Y518400D01*
X723994D01*
X725020Y518825D01*
X727560Y517356D01*
Y41044D01*
X725020Y39575D01*
X723994Y40000D01*
X721607D01*
X719401Y39087D01*
X717713Y37399D01*
X716800Y35194D01*
Y32806D01*
X717238Y31750D01*
X715786Y29210D01*
X47314D01*
X45862Y31750D01*
X46300Y32806D01*
Y35194D01*
X45387Y37399D01*
X43699Y39087D01*
X41494Y40000D01*
X39107D01*
X38100Y39583D01*
X35560Y41064D01*
Y517336D01*
X38100Y518817D01*
X39107Y518400D01*
X41494D01*
X43699Y519313D01*
X45387Y521001D01*
X46300Y523206D01*
Y525593D01*
X45854Y526670D01*
X47294Y529210D01*
X715806D01*
X717246Y526670D01*
D02*
G37*
%LPC*%
G36*
X423500Y508500D02*
X404500D01*
Y489500D01*
X423500D01*
Y508500D01*
D02*
G37*
G36*
X361024Y481462D02*
X359134D01*
X357388Y480738D01*
X356052Y479402D01*
X355329Y477657D01*
Y475767D01*
X356052Y474021D01*
X357388Y472685D01*
X359134Y471962D01*
X361024D01*
X362770Y472685D01*
X364106Y474021D01*
X364829Y475767D01*
Y477657D01*
X364106Y479402D01*
X362770Y480738D01*
X361024Y481462D01*
D02*
G37*
G36*
X303223D02*
X301334D01*
X299588Y480738D01*
X298252Y479402D01*
X297529Y477657D01*
Y475767D01*
X298252Y474021D01*
X299588Y472685D01*
X301334Y471962D01*
X303223D01*
X304969Y472685D01*
X306306Y474021D01*
X307029Y475767D01*
Y477657D01*
X306306Y479402D01*
X304969Y480738D01*
X303223Y481462D01*
D02*
G37*
G36*
X160794D02*
X158904D01*
X157158Y480738D01*
X155822Y479402D01*
X155099Y477657D01*
Y475767D01*
X155822Y474021D01*
X157158Y472685D01*
X158904Y471962D01*
X160794D01*
X162540Y472685D01*
X163876Y474021D01*
X164599Y475767D01*
Y477657D01*
X163876Y479402D01*
X162540Y480738D01*
X160794Y481462D01*
D02*
G37*
G36*
X102993D02*
X101104D01*
X99358Y480738D01*
X98022Y479402D01*
X97299Y477657D01*
Y475767D01*
X98022Y474021D01*
X99358Y472685D01*
X101104Y471962D01*
X102993D01*
X104739Y472685D01*
X106075Y474021D01*
X106799Y475767D01*
Y477657D01*
X106075Y479402D01*
X104739Y480738D01*
X102993Y481462D01*
D02*
G37*
G36*
X238696Y472500D02*
X237304D01*
X236017Y471967D01*
X235033Y470983D01*
X234500Y469696D01*
Y468304D01*
X235033Y467017D01*
X236017Y466033D01*
X237304Y465500D01*
X238696D01*
X239983Y466033D01*
X240967Y467017D01*
X241500Y468304D01*
Y469696D01*
X240967Y470983D01*
X239983Y471967D01*
X238696Y472500D01*
D02*
G37*
G36*
X227696D02*
X226304D01*
X225017Y471967D01*
X224033Y470983D01*
X223500Y469696D01*
Y468304D01*
X224033Y467017D01*
X225017Y466033D01*
X226304Y465500D01*
X227696D01*
X228983Y466033D01*
X229967Y467017D01*
X230500Y468304D01*
Y469696D01*
X229967Y470983D01*
X228983Y471967D01*
X227696Y472500D01*
D02*
G37*
G36*
X216696D02*
X215304D01*
X214017Y471967D01*
X213033Y470983D01*
X212500Y469696D01*
Y468304D01*
X213033Y467017D01*
X214017Y466033D01*
X215304Y465500D01*
X216696D01*
X217983Y466033D01*
X218967Y467017D01*
X219500Y468304D01*
Y469696D01*
X218967Y470983D01*
X217983Y471967D01*
X216696Y472500D01*
D02*
G37*
G36*
X205696Y461500D02*
X204304D01*
X203017Y460967D01*
X202089Y460039D01*
X196500D01*
X196500Y460039D01*
X195720Y459884D01*
X195058Y459442D01*
X122616Y387000D01*
X121304D01*
X120017Y386467D01*
X119033Y385483D01*
X118500Y384196D01*
Y382804D01*
X119033Y381517D01*
X120017Y380533D01*
X121304Y380000D01*
X122696D01*
X123983Y380533D01*
X124967Y381517D01*
X125500Y382804D01*
Y384116D01*
X197345Y455961D01*
X202089D01*
X203017Y455033D01*
X204304Y454500D01*
X205696D01*
X206983Y455033D01*
X207967Y456017D01*
X208500Y457304D01*
Y458696D01*
X207967Y459983D01*
X206983Y460967D01*
X205696Y461500D01*
D02*
G37*
G36*
X227696D02*
X226304D01*
X225017Y460967D01*
X224033Y459983D01*
X223500Y458696D01*
Y457304D01*
X224033Y456017D01*
X225017Y455033D01*
X226304Y454500D01*
X227696D01*
X228983Y455033D01*
X229967Y456017D01*
X230500Y457304D01*
Y458696D01*
X229967Y459983D01*
X228983Y460967D01*
X227696Y461500D01*
D02*
G37*
G36*
X216696D02*
X215304D01*
X214017Y460967D01*
X213033Y459983D01*
X212500Y458696D01*
Y457304D01*
X213033Y456017D01*
X214017Y455033D01*
X215304Y454500D01*
X216696D01*
X217983Y455033D01*
X218967Y456017D01*
X219500Y457304D01*
Y458696D01*
X218967Y459983D01*
X217983Y460967D01*
X216696Y461500D01*
D02*
G37*
G36*
X288696Y446500D02*
X287304D01*
X286017Y445967D01*
X285033Y444983D01*
X284500Y443696D01*
Y442304D01*
X285033Y441017D01*
X286017Y440033D01*
X287304Y439500D01*
X288696D01*
X289983Y440033D01*
X290967Y441017D01*
X291500Y442304D01*
Y443696D01*
X290967Y444983D01*
X289983Y445967D01*
X288696Y446500D01*
D02*
G37*
G36*
X277696D02*
X276304D01*
X275017Y445967D01*
X274033Y444983D01*
X273500Y443696D01*
Y442304D01*
X274033Y441017D01*
X275017Y440033D01*
X276304Y439500D01*
X277696D01*
X278983Y440033D01*
X279967Y441017D01*
X280500Y442304D01*
Y443696D01*
X279967Y444983D01*
X278983Y445967D01*
X277696Y446500D01*
D02*
G37*
G36*
X267696D02*
X266304D01*
X265017Y445967D01*
X264033Y444983D01*
X263500Y443696D01*
Y442304D01*
X264033Y441017D01*
X265017Y440033D01*
X266304Y439500D01*
X267696D01*
X268983Y440033D01*
X269967Y441017D01*
X270500Y442304D01*
Y443696D01*
X269967Y444983D01*
X268983Y445967D01*
X267696Y446500D01*
D02*
G37*
G36*
X288696Y436500D02*
X287304D01*
X286017Y435967D01*
X285033Y434983D01*
X284847Y434533D01*
X282153D01*
X281967Y434983D01*
X280983Y435967D01*
X279696Y436500D01*
X278304D01*
X277017Y435967D01*
X276033Y434983D01*
X275500Y433696D01*
Y432304D01*
X276033Y431017D01*
X277017Y430033D01*
X278304Y429500D01*
X279696D01*
X280983Y430033D01*
X281967Y431017D01*
X282153Y431467D01*
X284847D01*
X285033Y431017D01*
X286017Y430033D01*
X287304Y429500D01*
X288696D01*
X289983Y430033D01*
X290967Y431017D01*
X291500Y432304D01*
Y433696D01*
X290967Y434983D01*
X289983Y435967D01*
X288696Y436500D01*
D02*
G37*
G36*
X255696D02*
X254304D01*
X253017Y435967D01*
X252033Y434983D01*
X251500Y433696D01*
Y432304D01*
X252033Y431017D01*
X253017Y430033D01*
X254304Y429500D01*
X255696D01*
X256983Y430033D01*
X257967Y431017D01*
X258500Y432304D01*
Y433696D01*
X257967Y434983D01*
X256983Y435967D01*
X255696Y436500D01*
D02*
G37*
G36*
X582696Y423500D02*
X581304D01*
X580017Y422967D01*
X579033Y421983D01*
X578500Y420696D01*
Y419304D01*
X579033Y418017D01*
X580017Y417033D01*
X581304Y416500D01*
X582696D01*
X583983Y417033D01*
X584967Y418017D01*
X585500Y419304D01*
Y420696D01*
X584967Y421983D01*
X583983Y422967D01*
X582696Y423500D01*
D02*
G37*
G36*
X572696D02*
X571304D01*
X570017Y422967D01*
X569033Y421983D01*
X568500Y420696D01*
Y419304D01*
X569033Y418017D01*
X570017Y417033D01*
X571304Y416500D01*
X572696D01*
X573983Y417033D01*
X574967Y418017D01*
X575500Y419304D01*
Y420696D01*
X574967Y421983D01*
X573983Y422967D01*
X572696Y423500D01*
D02*
G37*
G36*
X562696D02*
X561304D01*
X560017Y422967D01*
X559033Y421983D01*
X558500Y420696D01*
Y419304D01*
X559033Y418017D01*
X560017Y417033D01*
X561304Y416500D01*
X562696D01*
X563983Y417033D01*
X564967Y418017D01*
X565500Y419304D01*
Y420696D01*
X564967Y421983D01*
X563983Y422967D01*
X562696Y423500D01*
D02*
G37*
G36*
X582696Y413500D02*
X581304D01*
X580017Y412967D01*
X579033Y411983D01*
X578500Y410696D01*
Y409304D01*
X579033Y408017D01*
X580017Y407033D01*
X581304Y406500D01*
X582696D01*
X583983Y407033D01*
X584967Y408017D01*
X585500Y409304D01*
Y410696D01*
X584967Y411983D01*
X583983Y412967D01*
X582696Y413500D01*
D02*
G37*
G36*
X572696D02*
X571304D01*
X570017Y412967D01*
X569033Y411983D01*
X568500Y410696D01*
Y409304D01*
X569033Y408017D01*
X570017Y407033D01*
X571304Y406500D01*
X572696D01*
X573983Y407033D01*
X574967Y408017D01*
X575500Y409304D01*
Y410696D01*
X574967Y411983D01*
X573983Y412967D01*
X572696Y413500D01*
D02*
G37*
G36*
X562696D02*
X561304D01*
X560017Y412967D01*
X559033Y411983D01*
X558500Y410696D01*
Y409304D01*
X559033Y408017D01*
X560017Y407033D01*
X561304Y406500D01*
X562696D01*
X563983Y407033D01*
X564967Y408017D01*
X565500Y409304D01*
Y410696D01*
X564967Y411983D01*
X563983Y412967D01*
X562696Y413500D01*
D02*
G37*
G36*
X582696Y403500D02*
X581304D01*
X580017Y402967D01*
X579033Y401983D01*
X578500Y400696D01*
Y399304D01*
X579033Y398017D01*
X580017Y397033D01*
X581304Y396500D01*
X582696D01*
X583983Y397033D01*
X584967Y398017D01*
X585500Y399304D01*
Y400696D01*
X584967Y401983D01*
X583983Y402967D01*
X582696Y403500D01*
D02*
G37*
G36*
X572696D02*
X571304D01*
X570017Y402967D01*
X569033Y401983D01*
X568500Y400696D01*
Y399304D01*
X569033Y398017D01*
X570017Y397033D01*
X571304Y396500D01*
X572696D01*
X573983Y397033D01*
X574967Y398017D01*
X575500Y399304D01*
Y400696D01*
X574967Y401983D01*
X573983Y402967D01*
X572696Y403500D01*
D02*
G37*
G36*
X60696Y398000D02*
X59304D01*
X58017Y397467D01*
X57033Y396483D01*
X56500Y395196D01*
Y393804D01*
X57033Y392517D01*
X58017Y391533D01*
X59304Y391000D01*
X60696D01*
X61983Y391533D01*
X62967Y392517D01*
X63500Y393804D01*
Y395196D01*
X62967Y396483D01*
X61983Y397467D01*
X60696Y398000D01*
D02*
G37*
G36*
X314196Y456500D02*
X312804D01*
X311517Y455967D01*
X310533Y454983D01*
X310000Y453696D01*
Y452304D01*
X310533Y451017D01*
X311517Y450033D01*
X312804Y449500D01*
X312809D01*
X313197Y448919D01*
X317058Y445058D01*
X317720Y444616D01*
X318500Y444461D01*
X318500Y444461D01*
X347155D01*
X359961Y431655D01*
Y394345D01*
X359616Y394000D01*
X358304D01*
X357017Y393467D01*
X356033Y392483D01*
X355500Y391196D01*
Y389884D01*
X311058Y345442D01*
X310616Y344780D01*
X310461Y344000D01*
Y296411D01*
X309533Y295483D01*
X309000Y294196D01*
Y292804D01*
X309533Y291517D01*
X310517Y290533D01*
X311530Y290114D01*
X311853Y288540D01*
X311889Y287460D01*
X311422Y286842D01*
X310517Y286467D01*
X309533Y285483D01*
X309000Y284196D01*
Y282804D01*
X309533Y281517D01*
X310517Y280533D01*
X311804Y280000D01*
X313196D01*
X314483Y280533D01*
X315467Y281517D01*
X316000Y282804D01*
Y284116D01*
X318942Y287058D01*
X319384Y287720D01*
X319539Y288500D01*
X319539Y288500D01*
Y340655D01*
X366236Y387353D01*
X369017Y387533D01*
X370304Y387000D01*
X371696D01*
X372983Y387533D01*
X373967Y388517D01*
X374500Y389804D01*
Y391196D01*
X373967Y392483D01*
X372983Y393467D01*
X371696Y394000D01*
X370384D01*
X369039Y395345D01*
Y434500D01*
X369039Y434500D01*
X368884Y435280D01*
X368442Y435942D01*
X349942Y454442D01*
X349280Y454884D01*
X348500Y455039D01*
X346529D01*
X345675Y455893D01*
X344388Y456426D01*
X342996D01*
X341710Y455893D01*
X340725Y454909D01*
X340192Y453622D01*
Y452230D01*
X340725Y450943D01*
X339537Y448539D01*
X319345D01*
X316639Y451245D01*
X316614Y451372D01*
X317000Y452304D01*
Y453696D01*
X316467Y454983D01*
X315483Y455967D01*
X314196Y456500D01*
D02*
G37*
G36*
X418696Y369500D02*
X417304D01*
X416017Y368967D01*
X415033Y367983D01*
X414500Y366696D01*
Y365304D01*
X415033Y364017D01*
X416017Y363033D01*
X417304Y362500D01*
X418696D01*
X419983Y363033D01*
X420967Y364017D01*
X421500Y365304D01*
Y366696D01*
X420967Y367983D01*
X419983Y368967D01*
X418696Y369500D01*
D02*
G37*
G36*
X533696Y368500D02*
X532304D01*
X531017Y367967D01*
X530033Y366983D01*
X529500Y365696D01*
Y364304D01*
X530033Y363017D01*
X531017Y362033D01*
X532304Y361500D01*
X533696D01*
X534983Y362033D01*
X535967Y363017D01*
X536500Y364304D01*
Y365696D01*
X535967Y366983D01*
X534983Y367967D01*
X533696Y368500D01*
D02*
G37*
G36*
X523696D02*
X522304D01*
X521017Y367967D01*
X520033Y366983D01*
X519500Y365696D01*
Y364304D01*
X520033Y363017D01*
X521017Y362033D01*
X522304Y361500D01*
X523696D01*
X524983Y362033D01*
X525967Y363017D01*
X526500Y364304D01*
Y365696D01*
X525967Y366983D01*
X524983Y367967D01*
X523696Y368500D01*
D02*
G37*
G36*
X513696D02*
X512304D01*
X511017Y367967D01*
X510033Y366983D01*
X509500Y365696D01*
Y364304D01*
X510033Y363017D01*
X511017Y362033D01*
X512304Y361500D01*
X513696D01*
X514983Y362033D01*
X515967Y363017D01*
X516500Y364304D01*
Y365696D01*
X515967Y366983D01*
X514983Y367967D01*
X513696Y368500D01*
D02*
G37*
G36*
X315696D02*
X314304D01*
X313017Y367967D01*
X312033Y366983D01*
X311500Y365696D01*
Y364304D01*
X312033Y363017D01*
X313017Y362033D01*
X314304Y361500D01*
X315696D01*
X316983Y362033D01*
X317967Y363017D01*
X318500Y364304D01*
Y365696D01*
X317967Y366983D01*
X316983Y367967D01*
X315696Y368500D01*
D02*
G37*
G36*
X533696Y358500D02*
X532304D01*
X531017Y357967D01*
X530033Y356983D01*
X529500Y355696D01*
Y354304D01*
X530033Y353017D01*
X531017Y352033D01*
X532304Y351500D01*
X533696D01*
X534983Y352033D01*
X535967Y353017D01*
X536500Y354304D01*
Y355696D01*
X535967Y356983D01*
X534983Y357967D01*
X533696Y358500D01*
D02*
G37*
G36*
X523696D02*
X522304D01*
X521017Y357967D01*
X520033Y356983D01*
X519500Y355696D01*
Y354304D01*
X520033Y353017D01*
X521017Y352033D01*
X522304Y351500D01*
X523696D01*
X524983Y352033D01*
X525967Y353017D01*
X526500Y354304D01*
Y355696D01*
X525967Y356983D01*
X524983Y357967D01*
X523696Y358500D01*
D02*
G37*
G36*
X513696D02*
X512304D01*
X511017Y357967D01*
X510033Y356983D01*
X509500Y355696D01*
Y354304D01*
X510033Y353017D01*
X511017Y352033D01*
X512304Y351500D01*
X513696D01*
X514983Y352033D01*
X515967Y353017D01*
X516500Y354304D01*
Y355696D01*
X515967Y356983D01*
X514983Y357967D01*
X513696Y358500D01*
D02*
G37*
G36*
X137696Y348500D02*
X136304D01*
X135017Y347967D01*
X134033Y346983D01*
X133500Y345696D01*
Y344304D01*
X134033Y343017D01*
X135017Y342033D01*
X136304Y341500D01*
X137696D01*
X138983Y342033D01*
X139967Y343017D01*
X140500Y344304D01*
Y345696D01*
X139967Y346983D01*
X138983Y347967D01*
X137696Y348500D01*
D02*
G37*
G36*
X469196Y336000D02*
X467804D01*
X466517Y335467D01*
X465533Y334483D01*
X465000Y333196D01*
Y331804D01*
X465533Y330517D01*
X466517Y329533D01*
X467804Y329000D01*
X469196D01*
X470483Y329533D01*
X471467Y330517D01*
X472000Y331804D01*
Y333196D01*
X471467Y334483D01*
X470483Y335467D01*
X469196Y336000D01*
D02*
G37*
G36*
X564696Y333500D02*
X563304D01*
X562017Y332967D01*
X561033Y331983D01*
X560500Y330696D01*
Y329304D01*
X561033Y328017D01*
X562017Y327033D01*
X563304Y326500D01*
X564696D01*
X565983Y327033D01*
X566967Y328017D01*
X567500Y329304D01*
Y330696D01*
X566967Y331983D01*
X565983Y332967D01*
X564696Y333500D01*
D02*
G37*
G36*
X368196Y342000D02*
X366804D01*
X365517Y341467D01*
X364533Y340483D01*
X364000Y339196D01*
Y337804D01*
X364533Y336517D01*
X365517Y335533D01*
X366804Y335000D01*
X368196D01*
X370000Y333196D01*
Y331804D01*
X370533Y330517D01*
X371517Y329533D01*
X372804Y329000D01*
X374116D01*
X375961Y327155D01*
Y323244D01*
X373512Y322464D01*
X373421Y322463D01*
X368000Y327884D01*
Y329196D01*
X367467Y330483D01*
X366483Y331467D01*
X365196Y332000D01*
X363804D01*
X362517Y331467D01*
X361533Y330483D01*
X361114Y329470D01*
X359540Y329147D01*
X358460Y329111D01*
X357842Y329578D01*
X357467Y330483D01*
X356483Y331467D01*
X355196Y332000D01*
X353804D01*
X352517Y331467D01*
X351533Y330483D01*
X351000Y329196D01*
Y327804D01*
X351533Y326517D01*
X352517Y325533D01*
X353804Y325000D01*
X355116D01*
X364961Y315155D01*
Y232500D01*
X365116Y231720D01*
X365558Y231058D01*
X381461Y215155D01*
Y169345D01*
X366655Y154539D01*
X345000D01*
X345000Y154539D01*
X344220Y154384D01*
X343558Y153942D01*
X326558Y136942D01*
X326116Y136280D01*
X325961Y135500D01*
Y100500D01*
X326116Y99720D01*
X326558Y99058D01*
X336058Y89558D01*
X336058Y89558D01*
X336720Y89116D01*
X337500Y88961D01*
X361790D01*
X362570Y89116D01*
X363232Y89558D01*
X368970Y95296D01*
X370283D01*
X371569Y95829D01*
X372553Y96814D01*
X373086Y98100D01*
Y99493D01*
X372553Y100779D01*
X372551Y100782D01*
X371805Y102354D01*
X372467Y104017D01*
X373000Y105304D01*
Y106696D01*
X372467Y107983D01*
X371483Y108967D01*
X370444Y109397D01*
X369906Y110551D01*
X369495Y112040D01*
X412477Y155022D01*
X412477Y155022D01*
X412920Y155684D01*
X413075Y156465D01*
X413075Y156465D01*
Y234535D01*
X413075Y234536D01*
X412920Y235316D01*
X412477Y235977D01*
X412477Y235977D01*
X385039Y263416D01*
Y331485D01*
X384884Y332266D01*
X384442Y332927D01*
X384442Y332927D01*
X377427Y339942D01*
X376766Y340384D01*
X375985Y340539D01*
X370411D01*
X369483Y341467D01*
X368196Y342000D01*
D02*
G37*
G36*
X605696Y320500D02*
X604304D01*
X603017Y319967D01*
X602089Y319039D01*
X535500D01*
X535500Y319039D01*
X534720Y318884D01*
X534058Y318442D01*
X502155Y286539D01*
X430911D01*
X429983Y287467D01*
X428696Y288000D01*
X427304D01*
X426017Y287467D01*
X425033Y286483D01*
X424500Y285196D01*
Y283804D01*
X425033Y282517D01*
X426017Y281533D01*
X427304Y281000D01*
X428696D01*
X429983Y281533D01*
X430911Y282461D01*
X503000D01*
X503780Y282616D01*
X504442Y283058D01*
X536345Y314961D01*
X602089D01*
X603017Y314033D01*
X604304Y313500D01*
X605696D01*
X606983Y314033D01*
X607967Y315017D01*
X608500Y316304D01*
Y317696D01*
X607967Y318983D01*
X606983Y319967D01*
X605696Y320500D01*
D02*
G37*
G36*
X216696Y325000D02*
X215304D01*
X214017Y324467D01*
X213033Y323483D01*
X212500Y322196D01*
Y320804D01*
X213033Y319517D01*
X214017Y318533D01*
X215304Y318000D01*
X216696D01*
X217983Y318533D01*
X218967Y319517D01*
X219500Y320804D01*
Y322196D01*
X218967Y323483D01*
X217983Y324467D01*
X216696Y325000D01*
D02*
G37*
G36*
X122696Y374500D02*
X121304D01*
X120017Y373967D01*
X119033Y372983D01*
X118500Y371696D01*
Y370304D01*
X119033Y369017D01*
X119961Y368089D01*
Y334500D01*
X120116Y333720D01*
X120558Y333058D01*
X136500Y317116D01*
Y315804D01*
X137033Y314517D01*
X138017Y313533D01*
X139304Y313000D01*
X140696D01*
X141983Y313533D01*
X142967Y314517D01*
X143500Y315804D01*
Y317196D01*
X142967Y318483D01*
X141983Y319467D01*
X140696Y320000D01*
X139384D01*
X124039Y335345D01*
Y368089D01*
X124967Y369017D01*
X125500Y370304D01*
Y371696D01*
X124967Y372983D01*
X123983Y373967D01*
X122696Y374500D01*
D02*
G37*
G36*
X87196Y314500D02*
X85804D01*
X84517Y313967D01*
X83533Y312983D01*
X83000Y311696D01*
Y310304D01*
X83533Y309017D01*
X84517Y308033D01*
X85804Y307500D01*
X87196D01*
X88483Y308033D01*
X89467Y309017D01*
X90000Y310304D01*
Y311696D01*
X89467Y312983D01*
X88483Y313967D01*
X87196Y314500D01*
D02*
G37*
G36*
X65251Y317200D02*
X62749D01*
X60333Y316553D01*
X58167Y315302D01*
X56398Y313533D01*
X55147Y311367D01*
X54500Y308951D01*
Y306449D01*
X55147Y304033D01*
X56398Y301867D01*
X58167Y300098D01*
X60333Y298847D01*
X62749Y298200D01*
X65251D01*
X67667Y298847D01*
X69833Y300098D01*
X71602Y301867D01*
X72853Y304033D01*
X73500Y306449D01*
Y308951D01*
X72853Y311367D01*
X71602Y313533D01*
X69833Y315302D01*
X67667Y316553D01*
X65251Y317200D01*
D02*
G37*
G36*
Y291800D02*
X62749D01*
X60333Y291153D01*
X58167Y289902D01*
X56398Y288133D01*
X55147Y285967D01*
X54500Y283551D01*
Y281049D01*
X55147Y278633D01*
X56398Y276467D01*
X58167Y274698D01*
X60333Y273447D01*
X62749Y272800D01*
X65251D01*
X67667Y273447D01*
X69833Y274698D01*
X71602Y276467D01*
X72853Y278633D01*
X73500Y281049D01*
Y283551D01*
X72853Y285967D01*
X71602Y288133D01*
X69833Y289902D01*
X67667Y291153D01*
X65251Y291800D01*
D02*
G37*
G36*
X263000Y271539D02*
X262220Y271384D01*
X261558Y270942D01*
X261558Y270942D01*
X256655Y266039D01*
X244411D01*
X243483Y266967D01*
X242196Y267500D01*
X240804D01*
X239517Y266967D01*
X238533Y265983D01*
X238000Y264696D01*
Y263304D01*
X238533Y262017D01*
X239517Y261033D01*
X240804Y260500D01*
X242196D01*
X243483Y261033D01*
X244411Y261961D01*
X257500D01*
X258280Y262116D01*
X258942Y262558D01*
X263845Y267461D01*
X291155D01*
X294558Y264058D01*
X294558Y264058D01*
X295220Y263616D01*
X296000Y263461D01*
X347781D01*
X348979Y261500D01*
X347781Y259539D01*
X262500D01*
X262500Y259539D01*
X261720Y259384D01*
X261058Y258942D01*
X256655Y254539D01*
X244411D01*
X243483Y255467D01*
X242196Y256000D01*
X240804D01*
X239517Y255467D01*
X238533Y254483D01*
X238000Y253196D01*
Y251804D01*
X238533Y250517D01*
X239517Y249533D01*
X240804Y249000D01*
X242196D01*
X243483Y249533D01*
X244411Y250461D01*
X257500D01*
X258280Y250616D01*
X258942Y251058D01*
X263345Y255461D01*
X283419D01*
X284006Y254741D01*
X284800Y252921D01*
X284500Y252196D01*
Y250804D01*
X285033Y249517D01*
X286017Y248533D01*
X287304Y248000D01*
X288696D01*
X289983Y248533D01*
X290967Y249517D01*
X291500Y250804D01*
Y252196D01*
X291200Y252921D01*
X291994Y254741D01*
X292581Y255461D01*
X324840D01*
X324987Y255347D01*
X324860Y252609D01*
X324517Y252467D01*
X323589Y251539D01*
X299500D01*
X298720Y251384D01*
X298058Y250942D01*
X298058Y250942D01*
X256058Y208942D01*
X255616Y208280D01*
X255461Y207500D01*
Y92845D01*
X243655Y81039D01*
X180911D01*
X179983Y81967D01*
X178696Y82500D01*
X177304D01*
X176017Y81967D01*
X175033Y80983D01*
X174500Y79696D01*
Y78304D01*
X175033Y77017D01*
X176017Y76033D01*
X177304Y75500D01*
X178696D01*
X179983Y76033D01*
X180911Y76961D01*
X244500D01*
X245280Y77116D01*
X245942Y77558D01*
X258942Y90558D01*
X259384Y91220D01*
X259539Y92000D01*
Y206655D01*
X300345Y247461D01*
X321432D01*
X321715Y247079D01*
X320436Y244539D01*
X303000D01*
X303000Y244539D01*
X302220Y244384D01*
X301558Y243942D01*
X264058Y206442D01*
X263616Y205780D01*
X263461Y205000D01*
Y91500D01*
X263616Y90720D01*
X264058Y90058D01*
X289961Y64155D01*
Y49651D01*
X289517Y49467D01*
X288533Y48483D01*
X288000Y47196D01*
Y45804D01*
X288533Y44517D01*
X289517Y43533D01*
X290804Y43000D01*
X292196D01*
X293483Y43533D01*
X294467Y44517D01*
X295000Y45804D01*
Y47196D01*
X294467Y48483D01*
X294039Y48911D01*
Y65000D01*
X294039Y65000D01*
X293884Y65780D01*
X293442Y66442D01*
X267539Y92345D01*
Y204155D01*
X303845Y240461D01*
X344500D01*
X345280Y240616D01*
X345942Y241058D01*
X350884Y246000D01*
X352196D01*
X353483Y246533D01*
X354467Y247517D01*
X355000Y248804D01*
Y250196D01*
X354467Y251483D01*
X353966Y251984D01*
X353679Y253500D01*
X353966Y255016D01*
X354467Y255517D01*
X355000Y256804D01*
Y258196D01*
X354467Y259483D01*
X353966Y259984D01*
X353679Y261500D01*
X353966Y263016D01*
X354467Y263517D01*
X355000Y264804D01*
Y266196D01*
X354467Y267483D01*
X353483Y268467D01*
X352196Y269000D01*
X350804D01*
X349517Y268467D01*
X348589Y267539D01*
X296845D01*
X293442Y270942D01*
X292780Y271384D01*
X292000Y271539D01*
X263000D01*
X263000Y271539D01*
D02*
G37*
G36*
X564196Y273000D02*
X562804D01*
X561517Y272467D01*
X560533Y271483D01*
X560000Y270196D01*
Y268804D01*
X560533Y267517D01*
X561517Y266533D01*
X562804Y266000D01*
X564196D01*
X565483Y266533D01*
X566467Y267517D01*
X567000Y268804D01*
Y270196D01*
X566467Y271483D01*
X565483Y272467D01*
X564196Y273000D01*
D02*
G37*
G36*
X177696Y272500D02*
X176304D01*
X175017Y271967D01*
X174033Y270983D01*
X173500Y269696D01*
Y268304D01*
X174033Y267017D01*
X175017Y266033D01*
X176304Y265500D01*
X177696D01*
X178983Y266033D01*
X179967Y267017D01*
X180500Y268304D01*
Y269696D01*
X179967Y270983D01*
X178983Y271967D01*
X177696Y272500D01*
D02*
G37*
G36*
X112696Y269500D02*
X111304D01*
X110017Y268967D01*
X109033Y267983D01*
X108500Y266696D01*
Y265304D01*
X109033Y264017D01*
X110017Y263033D01*
X111304Y262500D01*
X112696D01*
X113983Y263033D01*
X114967Y264017D01*
X115500Y265304D01*
Y266696D01*
X114967Y267983D01*
X113983Y268967D01*
X112696Y269500D01*
D02*
G37*
G36*
X73500Y266400D02*
X54500D01*
Y247400D01*
X73500D01*
Y266400D01*
D02*
G37*
G36*
X116196Y246500D02*
X114804D01*
X113517Y245967D01*
X112533Y244983D01*
X112000Y243696D01*
Y242304D01*
X112533Y241017D01*
X113517Y240033D01*
X114804Y239500D01*
X116196D01*
X117483Y240033D01*
X118467Y241017D01*
X119000Y242304D01*
Y243696D01*
X118467Y244983D01*
X117483Y245967D01*
X116196Y246500D01*
D02*
G37*
G36*
X300696Y227000D02*
X299304D01*
X298017Y226467D01*
X297033Y225483D01*
X296500Y224196D01*
Y222804D01*
X297033Y221517D01*
X298017Y220533D01*
X299304Y220000D01*
X300696D01*
X301983Y220533D01*
X302967Y221517D01*
X303500Y222804D01*
Y224196D01*
X302967Y225483D01*
X301983Y226467D01*
X300696Y227000D01*
D02*
G37*
G36*
X190196Y217500D02*
X188804D01*
X187517Y216967D01*
X186533Y215983D01*
X186000Y214696D01*
Y213304D01*
X186533Y212017D01*
X187517Y211033D01*
X188804Y210500D01*
X190196D01*
X191483Y211033D01*
X192467Y212017D01*
X193000Y213304D01*
Y214696D01*
X192467Y215983D01*
X191483Y216967D01*
X190196Y217500D01*
D02*
G37*
G36*
X167696Y321500D02*
X166304D01*
X165017Y320967D01*
X164033Y319983D01*
X163500Y318696D01*
Y317304D01*
X164033Y316017D01*
X165017Y315033D01*
X166304Y314500D01*
X167696D01*
X167993Y314623D01*
X203961Y278655D01*
Y231000D01*
X204116Y230220D01*
X204461Y229704D01*
Y158845D01*
X143558Y97942D01*
X143116Y97280D01*
X142961Y96500D01*
Y82911D01*
X142033Y81983D01*
X141500Y80696D01*
Y79304D01*
X142033Y78017D01*
X143017Y77033D01*
X144304Y76500D01*
X145696D01*
X146983Y77033D01*
X147967Y78017D01*
X148500Y79304D01*
Y80696D01*
X147967Y81983D01*
X147039Y82911D01*
Y95655D01*
X207942Y156558D01*
X207942Y156558D01*
X208384Y157220D01*
X208539Y158000D01*
X208539Y158000D01*
Y208919D01*
X209259Y209506D01*
X211079Y210300D01*
X211804Y210000D01*
X213196D01*
X214483Y210533D01*
X215467Y211517D01*
X216000Y212804D01*
Y214196D01*
X215467Y215483D01*
X214483Y216467D01*
X213196Y217000D01*
X211804D01*
X211079Y216700D01*
X209259Y217493D01*
X208539Y218081D01*
Y230500D01*
X208539Y230500D01*
X208384Y231280D01*
X208039Y231796D01*
Y279500D01*
X207884Y280280D01*
X207442Y280942D01*
X207442Y280942D01*
X170500Y317884D01*
Y318696D01*
X169967Y319983D01*
X168983Y320967D01*
X167696Y321500D01*
D02*
G37*
G36*
X399696Y115500D02*
X398304D01*
X397017Y114967D01*
X396033Y113983D01*
X395500Y112696D01*
Y111304D01*
X396033Y110017D01*
X397017Y109033D01*
X398304Y108500D01*
X399696D01*
X400983Y109033D01*
X401967Y110017D01*
X402500Y111304D01*
Y112696D01*
X401967Y113983D01*
X400983Y114967D01*
X399696Y115500D01*
D02*
G37*
G36*
X424696Y93500D02*
X423304D01*
X422017Y92967D01*
X421033Y91983D01*
X420500Y90696D01*
Y89304D01*
X421033Y88017D01*
X422017Y87033D01*
X423304Y86500D01*
X424696D01*
X425983Y87033D01*
X426967Y88017D01*
X427500Y89304D01*
Y90696D01*
X426967Y91983D01*
X425983Y92967D01*
X424696Y93500D01*
D02*
G37*
G36*
Y82500D02*
X423304D01*
X422017Y81967D01*
X421033Y80983D01*
X420500Y79696D01*
Y78304D01*
X421033Y77017D01*
X422017Y76033D01*
X423304Y75500D01*
X424696D01*
X425983Y76033D01*
X426967Y77017D01*
X427500Y78304D01*
Y79696D01*
X426967Y80983D01*
X425983Y81967D01*
X424696Y82500D01*
D02*
G37*
G36*
X161696Y65500D02*
X160304D01*
X159017Y64967D01*
X158033Y63983D01*
X157500Y62696D01*
Y61304D01*
X158033Y60017D01*
X159017Y59033D01*
X160304Y58500D01*
X161696D01*
X162983Y59033D01*
X163967Y60017D01*
X164500Y61304D01*
Y62696D01*
X163967Y63983D01*
X162983Y64967D01*
X161696Y65500D01*
D02*
G37*
G36*
X128696D02*
X127304D01*
X126017Y64967D01*
X125033Y63983D01*
X124500Y62696D01*
Y61304D01*
X125033Y60017D01*
X126017Y59033D01*
X127304Y58500D01*
X128696D01*
X129983Y59033D01*
X130967Y60017D01*
X131500Y61304D01*
Y62696D01*
X130967Y63983D01*
X129983Y64967D01*
X128696Y65500D01*
D02*
G37*
G36*
X195696Y65000D02*
X194304D01*
X193017Y64467D01*
X192033Y63483D01*
X191500Y62196D01*
Y60804D01*
X192033Y59517D01*
X193017Y58533D01*
X194304Y58000D01*
X195696D01*
X196983Y58533D01*
X197967Y59517D01*
X198500Y60804D01*
Y62196D01*
X197967Y63483D01*
X196983Y64467D01*
X195696Y65000D01*
D02*
G37*
G36*
X261915Y59710D02*
X260125D01*
X258471Y59025D01*
X257205Y57759D01*
X256520Y56105D01*
Y54315D01*
X257205Y52661D01*
X258471Y51395D01*
X260125Y50710D01*
X261915D01*
X263569Y51395D01*
X264835Y52661D01*
X265520Y54315D01*
Y56105D01*
X264835Y57759D01*
X263569Y59025D01*
X261915Y59710D01*
D02*
G37*
G36*
Y41710D02*
X260125D01*
X258471Y41025D01*
X257205Y39759D01*
X256520Y38105D01*
Y36315D01*
X257205Y34661D01*
X258471Y33395D01*
X260125Y32710D01*
X261915D01*
X263569Y33395D01*
X264835Y34661D01*
X265520Y36315D01*
Y38105D01*
X264835Y39759D01*
X263569Y41025D01*
X261915Y41710D01*
D02*
G37*
%LPD*%
G36*
X405461Y230155D02*
Y160845D01*
X356155Y111539D01*
X355411D01*
X354483Y112467D01*
X353196Y113000D01*
X351804D01*
X350517Y112467D01*
X349533Y111483D01*
X349000Y110196D01*
Y108804D01*
X349533Y107517D01*
X350007Y106000D01*
X349033Y104983D01*
X348500Y103696D01*
Y102304D01*
X348800Y101579D01*
X348006Y99759D01*
X347419Y99039D01*
X338345D01*
X336039Y101345D01*
Y134655D01*
X345845Y144461D01*
X367500D01*
X368280Y144616D01*
X368942Y145058D01*
X389942Y166058D01*
X390384Y166720D01*
X390539Y167500D01*
Y218071D01*
X390539Y218071D01*
X390384Y218851D01*
X389942Y219513D01*
X389942Y219513D01*
X374039Y235416D01*
Y258256D01*
X376488Y259036D01*
X376579Y259037D01*
X405461Y230155D01*
D02*
G37*
%LPC*%
G36*
X397196Y229000D02*
X395804D01*
X394517Y228467D01*
X393533Y227483D01*
X393000Y226196D01*
Y224804D01*
X393533Y223517D01*
X394517Y222533D01*
X395804Y222000D01*
X397196D01*
X398483Y222533D01*
X399467Y223517D01*
X400000Y224804D01*
Y226196D01*
X399467Y227483D01*
X398483Y228467D01*
X397196Y229000D01*
D02*
G37*
%LPD*%
D10*
X348000Y446500D02*
X362000Y432500D01*
Y393500D02*
Y432500D01*
X312500Y344000D02*
X362000Y393500D01*
X318500Y446500D02*
X348000D01*
X367000Y394500D02*
X371000Y390500D01*
X348500Y453000D02*
X367000Y434500D01*
Y394500D02*
Y434500D01*
X312500Y283500D02*
X317500Y288500D01*
Y341500D02*
X366111Y390111D01*
X317500Y288500D02*
Y341500D01*
X366111Y390111D02*
X370611D01*
X360500Y97000D02*
X369500Y106000D01*
X337500Y97000D02*
X360500D01*
X361790Y91000D02*
X369586Y98796D01*
X357000Y109500D02*
X407500Y160000D01*
X352500Y109500D02*
X357000D01*
X352000Y103000D02*
X357571D01*
X411036Y156465D01*
X367500Y146500D02*
X388500Y167500D01*
X383500Y168500D02*
Y216000D01*
X367500Y152500D02*
X383500Y168500D01*
X345000Y152500D02*
X367500D01*
X328000Y135500D02*
X345000Y152500D01*
Y146500D02*
X367500D01*
X334000Y135500D02*
X345000Y146500D01*
X328000Y100500D02*
Y135500D01*
Y100500D02*
X337500Y91000D01*
X334000Y100500D02*
Y135500D01*
Y100500D02*
X337500Y97000D01*
Y91000D02*
X361790D01*
X375985Y338500D02*
X383000Y331485D01*
X367500Y338500D02*
X375985D01*
X383000Y262571D02*
Y331485D01*
X373500Y332500D02*
X378000Y328000D01*
Y260500D02*
Y328000D01*
Y260500D02*
X407500Y231000D01*
X383000Y262571D02*
X411036Y234536D01*
Y156465D02*
Y234536D01*
X407500Y160000D02*
Y231000D01*
X388500Y167500D02*
Y218071D01*
X354500Y328500D02*
X367000Y316000D01*
Y232500D02*
Y316000D01*
Y232500D02*
X383500Y216000D01*
X364500Y328500D02*
X372000Y321000D01*
Y234571D02*
Y321000D01*
Y234571D02*
X388500Y218071D01*
X535500Y317000D02*
X605000D01*
X428000Y284500D02*
X503000D01*
X535500Y317000D01*
X313500Y452188D02*
Y453000D01*
X314639Y450361D02*
Y451049D01*
Y450361D02*
X318500Y446500D01*
X313500Y452188D02*
X314639Y451049D01*
X343692Y452926D02*
X343766Y453000D01*
X348500D01*
X370611Y390111D02*
X371000Y390500D01*
X312500Y293500D02*
Y344000D01*
X296000Y265500D02*
X351500D01*
X292000Y269500D02*
X296000Y265500D01*
X263000Y269500D02*
X292000D01*
X241500Y264000D02*
X257500D01*
X263000Y269500D01*
X257500Y252500D02*
X262500Y257500D01*
X241500Y252500D02*
X257500D01*
X262500Y257500D02*
X351500D01*
X178000Y79000D02*
X244500D01*
X257500Y92000D02*
Y207500D01*
X244500Y79000D02*
X257500Y92000D01*
X292000Y47000D02*
Y65000D01*
X291500Y46500D02*
X292000Y47000D01*
X265500Y91500D02*
X292000Y65000D01*
X265500Y91500D02*
Y205000D01*
X303000Y242500D01*
X344500D01*
X351500Y249500D01*
X299500D02*
X326500D01*
X257500Y207500D02*
X299500Y249500D01*
X167500Y318000D02*
X206000Y279500D01*
X167000Y318000D02*
X167500D01*
X206000Y231000D02*
Y279500D01*
Y231000D02*
X206500Y230500D01*
Y158000D02*
Y230500D01*
X145000Y96500D02*
X206500Y158000D01*
X145000Y80000D02*
Y96500D01*
X122000Y334500D02*
X140000Y316500D01*
X122000Y334500D02*
Y371000D01*
X196500Y458000D02*
X205000D01*
X122000Y383500D02*
X196500Y458000D01*
D65*
X40300Y524400D02*
D03*
X722800D02*
D03*
Y34000D02*
D03*
X40300D02*
D03*
D71*
X261020Y37210D02*
D03*
Y55210D02*
D03*
D81*
X64000Y333100D02*
D03*
Y307700D02*
D03*
Y282300D02*
D03*
D82*
Y256900D02*
D03*
X414000Y499000D02*
D03*
D83*
X360079Y476712D02*
D03*
X302279D02*
D03*
X159849D02*
D03*
X102049D02*
D03*
D84*
X376180Y513212D02*
D03*
X286179Y513212D02*
D03*
X175950Y513212D02*
D03*
X85949Y513212D02*
D03*
D85*
X286181Y471712D02*
D03*
X376181Y471712D02*
D03*
X85951Y471712D02*
D03*
X175951Y471712D02*
D03*
D86*
X315500Y216000D02*
D03*
X326500Y219000D02*
D03*
X336000D02*
D03*
X341500Y175500D02*
D03*
X352000D02*
D03*
X364500Y177000D02*
D03*
X318500D02*
D03*
X330500Y175500D02*
D03*
X336000Y228000D02*
D03*
X352000Y219000D02*
D03*
X361000D02*
D03*
X378000Y195000D02*
D03*
X368500Y214000D02*
D03*
X352000Y228000D02*
D03*
X378000Y206000D02*
D03*
X614000Y282000D02*
D03*
X396500Y162000D02*
D03*
X377500Y144500D02*
D03*
X343000Y128500D02*
D03*
Y111500D02*
D03*
X250000Y513000D02*
D03*
X227500Y488500D02*
D03*
X201000Y489000D02*
D03*
X467000Y464500D02*
D03*
X494000Y451500D02*
D03*
X527000Y511500D02*
D03*
X566000Y472500D02*
D03*
X611500Y418500D02*
D03*
X610000Y353000D02*
D03*
X614500Y217000D02*
D03*
X582500Y156000D02*
D03*
X527500Y98500D02*
D03*
X475500Y58000D02*
D03*
X413000Y59000D02*
D03*
X485500Y164500D02*
D03*
X454000Y136000D02*
D03*
X413500Y135000D02*
D03*
X520500Y279000D02*
D03*
X503500Y239000D02*
D03*
X481500Y290000D02*
D03*
X447000D02*
D03*
X472000Y250000D02*
D03*
X441500Y250500D02*
D03*
X104000Y342000D02*
D03*
X251000Y294000D02*
D03*
X271000Y313000D02*
D03*
X270000Y354500D02*
D03*
X243500Y381000D02*
D03*
X173000Y385000D02*
D03*
X228500Y338000D02*
D03*
X212500Y353000D02*
D03*
X255000Y457000D02*
D03*
X396500Y225500D02*
D03*
X388000Y228000D02*
D03*
X324500Y365000D02*
D03*
X369500Y106000D02*
D03*
X369586Y98796D02*
D03*
X352500Y109500D02*
D03*
X352000Y103000D02*
D03*
X367500Y338500D02*
D03*
X373500Y332500D02*
D03*
X368500Y188500D02*
D03*
X354500Y328500D02*
D03*
X364500D02*
D03*
X437000Y465000D02*
D03*
X605000Y317000D02*
D03*
X428000Y284500D02*
D03*
X427500Y308500D02*
D03*
X418000Y366000D02*
D03*
X455500Y346500D02*
D03*
Y358500D02*
D03*
X468500Y332500D02*
D03*
X405000Y328500D02*
D03*
X418000Y391500D02*
D03*
X383000Y390500D02*
D03*
X347000D02*
D03*
X315000Y391500D02*
D03*
Y365000D02*
D03*
X313500Y453000D02*
D03*
X343692Y452926D02*
D03*
X371000Y390500D02*
D03*
X359000D02*
D03*
X312500Y293500D02*
D03*
Y283500D02*
D03*
X263000Y250000D02*
D03*
X241500Y264000D02*
D03*
X288000Y251500D02*
D03*
X241500Y252500D02*
D03*
X351500Y265500D02*
D03*
Y257500D02*
D03*
X396500Y199000D02*
D03*
X301000Y63500D02*
D03*
X231000Y46000D02*
D03*
X291500Y46500D02*
D03*
X351500Y249500D02*
D03*
X178000Y79000D02*
D03*
X326500Y249500D02*
D03*
X315500Y206500D02*
D03*
X287000Y199000D02*
D03*
X300000D02*
D03*
Y223500D02*
D03*
X144500Y347000D02*
D03*
X218000Y313000D02*
D03*
X217000Y301000D02*
D03*
X289500Y263500D02*
D03*
X271000Y415000D02*
D03*
X219000Y431500D02*
D03*
X218000Y400500D02*
D03*
X208500D02*
D03*
X199000D02*
D03*
X167000Y318000D02*
D03*
X145000Y80000D02*
D03*
X195000Y61500D02*
D03*
X161000Y62000D02*
D03*
X111000Y79500D02*
D03*
X128000Y62000D02*
D03*
X216000Y321500D02*
D03*
X137000Y345000D02*
D03*
X140000Y316500D02*
D03*
X122000Y371000D02*
D03*
X86500Y311000D02*
D03*
Y286000D02*
D03*
X112000Y274000D02*
D03*
X86500Y266000D02*
D03*
X112000D02*
D03*
X115500Y243000D02*
D03*
X119500Y196000D02*
D03*
X130000Y177000D02*
D03*
X115500Y217500D02*
D03*
X128000D02*
D03*
X139500Y217000D02*
D03*
X119500Y185500D02*
D03*
X140000Y171000D02*
D03*
X157000D02*
D03*
X173500D02*
D03*
X194000Y193000D02*
D03*
Y204000D02*
D03*
X224000Y213500D02*
D03*
X212500D02*
D03*
X201000D02*
D03*
X179000Y213000D02*
D03*
X189500Y214000D02*
D03*
X177000Y269000D02*
D03*
X173000Y240000D02*
D03*
X168000Y217500D02*
D03*
Y228000D02*
D03*
X151000Y217500D02*
D03*
Y228000D02*
D03*
X151500Y239000D02*
D03*
X183000Y186000D02*
D03*
X130000Y203000D02*
D03*
X242000Y321500D02*
D03*
X137000Y371000D02*
D03*
X122000Y383500D02*
D03*
Y395500D02*
D03*
X60000Y394500D02*
D03*
X140971Y418029D02*
D03*
X103000Y418500D02*
D03*
X541000Y231500D02*
D03*
Y266500D02*
D03*
X563000Y296500D02*
D03*
X541000Y291500D02*
D03*
X563000Y287000D02*
D03*
X541000Y281500D02*
D03*
X424000Y79000D02*
D03*
Y90000D02*
D03*
Y101000D02*
D03*
Y112000D02*
D03*
X399000D02*
D03*
X535000Y414000D02*
D03*
X554000Y359000D02*
D03*
X578000Y370500D02*
D03*
X587000Y245000D02*
D03*
X587500Y257000D02*
D03*
Y269000D02*
D03*
X563500Y269500D02*
D03*
X564000Y330000D02*
D03*
X533000Y365000D02*
D03*
Y355000D02*
D03*
X523000Y365000D02*
D03*
Y355000D02*
D03*
X513000D02*
D03*
Y365000D02*
D03*
X238000Y469000D02*
D03*
X227000D02*
D03*
X216000D02*
D03*
X205000Y458000D02*
D03*
X216000D02*
D03*
X279000Y433000D02*
D03*
X288000D02*
D03*
Y443000D02*
D03*
X277000D02*
D03*
X267000D02*
D03*
X255000Y433000D02*
D03*
X582000Y400000D02*
D03*
X572000D02*
D03*
X562000Y410000D02*
D03*
X572000D02*
D03*
X582000D02*
D03*
Y420000D02*
D03*
X572000D02*
D03*
X562000D02*
D03*
X227000Y458000D02*
D03*
M02*
