G04*
G04 #@! TF.GenerationSoftware,Altium Limited,Altium Designer,23.8.1 (32)*
G04*
G04 Layer_Color=8388736*
%FSLAX44Y44*%
%MOMM*%
G71*
G04*
G04 #@! TF.SameCoordinates,D96BB530-8D29-4B5F-9446-CCACF09A0524*
G04*
G04*
G04 #@! TF.FilePolarity,Negative*
G04*
G01*
G75*
G04:AMPARAMS|DCode=20|XSize=0.3mm|YSize=1.5mm|CornerRadius=0.075mm|HoleSize=0mm|Usage=FLASHONLY|Rotation=90.000|XOffset=0mm|YOffset=0mm|HoleType=Round|Shape=RoundedRectangle|*
%AMROUNDEDRECTD20*
21,1,0.3000,1.3500,0,0,90.0*
21,1,0.1500,1.5000,0,0,90.0*
1,1,0.1500,0.6750,0.0750*
1,1,0.1500,0.6750,-0.0750*
1,1,0.1500,-0.6750,-0.0750*
1,1,0.1500,-0.6750,0.0750*
%
%ADD20ROUNDEDRECTD20*%
%ADD32R,1.2000X0.3000*%
%ADD33R,0.3000X1.2000*%
%ADD44R,0.7032X0.6032*%
%ADD45R,1.0922X1.4732*%
G04:AMPARAMS|DCode=46|XSize=1.4732mm|YSize=1.0922mm|CornerRadius=0mm|HoleSize=0mm|Usage=FLASHONLY|Rotation=90.000|XOffset=0mm|YOffset=0mm|HoleType=Round|Shape=Octagon|*
%AMOCTAGOND46*
4,1,8,0.2731,0.7366,-0.2731,0.7366,-0.5461,0.4636,-0.5461,-0.4636,-0.2731,-0.7366,0.2731,-0.7366,0.5461,-0.4636,0.5461,0.4636,0.2731,0.7366,0.0*
%
%ADD46OCTAGOND46*%

G04:AMPARAMS|DCode=47|XSize=2.2032mm|YSize=1.7032mm|CornerRadius=0.4766mm|HoleSize=0mm|Usage=FLASHONLY|Rotation=90.000|XOffset=0mm|YOffset=0mm|HoleType=Round|Shape=RoundedRectangle|*
%AMROUNDEDRECTD47*
21,1,2.2032,0.7500,0,0,90.0*
21,1,1.2500,1.7032,0,0,90.0*
1,1,0.9532,0.3750,0.6250*
1,1,0.9532,0.3750,-0.6250*
1,1,0.9532,-0.3750,-0.6250*
1,1,0.9532,-0.3750,0.6250*
%
%ADD47ROUNDEDRECTD47*%
G04:AMPARAMS|DCode=48|XSize=1.4032mm|YSize=1.7032mm|CornerRadius=0.4016mm|HoleSize=0mm|Usage=FLASHONLY|Rotation=0.000|XOffset=0mm|YOffset=0mm|HoleType=Round|Shape=RoundedRectangle|*
%AMROUNDEDRECTD48*
21,1,1.4032,0.9000,0,0,0.0*
21,1,0.6000,1.7032,0,0,0.0*
1,1,0.8032,0.3000,-0.4500*
1,1,0.8032,-0.3000,-0.4500*
1,1,0.8032,-0.3000,0.4500*
1,1,0.8032,0.3000,0.4500*
%
%ADD48ROUNDEDRECTD48*%
G04:AMPARAMS|DCode=49|XSize=1.4232mm|YSize=0.8532mm|CornerRadius=0.1829mm|HoleSize=0mm|Usage=FLASHONLY|Rotation=180.000|XOffset=0mm|YOffset=0mm|HoleType=Round|Shape=RoundedRectangle|*
%AMROUNDEDRECTD49*
21,1,1.4232,0.4875,0,0,180.0*
21,1,1.0575,0.8532,0,0,180.0*
1,1,0.3657,-0.5288,0.2438*
1,1,0.3657,0.5288,0.2438*
1,1,0.3657,0.5288,-0.2438*
1,1,0.3657,-0.5288,-0.2438*
%
%ADD49ROUNDEDRECTD49*%
%ADD50R,2.0032X1.0532*%
%ADD51R,1.4032X1.5532*%
%ADD52O,1.7532X0.4532*%
%ADD53O,0.4532X1.7532*%
%ADD54R,0.6032X0.7032*%
%ADD55R,1.0922X1.0922*%
%ADD56R,0.6532X1.2032*%
%ADD57R,1.5032X1.4032*%
%ADD58R,1.2032X0.6532*%
%ADD59R,0.5032X1.3532*%
%ADD60R,0.5029X1.3513*%
G04:AMPARAMS|DCode=61|XSize=2.0032mm|YSize=3.2032mm|CornerRadius=0mm|HoleSize=0mm|Usage=FLASHONLY|Rotation=270.000|XOffset=0mm|YOffset=0mm|HoleType=Round|Shape=Octagon|*
%AMOCTAGOND61*
4,1,8,1.6016,0.5008,1.6016,-0.5008,1.1008,-1.0016,-1.1008,-1.0016,-1.6016,-0.5008,-1.6016,0.5008,-1.1008,1.0016,1.1008,1.0016,1.6016,0.5008,0.0*
%
%ADD61OCTAGOND61*%

%ADD62R,1.4032X0.8032*%
%ADD63R,2.3032X0.8032*%
%ADD64R,1.4222X1.1172*%
%ADD65C,1.0000*%
%ADD66C,1.9032*%
%ADD67R,1.9032X1.9032*%
%ADD68C,0.9532*%
%ADD69O,1.4032X2.2032*%
%ADD70O,1.4032X2.5032*%
%ADD71C,0.7000*%
G36*
X349881Y386394D02*
X350009Y386368D01*
X350134Y386326D01*
X350251Y386268D01*
X350360Y386195D01*
X350459Y386109D01*
X350545Y386010D01*
X350618Y385901D01*
X350676Y385784D01*
X350718Y385659D01*
X350743Y385531D01*
X350752Y385400D01*
Y380600D01*
X350743Y380469D01*
X350718Y380341D01*
X350686Y380248D01*
X350676Y380216D01*
X350618Y380099D01*
X350545Y379990D01*
X350488Y379925D01*
X350545Y379860D01*
X350618Y379751D01*
X350676Y379633D01*
X350718Y379509D01*
X350743Y379381D01*
X350752Y379250D01*
Y371800D01*
X350743Y371669D01*
X350718Y371541D01*
X350676Y371417D01*
X350618Y371299D01*
X350545Y371190D01*
X350459Y371091D01*
X350360Y371005D01*
X350251Y370932D01*
X350134Y370874D01*
X350009Y370832D01*
X349881Y370806D01*
X349750Y370798D01*
X344250D01*
X344119Y370806D01*
X343991Y370832D01*
X343867Y370874D01*
X343749Y370932D01*
X343640Y371005D01*
X343541Y371091D01*
X343455Y371190D01*
X343382Y371299D01*
X343324Y371417D01*
X343282Y371541D01*
X343256Y371669D01*
X343248Y371800D01*
Y379450D01*
X343256Y379581D01*
X343282Y379709D01*
X343324Y379833D01*
X343382Y379951D01*
X343432Y380025D01*
X343382Y380099D01*
X343324Y380216D01*
X343282Y380341D01*
X343256Y380469D01*
X343248Y380600D01*
Y385400D01*
X343256Y385531D01*
X343282Y385659D01*
X343324Y385784D01*
X343382Y385901D01*
X343455Y386010D01*
X343541Y386109D01*
X343640Y386195D01*
X343749Y386268D01*
X343867Y386326D01*
X343991Y386368D01*
X344119Y386394D01*
X344250Y386402D01*
X349750D01*
X349881Y386394D01*
D02*
G37*
G36*
X105601Y314743D02*
X105729Y314718D01*
X105854Y314676D01*
X105971Y314618D01*
X106080Y314545D01*
X106179Y314459D01*
X106265Y314360D01*
X106338Y314251D01*
X106396Y314133D01*
X106438Y314009D01*
X106464Y313881D01*
X106472Y313750D01*
Y308250D01*
X106464Y308119D01*
X106438Y307991D01*
X106396Y307866D01*
X106338Y307749D01*
X106265Y307640D01*
X106179Y307541D01*
X106080Y307455D01*
X105971Y307382D01*
X105854Y307324D01*
X105729Y307282D01*
X105601Y307256D01*
X105470Y307248D01*
X100670D01*
X100539Y307256D01*
X100411Y307282D01*
X100318Y307313D01*
X100287Y307324D01*
X100169Y307382D01*
X100060Y307455D01*
X99995Y307512D01*
X99930Y307455D01*
X99821Y307382D01*
X99704Y307324D01*
X99579Y307282D01*
X99451Y307256D01*
X99320Y307248D01*
X91870D01*
X91739Y307256D01*
X91611Y307282D01*
X91487Y307324D01*
X91369Y307382D01*
X91260Y307455D01*
X91161Y307541D01*
X91075Y307640D01*
X91002Y307749D01*
X90944Y307866D01*
X90902Y307991D01*
X90877Y308119D01*
X90868Y308250D01*
Y313750D01*
X90877Y313881D01*
X90902Y314009D01*
X90944Y314133D01*
X91002Y314251D01*
X91075Y314360D01*
X91161Y314459D01*
X91260Y314545D01*
X91369Y314618D01*
X91487Y314676D01*
X91611Y314718D01*
X91739Y314743D01*
X91870Y314752D01*
X99520D01*
X99651Y314744D01*
X99779Y314718D01*
X99903Y314676D01*
X100021Y314618D01*
X100095Y314569D01*
X100169Y314618D01*
X100287Y314676D01*
X100411Y314718D01*
X100539Y314743D01*
X100670Y314752D01*
X105470D01*
X105601Y314743D01*
D02*
G37*
G36*
X282531Y278744D02*
X282659Y278718D01*
X282784Y278676D01*
X282901Y278618D01*
X283010Y278545D01*
X283109Y278459D01*
X283195Y278360D01*
X283268Y278251D01*
X283326Y278134D01*
X283368Y278009D01*
X283393Y277881D01*
X283402Y277750D01*
Y272250D01*
X283393Y272119D01*
X283368Y271991D01*
X283326Y271866D01*
X283268Y271749D01*
X283195Y271640D01*
X283109Y271541D01*
X283010Y271455D01*
X282901Y271382D01*
X282784Y271324D01*
X282659Y271282D01*
X282531Y271257D01*
X282400Y271248D01*
X274750D01*
X274619Y271256D01*
X274491Y271282D01*
X274366Y271324D01*
X274249Y271382D01*
X274175Y271432D01*
X274101Y271382D01*
X273983Y271324D01*
X273859Y271282D01*
X273731Y271257D01*
X273600Y271248D01*
X268800D01*
X268669Y271257D01*
X268541Y271282D01*
X268417Y271324D01*
X268299Y271382D01*
X268190Y271455D01*
X268091Y271541D01*
X268005Y271640D01*
X267932Y271749D01*
X267874Y271866D01*
X267832Y271991D01*
X267806Y272119D01*
X267798Y272250D01*
Y277750D01*
X267806Y277881D01*
X267832Y278009D01*
X267874Y278134D01*
X267932Y278251D01*
X268005Y278360D01*
X268091Y278459D01*
X268190Y278545D01*
X268299Y278618D01*
X268417Y278676D01*
X268541Y278718D01*
X268669Y278744D01*
X268800Y278752D01*
X273600D01*
X273731Y278744D01*
X273859Y278718D01*
X273952Y278687D01*
X273983Y278676D01*
X274101Y278618D01*
X274210Y278545D01*
X274275Y278488D01*
X274340Y278545D01*
X274449Y278618D01*
X274566Y278676D01*
X274691Y278718D01*
X274819Y278744D01*
X274950Y278752D01*
X282400D01*
X282531Y278744D01*
D02*
G37*
G36*
X385881Y386394D02*
X386009Y386368D01*
X386133Y386326D01*
X386251Y386268D01*
X386360Y386195D01*
X386459Y386109D01*
X386545Y386010D01*
X386618Y385901D01*
X386676Y385784D01*
X386718Y385659D01*
X386744Y385531D01*
X386752Y385400D01*
Y380600D01*
X386744Y380469D01*
X386718Y380341D01*
X386687Y380248D01*
X386676Y380216D01*
X386618Y380099D01*
X386545Y379990D01*
X386488Y379925D01*
X386545Y379860D01*
X386618Y379751D01*
X386676Y379633D01*
X386718Y379509D01*
X386744Y379381D01*
X386752Y379250D01*
Y371800D01*
X386744Y371669D01*
X386718Y371541D01*
X386676Y371417D01*
X386618Y371299D01*
X386545Y371190D01*
X386459Y371091D01*
X386360Y371005D01*
X386251Y370932D01*
X386133Y370874D01*
X386009Y370832D01*
X385881Y370806D01*
X385750Y370798D01*
X380250D01*
X380119Y370806D01*
X379991Y370832D01*
X379866Y370874D01*
X379749Y370932D01*
X379640Y371005D01*
X379541Y371091D01*
X379455Y371190D01*
X379382Y371299D01*
X379324Y371417D01*
X379282Y371541D01*
X379256Y371669D01*
X379248Y371800D01*
Y379450D01*
X379256Y379581D01*
X379282Y379709D01*
X379324Y379833D01*
X379382Y379951D01*
X379431Y380025D01*
X379382Y380099D01*
X379324Y380216D01*
X379282Y380341D01*
X379256Y380469D01*
X379248Y380600D01*
Y385400D01*
X379256Y385531D01*
X379282Y385659D01*
X379324Y385784D01*
X379382Y385901D01*
X379455Y386010D01*
X379541Y386109D01*
X379640Y386195D01*
X379749Y386268D01*
X379866Y386326D01*
X379991Y386368D01*
X380119Y386394D01*
X380250Y386402D01*
X385750D01*
X385881Y386394D01*
D02*
G37*
G36*
X373881D02*
X374009Y386368D01*
X374133Y386326D01*
X374251Y386268D01*
X374360Y386195D01*
X374459Y386109D01*
X374545Y386010D01*
X374618Y385901D01*
X374676Y385784D01*
X374718Y385659D01*
X374743Y385531D01*
X374752Y385400D01*
Y380600D01*
X374743Y380469D01*
X374718Y380341D01*
X374687Y380248D01*
X374676Y380216D01*
X374618Y380099D01*
X374545Y379990D01*
X374488Y379925D01*
X374545Y379860D01*
X374618Y379751D01*
X374676Y379633D01*
X374718Y379509D01*
X374743Y379381D01*
X374752Y379250D01*
Y371800D01*
X374743Y371669D01*
X374718Y371541D01*
X374676Y371417D01*
X374618Y371299D01*
X374545Y371190D01*
X374459Y371091D01*
X374360Y371005D01*
X374251Y370932D01*
X374133Y370874D01*
X374009Y370832D01*
X373881Y370806D01*
X373750Y370798D01*
X368250D01*
X368119Y370806D01*
X367991Y370832D01*
X367867Y370874D01*
X367749Y370932D01*
X367640Y371005D01*
X367541Y371091D01*
X367455Y371190D01*
X367382Y371299D01*
X367324Y371417D01*
X367282Y371541D01*
X367256Y371669D01*
X367248Y371800D01*
Y379450D01*
X367256Y379581D01*
X367282Y379709D01*
X367324Y379833D01*
X367382Y379951D01*
X367431Y380025D01*
X367382Y380099D01*
X367324Y380216D01*
X367282Y380341D01*
X367256Y380469D01*
X367248Y380600D01*
Y385400D01*
X367256Y385531D01*
X367282Y385659D01*
X367324Y385784D01*
X367382Y385901D01*
X367455Y386010D01*
X367541Y386109D01*
X367640Y386195D01*
X367749Y386268D01*
X367867Y386326D01*
X367991Y386368D01*
X368119Y386394D01*
X368250Y386402D01*
X373750D01*
X373881Y386394D01*
D02*
G37*
G36*
X361881D02*
X362009Y386368D01*
X362133Y386326D01*
X362251Y386268D01*
X362360Y386195D01*
X362459Y386109D01*
X362545Y386010D01*
X362618Y385901D01*
X362676Y385784D01*
X362718Y385659D01*
X362743Y385531D01*
X362752Y385400D01*
Y380600D01*
X362743Y380469D01*
X362718Y380341D01*
X362687Y380248D01*
X362676Y380216D01*
X362618Y380099D01*
X362545Y379990D01*
X362488Y379925D01*
X362545Y379860D01*
X362618Y379751D01*
X362676Y379633D01*
X362718Y379509D01*
X362743Y379381D01*
X362752Y379250D01*
Y371800D01*
X362743Y371669D01*
X362718Y371541D01*
X362676Y371417D01*
X362618Y371299D01*
X362545Y371190D01*
X362459Y371091D01*
X362360Y371005D01*
X362251Y370932D01*
X362133Y370874D01*
X362009Y370832D01*
X361881Y370806D01*
X361750Y370798D01*
X356250D01*
X356119Y370806D01*
X355991Y370832D01*
X355867Y370874D01*
X355749Y370932D01*
X355640Y371005D01*
X355541Y371091D01*
X355455Y371190D01*
X355382Y371299D01*
X355324Y371417D01*
X355282Y371541D01*
X355256Y371669D01*
X355248Y371800D01*
Y379450D01*
X355256Y379581D01*
X355282Y379709D01*
X355324Y379833D01*
X355382Y379951D01*
X355432Y380025D01*
X355382Y380099D01*
X355324Y380216D01*
X355282Y380341D01*
X355256Y380469D01*
X355248Y380600D01*
Y385400D01*
X355256Y385531D01*
X355282Y385659D01*
X355324Y385784D01*
X355382Y385901D01*
X355455Y386010D01*
X355541Y386109D01*
X355640Y386195D01*
X355749Y386268D01*
X355867Y386326D01*
X355991Y386368D01*
X356119Y386394D01*
X356250Y386402D01*
X361750D01*
X361881Y386394D01*
D02*
G37*
D20*
X384060Y99210D02*
D03*
X384060Y104210D02*
D03*
X552070Y246710D02*
D03*
Y236710D02*
D03*
Y241710D02*
D03*
Y256710D02*
D03*
Y316710D02*
D03*
Y311710D02*
D03*
Y306710D02*
D03*
Y301710D02*
D03*
Y296710D02*
D03*
Y291710D02*
D03*
Y286710D02*
D03*
Y281710D02*
D03*
Y276710D02*
D03*
Y271710D02*
D03*
Y266710D02*
D03*
Y261710D02*
D03*
Y251710D02*
D03*
Y231710D02*
D03*
X384060Y109210D02*
D03*
X384060Y94210D02*
D03*
Y89210D02*
D03*
Y84210D02*
D03*
D32*
X301500Y258500D02*
D03*
Y263500D02*
D03*
Y268500D02*
D03*
Y273500D02*
D03*
X301500Y278500D02*
D03*
Y283500D02*
D03*
Y288500D02*
D03*
X301500Y293500D02*
D03*
Y298500D02*
D03*
X301500Y303500D02*
D03*
Y308500D02*
D03*
Y313500D02*
D03*
X301500Y318500D02*
D03*
Y323500D02*
D03*
X301500Y328500D02*
D03*
Y333500D02*
D03*
X416500Y333500D02*
D03*
Y328500D02*
D03*
X416500Y323500D02*
D03*
Y318500D02*
D03*
X416500Y313500D02*
D03*
X416500Y308500D02*
D03*
Y303500D02*
D03*
X416500Y298500D02*
D03*
Y293500D02*
D03*
X416500Y288500D02*
D03*
Y283500D02*
D03*
Y278500D02*
D03*
X416500Y273500D02*
D03*
Y268500D02*
D03*
Y263500D02*
D03*
Y258500D02*
D03*
D33*
X321500Y353500D02*
D03*
X326500D02*
D03*
X331500D02*
D03*
X336500D02*
D03*
X341500D02*
D03*
X346500D02*
D03*
X351500D02*
D03*
X356500D02*
D03*
X361500D02*
D03*
X366500D02*
D03*
X371500D02*
D03*
X376500D02*
D03*
X381500D02*
D03*
X386500D02*
D03*
X391500D02*
D03*
X396500D02*
D03*
X396500Y238500D02*
D03*
X391500D02*
D03*
X386500D02*
D03*
X381500D02*
D03*
X376500D02*
D03*
X371500D02*
D03*
X366500D02*
D03*
X361500D02*
D03*
X356500D02*
D03*
X351500Y238500D02*
D03*
X346500D02*
D03*
X341500Y238500D02*
D03*
X336500D02*
D03*
X331500D02*
D03*
X326500D02*
D03*
X321500D02*
D03*
D44*
X178001Y229999D02*
D03*
X178000Y221000D02*
D03*
X189501Y221499D02*
D03*
Y229999D02*
D03*
X201001D02*
D03*
X201000Y221000D02*
D03*
X212501Y221499D02*
D03*
X212501Y229999D02*
D03*
X224001Y221499D02*
D03*
X224001Y229999D02*
D03*
X195001Y53499D02*
D03*
X195001Y44999D02*
D03*
X418000Y383500D02*
D03*
X417999Y374501D02*
D03*
X396500Y206500D02*
D03*
X396501Y215499D02*
D03*
X315000Y383500D02*
D03*
X314999Y374501D02*
D03*
X287000Y206500D02*
D03*
X287001Y215499D02*
D03*
X300000Y206500D02*
D03*
X300001Y215499D02*
D03*
X192000Y355000D02*
D03*
X192000Y363500D02*
D03*
X127769Y225001D02*
D03*
X127769Y233501D02*
D03*
X139499Y225271D02*
D03*
X139499Y233771D02*
D03*
X130000Y186500D02*
D03*
X130001Y195499D02*
D03*
X315500Y197500D02*
D03*
X315499Y188501D02*
D03*
X183000Y203500D02*
D03*
X182999Y194501D02*
D03*
X368500Y196500D02*
D03*
X368501Y205499D02*
D03*
X137000Y363500D02*
D03*
X136999Y354501D02*
D03*
X115500Y225000D02*
D03*
X115501Y233999D02*
D03*
X301000Y46500D02*
D03*
X301001Y55499D02*
D03*
X180000Y355000D02*
D03*
X180000Y363500D02*
D03*
X128269Y426031D02*
D03*
X128269Y434531D02*
D03*
X115569Y426031D02*
D03*
X115569Y434531D02*
D03*
X161001Y53499D02*
D03*
Y44999D02*
D03*
X128001Y53499D02*
D03*
Y44999D02*
D03*
X102869Y426031D02*
D03*
X102869Y434531D02*
D03*
X570000Y370500D02*
D03*
X570001Y379499D02*
D03*
X270800Y422800D02*
D03*
X270801Y431799D02*
D03*
X140971Y434531D02*
D03*
Y426031D02*
D03*
D45*
X177935Y45111D02*
D03*
X145004Y45440D02*
D03*
X110934Y45111D02*
D03*
D46*
X177935Y62891D02*
D03*
X145004Y63220D02*
D03*
X110934Y62891D02*
D03*
D47*
X526070Y214710D02*
D03*
Y333710D02*
D03*
X358060Y67210D02*
D03*
Y126210D02*
D03*
D48*
X243520Y46210D02*
D03*
X278520Y46210D02*
D03*
D49*
X255020Y441200D02*
D03*
Y422400D02*
D03*
X230120D02*
D03*
Y431800D02*
D03*
Y441200D02*
D03*
D50*
X181610Y413010D02*
D03*
Y445510D02*
D03*
D51*
X207010Y414510D02*
D03*
Y444010D02*
D03*
D52*
X124250Y266250D02*
D03*
Y271250D02*
D03*
Y276250D02*
D03*
Y281250D02*
D03*
Y286250D02*
D03*
Y291250D02*
D03*
Y296250D02*
D03*
Y301250D02*
D03*
Y306250D02*
D03*
Y311250D02*
D03*
Y316250D02*
D03*
Y321250D02*
D03*
X204750D02*
D03*
Y316250D02*
D03*
Y311250D02*
D03*
Y306250D02*
D03*
Y301250D02*
D03*
Y296250D02*
D03*
Y291250D02*
D03*
Y286250D02*
D03*
Y281250D02*
D03*
Y276250D02*
D03*
Y271250D02*
D03*
Y266250D02*
D03*
D53*
X137000Y334000D02*
D03*
X142000D02*
D03*
X147000D02*
D03*
X152000D02*
D03*
X157000D02*
D03*
X162000D02*
D03*
X167000D02*
D03*
X172000D02*
D03*
X177000D02*
D03*
X182000D02*
D03*
X187000D02*
D03*
X192000D02*
D03*
Y253500D02*
D03*
X187000D02*
D03*
X182000D02*
D03*
X177000D02*
D03*
X172000D02*
D03*
X167000D02*
D03*
X162000D02*
D03*
X157000D02*
D03*
X152000D02*
D03*
X147000D02*
D03*
X142000D02*
D03*
X137000D02*
D03*
D54*
X270500Y250000D02*
D03*
X279499Y249999D02*
D03*
X580251Y269000D02*
D03*
X571252Y269001D02*
D03*
X580251Y257000D02*
D03*
X571252Y257001D02*
D03*
X448000Y346500D02*
D03*
X439001Y346501D02*
D03*
X448000Y358500D02*
D03*
X439001Y358501D02*
D03*
X571501Y245001D02*
D03*
X580001Y245001D02*
D03*
X571501Y281001D02*
D03*
X580001Y281001D02*
D03*
X571501Y330001D02*
D03*
X580001Y330001D02*
D03*
X102499Y285999D02*
D03*
X93999D02*
D03*
X234500Y321270D02*
D03*
X225501Y321271D02*
D03*
X93770Y266000D02*
D03*
X102769Y265999D02*
D03*
X416499Y78729D02*
D03*
X407999Y78729D02*
D03*
X416499Y89729D02*
D03*
X407999Y89729D02*
D03*
X225501Y276271D02*
D03*
X234001Y276271D02*
D03*
X416500Y101000D02*
D03*
X407501Y101001D02*
D03*
X416500Y112000D02*
D03*
X407501Y112001D02*
D03*
X279499Y262999D02*
D03*
X270999Y262999D02*
D03*
X225501Y252271D02*
D03*
X234001Y252271D02*
D03*
X225501Y264271D02*
D03*
X234001Y264271D02*
D03*
X114499Y407669D02*
D03*
X105999Y407669D02*
D03*
X114499Y383224D02*
D03*
X105999Y383224D02*
D03*
Y371001D02*
D03*
X114499Y371001D02*
D03*
X105999Y395446D02*
D03*
X114499Y395446D02*
D03*
X409499Y464999D02*
D03*
X400999Y464999D02*
D03*
X542500Y414000D02*
D03*
X551499Y413999D02*
D03*
X247070Y457200D02*
D03*
X238071Y457201D02*
D03*
X429499Y464999D02*
D03*
X420999Y464999D02*
D03*
D55*
X439110Y332270D02*
D03*
X456890D02*
D03*
D56*
X583000Y294250D02*
D03*
X573500Y316930D02*
D03*
X592500D02*
D03*
D57*
X146500Y186000D02*
D03*
X167500D02*
D03*
Y203000D02*
D03*
X146500D02*
D03*
X352000Y206000D02*
D03*
X331000D02*
D03*
Y189000D02*
D03*
X352000Y189000D02*
D03*
D58*
X69320Y394500D02*
D03*
X92000Y404000D02*
D03*
Y385000D02*
D03*
D59*
X364680Y463727D02*
D03*
X361681D02*
D03*
X356679Y463753D02*
D03*
X353680D02*
D03*
X343680Y463708D02*
D03*
X338682Y463730D02*
D03*
X333680Y463712D02*
D03*
X328681Y463727D02*
D03*
X323680Y463712D02*
D03*
X313680D02*
D03*
X308681Y463712D02*
D03*
X305679D02*
D03*
X300680Y463712D02*
D03*
X297680D02*
D03*
X164450Y463727D02*
D03*
X161451D02*
D03*
X156449Y463753D02*
D03*
X153450D02*
D03*
X143449Y463708D02*
D03*
X138452Y463730D02*
D03*
X133450Y463712D02*
D03*
X128451Y463727D02*
D03*
X123450Y463712D02*
D03*
X113450D02*
D03*
X108451Y463712D02*
D03*
X105449D02*
D03*
X100450Y463712D02*
D03*
X97450D02*
D03*
D60*
X348680Y463713D02*
D03*
X318680Y463712D02*
D03*
X148450Y463713D02*
D03*
X118450Y463712D02*
D03*
D61*
X524808Y381000D02*
D03*
D62*
X554000Y396000D02*
D03*
Y366000D02*
D03*
D63*
X549700Y381000D02*
D03*
D64*
X158750Y445643D02*
D03*
Y412877D02*
D03*
D65*
X40300Y524400D02*
D03*
X722800D02*
D03*
Y34000D02*
D03*
X40300D02*
D03*
D66*
X64000Y333100D02*
D03*
Y307700D02*
D03*
Y282300D02*
D03*
D67*
Y256900D02*
D03*
X414000Y499000D02*
D03*
D68*
X360079Y476712D02*
D03*
X302279D02*
D03*
X159849D02*
D03*
X102049D02*
D03*
D69*
X376180Y513212D02*
D03*
X286179Y513212D02*
D03*
X175950Y513212D02*
D03*
X85949Y513212D02*
D03*
D70*
X286181Y471712D02*
D03*
X376181Y471712D02*
D03*
X85951Y471712D02*
D03*
X175951Y471712D02*
D03*
D71*
X261020Y37210D02*
D03*
Y55210D02*
D03*
M02*
