G04*
G04 #@! TF.GenerationSoftware,Altium Limited,Altium Designer,23.8.1 (32)*
G04*
G04 Layer_Color=128*
%FSLAX44Y44*%
%MOMM*%
G71*
G04*
G04 #@! TF.SameCoordinates,D96BB530-8D29-4B5F-9446-CCACF09A0524*
G04*
G04*
G04 #@! TF.FilePolarity,Positive*
G04*
G01*
G75*
%ADD17C,0.1270*%
D17*
X35300Y524400D02*
X45300D01*
X40300Y519400D02*
Y529400D01*
X717800Y524400D02*
X727800D01*
X722800Y519400D02*
Y529400D01*
X717800Y34000D02*
X727800D01*
X722800Y29000D02*
Y39000D01*
X35300Y34000D02*
X45300D01*
X40300Y29000D02*
Y39000D01*
X59500Y333100D02*
X68500D01*
X64000Y328600D02*
Y337600D01*
X59500Y307700D02*
X68500D01*
X64000Y303200D02*
Y312200D01*
X59500Y282300D02*
X68500D01*
X64000Y277800D02*
Y286800D01*
X59500Y256900D02*
X68500D01*
X64000Y252400D02*
Y261400D01*
X356329Y476712D02*
X363829D01*
X360079Y472962D02*
Y480462D01*
X298529Y476712D02*
X306029D01*
X302279Y472962D02*
Y480462D01*
X372180Y513212D02*
X380180D01*
X376180Y509212D02*
Y517212D01*
X282180Y513212D02*
X290180D01*
X286180Y509212D02*
Y517212D01*
X282680Y471712D02*
X289680D01*
X286180Y468212D02*
Y475212D01*
X372680Y471712D02*
X379680D01*
X376180Y468212D02*
Y475212D01*
X156099Y476712D02*
X163599D01*
X159849Y472962D02*
Y480462D01*
X98299Y476712D02*
X105799D01*
X102049Y472962D02*
Y480462D01*
X171950Y513212D02*
X179950D01*
X175950Y509212D02*
Y517212D01*
X81950Y513212D02*
X89950D01*
X85950Y509212D02*
Y517212D01*
X82450Y471712D02*
X89450D01*
X85950Y468212D02*
Y475212D01*
X172450Y471712D02*
X179450D01*
X175950Y468212D02*
Y475212D01*
X409000Y499000D02*
X419000D01*
X414000Y494000D02*
Y504000D01*
X314000Y216000D02*
X317000D01*
X315500Y214500D02*
Y217500D01*
X325000Y219000D02*
X328000D01*
X326500Y217500D02*
Y220500D01*
X334500Y219000D02*
X337500D01*
X336000Y217500D02*
Y220500D01*
X340000Y175500D02*
X343000D01*
X341500Y174000D02*
Y177000D01*
X350500Y175500D02*
X353500D01*
X352000Y174000D02*
Y177000D01*
X363000D02*
X366000D01*
X364500Y175500D02*
Y178500D01*
X317000Y177000D02*
X320000D01*
X318500Y175500D02*
Y178500D01*
X329000Y175500D02*
X332000D01*
X330500Y174000D02*
Y177000D01*
X334500Y228000D02*
X337500D01*
X336000Y226500D02*
Y229500D01*
X257520Y37210D02*
X264520D01*
X261020Y33710D02*
Y40710D01*
X257520Y55210D02*
X264520D01*
X261020Y51710D02*
Y58710D01*
X350500Y219000D02*
X353500D01*
X352000Y217500D02*
Y220500D01*
X359500Y219000D02*
X362500D01*
X361000Y217500D02*
Y220500D01*
X376500Y195000D02*
X379500D01*
X378000Y193500D02*
Y196500D01*
X367000Y214000D02*
X370000D01*
X368500Y212500D02*
Y215500D01*
X350500Y228000D02*
X353500D01*
X352000Y226500D02*
Y229500D01*
X376500Y206000D02*
X379500D01*
X378000Y204500D02*
Y207500D01*
X612500Y282000D02*
X615500D01*
X614000Y280500D02*
Y283500D01*
X395000Y162000D02*
X398000D01*
X396500Y160500D02*
Y163500D01*
X376000Y144500D02*
X379000D01*
X377500Y143000D02*
Y146000D01*
X341500Y128500D02*
X344500D01*
X343000Y127000D02*
Y130000D01*
X341500Y111500D02*
X344500D01*
X343000Y110000D02*
Y113000D01*
X248500Y513000D02*
X251500D01*
X250000Y511500D02*
Y514500D01*
X226000Y488500D02*
X229000D01*
X227500Y487000D02*
Y490000D01*
X199500Y489000D02*
X202500D01*
X201000Y487500D02*
Y490500D01*
X465500Y464500D02*
X468500D01*
X467000Y463000D02*
Y466000D01*
X492500Y451500D02*
X495500D01*
X494000Y450000D02*
Y453000D01*
X525500Y511500D02*
X528500D01*
X527000Y510000D02*
Y513000D01*
X564500Y472500D02*
X567500D01*
X566000Y471000D02*
Y474000D01*
X610000Y418500D02*
X613000D01*
X611500Y417000D02*
Y420000D01*
X608500Y353000D02*
X611500D01*
X610000Y351500D02*
Y354500D01*
X613000Y217000D02*
X616000D01*
X614500Y215500D02*
Y218500D01*
X581000Y156000D02*
X584000D01*
X582500Y154500D02*
Y157500D01*
X526000Y98500D02*
X529000D01*
X527500Y97000D02*
Y100000D01*
X474000Y58000D02*
X477000D01*
X475500Y56500D02*
Y59500D01*
X411500Y59000D02*
X414500D01*
X413000Y57500D02*
Y60500D01*
X484000Y164500D02*
X487000D01*
X485500Y163000D02*
Y166000D01*
X452500Y136000D02*
X455500D01*
X454000Y134500D02*
Y137500D01*
X412000Y135000D02*
X415000D01*
X413500Y133500D02*
Y136500D01*
X519000Y279000D02*
X522000D01*
X520500Y277500D02*
Y280500D01*
X502000Y239000D02*
X505000D01*
X503500Y237500D02*
Y240500D01*
X480000Y290000D02*
X483000D01*
X481500Y288500D02*
Y291500D01*
X445500Y290000D02*
X448500D01*
X447000Y288500D02*
Y291500D01*
X470500Y250000D02*
X473500D01*
X472000Y248500D02*
Y251500D01*
X440000Y250500D02*
X443000D01*
X441500Y249000D02*
Y252000D01*
X102500Y342000D02*
X105500D01*
X104000Y340500D02*
Y343500D01*
X249500Y294000D02*
X252500D01*
X251000Y292500D02*
Y295500D01*
X269500Y313000D02*
X272500D01*
X271000Y311500D02*
Y314500D01*
X268500Y354500D02*
X271500D01*
X270000Y353000D02*
Y356000D01*
X242000Y381000D02*
X245000D01*
X243500Y379500D02*
Y382500D01*
X171500Y385000D02*
X174500D01*
X173000Y383500D02*
Y386500D01*
X227000Y338000D02*
X230000D01*
X228500Y336500D02*
Y339500D01*
X211000Y353000D02*
X214000D01*
X212500Y351500D02*
Y354500D01*
X253500Y457000D02*
X256500D01*
X255000Y455500D02*
Y458500D01*
X395000Y225500D02*
X398000D01*
X396500Y224000D02*
Y227000D01*
X386500Y228000D02*
X389500D01*
X388000Y226500D02*
Y229500D01*
X323000Y365000D02*
X326000D01*
X324500Y363500D02*
Y366500D01*
X368000Y106000D02*
X371000D01*
X369500Y104500D02*
Y107500D01*
X368086Y98796D02*
X371086D01*
X369586Y97296D02*
Y100296D01*
X351000Y109500D02*
X354000D01*
X352500Y108000D02*
Y111000D01*
X350500Y103000D02*
X353500D01*
X352000Y101500D02*
Y104500D01*
X366000Y338500D02*
X369000D01*
X367500Y337000D02*
Y340000D01*
X372000Y332500D02*
X375000D01*
X373500Y331000D02*
Y334000D01*
X367000Y188500D02*
X370000D01*
X368500Y187000D02*
Y190000D01*
X353000Y328500D02*
X356000D01*
X354500Y327000D02*
Y330000D01*
X363000Y328500D02*
X366000D01*
X364500Y327000D02*
Y330000D01*
X435500Y465000D02*
X438500D01*
X437000Y463500D02*
Y466500D01*
X603500Y317000D02*
X606500D01*
X605000Y315500D02*
Y318500D01*
X426500Y284500D02*
X429500D01*
X428000Y283000D02*
Y286000D01*
X426000Y308500D02*
X429000D01*
X427500Y307000D02*
Y310000D01*
X416500Y366000D02*
X419500D01*
X418000Y364500D02*
Y367500D01*
X454000Y346500D02*
X457000D01*
X455500Y345000D02*
Y348000D01*
X454000Y358500D02*
X457000D01*
X455500Y357000D02*
Y360000D01*
X467000Y332500D02*
X470000D01*
X468500Y331000D02*
Y334000D01*
X403500Y328500D02*
X406500D01*
X405000Y327000D02*
Y330000D01*
X416500Y391500D02*
X419500D01*
X418000Y390000D02*
Y393000D01*
X381500Y390500D02*
X384500D01*
X383000Y389000D02*
Y392000D01*
X345500Y390500D02*
X348500D01*
X347000Y389000D02*
Y392000D01*
X313500Y391500D02*
X316500D01*
X315000Y390000D02*
Y393000D01*
X313500Y365000D02*
X316500D01*
X315000Y363500D02*
Y366500D01*
X312000Y453000D02*
X315000D01*
X313500Y451500D02*
Y454500D01*
X342192Y452926D02*
X345192D01*
X343692Y451426D02*
Y454426D01*
X369500Y390500D02*
X372500D01*
X371000Y389000D02*
Y392000D01*
X357500Y390500D02*
X360500D01*
X359000Y389000D02*
Y392000D01*
X311000Y293500D02*
X314000D01*
X312500Y292000D02*
Y295000D01*
X311000Y283500D02*
X314000D01*
X312500Y282000D02*
Y285000D01*
X261500Y250000D02*
X264500D01*
X263000Y248500D02*
Y251500D01*
X240000Y264000D02*
X243000D01*
X241500Y262500D02*
Y265500D01*
X286500Y251500D02*
X289500D01*
X288000Y250000D02*
Y253000D01*
X240000Y252500D02*
X243000D01*
X241500Y251000D02*
Y254000D01*
X350000Y265500D02*
X353000D01*
X351500Y264000D02*
Y267000D01*
X350000Y257500D02*
X353000D01*
X351500Y256000D02*
Y259000D01*
X395000Y199000D02*
X398000D01*
X396500Y197500D02*
Y200500D01*
X299500Y63500D02*
X302500D01*
X301000Y62000D02*
Y65000D01*
X229500Y46000D02*
X232500D01*
X231000Y44500D02*
Y47500D01*
X290000Y46500D02*
X293000D01*
X291500Y45000D02*
Y48000D01*
X350000Y249500D02*
X353000D01*
X351500Y248000D02*
Y251000D01*
X176500Y79000D02*
X179500D01*
X178000Y77500D02*
Y80500D01*
X325000Y249500D02*
X328000D01*
X326500Y248000D02*
Y251000D01*
X314000Y206500D02*
X317000D01*
X315500Y205000D02*
Y208000D01*
X285500Y199000D02*
X288500D01*
X287000Y197500D02*
Y200500D01*
X298500Y199000D02*
X301500D01*
X300000Y197500D02*
Y200500D01*
X298500Y223500D02*
X301500D01*
X300000Y222000D02*
Y225000D01*
X143000Y347000D02*
X146000D01*
X144500Y345500D02*
Y348500D01*
X216500Y313000D02*
X219500D01*
X218000Y311500D02*
Y314500D01*
X215500Y301000D02*
X218500D01*
X217000Y299500D02*
Y302500D01*
X288000Y263500D02*
X291000D01*
X289500Y262000D02*
Y265000D01*
X269500Y415000D02*
X272500D01*
X271000Y413500D02*
Y416500D01*
X217500Y431500D02*
X220500D01*
X219000Y430000D02*
Y433000D01*
X216500Y400500D02*
X219500D01*
X218000Y399000D02*
Y402000D01*
X207000Y400500D02*
X210000D01*
X208500Y399000D02*
Y402000D01*
X197500Y400500D02*
X200500D01*
X199000Y399000D02*
Y402000D01*
X165500Y318000D02*
X168500D01*
X167000Y316500D02*
Y319500D01*
X143500Y80000D02*
X146500D01*
X145000Y78500D02*
Y81500D01*
X193500Y61500D02*
X196500D01*
X195000Y60000D02*
Y63000D01*
X159500Y62000D02*
X162500D01*
X161000Y60500D02*
Y63500D01*
X109500Y79500D02*
X112500D01*
X111000Y78000D02*
Y81000D01*
X126500Y62000D02*
X129500D01*
X128000Y60500D02*
Y63500D01*
X214500Y321500D02*
X217500D01*
X216000Y320000D02*
Y323000D01*
X135500Y345000D02*
X138500D01*
X137000Y343500D02*
Y346500D01*
X138500Y316500D02*
X141500D01*
X140000Y315000D02*
Y318000D01*
X120500Y371000D02*
X123500D01*
X122000Y369500D02*
Y372500D01*
X85000Y311000D02*
X88000D01*
X86500Y309500D02*
Y312500D01*
X85000Y286000D02*
X88000D01*
X86500Y284500D02*
Y287500D01*
X110500Y274000D02*
X113500D01*
X112000Y272500D02*
Y275500D01*
X85000Y266000D02*
X88000D01*
X86500Y264500D02*
Y267500D01*
X110500Y266000D02*
X113500D01*
X112000Y264500D02*
Y267500D01*
X114000Y243000D02*
X117000D01*
X115500Y241500D02*
Y244500D01*
X118000Y196000D02*
X121000D01*
X119500Y194500D02*
Y197500D01*
X128500Y177000D02*
X131500D01*
X130000Y175500D02*
Y178500D01*
X114000Y217500D02*
X117000D01*
X115500Y216000D02*
Y219000D01*
X126500Y217500D02*
X129500D01*
X128000Y216000D02*
Y219000D01*
X138000Y217000D02*
X141000D01*
X139500Y215500D02*
Y218500D01*
X118000Y185500D02*
X121000D01*
X119500Y184000D02*
Y187000D01*
X138500Y171000D02*
X141500D01*
X140000Y169500D02*
Y172500D01*
X155500Y171000D02*
X158500D01*
X157000Y169500D02*
Y172500D01*
X172000Y171000D02*
X175000D01*
X173500Y169500D02*
Y172500D01*
X192500Y193000D02*
X195500D01*
X194000Y191500D02*
Y194500D01*
X192500Y204000D02*
X195500D01*
X194000Y202500D02*
Y205500D01*
X222500Y213500D02*
X225500D01*
X224000Y212000D02*
Y215000D01*
X211000Y213500D02*
X214000D01*
X212500Y212000D02*
Y215000D01*
X199500Y213500D02*
X202500D01*
X201000Y212000D02*
Y215000D01*
X177500Y213000D02*
X180500D01*
X179000Y211500D02*
Y214500D01*
X188000Y214000D02*
X191000D01*
X189500Y212500D02*
Y215500D01*
X175500Y269000D02*
X178500D01*
X177000Y267500D02*
Y270500D01*
X171500Y240000D02*
X174500D01*
X173000Y238500D02*
Y241500D01*
X166500Y217500D02*
X169500D01*
X168000Y216000D02*
Y219000D01*
X166500Y228000D02*
X169500D01*
X168000Y226500D02*
Y229500D01*
X149500Y217500D02*
X152500D01*
X151000Y216000D02*
Y219000D01*
X149500Y228000D02*
X152500D01*
X151000Y226500D02*
Y229500D01*
X150000Y239000D02*
X153000D01*
X151500Y237500D02*
Y240500D01*
X181500Y186000D02*
X184500D01*
X183000Y184500D02*
Y187500D01*
X128500Y203000D02*
X131500D01*
X130000Y201500D02*
Y204500D01*
X240500Y321500D02*
X243500D01*
X242000Y320000D02*
Y323000D01*
X135500Y371000D02*
X138500D01*
X137000Y369500D02*
Y372500D01*
X120500Y383500D02*
X123500D01*
X122000Y382000D02*
Y385000D01*
X120500Y395500D02*
X123500D01*
X122000Y394000D02*
Y397000D01*
X58500Y394500D02*
X61500D01*
X60000Y393000D02*
Y396000D01*
X139471Y418029D02*
X142471D01*
X140971Y416529D02*
Y419529D01*
X101500Y418500D02*
X104500D01*
X103000Y417000D02*
Y420000D01*
X539500Y231500D02*
X542500D01*
X541000Y230000D02*
Y233000D01*
X539500Y266500D02*
X542500D01*
X541000Y265000D02*
Y268000D01*
X561500Y296500D02*
X564500D01*
X563000Y295000D02*
Y298000D01*
X539500Y291500D02*
X542500D01*
X541000Y290000D02*
Y293000D01*
X561500Y287000D02*
X564500D01*
X563000Y285500D02*
Y288500D01*
X539500Y281500D02*
X542500D01*
X541000Y280000D02*
Y283000D01*
X422500Y79000D02*
X425500D01*
X424000Y77500D02*
Y80500D01*
X422500Y90000D02*
X425500D01*
X424000Y88500D02*
Y91500D01*
X422500Y101000D02*
X425500D01*
X424000Y99500D02*
Y102500D01*
X422500Y112000D02*
X425500D01*
X424000Y110500D02*
Y113500D01*
X397500Y112000D02*
X400500D01*
X399000Y110500D02*
Y113500D01*
X533500Y414000D02*
X536500D01*
X535000Y412500D02*
Y415500D01*
X552500Y359000D02*
X555500D01*
X554000Y357500D02*
Y360500D01*
X576500Y370500D02*
X579500D01*
X578000Y369000D02*
Y372000D01*
X585500Y245000D02*
X588500D01*
X587000Y243500D02*
Y246500D01*
X586000Y257000D02*
X589000D01*
X587500Y255500D02*
Y258500D01*
X586000Y269000D02*
X589000D01*
X587500Y267500D02*
Y270500D01*
X562000Y269500D02*
X565000D01*
X563500Y268000D02*
Y271000D01*
X562500Y330000D02*
X565500D01*
X564000Y328500D02*
Y331500D01*
X531500Y365000D02*
X534500D01*
X533000Y363500D02*
Y366500D01*
X531500Y355000D02*
X534500D01*
X533000Y353500D02*
Y356500D01*
X521500Y365000D02*
X524500D01*
X523000Y363500D02*
Y366500D01*
X521500Y355000D02*
X524500D01*
X523000Y353500D02*
Y356500D01*
X511500Y355000D02*
X514500D01*
X513000Y353500D02*
Y356500D01*
X511500Y365000D02*
X514500D01*
X513000Y363500D02*
Y366500D01*
X236500Y469000D02*
X239500D01*
X238000Y467500D02*
Y470500D01*
X225500Y469000D02*
X228500D01*
X227000Y467500D02*
Y470500D01*
X214500Y469000D02*
X217500D01*
X216000Y467500D02*
Y470500D01*
X203500Y458000D02*
X206500D01*
X205000Y456500D02*
Y459500D01*
X214500Y458000D02*
X217500D01*
X216000Y456500D02*
Y459500D01*
X277500Y433000D02*
X280500D01*
X279000Y431500D02*
Y434500D01*
X286500Y433000D02*
X289500D01*
X288000Y431500D02*
Y434500D01*
X286500Y443000D02*
X289500D01*
X288000Y441500D02*
Y444500D01*
X275500Y443000D02*
X278500D01*
X277000Y441500D02*
Y444500D01*
X265500Y443000D02*
X268500D01*
X267000Y441500D02*
Y444500D01*
X253500Y433000D02*
X256500D01*
X255000Y431500D02*
Y434500D01*
X580500Y400000D02*
X583500D01*
X582000Y398500D02*
Y401500D01*
X570500Y400000D02*
X573500D01*
X572000Y398500D02*
Y401500D01*
X560500Y410000D02*
X563500D01*
X562000Y408500D02*
Y411500D01*
X570500Y410000D02*
X573500D01*
X572000Y408500D02*
Y411500D01*
X580500Y410000D02*
X583500D01*
X582000Y408500D02*
Y411500D01*
X580500Y420000D02*
X583500D01*
X582000Y418500D02*
Y421500D01*
X570500Y420000D02*
X573500D01*
X572000Y418500D02*
Y421500D01*
X560500Y420000D02*
X563500D01*
X562000Y418500D02*
Y421500D01*
X225500Y458000D02*
X228500D01*
X227000Y456500D02*
Y459500D01*
M02*
