G04*
G04 #@! TF.GenerationSoftware,Altium Limited,Altium Designer,23.8.1 (32)*
G04*
G04 Layer_Color=32768*
%FSLAX44Y44*%
%MOMM*%
G71*
G04*
G04 #@! TF.SameCoordinates,D96BB530-8D29-4B5F-9446-CCACF09A0524*
G04*
G04*
G04 #@! TF.FilePolarity,Positive*
G04*
G01*
G75*
%ADD11C,0.1000*%
%ADD95C,0.0500*%
%ADD96C,0.0508*%
%ADD98C,0.0254*%
%ADD99C,0.0400*%
D11*
X159500Y293750D02*
X169500D01*
X164500Y288750D02*
Y298750D01*
X567000Y287720D02*
Y323280D01*
X599000Y287720D02*
Y323280D01*
X567000Y287720D02*
X599000D01*
X567000Y323280D02*
X599000D01*
X62790Y410500D02*
X98350D01*
X62790Y378500D02*
X98350D01*
X62790D02*
Y410500D01*
X98350Y378500D02*
Y410500D01*
X509060Y405000D02*
X561130D01*
X509060Y357000D02*
X561130D01*
X509060D02*
Y405000D01*
X561130Y357000D02*
Y405000D01*
X156250Y429260D02*
X161250D01*
X158750Y426760D02*
Y431760D01*
D95*
X181500Y54000D02*
G03*
X181500Y54000I-3500J0D01*
G01*
X148569Y54329D02*
G03*
X148569Y54329I-3500J0D01*
G01*
X114500Y54000D02*
G03*
X114500Y54000I-3500J0D01*
G01*
X586500Y305500D02*
G03*
X586500Y305500I-3500J0D01*
G01*
X84070Y394500D02*
G03*
X84070Y394500I-3500J0D01*
G01*
X539230Y381000D02*
G03*
X539230Y381000I-3500J0D01*
G01*
X178000Y49000D02*
Y59000D01*
X173000Y54000D02*
X183000D01*
X145069Y49329D02*
Y59329D01*
X140069Y54329D02*
X150069D01*
X106000Y54000D02*
X116000D01*
X111000Y49000D02*
Y59000D01*
X213500Y244750D02*
Y342750D01*
X115500Y244750D02*
Y342750D01*
X213500D01*
X115500Y244750D02*
X213500D01*
X583000Y300500D02*
Y310500D01*
X578000Y305500D02*
X588000D01*
X75570Y394500D02*
X85570D01*
X80570Y389500D02*
Y399500D01*
X530730Y381000D02*
X540730D01*
X535730Y376000D02*
Y386000D01*
X149750Y407310D02*
X167750D01*
Y451210D01*
X149750D02*
X167750D01*
X149750Y407310D02*
Y451210D01*
D96*
X448000Y332270D02*
Y333540D01*
Y331000D02*
Y332270D01*
X446730D02*
X449270D01*
D98*
X179270Y225500D02*
G03*
X179270Y225500I-1270J0D01*
G01*
X190770D02*
G03*
X190770Y225500I-1270J0D01*
G01*
X202270D02*
G03*
X202270Y225500I-1270J0D01*
G01*
X213770D02*
G03*
X213770Y225500I-1270J0D01*
G01*
X225270D02*
G03*
X225270Y225500I-1270J0D01*
G01*
X196270Y49000D02*
G03*
X196270Y49000I-1270J0D01*
G01*
X419270Y379000D02*
G03*
X419270Y379000I-1270J0D01*
G01*
X397770Y211000D02*
G03*
X397770Y211000I-1270J0D01*
G01*
X316270Y379000D02*
G03*
X316270Y379000I-1270J0D01*
G01*
X288270Y211000D02*
G03*
X288270Y211000I-1270J0D01*
G01*
X276270Y250000D02*
G03*
X276270Y250000I-1270J0D01*
G01*
X577021Y269000D02*
G03*
X577021Y269000I-1270J0D01*
G01*
Y257000D02*
G03*
X577021Y257000I-1270J0D01*
G01*
X444770Y346500D02*
G03*
X444770Y346500I-1270J0D01*
G01*
Y358500D02*
G03*
X444770Y358500I-1270J0D01*
G01*
X577270Y245000D02*
G03*
X577270Y245000I-1270J0D01*
G01*
X301270Y211000D02*
G03*
X301270Y211000I-1270J0D01*
G01*
X193271Y359499D02*
G03*
X193271Y359499I-1270J0D01*
G01*
X577270Y281000D02*
G03*
X577270Y281000I-1270J0D01*
G01*
Y330000D02*
G03*
X577270Y330000I-1270J0D01*
G01*
X99270Y286000D02*
G03*
X99270Y286000I-1270J0D01*
G01*
X129040Y229500D02*
G03*
X129040Y229500I-1270J0D01*
G01*
X140770Y229770D02*
G03*
X140770Y229770I-1270J0D01*
G01*
X131270Y191000D02*
G03*
X131270Y191000I-1270J0D01*
G01*
X316770Y193000D02*
G03*
X316770Y193000I-1270J0D01*
G01*
X184270Y199000D02*
G03*
X184270Y199000I-1270J0D01*
G01*
X369770Y201000D02*
G03*
X369770Y201000I-1270J0D01*
G01*
X231270Y321270D02*
G03*
X231270Y321270I-1270J0D01*
G01*
X138270Y359000D02*
G03*
X138270Y359000I-1270J0D01*
G01*
X99540Y266000D02*
G03*
X99540Y266000I-1270J0D01*
G01*
X116770Y229500D02*
G03*
X116770Y229500I-1270J0D01*
G01*
X413270Y78730D02*
G03*
X413270Y78730I-1270J0D01*
G01*
Y89730D02*
G03*
X413270Y89730I-1270J0D01*
G01*
X302270Y51000D02*
G03*
X302270Y51000I-1270J0D01*
G01*
X231270Y276270D02*
G03*
X231270Y276270I-1270J0D01*
G01*
X413270Y101000D02*
G03*
X413270Y101000I-1270J0D01*
G01*
Y112000D02*
G03*
X413270Y112000I-1270J0D01*
G01*
X181271Y359499D02*
G03*
X181271Y359499I-1270J0D01*
G01*
X276270Y263000D02*
G03*
X276270Y263000I-1270J0D01*
G01*
X129540Y430530D02*
G03*
X129540Y430530I-1270J0D01*
G01*
X231270Y252270D02*
G03*
X231270Y252270I-1270J0D01*
G01*
X116840Y430530D02*
G03*
X116840Y430530I-1270J0D01*
G01*
X231270Y264270D02*
G03*
X231270Y264270I-1270J0D01*
G01*
X111270Y407670D02*
G03*
X111270Y407670I-1270J0D01*
G01*
Y383224D02*
G03*
X111270Y383224I-1270J0D01*
G01*
X162270Y49000D02*
G03*
X162270Y49000I-1270J0D01*
G01*
X111768Y371000D02*
G03*
X111768Y371000I-1270J0D01*
G01*
Y395446D02*
G03*
X111768Y395446I-1270J0D01*
G01*
X129270Y49000D02*
G03*
X129270Y49000I-1270J0D01*
G01*
X406270Y465000D02*
G03*
X406270Y465000I-1270J0D01*
G01*
X104140Y430530D02*
G03*
X104140Y430530I-1270J0D01*
G01*
X571270Y375000D02*
G03*
X571270Y375000I-1270J0D01*
G01*
X548270Y414000D02*
G03*
X548270Y414000I-1270J0D01*
G01*
X272070Y427300D02*
G03*
X272070Y427300I-1270J0D01*
G01*
X243840Y457200D02*
G03*
X243840Y457200I-1270J0D01*
G01*
X142240Y430032D02*
G03*
X142240Y430032I-1270J0D01*
G01*
X426270Y465000D02*
G03*
X426270Y465000I-1270J0D01*
G01*
X178000Y223500D02*
Y227500D01*
X176000Y225500D02*
X180000D01*
X187500D02*
X191500D01*
X189500Y223500D02*
Y227500D01*
X201000Y223500D02*
Y227500D01*
X199000Y225500D02*
X203000D01*
X210500D02*
X214500D01*
X212500Y223500D02*
Y227500D01*
X222000Y225500D02*
X226000D01*
X224000Y223500D02*
Y227500D01*
X195000Y47000D02*
Y51000D01*
X193000Y49000D02*
X197000D01*
X416000Y379000D02*
X420000D01*
X418000Y377000D02*
Y381000D01*
X394500Y211000D02*
X398500D01*
X396500Y209000D02*
Y213000D01*
X313000Y379000D02*
X317000D01*
X315000Y377000D02*
Y381000D01*
X285000Y211000D02*
X289000D01*
X287000Y209000D02*
Y213000D01*
X275000Y248000D02*
Y252000D01*
X273000Y250000D02*
X277000Y250000D01*
X575751Y267000D02*
Y271000D01*
X573751Y269000D02*
X577751D01*
X575751Y255000D02*
Y259000D01*
X573751Y257000D02*
X577751D01*
X443500Y344500D02*
Y348500D01*
X441500Y346500D02*
X445500D01*
X443500Y356500D02*
X443500Y360500D01*
X441500Y358500D02*
X445500Y358500D01*
X574000Y245000D02*
X578000D01*
X576000Y243000D02*
Y247000D01*
X298000Y211000D02*
X302000Y211000D01*
X300000Y209000D02*
Y213000D01*
X192001Y357499D02*
Y361499D01*
X190001Y359499D02*
X194001D01*
X574000Y281000D02*
X578000D01*
X576000Y279000D02*
Y283000D01*
X574000Y330000D02*
X578000D01*
X576000Y328000D02*
Y332000D01*
X96000Y286000D02*
X100000D01*
X98000Y284000D02*
Y288000D01*
X127770Y227500D02*
Y231500D01*
X125770Y229500D02*
X129770D01*
X139500Y227770D02*
Y231770D01*
X137500Y229770D02*
X141500D01*
X128000Y191000D02*
X132000D01*
X130000Y189000D02*
Y193000D01*
X313500D02*
X317500D01*
X315500Y191000D02*
Y195000D01*
X181000Y199000D02*
X185000D01*
X183000Y197000D02*
Y201000D01*
X366500Y201000D02*
X370500D01*
X368500Y199000D02*
X368500Y203000D01*
X230000Y319270D02*
Y323270D01*
X228000Y321270D02*
X232000D01*
X135000Y359000D02*
X139000D01*
X137000Y357000D02*
Y361000D01*
X98270Y264000D02*
Y268000D01*
X96270Y266000D02*
X100270D01*
X113500Y229500D02*
X117500D01*
X115500Y227500D02*
Y231500D01*
X410000Y78730D02*
X414000D01*
X412000Y76730D02*
Y80730D01*
X410000Y89730D02*
X414000D01*
X412000Y87730D02*
Y91730D01*
X299000Y51000D02*
X303000Y51000D01*
X301000Y53000D02*
X301000Y49000D01*
X228000Y276270D02*
X232000D01*
X230000Y274270D02*
Y278270D01*
X412000Y99000D02*
Y103000D01*
X410000Y101000D02*
X414000D01*
X412000Y110000D02*
Y114000D01*
X410000Y112000D02*
X414000D01*
X180001Y357499D02*
Y361499D01*
X178001Y359499D02*
X182001D01*
X273000Y263000D02*
X277000D01*
X275000Y261000D02*
Y265000D01*
X128270Y428530D02*
Y432530D01*
X126270Y430530D02*
X130270D01*
X228000Y252270D02*
X232000D01*
X230000Y250270D02*
Y254270D01*
X115570Y428530D02*
Y432530D01*
X113570Y430530D02*
X117570D01*
X228000Y264270D02*
X232000D01*
X230000Y262270D02*
Y266270D01*
X108000Y407670D02*
X112000D01*
X110000Y405670D02*
Y409670D01*
X108000Y383224D02*
X112000D01*
X110000Y381224D02*
Y385224D01*
X161000Y47000D02*
Y51000D01*
X159000Y49000D02*
X163000D01*
X108498Y371000D02*
X112498D01*
X110498Y369000D02*
Y373000D01*
X108498Y395446D02*
X112498D01*
X110498Y393446D02*
Y397446D01*
X128000Y47000D02*
Y51000D01*
X126000Y49000D02*
X130000D01*
X403000Y465000D02*
X407000D01*
X405000Y463000D02*
Y467000D01*
X102870Y428530D02*
Y432530D01*
X100870Y430530D02*
X104870D01*
X568000Y375000D02*
X572000D01*
X570000Y373000D02*
Y377000D01*
X547000Y412000D02*
Y416000D01*
X545000Y414000D02*
X549000D01*
X268800Y427300D02*
X272800D01*
X270800Y425300D02*
Y429300D01*
X242570Y455200D02*
Y459200D01*
X240570Y457200D02*
X244570D01*
X140970Y428032D02*
Y432032D01*
X138970Y430032D02*
X142970D01*
X423000Y465000D02*
X427000D01*
X425000Y463000D02*
Y467000D01*
D99*
X158796Y194500D02*
G03*
X158796Y194500I-1796J0D01*
G01*
X343296Y197500D02*
G03*
X343296Y197500I-1796J0D01*
G01*
X157000Y191960D02*
Y197040D01*
X154460Y194500D02*
X159540D01*
X341500Y194960D02*
Y200040D01*
X338960Y197500D02*
X344040D01*
M02*
