G04*
G04 #@! TF.GenerationSoftware,Altium Limited,Altium Designer,23.8.1 (32)*
G04*
G04 Layer_Physical_Order=1*
G04 Layer_Color=255*
%FSLAX44Y44*%
%MOMM*%
G71*
G04*
G04 #@! TF.SameCoordinates,D96BB530-8D29-4B5F-9446-CCACF09A0524*
G04*
G04*
G04 #@! TF.FilePolarity,Positive*
G04*
G01*
G75*
%ADD10C,0.2000*%
G04:AMPARAMS|DCode=20|XSize=0.3mm|YSize=1.5mm|CornerRadius=0.075mm|HoleSize=0mm|Usage=FLASHONLY|Rotation=90.000|XOffset=0mm|YOffset=0mm|HoleType=Round|Shape=RoundedRectangle|*
%AMROUNDEDRECTD20*
21,1,0.3000,1.3500,0,0,90.0*
21,1,0.1500,1.5000,0,0,90.0*
1,1,0.1500,0.6750,0.0750*
1,1,0.1500,0.6750,-0.0750*
1,1,0.1500,-0.6750,-0.0750*
1,1,0.1500,-0.6750,0.0750*
%
%ADD20ROUNDEDRECTD20*%
%ADD21R,0.5000X0.4000*%
%ADD22R,0.8890X1.2700*%
G04:AMPARAMS|DCode=23|XSize=1.27mm|YSize=0.889mm|CornerRadius=0mm|HoleSize=0mm|Usage=FLASHONLY|Rotation=90.000|XOffset=0mm|YOffset=0mm|HoleType=Round|Shape=Octagon|*
%AMOCTAGOND23*
4,1,8,0.2223,0.6350,-0.2223,0.6350,-0.4445,0.4128,-0.4445,-0.4128,-0.2223,-0.6350,0.2223,-0.6350,0.4445,-0.4128,0.4445,0.4128,0.2223,0.6350,0.0*
%
%ADD23OCTAGOND23*%

G04:AMPARAMS|DCode=24|XSize=2mm|YSize=1.5mm|CornerRadius=0.375mm|HoleSize=0mm|Usage=FLASHONLY|Rotation=90.000|XOffset=0mm|YOffset=0mm|HoleType=Round|Shape=RoundedRectangle|*
%AMROUNDEDRECTD24*
21,1,2.0000,0.7500,0,0,90.0*
21,1,1.2500,1.5000,0,0,90.0*
1,1,0.7500,0.3750,0.6250*
1,1,0.7500,0.3750,-0.6250*
1,1,0.7500,-0.3750,-0.6250*
1,1,0.7500,-0.3750,0.6250*
%
%ADD24ROUNDEDRECTD24*%
G04:AMPARAMS|DCode=25|XSize=1.2mm|YSize=1.5mm|CornerRadius=0.3mm|HoleSize=0mm|Usage=FLASHONLY|Rotation=0.000|XOffset=0mm|YOffset=0mm|HoleType=Round|Shape=RoundedRectangle|*
%AMROUNDEDRECTD25*
21,1,1.2000,0.9000,0,0,0.0*
21,1,0.6000,1.5000,0,0,0.0*
1,1,0.6000,0.3000,-0.4500*
1,1,0.6000,-0.3000,-0.4500*
1,1,0.6000,-0.3000,0.4500*
1,1,0.6000,0.3000,0.4500*
%
%ADD25ROUNDEDRECTD25*%
G04:AMPARAMS|DCode=26|XSize=1.22mm|YSize=0.65mm|CornerRadius=0.0813mm|HoleSize=0mm|Usage=FLASHONLY|Rotation=180.000|XOffset=0mm|YOffset=0mm|HoleType=Round|Shape=RoundedRectangle|*
%AMROUNDEDRECTD26*
21,1,1.2200,0.4875,0,0,180.0*
21,1,1.0575,0.6500,0,0,180.0*
1,1,0.1625,-0.5288,0.2438*
1,1,0.1625,0.5288,0.2438*
1,1,0.1625,0.5288,-0.2438*
1,1,0.1625,-0.5288,-0.2438*
%
%ADD26ROUNDEDRECTD26*%
%ADD27R,1.8000X0.8500*%
%ADD28R,1.2000X1.3500*%
%ADD29O,1.5500X0.2500*%
%ADD30O,0.2500X1.5500*%
%ADD31R,0.4000X0.5000*%
%ADD32R,1.2000X0.3000*%
%ADD33R,0.3000X1.2000*%
%ADD34R,0.8890X0.8890*%
%ADD35R,0.4500X1.0000*%
%ADD36R,1.3000X1.2000*%
%ADD37R,1.0000X0.4500*%
%ADD38R,0.3000X1.1500*%
%ADD39R,0.2997X1.1481*%
G04:AMPARAMS|DCode=40|XSize=1.8mm|YSize=3mm|CornerRadius=0mm|HoleSize=0mm|Usage=FLASHONLY|Rotation=270.000|XOffset=0mm|YOffset=0mm|HoleType=Round|Shape=Octagon|*
%AMOCTAGOND40*
4,1,8,1.5000,0.4500,1.5000,-0.4500,1.0500,-0.9000,-1.0500,-0.9000,-1.5000,-0.4500,-1.5000,0.4500,-1.0500,0.9000,1.0500,0.9000,1.5000,0.4500,0.0*
%
%ADD40OCTAGOND40*%

%ADD41R,1.2000X0.6000*%
%ADD42R,2.1000X0.6000*%
%ADD43R,1.2190X0.9140*%
%ADD65C,1.0000*%
%ADD71C,0.7000*%
%ADD72C,0.2644*%
%AMCUSTOMSHAPE73*
4,1,5,0.2750,-0.2400,0.2750,0.2400,-0.2750,0.2400,-0.2750,-0.2400,0.0000,-0.5150,0.2750,-0.2400,0.0*%
%ADD73CUSTOMSHAPE73*%

%AMCUSTOMSHAPE74*
4,1,5,-0.2750,0.5250,-0.2750,-0.2400,0.2750,-0.2400,0.2750,0.5050,0.0100,0.2400,-0.2750,0.5250,0.0*%
%ADD74CUSTOMSHAPE74*%

%AMCUSTOMSHAPE75*
4,1,5,0.2400,0.2750,-0.2400,0.2750,-0.2400,-0.2750,0.2400,-0.2750,0.5150,0.0000,0.2400,0.2750,0.0*%
%ADD75CUSTOMSHAPE75*%

%AMCUSTOMSHAPE76*
4,1,5,-0.5250,-0.2750,0.2400,-0.2750,0.2400,0.2750,-0.5050,0.2750,-0.2400,0.0100,-0.5250,-0.2750,0.0*%
%ADD76CUSTOMSHAPE76*%

%AMCUSTOMSHAPE77*
4,1,5,-0.2400,-0.2750,0.2400,-0.2750,0.2400,0.2750,-0.2400,0.2750,-0.5150,0.0000,-0.2400,-0.2750,0.0*%
%ADD77CUSTOMSHAPE77*%

%AMCUSTOMSHAPE78*
4,1,5,0.5250,0.2750,-0.2400,0.2750,-0.2400,-0.2750,0.5050,-0.2750,0.2400,-0.0100,0.5250,0.2750,0.0*%
%ADD78CUSTOMSHAPE78*%

%ADD79C,0.3000*%
%ADD80C,0.5000*%
%ADD81C,1.7000*%
%ADD82R,1.7000X1.7000*%
%ADD83C,0.7500*%
%ADD84O,1.2000X2.0000*%
%ADD85O,1.2000X2.3000*%
%ADD86C,0.5000*%
G36*
X717246Y526670D02*
X716800Y525593D01*
Y523206D01*
X717713Y521001D01*
X719401Y519313D01*
X721607Y518400D01*
X723994D01*
X725020Y518825D01*
X727560Y517356D01*
Y41044D01*
X725020Y39575D01*
X723994Y40000D01*
X721607D01*
X719401Y39087D01*
X717713Y37399D01*
X716800Y35194D01*
Y32806D01*
X717238Y31750D01*
X715786Y29210D01*
X47314D01*
X45862Y31750D01*
X46300Y32806D01*
Y35194D01*
X45387Y37399D01*
X43699Y39087D01*
X41494Y40000D01*
X39107D01*
X38100Y39583D01*
X35560Y41064D01*
Y517336D01*
X38100Y518817D01*
X39107Y518400D01*
X41494D01*
X43699Y519313D01*
X45387Y521001D01*
X46300Y523206D01*
Y525593D01*
X45854Y526670D01*
X47294Y529210D01*
X715806D01*
X717246Y526670D01*
D02*
G37*
%LPC*%
G36*
X242500Y477082D02*
X210739D01*
X210728Y477078D01*
X210717Y477082D01*
X210347Y476920D01*
X209974Y476765D01*
X209969Y476754D01*
X209958Y476750D01*
X189539Y455482D01*
X172168Y455482D01*
X171300Y455482D01*
X171300Y455482D01*
X170535Y455165D01*
X170534Y455165D01*
X170435Y455065D01*
X170435Y455065D01*
X170118Y454300D01*
X170117Y454300D01*
X170118Y453432D01*
X170118Y438022D01*
X170117Y436841D01*
X170118Y436841D01*
X170200Y436642D01*
Y436427D01*
X170201Y436426D01*
X170352Y436275D01*
X170435Y436076D01*
X170634Y435993D01*
X170786Y435841D01*
X170886Y435800D01*
X170886Y435800D01*
X171101Y435800D01*
X171200Y435759D01*
X171200Y435759D01*
X171300Y435718D01*
X171300Y435718D01*
X172192Y435718D01*
X172192D01*
X172446Y435718D01*
X237851D01*
Y428439D01*
X237355Y427898D01*
X235408Y426685D01*
X224832D01*
X224125Y426545D01*
X223526Y426144D01*
X223125Y425545D01*
X222985Y424837D01*
Y419963D01*
X223125Y419255D01*
X223526Y418656D01*
X224125Y418255D01*
X224832Y418115D01*
X235408D01*
X236115Y418255D01*
X236714Y418656D01*
X237115Y419255D01*
X237201Y419688D01*
X238643D01*
X239618Y419882D01*
X240445Y420435D01*
X242202Y422192D01*
X242755Y423019D01*
X242949Y423995D01*
Y426202D01*
X245489Y427129D01*
X245913Y426954D01*
X246054Y426881D01*
X246283Y426726D01*
X247885Y424837D01*
X247885Y424378D01*
Y419963D01*
X248025Y419255D01*
X248426Y418656D01*
X249025Y418255D01*
X249732Y418115D01*
X260308D01*
X261015Y418255D01*
X261614Y418656D01*
X262015Y419255D01*
X262155Y419963D01*
Y424378D01*
X262155Y424837D01*
X263658Y426609D01*
X264134Y426918D01*
X294000D01*
X294765Y427235D01*
X295082Y428000D01*
Y450000D01*
X294765Y450765D01*
X294000Y451082D01*
X246122D01*
X246000Y451082D01*
X243582Y452432D01*
Y476000D01*
X243265Y476765D01*
X242500Y477082D01*
D02*
G37*
G36*
X160794Y481462D02*
X158904D01*
X157158Y480738D01*
X155822Y479402D01*
X155099Y477657D01*
Y476698D01*
X152644Y475560D01*
X148102Y480102D01*
X147275Y480655D01*
X146300Y480849D01*
X115500D01*
X114524Y480655D01*
X113698Y480102D01*
X109322Y475727D01*
X106799Y476796D01*
Y477657D01*
X106075Y479402D01*
X104739Y480738D01*
X102993Y481462D01*
X101104D01*
X99358Y480738D01*
X98022Y479402D01*
X97299Y477657D01*
Y475767D01*
X98022Y474021D01*
X99358Y472685D01*
X101104Y471962D01*
X102949Y470462D01*
X102949Y469422D01*
Y463952D01*
X102901Y463712D01*
X102949Y463471D01*
Y456962D01*
X110951D01*
X111461Y454633D01*
Y454345D01*
X101427Y444311D01*
X100985Y443650D01*
X100830Y442869D01*
Y437531D01*
X99369D01*
Y431531D01*
X106369D01*
Y437531D01*
X104908D01*
Y442024D01*
X113745Y450861D01*
X115749Y450126D01*
X116213Y449737D01*
Y440570D01*
X116201Y440558D01*
X114681Y438648D01*
X112961Y438531D01*
X111069D01*
Y432571D01*
X111069Y430031D01*
X111069Y427991D01*
Y423564D01*
X111069Y422031D01*
X111069D01*
X111092Y421034D01*
D01*
X111112Y421013D01*
Y414683D01*
X110499Y412169D01*
X108373Y411169D01*
X107959Y411169D01*
X102999D01*
Y409708D01*
X102169D01*
X101389Y409553D01*
X100727Y409111D01*
X100727Y409111D01*
X100040Y408424D01*
X98000Y407250D01*
Y407250D01*
X98000Y407250D01*
X86000D01*
Y400750D01*
X98000D01*
Y401961D01*
X98500D01*
X99280Y402116D01*
X99942Y402558D01*
X100723Y403340D01*
X102999Y404169D01*
Y404169D01*
X102999Y404169D01*
X108373Y404169D01*
X110499Y403169D01*
X111125Y403169D01*
X118499D01*
Y406077D01*
X121039Y406986D01*
X121728Y406147D01*
X121746Y406164D01*
X121746Y406164D01*
X142344Y385566D01*
X142470Y385482D01*
X145118Y382255D01*
X147156Y378442D01*
X148411Y374304D01*
X148821Y370150D01*
X148791Y370001D01*
Y344832D01*
X147000Y342794D01*
X146122Y342619D01*
X145378Y342122D01*
X144881Y341378D01*
X144706Y340500D01*
Y327500D01*
X143436Y326205D01*
X141298D01*
X139294Y328219D01*
Y340500D01*
X139119Y341378D01*
X139039Y341498D01*
Y342089D01*
X139967Y343017D01*
X140500Y344304D01*
Y345696D01*
X139967Y346983D01*
X139038Y347911D01*
Y351501D01*
X140499D01*
Y357501D01*
X133499D01*
Y351501D01*
X134960D01*
Y347910D01*
X134033Y346983D01*
X133500Y345696D01*
Y344304D01*
X134033Y343017D01*
X134961Y342089D01*
Y341498D01*
X134881Y341378D01*
X134706Y340500D01*
Y329251D01*
X134300Y328834D01*
X132306Y327896D01*
X132166Y327907D01*
X131500Y328039D01*
X82300D01*
X82300Y328039D01*
X81520Y327884D01*
X80858Y327442D01*
X80858Y327442D01*
X69126Y315710D01*
X67667Y316553D01*
X65251Y317200D01*
X62749D01*
X60333Y316553D01*
X58167Y315302D01*
X56398Y313533D01*
X55147Y311367D01*
X54500Y308951D01*
Y306449D01*
X55147Y304033D01*
X56398Y301867D01*
X58167Y300098D01*
X60333Y298847D01*
X62749Y298200D01*
X65251D01*
X67667Y298847D01*
X69833Y300098D01*
X71602Y301867D01*
X72853Y304033D01*
X73500Y306449D01*
Y308951D01*
X72853Y311367D01*
X72010Y312826D01*
X82148Y322965D01*
X83310Y322786D01*
X84196Y320079D01*
X78558Y314442D01*
X78116Y313780D01*
X77961Y313000D01*
Y299145D01*
X69126Y290310D01*
X67667Y291153D01*
X65251Y291800D01*
X62749D01*
X60333Y291153D01*
X58167Y289902D01*
X56398Y288133D01*
X55147Y285967D01*
X54500Y283551D01*
Y281049D01*
X55147Y278633D01*
X56398Y276467D01*
X58167Y274698D01*
X60333Y273447D01*
X62749Y272800D01*
X65251D01*
X67667Y273447D01*
X69833Y274698D01*
X71602Y276467D01*
X72853Y278633D01*
X73500Y281049D01*
Y283551D01*
X72853Y285967D01*
X72010Y287426D01*
X81442Y296858D01*
X81884Y297520D01*
X82039Y298300D01*
X82039Y298300D01*
Y306919D01*
X84517Y308033D01*
X85804Y307500D01*
X87196D01*
X88359Y307982D01*
X88600Y308008D01*
X91105Y307485D01*
X91870Y307168D01*
X99320D01*
X99995Y307447D01*
X100670Y307168D01*
X105470D01*
X106235Y307485D01*
X106552Y308250D01*
Y309211D01*
X113968D01*
X114653Y308353D01*
X115026Y307645D01*
X115631Y305372D01*
X115631Y305371D01*
X115635Y305364D01*
X115982Y303750D01*
X115635Y302136D01*
X115631Y302128D01*
X115456Y301250D01*
X115631Y300372D01*
X115635Y300364D01*
X115982Y298750D01*
X115635Y297136D01*
X115631Y297128D01*
X115456Y296250D01*
X115631Y295372D01*
X115635Y295364D01*
X115982Y293750D01*
X115635Y292136D01*
X115631Y292129D01*
X115631Y292128D01*
X115026Y289855D01*
X114653Y289147D01*
X113968Y288289D01*
X105499D01*
Y289499D01*
X99499D01*
Y282499D01*
X105499D01*
Y284211D01*
X113968D01*
X114653Y283353D01*
X115026Y282645D01*
X115631Y280372D01*
X115631Y280371D01*
X115635Y280364D01*
X115982Y278750D01*
X115635Y277136D01*
X115631Y277129D01*
X115631Y277128D01*
X115457Y276257D01*
X115456Y276250D01*
X115631Y275372D01*
Y275372D01*
X116128Y274628D01*
X116872Y274131D01*
X117750Y273956D01*
X130750D01*
X131628Y274131D01*
X132372Y274628D01*
X132870Y275372D01*
Y275372D01*
X133044Y276250D01*
X133043Y276257D01*
X132870Y277128D01*
X132869Y277129D01*
X132865Y277136D01*
X132518Y278750D01*
X132865Y280364D01*
X132869Y280372D01*
X133044Y281250D01*
X132870Y282128D01*
X132865Y282136D01*
X132518Y283750D01*
X132865Y285364D01*
X132869Y285372D01*
X133044Y286250D01*
X132870Y287128D01*
X132865Y287136D01*
X132518Y288750D01*
X132865Y290364D01*
X132869Y290372D01*
X133044Y291250D01*
X132870Y292128D01*
X132865Y292136D01*
X132518Y293750D01*
X132865Y295364D01*
X132869Y295372D01*
X133044Y296250D01*
X132870Y297128D01*
X132865Y297136D01*
X132518Y298750D01*
X132865Y300364D01*
X132869Y300372D01*
X133044Y301250D01*
X132870Y302128D01*
X132865Y302136D01*
X132518Y303750D01*
X132865Y305364D01*
X132869Y305372D01*
X133044Y306250D01*
X132870Y307128D01*
X132865Y307136D01*
X132518Y308750D01*
X132865Y310364D01*
X132869Y310371D01*
X132869Y310372D01*
X133043Y311243D01*
X133044Y311250D01*
X133015Y311397D01*
X133200Y312699D01*
X134219Y314461D01*
X137089D01*
X138017Y313533D01*
X139304Y313000D01*
X140696D01*
X141983Y313533D01*
X142967Y314517D01*
X143500Y315804D01*
Y317196D01*
X142967Y318483D01*
X142529Y318921D01*
X143297Y321444D01*
X143308Y321461D01*
X145500D01*
X146280Y321616D01*
X146942Y322058D01*
X148442Y323558D01*
X150257Y324256D01*
X151487Y324288D01*
X152000Y324186D01*
X153268Y324439D01*
X154500Y325076D01*
X155732Y324439D01*
X157000Y324186D01*
X158268Y324439D01*
X159343Y325157D01*
X160378Y325878D01*
X161122Y325381D01*
X162000Y325206D01*
X162421Y325290D01*
X164103Y324403D01*
X164961Y323717D01*
Y320911D01*
X164033Y319983D01*
X163500Y318696D01*
Y317304D01*
X164033Y316017D01*
X165017Y315033D01*
X166304Y314500D01*
X167696D01*
X168983Y315033D01*
X169967Y316017D01*
X170500Y317304D01*
Y318696D01*
X169967Y319983D01*
X169039Y320911D01*
Y323717D01*
X169897Y324403D01*
X170606Y324776D01*
X172878Y325381D01*
X172878Y325381D01*
X172885Y325385D01*
X174500Y325732D01*
X176114Y325385D01*
X176122Y325381D01*
X177000Y325206D01*
X177878Y325381D01*
X177886Y325385D01*
X179500Y325732D01*
X181115Y325385D01*
X181122Y325381D01*
X181122Y325381D01*
X183395Y324776D01*
X184103Y324403D01*
X184961Y323717D01*
Y285000D01*
X185116Y284220D01*
X185558Y283558D01*
X194308Y274808D01*
X194805Y274476D01*
X195128Y274060D01*
X195618Y273115D01*
X195777Y272694D01*
X195979Y271367D01*
X195956Y271250D01*
X195957Y271243D01*
X196131Y270372D01*
X196131Y270371D01*
X196135Y270364D01*
X196482Y268750D01*
X196135Y267136D01*
X196131Y267129D01*
X196131Y267128D01*
X195957Y266257D01*
X195956Y266250D01*
X196131Y265372D01*
Y265372D01*
X196628Y264628D01*
X197372Y264131D01*
X198250Y263956D01*
X211250D01*
X212128Y264131D01*
X212248Y264211D01*
X216405D01*
X217787Y262829D01*
X217787Y262829D01*
X218449Y262387D01*
X219229Y262232D01*
X219229Y262232D01*
X222501D01*
Y260771D01*
X228461D01*
X228501Y260771D01*
X231001Y260771D01*
X231041Y260771D01*
X237001D01*
Y260771D01*
X239517Y261033D01*
X240804Y260500D01*
X242196D01*
X243483Y261033D01*
X244467Y262017D01*
X245000Y263304D01*
Y264696D01*
X244467Y265983D01*
X243483Y266967D01*
X242196Y267500D01*
X240804D01*
X239517Y266967D01*
X237001Y267771D01*
Y267771D01*
X231041D01*
X231001Y267771D01*
X228501Y267771D01*
X228461Y267771D01*
X222501D01*
Y266583D01*
X219961Y266423D01*
X218692Y267692D01*
X218030Y268134D01*
X217250Y268289D01*
X215033D01*
X214347Y269147D01*
X213460Y270829D01*
X213544Y271250D01*
X213460Y271671D01*
X214347Y273353D01*
X215033Y274211D01*
X222501D01*
Y272771D01*
X228461D01*
X228501Y272771D01*
X231001Y272771D01*
X231041Y272771D01*
X237001D01*
Y279771D01*
X236040D01*
Y301156D01*
X261345Y326461D01*
X292151D01*
X294500Y326000D01*
X294500Y323460D01*
Y316000D01*
X294500D01*
Y311000D01*
Y301000D01*
X294500D01*
Y293540D01*
X294500Y291000D01*
X294500Y288460D01*
Y281000D01*
X294500Y276000D01*
X292151Y275539D01*
X290345D01*
X289442Y276442D01*
X288780Y276884D01*
X288000Y277039D01*
X283482D01*
Y277750D01*
X283165Y278515D01*
X282400Y278832D01*
X274950D01*
X274275Y278553D01*
X273600Y278832D01*
X268800D01*
X268035Y278515D01*
X267718Y277750D01*
Y272250D01*
X268035Y271485D01*
X268800Y271168D01*
X268960D01*
Y266499D01*
X267999D01*
Y259499D01*
X273999D01*
Y266499D01*
X273038D01*
Y269224D01*
X274750Y271168D01*
X274750Y271168D01*
X282400D01*
X283165Y271485D01*
X283482Y272250D01*
Y272961D01*
X287155D01*
X288058Y272058D01*
X288058Y272058D01*
X288720Y271616D01*
X289500Y271461D01*
X294500D01*
Y266000D01*
X308500D01*
Y271000D01*
X308500Y275578D01*
X308500Y278958D01*
X309274Y279562D01*
X311040Y280316D01*
X311804Y280000D01*
X313196D01*
X314483Y280533D01*
X315467Y281517D01*
X316000Y282804D01*
Y284196D01*
X315467Y285483D01*
X314483Y286467D01*
X313196Y287000D01*
X311804D01*
X310065Y288500D01*
X311711Y289920D01*
X311843Y290000D01*
X313196D01*
X314483Y290533D01*
X315467Y291517D01*
X316000Y292804D01*
Y294196D01*
X315467Y295483D01*
X314483Y296467D01*
X313196Y297000D01*
X311804D01*
X311040Y296684D01*
X309274Y297438D01*
X308500Y298042D01*
Y301000D01*
X308500D01*
Y306000D01*
Y316000D01*
X308500D01*
Y321000D01*
X308500Y325917D01*
X308500Y328540D01*
Y336000D01*
X294500D01*
Y335539D01*
X261845D01*
X225442Y371942D01*
X224780Y372384D01*
X224000Y372539D01*
X187000D01*
X186220Y372384D01*
X185558Y371942D01*
X180116Y366500D01*
X176500D01*
Y360540D01*
X176500Y360500D01*
X176500Y358000D01*
X176500Y357960D01*
Y352000D01*
X179961D01*
Y344282D01*
X179103Y343597D01*
X178395Y343224D01*
X176122Y342620D01*
X176122Y342619D01*
X176115Y342615D01*
X174500Y342268D01*
X172886Y342615D01*
X172878Y342619D01*
X172000Y342794D01*
X171122Y342620D01*
X171114Y342615D01*
X169500Y342268D01*
X167886Y342615D01*
X167878Y342619D01*
X167000Y342794D01*
X166122Y342620D01*
X166114Y342615D01*
X164500Y342268D01*
X162885Y342615D01*
X162878Y342619D01*
X162878Y342619D01*
X160859Y344092D01*
X160209Y344832D01*
Y370046D01*
X160247D01*
X159836Y375265D01*
X158614Y380355D01*
X156611Y385191D01*
X153876Y389655D01*
X150476Y393635D01*
X150476Y393635D01*
X148653Y395405D01*
X129829Y414228D01*
X129828Y414230D01*
X128666Y415743D01*
X127936Y417507D01*
X127916Y417658D01*
X127745Y419608D01*
X128201Y421316D01*
X128439Y421892D01*
X130921Y422031D01*
X132769D01*
Y427991D01*
X132769Y430531D01*
X132769Y432571D01*
Y438531D01*
X130881D01*
X129179Y438645D01*
X127643Y440549D01*
X127631Y440560D01*
Y449636D01*
X127633Y449639D01*
X128000Y449921D01*
X129447Y451807D01*
X130216Y451489D01*
X131835Y451276D01*
X131950Y451253D01*
X134950D01*
X135065Y451276D01*
X136684Y451489D01*
X138301Y452158D01*
X138870Y452595D01*
X141402Y451516D01*
X141410Y451508D01*
Y446794D01*
X139529Y444913D01*
X139087Y444251D01*
X138932Y443471D01*
Y437531D01*
X137471D01*
Y431531D01*
X144471D01*
Y437531D01*
X143010D01*
Y442626D01*
X144892Y444508D01*
X145334Y445169D01*
X145489Y445950D01*
X145489Y445950D01*
Y454624D01*
X145948Y456958D01*
X145949D01*
X145951Y456972D01*
X148438D01*
X150970Y454441D01*
X150923Y439902D01*
X150924Y439902D01*
X150923Y439901D01*
X151084Y439511D01*
X151238Y439136D01*
X151239Y439136D01*
X151239Y439135D01*
X153032Y437336D01*
X153033Y437336D01*
X153034Y437335D01*
X153421Y437174D01*
X153797Y437018D01*
X153798Y437018D01*
X153799Y437018D01*
X166000D01*
X166765Y437335D01*
X167082Y438100D01*
Y449900D01*
X167083Y449900D01*
X166765Y450665D01*
X166765Y450665D01*
X158949Y458481D01*
Y469422D01*
X158949Y470487D01*
X159600Y471007D01*
X160872Y471994D01*
X162540Y472685D01*
X163876Y474021D01*
X164599Y475767D01*
Y477657D01*
X163876Y479402D01*
X162540Y480738D01*
X160794Y481462D01*
D02*
G37*
G36*
X429500Y513082D02*
X389000D01*
X388235Y512765D01*
X387918Y512000D01*
Y459448D01*
X383052Y454582D01*
X361948D01*
X359179Y457351D01*
Y463503D01*
X359229Y463753D01*
X359179Y464002D01*
Y469422D01*
X359179Y470487D01*
X359830Y471007D01*
X361102Y471994D01*
X362770Y472685D01*
X364106Y474021D01*
X364829Y475767D01*
Y477657D01*
X364106Y479402D01*
X362770Y480738D01*
X361024Y481462D01*
X359134D01*
X357388Y480738D01*
X356052Y479402D01*
X355329Y477657D01*
Y476368D01*
X353574Y475285D01*
X352982Y475123D01*
X348302Y479802D01*
X347476Y480355D01*
X346500Y480549D01*
X316000D01*
X315025Y480355D01*
X314198Y479802D01*
X309375Y474980D01*
X308307Y475338D01*
X307029Y476226D01*
Y477657D01*
X306306Y479402D01*
X304969Y480738D01*
X303223Y481462D01*
X301334D01*
X299588Y480738D01*
X298252Y479402D01*
X297529Y477657D01*
Y475767D01*
X298252Y474021D01*
X299588Y472685D01*
X301334Y471962D01*
X303179Y470462D01*
X303179Y469422D01*
Y463952D01*
X303131Y463712D01*
X303179Y463471D01*
Y456962D01*
X308920D01*
X309508Y456241D01*
X310301Y454422D01*
X310000Y453696D01*
Y452304D01*
X310533Y451017D01*
X311517Y450033D01*
X312804Y449500D01*
X314196D01*
X315483Y450033D01*
X316467Y451017D01*
X317000Y452304D01*
Y453696D01*
X316798Y454185D01*
X318093Y456352D01*
X320180Y455962D01*
X321790Y454089D01*
X322443Y453238D01*
X323830Y452174D01*
X325447Y451504D01*
X327066Y451291D01*
X327181Y451268D01*
X328291D01*
Y361500D01*
X328000D01*
Y345500D01*
X340000D01*
Y346500D01*
X349000Y346500D01*
X351540Y346500D01*
X354461D01*
Y332000D01*
X353804D01*
X352517Y331467D01*
X351533Y330483D01*
X351000Y329196D01*
Y327804D01*
X351533Y326517D01*
X352517Y325533D01*
X353804Y325000D01*
X355196D01*
X356483Y325533D01*
X357467Y326517D01*
X357852Y327446D01*
X359571Y327995D01*
X360540Y328113D01*
X361000Y327804D01*
X361533Y326517D01*
X362517Y325533D01*
X363804Y325000D01*
X365196D01*
X366483Y325533D01*
X367467Y326517D01*
X368000Y327804D01*
Y329196D01*
X367467Y330483D01*
X366483Y331467D01*
X365196Y332000D01*
X364680Y333380D01*
X366783Y335009D01*
X366804Y335000D01*
X368196D01*
X370000Y333196D01*
Y331804D01*
X370533Y330517D01*
X371517Y329533D01*
X372804Y329000D01*
X374196D01*
X375483Y329533D01*
X376467Y330517D01*
X377000Y331804D01*
Y333196D01*
X376467Y334483D01*
X375539Y335411D01*
Y341000D01*
X375384Y341780D01*
X374942Y342442D01*
X373539Y343845D01*
Y346500D01*
X379000Y346500D01*
X381540Y346500D01*
X399000D01*
Y360500D01*
X398539D01*
Y443155D01*
X410942Y455558D01*
X410942Y455558D01*
X411384Y456220D01*
X411539Y457000D01*
Y461499D01*
X412499D01*
Y462960D01*
X417999D01*
Y461499D01*
X423999D01*
Y468499D01*
X419622D01*
X418570Y471039D01*
X430265Y482735D01*
X430582Y483500D01*
Y512000D01*
X430265Y512765D01*
X429500Y513082D01*
D02*
G37*
G36*
X192800Y431782D02*
X149200D01*
X148435Y431465D01*
X148118Y430700D01*
Y405000D01*
X148435Y404235D01*
X149200Y403918D01*
X191832Y403918D01*
X192700Y403918D01*
X192700Y403918D01*
X193465Y404235D01*
X193465Y404235D01*
X193565Y404334D01*
X193565Y404335D01*
X193882Y405100D01*
X193883Y405100D01*
X193882Y405968D01*
X193882Y430700D01*
X193565Y431465D01*
X192800Y431782D01*
D02*
G37*
G36*
X60696Y398000D02*
X59304D01*
X58017Y397467D01*
X57033Y396483D01*
X56500Y395196D01*
Y393804D01*
X57033Y392517D01*
X58017Y391533D01*
X59304Y391000D01*
X60696D01*
X60856Y391066D01*
X63320Y391250D01*
X63320Y391250D01*
X63320Y391250D01*
X75320D01*
Y397750D01*
X63320D01*
X63320Y397750D01*
X60856Y397934D01*
X60696Y398000D01*
D02*
G37*
G36*
X592000Y429582D02*
X547000D01*
X546235Y429265D01*
X545918Y428500D01*
Y391622D01*
X545918Y391000D01*
X544068Y389082D01*
X544068Y389082D01*
X537726D01*
X535808Y391000D01*
X513808D01*
X511890Y389082D01*
X506000D01*
X505235Y388765D01*
X504918Y388000D01*
Y349000D01*
X504917Y349000D01*
X505235Y348235D01*
X505235Y348234D01*
X506234Y347235D01*
X506235Y347235D01*
X506390Y347170D01*
X507000Y346918D01*
X542000D01*
X542765Y347235D01*
X543082Y348000D01*
Y371552D01*
X545448Y373918D01*
X575000D01*
X575765Y374235D01*
X576082Y375000D01*
Y387378D01*
X576082Y388000D01*
X577932Y389918D01*
X577932Y389918D01*
X592000D01*
X592765Y390235D01*
X593082Y391000D01*
Y428500D01*
X592765Y429265D01*
X592000Y429582D01*
D02*
G37*
G36*
X108999Y398946D02*
X102999D01*
Y391946D01*
X103960D01*
Y387148D01*
X103828Y387039D01*
X98000D01*
Y388250D01*
X86000D01*
Y381750D01*
X98000D01*
Y382961D01*
X102999D01*
Y379724D01*
X103960D01*
Y374501D01*
X102999D01*
Y367501D01*
X108959D01*
X108999Y367501D01*
X111499Y367501D01*
X111539Y367501D01*
X117499D01*
Y367501D01*
X120017Y368033D01*
X121304Y367500D01*
X122696D01*
X123983Y368033D01*
X124967Y369017D01*
X125500Y370304D01*
Y371696D01*
X124967Y372983D01*
X123983Y373967D01*
X122696Y374500D01*
X121304D01*
X120017Y373967D01*
X117499Y374501D01*
Y374501D01*
X111539D01*
X111499Y374501D01*
X108999Y374501D01*
X108038Y376659D01*
Y377565D01*
X108050Y377592D01*
X110578Y379724D01*
X111499D01*
X111539Y379724D01*
X117499D01*
Y379724D01*
X120017Y380533D01*
X121304Y380000D01*
X122696D01*
X123983Y380533D01*
X124967Y381517D01*
X125500Y382804D01*
Y384196D01*
X124967Y385483D01*
X123983Y386467D01*
X122696Y387000D01*
X121304D01*
X120017Y386467D01*
X117499Y386724D01*
X117499Y386724D01*
X111539D01*
X111499Y386724D01*
X108999Y386724D01*
X108038Y388882D01*
Y391946D01*
X108999D01*
Y398946D01*
D02*
G37*
G36*
X318499Y377501D02*
X311499D01*
Y371501D01*
X312960D01*
Y367910D01*
X312033Y366983D01*
X311500Y365696D01*
Y364304D01*
X312033Y363017D01*
X313017Y362033D01*
X314304Y361500D01*
X315616D01*
X318961Y358155D01*
Y354000D01*
X319000Y353803D01*
Y346500D01*
X324000D01*
Y360500D01*
X322384D01*
X318500Y364384D01*
Y365696D01*
X317967Y366983D01*
X317038Y367911D01*
Y371501D01*
X318499D01*
Y377501D01*
D02*
G37*
G36*
X574501Y333501D02*
X574461Y333501D01*
X568501D01*
Y333501D01*
X565983Y332967D01*
X564696Y333500D01*
X563304D01*
X562017Y332967D01*
X561033Y331983D01*
X560500Y330696D01*
Y329304D01*
X561033Y328017D01*
X562017Y327033D01*
X563304Y326500D01*
X564696D01*
X565983Y327033D01*
X568501Y326501D01*
D01*
X570951Y326284D01*
Y322930D01*
X570250D01*
Y310930D01*
X576750D01*
Y322930D01*
X576750D01*
X576655Y324104D01*
X578532Y326430D01*
X578652Y326501D01*
X583001D01*
Y326501D01*
X585541Y326575D01*
X589250Y322866D01*
Y310930D01*
X595750D01*
Y314961D01*
X602089D01*
X603017Y314033D01*
X604304Y313500D01*
X605696D01*
X606983Y314033D01*
X607967Y315017D01*
X608500Y316304D01*
Y317696D01*
X607967Y318983D01*
X606983Y319967D01*
X605696Y320500D01*
X604304D01*
X603017Y319967D01*
X602089Y319039D01*
X595750D01*
Y322930D01*
X593578D01*
Y323461D01*
X593423Y324242D01*
X592981Y324903D01*
X592980Y324903D01*
X586441Y331443D01*
X585779Y331885D01*
X584999Y332040D01*
X583001D01*
Y333501D01*
X577041D01*
X577001Y333501D01*
X575751D01*
X574501Y333501D01*
D02*
G37*
G36*
X462335Y337715D02*
X451445D01*
Y326825D01*
X462335D01*
Y329721D01*
X466329D01*
X466517Y329533D01*
X467804Y329000D01*
X469196D01*
X470483Y329533D01*
X471467Y330517D01*
X472000Y331804D01*
Y333196D01*
X471467Y334483D01*
X470483Y335467D01*
X469196Y336000D01*
X467804D01*
X466517Y335467D01*
X465869Y334819D01*
X462335D01*
Y337715D01*
D02*
G37*
G36*
X421499Y377501D02*
X414499D01*
Y371501D01*
X415960D01*
Y368910D01*
X415033Y367983D01*
X414500Y366696D01*
Y365304D01*
X415033Y364017D01*
X415961Y363089D01*
Y336000D01*
X409500D01*
Y331000D01*
X421303D01*
X423060Y331000D01*
X424092Y330568D01*
X425185Y329772D01*
X425185Y329164D01*
X425185Y327228D01*
X423500Y326000D01*
X409500D01*
Y316000D01*
X409500D01*
X409500Y316000D01*
Y311000D01*
X416254D01*
X416500Y310951D01*
X416746Y311000D01*
X423500D01*
Y315951D01*
X426000D01*
X426976Y316145D01*
X427802Y316698D01*
X429802Y318698D01*
X430355Y319524D01*
X430549Y320500D01*
Y327158D01*
X431125Y327680D01*
X433665Y326825D01*
Y326825D01*
X444555D01*
Y337715D01*
X441659D01*
Y343001D01*
X442001D01*
Y350001D01*
X441550D01*
Y355001D01*
X442001D01*
Y362001D01*
X436001D01*
Y355001D01*
X436452D01*
Y350001D01*
X436001D01*
Y343001D01*
X436561D01*
Y337715D01*
X433665D01*
Y334819D01*
X430270D01*
X429295Y334625D01*
X428468Y334072D01*
X426414Y332019D01*
X426198Y331802D01*
X426183Y331793D01*
X426004Y331688D01*
X425984Y331678D01*
X423612Y332505D01*
X423500Y332956D01*
X423500Y332956D01*
X423500Y333358D01*
Y336000D01*
X420039D01*
Y363089D01*
X420967Y364017D01*
X421500Y365304D01*
Y366696D01*
X420967Y367983D01*
X420038Y368911D01*
Y371501D01*
X421499D01*
Y377501D01*
D02*
G37*
G36*
X558820Y319244D02*
X545320D01*
X544637Y319109D01*
X544058Y318722D01*
X543671Y318143D01*
X543536Y317460D01*
Y315960D01*
X543671Y315277D01*
X544058Y314698D01*
Y313722D01*
X543671Y313143D01*
X543536Y312460D01*
Y310960D01*
X543671Y310277D01*
X544058Y309698D01*
Y308722D01*
X543671Y308143D01*
X543536Y307460D01*
Y305960D01*
X543671Y305277D01*
X544058Y304698D01*
Y303722D01*
X543671Y303143D01*
X543536Y302460D01*
Y300960D01*
X543671Y300277D01*
X544058Y299698D01*
X544637Y299312D01*
X545320Y299176D01*
X558820D01*
X559503Y299312D01*
X560082Y299698D01*
X560468Y300277D01*
X560604Y300960D01*
Y302460D01*
X560468Y303143D01*
X560082Y303722D01*
Y304698D01*
X560468Y305277D01*
X560604Y305960D01*
Y307460D01*
X560468Y308143D01*
X560082Y308722D01*
Y309698D01*
X560468Y310277D01*
X560604Y310960D01*
Y312460D01*
X560468Y313143D01*
X560082Y313722D01*
Y314698D01*
X560468Y315277D01*
X560604Y315960D01*
Y317460D01*
X560468Y318143D01*
X560082Y318722D01*
X559503Y319109D01*
X558820Y319244D01*
D02*
G37*
G36*
X586250Y300250D02*
X579750D01*
Y288250D01*
X579750D01*
X579467Y285827D01*
X578141Y284501D01*
X577041D01*
X577001Y284501D01*
X574501Y284501D01*
X574461Y284501D01*
X568501D01*
Y283368D01*
X566819D01*
X565843Y283174D01*
X565017Y282621D01*
X561654Y279259D01*
X552070D01*
X551996Y279244D01*
X545320D01*
X544637Y279109D01*
X544058Y278722D01*
X543671Y278143D01*
X543536Y277460D01*
Y275960D01*
X543671Y275277D01*
X544058Y274698D01*
Y273722D01*
X543671Y273143D01*
X543536Y272460D01*
Y270960D01*
X543671Y270277D01*
X544058Y269698D01*
X544637Y269312D01*
X545320Y269176D01*
X551996D01*
X552070Y269161D01*
X559693D01*
X560000Y268854D01*
Y268804D01*
X560533Y267517D01*
X561517Y266533D01*
X562804Y266000D01*
X564196D01*
X565483Y266533D01*
X565712Y266762D01*
X568252Y266494D01*
Y265501D01*
X568703D01*
Y260501D01*
X568252D01*
Y253501D01*
X574252D01*
Y260501D01*
X573801D01*
Y265501D01*
X574252D01*
Y272501D01*
X568252D01*
Y272501D01*
X567172Y272389D01*
X566215Y273330D01*
X566181Y276576D01*
X566296Y276691D01*
X568501Y277501D01*
Y277501D01*
X574461D01*
X574501Y277501D01*
X577001Y277501D01*
X577041Y277501D01*
X583001D01*
Y280396D01*
X584802Y282198D01*
X585355Y283025D01*
X585549Y284000D01*
Y288250D01*
X586250D01*
Y300250D01*
D02*
G37*
G36*
X112696Y269500D02*
X111304D01*
X110017Y268967D01*
X109089Y268038D01*
X105769D01*
Y269499D01*
X99769D01*
Y262499D01*
X105769D01*
Y263960D01*
X109090D01*
X110017Y263033D01*
X111304Y262500D01*
X112696D01*
X113983Y263033D01*
X114967Y264017D01*
X116872Y264131D01*
X117750Y263956D01*
X130750D01*
X131628Y264131D01*
X132372Y264628D01*
X132869Y265372D01*
X133044Y266250D01*
X132869Y267128D01*
X132372Y267872D01*
X131628Y268369D01*
X130750Y268544D01*
X117750D01*
X116872Y268369D01*
X116752Y268289D01*
X114661D01*
X113983Y268967D01*
X112696Y269500D01*
D02*
G37*
G36*
X308500Y261000D02*
X294500D01*
Y260539D01*
X293500D01*
X292720Y260384D01*
X292058Y259942D01*
X292058Y259942D01*
X287132Y255016D01*
X287052Y254896D01*
X286017Y254467D01*
X285039Y253489D01*
X282499Y253499D01*
Y253499D01*
X276499D01*
Y246499D01*
X282499D01*
Y247960D01*
X285687D01*
X286468Y248115D01*
X286681Y248258D01*
X287304Y248000D01*
X288696D01*
X289983Y248533D01*
X290967Y249517D01*
X291500Y250804D01*
Y252196D01*
X291084Y253200D01*
X292523Y254640D01*
X294500Y256000D01*
X308500D01*
Y261000D01*
D02*
G37*
G36*
X73500Y266400D02*
X54500D01*
Y247400D01*
X73500D01*
Y266400D01*
D02*
G37*
G36*
X352196Y269000D02*
X350804D01*
X349517Y268467D01*
X348533Y267483D01*
X348000Y266196D01*
Y264804D01*
X348533Y263517D01*
X349034Y263016D01*
X349322Y261500D01*
X349034Y259984D01*
X348533Y259483D01*
X348000Y258196D01*
Y256804D01*
X348533Y255517D01*
X349034Y255016D01*
X349322Y253500D01*
X349034Y251984D01*
X348533Y251483D01*
X348000Y250196D01*
Y248804D01*
X348316Y248040D01*
X347562Y246274D01*
X346958Y245500D01*
X344000Y245500D01*
Y245500D01*
X339000Y245500D01*
X336460Y245500D01*
X331042D01*
X330438Y246274D01*
X329684Y248040D01*
X330000Y248804D01*
Y250196D01*
X329467Y251483D01*
X328483Y252467D01*
X327196Y253000D01*
X325804D01*
X324517Y252467D01*
X323533Y251483D01*
X323000Y250196D01*
Y248804D01*
X323316Y248040D01*
X322562Y246274D01*
X321958Y245500D01*
X319000D01*
Y231500D01*
X317640Y229524D01*
X316655Y228539D01*
X303000D01*
X303000Y228539D01*
X302220Y228384D01*
X301558Y227942D01*
X301558Y227942D01*
X300616Y227000D01*
X299304D01*
X298017Y226467D01*
X297033Y225483D01*
X296500Y224196D01*
Y222804D01*
X297033Y221517D01*
X297511Y221039D01*
X296874Y218499D01*
X296501D01*
Y217538D01*
X290501D01*
Y218499D01*
X283501D01*
Y212499D01*
X290501D01*
Y213460D01*
X296501D01*
Y212499D01*
X303501D01*
Y218499D01*
X303124D01*
X302489Y221039D01*
X302967Y221517D01*
X303500Y222804D01*
Y224116D01*
X303845Y224461D01*
X317500D01*
X318280Y224616D01*
X318942Y225058D01*
X322942Y229058D01*
X322942Y229058D01*
X323384Y229720D01*
X323539Y230500D01*
Y231500D01*
X336460D01*
X339000Y231500D01*
X339461Y229151D01*
Y200345D01*
X335116Y196000D01*
X323500D01*
Y191039D01*
X318999D01*
Y191501D01*
X311999D01*
Y185501D01*
X318999D01*
Y186961D01*
X323500D01*
Y182000D01*
X338500D01*
Y193616D01*
X342523Y197640D01*
X344500Y199000D01*
X345832Y199000D01*
X359500D01*
Y203460D01*
X365001D01*
Y202499D01*
X372001D01*
Y208499D01*
X365001D01*
Y207538D01*
X359500D01*
Y213000D01*
X348539D01*
Y229151D01*
X349000Y231500D01*
X351540Y231500D01*
X354000D01*
Y231500D01*
X364000Y231500D01*
X366540Y231500D01*
X376460D01*
X379000Y231500D01*
X381540Y231500D01*
X389000D01*
Y245500D01*
X379000Y245500D01*
X376460Y245500D01*
X366540D01*
X364000Y245500D01*
X363539Y247849D01*
Y257500D01*
X363539Y257500D01*
X363384Y258280D01*
X362942Y258942D01*
X355516Y266368D01*
X354854Y266810D01*
X354736Y266833D01*
X354467Y267483D01*
X353483Y268467D01*
X352196Y269000D01*
D02*
G37*
G36*
X423500Y306000D02*
X409500D01*
Y303540D01*
X409500Y301000D01*
X409500Y298460D01*
Y293540D01*
X409500Y291000D01*
X409500Y288460D01*
Y276000D01*
X409500D01*
X409500Y276000D01*
Y268540D01*
X409500Y266000D01*
X409500D01*
Y266000D01*
X409500D01*
Y256000D01*
X423500D01*
Y261461D01*
X495321D01*
X518014Y238768D01*
X518675Y238326D01*
X519456Y238171D01*
X537154D01*
X540057Y235268D01*
X540719Y234826D01*
X541499Y234671D01*
X541499Y234671D01*
X544100D01*
X544637Y234312D01*
X545320Y234176D01*
X558820D01*
X559503Y234312D01*
X560082Y234698D01*
X560468Y235277D01*
X560604Y235960D01*
Y237460D01*
X560468Y238143D01*
X560082Y238722D01*
Y239698D01*
X560468Y240277D01*
X560604Y240960D01*
Y242460D01*
X560468Y243143D01*
X560150Y243619D01*
X560824Y246048D01*
X563144Y246972D01*
X566231Y243886D01*
X566892Y243444D01*
X567672Y243288D01*
X568501Y241501D01*
X574501D01*
Y248501D01*
X568501D01*
Y248501D01*
X567710Y248173D01*
X562732Y253152D01*
X562297Y253442D01*
X560973Y254771D01*
X560604Y255960D01*
Y257460D01*
X560468Y258143D01*
X560082Y258722D01*
Y259698D01*
X560468Y260277D01*
X560604Y260960D01*
Y262460D01*
X560468Y263143D01*
X560082Y263722D01*
X559503Y264109D01*
X558820Y264244D01*
X545320D01*
X544637Y264109D01*
X544058Y263722D01*
X543671Y263143D01*
X543536Y262460D01*
Y261135D01*
X543536Y260960D01*
X543541Y260632D01*
X543549Y260108D01*
X542138Y258159D01*
X542128Y258152D01*
X541225Y257249D01*
X528635D01*
X505942Y279942D01*
X505280Y280384D01*
X504500Y280539D01*
X432581D01*
X431994Y281259D01*
X431200Y283079D01*
X431500Y283804D01*
Y285196D01*
X430967Y286483D01*
X429983Y287467D01*
X428696Y288000D01*
X427304D01*
X426017Y287467D01*
X423500Y288542D01*
X423500Y291000D01*
X423500Y293540D01*
Y298460D01*
X423500Y301000D01*
X423500Y303540D01*
Y306000D01*
D02*
G37*
G36*
X177696Y272500D02*
X176304D01*
X175017Y271967D01*
X174033Y270983D01*
X173500Y269696D01*
Y268304D01*
X174033Y267017D01*
X174961Y266089D01*
Y260998D01*
X174881Y260878D01*
X174706Y260000D01*
Y247000D01*
X174881Y246122D01*
X174961Y246002D01*
Y243500D01*
X175116Y242720D01*
X175558Y242058D01*
X182058Y235558D01*
X182720Y235116D01*
X183702Y233022D01*
X183708Y232963D01*
X181501Y232999D01*
Y232999D01*
X174501D01*
X174501Y232999D01*
Y232999D01*
X172750Y234634D01*
X169039Y238345D01*
Y246002D01*
X169119Y246122D01*
X169294Y247000D01*
Y260000D01*
X169119Y260878D01*
X168622Y261622D01*
X167878Y262120D01*
X167878D01*
X167000Y262294D01*
X166993Y262293D01*
X166122Y262120D01*
X166122Y262119D01*
X166115Y262115D01*
X164500Y261768D01*
X162886Y262115D01*
X162878Y262119D01*
X162000Y262294D01*
X161122Y262120D01*
X161114Y262115D01*
X159500Y261768D01*
X157886Y262115D01*
X157878Y262119D01*
X157000Y262294D01*
X156122Y262120D01*
X156114Y262115D01*
X154500Y261768D01*
X152886Y262115D01*
X152878Y262119D01*
X152000Y262294D01*
X151122Y262120D01*
X151114Y262115D01*
X149500Y261768D01*
X147886Y262115D01*
X147879Y262119D01*
X147878Y262120D01*
X147007Y262293D01*
X147000Y262294D01*
X146122Y262120D01*
X146122D01*
X146115Y262115D01*
X146115D01*
X145320Y261622D01*
X143680D01*
X142885Y262115D01*
X142878Y262119D01*
X142000Y262294D01*
X141122Y262119D01*
X141115Y262115D01*
X140320Y261622D01*
X138680D01*
X137885Y262115D01*
X137878Y262119D01*
X137000Y262294D01*
X136122Y262119D01*
X135378Y261622D01*
X134881Y260878D01*
X134706Y260000D01*
Y247000D01*
X132503Y245539D01*
X117911D01*
X117483Y245967D01*
X116196Y246500D01*
X114804D01*
X113517Y245967D01*
X112533Y244983D01*
X112000Y243696D01*
Y242304D01*
X112533Y241017D01*
X113462Y240089D01*
Y236999D01*
X112001D01*
Y230999D01*
X119001D01*
Y236999D01*
X117540D01*
Y240090D01*
X118467Y241017D01*
X118651Y241461D01*
X126485D01*
X127537Y238921D01*
X127314Y238698D01*
X126872Y238037D01*
X126717Y237256D01*
Y236501D01*
X124269D01*
Y230501D01*
X131269D01*
Y236501D01*
X133412Y237461D01*
X133745D01*
X135999Y236771D01*
X135999Y235483D01*
Y230771D01*
X142999D01*
Y236615D01*
X148442Y242058D01*
X148442Y242058D01*
X148884Y242720D01*
X148990Y243251D01*
X149863Y243918D01*
X151579Y244790D01*
X152000Y244706D01*
X152421Y244790D01*
X154103Y243902D01*
X154961Y243218D01*
Y197345D01*
X150616Y193000D01*
X139000D01*
Y188539D01*
X133500D01*
Y189500D01*
X126500D01*
Y183500D01*
X133500D01*
Y184461D01*
X139000D01*
Y179000D01*
X154000D01*
Y190616D01*
X158024Y194640D01*
X158963Y195287D01*
X160330Y195885D01*
X161332Y196000D01*
X175000D01*
Y201461D01*
X179500D01*
Y200500D01*
X186500D01*
Y206500D01*
X179500D01*
Y205539D01*
X175000D01*
Y210000D01*
X164039D01*
Y233985D01*
X166579Y235037D01*
X172437Y229179D01*
X172438Y229179D01*
X173099Y228736D01*
X173880Y228581D01*
X174501Y226999D01*
X181501D01*
Y227018D01*
X184041Y227872D01*
X186001Y226999D01*
Y224499D01*
X186001Y224459D01*
Y218499D01*
X186001D01*
X186533Y215983D01*
X186000Y214696D01*
Y213304D01*
X186533Y212017D01*
X187517Y211033D01*
X188804Y210500D01*
X190196D01*
X191483Y211033D01*
X192467Y212017D01*
X193000Y213304D01*
Y214696D01*
X192467Y215983D01*
X193001Y218499D01*
X193001D01*
Y224459D01*
X193001Y224499D01*
Y226999D01*
X193001Y227039D01*
Y232421D01*
X193001Y232999D01*
X193587Y233822D01*
X195154Y233929D01*
X195511Y233787D01*
X197501Y231858D01*
Y226999D01*
X204501D01*
Y232999D01*
X202539Y233000D01*
X202384Y233780D01*
X201942Y234442D01*
X201942Y234442D01*
X198963Y237421D01*
X200015Y239961D01*
X202655D01*
X207678Y234938D01*
X209001Y232999D01*
X209001D01*
X209001Y232999D01*
Y227039D01*
X209001Y226999D01*
X209001Y224499D01*
X209001Y224459D01*
Y218499D01*
X209370D01*
X210009Y215959D01*
X209533Y215483D01*
X209000Y214196D01*
Y212804D01*
X209533Y211517D01*
X210517Y210533D01*
X211804Y210000D01*
X213196D01*
X214483Y210533D01*
X215467Y211517D01*
X216000Y212804D01*
Y214196D01*
X215467Y215483D01*
X214991Y215959D01*
X215628Y218499D01*
X216001D01*
Y224459D01*
X216001Y224499D01*
X216001Y226999D01*
X217961Y227872D01*
X220501Y227018D01*
Y226999D01*
X227501D01*
Y232999D01*
X220501D01*
Y232038D01*
X216001D01*
Y232999D01*
X214039Y233500D01*
X213884Y234280D01*
X213442Y234942D01*
X204942Y243442D01*
X204280Y243884D01*
X203500Y244039D01*
X195783D01*
X195098Y244897D01*
X194210Y246579D01*
X194294Y247000D01*
Y251461D01*
X213655D01*
X214287Y250829D01*
X214287Y250829D01*
X214949Y250387D01*
X215729Y250232D01*
X215729Y250232D01*
X222501D01*
Y248771D01*
X228461D01*
X228501Y248771D01*
X231001Y248771D01*
X231041Y248771D01*
X237001D01*
Y248771D01*
X239517Y249533D01*
X240804Y249000D01*
X242196D01*
X243483Y249533D01*
X244467Y250517D01*
X245000Y251804D01*
Y253196D01*
X244467Y254483D01*
X243483Y255467D01*
X242196Y256000D01*
X240804D01*
X239517Y255467D01*
X237001Y255771D01*
X237001Y255771D01*
X231041D01*
X231001Y255771D01*
X228501Y255771D01*
X228461Y255771D01*
X222501D01*
Y254310D01*
X216574D01*
X215942Y254942D01*
X215280Y255384D01*
X214500Y255539D01*
X194294D01*
Y260000D01*
X194119Y260878D01*
X193622Y261622D01*
X192878Y262120D01*
X192878D01*
X192000Y262294D01*
X191993Y262293D01*
X191122Y262120D01*
X191122Y262119D01*
X191115Y262115D01*
X189500Y261768D01*
X187886Y262115D01*
X187878Y262119D01*
X187000Y262294D01*
X186122Y262120D01*
X186114Y262115D01*
X184500Y261768D01*
X182885Y262115D01*
X182878Y262119D01*
X182878Y262119D01*
X180606Y262724D01*
X179897Y263097D01*
X179231Y263629D01*
X179144Y266195D01*
X179967Y267017D01*
X180500Y268304D01*
Y269696D01*
X179967Y270983D01*
X178983Y271967D01*
X177696Y272500D01*
D02*
G37*
G36*
X399000Y245500D02*
X394000D01*
Y231500D01*
X394461D01*
Y228411D01*
X393533Y227483D01*
X393000Y226196D01*
Y224804D01*
X393533Y223517D01*
X394462Y222589D01*
Y218499D01*
X393001D01*
Y212499D01*
X400001D01*
Y218499D01*
X398540D01*
Y222590D01*
X399467Y223517D01*
X400000Y224804D01*
Y226196D01*
X399467Y227483D01*
X398539Y228410D01*
Y231500D01*
X399000D01*
Y245500D01*
D02*
G37*
G36*
X410501Y115501D02*
X404501D01*
Y114550D01*
X401400D01*
X400983Y114967D01*
X399696Y115500D01*
X398304D01*
X397017Y114967D01*
X396033Y113983D01*
X395500Y112696D01*
Y112105D01*
X395154Y111759D01*
X384060D01*
X383986Y111744D01*
X377310D01*
X376627Y111608D01*
X376048Y111222D01*
X375662Y110643D01*
X375526Y109960D01*
Y108460D01*
X375199Y108026D01*
X373124Y107993D01*
X372193Y108257D01*
X371483Y108967D01*
X370196Y109500D01*
X368804D01*
X367517Y108967D01*
X366533Y107983D01*
X366000Y106696D01*
Y105304D01*
X366533Y104017D01*
X366536Y104014D01*
X366688Y103694D01*
X365955Y102211D01*
X363064Y101819D01*
X356000Y108884D01*
Y110196D01*
X355467Y111483D01*
X354483Y112467D01*
X353196Y113000D01*
X351804D01*
X350517Y112467D01*
X349533Y111483D01*
X349000Y110196D01*
Y108804D01*
X349533Y107517D01*
X350007Y106000D01*
X349033Y104983D01*
X348500Y103696D01*
Y102304D01*
X349033Y101017D01*
X350017Y100033D01*
X351304Y99500D01*
X352616D01*
X364348Y87768D01*
X364348Y87768D01*
X365010Y87326D01*
X365790Y87171D01*
X376090D01*
X376627Y86812D01*
X377310Y86676D01*
X390810D01*
X391493Y86812D01*
X392072Y87198D01*
X392458Y87777D01*
X392483Y87902D01*
X395023Y87652D01*
Y86396D01*
X395178Y85616D01*
X395621Y84954D01*
X397058Y83517D01*
X397058Y83516D01*
X402729Y77846D01*
X403390Y77404D01*
X404171Y77248D01*
X404999Y75229D01*
X410959D01*
X410999Y75229D01*
X413499Y75229D01*
X413539Y75229D01*
X419499D01*
Y75229D01*
X422017Y76033D01*
X423304Y75500D01*
X424696D01*
X425983Y76033D01*
X426967Y77017D01*
X427500Y78304D01*
Y79696D01*
X426967Y80983D01*
X425983Y81967D01*
X424696Y82500D01*
X423304D01*
X422017Y81967D01*
X419499Y82229D01*
X419499Y82229D01*
X413539D01*
X413499Y82229D01*
X410999Y82229D01*
X410959Y82229D01*
X404999D01*
X404999Y82229D01*
Y82229D01*
X402956Y83386D01*
X399942Y86400D01*
X399942Y86400D01*
X399767Y86576D01*
X399965Y88059D01*
X402649Y88967D01*
X402729Y88887D01*
X402729Y88887D01*
X403390Y88445D01*
X404171Y88290D01*
X404999Y86229D01*
X410959D01*
X410999Y86229D01*
X413499Y86229D01*
X413539Y86229D01*
X419499D01*
Y86229D01*
X422017Y87033D01*
X423304Y86500D01*
X424696D01*
X425983Y87033D01*
X426967Y88017D01*
X427500Y89304D01*
Y90696D01*
X426967Y91983D01*
X425983Y92967D01*
X424696Y93500D01*
X423304D01*
X422017Y92967D01*
X419499Y93229D01*
X419499Y93229D01*
X413539D01*
X413499Y93229D01*
X410999Y93229D01*
X410959Y93229D01*
X404999D01*
X403539Y95164D01*
Y95359D01*
X404501Y97501D01*
X405519Y97501D01*
X410501D01*
Y104501D01*
X410050D01*
Y108501D01*
X410501D01*
Y115501D01*
D02*
G37*
G36*
X145696Y83500D02*
X144304D01*
X143017Y82967D01*
X142033Y81983D01*
X141500Y80696D01*
Y79304D01*
X142033Y78017D01*
X142965Y77085D01*
Y70570D01*
X142282D01*
X139559Y67847D01*
Y58593D01*
X142282Y55870D01*
X147726D01*
X150449Y58593D01*
Y67847D01*
X147726Y70570D01*
X147043D01*
Y77093D01*
X147967Y78017D01*
X148500Y79304D01*
Y80696D01*
X147967Y81983D01*
X146983Y82967D01*
X145696Y83500D01*
D02*
G37*
G36*
X178696Y82500D02*
X177304D01*
X176017Y81967D01*
X175033Y80983D01*
X174500Y79696D01*
Y78304D01*
X175033Y77017D01*
X175961Y76089D01*
Y70241D01*
X175212D01*
X172490Y67519D01*
Y58264D01*
X175212Y55541D01*
X180658D01*
X183380Y58264D01*
Y67519D01*
X180658Y70241D01*
X180039D01*
Y76089D01*
X180967Y77017D01*
X181500Y78304D01*
Y79696D01*
X180967Y80983D01*
X179983Y81967D01*
X178696Y82500D01*
D02*
G37*
G36*
X261915Y59710D02*
X260125D01*
X258471Y59025D01*
X257205Y57759D01*
X256520Y56105D01*
Y54315D01*
X257205Y52661D01*
X258471Y51395D01*
X260125Y50710D01*
X261915D01*
X263569Y51395D01*
X264835Y52661D01*
X265520Y54315D01*
Y56105D01*
X264835Y57759D01*
X263569Y59025D01*
X261915Y59710D01*
D02*
G37*
G36*
X195696Y65000D02*
X194304D01*
X193017Y64467D01*
X192033Y63483D01*
X191500Y62196D01*
Y60804D01*
X192033Y59517D01*
X192511Y59039D01*
X191874Y56499D01*
X191501D01*
Y50539D01*
X191501Y50499D01*
X191501Y47999D01*
X189342Y47038D01*
X183380D01*
Y52461D01*
X172490D01*
Y37761D01*
X183380D01*
Y42960D01*
X191501D01*
Y41999D01*
X198501D01*
Y47959D01*
X198501Y47999D01*
X198501Y50499D01*
X198501Y50539D01*
Y56499D01*
X198124D01*
X197489Y59039D01*
X197967Y59517D01*
X198500Y60804D01*
Y62196D01*
X197967Y63483D01*
X196983Y64467D01*
X195696Y65000D01*
D02*
G37*
G36*
X161696Y65500D02*
X160304D01*
X159017Y64967D01*
X158033Y63983D01*
X157500Y62696D01*
Y61304D01*
X158033Y60017D01*
X158962Y59089D01*
Y56499D01*
X157501D01*
Y50539D01*
X157501Y50499D01*
Y47999D01*
X155342Y47038D01*
X150449D01*
Y52790D01*
X139559D01*
Y38090D01*
X150449D01*
Y42960D01*
X157501D01*
Y41999D01*
X164501D01*
Y47959D01*
X164501Y47999D01*
Y50499D01*
X164501Y50539D01*
Y56499D01*
X163040D01*
Y59090D01*
X163967Y60017D01*
X164500Y61304D01*
Y62696D01*
X163967Y63983D01*
X162983Y64967D01*
X161696Y65500D01*
D02*
G37*
G36*
X128696D02*
X127304D01*
X126017Y64967D01*
X125033Y63983D01*
X124500Y62696D01*
Y61304D01*
X125033Y60017D01*
X125962Y59089D01*
Y56499D01*
X124501D01*
Y50539D01*
X124501Y50499D01*
Y47999D01*
X122342Y47038D01*
X116379D01*
Y52461D01*
X105489D01*
Y37761D01*
X116379D01*
Y42960D01*
X124501D01*
Y41999D01*
X131501D01*
Y47959D01*
X131501Y47999D01*
Y50499D01*
X131501Y50539D01*
Y56499D01*
X130040D01*
Y59090D01*
X130967Y60017D01*
X131500Y61304D01*
Y62696D01*
X130967Y63983D01*
X129983Y64967D01*
X128696Y65500D01*
D02*
G37*
G36*
X281520Y54788D02*
X275520D01*
X273959Y54478D01*
X272636Y53594D01*
X271752Y52271D01*
X271442Y50710D01*
Y41710D01*
X271752Y40149D01*
X272636Y38826D01*
X273959Y37942D01*
X275520Y37632D01*
X281520D01*
X283081Y37942D01*
X284404Y38826D01*
X285288Y40149D01*
X285598Y41710D01*
Y44171D01*
X288880D01*
X289517Y43533D01*
X290804Y43000D01*
X292196D01*
X293483Y43533D01*
X294410Y44461D01*
X297500D01*
Y43500D01*
X304500D01*
Y49500D01*
X297500D01*
Y48539D01*
X294411D01*
X293483Y49467D01*
X292196Y50000D01*
X290804D01*
X289517Y49467D01*
X288533Y48483D01*
X288436Y48249D01*
X285598D01*
Y50710D01*
X285288Y52271D01*
X284404Y53594D01*
X283081Y54478D01*
X281520Y54788D01*
D02*
G37*
G36*
X261915Y41710D02*
X260125D01*
X258471Y41025D01*
X257205Y39759D01*
X256520Y38105D01*
Y36315D01*
X257205Y34661D01*
X258471Y33395D01*
X260125Y32710D01*
X261915D01*
X263569Y33395D01*
X264835Y34661D01*
X265520Y36315D01*
Y38105D01*
X264835Y39759D01*
X263569Y41025D01*
X261915Y41710D01*
D02*
G37*
%LPD*%
G36*
X242500Y436900D02*
X242459Y436800D01*
X171300D01*
X171200Y436841D01*
Y454300D01*
X171300Y454400D01*
X190000D01*
X210739Y476000D01*
X242500D01*
Y436900D01*
D02*
G37*
G36*
X294000Y428000D02*
X246000D01*
Y450000D01*
X294000D01*
Y428000D01*
D02*
G37*
G36*
X157800Y458100D02*
X166000Y449900D01*
Y438100D01*
X153799D01*
X152006Y439899D01*
X152100Y469300D01*
X157800D01*
Y458100D01*
D02*
G37*
G36*
X258934Y332682D02*
X258988Y332524D01*
X259031Y330961D01*
X258966Y330356D01*
X258696Y329580D01*
X232559Y303443D01*
X232117Y302781D01*
X231962Y302001D01*
Y281929D01*
X231950Y281903D01*
X229422Y279771D01*
X228501D01*
X228461Y279771D01*
X222501D01*
Y278289D01*
X215033D01*
X214347Y279147D01*
X213974Y279855D01*
X213369Y282128D01*
X213369Y282129D01*
X213365Y282136D01*
X213018Y283750D01*
X213365Y285364D01*
X213369Y285372D01*
X213544Y286250D01*
X213369Y287128D01*
X213365Y287136D01*
X213018Y288750D01*
X213365Y290364D01*
X213369Y290372D01*
X213544Y291250D01*
X213369Y292128D01*
X213365Y292136D01*
X213018Y293750D01*
X213365Y295364D01*
X213369Y295371D01*
X213369Y295372D01*
X213543Y296243D01*
X213544Y296250D01*
X213369Y297128D01*
Y297128D01*
X212872Y297872D01*
X212128Y298369D01*
X211250Y298544D01*
X198250D01*
X197372Y298369D01*
X196628Y297872D01*
X196131Y297128D01*
Y297128D01*
X195956Y296250D01*
X195957Y296243D01*
X196131Y295372D01*
X196131Y295371D01*
X196135Y295364D01*
X196482Y293750D01*
X196135Y292136D01*
X196131Y292128D01*
X195956Y291250D01*
X196131Y290372D01*
X196135Y290364D01*
X196482Y288750D01*
X196135Y287136D01*
X196131Y287128D01*
X195956Y286250D01*
X196131Y285372D01*
X196135Y285364D01*
X196628Y283071D01*
Y282930D01*
X196201Y282242D01*
X196068Y282109D01*
X193546Y281338D01*
X189039Y285845D01*
Y323717D01*
X189897Y324403D01*
X191579Y325290D01*
X192000Y325206D01*
X192878Y325381D01*
X193622Y325878D01*
X194119Y326622D01*
X194294Y327500D01*
Y340500D01*
X194119Y341378D01*
X194039Y341498D01*
Y352000D01*
X195500D01*
Y358000D01*
X195500D01*
X195500Y360500D01*
X195500D01*
Y365921D01*
X195500Y366500D01*
X196898Y368461D01*
X223155D01*
X258934Y332682D01*
D02*
G37*
%LPC*%
G36*
X216696Y325000D02*
X215304D01*
X214017Y324467D01*
X213033Y323483D01*
X212128Y323369D01*
X211250Y323544D01*
X198250D01*
X197372Y323369D01*
X196628Y322872D01*
X196131Y322128D01*
X195956Y321250D01*
X196131Y320372D01*
X196628Y319628D01*
X197372Y319131D01*
X198250Y318956D01*
X211250D01*
X212128Y319131D01*
X212248Y319211D01*
X213339D01*
X214017Y318533D01*
X215304Y318000D01*
X216696D01*
X217983Y318533D01*
X218911Y319461D01*
X222501D01*
Y317771D01*
X228501D01*
Y324771D01*
X222501D01*
Y323539D01*
X218911D01*
X217983Y324467D01*
X216696Y325000D01*
D02*
G37*
G36*
X211250Y313544D02*
X198250D01*
X197372Y313369D01*
X196628Y312872D01*
X196131Y312128D01*
Y312128D01*
X195956Y311250D01*
X195957Y311243D01*
X196131Y310372D01*
X196131Y310371D01*
X196135Y310364D01*
X196482Y308750D01*
X196135Y307136D01*
X196131Y307129D01*
X196131Y307128D01*
X195957Y306257D01*
X195956Y306250D01*
X196131Y305372D01*
Y305372D01*
X196628Y304628D01*
X197372Y304131D01*
X198250Y303956D01*
X211250D01*
X212128Y304131D01*
X212872Y304628D01*
X213369Y305372D01*
Y305372D01*
X213544Y306250D01*
X213543Y306257D01*
X213369Y307128D01*
X213369Y307129D01*
X213365Y307136D01*
X213018Y308750D01*
X213365Y310364D01*
X213369Y310371D01*
X213369Y310372D01*
X213543Y311243D01*
X213544Y311250D01*
X213369Y312128D01*
Y312128D01*
X212872Y312872D01*
X212128Y313369D01*
X211250Y313544D01*
D02*
G37*
%LPD*%
G36*
X429500Y483500D02*
X416500Y470500D01*
X405500D01*
Y462000D01*
X390500Y447000D01*
X352000D01*
Y469000D01*
X358000D01*
Y457000D01*
X361500Y453500D01*
X383500D01*
X389000Y459000D01*
Y512000D01*
X429500D01*
Y483500D01*
D02*
G37*
G36*
X406054Y457431D02*
X406219Y456603D01*
X395058Y445442D01*
X394616Y444780D01*
X394461Y444000D01*
Y360500D01*
X381540D01*
X379000Y360500D01*
X376460Y360500D01*
X366540D01*
X364000Y360500D01*
X361460Y360500D01*
X352102D01*
X351060Y362868D01*
X352322Y364461D01*
X368500D01*
X369280Y364616D01*
X369942Y365058D01*
X372442Y367558D01*
X372884Y368220D01*
X373039Y369000D01*
X373750Y370718D01*
X374515Y371035D01*
X374832Y371800D01*
Y372161D01*
X379168D01*
Y371800D01*
X379485Y371035D01*
X380250Y370718D01*
X385750D01*
X386515Y371035D01*
X386832Y371800D01*
X386832Y377607D01*
X386832Y379250D01*
X386515Y380015D01*
X386515D01*
X385750Y380332D01*
X385750Y380332D01*
X384985Y380015D01*
X384370Y379401D01*
X384355Y379401D01*
X381830D01*
X381015Y380215D01*
X380250Y380532D01*
X380250Y380532D01*
X379485Y380215D01*
X379485D01*
X379168Y379450D01*
X379168Y378035D01*
X377372Y376240D01*
X374832Y376241D01*
Y379250D01*
X374553Y379925D01*
X374832Y380600D01*
Y385400D01*
X374515Y386165D01*
X374480Y386317D01*
X374102Y388792D01*
X374114Y388872D01*
X374500Y389804D01*
Y391196D01*
X373967Y392483D01*
X372983Y393467D01*
X371696Y394000D01*
X370304D01*
X369017Y393467D01*
X368033Y392483D01*
X367500Y391196D01*
Y389804D01*
X367886Y388872D01*
X367898Y388792D01*
X367520Y386317D01*
X367485Y386165D01*
X367168Y385400D01*
Y380600D01*
X367406Y380025D01*
X367168Y379450D01*
X367168Y379450D01*
Y371800D01*
X367485Y371035D01*
X366872Y368539D01*
X363128D01*
X362515Y371035D01*
X362832Y371800D01*
Y379250D01*
X362553Y379925D01*
X362832Y380600D01*
Y385400D01*
X362515Y386165D01*
X362480Y386317D01*
X362102Y388792D01*
X362114Y388872D01*
X362500Y389804D01*
Y391196D01*
X361967Y392483D01*
X360983Y393467D01*
X359696Y394000D01*
X358304D01*
X357017Y393467D01*
X356033Y392483D01*
X355500Y391196D01*
Y389804D01*
X355886Y388872D01*
X355898Y388792D01*
X355520Y386317D01*
X355485Y386165D01*
X355168Y385400D01*
Y380600D01*
X355406Y380025D01*
X355168Y379450D01*
X355168Y379450D01*
Y376241D01*
X352628Y376240D01*
X350832Y378035D01*
X350832Y379250D01*
X350515Y380015D01*
X350515D01*
X349750Y380332D01*
X349750Y380332D01*
X348985Y380015D01*
X348370Y379401D01*
X348355Y379401D01*
X345830D01*
X345015Y380215D01*
X344250Y380532D01*
X344250Y380532D01*
X343485Y380215D01*
X343485D01*
X343167Y379450D01*
X343168Y378544D01*
X343167Y378544D01*
X343168Y378296D01*
Y371800D01*
X343485Y371035D01*
X343289Y370412D01*
X342249Y369889D01*
X339709Y371455D01*
Y448367D01*
X340459Y448964D01*
X342249Y449735D01*
X342996Y449426D01*
X344388D01*
X345675Y449959D01*
X346659Y450943D01*
X347192Y452230D01*
Y453622D01*
X346857Y454432D01*
X347563Y456129D01*
X348188Y456972D01*
X350918D01*
Y447000D01*
X351235Y446235D01*
X352000Y445918D01*
X390500D01*
X391265Y446235D01*
X391265Y446235D01*
X403298Y458268D01*
X406054Y457431D01*
D02*
G37*
G36*
X192800Y405100D02*
X192700Y405000D01*
X149200D01*
Y430700D01*
X192800D01*
Y405100D01*
D02*
G37*
G36*
X592000Y391000D02*
X547000D01*
Y428500D01*
X592000D01*
Y391000D01*
D02*
G37*
G36*
X575000Y375000D02*
X545000D01*
X542000Y372000D01*
Y348000D01*
X507000D01*
X506000Y349000D01*
Y388000D01*
X575000D01*
Y375000D01*
D02*
G37*
D10*
X254800Y457200D02*
X255000Y457000D01*
X247070Y457200D02*
X254800D01*
X396501Y215999D02*
X397001Y215499D01*
X396500Y216000D02*
X396501Y215999D01*
Y225499D01*
Y215499D02*
Y215999D01*
X396500Y225500D02*
X396501Y225499D01*
X396500Y225500D02*
Y238500D01*
X396500Y225500D02*
X396500Y225500D01*
X391500Y230460D02*
Y238500D01*
X389614Y228574D02*
X391500Y230460D01*
X388574Y228574D02*
X389614D01*
X388000Y228000D02*
X388574Y228574D01*
X326500Y353500D02*
Y362443D01*
X324500Y364443D02*
X326500Y362443D01*
X324500Y364443D02*
Y365000D01*
X372102Y104210D02*
X396290D01*
X369500Y106000D02*
X370312D01*
X372102Y104210D01*
X367790Y94210D02*
X384060D01*
X352500Y109500D02*
X367790Y94210D01*
X383853Y99003D02*
X384060Y99210D01*
X369793Y99003D02*
X383853D01*
X369586Y98796D02*
X369793Y99003D01*
X365790Y89210D02*
X384060D01*
X352000Y103000D02*
X365790Y89210D01*
X384060Y99210D02*
X394790D01*
X371500Y343000D02*
Y353500D01*
Y343000D02*
X373500Y341000D01*
Y332500D02*
Y341000D01*
X366500Y340312D02*
X367500Y339312D01*
Y338500D02*
Y339312D01*
X366500Y340312D02*
Y353500D01*
X368500Y188500D02*
X368500Y188500D01*
X368000Y189000D02*
X368500Y188500D01*
X356500Y330500D02*
Y353500D01*
X354500Y328500D02*
X356500Y330500D01*
X361500Y331500D02*
Y353500D01*
Y331500D02*
X364500Y328500D01*
X352000Y189000D02*
X368000D01*
X429499Y464999D02*
X436999D01*
X437000Y465000D01*
X409499Y464999D02*
X420999D01*
X420999Y464999D01*
X409499Y464999D02*
X409500Y464998D01*
Y457000D02*
Y464998D01*
X396500Y353500D02*
Y444000D01*
X409500Y457000D01*
X592570Y317000D02*
X605000D01*
X592500Y316930D02*
X592570Y317000D01*
X426188Y283500D02*
X427188Y284500D01*
X416500Y283500D02*
X426188D01*
X427188Y284500D02*
X428000D01*
X427500Y308500D02*
X427500Y308500D01*
X416500Y308500D02*
X427500D01*
X417500Y333500D02*
X418000Y334000D01*
X416500Y333500D02*
X417500D01*
X418000Y334000D02*
Y366000D01*
X417999Y366001D02*
X418000Y366000D01*
X417999Y366001D02*
Y374501D01*
X405000Y328500D02*
X416500D01*
X418000Y383500D02*
Y391500D01*
X418000Y391500D02*
X418000Y391500D01*
X383000Y383000D02*
Y390500D01*
X347000Y383000D02*
Y390500D01*
X315000Y383500D02*
Y391500D01*
X315000Y391500D01*
X314999Y365001D02*
X315000Y365000D01*
X314999Y365001D02*
Y374501D01*
X321000Y354000D02*
X321500Y353500D01*
X321000Y354000D02*
Y359000D01*
X315000Y365000D02*
X321000Y359000D01*
X313500Y453000D02*
Y463531D01*
X343692Y452926D02*
Y463696D01*
X343680Y463708D02*
X343692Y463696D01*
X313500Y463531D02*
X313680Y463712D01*
X371000Y383000D02*
Y390500D01*
X359000Y383000D02*
Y390500D01*
X301500Y293500D02*
X312500D01*
X312500Y293500D01*
X301500Y283500D02*
X312500D01*
X371000Y374200D02*
X383000D01*
X368500Y366500D02*
X371000Y369000D01*
Y374200D01*
X351000Y366500D02*
X368500D01*
X346500Y362000D02*
X351000Y366500D01*
X346500Y353500D02*
Y362000D01*
X347000Y374200D02*
X359000D01*
X347000Y370000D02*
Y374200D01*
X341500Y353500D02*
Y364500D01*
X347000Y370000D01*
X263000Y250000D02*
X270500D01*
X234001Y264271D02*
X241229D01*
X241500Y264000D01*
X279499Y249999D02*
X285687D01*
X287188Y251500D02*
X288000D01*
X288574Y252074D02*
Y253574D01*
X285687Y249999D02*
X287188Y251500D01*
X288000D02*
X288574Y252074D01*
Y253574D02*
X293500Y258500D01*
X234001Y252271D02*
X241271D01*
X241500Y252500D01*
X352074Y264926D02*
X354074D01*
X351500Y265500D02*
X352074Y264926D01*
X354074D02*
X361500Y257500D01*
Y238500D02*
Y257500D01*
X351500Y257500D02*
X356500Y252500D01*
Y238500D02*
Y252500D01*
X396500Y199000D02*
Y206500D01*
X301000Y63500D02*
X301001Y63499D01*
Y55499D02*
Y63499D01*
X231000Y46000D02*
X231210Y46210D01*
X243520D01*
X291500Y46500D02*
X291500Y46500D01*
X301000D01*
X278520Y46210D02*
X291210D01*
X291500Y46500D01*
X351500Y238500D02*
Y249500D01*
X178000Y62956D02*
Y79000D01*
X177935Y62891D02*
X178000Y62956D01*
X326500Y249500D02*
X326500Y249500D01*
X326500Y238500D02*
Y249500D01*
X368500Y188500D02*
Y196500D01*
X315500Y206500D02*
X316000Y206000D01*
X331000D01*
X315500Y206500D02*
X315500Y206500D01*
X315500Y197500D02*
Y206500D01*
X352000Y206000D02*
X352501Y205499D01*
X368501D01*
X315998Y189000D02*
X331000D01*
X315499Y188501D02*
X315998Y189000D01*
X346500Y211000D02*
Y212172D01*
X351500Y206000D02*
X352000D01*
X346500Y212172D02*
Y238500D01*
Y212172D02*
X346500Y212172D01*
Y211000D02*
X351500Y206000D01*
X331500Y189000D02*
X336500Y194000D01*
Y194500D01*
X341500Y199500D01*
X331000Y189000D02*
X331500D01*
X341500Y199500D02*
Y238500D01*
X287000Y199000D02*
X287000Y199000D01*
X287000Y199000D02*
Y206500D01*
X300000Y199000D02*
Y206500D01*
X317500Y226500D02*
X321500Y230500D01*
Y238500D01*
X300000Y223500D02*
X303000Y226500D01*
X317500D01*
X300001Y215499D02*
Y223499D01*
X300000Y223500D02*
X300001Y223499D01*
X287001Y215499D02*
X300001D01*
X293500Y258500D02*
X301500D01*
X301500Y273500D02*
X301500Y273500D01*
X289500Y273500D02*
X301500D01*
X288000Y275000D02*
X289500Y273500D01*
X280000Y275000D02*
X288000D01*
X270999Y262999D02*
Y274799D01*
X271200Y275000D01*
X144500Y346943D02*
Y347000D01*
X142000Y334000D02*
Y344443D01*
X144500Y346943D01*
X204750Y316250D02*
X214750D01*
X218000Y313000D01*
X204750Y301250D02*
X216750D01*
X217000Y301000D01*
X279499Y262999D02*
X288999D01*
X289500Y263500D01*
X301500D01*
X167000Y318000D02*
Y334000D01*
X145000Y80000D02*
X145004Y79996D01*
Y63220D02*
Y79996D01*
X195001Y53499D02*
Y61499D01*
X195000Y61500D02*
X195001Y61499D01*
X178047Y44999D02*
X195001D01*
X177935Y45111D02*
X178047Y44999D01*
X161001Y53499D02*
Y61999D01*
X161000Y62000D02*
X161001Y61999D01*
X145445Y44999D02*
X161001D01*
X145004Y45440D02*
X145445Y44999D01*
X110934Y62891D02*
Y79434D01*
X111000Y79500D01*
X111046Y44999D02*
X128001D01*
X110934Y45111D02*
X111046Y44999D01*
X128000Y62000D02*
X128001Y61999D01*
Y53499D02*
Y61999D01*
X195750Y276250D02*
X204750D01*
X187000Y285000D02*
X195750Y276250D01*
X187000Y285000D02*
Y334000D01*
X187000Y370500D02*
X224000D01*
X261000Y333500D02*
X301500D01*
X224000Y370500D02*
X261000Y333500D01*
X180500Y363500D02*
X181500Y364500D01*
Y365000D02*
X187000Y370500D01*
X180000Y363500D02*
X180500D01*
X181500Y364500D02*
Y365000D01*
X260500Y328500D02*
X301500D01*
X301500Y328500D01*
X234001Y302001D02*
X260500Y328500D01*
X234001Y276271D02*
Y302001D01*
X216000Y321500D02*
X225272D01*
X225501Y321271D01*
X204750Y321250D02*
X215750D01*
X216000Y321500D01*
X136999Y345001D02*
X137000Y345000D01*
X136999Y345001D02*
Y354501D01*
X137000Y334000D02*
Y345000D01*
X131135Y316500D02*
X140000D01*
X124250Y316250D02*
X130885D01*
X131135Y316500D01*
X114499Y371001D02*
X121999D01*
X122000Y371000D01*
X147000Y325000D02*
Y334000D01*
X145500Y323500D02*
X147000Y325000D01*
X134000Y323500D02*
X145500D01*
X131500Y326000D02*
X134000Y323500D01*
X82300Y326000D02*
X131500D01*
X64000Y307700D02*
X82300Y326000D01*
X80000Y298300D02*
Y313000D01*
X88250Y321250D01*
X124250D01*
X64000Y282300D02*
X80000Y298300D01*
X86500Y311000D02*
X94270D01*
X103320Y311250D02*
X124250D01*
X103070Y311000D02*
X103320Y311250D01*
X86501Y285999D02*
X93999D01*
X86500Y286000D02*
X86501Y285999D01*
X102499D02*
X102750Y286250D01*
X124250D01*
X114750Y271250D02*
X124250D01*
X112000Y274000D02*
X114750Y271250D01*
X86500Y266000D02*
X93770D01*
X102769Y265999D02*
X111999D01*
X112000Y266000D01*
X112250Y266250D02*
X124250D01*
X112000Y266000D02*
X112250Y266250D01*
X115501Y233999D02*
Y242999D01*
X115500Y243000D02*
X115501Y242999D01*
X115500Y243000D02*
X116000Y243500D01*
X135000D01*
X136904Y245404D02*
Y253404D01*
X135000Y243500D02*
X136904Y245404D01*
Y253404D02*
X137000Y253500D01*
X128756Y234488D02*
Y237256D01*
X127769Y233501D02*
X128756Y234488D01*
Y237256D02*
X131000Y239500D01*
X137500D01*
X142000Y244000D02*
Y253500D01*
X137500Y239500D02*
X142000Y244000D01*
X140500Y234771D02*
Y237000D01*
X139499Y233771D02*
X139500D01*
X140500Y234771D01*
Y237000D02*
X147000Y243500D01*
Y253500D01*
X115500Y217500D02*
Y225000D01*
X127769Y217731D02*
Y225001D01*
Y217731D02*
X128000Y217500D01*
X139499Y217001D02*
X139500Y217000D01*
X139499Y217001D02*
Y225271D01*
X224000Y213500D02*
X224001Y213501D01*
Y221499D01*
X212501Y213501D02*
Y221499D01*
X212500Y213500D02*
X212501Y213501D01*
X201000Y213500D02*
Y221000D01*
X178000Y214812D02*
X179000Y213812D01*
X178000Y214812D02*
Y221000D01*
X179000Y213000D02*
Y213812D01*
X189500Y214000D02*
X189501Y214001D01*
Y221499D01*
X212501Y229999D02*
X224001D01*
X212000Y230500D02*
X212501Y229999D01*
X212000Y230500D02*
Y233500D01*
X185000Y242000D02*
X203500D01*
X212000Y233500D01*
X182000Y253500D02*
X182005Y253495D01*
Y244995D02*
Y253495D01*
Y244995D02*
X185000Y242000D01*
X200500Y230500D02*
Y233000D01*
Y230500D02*
X201001Y229999D01*
X196500Y237000D02*
X200500Y233000D01*
X183500Y237000D02*
X196500D01*
X177000Y243500D02*
X183500Y237000D01*
X177000Y243500D02*
Y253500D01*
Y269000D01*
X177000Y269000D02*
X177000Y269000D01*
X178001Y229999D02*
X189501D01*
X167000Y237500D02*
Y253500D01*
X173880Y230620D02*
X177379D01*
X178001Y229999D01*
X167000Y237500D02*
X173880Y230620D01*
X172000Y241812D02*
Y253500D01*
Y241812D02*
X173000Y240812D01*
Y240000D02*
Y240812D01*
X183000Y186000D02*
X183000Y186000D01*
X167500Y186000D02*
X183000D01*
X182999Y186001D02*
X183000Y186000D01*
X182999Y186001D02*
Y194501D01*
X130000Y203000D02*
X146500D01*
X130001Y195499D02*
Y202999D01*
X130000Y203000D02*
X130001Y202999D01*
X167500Y203000D02*
X168000Y203500D01*
X183000D01*
X167000Y203000D02*
X167500D01*
X162000Y208000D02*
X167000Y203000D01*
X162000Y208000D02*
Y253500D01*
X152000Y191500D02*
X157000Y196500D01*
Y253500D01*
X146500Y186000D02*
X147000D01*
X152000Y191000D01*
Y191500D01*
X130000Y186500D02*
X146000D01*
X146500Y186000D01*
X214500Y253500D02*
X215729Y252271D01*
X225501D01*
X192000Y253500D02*
X214500D01*
X219229Y264271D02*
X225501D01*
X217250Y266250D02*
X219229Y264271D01*
X204750Y266250D02*
X217250D01*
X225480Y276250D02*
X225501Y276271D01*
X204750Y276250D02*
X225480D01*
X241770Y321270D02*
X242000Y321500D01*
X234500Y321270D02*
X241770D01*
X190500Y362000D02*
Y362500D01*
X191500Y363500D01*
X180000Y355000D02*
X180621Y355621D01*
X184121D01*
X190500Y362000D01*
X191500Y363500D02*
X192000D01*
X181500Y353328D02*
X182000Y352828D01*
X180500Y355000D02*
X181500Y354000D01*
X180000Y355000D02*
X180500D01*
X182000Y334000D02*
Y352828D01*
X181500Y353328D02*
Y354000D01*
X192000Y334000D02*
Y355000D01*
X137000Y363500D02*
Y371000D01*
X114499Y383224D02*
X121724D01*
X122000Y383500D01*
X114499Y395446D02*
X121946D01*
X122000Y395500D01*
X60000Y394500D02*
X69320D01*
X105999Y371001D02*
Y383224D01*
Y383724D02*
Y395446D01*
Y383224D02*
Y383724D01*
X103828Y385000D02*
X104104Y384724D01*
X104999D01*
X105999Y383724D01*
X92000Y385000D02*
X103828D01*
X92000Y404000D02*
X98500D01*
X102169Y407669D02*
X105999D01*
X98500Y404000D02*
X102169Y407669D01*
X140971Y418029D02*
Y426031D01*
X102869Y418631D02*
Y426031D01*
Y418631D02*
X103000Y418500D01*
X140971Y434531D02*
Y443471D01*
X143450Y445950D01*
Y463708D01*
X113450Y463712D02*
X113500Y463662D01*
Y453500D02*
Y463662D01*
X102869Y442869D02*
X113500Y453500D01*
X102869Y434531D02*
Y442869D01*
X416500Y278500D02*
X504500D01*
X527790Y255210D01*
X416500Y273500D02*
X501722D01*
X525012Y250210D01*
X416500Y268500D02*
X498944D01*
X522234Y245210D01*
X416500Y263500D02*
X496166D01*
X519456Y240210D01*
X537999D01*
X522234Y245210D02*
X540070D01*
X525012Y250210D02*
X542141D01*
X527790Y255210D02*
X542070D01*
X542141Y250210D02*
X545641Y246710D01*
X552070D01*
X537999Y240210D02*
X541499Y236710D01*
X552070D01*
X540070Y245210D02*
X543570Y241710D01*
X552070D01*
X542070Y255210D02*
X543570Y256710D01*
X552070D01*
X398500Y84958D02*
Y84958D01*
X394790Y99210D02*
X397062Y96938D01*
Y86396D02*
Y96938D01*
Y86396D02*
X398500Y84958D01*
X404171Y79288D02*
X407441D01*
X398500Y84958D02*
X404171Y79288D01*
X407441D02*
X407999Y78729D01*
X401500Y93000D02*
X404171Y90329D01*
X401500Y93000D02*
Y99000D01*
X396290Y104210D02*
X401500Y99000D01*
X407399Y90329D02*
X407999Y89729D01*
X404171Y90329D02*
X407399D01*
X423729Y78729D02*
X424000Y79000D01*
X416499Y78729D02*
X423729D01*
X416499Y89729D02*
X423729D01*
X424000Y90000D01*
X586999Y245001D02*
X587000Y245000D01*
X580001Y245001D02*
X586999D01*
X571174Y245328D02*
X571501Y245001D01*
X567672Y245328D02*
X571174D01*
X561290Y251710D02*
X567672Y245328D01*
X552070Y251710D02*
X561290D01*
X584999Y330001D02*
X591539Y323461D01*
X580001Y330001D02*
X584999D01*
X591539Y317891D02*
X592500Y316930D01*
X591539Y317891D02*
Y323461D01*
D20*
X384060Y99210D02*
D03*
X384060Y104210D02*
D03*
X552070Y246710D02*
D03*
Y236710D02*
D03*
Y241710D02*
D03*
Y256710D02*
D03*
Y316710D02*
D03*
Y311710D02*
D03*
Y306710D02*
D03*
Y301710D02*
D03*
Y296710D02*
D03*
Y291710D02*
D03*
Y286710D02*
D03*
Y281710D02*
D03*
Y276710D02*
D03*
Y271710D02*
D03*
Y266710D02*
D03*
Y261710D02*
D03*
Y251710D02*
D03*
Y231710D02*
D03*
X384060Y109210D02*
D03*
X384060Y94210D02*
D03*
Y89210D02*
D03*
Y84210D02*
D03*
D21*
X178001Y229999D02*
D03*
X178000Y221000D02*
D03*
X189501Y221499D02*
D03*
Y229999D02*
D03*
X201001D02*
D03*
X201000Y221000D02*
D03*
X212501Y221499D02*
D03*
X212501Y229999D02*
D03*
X224001Y221499D02*
D03*
X224001Y229999D02*
D03*
X195001Y53499D02*
D03*
X195001Y44999D02*
D03*
X418000Y383500D02*
D03*
X417999Y374501D02*
D03*
X396500Y206500D02*
D03*
X396501Y215499D02*
D03*
X315000Y383500D02*
D03*
X314999Y374501D02*
D03*
X287000Y206500D02*
D03*
X287001Y215499D02*
D03*
X300000Y206500D02*
D03*
X300001Y215499D02*
D03*
X192000Y355000D02*
D03*
X192000Y363500D02*
D03*
X127769Y225001D02*
D03*
X127769Y233501D02*
D03*
X139499Y225271D02*
D03*
X139499Y233771D02*
D03*
X130000Y186500D02*
D03*
X130001Y195499D02*
D03*
X315500Y197500D02*
D03*
X315499Y188501D02*
D03*
X183000Y203500D02*
D03*
X182999Y194501D02*
D03*
X368500Y196500D02*
D03*
X368501Y205499D02*
D03*
X137000Y363500D02*
D03*
X136999Y354501D02*
D03*
X115500Y225000D02*
D03*
X115501Y233999D02*
D03*
X301000Y46500D02*
D03*
X301001Y55499D02*
D03*
X180000Y355000D02*
D03*
X180000Y363500D02*
D03*
X128269Y426031D02*
D03*
X128269Y434531D02*
D03*
X115569Y426031D02*
D03*
X115569Y434531D02*
D03*
X161001Y53499D02*
D03*
Y44999D02*
D03*
X128001Y53499D02*
D03*
Y44999D02*
D03*
X102869Y426031D02*
D03*
X102869Y434531D02*
D03*
X570000Y370500D02*
D03*
X570001Y379499D02*
D03*
X270800Y422800D02*
D03*
X270801Y431799D02*
D03*
X140971Y434531D02*
D03*
Y426031D02*
D03*
D22*
X177935Y45111D02*
D03*
X145004Y45440D02*
D03*
X110934Y45111D02*
D03*
D23*
X177935Y62891D02*
D03*
X145004Y63220D02*
D03*
X110934Y62891D02*
D03*
D24*
X526070Y214710D02*
D03*
Y333710D02*
D03*
X358060Y67210D02*
D03*
Y126210D02*
D03*
D25*
X243520Y46210D02*
D03*
X278520Y46210D02*
D03*
D26*
X255020Y441200D02*
D03*
Y422400D02*
D03*
X230120D02*
D03*
Y431800D02*
D03*
Y441200D02*
D03*
D27*
X181610Y413010D02*
D03*
Y445510D02*
D03*
D28*
X207010Y414510D02*
D03*
Y444010D02*
D03*
D29*
X124250Y266250D02*
D03*
Y271250D02*
D03*
Y276250D02*
D03*
Y281250D02*
D03*
Y286250D02*
D03*
Y291250D02*
D03*
Y296250D02*
D03*
Y301250D02*
D03*
Y306250D02*
D03*
Y311250D02*
D03*
Y316250D02*
D03*
Y321250D02*
D03*
X204750D02*
D03*
Y316250D02*
D03*
Y311250D02*
D03*
Y306250D02*
D03*
Y301250D02*
D03*
Y296250D02*
D03*
Y291250D02*
D03*
Y286250D02*
D03*
Y281250D02*
D03*
Y276250D02*
D03*
Y271250D02*
D03*
Y266250D02*
D03*
D30*
X137000Y334000D02*
D03*
X142000D02*
D03*
X147000D02*
D03*
X152000D02*
D03*
X157000D02*
D03*
X162000D02*
D03*
X167000D02*
D03*
X172000D02*
D03*
X177000D02*
D03*
X182000D02*
D03*
X187000D02*
D03*
X192000D02*
D03*
Y253500D02*
D03*
X187000D02*
D03*
X182000D02*
D03*
X177000D02*
D03*
X172000D02*
D03*
X167000D02*
D03*
X162000D02*
D03*
X157000D02*
D03*
X152000D02*
D03*
X147000D02*
D03*
X142000D02*
D03*
X137000D02*
D03*
D31*
X270500Y250000D02*
D03*
X279499Y249999D02*
D03*
X580251Y269000D02*
D03*
X571252Y269001D02*
D03*
X580251Y257000D02*
D03*
X571252Y257001D02*
D03*
X448000Y346500D02*
D03*
X439001Y346501D02*
D03*
X448000Y358500D02*
D03*
X439001Y358501D02*
D03*
X571501Y245001D02*
D03*
X580001Y245001D02*
D03*
X571501Y281001D02*
D03*
X580001Y281001D02*
D03*
X571501Y330001D02*
D03*
X580001Y330001D02*
D03*
X102499Y285999D02*
D03*
X93999D02*
D03*
X234500Y321270D02*
D03*
X225501Y321271D02*
D03*
X93770Y266000D02*
D03*
X102769Y265999D02*
D03*
X416499Y78729D02*
D03*
X407999Y78729D02*
D03*
X416499Y89729D02*
D03*
X407999Y89729D02*
D03*
X225501Y276271D02*
D03*
X234001Y276271D02*
D03*
X416500Y101000D02*
D03*
X407501Y101001D02*
D03*
X416500Y112000D02*
D03*
X407501Y112001D02*
D03*
X279499Y262999D02*
D03*
X270999Y262999D02*
D03*
X225501Y252271D02*
D03*
X234001Y252271D02*
D03*
X225501Y264271D02*
D03*
X234001Y264271D02*
D03*
X114499Y407669D02*
D03*
X105999Y407669D02*
D03*
X114499Y383224D02*
D03*
X105999Y383224D02*
D03*
Y371001D02*
D03*
X114499Y371001D02*
D03*
X105999Y395446D02*
D03*
X114499Y395446D02*
D03*
X409499Y464999D02*
D03*
X400999Y464999D02*
D03*
X542500Y414000D02*
D03*
X551499Y413999D02*
D03*
X247070Y457200D02*
D03*
X238071Y457201D02*
D03*
X429499Y464999D02*
D03*
X420999Y464999D02*
D03*
D32*
X301500Y258500D02*
D03*
Y263500D02*
D03*
Y268500D02*
D03*
Y273500D02*
D03*
X301500Y278500D02*
D03*
Y283500D02*
D03*
Y288500D02*
D03*
X301500Y293500D02*
D03*
Y298500D02*
D03*
X301500Y303500D02*
D03*
Y308500D02*
D03*
Y313500D02*
D03*
X301500Y318500D02*
D03*
Y323500D02*
D03*
X301500Y328500D02*
D03*
Y333500D02*
D03*
X416500Y333500D02*
D03*
Y328500D02*
D03*
X416500Y323500D02*
D03*
Y318500D02*
D03*
X416500Y313500D02*
D03*
X416500Y308500D02*
D03*
Y303500D02*
D03*
X416500Y298500D02*
D03*
Y293500D02*
D03*
X416500Y288500D02*
D03*
Y283500D02*
D03*
Y278500D02*
D03*
X416500Y273500D02*
D03*
Y268500D02*
D03*
Y263500D02*
D03*
Y258500D02*
D03*
D33*
X321500Y353500D02*
D03*
X326500D02*
D03*
X331500D02*
D03*
X336500D02*
D03*
X341500D02*
D03*
X346500D02*
D03*
X351500D02*
D03*
X356500D02*
D03*
X361500D02*
D03*
X366500D02*
D03*
X371500D02*
D03*
X376500D02*
D03*
X381500D02*
D03*
X386500D02*
D03*
X391500D02*
D03*
X396500D02*
D03*
X396500Y238500D02*
D03*
X391500D02*
D03*
X386500D02*
D03*
X381500D02*
D03*
X376500D02*
D03*
X371500D02*
D03*
X366500D02*
D03*
X361500D02*
D03*
X356500D02*
D03*
X351500Y238500D02*
D03*
X346500D02*
D03*
X341500Y238500D02*
D03*
X336500D02*
D03*
X331500D02*
D03*
X326500D02*
D03*
X321500D02*
D03*
D34*
X439110Y332270D02*
D03*
X456890D02*
D03*
D35*
X583000Y294250D02*
D03*
X573500Y316930D02*
D03*
X592500D02*
D03*
D36*
X146500Y186000D02*
D03*
X167500D02*
D03*
Y203000D02*
D03*
X146500D02*
D03*
X352000Y206000D02*
D03*
X331000D02*
D03*
Y189000D02*
D03*
X352000Y189000D02*
D03*
D37*
X69320Y394500D02*
D03*
X92000Y404000D02*
D03*
Y385000D02*
D03*
D38*
X364680Y463727D02*
D03*
X361681D02*
D03*
X356679Y463753D02*
D03*
X353680D02*
D03*
X343680Y463708D02*
D03*
X338682Y463730D02*
D03*
X333680Y463712D02*
D03*
X328681Y463727D02*
D03*
X323680Y463712D02*
D03*
X313680D02*
D03*
X308681Y463712D02*
D03*
X305679D02*
D03*
X300680Y463712D02*
D03*
X297680D02*
D03*
X164450Y463727D02*
D03*
X161451D02*
D03*
X156449Y463753D02*
D03*
X153450D02*
D03*
X143449Y463708D02*
D03*
X138452Y463730D02*
D03*
X133450Y463712D02*
D03*
X128451Y463727D02*
D03*
X123450Y463712D02*
D03*
X113450D02*
D03*
X108451Y463712D02*
D03*
X105449D02*
D03*
X100450Y463712D02*
D03*
X97450D02*
D03*
D39*
X348680Y463713D02*
D03*
X318680Y463712D02*
D03*
X148450Y463713D02*
D03*
X118450Y463712D02*
D03*
D40*
X524808Y381000D02*
D03*
D41*
X554000Y396000D02*
D03*
Y366000D02*
D03*
D42*
X549700Y381000D02*
D03*
D43*
X158750Y445643D02*
D03*
Y412877D02*
D03*
D65*
X40300Y524400D02*
D03*
X722800D02*
D03*
Y34000D02*
D03*
X40300D02*
D03*
D71*
X261020Y37210D02*
D03*
Y55210D02*
D03*
D72*
X116421Y425679D02*
G03*
X115569Y426031I-852J-855D01*
G01*
X116423Y425677D02*
G03*
X116421Y425679I-853J-854D01*
G01*
X119656Y419908D02*
G03*
X117863Y424237I-6123J0D01*
G01*
X116423Y425677D02*
G03*
X114499Y421034I4644J-4644D01*
G01*
X127417Y425679D02*
G03*
X127416Y425677I852J-855D01*
G01*
X128269Y426031D02*
G03*
X127417Y425679I0J-1207D01*
G01*
X126035Y424296D02*
G03*
X124300Y420109I4188J-4188D01*
G01*
X156822Y340786D02*
G03*
X157000Y340356I608J0D01*
G01*
X156822Y370046D02*
G03*
X148054Y391213I-29935J0D01*
G01*
X152178Y370001D02*
G03*
X144739Y387962I-25400J0D01*
G01*
X152000Y340356D02*
G03*
X152178Y340786I-430J430D01*
G01*
X119656Y419386D02*
G03*
X124141Y408559I15311J0D01*
G01*
X124300Y419390D02*
G03*
X127434Y411833I10701J10D01*
G01*
X127417Y434883D02*
G03*
X128269Y434531I852J855D01*
G01*
X127416Y434884D02*
G03*
X127417Y434883I854J854D01*
G01*
X124244Y440549D02*
G03*
X126007Y436293I6018J0D01*
G01*
X125155Y451942D02*
G03*
X124244Y449957I1733J-1997D01*
G01*
X138273Y458214D02*
G03*
X138272Y458129I2643J-85D01*
G01*
X134950Y454640D02*
G03*
X138272Y457962I0J3322D01*
G01*
X128628D02*
G03*
X131950Y454640I3322J0D01*
G01*
X116421Y434883D02*
G03*
X116423Y434884I-852J855D01*
G01*
X115569Y434531D02*
G03*
X116421Y434883I0J1207D01*
G01*
X122107Y455446D02*
G03*
X119600Y449959I4781J-5501D01*
G01*
X122115Y455453D02*
G03*
X123271Y457971I-2166J2519D01*
G01*
Y462792D02*
G03*
X123450Y463224I-432J432D01*
G01*
X133273Y469477D02*
G03*
X129951Y472799I-3322J0D01*
G01*
X126951D02*
G03*
X123629Y469477I0J-3322D01*
G01*
X123628Y465092D02*
G03*
X123629Y465173I-2643J82D01*
G01*
X117835Y436296D02*
G03*
X119600Y440558I-4262J4262D01*
G01*
X127836Y456318D02*
G03*
X127603Y455765I2304J-1297D01*
G01*
X125155Y451942D02*
G03*
X127603Y455765I-5206J6030D01*
G01*
X127836Y456318D02*
G03*
X128272Y457962I-2887J1644D01*
G01*
X332770Y455641D02*
G03*
X331678Y453004I2637J-2637D01*
G01*
X323860Y457899D02*
G03*
X327181Y454655I3321J78D01*
G01*
X333858Y463283D02*
G03*
X333680Y463712I-607J0D01*
G01*
X333860Y457980D02*
G03*
X333862Y457860I3322J0D01*
G01*
X330181Y454655D02*
G03*
X333503Y457977I0J3322D01*
G01*
X338502Y469465D02*
G03*
X335180Y472784I-3322J-3D01*
G01*
X338681Y463730D02*
G03*
X338507Y463309I422J-422D01*
G01*
X332180Y472784D02*
G03*
X328858Y469462I0J-3322D01*
G01*
X337414Y453717D02*
G03*
X338507Y456354I-2637J2637D01*
G01*
X337414Y453717D02*
G03*
X336322Y451080I2637J-2637D01*
G01*
X333088Y455959D02*
G03*
X333862Y457828I-1870J1870D01*
G01*
X116421Y425679D02*
X116423Y425677D01*
X117863Y424237D01*
X114499Y407669D02*
Y421034D01*
X127416Y425677D02*
X127417Y425679D01*
X126035Y424296D02*
X127416Y425677D01*
X124300Y419390D02*
Y420109D01*
X156822Y340786D02*
Y370046D01*
X157000Y334000D02*
Y340356D01*
X127434Y411833D02*
X148054Y391213D01*
X119656Y419386D02*
Y419908D01*
X152178Y340786D02*
Y370001D01*
X124141Y408559D02*
X144739Y387962D01*
X152000Y334000D02*
Y340356D01*
X127416Y434884D02*
X127417Y434883D01*
X126007Y436293D02*
X127416Y434884D01*
X124244Y440549D02*
Y449957D01*
X138273Y458214D02*
X138308Y459302D01*
X138272Y457962D02*
Y458129D01*
X131950Y454640D02*
X134950D01*
X128628Y457962D02*
Y459299D01*
X116423Y434884D02*
X117835Y436296D01*
X116421Y434883D02*
X116423Y434884D01*
X122107Y455446D02*
X122115Y455453D01*
X123271Y462792D02*
Y462792D01*
Y457971D02*
Y462792D01*
X133273Y468140D02*
Y469477D01*
X126951Y472799D02*
X129951D01*
X123629Y465173D02*
Y469477D01*
X123450Y463712D02*
X123628Y465092D01*
X119600Y440558D02*
Y449959D01*
X128272Y457962D02*
Y460245D01*
X128273Y460245D01*
X123450Y463224D02*
Y463712D01*
X128273Y460245D02*
X128450Y460421D01*
Y463727D01*
X138308Y459302D02*
X138451Y463730D01*
X128450Y463727D02*
X128628Y459299D01*
X133273Y468140D02*
X133450Y463712D01*
X332770Y455641D02*
X333088Y455959D01*
X331678Y353500D02*
Y453004D01*
X327181Y454655D02*
X330181D01*
X323827Y459284D02*
X323860Y457899D01*
X333862Y457828D02*
Y457860D01*
X333860Y457980D02*
Y458926D01*
X333858Y458928D02*
Y463283D01*
X333503Y459284D02*
X333680Y463712D01*
X333503Y457977D02*
Y459284D01*
X323680Y463712D02*
X323827Y459284D01*
X332180Y472784D02*
X335180D01*
X338507Y456354D02*
Y463309D01*
X338504Y468158D02*
X338681Y463730D01*
X328858Y468155D02*
Y469462D01*
X338502Y469465D02*
X338504Y468158D01*
X328680Y463727D02*
X328858Y468155D01*
X336322Y353500D02*
Y451080D01*
X333858Y458928D02*
X333860Y458926D01*
X336322Y353500D02*
X336500D01*
X331500D02*
X331678D01*
D73*
X347000Y383000D02*
D03*
X359000D02*
D03*
X383000D02*
D03*
X371000D02*
D03*
D74*
X347000Y374200D02*
D03*
X359000D02*
D03*
X383000D02*
D03*
X371000D02*
D03*
D75*
X271200Y275000D02*
D03*
D76*
X280000D02*
D03*
D77*
X103070Y311000D02*
D03*
D78*
X94270D02*
D03*
D79*
X207010Y402531D02*
X208500Y401041D01*
Y400500D02*
Y401041D01*
X207010Y402531D02*
Y414510D01*
X353680Y463753D02*
Y470820D01*
Y463753D02*
X356680D01*
X305680Y463712D02*
X308680D01*
X316000Y478000D02*
X346500D01*
X353680Y470820D01*
X308680Y470680D02*
X316000Y478000D01*
X308680Y463712D02*
Y470680D01*
X384060Y109210D02*
X396210D01*
X399000Y112000D01*
X448000Y346500D02*
X455500D01*
X448000Y358500D02*
X455500D01*
X455500Y358500D01*
X456890Y332270D02*
X468270D01*
X468500Y332500D01*
X439001Y346501D02*
Y358501D01*
Y346501D02*
X439110Y346392D01*
Y332270D02*
Y346392D01*
X416500Y318500D02*
X426000D01*
X416500D02*
X416500D01*
Y313500D02*
Y318500D01*
X426000D02*
X428000Y320500D01*
Y330000D02*
X430270Y332270D01*
X428000Y320500D02*
Y330000D01*
X430270Y332270D02*
X439110D01*
X270800Y415200D02*
Y422800D01*
Y415200D02*
X271000Y415000D01*
X541000Y231500D02*
X545421D01*
X545631Y231710D02*
X552070D01*
X545421Y231500D02*
X545631Y231710D01*
X541000Y266500D02*
X541210Y266710D01*
X552070D01*
X562790Y296710D02*
X563000Y296500D01*
X552070Y296710D02*
X562790D01*
X541000Y291500D02*
X541210Y291710D01*
X552070D01*
Y286710D02*
X562710D01*
X563000Y287000D01*
X541210Y281710D02*
X552070D01*
X541000Y281500D02*
X541210Y281710D01*
X416500Y101000D02*
X424000D01*
X416500Y112000D02*
X424000D01*
X407501Y101001D02*
Y112001D01*
X399000Y112000D02*
X399001Y112001D01*
X407501D01*
X535000Y414000D02*
X542500D01*
X554000Y366000D02*
X554000Y366000D01*
Y359000D02*
Y366000D01*
X578000Y370500D02*
X578000Y370500D01*
X570000Y370500D02*
X578000D01*
X561500Y367500D02*
X564500Y370500D01*
X570000D01*
X554000Y366000D02*
X555500Y367500D01*
X561500D01*
X580251Y257000D02*
X587500D01*
X580251Y269000D02*
X587500D01*
X571252Y257001D02*
Y269001D01*
X563500Y269500D02*
X570752D01*
X571252Y269001D01*
X552070Y271710D02*
X560749D01*
X562959Y269500D01*
X563500D01*
X566819Y280819D02*
X571319D01*
X562710Y276710D02*
X566819Y280819D01*
X571319D02*
X571501Y281001D01*
X552070Y276710D02*
X562710D01*
X581001Y282001D02*
X583000Y284000D01*
X580001Y281501D02*
X580501Y282001D01*
X583000Y284000D02*
Y294250D01*
X580501Y282001D02*
X581001D01*
X580001Y281001D02*
Y281501D01*
X564001Y330001D02*
X571501D01*
X564000Y330000D02*
X564001Y330001D01*
X573500Y316930D02*
Y327502D01*
X571501Y329501D02*
X573500Y327502D01*
X571501Y329501D02*
Y330001D01*
X240400Y423995D02*
Y438200D01*
X238643Y422237D02*
X240400Y423995D01*
X230283Y422237D02*
X238643D01*
X230120Y422400D02*
X230283Y422237D01*
X105450Y463712D02*
X108450D01*
X153450Y463753D02*
Y471150D01*
X146300Y478300D02*
X153450Y471150D01*
X115500Y478300D02*
X146300D01*
X108450Y471250D02*
X115500Y478300D01*
X108450Y463712D02*
Y471250D01*
D80*
X219300Y431800D02*
X230120D01*
X219000Y431500D02*
X219300Y431800D01*
D81*
X64000Y333100D02*
D03*
Y307700D02*
D03*
Y282300D02*
D03*
D82*
Y256900D02*
D03*
X414000Y499000D02*
D03*
D83*
X360079Y476712D02*
D03*
X302279D02*
D03*
X159849D02*
D03*
X102049D02*
D03*
D84*
X376180Y513212D02*
D03*
X286179Y513212D02*
D03*
X175950Y513212D02*
D03*
X85949Y513212D02*
D03*
D85*
X286181Y471712D02*
D03*
X376181Y471712D02*
D03*
X85951Y471712D02*
D03*
X175951Y471712D02*
D03*
D86*
X315500Y216000D02*
D03*
X326500Y219000D02*
D03*
X336000D02*
D03*
X341500Y175500D02*
D03*
X352000D02*
D03*
X364500Y177000D02*
D03*
X318500D02*
D03*
X330500Y175500D02*
D03*
X336000Y228000D02*
D03*
X352000Y219000D02*
D03*
X361000D02*
D03*
X378000Y195000D02*
D03*
X368500Y214000D02*
D03*
X352000Y228000D02*
D03*
X378000Y206000D02*
D03*
X614000Y282000D02*
D03*
X396500Y162000D02*
D03*
X377500Y144500D02*
D03*
X343000Y128500D02*
D03*
Y111500D02*
D03*
X250000Y513000D02*
D03*
X227500Y488500D02*
D03*
X201000Y489000D02*
D03*
X467000Y464500D02*
D03*
X494000Y451500D02*
D03*
X527000Y511500D02*
D03*
X566000Y472500D02*
D03*
X611500Y418500D02*
D03*
X610000Y353000D02*
D03*
X614500Y217000D02*
D03*
X582500Y156000D02*
D03*
X527500Y98500D02*
D03*
X475500Y58000D02*
D03*
X413000Y59000D02*
D03*
X485500Y164500D02*
D03*
X454000Y136000D02*
D03*
X413500Y135000D02*
D03*
X520500Y279000D02*
D03*
X503500Y239000D02*
D03*
X481500Y290000D02*
D03*
X447000D02*
D03*
X472000Y250000D02*
D03*
X441500Y250500D02*
D03*
X104000Y342000D02*
D03*
X251000Y294000D02*
D03*
X271000Y313000D02*
D03*
X270000Y354500D02*
D03*
X243500Y381000D02*
D03*
X173000Y385000D02*
D03*
X228500Y338000D02*
D03*
X212500Y353000D02*
D03*
X255000Y457000D02*
D03*
X396500Y225500D02*
D03*
X388000Y228000D02*
D03*
X324500Y365000D02*
D03*
X369500Y106000D02*
D03*
X369586Y98796D02*
D03*
X352500Y109500D02*
D03*
X352000Y103000D02*
D03*
X367500Y338500D02*
D03*
X373500Y332500D02*
D03*
X368500Y188500D02*
D03*
X354500Y328500D02*
D03*
X364500D02*
D03*
X437000Y465000D02*
D03*
X605000Y317000D02*
D03*
X428000Y284500D02*
D03*
X427500Y308500D02*
D03*
X418000Y366000D02*
D03*
X455500Y346500D02*
D03*
Y358500D02*
D03*
X468500Y332500D02*
D03*
X405000Y328500D02*
D03*
X418000Y391500D02*
D03*
X383000Y390500D02*
D03*
X347000D02*
D03*
X315000Y391500D02*
D03*
Y365000D02*
D03*
X313500Y453000D02*
D03*
X343692Y452926D02*
D03*
X371000Y390500D02*
D03*
X359000D02*
D03*
X312500Y293500D02*
D03*
Y283500D02*
D03*
X263000Y250000D02*
D03*
X241500Y264000D02*
D03*
X288000Y251500D02*
D03*
X241500Y252500D02*
D03*
X351500Y265500D02*
D03*
Y257500D02*
D03*
X396500Y199000D02*
D03*
X301000Y63500D02*
D03*
X231000Y46000D02*
D03*
X291500Y46500D02*
D03*
X351500Y249500D02*
D03*
X178000Y79000D02*
D03*
X326500Y249500D02*
D03*
X315500Y206500D02*
D03*
X287000Y199000D02*
D03*
X300000D02*
D03*
Y223500D02*
D03*
X144500Y347000D02*
D03*
X218000Y313000D02*
D03*
X217000Y301000D02*
D03*
X289500Y263500D02*
D03*
X271000Y415000D02*
D03*
X219000Y431500D02*
D03*
X218000Y400500D02*
D03*
X208500D02*
D03*
X199000D02*
D03*
X167000Y318000D02*
D03*
X145000Y80000D02*
D03*
X195000Y61500D02*
D03*
X161000Y62000D02*
D03*
X111000Y79500D02*
D03*
X128000Y62000D02*
D03*
X216000Y321500D02*
D03*
X137000Y345000D02*
D03*
X140000Y316500D02*
D03*
X122000Y371000D02*
D03*
X86500Y311000D02*
D03*
Y286000D02*
D03*
X112000Y274000D02*
D03*
X86500Y266000D02*
D03*
X112000D02*
D03*
X115500Y243000D02*
D03*
X119500Y196000D02*
D03*
X130000Y177000D02*
D03*
X115500Y217500D02*
D03*
X128000D02*
D03*
X139500Y217000D02*
D03*
X119500Y185500D02*
D03*
X140000Y171000D02*
D03*
X157000D02*
D03*
X173500D02*
D03*
X194000Y193000D02*
D03*
Y204000D02*
D03*
X224000Y213500D02*
D03*
X212500D02*
D03*
X201000D02*
D03*
X179000Y213000D02*
D03*
X189500Y214000D02*
D03*
X177000Y269000D02*
D03*
X173000Y240000D02*
D03*
X168000Y217500D02*
D03*
Y228000D02*
D03*
X151000Y217500D02*
D03*
Y228000D02*
D03*
X151500Y239000D02*
D03*
X183000Y186000D02*
D03*
X130000Y203000D02*
D03*
X242000Y321500D02*
D03*
X137000Y371000D02*
D03*
X122000Y383500D02*
D03*
Y395500D02*
D03*
X60000Y394500D02*
D03*
X140971Y418029D02*
D03*
X103000Y418500D02*
D03*
X541000Y231500D02*
D03*
Y266500D02*
D03*
X563000Y296500D02*
D03*
X541000Y291500D02*
D03*
X563000Y287000D02*
D03*
X541000Y281500D02*
D03*
X424000Y79000D02*
D03*
Y90000D02*
D03*
Y101000D02*
D03*
Y112000D02*
D03*
X399000D02*
D03*
X535000Y414000D02*
D03*
X554000Y359000D02*
D03*
X578000Y370500D02*
D03*
X587000Y245000D02*
D03*
X587500Y257000D02*
D03*
Y269000D02*
D03*
X563500Y269500D02*
D03*
X564000Y330000D02*
D03*
X533000Y365000D02*
D03*
Y355000D02*
D03*
X523000Y365000D02*
D03*
Y355000D02*
D03*
X513000D02*
D03*
Y365000D02*
D03*
X238000Y469000D02*
D03*
X227000D02*
D03*
X216000D02*
D03*
X205000Y458000D02*
D03*
X216000D02*
D03*
X279000Y433000D02*
D03*
X288000D02*
D03*
Y443000D02*
D03*
X277000D02*
D03*
X267000D02*
D03*
X255000Y433000D02*
D03*
X582000Y400000D02*
D03*
X572000D02*
D03*
X562000Y410000D02*
D03*
X572000D02*
D03*
X582000D02*
D03*
Y420000D02*
D03*
X572000D02*
D03*
X562000D02*
D03*
X227000Y458000D02*
D03*
M02*
