M48
;Layer_Color=9474304
;FILE_FORMAT=4:4
METRIC,LZ
;TYPE=PLATED
T01F00S00C0.3000
T02F00S00C0.7000
T05F00S00C0.9000
T06F00S00C1.0000
;TYPE=NON_PLATED
T07F00S00C0.7500
%
T01
X00128Y00062
X00161
X00178Y00079
X00145Y0008
X00111Y000795
X001195Y001855
Y00196
X0013Y00203
X00128Y002175
X001395Y00217
X00151Y002175
Y00228
X001515Y00239
X00173Y0024
X00168Y00228
Y002175
X00179Y00213
X001895Y00214
X00183Y00186
X001735Y00171
X00157
X0014
X0013Y00177
X001155Y002175
Y00243
X00112Y00266
Y00274
X000865Y00266
Y00286
Y00311
X00104Y00342
X00137Y00345
X001445Y00347
X0014Y003165
X00167Y00318
X00177Y00269
X002415Y00264
Y002525
X00263Y0025
X00288Y002515
X002895Y002635
X003125Y002835
Y002935
X003265Y002495
X003515
Y002575
Y002655
X00352Y00228
Y00219
X00361
X003685Y00214
X00378Y00206
Y00195
X003685Y001885
X003645Y00177
X00352Y001755
X003415
X003305
X003185Y00177
X003155Y002065
Y00216
X003265Y00219
X00336
Y00228
X003Y002235
Y00199
X00287
X00224Y002135
X002125
X00201
X00194Y00204
Y00193
X00217Y00301
X00218Y00313
X00216Y003215
X00242
X002285Y00338
X002125Y00353
X0027Y003545
X00271Y00313
X00251Y00294
X003545Y003285
X003645
X003675Y003385
X003735Y003325
X00405Y003285
X004275Y003085
X00428Y002845
X00447Y0029
X004815
X00472Y0025
X004415Y002505
X003965Y002255
X00388Y00228
X003965Y00199
Y00162
X003775Y001445
X004135Y00135
X00424Y00112
Y00101
Y0009
Y00079
X00413Y00059
X004755Y00058
X005275Y000985
X004855Y001645
X00454Y00136
X00399Y00112
X003695Y00106
X00369586Y00098796
X00352Y00103
X003525Y001095
X00343Y001115
Y001285
X00301Y000635
X002915Y000465
X00231Y00046
X00195Y000615
X005825Y00156
X00587Y00245
X005875Y00257
Y00269
X005635Y002695
X00563Y00287
Y002965
X00541Y002915
Y002815
Y002665
X005205Y00279
X005035Y00239
X00541Y002315
X00564Y0033
X00533Y00355
X00523
X00513
X004555Y003465
X004685Y003325
X00605Y00317
X0061Y00353
X00614Y00282
X006145Y00217
X006115Y004185
X00582Y0042
Y0041
Y004
X00572
Y0041
X00562
Y0042
X00572
X00535Y00414
X00533Y00365
X00523
X00513
X00554Y00359
X00578Y003705
X00566Y004725
X00527Y005115
X00494Y004515
X00467Y004645
X00437Y00465
X00418Y003915
Y00366
X004555Y003585
X00383Y003905
X00371
X00359
X00347
X00315Y003915
Y00365
X003245
X002435Y00381
X00218Y004005
X002085
X00199
X00219Y004315
X00216Y00458
Y00469
X00227
X00238
X00227Y00458
X00205
X00201Y00489
X002275Y004885
X0025Y00513
X00255Y00457
Y00433
X00267Y00443
X00277
X00288
Y00433
X00279
X00271Y00415
X003135Y00453
X00343692Y00452926
X00140971Y00418029
X00103Y004185
X00122Y003955
Y003835
Y00371
X00137
X00173Y00385
X0006Y003945
T02
X0026102Y0003721
Y0005521
T05
X00064Y002569
Y002823
Y003077
Y003331
T06
X000403Y00034
X007228
Y005244
X00414Y00499
X000403Y005244
T07
X00302279Y00476712
X00360079
X00159849
X00102049
M30
