G04*
G04 #@! TF.GenerationSoftware,Altium Limited,Altium Designer,23.8.1 (32)*
G04*
G04 Layer_Color=16711935*
%FSLAX44Y44*%
%MOMM*%
G71*
G04*
G04 #@! TF.SameCoordinates,D96BB530-8D29-4B5F-9446-CCACF09A0524*
G04*
G04*
G04 #@! TF.FilePolarity,Positive*
G04*
G01*
G75*
%ADD10C,0.2000*%
G36*
X358894Y302023D02*
X358889D01*
X358880D01*
X358866D01*
X358848D01*
X358820D01*
X358792Y302028D01*
X358718Y302033D01*
X358639Y302042D01*
X358547Y302056D01*
X358450Y302079D01*
X358353Y302111D01*
X358348D01*
X358334Y302120D01*
X358311Y302130D01*
X358279Y302143D01*
X358237Y302157D01*
X358191Y302181D01*
X358140Y302208D01*
X358085Y302236D01*
X358020Y302268D01*
X357955Y302310D01*
X357812Y302398D01*
X357659Y302504D01*
X357502Y302629D01*
X357498Y302634D01*
X357484Y302647D01*
X357461Y302666D01*
X357428Y302694D01*
X357387Y302731D01*
X357341Y302777D01*
X357285Y302828D01*
X357225Y302892D01*
X357156Y302962D01*
X357082Y303036D01*
X357003Y303119D01*
X356915Y303211D01*
X356827Y303313D01*
X356735Y303419D01*
X356638Y303535D01*
X356536Y303655D01*
X356531Y303660D01*
X356527Y303669D01*
X356513Y303683D01*
X356499Y303701D01*
X356476Y303724D01*
X356453Y303752D01*
X356393Y303822D01*
X356324Y303909D01*
X356236Y304002D01*
X356143Y304108D01*
X356041Y304219D01*
X355935Y304339D01*
X355824Y304455D01*
X355713Y304575D01*
X355598Y304686D01*
X355487Y304797D01*
X355380Y304894D01*
X355274Y304987D01*
X355177Y305061D01*
X355172Y305065D01*
X355154Y305074D01*
X355126Y305093D01*
X355094Y305121D01*
X355048Y305148D01*
X354997Y305176D01*
X354937Y305213D01*
X354872Y305245D01*
X354803Y305278D01*
X354729Y305315D01*
X354567Y305375D01*
X354484Y305398D01*
X354400Y305417D01*
X354317Y305426D01*
X354234Y305430D01*
X354229D01*
X354211D01*
X354188D01*
X354155Y305426D01*
X354114Y305421D01*
X354068Y305412D01*
X354017Y305403D01*
X353961Y305389D01*
X353901Y305370D01*
X353836Y305347D01*
X353772Y305319D01*
X353707Y305287D01*
X353638Y305250D01*
X353573Y305204D01*
X353508Y305153D01*
X353448Y305093D01*
X353443Y305088D01*
X353434Y305079D01*
X353420Y305061D01*
X353397Y305033D01*
X353374Y305000D01*
X353346Y304959D01*
X353314Y304913D01*
X353286Y304862D01*
X353254Y304802D01*
X353226Y304737D01*
X353199Y304663D01*
X353175Y304589D01*
X353152Y304506D01*
X353138Y304418D01*
X353129Y304326D01*
X353125Y304228D01*
Y304173D01*
X353129Y304136D01*
X353134Y304085D01*
X353143Y304030D01*
X353152Y303969D01*
X353166Y303900D01*
X353185Y303831D01*
X353208Y303757D01*
X353236Y303683D01*
X353268Y303604D01*
X353309Y303530D01*
X353356Y303456D01*
X353406Y303382D01*
X353467Y303318D01*
X353471Y303313D01*
X353480Y303304D01*
X353504Y303285D01*
X353527Y303267D01*
X353564Y303239D01*
X353605Y303211D01*
X353656Y303179D01*
X353712Y303151D01*
X353772Y303119D01*
X353846Y303087D01*
X353920Y303059D01*
X354003Y303031D01*
X354095Y303013D01*
X354192Y302994D01*
X354294Y302985D01*
X354405Y302980D01*
X354322Y302171D01*
X354317D01*
X354313D01*
X354299Y302176D01*
X354280D01*
X354234Y302181D01*
X354174Y302194D01*
X354100Y302208D01*
X354012Y302227D01*
X353915Y302250D01*
X353813Y302278D01*
X353702Y302315D01*
X353591Y302356D01*
X353476Y302407D01*
X353360Y302467D01*
X353249Y302532D01*
X353143Y302610D01*
X353041Y302694D01*
X352949Y302791D01*
X352944Y302795D01*
X352930Y302814D01*
X352903Y302846D01*
X352875Y302888D01*
X352838Y302943D01*
X352796Y303008D01*
X352755Y303087D01*
X352709Y303174D01*
X352667Y303276D01*
X352625Y303382D01*
X352584Y303503D01*
X352547Y303632D01*
X352514Y303771D01*
X352491Y303919D01*
X352477Y304076D01*
X352473Y304242D01*
Y304284D01*
X352477Y304330D01*
X352482Y304395D01*
X352487Y304473D01*
X352500Y304561D01*
X352514Y304663D01*
X352537Y304769D01*
X352565Y304885D01*
X352598Y305000D01*
X352639Y305125D01*
X352690Y305245D01*
X352750Y305366D01*
X352815Y305481D01*
X352893Y305592D01*
X352986Y305699D01*
X352990Y305703D01*
X353009Y305722D01*
X353037Y305749D01*
X353078Y305782D01*
X353125Y305823D01*
X353185Y305870D01*
X353254Y305920D01*
X353332Y305971D01*
X353420Y306017D01*
X353517Y306068D01*
X353624Y306115D01*
X353735Y306156D01*
X353855Y306189D01*
X353980Y306216D01*
X354114Y306235D01*
X354253Y306239D01*
X354257D01*
X354271D01*
X354290D01*
X354317D01*
X354354Y306235D01*
X354391Y306230D01*
X354437Y306225D01*
X354488Y306221D01*
X354604Y306202D01*
X354733Y306175D01*
X354867Y306133D01*
X355006Y306082D01*
X355011D01*
X355024Y306073D01*
X355043Y306064D01*
X355071Y306050D01*
X355103Y306036D01*
X355145Y306013D01*
X355191Y305990D01*
X355242Y305957D01*
X355297Y305925D01*
X355357Y305888D01*
X355491Y305796D01*
X355561Y305745D01*
X355635Y305689D01*
X355709Y305625D01*
X355787Y305560D01*
X355792Y305555D01*
X355806Y305541D01*
X355829Y305523D01*
X355861Y305490D01*
X355903Y305449D01*
X355954Y305398D01*
X356014Y305343D01*
X356083Y305273D01*
X356157Y305195D01*
X356240Y305102D01*
X356333Y305005D01*
X356434Y304894D01*
X356541Y304774D01*
X356656Y304645D01*
X356781Y304501D01*
X356911Y304349D01*
X356915Y304339D01*
X356938Y304316D01*
X356966Y304284D01*
X357008Y304238D01*
X357054Y304178D01*
X357109Y304118D01*
X357169Y304048D01*
X357234Y303974D01*
X357368Y303817D01*
X357438Y303743D01*
X357502Y303669D01*
X357567Y303600D01*
X357622Y303540D01*
X357673Y303484D01*
X357720Y303442D01*
X357729Y303433D01*
X357757Y303410D01*
X357798Y303373D01*
X357849Y303327D01*
X357914Y303276D01*
X357983Y303221D01*
X358062Y303165D01*
X358140Y303114D01*
Y306249D01*
X358894D01*
Y302023D01*
D02*
G37*
G36*
X356351Y301025D02*
X356434D01*
X356527Y301020D01*
X356633Y301011D01*
X356744Y301002D01*
X356864Y300988D01*
X356989Y300974D01*
X357243Y300937D01*
X357373Y300909D01*
X357493Y300882D01*
X357613Y300844D01*
X357724Y300808D01*
X357729Y300803D01*
X357747Y300798D01*
X357780Y300784D01*
X357817Y300766D01*
X357868Y300738D01*
X357923Y300711D01*
X357983Y300674D01*
X358052Y300627D01*
X358126Y300576D01*
X358200Y300521D01*
X358274Y300456D01*
X358353Y300382D01*
X358432Y300304D01*
X358506Y300221D01*
X358579Y300123D01*
X358649Y300022D01*
X358653Y300017D01*
X358663Y299994D01*
X358681Y299962D01*
X358704Y299920D01*
X358732Y299860D01*
X358760Y299795D01*
X358792Y299712D01*
X358824Y299624D01*
X358857Y299518D01*
X358889Y299407D01*
X358917Y299287D01*
X358945Y299153D01*
X358968Y299009D01*
X358986Y298857D01*
X358996Y298700D01*
X359000Y298528D01*
Y298441D01*
X358996Y298381D01*
X358991Y298302D01*
X358982Y298214D01*
X358972Y298113D01*
X358963Y298006D01*
X358945Y297891D01*
X358926Y297770D01*
X358898Y297650D01*
X358871Y297525D01*
X358834Y297405D01*
X358792Y297280D01*
X358746Y297165D01*
X358690Y297054D01*
X358686Y297049D01*
X358676Y297031D01*
X358658Y296998D01*
X358635Y296961D01*
X358602Y296915D01*
X358561Y296860D01*
X358515Y296804D01*
X358464Y296740D01*
X358404Y296675D01*
X358334Y296605D01*
X358265Y296536D01*
X358182Y296471D01*
X358099Y296407D01*
X358002Y296346D01*
X357905Y296291D01*
X357798Y296240D01*
X357789Y296236D01*
X357770Y296231D01*
X357738Y296217D01*
X357692Y296203D01*
X357632Y296185D01*
X357558Y296166D01*
X357475Y296143D01*
X357378Y296120D01*
X357267Y296097D01*
X357146Y296074D01*
X357017Y296055D01*
X356874Y296037D01*
X356721Y296023D01*
X356555Y296009D01*
X356379Y296005D01*
X356194Y296000D01*
X352496D01*
Y296846D01*
X356189D01*
X356199D01*
X356226D01*
X356268D01*
X356324Y296850D01*
X356393D01*
X356471Y296855D01*
X356559Y296860D01*
X356656Y296864D01*
X356753Y296873D01*
X356855Y296883D01*
X357058Y296910D01*
X357156Y296929D01*
X357253Y296947D01*
X357341Y296971D01*
X357419Y296998D01*
X357424D01*
X357438Y297008D01*
X357456Y297017D01*
X357484Y297031D01*
X357516Y297045D01*
X357553Y297068D01*
X357641Y297123D01*
X357738Y297197D01*
X357789Y297239D01*
X357840Y297290D01*
X357891Y297341D01*
X357937Y297400D01*
X357983Y297461D01*
X358025Y297530D01*
Y297535D01*
X358034Y297549D01*
X358043Y297567D01*
X358057Y297599D01*
X358075Y297636D01*
X358094Y297678D01*
X358112Y297729D01*
X358131Y297789D01*
X358149Y297854D01*
X358168Y297923D01*
X358186Y297997D01*
X358205Y298080D01*
X358219Y298168D01*
X358228Y298260D01*
X358233Y298353D01*
X358237Y298454D01*
Y298496D01*
X358233Y298542D01*
Y298607D01*
X358223Y298686D01*
X358214Y298769D01*
X358200Y298866D01*
X358186Y298972D01*
X358163Y299079D01*
X358136Y299190D01*
X358099Y299300D01*
X358062Y299412D01*
X358011Y299518D01*
X357955Y299615D01*
X357891Y299707D01*
X357817Y299786D01*
X357812Y299790D01*
X357798Y299804D01*
X357770Y299823D01*
X357733Y299846D01*
X357683Y299878D01*
X357618Y299911D01*
X357544Y299948D01*
X357452Y299985D01*
X357350Y300022D01*
X357234Y300059D01*
X357100Y300091D01*
X356952Y300123D01*
X356786Y300147D01*
X356605Y300165D01*
X356407Y300179D01*
X356189Y300184D01*
X352496D01*
Y301029D01*
X356194D01*
X356199D01*
X356203D01*
X356217D01*
X356236D01*
X356259D01*
X356287D01*
X356351Y301025D01*
D02*
G37*
D10*
X294500Y231500D02*
X423500D01*
Y360500D01*
X294500D02*
X423500D01*
X294500Y231500D02*
Y360500D01*
M02*
