G04*
G04 #@! TF.GenerationSoftware,Altium Limited,Altium Designer,23.8.1 (32)*
G04*
G04 Layer_Color=8421504*
%FSLAX44Y44*%
%MOMM*%
G71*
G04*
G04 #@! TF.SameCoordinates,D96BB530-8D29-4B5F-9446-CCACF09A0524*
G04*
G04*
G04 #@! TF.FilePolarity,Positive*
G04*
G01*
G75*
G04:AMPARAMS|DCode=20|XSize=0.3mm|YSize=1.5mm|CornerRadius=0.075mm|HoleSize=0mm|Usage=FLASHONLY|Rotation=90.000|XOffset=0mm|YOffset=0mm|HoleType=Round|Shape=RoundedRectangle|*
%AMROUNDEDRECTD20*
21,1,0.3000,1.3500,0,0,90.0*
21,1,0.1500,1.5000,0,0,90.0*
1,1,0.1500,0.6750,0.0750*
1,1,0.1500,0.6750,-0.0750*
1,1,0.1500,-0.6750,-0.0750*
1,1,0.1500,-0.6750,0.0750*
%
%ADD20ROUNDEDRECTD20*%
%ADD21R,0.5000X0.4000*%
%ADD22R,0.8890X1.2700*%
G04:AMPARAMS|DCode=23|XSize=1.27mm|YSize=0.889mm|CornerRadius=0mm|HoleSize=0mm|Usage=FLASHONLY|Rotation=90.000|XOffset=0mm|YOffset=0mm|HoleType=Round|Shape=Octagon|*
%AMOCTAGOND23*
4,1,8,0.2223,0.6350,-0.2223,0.6350,-0.4445,0.4128,-0.4445,-0.4128,-0.2223,-0.6350,0.2223,-0.6350,0.4445,-0.4128,0.4445,0.4128,0.2223,0.6350,0.0*
%
%ADD23OCTAGOND23*%

G04:AMPARAMS|DCode=24|XSize=2mm|YSize=1.5mm|CornerRadius=0.375mm|HoleSize=0mm|Usage=FLASHONLY|Rotation=90.000|XOffset=0mm|YOffset=0mm|HoleType=Round|Shape=RoundedRectangle|*
%AMROUNDEDRECTD24*
21,1,2.0000,0.7500,0,0,90.0*
21,1,1.2500,1.5000,0,0,90.0*
1,1,0.7500,0.3750,0.6250*
1,1,0.7500,0.3750,-0.6250*
1,1,0.7500,-0.3750,-0.6250*
1,1,0.7500,-0.3750,0.6250*
%
%ADD24ROUNDEDRECTD24*%
G04:AMPARAMS|DCode=25|XSize=1.2mm|YSize=1.5mm|CornerRadius=0.3mm|HoleSize=0mm|Usage=FLASHONLY|Rotation=0.000|XOffset=0mm|YOffset=0mm|HoleType=Round|Shape=RoundedRectangle|*
%AMROUNDEDRECTD25*
21,1,1.2000,0.9000,0,0,0.0*
21,1,0.6000,1.5000,0,0,0.0*
1,1,0.6000,0.3000,-0.4500*
1,1,0.6000,-0.3000,-0.4500*
1,1,0.6000,-0.3000,0.4500*
1,1,0.6000,0.3000,0.4500*
%
%ADD25ROUNDEDRECTD25*%
G04:AMPARAMS|DCode=26|XSize=1.22mm|YSize=0.65mm|CornerRadius=0.0813mm|HoleSize=0mm|Usage=FLASHONLY|Rotation=180.000|XOffset=0mm|YOffset=0mm|HoleType=Round|Shape=RoundedRectangle|*
%AMROUNDEDRECTD26*
21,1,1.2200,0.4875,0,0,180.0*
21,1,1.0575,0.6500,0,0,180.0*
1,1,0.1625,-0.5288,0.2438*
1,1,0.1625,0.5288,0.2438*
1,1,0.1625,0.5288,-0.2438*
1,1,0.1625,-0.5288,-0.2438*
%
%ADD26ROUNDEDRECTD26*%
%ADD27R,1.8000X0.8500*%
%ADD28R,1.2000X1.3500*%
%ADD29O,1.5500X0.2500*%
%ADD30O,0.2500X1.5500*%
%ADD31R,0.4000X0.5000*%
%ADD32R,1.2000X0.3000*%
%ADD33R,0.3000X1.2000*%
%ADD34R,0.8890X0.8890*%
%ADD35R,0.4500X1.0000*%
%ADD36R,1.3000X1.2000*%
%ADD37R,1.0000X0.4500*%
%ADD38R,0.3000X1.1500*%
%ADD39R,0.2997X1.1481*%
G04:AMPARAMS|DCode=40|XSize=1.8mm|YSize=3mm|CornerRadius=0mm|HoleSize=0mm|Usage=FLASHONLY|Rotation=270.000|XOffset=0mm|YOffset=0mm|HoleType=Round|Shape=Octagon|*
%AMOCTAGOND40*
4,1,8,1.5000,0.4500,1.5000,-0.4500,1.0500,-0.9000,-1.0500,-0.9000,-1.5000,-0.4500,-1.5000,0.4500,-1.0500,0.9000,1.0500,0.9000,1.5000,0.4500,0.0*
%
%ADD40OCTAGOND40*%

%ADD41R,1.2000X0.6000*%
%ADD42R,2.1000X0.6000*%
%ADD43R,1.2190X0.9140*%
G36*
X349750Y380600D02*
X347000Y377850D01*
X344250Y380600D01*
Y385400D01*
X349750D01*
Y380600D01*
D02*
G37*
G36*
X347100Y376600D02*
X349750Y379250D01*
Y371800D01*
X344250D01*
Y379450D01*
X347100Y376600D01*
D02*
G37*
G36*
X105470Y308250D02*
X100670D01*
X97920Y311000D01*
X100670Y313750D01*
X105470D01*
Y308250D01*
D02*
G37*
G36*
X96670Y310900D02*
X99320Y308250D01*
X91870D01*
Y313750D01*
X99520D01*
X96670Y310900D01*
D02*
G37*
G36*
X282400Y272250D02*
X274750D01*
X277600Y275100D01*
X274950Y277750D01*
X282400D01*
Y272250D01*
D02*
G37*
G36*
X276350Y275000D02*
X273600Y272250D01*
X268800D01*
Y277750D01*
X273600D01*
X276350Y275000D01*
D02*
G37*
G36*
X385750Y380600D02*
X383000Y377850D01*
X380250Y380600D01*
Y385400D01*
X385750D01*
Y380600D01*
D02*
G37*
G36*
X373750D02*
X371000Y377850D01*
X368250Y380600D01*
Y385400D01*
X373750D01*
Y380600D01*
D02*
G37*
G36*
X361750D02*
X359000Y377850D01*
X356250Y380600D01*
Y385400D01*
X361750D01*
Y380600D01*
D02*
G37*
G36*
X383100Y376600D02*
X385750Y379250D01*
Y371800D01*
X380250D01*
Y379450D01*
X383100Y376600D01*
D02*
G37*
G36*
X371100D02*
X373750Y379250D01*
Y371800D01*
X368250D01*
Y379450D01*
X371100Y376600D01*
D02*
G37*
G36*
X359100D02*
X361750Y379250D01*
Y371800D01*
X356250D01*
Y379450D01*
X359100Y376600D01*
D02*
G37*
D20*
X384060Y99210D02*
D03*
X384060Y104210D02*
D03*
X552070Y246710D02*
D03*
Y236710D02*
D03*
Y241710D02*
D03*
Y256710D02*
D03*
Y316710D02*
D03*
Y311710D02*
D03*
Y306710D02*
D03*
Y301710D02*
D03*
Y296710D02*
D03*
Y291710D02*
D03*
Y286710D02*
D03*
Y281710D02*
D03*
Y276710D02*
D03*
Y271710D02*
D03*
Y266710D02*
D03*
Y261710D02*
D03*
Y251710D02*
D03*
Y231710D02*
D03*
X384060Y109210D02*
D03*
X384060Y94210D02*
D03*
Y89210D02*
D03*
Y84210D02*
D03*
D21*
X178001Y229999D02*
D03*
X178000Y221000D02*
D03*
X189501Y221499D02*
D03*
Y229999D02*
D03*
X201001D02*
D03*
X201000Y221000D02*
D03*
X212501Y221499D02*
D03*
X212501Y229999D02*
D03*
X224001Y221499D02*
D03*
X224001Y229999D02*
D03*
X195001Y53499D02*
D03*
X195001Y44999D02*
D03*
X418000Y383500D02*
D03*
X417999Y374501D02*
D03*
X396500Y206500D02*
D03*
X396501Y215499D02*
D03*
X315000Y383500D02*
D03*
X314999Y374501D02*
D03*
X287000Y206500D02*
D03*
X287001Y215499D02*
D03*
X300000Y206500D02*
D03*
X300001Y215499D02*
D03*
X192000Y355000D02*
D03*
X192000Y363500D02*
D03*
X127769Y225001D02*
D03*
X127769Y233501D02*
D03*
X139499Y225271D02*
D03*
X139499Y233771D02*
D03*
X130000Y186500D02*
D03*
X130001Y195499D02*
D03*
X315500Y197500D02*
D03*
X315499Y188501D02*
D03*
X183000Y203500D02*
D03*
X182999Y194501D02*
D03*
X368500Y196500D02*
D03*
X368501Y205499D02*
D03*
X137000Y363500D02*
D03*
X136999Y354501D02*
D03*
X115500Y225000D02*
D03*
X115501Y233999D02*
D03*
X301000Y46500D02*
D03*
X301001Y55499D02*
D03*
X180000Y355000D02*
D03*
X180000Y363500D02*
D03*
X128269Y426031D02*
D03*
X128269Y434531D02*
D03*
X115569Y426031D02*
D03*
X115569Y434531D02*
D03*
X161001Y53499D02*
D03*
Y44999D02*
D03*
X128001Y53499D02*
D03*
Y44999D02*
D03*
X102869Y426031D02*
D03*
X102869Y434531D02*
D03*
X570000Y370500D02*
D03*
X570001Y379499D02*
D03*
X270800Y422800D02*
D03*
X270801Y431799D02*
D03*
X140971Y434531D02*
D03*
Y426031D02*
D03*
D22*
X177935Y45111D02*
D03*
X145004Y45440D02*
D03*
X110934Y45111D02*
D03*
D23*
X177935Y62891D02*
D03*
X145004Y63220D02*
D03*
X110934Y62891D02*
D03*
D24*
X526070Y214710D02*
D03*
Y333710D02*
D03*
X358060Y67210D02*
D03*
Y126210D02*
D03*
D25*
X243520Y46210D02*
D03*
X278520Y46210D02*
D03*
D26*
X255020Y441200D02*
D03*
Y422400D02*
D03*
X230120D02*
D03*
Y431800D02*
D03*
Y441200D02*
D03*
D27*
X181610Y413010D02*
D03*
Y445510D02*
D03*
D28*
X207010Y414510D02*
D03*
Y444010D02*
D03*
D29*
X124250Y266250D02*
D03*
Y271250D02*
D03*
Y276250D02*
D03*
Y281250D02*
D03*
Y286250D02*
D03*
Y291250D02*
D03*
Y296250D02*
D03*
Y301250D02*
D03*
Y306250D02*
D03*
Y311250D02*
D03*
Y316250D02*
D03*
Y321250D02*
D03*
X204750D02*
D03*
Y316250D02*
D03*
Y311250D02*
D03*
Y306250D02*
D03*
Y301250D02*
D03*
Y296250D02*
D03*
Y291250D02*
D03*
Y286250D02*
D03*
Y281250D02*
D03*
Y276250D02*
D03*
Y271250D02*
D03*
Y266250D02*
D03*
D30*
X137000Y334000D02*
D03*
X142000D02*
D03*
X147000D02*
D03*
X152000D02*
D03*
X157000D02*
D03*
X162000D02*
D03*
X167000D02*
D03*
X172000D02*
D03*
X177000D02*
D03*
X182000D02*
D03*
X187000D02*
D03*
X192000D02*
D03*
Y253500D02*
D03*
X187000D02*
D03*
X182000D02*
D03*
X177000D02*
D03*
X172000D02*
D03*
X167000D02*
D03*
X162000D02*
D03*
X157000D02*
D03*
X152000D02*
D03*
X147000D02*
D03*
X142000D02*
D03*
X137000D02*
D03*
D31*
X270500Y250000D02*
D03*
X279499Y249999D02*
D03*
X580251Y269000D02*
D03*
X571252Y269001D02*
D03*
X580251Y257000D02*
D03*
X571252Y257001D02*
D03*
X448000Y346500D02*
D03*
X439001Y346501D02*
D03*
X448000Y358500D02*
D03*
X439001Y358501D02*
D03*
X571501Y245001D02*
D03*
X580001Y245001D02*
D03*
X571501Y281001D02*
D03*
X580001Y281001D02*
D03*
X571501Y330001D02*
D03*
X580001Y330001D02*
D03*
X102499Y285999D02*
D03*
X93999D02*
D03*
X234500Y321270D02*
D03*
X225501Y321271D02*
D03*
X93770Y266000D02*
D03*
X102769Y265999D02*
D03*
X416499Y78729D02*
D03*
X407999Y78729D02*
D03*
X416499Y89729D02*
D03*
X407999Y89729D02*
D03*
X225501Y276271D02*
D03*
X234001Y276271D02*
D03*
X416500Y101000D02*
D03*
X407501Y101001D02*
D03*
X416500Y112000D02*
D03*
X407501Y112001D02*
D03*
X279499Y262999D02*
D03*
X270999Y262999D02*
D03*
X225501Y252271D02*
D03*
X234001Y252271D02*
D03*
X225501Y264271D02*
D03*
X234001Y264271D02*
D03*
X114499Y407669D02*
D03*
X105999Y407669D02*
D03*
X114499Y383224D02*
D03*
X105999Y383224D02*
D03*
Y371001D02*
D03*
X114499Y371001D02*
D03*
X105999Y395446D02*
D03*
X114499Y395446D02*
D03*
X409499Y464999D02*
D03*
X400999Y464999D02*
D03*
X542500Y414000D02*
D03*
X551499Y413999D02*
D03*
X247070Y457200D02*
D03*
X238071Y457201D02*
D03*
X429499Y464999D02*
D03*
X420999Y464999D02*
D03*
D32*
X301500Y258500D02*
D03*
Y263500D02*
D03*
Y268500D02*
D03*
Y273500D02*
D03*
X301500Y278500D02*
D03*
Y283500D02*
D03*
Y288500D02*
D03*
X301500Y293500D02*
D03*
Y298500D02*
D03*
X301500Y303500D02*
D03*
Y308500D02*
D03*
Y313500D02*
D03*
X301500Y318500D02*
D03*
Y323500D02*
D03*
X301500Y328500D02*
D03*
Y333500D02*
D03*
X416500Y333500D02*
D03*
Y328500D02*
D03*
X416500Y323500D02*
D03*
Y318500D02*
D03*
X416500Y313500D02*
D03*
X416500Y308500D02*
D03*
Y303500D02*
D03*
X416500Y298500D02*
D03*
Y293500D02*
D03*
X416500Y288500D02*
D03*
Y283500D02*
D03*
Y278500D02*
D03*
X416500Y273500D02*
D03*
Y268500D02*
D03*
Y263500D02*
D03*
Y258500D02*
D03*
D33*
X321500Y353500D02*
D03*
X326500D02*
D03*
X331500D02*
D03*
X336500D02*
D03*
X341500D02*
D03*
X346500D02*
D03*
X351500D02*
D03*
X356500D02*
D03*
X361500D02*
D03*
X366500D02*
D03*
X371500D02*
D03*
X376500D02*
D03*
X381500D02*
D03*
X386500D02*
D03*
X391500D02*
D03*
X396500D02*
D03*
X396500Y238500D02*
D03*
X391500D02*
D03*
X386500D02*
D03*
X381500D02*
D03*
X376500D02*
D03*
X371500D02*
D03*
X366500D02*
D03*
X361500D02*
D03*
X356500D02*
D03*
X351500Y238500D02*
D03*
X346500D02*
D03*
X341500Y238500D02*
D03*
X336500D02*
D03*
X331500D02*
D03*
X326500D02*
D03*
X321500D02*
D03*
D34*
X439110Y332270D02*
D03*
X456890D02*
D03*
D35*
X583000Y294250D02*
D03*
X573500Y316930D02*
D03*
X592500D02*
D03*
D36*
X146500Y186000D02*
D03*
X167500D02*
D03*
Y203000D02*
D03*
X146500D02*
D03*
X352000Y206000D02*
D03*
X331000D02*
D03*
Y189000D02*
D03*
X352000Y189000D02*
D03*
D37*
X69320Y394500D02*
D03*
X92000Y404000D02*
D03*
Y385000D02*
D03*
D38*
X364680Y463727D02*
D03*
X361681D02*
D03*
X356679Y463753D02*
D03*
X353680D02*
D03*
X343680Y463708D02*
D03*
X338682Y463730D02*
D03*
X333680Y463712D02*
D03*
X328681Y463727D02*
D03*
X323680Y463712D02*
D03*
X313680D02*
D03*
X308681Y463712D02*
D03*
X305679D02*
D03*
X300680Y463712D02*
D03*
X297680D02*
D03*
X164450Y463727D02*
D03*
X161451D02*
D03*
X156449Y463753D02*
D03*
X153450D02*
D03*
X143449Y463708D02*
D03*
X138452Y463730D02*
D03*
X133450Y463712D02*
D03*
X128451Y463727D02*
D03*
X123450Y463712D02*
D03*
X113450D02*
D03*
X108451Y463712D02*
D03*
X105449D02*
D03*
X100450Y463712D02*
D03*
X97450D02*
D03*
D39*
X348680Y463713D02*
D03*
X318680Y463712D02*
D03*
X148450Y463713D02*
D03*
X118450Y463712D02*
D03*
D40*
X524808Y381000D02*
D03*
D41*
X554000Y396000D02*
D03*
Y366000D02*
D03*
D42*
X549700Y381000D02*
D03*
D43*
X158750Y445643D02*
D03*
Y412877D02*
D03*
M02*
