G04*
G04 #@! TF.GenerationSoftware,Altium Limited,Altium Designer,23.8.1 (32)*
G04*
G04 Layer_Physical_Order=3*
G04 Layer_Color=16776960*
%FSLAX44Y44*%
%MOMM*%
G71*
G04*
G04 #@! TF.SameCoordinates,D96BB530-8D29-4B5F-9446-CCACF09A0524*
G04*
G04*
G04 #@! TF.FilePolarity,Negative*
G04*
G01*
G75*
%ADD10C,0.2000*%
%ADD87C,1.0160*%
%ADD88C,1.5080*%
%ADD89C,1.4080*%
%ADD90C,1.2580*%
%ADD91C,1.2080*%
%ADD92C,0.8080*%
%ADD93O,1.3080X2.1080*%
%ADD94O,1.2080X2.3080*%
D10*
X596000Y194000D02*
Y251000D01*
X475000Y73000D02*
X596000Y194000D01*
X394000Y73000D02*
X475000D01*
X394000D02*
Y120000D01*
X466000D01*
X559500Y213500D01*
Y253500D01*
X596000Y251000D02*
Y390000D01*
X559500Y253500D02*
Y313500D01*
X549000Y324000D02*
X559500Y313500D01*
X531000Y324000D02*
X549000D01*
X507000Y348000D02*
X531000Y324000D01*
X507000Y348000D02*
Y390000D01*
X554000D01*
Y411000D01*
Y390000D02*
X596000D01*
X486000Y479000D02*
X554000Y411000D01*
X199000Y451000D02*
X258000D01*
X286000Y479000D02*
X486000D01*
X258000Y451000D02*
X286000Y479000D01*
X242000Y477000D02*
X289000Y524000D01*
X596000Y390000D02*
Y425000D01*
X199000Y451000D02*
Y477000D01*
X497000Y524000D02*
X596000Y425000D01*
X289000Y524000D02*
X497000D01*
X199000Y477000D02*
X242000D01*
D87*
X35560Y34210D02*
G03*
X40560Y29210I5000J0D01*
G01*
X722560D02*
G03*
X727560Y34210I0J5000D01*
G01*
Y524210D02*
G03*
X722560Y529210I-5000J0D01*
G01*
X40560D02*
G03*
X35560Y524210I0J-5000D01*
G01*
X40560Y29210D02*
X722560D01*
X727560Y34210D02*
Y524210D01*
X40560Y529210D02*
X722560D01*
X35560Y34210D02*
Y524210D01*
D88*
X40300Y524400D02*
D03*
X722800D02*
D03*
Y34000D02*
D03*
X40300D02*
D03*
X414000Y499000D02*
D03*
D89*
X64000Y333100D02*
D03*
Y307700D02*
D03*
Y282300D02*
D03*
D90*
X360079Y476712D02*
D03*
X302279D02*
D03*
X159849D02*
D03*
X102049D02*
D03*
D91*
X261020Y37210D02*
D03*
Y55210D02*
D03*
D92*
X315500Y216000D02*
D03*
X326500Y219000D02*
D03*
X336000D02*
D03*
X341500Y175500D02*
D03*
X352000D02*
D03*
X364500Y177000D02*
D03*
X318500D02*
D03*
X330500Y175500D02*
D03*
X336000Y228000D02*
D03*
X352000Y219000D02*
D03*
X361000D02*
D03*
X378000Y195000D02*
D03*
X368500Y214000D02*
D03*
X352000Y228000D02*
D03*
X378000Y206000D02*
D03*
X614000Y282000D02*
D03*
X396500Y162000D02*
D03*
X377500Y144500D02*
D03*
X343000Y128500D02*
D03*
Y111500D02*
D03*
X250000Y513000D02*
D03*
X227500Y488500D02*
D03*
X201000Y489000D02*
D03*
X467000Y464500D02*
D03*
X494000Y451500D02*
D03*
X527000Y511500D02*
D03*
X566000Y472500D02*
D03*
X611500Y418500D02*
D03*
X610000Y353000D02*
D03*
X614500Y217000D02*
D03*
X582500Y156000D02*
D03*
X527500Y98500D02*
D03*
X475500Y58000D02*
D03*
X413000Y59000D02*
D03*
X485500Y164500D02*
D03*
X454000Y136000D02*
D03*
X413500Y135000D02*
D03*
X520500Y279000D02*
D03*
X503500Y239000D02*
D03*
X481500Y290000D02*
D03*
X447000D02*
D03*
X472000Y250000D02*
D03*
X441500Y250500D02*
D03*
X104000Y342000D02*
D03*
X251000Y294000D02*
D03*
X271000Y313000D02*
D03*
X270000Y354500D02*
D03*
X243500Y381000D02*
D03*
X173000Y385000D02*
D03*
X228500Y338000D02*
D03*
X212500Y353000D02*
D03*
X255000Y457000D02*
D03*
X388000Y228000D02*
D03*
X324500Y365000D02*
D03*
X369500Y106000D02*
D03*
X369586Y98796D02*
D03*
X352500Y109500D02*
D03*
X352000Y103000D02*
D03*
X367500Y338500D02*
D03*
X373500Y332500D02*
D03*
X368500Y188500D02*
D03*
X354500Y328500D02*
D03*
X364500D02*
D03*
X437000Y465000D02*
D03*
X605000Y317000D02*
D03*
X428000Y284500D02*
D03*
X427500Y308500D02*
D03*
X455500Y346500D02*
D03*
Y358500D02*
D03*
X405000Y328500D02*
D03*
X418000Y391500D02*
D03*
X383000Y390500D02*
D03*
X347000D02*
D03*
X315000Y391500D02*
D03*
X313500Y453000D02*
D03*
X343692Y452926D02*
D03*
X371000Y390500D02*
D03*
X359000D02*
D03*
X312500Y293500D02*
D03*
Y283500D02*
D03*
X263000Y250000D02*
D03*
X241500Y264000D02*
D03*
Y252500D02*
D03*
X351500Y265500D02*
D03*
Y257500D02*
D03*
X396500Y199000D02*
D03*
X301000Y63500D02*
D03*
X231000Y46000D02*
D03*
X291500Y46500D02*
D03*
X351500Y249500D02*
D03*
X178000Y79000D02*
D03*
X326500Y249500D02*
D03*
X315500Y206500D02*
D03*
X287000Y199000D02*
D03*
X300000D02*
D03*
X144500Y347000D02*
D03*
X218000Y313000D02*
D03*
X217000Y301000D02*
D03*
X289500Y263500D02*
D03*
X271000Y415000D02*
D03*
X219000Y431500D02*
D03*
X218000Y400500D02*
D03*
X208500D02*
D03*
X199000D02*
D03*
X167000Y318000D02*
D03*
X145000Y80000D02*
D03*
X111000Y79500D02*
D03*
X140000Y316500D02*
D03*
X122000Y371000D02*
D03*
X86500Y286000D02*
D03*
X112000Y274000D02*
D03*
X86500Y266000D02*
D03*
X119500Y196000D02*
D03*
X130000Y177000D02*
D03*
X115500Y217500D02*
D03*
X128000D02*
D03*
X139500Y217000D02*
D03*
X119500Y185500D02*
D03*
X140000Y171000D02*
D03*
X157000D02*
D03*
X173500D02*
D03*
X194000Y193000D02*
D03*
Y204000D02*
D03*
X224000Y213500D02*
D03*
X201000D02*
D03*
X179000Y213000D02*
D03*
X173000Y240000D02*
D03*
X168000Y217500D02*
D03*
Y228000D02*
D03*
X151000Y217500D02*
D03*
Y228000D02*
D03*
X151500Y239000D02*
D03*
X183000Y186000D02*
D03*
X130000Y203000D02*
D03*
X242000Y321500D02*
D03*
X137000Y371000D02*
D03*
X122000Y383500D02*
D03*
Y395500D02*
D03*
X140971Y418029D02*
D03*
X103000Y418500D02*
D03*
X541000Y231500D02*
D03*
Y266500D02*
D03*
X563000Y296500D02*
D03*
X541000Y291500D02*
D03*
X563000Y287000D02*
D03*
X541000Y281500D02*
D03*
X424000Y101000D02*
D03*
Y112000D02*
D03*
X535000Y414000D02*
D03*
X554000Y359000D02*
D03*
X578000Y370500D02*
D03*
X587000Y245000D02*
D03*
X587500Y257000D02*
D03*
Y269000D02*
D03*
D93*
X376180Y513212D02*
D03*
X286180D02*
D03*
X175950D02*
D03*
X85950D02*
D03*
D94*
X286180Y471712D02*
D03*
X376180D02*
D03*
X85950D02*
D03*
X175950D02*
D03*
M02*
