G04*
G04 #@! TF.GenerationSoftware,Altium Limited,Altium Designer,18.1.9 (240)*
G04*
G04 Layer_Color=16711935*
%FSLAX25Y25*%
%MOIN*%
G70*
G01*
G75*
%ADD15C,0.00600*%
%ADD18C,0.00500*%
%ADD47O,0.14580X0.04816*%
%ADD48R,0.14580X0.04816*%
%ADD59O,0.09461X0.04737*%
%ADD60O,0.07887X0.04737*%
%ADD61R,0.07493X0.07493*%
%ADD62C,0.07493*%
D15*
X149606Y0D02*
G03*
X157480Y7874I0J7874D01*
G01*
X0D02*
G03*
X7874Y0I7874J0D01*
G01*
Y98425D02*
G03*
X0Y90551I0J-7874D01*
G01*
X157480D02*
G03*
X149606Y98425I-7874J0D01*
G01*
X0Y7874D02*
Y31496D01*
Y66929D02*
Y90551D01*
X7874Y98425D02*
X149606Y98425D01*
X157480Y7874D02*
Y90551D01*
X7874Y0D02*
X149606D01*
D18*
X27165Y66929D02*
G03*
X27165Y66929I-1575J0D01*
G01*
Y31496D02*
G03*
X27165Y31496I-1575J0D01*
G01*
X0D02*
X25984D01*
Y66929D01*
X0D02*
X25984D01*
D47*
X148500Y59213D02*
D03*
Y39213D02*
D03*
Y49213D02*
D03*
Y69213D02*
D03*
D48*
Y29213D02*
D03*
D59*
X8268Y27264D02*
D03*
Y71161D02*
D03*
D60*
X24016Y27264D02*
D03*
Y71161D02*
D03*
D61*
X97000Y89500D02*
D03*
D62*
X87000D02*
D03*
X77000D02*
D03*
M02*
