G04*
G04 #@! TF.GenerationSoftware,Altium Limited,Altium Designer,18.1.9 (240)*
G04*
G04 Layer_Physical_Order=2*
G04 Layer_Color=16711680*
%FSLAX25Y25*%
%MOIN*%
G70*
G01*
G75*
%ADD10C,0.01000*%
%ADD13C,0.02000*%
%ADD15C,0.00600*%
%ADD18C,0.00500*%
%ADD28O,0.13780X0.04016*%
%ADD29R,0.13780X0.04016*%
%ADD63C,0.01500*%
%ADD64C,0.01200*%
%ADD66O,0.08661X0.03937*%
%ADD67O,0.07087X0.03937*%
%ADD68R,0.06693X0.06693*%
%ADD69C,0.06693*%
%ADD70C,0.01968*%
%ADD71C,0.12992*%
G36*
X93790Y93139D02*
X94012Y92950D01*
X94110Y92881D01*
X94199Y92828D01*
X94279Y92793D01*
X94351Y92775D01*
X94414Y92774D01*
X94468Y92790D01*
X94514Y92822D01*
X93678Y91986D01*
X93710Y92032D01*
X93726Y92086D01*
X93725Y92149D01*
X93707Y92221D01*
X93672Y92301D01*
X93619Y92390D01*
X93550Y92488D01*
X93464Y92595D01*
X93241Y92835D01*
X93665Y93259D01*
X93790Y93139D01*
D02*
G37*
G36*
X145060Y96000D02*
X144564Y95593D01*
X143678Y94513D01*
X143019Y93280D01*
X142613Y91942D01*
X142476Y90551D01*
X142613Y89160D01*
X143019Y87823D01*
X143678Y86590D01*
X144564Y85509D01*
X145645Y84623D01*
X146878Y83964D01*
X148215Y83558D01*
X149606Y83421D01*
X150997Y83558D01*
X152335Y83964D01*
X153568Y84623D01*
X154648Y85509D01*
X155000Y85938D01*
X157000Y85222D01*
Y72067D01*
X155968Y71483D01*
X155000Y71258D01*
X154697Y71491D01*
X154063Y71753D01*
X153382Y71843D01*
X143618D01*
X142937Y71753D01*
X142303Y71491D01*
X141758Y71073D01*
X140695Y71332D01*
X139787Y71660D01*
X136973Y74473D01*
X136527Y74772D01*
X136000Y74876D01*
X131500D01*
X130973Y74772D01*
X130527Y74473D01*
X126027Y69973D01*
X125728Y69527D01*
X125624Y69000D01*
Y66064D01*
X125399Y65859D01*
X125017Y65765D01*
X124305Y65755D01*
X123142Y65912D01*
X123142Y65912D01*
X122618Y66262D01*
X122000Y66385D01*
X122000Y66385D01*
X121799Y66344D01*
X121382Y66262D01*
X121382Y66262D01*
X120927Y65958D01*
X120847Y65926D01*
X120785Y65867D01*
X120740Y65828D01*
X120697Y65797D01*
X120659Y65773D01*
X120623Y65755D01*
X120591Y65741D01*
X120561Y65731D01*
X120532Y65725D01*
X120502Y65721D01*
X120443Y65718D01*
X120377Y65687D01*
X98111D01*
X96649Y67149D01*
X96351Y67348D01*
X96000Y67418D01*
X92200D01*
X92200Y67418D01*
X92200Y67418D01*
X89797Y67418D01*
X78481D01*
X77500Y67418D01*
X77466Y67411D01*
Y67411D01*
X77466Y67411D01*
X77466Y67411D01*
X77149Y67348D01*
X77104Y67318D01*
D01*
X76759Y67109D01*
X76759Y67109D01*
X75767Y66685D01*
X74369Y67480D01*
X73918Y67919D01*
Y75120D01*
X83788Y84991D01*
X83846Y85008D01*
X83960Y85101D01*
X84075Y85166D01*
X84251Y85237D01*
X84483Y85307D01*
X84771Y85368D01*
X85098Y85418D01*
X86438Y85503D01*
X86968Y85504D01*
X87007Y85520D01*
X88030Y85655D01*
X88990Y86053D01*
X89815Y86685D01*
X90447Y87510D01*
X90845Y88470D01*
X90980Y89500D01*
X90845Y90530D01*
X91312Y92299D01*
X91598Y92566D01*
X91768Y92541D01*
X92558Y92193D01*
X93037Y91881D01*
X93054Y91854D01*
Y85553D01*
X100946D01*
Y93446D01*
X94646D01*
X94619Y93463D01*
X94565Y93451D01*
X94514Y93472D01*
X94453Y93446D01*
X94434Y93446D01*
X94410Y93463D01*
X94226Y93620D01*
X94117Y93726D01*
X94043Y93755D01*
X93399Y94398D01*
Y94398D01*
X92149Y95649D01*
X92120Y95668D01*
X92120Y95668D01*
X91851Y95848D01*
X91534Y95911D01*
X91534Y95911D01*
X91500Y95918D01*
X89537Y95918D01*
X76463D01*
X75209Y95918D01*
X75209Y95918D01*
X75208D01*
X75208Y95918D01*
X74500Y95918D01*
X74500Y95918D01*
X74149Y95848D01*
X73880Y95668D01*
Y95668D01*
X73851Y95649D01*
X69739Y91537D01*
X68351Y90149D01*
X68332Y90120D01*
X68332Y90120D01*
X68152Y89851D01*
X68089Y89534D01*
X68089Y89534D01*
X68082Y89500D01*
X68082Y88814D01*
X68082Y88813D01*
X68082Y87537D01*
Y60028D01*
X68082Y58028D01*
X68082D01*
Y58028D01*
X68082D01*
Y46191D01*
X68045Y44207D01*
X68045Y44207D01*
X67843Y43892D01*
X67839Y43881D01*
X67508Y43357D01*
X67508Y43357D01*
X67508Y43357D01*
X67425Y42940D01*
X67424Y42937D01*
X67424Y42937D01*
X67385Y42739D01*
X67385Y42739D01*
X67508Y42121D01*
X67744Y41767D01*
X67858Y41597D01*
X67858Y41597D01*
X68320Y41288D01*
X68382Y41247D01*
X68568Y41210D01*
Y41210D01*
X68583Y41207D01*
X69000Y41124D01*
X69000Y41124D01*
X69618Y41247D01*
X69972Y41483D01*
X70142Y41597D01*
X70142Y41597D01*
X70492Y42121D01*
X70492Y42121D01*
X70532Y42322D01*
X70615Y42739D01*
X70615Y42739D01*
X70576Y42937D01*
X70492Y43357D01*
X70492Y43357D01*
X70492Y43357D01*
X70161Y43881D01*
X70157Y43892D01*
X70069Y44029D01*
X69955Y44207D01*
X69955Y44207D01*
X69918Y46191D01*
Y57631D01*
X70082Y57690D01*
X71551Y58217D01*
X71918Y58287D01*
X72320Y58018D01*
X72382Y57977D01*
X72382D01*
X73000Y57854D01*
X73000Y57854D01*
X73618Y57977D01*
X73618Y57977D01*
X73972Y58213D01*
X74142Y58327D01*
X74142Y58327D01*
X74492Y58851D01*
X74492Y58851D01*
X74532Y59052D01*
X74615Y59469D01*
X74615Y59469D01*
X74576Y59667D01*
X74576Y59667D01*
X74575Y59670D01*
X74492Y60087D01*
X74492Y60087D01*
X74492Y60088D01*
X74161Y60611D01*
X74157Y60622D01*
X74149Y60634D01*
X74300Y61663D01*
X74601Y62653D01*
X75918Y63401D01*
X76000Y63385D01*
X76618Y63508D01*
X77142Y63858D01*
X77492Y64382D01*
X77599Y64918D01*
X77634Y64997D01*
X77635Y65083D01*
X77640Y65142D01*
X77648Y65194D01*
X77658Y65239D01*
X77670Y65277D01*
X77683Y65309D01*
X77698Y65338D01*
X77714Y65363D01*
X77732Y65386D01*
X77760Y65418D01*
X77772Y65430D01*
Y65430D01*
X77797Y65499D01*
X77880Y65582D01*
X78814D01*
X89580Y65582D01*
X91385Y64524D01*
X91508Y63906D01*
X91624Y63732D01*
Y62143D01*
X91613Y62127D01*
X91624Y62075D01*
Y61925D01*
X91613Y61873D01*
X91624Y61857D01*
Y58792D01*
X91508Y58618D01*
X91508Y58618D01*
X91385Y58000D01*
X91385Y58000D01*
X91508Y57382D01*
X91744Y57028D01*
X91858Y56858D01*
X91858Y56858D01*
X92320Y56549D01*
X92382Y56508D01*
X92568Y56471D01*
Y56471D01*
X92583Y56468D01*
X93000Y56385D01*
X93000Y56385D01*
X93618Y56508D01*
X93972Y56744D01*
X94142Y56858D01*
X94142Y56858D01*
X94142Y56858D01*
X94492Y57382D01*
X94492Y57382D01*
X94532Y57583D01*
X94615Y58000D01*
X94615Y58000D01*
X94575Y58201D01*
X94492Y58618D01*
X94492Y58618D01*
X95377Y60252D01*
X95963Y60624D01*
X125500D01*
X126027Y60728D01*
X126473Y61027D01*
X127973Y62527D01*
X128272Y62973D01*
X128376Y63500D01*
Y68430D01*
X129992Y70045D01*
X130085Y70043D01*
X131973Y69394D01*
X132068Y69292D01*
X132358Y68858D01*
X132882Y68508D01*
X132882Y68508D01*
X133083Y68468D01*
X133418Y68401D01*
X133497Y68367D01*
X133583Y68365D01*
X133642Y68360D01*
X133694Y68352D01*
X133739Y68342D01*
X133777Y68330D01*
X133809Y68317D01*
X133837Y68302D01*
X133863Y68287D01*
X133886Y68269D01*
X133930Y68229D01*
X133999Y68204D01*
X137463Y64739D01*
X138851Y63351D01*
X138851Y63351D01*
X138880Y63332D01*
X138880Y63332D01*
X139149Y63152D01*
X139466Y63089D01*
X141023Y62152D01*
X140388Y60416D01*
X140199Y60128D01*
X140179Y60123D01*
X140179Y60123D01*
X139861Y60060D01*
X139593Y59881D01*
X139593Y59881D01*
X139564Y59861D01*
X138175Y58473D01*
X136118Y56416D01*
X135635Y56616D01*
X135387Y57051D01*
X134992Y58882D01*
X134992Y58882D01*
X135115Y59500D01*
X135115Y59500D01*
X135115Y59500D01*
X135075Y59701D01*
X134992Y60118D01*
X134642Y60642D01*
X134642Y60642D01*
X134118Y60992D01*
X134118Y60992D01*
X134045Y61007D01*
X134045Y61007D01*
X133917Y61032D01*
X133500Y61115D01*
X133500Y61115D01*
X133299Y61075D01*
X132882Y60992D01*
X132882Y60992D01*
X132358Y60642D01*
X132358Y60642D01*
X132008Y60118D01*
X132008Y60118D01*
X131993Y60045D01*
X131901Y59582D01*
X131867Y59503D01*
X131865Y59417D01*
X131860Y59358D01*
X131852Y59306D01*
X131842Y59261D01*
X131830Y59223D01*
X131817Y59191D01*
X131802Y59162D01*
X131786Y59137D01*
X131768Y59114D01*
X131728Y59070D01*
X131703Y59001D01*
X130351Y57649D01*
X130332Y57620D01*
X130332Y57620D01*
X130152Y57351D01*
X130089Y57034D01*
X130089Y57034D01*
X130082Y57000D01*
X130082Y55665D01*
X130082Y54331D01*
X130089Y54297D01*
X130089Y54297D01*
X130152Y53980D01*
X130152Y53979D01*
X130351Y53682D01*
X132124Y51909D01*
X132124D01*
X134081Y49952D01*
X135469Y48564D01*
X135469Y48564D01*
X135498Y48544D01*
X135498Y48544D01*
X135767Y48365D01*
X136084Y48302D01*
X136118Y48295D01*
X140958D01*
X141030Y48263D01*
X141140Y48261D01*
X141191Y48257D01*
X141340Y47897D01*
X141758Y47353D01*
X142303Y46935D01*
X142937Y46672D01*
X143618Y46582D01*
X153382D01*
X154063Y46672D01*
X154697Y46935D01*
X155000Y47167D01*
X155968Y46942D01*
X157000Y46359D01*
Y33402D01*
X155990Y31820D01*
X141010D01*
Y26605D01*
X146391D01*
X146432Y26583D01*
X146545Y26571D01*
X146566Y26564D01*
X146585Y26551D01*
X146619Y26514D01*
X146668Y26433D01*
X146723Y26297D01*
X146774Y26105D01*
X146815Y25859D01*
X146841Y25562D01*
X146851Y25200D01*
X146869Y25160D01*
Y22676D01*
X127324Y3131D01*
X91189D01*
X90960Y3329D01*
X90130Y4940D01*
X90125Y5131D01*
X90221Y5618D01*
X90099Y6236D01*
X90099Y6236D01*
X89983Y6410D01*
Y6708D01*
X90099Y6882D01*
X90221Y7500D01*
X90099Y8118D01*
X89748Y8642D01*
X89224Y8992D01*
X88606Y9115D01*
X87988Y8992D01*
X87464Y8642D01*
X87114Y8118D01*
X86991Y7500D01*
X87082Y7041D01*
X86129Y5446D01*
X85030Y5226D01*
X62703D01*
X59335Y8594D01*
X59386Y8820D01*
X60370Y10508D01*
X60370D01*
X60988Y10385D01*
X60988Y10385D01*
X61606Y10508D01*
X61606Y10508D01*
X61960Y10744D01*
X62130Y10858D01*
X62130Y10858D01*
X62480Y11382D01*
X62480Y11382D01*
X62520Y11583D01*
X62603Y12000D01*
X62603Y12000D01*
X62563Y12201D01*
X62480Y12618D01*
X62480Y12618D01*
X62193Y13048D01*
X62191Y13054D01*
X62189Y13065D01*
X62187Y13088D01*
X62182Y13096D01*
X62181Y13105D01*
X62172Y13118D01*
X62171Y13121D01*
X62164Y13142D01*
X62157Y13177D01*
X62151Y13217D01*
X62139Y13363D01*
X62137Y13450D01*
X62110Y13514D01*
Y13974D01*
X62024Y14403D01*
X61781Y14767D01*
X61781Y14767D01*
X59671Y16877D01*
X59307Y17120D01*
X58877Y17206D01*
X58877Y17206D01*
X55084D01*
X55084Y17206D01*
X54655Y17120D01*
X54291Y16877D01*
X53568Y16154D01*
X52795Y16291D01*
X51527Y16942D01*
X51492Y17118D01*
X51376Y17292D01*
Y26987D01*
X51376Y26987D01*
X51272Y27514D01*
X50973Y27960D01*
X50973Y27960D01*
X45551Y33382D01*
Y40708D01*
X45667Y40882D01*
X45790Y41500D01*
X45667Y42118D01*
X45551Y42292D01*
Y42708D01*
X45667Y42882D01*
X45790Y43500D01*
X45667Y44118D01*
X45317Y44642D01*
X44793Y44992D01*
X44175Y45115D01*
X43557Y44992D01*
X43033Y44642D01*
X42682Y44118D01*
X42559Y43500D01*
X42682Y42882D01*
X42798Y42708D01*
Y42292D01*
X42682Y42118D01*
X42559Y41500D01*
X42682Y40882D01*
X42798Y40708D01*
Y32812D01*
X42903Y32285D01*
X43202Y31839D01*
X48624Y26417D01*
Y17292D01*
X48508Y17118D01*
X48385Y16500D01*
X47047Y15056D01*
X46814Y14924D01*
X43936D01*
X43870Y14952D01*
X42645Y16374D01*
X42631Y16400D01*
Y24987D01*
X43000D01*
X43624Y25112D01*
X44153Y25465D01*
X44507Y25995D01*
X44631Y26619D01*
X44507Y27243D01*
X44153Y27772D01*
X43624Y28126D01*
X43000Y28250D01*
X39000D01*
X38376Y28126D01*
X37846Y27772D01*
X37493Y27243D01*
X37369Y26619D01*
X37493Y25995D01*
X37846Y25465D01*
X38376Y25112D01*
X39000Y24987D01*
X39369D01*
Y13900D01*
X39355Y13874D01*
X39369Y13826D01*
Y13780D01*
X39355Y13731D01*
X39369Y13705D01*
Y7000D01*
X39493Y6376D01*
X39847Y5847D01*
X43345Y2348D01*
X42580Y500D01*
X32000D01*
Y24500D01*
X29732D01*
X29377Y24791D01*
X28483Y26489D01*
X28519Y26764D01*
X24016D01*
Y27764D01*
X28519D01*
X28483Y28039D01*
X28000Y29487D01*
X28000Y29487D01*
X28000D01*
X28000Y29487D01*
Y69213D01*
X28000Y69213D01*
X28483Y70386D01*
X28483Y70386D01*
X28519Y70661D01*
X24016D01*
X19099D01*
X18303Y69516D01*
X17870Y69213D01*
X15201D01*
X14767Y69516D01*
X13971Y70661D01*
X8268D01*
Y71161D01*
X7768D01*
Y74155D01*
X5906D01*
X5131Y74054D01*
X4408Y73754D01*
X3788Y73279D01*
X3312Y72658D01*
X3013Y71936D01*
X1034Y71029D01*
X500Y71196D01*
Y85198D01*
X2500Y85914D01*
X2832Y85509D01*
X3913Y84623D01*
X5145Y83964D01*
X6483Y83558D01*
X7874Y83421D01*
X9265Y83558D01*
X10603Y83964D01*
X11835Y84623D01*
X12916Y85509D01*
X13803Y86590D01*
X14462Y87823D01*
X14867Y89160D01*
X15004Y90551D01*
X14867Y91942D01*
X14462Y93280D01*
X13803Y94513D01*
X12916Y95593D01*
X12420Y96000D01*
X13136Y98000D01*
X144344D01*
X145060Y96000D01*
D02*
G37*
G36*
X86967Y86154D02*
X86416Y86152D01*
X85029Y86065D01*
X84654Y86007D01*
X84323Y85936D01*
X84035Y85851D01*
X83792Y85752D01*
X83592Y85638D01*
X83436Y85511D01*
X83011Y85936D01*
X83139Y86092D01*
X83252Y86291D01*
X83351Y86535D01*
X83436Y86823D01*
X83507Y87154D01*
X83565Y87529D01*
X83637Y88410D01*
X83654Y89467D01*
X86967Y86154D01*
D02*
G37*
G36*
X77500Y85182D02*
X78135Y85265D01*
X79192Y85703D01*
X80286Y84083D01*
X73739Y77537D01*
X72806Y76604D01*
X72806Y76603D01*
X72351Y76149D01*
X72332Y76120D01*
X72332Y76120D01*
X72152Y75851D01*
X72089Y75534D01*
X72089Y75534D01*
X72082Y75500D01*
X72082Y74857D01*
X72082Y74856D01*
X72082Y73537D01*
Y62922D01*
X72076Y62585D01*
X71918Y62479D01*
X69918Y63542D01*
Y88119D01*
X70730Y88928D01*
X71962Y88672D01*
X72881Y88087D01*
X73203Y87308D01*
X73900Y86400D01*
X74808Y85703D01*
X75865Y85265D01*
X76500Y85182D01*
Y89500D01*
X77500D01*
Y85182D01*
D02*
G37*
G36*
X134486Y69884D02*
X134495Y69782D01*
X134510Y69684D01*
X134531Y69592D01*
X134559Y69503D01*
X134593Y69420D01*
X134633Y69341D01*
X134680Y69267D01*
X134733Y69197D01*
X134793Y69132D01*
X134368Y68708D01*
X134303Y68767D01*
X134233Y68821D01*
X134159Y68867D01*
X134080Y68908D01*
X133997Y68942D01*
X133909Y68969D01*
X133816Y68991D01*
X133719Y69006D01*
X133616Y69014D01*
X133510Y69016D01*
X134484Y69990D01*
X134486Y69884D01*
D02*
G37*
G36*
X142123Y67902D02*
X142105Y68009D01*
X142050Y68104D01*
X141958Y68188D01*
X141829Y68261D01*
X141664Y68322D01*
X141462Y68373D01*
X141224Y68412D01*
X140948Y68440D01*
X140287Y68463D01*
Y69963D01*
X140636Y69968D01*
X141224Y70013D01*
X141462Y70052D01*
X141664Y70103D01*
X141829Y70164D01*
X141958Y70237D01*
X142050Y70321D01*
X142105Y70416D01*
X142123Y70523D01*
Y67902D01*
D02*
G37*
G36*
X77293Y65868D02*
X77233Y65803D01*
X77180Y65733D01*
X77133Y65659D01*
X77093Y65580D01*
X77059Y65497D01*
X77031Y65409D01*
X77010Y65316D01*
X76995Y65219D01*
X76986Y65117D01*
X76984Y65010D01*
X76010Y65984D01*
X76117Y65986D01*
X76218Y65995D01*
X76316Y66010D01*
X76409Y66031D01*
X76497Y66059D01*
X76580Y66093D01*
X76659Y66133D01*
X76733Y66180D01*
X76803Y66233D01*
X76868Y66293D01*
X77293Y65868D01*
D02*
G37*
G36*
X121297Y64080D02*
X121220Y64154D01*
X121142Y64220D01*
X121063Y64279D01*
X120982Y64329D01*
X120900Y64372D01*
X120817Y64407D01*
X120733Y64434D01*
X120647Y64454D01*
X120560Y64465D01*
X120472Y64469D01*
Y65069D01*
X120560Y65073D01*
X120647Y65085D01*
X120733Y65104D01*
X120817Y65131D01*
X120900Y65166D01*
X120982Y65209D01*
X121063Y65260D01*
X121142Y65318D01*
X121220Y65384D01*
X121297Y65458D01*
Y64080D01*
D02*
G37*
G36*
X142297Y63311D02*
X142220Y63385D01*
X142142Y63451D01*
X142063Y63509D01*
X141982Y63560D01*
X141900Y63603D01*
X141817Y63638D01*
X141733Y63665D01*
X141647Y63684D01*
X141560Y63696D01*
X141472Y63700D01*
Y64300D01*
X141560Y64304D01*
X141647Y64316D01*
X141733Y64335D01*
X141817Y64362D01*
X141900Y64397D01*
X141982Y64440D01*
X142063Y64491D01*
X142142Y64549D01*
X142220Y64615D01*
X142297Y64689D01*
Y63311D01*
D02*
G37*
G36*
X155968Y66942D02*
X157000Y66359D01*
Y62067D01*
X155968Y61483D01*
X155000Y61258D01*
X154697Y61491D01*
X154063Y61753D01*
X153382Y61843D01*
X145870D01*
X145393Y62376D01*
X144584Y63843D01*
X144615Y64000D01*
X144492Y64618D01*
X145231Y66387D01*
X145402Y66582D01*
X153382D01*
X154063Y66672D01*
X154697Y66935D01*
X155000Y67167D01*
X155968Y66942D01*
D02*
G37*
G36*
X73304Y60909D02*
X73316Y60822D01*
X73335Y60736D01*
X73362Y60652D01*
X73397Y60569D01*
X73440Y60487D01*
X73491Y60406D01*
X73549Y60327D01*
X73615Y60249D01*
X73689Y60172D01*
X72311D01*
X72385Y60249D01*
X72451Y60327D01*
X72509Y60406D01*
X72560Y60487D01*
X72603Y60569D01*
X72638Y60652D01*
X72665Y60736D01*
X72684Y60822D01*
X72696Y60909D01*
X72700Y60997D01*
X73300D01*
X73304Y60909D01*
D02*
G37*
G36*
X93765Y63965D02*
X93810Y63710D01*
X93885Y63485D01*
X93990Y63290D01*
X94125Y63125D01*
X94290Y62990D01*
X94485Y62885D01*
X94710Y62810D01*
X94965Y62765D01*
X95250Y62750D01*
Y61250D01*
X94965Y61235D01*
X94710Y61190D01*
X94485Y61115D01*
X94290Y61010D01*
X94125Y60875D01*
X93990Y60710D01*
X93885Y60515D01*
X93810Y60290D01*
X93765Y60035D01*
X93750Y59750D01*
X92250Y62000D01*
X93750Y64250D01*
X93765Y63965D01*
D02*
G37*
G36*
X141717Y58617D02*
X141711Y58673D01*
X141691Y58723D01*
X141657Y58768D01*
X141610Y58806D01*
X141549Y58839D01*
X141475Y58865D01*
X141388Y58886D01*
X141287Y58901D01*
X141172Y58910D01*
X141044Y58913D01*
Y59513D01*
X141172Y59516D01*
X141287Y59524D01*
X141388Y59539D01*
X141475Y59560D01*
X141549Y59587D01*
X141610Y59619D01*
X141657Y59657D01*
X141691Y59702D01*
X141711Y59752D01*
X141717Y59808D01*
Y58617D01*
D02*
G37*
G36*
X133490Y58516D02*
X133384Y58514D01*
X133282Y58505D01*
X133184Y58490D01*
X133091Y58469D01*
X133003Y58441D01*
X132920Y58407D01*
X132841Y58367D01*
X132766Y58320D01*
X132697Y58267D01*
X132632Y58207D01*
X132207Y58632D01*
X132267Y58697D01*
X132320Y58767D01*
X132367Y58841D01*
X132407Y58920D01*
X132441Y59003D01*
X132469Y59091D01*
X132490Y59184D01*
X132505Y59281D01*
X132514Y59383D01*
X132516Y59490D01*
X133490Y58516D01*
D02*
G37*
G36*
X134280Y55115D02*
X134358Y55049D01*
X134437Y54991D01*
X134518Y54940D01*
X134600Y54898D01*
X134683Y54863D01*
X134767Y54835D01*
X134853Y54816D01*
X134940Y54804D01*
X135028Y54800D01*
Y54200D01*
X134940Y54196D01*
X134853Y54185D01*
X134767Y54165D01*
X134683Y54138D01*
X134600Y54103D01*
X134518Y54060D01*
X134437Y54010D01*
X134358Y53951D01*
X134280Y53885D01*
X134203Y53811D01*
Y55189D01*
X134280Y55115D01*
D02*
G37*
G36*
X142303Y56935D02*
X142937Y56672D01*
X143618Y56582D01*
X153382D01*
X154063Y56672D01*
X154697Y56935D01*
X155000Y57167D01*
X155968Y56942D01*
X157000Y56359D01*
Y52067D01*
X155968Y51483D01*
X155000Y51258D01*
X154697Y51491D01*
X154063Y51753D01*
X153382Y51843D01*
X143618D01*
X142937Y51753D01*
X142303Y51491D01*
X141758Y51073D01*
X141340Y50528D01*
X141191Y50168D01*
X141140Y50164D01*
X141030Y50162D01*
X140958Y50130D01*
X136498D01*
X135262Y51367D01*
X135070Y51908D01*
X135070Y51939D01*
X135263Y52678D01*
X135812Y53645D01*
X135852Y53653D01*
X136149Y53851D01*
X139474Y57176D01*
X139787Y57297D01*
X141758Y57353D01*
X142303Y56935D01*
D02*
G37*
G36*
X141717Y48617D02*
X141711Y48673D01*
X141691Y48724D01*
X141657Y48768D01*
X141610Y48806D01*
X141549Y48839D01*
X141475Y48865D01*
X141388Y48886D01*
X141287Y48901D01*
X141172Y48910D01*
X141044Y48913D01*
Y49513D01*
X141172Y49516D01*
X141287Y49524D01*
X141388Y49539D01*
X141475Y49560D01*
X141549Y49586D01*
X141610Y49619D01*
X141657Y49657D01*
X141691Y49702D01*
X141711Y49752D01*
X141717Y49808D01*
Y48617D01*
D02*
G37*
G36*
X69304Y44179D02*
X69316Y44092D01*
X69335Y44006D01*
X69362Y43922D01*
X69397Y43839D01*
X69440Y43757D01*
X69491Y43676D01*
X69549Y43597D01*
X69615Y43519D01*
X69689Y43442D01*
X68311D01*
X68385Y43519D01*
X68451Y43597D01*
X68509Y43676D01*
X68560Y43757D01*
X68603Y43839D01*
X68638Y43922D01*
X68665Y44006D01*
X68684Y44092D01*
X68696Y44179D01*
X68700Y44267D01*
X69300D01*
X69304Y44179D01*
D02*
G37*
G36*
X21454Y25555D02*
X21261Y25690D01*
X21050Y25810D01*
X20822Y25916D01*
X20577Y26008D01*
X20314Y26087D01*
X20034Y26150D01*
X19737Y26200D01*
X19423Y26235D01*
X18742Y26264D01*
Y28264D01*
X19091Y28271D01*
X19737Y28328D01*
X20034Y28377D01*
X20314Y28441D01*
X20577Y28519D01*
X20822Y28611D01*
X21050Y28717D01*
X21261Y28838D01*
X21454Y28973D01*
Y25555D01*
D02*
G37*
G36*
X11810Y28838D02*
X12021Y28717D01*
X12249Y28611D01*
X12494Y28519D01*
X12757Y28441D01*
X13036Y28377D01*
X13334Y28328D01*
X13648Y28292D01*
X14329Y28264D01*
Y26264D01*
X13980Y26257D01*
X13334Y26200D01*
X13036Y26150D01*
X12757Y26087D01*
X12494Y26008D01*
X12249Y25916D01*
X12021Y25810D01*
X11810Y25690D01*
X11617Y25555D01*
Y28973D01*
X11810Y28838D01*
D02*
G37*
G36*
X150310Y27209D02*
X150140Y27148D01*
X149990Y27048D01*
X149860Y26907D01*
X149750Y26726D01*
X149660Y26504D01*
X149590Y26243D01*
X149540Y25941D01*
X149510Y25599D01*
X149500Y25217D01*
X147500D01*
X147490Y25599D01*
X147460Y25941D01*
X147410Y26243D01*
X147340Y26504D01*
X147250Y26726D01*
X147140Y26907D01*
X147010Y27048D01*
X146860Y27148D01*
X146690Y27209D01*
X146500Y27229D01*
X150500D01*
X150310Y27209D01*
D02*
G37*
G36*
X31000Y500D02*
X9733D01*
X9659Y1000D01*
X10603Y1286D01*
X11835Y1945D01*
X12916Y2832D01*
X13803Y3913D01*
X14462Y5145D01*
X14867Y6483D01*
X15004Y7874D01*
X14867Y9265D01*
X14462Y10603D01*
X13803Y11835D01*
X12916Y12916D01*
X11835Y13803D01*
X10603Y14462D01*
X9265Y14867D01*
X7874Y15004D01*
X6483Y14867D01*
X5145Y14462D01*
X3913Y13803D01*
X2832Y12916D01*
X1945Y11835D01*
X1286Y10603D01*
X1000Y9659D01*
X500Y9733D01*
Y23500D01*
X4165D01*
X4824Y23227D01*
X5906Y23085D01*
X10630D01*
X11711Y23227D01*
X12370Y23500D01*
X31000D01*
Y500D01*
D02*
G37*
G36*
X61490Y13332D02*
X61505Y13141D01*
X61518Y13057D01*
X61535Y12979D01*
X61556Y12910D01*
X61581Y12847D01*
X61609Y12792D01*
X61641Y12744D01*
X61677Y12703D01*
X60299D01*
X60335Y12744D01*
X60367Y12792D01*
X60395Y12847D01*
X60420Y12910D01*
X60441Y12979D01*
X60458Y13057D01*
X60471Y13141D01*
X60480Y13233D01*
X60488Y13438D01*
X61488D01*
X61490Y13332D01*
D02*
G37*
G36*
X53537Y12530D02*
X53995Y12300D01*
X54703Y11868D01*
X54979Y11583D01*
X54996Y11500D01*
X55111Y11327D01*
Y9495D01*
X55216Y8968D01*
X55515Y8522D01*
X59057Y4979D01*
X58292Y3131D01*
X47176D01*
X42631Y7676D01*
Y11205D01*
X42645Y11231D01*
X43870Y12653D01*
X43936Y12681D01*
X52803D01*
X52803Y12681D01*
X52951Y12711D01*
X53537Y12530D01*
D02*
G37*
G36*
X155990Y26605D02*
X157000Y25023D01*
Y13203D01*
X155000Y12487D01*
X154648Y12916D01*
X153568Y13803D01*
X152335Y14462D01*
X150997Y14867D01*
X149606Y15004D01*
X148215Y14867D01*
X146878Y14462D01*
X145645Y13803D01*
X144564Y12916D01*
X143678Y11835D01*
X143019Y10603D01*
X142613Y9265D01*
X142476Y7874D01*
X142613Y6483D01*
X143019Y5145D01*
X143678Y3913D01*
X144564Y2832D01*
X144969Y2500D01*
X144253Y500D01*
X131920D01*
X131155Y2348D01*
X149653Y20846D01*
X150007Y21376D01*
X150131Y22000D01*
Y24802D01*
X151471Y26605D01*
X155990D01*
D02*
G37*
G36*
X42010Y15923D02*
X42040Y15583D01*
X42090Y15283D01*
X42160Y15023D01*
X42250Y14803D01*
X42360Y14623D01*
X42490Y14483D01*
X42640Y14383D01*
X42793Y14329D01*
X43493Y14305D01*
X43866Y14303D01*
Y13303D01*
X43493Y13301D01*
X42715Y13249D01*
X42640Y13223D01*
X42490Y13123D01*
X42360Y12983D01*
X42250Y12803D01*
X42160Y12583D01*
X42090Y12323D01*
X42040Y12023D01*
X42010Y11683D01*
X42000Y11303D01*
X40000Y13803D01*
X42000Y16303D01*
X42010Y15923D01*
D02*
G37*
%LPC*%
G36*
X25591Y74155D02*
X24516D01*
Y71661D01*
X28519D01*
X28483Y71936D01*
X28183Y72658D01*
X27708Y73279D01*
X27088Y73754D01*
X26366Y74054D01*
X25591Y74155D01*
D02*
G37*
G36*
X23516D02*
X22441D01*
X21666Y74054D01*
X20944Y73754D01*
X20324Y73279D01*
X19848Y72658D01*
X19549Y71936D01*
X19513Y71661D01*
X23516D01*
Y74155D01*
D02*
G37*
G36*
X10630D02*
X8768D01*
Y71661D01*
X13558D01*
X13522Y71936D01*
X13223Y72658D01*
X12747Y73279D01*
X12127Y73754D01*
X11405Y74054D01*
X10630Y74155D01*
D02*
G37*
G36*
X35000Y62115D02*
X34799Y62075D01*
X34382Y61992D01*
X34382Y61992D01*
X33858Y61642D01*
X33858Y61642D01*
X33508Y61118D01*
X33508Y61118D01*
X33493Y61045D01*
X33401Y60582D01*
X33367Y60503D01*
X33365Y60417D01*
X33360Y60358D01*
X33352Y60306D01*
X33342Y60261D01*
X32074Y58872D01*
X30847Y57645D01*
X30648Y57347D01*
X30585Y57030D01*
X30585Y57030D01*
X30578Y56996D01*
X30578Y55033D01*
Y51913D01*
X30578D01*
X30578Y51913D01*
Y47367D01*
X30578Y47367D01*
X30578D01*
Y45997D01*
X30578Y44033D01*
X30585Y43999D01*
X30585Y43999D01*
X30648Y43682D01*
X30828Y43413D01*
X30828Y43413D01*
X30847Y43385D01*
X30936Y43296D01*
X31198Y43011D01*
X31571Y42408D01*
X31571Y42406D01*
X31573Y42320D01*
X31607Y42241D01*
X31714Y41705D01*
X31714Y41705D01*
X32023Y41243D01*
X32064Y41181D01*
X32064D01*
X32418Y40944D01*
X32588Y40830D01*
X32588Y40830D01*
X33206Y40707D01*
X33207Y40707D01*
X33408Y40748D01*
X33825Y40830D01*
X33825Y40830D01*
X33825Y40830D01*
X34349Y41181D01*
X34349Y41181D01*
X34463Y41351D01*
X34699Y41705D01*
X34699Y41705D01*
X34714Y41778D01*
X34822Y42323D01*
X35976Y43589D01*
X36681Y43537D01*
X36882Y43508D01*
X37500Y43385D01*
X37500Y43385D01*
X37701Y43425D01*
X38118Y43508D01*
X38118Y43508D01*
X38472Y43744D01*
X38642Y43858D01*
X38642Y43858D01*
X38992Y44382D01*
X39115Y45000D01*
X39115Y45000D01*
X39075Y45201D01*
X38992Y45618D01*
X38992Y45618D01*
X38777Y45940D01*
X38778Y45941D01*
X38776Y45949D01*
X38776Y45954D01*
X38771Y45969D01*
X38770Y45973D01*
X38769Y45984D01*
X38750Y46282D01*
X38749Y46376D01*
X38723Y46437D01*
Y53881D01*
X38630Y54349D01*
X38365Y54746D01*
X36485Y56626D01*
X36460Y56688D01*
X36388Y56761D01*
X36276Y56882D01*
X36202Y56970D01*
X36190Y56988D01*
X36187Y56992D01*
X36180Y57006D01*
X36176Y57008D01*
X36172Y57016D01*
X36171Y57016D01*
X36108Y57333D01*
X36096Y57396D01*
X36096Y57396D01*
X35840Y58261D01*
X36142Y59358D01*
X36162Y59387D01*
X36378Y59711D01*
X36492Y59882D01*
Y59882D01*
X36615Y60500D01*
X36615Y60500D01*
X36492Y61118D01*
X36492Y61118D01*
X36142Y61642D01*
X36142Y61642D01*
X35618Y61992D01*
X35618Y61992D01*
X35545Y62007D01*
X35545Y62007D01*
X35417Y62032D01*
X35000Y62115D01*
X35000Y62115D01*
D02*
G37*
%LPD*%
G36*
X34990Y59516D02*
X34883Y59514D01*
X34782Y59505D01*
X34684Y59490D01*
X34591Y59469D01*
X34503Y59441D01*
X34420Y59407D01*
X34341Y59367D01*
X34266Y59320D01*
X34197Y59267D01*
X34132Y59207D01*
X33707Y59632D01*
X33767Y59697D01*
X33820Y59767D01*
X33867Y59841D01*
X33907Y59920D01*
X33941Y60003D01*
X33969Y60091D01*
X33990Y60184D01*
X34005Y60281D01*
X34014Y60383D01*
X34016Y60490D01*
X34990Y59516D01*
D02*
G37*
G36*
X35591Y56740D02*
X35603Y56707D01*
X35624Y56667D01*
X35653Y56622D01*
X35689Y56572D01*
X35788Y56453D01*
X35919Y56312D01*
X35997Y56233D01*
X35148Y55384D01*
X35069Y55462D01*
X34809Y55692D01*
X34759Y55729D01*
X34714Y55757D01*
X34675Y55777D01*
X34641Y55790D01*
X34613Y55793D01*
X35588Y56768D01*
X35591Y56740D01*
D02*
G37*
G36*
X34401Y51262D02*
X34380Y51240D01*
X34361Y51211D01*
X34345Y51175D01*
X34331Y51132D01*
X34320Y51083D01*
X34311Y51027D01*
X34305Y50963D01*
X34300Y50817D01*
X33700D01*
X33699Y50893D01*
X33689Y51027D01*
X33680Y51083D01*
X33669Y51132D01*
X33655Y51175D01*
X33639Y51211D01*
X33620Y51240D01*
X33599Y51262D01*
X33575Y51278D01*
X34425D01*
X34401Y51262D01*
D02*
G37*
G36*
X33684Y49668D02*
X33696Y49581D01*
X33715Y49496D01*
X33742Y49411D01*
X33777Y49328D01*
X33820Y49246D01*
X33871Y49166D01*
X33929Y49086D01*
X33995Y49008D01*
X34069Y48931D01*
X32691D01*
X32765Y49008D01*
X32831Y49086D01*
X32890Y49166D01*
X32940Y49246D01*
X32983Y49328D01*
X33018Y49411D01*
X33045Y49496D01*
X33065Y49581D01*
X33076Y49668D01*
X33080Y49756D01*
X33680D01*
X33684Y49668D01*
D02*
G37*
G36*
X38101Y46260D02*
X38122Y45913D01*
X38132Y45852D01*
X38144Y45800D01*
X38157Y45757D01*
X38172Y45725D01*
X38189Y45703D01*
X36811D01*
X36828Y45725D01*
X36843Y45757D01*
X36856Y45800D01*
X36868Y45852D01*
X36878Y45913D01*
X36892Y46067D01*
X36899Y46260D01*
X36900Y46371D01*
X38100D01*
X38101Y46260D01*
D02*
G37*
G36*
X32403Y43556D02*
X32473Y43503D01*
X32547Y43456D01*
X32626Y43415D01*
X32710Y43381D01*
X32798Y43354D01*
X32891Y43332D01*
X32988Y43318D01*
X33090Y43309D01*
X33197Y43307D01*
X32222Y42333D01*
X32220Y42439D01*
X32212Y42541D01*
X32197Y42639D01*
X32176Y42731D01*
X32148Y42820D01*
X32114Y42903D01*
X32074Y42982D01*
X32027Y43056D01*
X31974Y43126D01*
X31914Y43191D01*
X32338Y43615D01*
X32403Y43556D01*
D02*
G37*
D10*
X60988Y12000D02*
Y13974D01*
X58877Y16084D02*
X60988Y13974D01*
X55084Y16084D02*
X58877D01*
X52803Y13803D02*
X55084Y16084D01*
X41000Y13803D02*
X52803D01*
D13*
X24016Y71161D02*
Y75534D01*
Y71161D02*
X29839D01*
X8268D02*
X24016D01*
X8268D02*
Y76500D01*
X24016Y27264D02*
X30996D01*
X8268D02*
X24016D01*
X41000Y13803D02*
Y26619D01*
Y7000D02*
Y13803D01*
Y7000D02*
X46500Y1500D01*
X128000D02*
X148500Y22000D01*
X46500Y1500D02*
X128000D01*
X41000Y26619D02*
X43000D01*
X39000D02*
X41000D01*
X148500Y22000D02*
Y29213D01*
D15*
X31496Y56996D02*
X35000Y60500D01*
X33380Y48228D02*
Y50197D01*
X34000Y50817D01*
Y52165D01*
X31496Y44033D02*
Y56996D01*
Y44033D02*
X33207Y42323D01*
X73000Y59469D02*
Y75500D01*
X136118Y49213D02*
X148500D01*
X131000Y54331D02*
X136118Y49213D01*
X131000Y54331D02*
Y57000D01*
X139500Y64000D02*
X143000D01*
X133500Y70000D02*
X139500Y64000D01*
X131000Y57000D02*
X133500Y59500D01*
X140213Y59213D02*
X148500D01*
X135500Y54500D02*
X140213Y59213D01*
X133500Y54500D02*
X135500D01*
X69000Y89500D02*
X74500Y95000D01*
X69000Y42739D02*
Y89500D01*
X91500Y95000D02*
X97000Y89500D01*
X74500Y95000D02*
X91500D01*
X73000Y75500D02*
X87000Y89500D01*
X76000Y65000D02*
X77500Y66500D01*
X96000D01*
X97731Y64769D01*
X122000D01*
X149606Y0D02*
G03*
X157480Y7874I0J7874D01*
G01*
X0D02*
G03*
X7874Y0I7874J0D01*
G01*
Y98425D02*
G03*
X0Y90551I0J-7874D01*
G01*
X157480D02*
G03*
X149606Y98425I-7874J0D01*
G01*
X0Y7874D02*
Y31496D01*
Y66929D02*
Y90551D01*
X7874Y98425D02*
X149606Y98425D01*
X157480Y7874D02*
Y90551D01*
X7874Y0D02*
X149606D01*
D18*
X27165Y66929D02*
G03*
X27165Y66929I-1575J0D01*
G01*
Y31496D02*
G03*
X27165Y31496I-1575J0D01*
G01*
X0D02*
X25984D01*
Y66929D01*
X0D02*
X25984D01*
D28*
X148500Y59213D02*
D03*
Y39213D02*
D03*
Y49213D02*
D03*
Y69213D02*
D03*
D29*
Y29213D02*
D03*
D63*
X62133Y3850D02*
X87205D01*
X56488Y9495D02*
X62133Y3850D01*
X56488Y9495D02*
Y12118D01*
X88606Y5618D02*
Y7500D01*
Y5252D02*
Y5618D01*
X87205Y3850D02*
X88606Y5252D01*
X56488Y12118D02*
Y14000D01*
X50000Y16500D02*
Y26987D01*
X44175Y32812D02*
X50000Y26987D01*
X44175Y32812D02*
Y41500D01*
Y43500D01*
X131500Y73500D02*
X136000D01*
X127000Y69000D02*
X131500Y73500D01*
X127000Y63500D02*
Y69000D01*
X140287Y69213D02*
X144000D01*
X136000Y73500D02*
X140287Y69213D01*
X144000D02*
X148500D01*
X93000Y62000D02*
X125500D01*
X127000Y63500D01*
X93000Y58000D02*
Y62000D01*
Y64524D01*
D64*
X37500Y45000D02*
Y53881D01*
X34603Y56778D02*
X37500Y53881D01*
D66*
X8268Y27264D02*
D03*
Y71161D02*
D03*
D67*
X24016Y27264D02*
D03*
Y71161D02*
D03*
D68*
X97000Y89500D02*
D03*
D69*
X87000D02*
D03*
X77000D02*
D03*
D70*
X32000Y64769D02*
D03*
X29500D02*
D03*
X32000Y33656D02*
D03*
X29500D02*
D03*
X60988Y12000D02*
D03*
X88606Y7500D02*
D03*
Y5618D02*
D03*
X56488Y14000D02*
D03*
Y12118D02*
D03*
X23000Y17000D02*
D03*
X26000D02*
D03*
Y19500D02*
D03*
X23000D02*
D03*
X20000Y17000D02*
D03*
Y19500D02*
D03*
X23000Y7874D02*
D03*
X20000D02*
D03*
Y5374D02*
D03*
X23000D02*
D03*
X26000Y7874D02*
D03*
Y5374D02*
D03*
X44175Y43500D02*
D03*
Y41500D02*
D03*
X37500Y45000D02*
D03*
X34603Y56778D02*
D03*
X34000Y52165D02*
D03*
X42000Y50197D02*
D03*
X43500Y56500D02*
D03*
X43000Y26619D02*
D03*
X39000D02*
D03*
X41000D02*
D03*
X33207Y42323D02*
D03*
X33380Y48228D02*
D03*
X138037Y59796D02*
D03*
X138000Y46751D02*
D03*
Y41128D02*
D03*
X138037Y62427D02*
D03*
X87555Y42496D02*
D03*
X83742Y46025D02*
D03*
X90500D02*
D03*
Y38138D02*
D03*
X152841Y43881D02*
D03*
X144344D02*
D03*
X148538D02*
D03*
X44175Y21382D02*
D03*
X55843Y21501D02*
D03*
X79500Y7000D02*
D03*
X73000Y59469D02*
D03*
X50000Y16500D02*
D03*
X133500Y49000D02*
D03*
X143000Y64000D02*
D03*
X133500Y70000D02*
D03*
X152841Y69213D02*
D03*
X144000D02*
D03*
X148538D02*
D03*
X133500Y54500D02*
D03*
X130618Y29487D02*
D03*
X96369Y43881D02*
D03*
X71215Y57500D02*
D03*
X92000Y89500D02*
D03*
X84023Y78514D02*
D03*
X71551Y82000D02*
D03*
X71500Y87000D02*
D03*
X76463Y82500D02*
D03*
X71000Y76000D02*
D03*
X45059Y70500D02*
D03*
Y63074D02*
D03*
X71500Y51831D02*
D03*
X107209Y14719D02*
D03*
Y21000D02*
D03*
Y27820D02*
D03*
X90232Y60505D02*
D03*
X86308Y56674D02*
D03*
X89815Y52374D02*
D03*
X98818Y40500D02*
D03*
X95717Y37316D02*
D03*
X75500Y72323D02*
D03*
X98749Y59137D02*
D03*
X71697Y47000D02*
D03*
X81500Y52000D02*
D03*
X101904Y43357D02*
D03*
X94000Y77119D02*
D03*
X55000Y76000D02*
D03*
X69000Y42739D02*
D03*
X93000Y58000D02*
D03*
X76000Y65000D02*
D03*
X122000Y64769D02*
D03*
X93000Y64524D02*
D03*
X133500Y59500D02*
D03*
X35000Y60500D02*
D03*
D71*
X149606Y90551D02*
D03*
X7874D02*
D03*
X149606Y7874D02*
D03*
X7874D02*
D03*
M02*
