G04*
G04 #@! TF.GenerationSoftware,Altium Limited,Altium Designer,18.1.9 (240)*
G04*
G04 Layer_Color=8421504*
%FSLAX25Y25*%
%MOIN*%
G70*
G01*
G75*
%ADD15C,0.00600*%
%ADD18C,0.00500*%
%ADD20R,0.02200X0.01300*%
%ADD21R,0.04528X0.01181*%
G04:AMPARAMS|DCode=22|XSize=31.5mil|YSize=27.56mil|CornerRadius=0mil|HoleSize=0mil|Usage=FLASHONLY|Rotation=0.000|XOffset=0mil|YOffset=0mil|HoleType=Round|Shape=Octagon|*
%AMOCTAGOND22*
4,1,8,0.01575,-0.00689,0.01575,0.00689,0.00886,0.01378,-0.00886,0.01378,-0.01575,0.00689,-0.01575,-0.00689,-0.00886,-0.01378,0.00886,-0.01378,0.01575,-0.00689,0.0*
%
%ADD22OCTAGOND22*%

%ADD23R,0.03150X0.02756*%
%ADD24R,0.03000X0.03000*%
G04:AMPARAMS|DCode=25|XSize=11mil|YSize=70.87mil|CornerRadius=0mil|HoleSize=0mil|Usage=FLASHONLY|Rotation=225.000|XOffset=0mil|YOffset=0mil|HoleType=Round|Shape=Round|*
%AMOVALD25*
21,1,0.05987,0.01100,0.00000,0.00000,315.0*
1,1,0.01100,-0.02117,0.02117*
1,1,0.01100,0.02117,-0.02117*
%
%ADD25OVALD25*%

%ADD26R,0.05000X0.06500*%
%ADD27P,0.04243X4X180.0*%
%ADD28O,0.13780X0.04016*%
%ADD29R,0.13780X0.04016*%
%ADD30R,0.05118X0.04724*%
%ADD31R,0.03000X0.03000*%
G04:AMPARAMS|DCode=32|XSize=70.87mil|YSize=118.11mil|CornerRadius=0mil|HoleSize=0mil|Usage=FLASHONLY|Rotation=270.000|XOffset=0mil|YOffset=0mil|HoleType=Round|Shape=Octagon|*
%AMOCTAGOND32*
4,1,8,0.05906,0.01772,0.05906,-0.01772,0.04134,-0.03543,-0.04134,-0.03543,-0.05906,-0.01772,-0.05906,0.01772,-0.04134,0.03543,0.04134,0.03543,0.05906,0.01772,0.0*
%
%ADD32OCTAGOND32*%

%ADD33R,0.04724X0.02362*%
%ADD34R,0.08268X0.02362*%
%ADD35P,0.04243X4X270.0*%
G04:AMPARAMS|DCode=36|XSize=11mil|YSize=70.87mil|CornerRadius=0mil|HoleSize=0mil|Usage=FLASHONLY|Rotation=135.000|XOffset=0mil|YOffset=0mil|HoleType=Round|Shape=Round|*
%AMOVALD36*
21,1,0.05987,0.01100,0.00000,0.00000,225.0*
1,1,0.01100,0.02117,0.02117*
1,1,0.01100,-0.02117,-0.02117*
%
%ADD36OVALD36*%

%ADD37R,0.03937X0.01772*%
%ADD38P,0.03409X8X22.5*%
%ADD39R,0.03150X0.03150*%
D15*
X149606Y0D02*
G03*
X157480Y7874I0J7874D01*
G01*
X0D02*
G03*
X7874Y0I7874J0D01*
G01*
Y98425D02*
G03*
X0Y90551I0J-7874D01*
G01*
X157480D02*
G03*
X149606Y98425I-7874J0D01*
G01*
X0Y7874D02*
Y31496D01*
Y66929D02*
Y90551D01*
X7874Y98425D02*
X149606Y98425D01*
X157480Y7874D02*
Y90551D01*
X7874Y0D02*
X149606D01*
D18*
X27165Y66929D02*
G03*
X27165Y66929I-1575J0D01*
G01*
Y31496D02*
G03*
X27165Y31496I-1575J0D01*
G01*
X0D02*
X25984D01*
Y66929D01*
X0D02*
X25984D01*
D20*
X46649Y52165D02*
D03*
Y50197D02*
D03*
Y48228D02*
D03*
X39349D02*
D03*
Y50197D02*
D03*
Y52165D02*
D03*
D21*
X29134Y62598D02*
D03*
Y61417D02*
D03*
Y35827D02*
D03*
Y37008D02*
D03*
Y59449D02*
D03*
Y56102D02*
D03*
Y54134D02*
D03*
Y52165D02*
D03*
Y38976D02*
D03*
Y58268D02*
D03*
Y40157D02*
D03*
Y42323D02*
D03*
Y44291D02*
D03*
Y46260D02*
D03*
Y50197D02*
D03*
Y48228D02*
D03*
D22*
X53000Y32500D02*
D03*
D23*
X46307D02*
D03*
D24*
X83500Y17000D02*
D03*
X88618D02*
D03*
X130618Y34000D02*
D03*
X125500D02*
D03*
X118118Y33656D02*
D03*
X113000D02*
D03*
X119118Y12000D02*
D03*
X114000D02*
D03*
X97000Y17000D02*
D03*
X102118D02*
D03*
X97000Y12000D02*
D03*
X102118D02*
D03*
X45059Y66000D02*
D03*
X39941D02*
D03*
X45059Y60148D02*
D03*
X39941D02*
D03*
X36118Y87500D02*
D03*
X31000D02*
D03*
X125500Y59500D02*
D03*
X130618D02*
D03*
X125500Y54500D02*
D03*
X130618D02*
D03*
X125500Y75000D02*
D03*
X130618D02*
D03*
X125500Y70000D02*
D03*
X130618D02*
D03*
X125500Y64769D02*
D03*
X130618D02*
D03*
Y49213D02*
D03*
X125500D02*
D03*
X130618Y44000D02*
D03*
X125500D02*
D03*
Y39000D02*
D03*
X130618D02*
D03*
X88618Y12000D02*
D03*
X83500D02*
D03*
X36118Y81500D02*
D03*
X31000D02*
D03*
X69118Y17000D02*
D03*
X64000D02*
D03*
X69118Y7000D02*
D03*
X64000D02*
D03*
Y12000D02*
D03*
X69118D02*
D03*
D25*
X78175Y57078D02*
D03*
X79567Y58470D02*
D03*
X73999Y52902D02*
D03*
X75391Y54294D02*
D03*
X76783Y55686D02*
D03*
X80959Y59862D02*
D03*
X82350Y61254D02*
D03*
X83742Y62646D02*
D03*
X85134Y64038D02*
D03*
X86526Y65430D02*
D03*
X87918Y66822D02*
D03*
X89310Y68214D02*
D03*
X112001Y45523D02*
D03*
X110609Y44131D02*
D03*
X109217Y42739D02*
D03*
X107825Y41347D02*
D03*
X106433Y39955D02*
D03*
X105041Y38563D02*
D03*
X103649Y37171D02*
D03*
X102258Y35779D02*
D03*
X100866Y34387D02*
D03*
X99474Y32995D02*
D03*
X98082Y31603D02*
D03*
X96690Y30211D02*
D03*
D26*
X53000Y40213D02*
D03*
X39500D02*
D03*
D27*
X106028Y71690D02*
D03*
X102409Y75309D02*
D03*
D28*
X148500Y39213D02*
D03*
Y59213D02*
D03*
Y49213D02*
D03*
Y29213D02*
D03*
D29*
Y69213D02*
D03*
D30*
X114000Y19000D02*
D03*
X122268D02*
D03*
Y25693D02*
D03*
X114000D02*
D03*
D31*
X53000Y11382D02*
D03*
Y16500D02*
D03*
Y21501D02*
D03*
Y26619D02*
D03*
X47000Y21382D02*
D03*
Y26500D02*
D03*
X77000Y12118D02*
D03*
Y7000D02*
D03*
X129000Y20673D02*
D03*
Y25791D02*
D03*
X47000Y11382D02*
D03*
Y16500D02*
D03*
D32*
X23200Y12500D02*
D03*
D33*
X34693Y18406D02*
D03*
Y6594D02*
D03*
D34*
X33000Y12500D02*
D03*
D35*
X61619Y67426D02*
D03*
X58000Y63807D02*
D03*
X65381Y56381D02*
D03*
X69000Y60000D02*
D03*
X57810Y71310D02*
D03*
X54190Y67691D02*
D03*
X61690Y60106D02*
D03*
X65310Y63725D02*
D03*
X83260Y74040D02*
D03*
X79641Y70421D02*
D03*
D36*
X89310Y30211D02*
D03*
X87918Y31603D02*
D03*
X86526Y32995D02*
D03*
X85134Y34387D02*
D03*
X83742Y35779D02*
D03*
X82350Y37171D02*
D03*
X80959Y38563D02*
D03*
X79567Y39955D02*
D03*
X78175Y41347D02*
D03*
X76783Y42739D02*
D03*
X75391Y44131D02*
D03*
X73999Y45523D02*
D03*
X96690Y68214D02*
D03*
X98082Y66822D02*
D03*
X99474Y65430D02*
D03*
X100866Y64038D02*
D03*
X102258Y62646D02*
D03*
X103649Y61254D02*
D03*
X105041Y59862D02*
D03*
X106433Y58470D02*
D03*
X107825Y57078D02*
D03*
X109217Y55686D02*
D03*
X110609Y54294D02*
D03*
X112001Y52902D02*
D03*
D37*
X62071Y28590D02*
D03*
X71000Y32330D02*
D03*
Y24850D02*
D03*
D38*
X47905Y87500D02*
D03*
Y81500D02*
D03*
D39*
X42000Y87500D02*
D03*
Y81500D02*
D03*
M02*
