G04*
G04 #@! TF.GenerationSoftware,Altium Limited,Altium Designer,18.1.9 (240)*
G04*
G04 Layer_Color=2752767*
%FSLAX25Y25*%
%MOIN*%
G70*
G01*
G75*
%ADD15C,0.00600*%
%ADD18C,0.00500*%
%ADD77C,0.00200*%
%ADD78C,0.00267*%
D15*
X149606Y0D02*
G03*
X157480Y7874I0J7874D01*
G01*
X0D02*
G03*
X7874Y0I7874J0D01*
G01*
Y98425D02*
G03*
X0Y90551I0J-7874D01*
G01*
X157480D02*
G03*
X149606Y98425I-7874J0D01*
G01*
X0Y7874D02*
Y31496D01*
Y66929D02*
Y90551D01*
X7874Y98425D02*
X149606Y98425D01*
X157480Y7874D02*
Y90551D01*
X7874Y0D02*
X149606D01*
D18*
X27165Y66929D02*
G03*
X27165Y66929I-1575J0D01*
G01*
Y31496D02*
G03*
X27165Y31496I-1575J0D01*
G01*
X0D02*
X25984D01*
Y66929D01*
X0D02*
X25984D01*
D77*
X7468Y26464D02*
Y28064D01*
X9068D01*
Y26464D01*
X7468D01*
Y70361D02*
Y71961D01*
X9068D01*
Y70361D01*
X7468D01*
X97000Y88700D02*
X96200Y90300D01*
X97800D01*
X97000Y88700D01*
X87000D02*
X86200Y90300D01*
X87800D01*
X87000Y88700D01*
X77000D02*
X76200Y90300D01*
X77800D01*
X77000Y88700D01*
X32000Y63969D02*
X32400Y64369D01*
X32800D01*
X32400Y64769D01*
X32800Y65169D01*
X32400D01*
X32000Y65569D01*
X31600Y65169D01*
X31200D01*
X31600Y64769D01*
X31200Y64369D01*
X31600D01*
X32000Y63969D01*
X29500D02*
X29900Y64369D01*
X30300D01*
X29900Y64769D01*
X30300Y65169D01*
X29900D01*
X29500Y65569D01*
X29100Y65169D01*
X28700D01*
X29100Y64769D01*
X28700Y64369D01*
X29100D01*
X29500Y63969D01*
X32000Y32856D02*
X32400Y33256D01*
X32800D01*
X32400Y33656D01*
X32800Y34056D01*
X32400D01*
X32000Y34456D01*
X31600Y34056D01*
X31200D01*
X31600Y33656D01*
X31200Y33256D01*
X31600D01*
X32000Y32856D01*
X29500D02*
X29900Y33256D01*
X30300D01*
X29900Y33656D01*
X30300Y34056D01*
X29900D01*
X29500Y34456D01*
X29100Y34056D01*
X28700D01*
X29100Y33656D01*
X28700Y33256D01*
X29100D01*
X29500Y32856D01*
X60988Y11200D02*
X61388Y11600D01*
X61788D01*
X61388Y12000D01*
X61788Y12400D01*
X61388D01*
X60988Y12800D01*
X60588Y12400D01*
X60188D01*
X60588Y12000D01*
X60188Y11600D01*
X60588D01*
X60988Y11200D01*
X88606Y6700D02*
X89006Y7100D01*
X89406D01*
X89006Y7500D01*
X89406Y7900D01*
X89006D01*
X88606Y8300D01*
X88206Y7900D01*
X87806D01*
X88206Y7500D01*
X87806Y7100D01*
X88206D01*
X88606Y6700D01*
Y4818D02*
X89006Y5218D01*
X89406D01*
X89006Y5618D01*
X89406Y6018D01*
X89006D01*
X88606Y6418D01*
X88206Y6018D01*
X87806D01*
X88206Y5618D01*
X87806Y5218D01*
X88206D01*
X88606Y4818D01*
X56488Y13200D02*
X56888Y13600D01*
X57288D01*
X56888Y14000D01*
X57288Y14400D01*
X56888D01*
X56488Y14800D01*
X56088Y14400D01*
X55688D01*
X56088Y14000D01*
X55688Y13600D01*
X56088D01*
X56488Y13200D01*
Y11318D02*
X56888Y11718D01*
X57288D01*
X56888Y12118D01*
X57288Y12518D01*
X56888D01*
X56488Y12918D01*
X56088Y12518D01*
X55688D01*
X56088Y12118D01*
X55688Y11718D01*
X56088D01*
X56488Y11318D01*
X23000Y16200D02*
X23400Y16600D01*
X23800D01*
X23400Y17000D01*
X23800Y17400D01*
X23400D01*
X23000Y17800D01*
X22600Y17400D01*
X22200D01*
X22600Y17000D01*
X22200Y16600D01*
X22600D01*
X23000Y16200D01*
X26000D02*
X26400Y16600D01*
X26800D01*
X26400Y17000D01*
X26800Y17400D01*
X26400D01*
X26000Y17800D01*
X25600Y17400D01*
X25200D01*
X25600Y17000D01*
X25200Y16600D01*
X25600D01*
X26000Y16200D01*
Y18700D02*
X26400Y19100D01*
X26800D01*
X26400Y19500D01*
X26800Y19900D01*
X26400D01*
X26000Y20300D01*
X25600Y19900D01*
X25200D01*
X25600Y19500D01*
X25200Y19100D01*
X25600D01*
X26000Y18700D01*
X23000D02*
X23400Y19100D01*
X23800D01*
X23400Y19500D01*
X23800Y19900D01*
X23400D01*
X23000Y20300D01*
X22600Y19900D01*
X22200D01*
X22600Y19500D01*
X22200Y19100D01*
X22600D01*
X23000Y18700D01*
X20000Y16200D02*
X20400Y16600D01*
X20800D01*
X20400Y17000D01*
X20800Y17400D01*
X20400D01*
X20000Y17800D01*
X19600Y17400D01*
X19200D01*
X19600Y17000D01*
X19200Y16600D01*
X19600D01*
X20000Y16200D01*
Y18700D02*
X20400Y19100D01*
X20800D01*
X20400Y19500D01*
X20800Y19900D01*
X20400D01*
X20000Y20300D01*
X19600Y19900D01*
X19200D01*
X19600Y19500D01*
X19200Y19100D01*
X19600D01*
X20000Y18700D01*
X23000Y7074D02*
X23400Y7474D01*
X23800D01*
X23400Y7874D01*
X23800Y8274D01*
X23400D01*
X23000Y8674D01*
X22600Y8274D01*
X22200D01*
X22600Y7874D01*
X22200Y7474D01*
X22600D01*
X23000Y7074D01*
X20000D02*
X20400Y7474D01*
X20800D01*
X20400Y7874D01*
X20800Y8274D01*
X20400D01*
X20000Y8674D01*
X19600Y8274D01*
X19200D01*
X19600Y7874D01*
X19200Y7474D01*
X19600D01*
X20000Y7074D01*
Y4574D02*
X20400Y4974D01*
X20800D01*
X20400Y5374D01*
X20800Y5774D01*
X20400D01*
X20000Y6174D01*
X19600Y5774D01*
X19200D01*
X19600Y5374D01*
X19200Y4974D01*
X19600D01*
X20000Y4574D01*
X23000D02*
X23400Y4974D01*
X23800D01*
X23400Y5374D01*
X23800Y5774D01*
X23400D01*
X23000Y6174D01*
X22600Y5774D01*
X22200D01*
X22600Y5374D01*
X22200Y4974D01*
X22600D01*
X23000Y4574D01*
X26000Y7074D02*
X26400Y7474D01*
X26800D01*
X26400Y7874D01*
X26800Y8274D01*
X26400D01*
X26000Y8674D01*
X25600Y8274D01*
X25200D01*
X25600Y7874D01*
X25200Y7474D01*
X25600D01*
X26000Y7074D01*
Y4574D02*
X26400Y4974D01*
X26800D01*
X26400Y5374D01*
X26800Y5774D01*
X26400D01*
X26000Y6174D01*
X25600Y5774D01*
X25200D01*
X25600Y5374D01*
X25200Y4974D01*
X25600D01*
X26000Y4574D01*
X44175Y42700D02*
X44575Y43100D01*
X44975D01*
X44575Y43500D01*
X44975Y43900D01*
X44575D01*
X44175Y44300D01*
X43775Y43900D01*
X43375D01*
X43775Y43500D01*
X43375Y43100D01*
X43775D01*
X44175Y42700D01*
Y40700D02*
X44575Y41100D01*
X44975D01*
X44575Y41500D01*
X44975Y41900D01*
X44575D01*
X44175Y42300D01*
X43775Y41900D01*
X43375D01*
X43775Y41500D01*
X43375Y41100D01*
X43775D01*
X44175Y40700D01*
X37500Y44200D02*
X37900Y44600D01*
X38300D01*
X37900Y45000D01*
X38300Y45400D01*
X37900D01*
X37500Y45800D01*
X37100Y45400D01*
X36700D01*
X37100Y45000D01*
X36700Y44600D01*
X37100D01*
X37500Y44200D01*
X34603Y55978D02*
X35003Y56378D01*
X35403D01*
X35003Y56778D01*
X35403Y57178D01*
X35003D01*
X34603Y57578D01*
X34203Y57178D01*
X33803D01*
X34203Y56778D01*
X33803Y56378D01*
X34203D01*
X34603Y55978D01*
X34000Y51365D02*
X34400Y51765D01*
X34800D01*
X34400Y52165D01*
X34800Y52565D01*
X34400D01*
X34000Y52965D01*
X33600Y52565D01*
X33200D01*
X33600Y52165D01*
X33200Y51765D01*
X33600D01*
X34000Y51365D01*
X42000Y49397D02*
X42400Y49797D01*
X42800D01*
X42400Y50197D01*
X42800Y50597D01*
X42400D01*
X42000Y50997D01*
X41600Y50597D01*
X41200D01*
X41600Y50197D01*
X41200Y49797D01*
X41600D01*
X42000Y49397D01*
X43500Y55700D02*
X43900Y56100D01*
X44300D01*
X43900Y56500D01*
X44300Y56900D01*
X43900D01*
X43500Y57300D01*
X43100Y56900D01*
X42700D01*
X43100Y56500D01*
X42700Y56100D01*
X43100D01*
X43500Y55700D01*
X43000Y25819D02*
X43400Y26219D01*
X43800D01*
X43400Y26619D01*
X43800Y27019D01*
X43400D01*
X43000Y27419D01*
X42600Y27019D01*
X42200D01*
X42600Y26619D01*
X42200Y26219D01*
X42600D01*
X43000Y25819D01*
X39000D02*
X39400Y26219D01*
X39800D01*
X39400Y26619D01*
X39800Y27019D01*
X39400D01*
X39000Y27419D01*
X38600Y27019D01*
X38200D01*
X38600Y26619D01*
X38200Y26219D01*
X38600D01*
X39000Y25819D01*
X41000D02*
X41400Y26219D01*
X41800D01*
X41400Y26619D01*
X41800Y27019D01*
X41400D01*
X41000Y27419D01*
X40600Y27019D01*
X40200D01*
X40600Y26619D01*
X40200Y26219D01*
X40600D01*
X41000Y25819D01*
X33207Y41523D02*
X33607Y41923D01*
X34007D01*
X33607Y42323D01*
X34007Y42723D01*
X33607D01*
X33207Y43123D01*
X32807Y42723D01*
X32407D01*
X32807Y42323D01*
X32407Y41923D01*
X32807D01*
X33207Y41523D01*
X33380Y47428D02*
X33780Y47828D01*
X34180D01*
X33780Y48228D01*
X34180Y48628D01*
X33780D01*
X33380Y49028D01*
X32980Y48628D01*
X32580D01*
X32980Y48228D01*
X32580Y47828D01*
X32980D01*
X33380Y47428D01*
X138037Y58996D02*
X138437Y59396D01*
X138837D01*
X138437Y59796D01*
X138837Y60196D01*
X138437D01*
X138037Y60596D01*
X137637Y60196D01*
X137237D01*
X137637Y59796D01*
X137237Y59396D01*
X137637D01*
X138037Y58996D01*
X138000Y45951D02*
X138400Y46351D01*
X138800D01*
X138400Y46751D01*
X138800Y47151D01*
X138400D01*
X138000Y47551D01*
X137600Y47151D01*
X137200D01*
X137600Y46751D01*
X137200Y46351D01*
X137600D01*
X138000Y45951D01*
Y40328D02*
X138400Y40728D01*
X138800D01*
X138400Y41128D01*
X138800Y41528D01*
X138400D01*
X138000Y41928D01*
X137600Y41528D01*
X137200D01*
X137600Y41128D01*
X137200Y40728D01*
X137600D01*
X138000Y40328D01*
X138037Y61627D02*
X138437Y62027D01*
X138837D01*
X138437Y62427D01*
X138837Y62827D01*
X138437D01*
X138037Y63227D01*
X137637Y62827D01*
X137237D01*
X137637Y62427D01*
X137237Y62027D01*
X137637D01*
X138037Y61627D01*
X87555Y41697D02*
X87955Y42096D01*
X88355D01*
X87955Y42496D01*
X88355Y42897D01*
X87955D01*
X87555Y43297D01*
X87155Y42897D01*
X86755D01*
X87155Y42496D01*
X86755Y42096D01*
X87155D01*
X87555Y41697D01*
X83742Y45225D02*
X84143Y45625D01*
X84543D01*
X84143Y46025D01*
X84543Y46425D01*
X84143D01*
X83742Y46825D01*
X83342Y46425D01*
X82942D01*
X83342Y46025D01*
X82942Y45625D01*
X83342D01*
X83742Y45225D01*
X90500D02*
X90900Y45625D01*
X91300D01*
X90900Y46025D01*
X91300Y46425D01*
X90900D01*
X90500Y46825D01*
X90100Y46425D01*
X89700D01*
X90100Y46025D01*
X89700Y45625D01*
X90100D01*
X90500Y45225D01*
Y37338D02*
X90900Y37738D01*
X91300D01*
X90900Y38138D01*
X91300Y38538D01*
X90900D01*
X90500Y38938D01*
X90100Y38538D01*
X89700D01*
X90100Y38138D01*
X89700Y37738D01*
X90100D01*
X90500Y37338D01*
X152841Y43081D02*
X153241Y43481D01*
X153641D01*
X153241Y43881D01*
X153641Y44281D01*
X153241D01*
X152841Y44681D01*
X152441Y44281D01*
X152041D01*
X152441Y43881D01*
X152041Y43481D01*
X152441D01*
X152841Y43081D01*
X144344D02*
X144745Y43481D01*
X145144D01*
X144745Y43881D01*
X145144Y44281D01*
X144745D01*
X144344Y44681D01*
X143945Y44281D01*
X143544D01*
X143945Y43881D01*
X143544Y43481D01*
X143945D01*
X144344Y43081D01*
X148538D02*
X148938Y43481D01*
X149338D01*
X148938Y43881D01*
X149338Y44281D01*
X148938D01*
X148538Y44681D01*
X148138Y44281D01*
X147738D01*
X148138Y43881D01*
X147738Y43481D01*
X148138D01*
X148538Y43081D01*
X44175Y20582D02*
X44575Y20982D01*
X44975D01*
X44575Y21382D01*
X44975Y21782D01*
X44575D01*
X44175Y22182D01*
X43775Y21782D01*
X43375D01*
X43775Y21382D01*
X43375Y20982D01*
X43775D01*
X44175Y20582D01*
X55843Y20701D02*
X56243Y21101D01*
X56643D01*
X56243Y21501D01*
X56643Y21901D01*
X56243D01*
X55843Y22301D01*
X55443Y21901D01*
X55043D01*
X55443Y21501D01*
X55043Y21101D01*
X55443D01*
X55843Y20701D01*
X79500Y6200D02*
X79900Y6600D01*
X80300D01*
X79900Y7000D01*
X80300Y7400D01*
X79900D01*
X79500Y7800D01*
X79100Y7400D01*
X78700D01*
X79100Y7000D01*
X78700Y6600D01*
X79100D01*
X79500Y6200D01*
X73000Y58669D02*
X73400Y59069D01*
X73800D01*
X73400Y59469D01*
X73800Y59869D01*
X73400D01*
X73000Y60269D01*
X72600Y59869D01*
X72200D01*
X72600Y59469D01*
X72200Y59069D01*
X72600D01*
X73000Y58669D01*
X50000Y15700D02*
X50400Y16100D01*
X50800D01*
X50400Y16500D01*
X50800Y16900D01*
X50400D01*
X50000Y17300D01*
X49600Y16900D01*
X49200D01*
X49600Y16500D01*
X49200Y16100D01*
X49600D01*
X50000Y15700D01*
X133500Y48200D02*
X133900Y48600D01*
X134300D01*
X133900Y49000D01*
X134300Y49400D01*
X133900D01*
X133500Y49800D01*
X133100Y49400D01*
X132700D01*
X133100Y49000D01*
X132700Y48600D01*
X133100D01*
X133500Y48200D01*
X143000Y63200D02*
X143400Y63600D01*
X143800D01*
X143400Y64000D01*
X143800Y64400D01*
X143400D01*
X143000Y64800D01*
X142600Y64400D01*
X142200D01*
X142600Y64000D01*
X142200Y63600D01*
X142600D01*
X143000Y63200D01*
X133500Y69200D02*
X133900Y69600D01*
X134300D01*
X133900Y70000D01*
X134300Y70400D01*
X133900D01*
X133500Y70800D01*
X133100Y70400D01*
X132700D01*
X133100Y70000D01*
X132700Y69600D01*
X133100D01*
X133500Y69200D01*
X152841Y68413D02*
X153241Y68813D01*
X153641D01*
X153241Y69213D01*
X153641Y69613D01*
X153241D01*
X152841Y70013D01*
X152441Y69613D01*
X152041D01*
X152441Y69213D01*
X152041Y68813D01*
X152441D01*
X152841Y68413D01*
X144000D02*
X144400Y68813D01*
X144800D01*
X144400Y69213D01*
X144800Y69613D01*
X144400D01*
X144000Y70013D01*
X143600Y69613D01*
X143200D01*
X143600Y69213D01*
X143200Y68813D01*
X143600D01*
X144000Y68413D01*
X148538D02*
X148938Y68813D01*
X149338D01*
X148938Y69213D01*
X149338Y69613D01*
X148938D01*
X148538Y70013D01*
X148138Y69613D01*
X147738D01*
X148138Y69213D01*
X147738Y68813D01*
X148138D01*
X148538Y68413D01*
X133500Y53700D02*
X133900Y54100D01*
X134300D01*
X133900Y54500D01*
X134300Y54900D01*
X133900D01*
X133500Y55300D01*
X133100Y54900D01*
X132700D01*
X133100Y54500D01*
X132700Y54100D01*
X133100D01*
X133500Y53700D01*
X130618Y28687D02*
X131018Y29087D01*
X131418D01*
X131018Y29487D01*
X131418Y29887D01*
X131018D01*
X130618Y30287D01*
X130218Y29887D01*
X129818D01*
X130218Y29487D01*
X129818Y29087D01*
X130218D01*
X130618Y28687D01*
X96369Y43081D02*
X96769Y43481D01*
X97169D01*
X96769Y43881D01*
X97169Y44281D01*
X96769D01*
X96369Y44681D01*
X95969Y44281D01*
X95569D01*
X95969Y43881D01*
X95569Y43481D01*
X95969D01*
X96369Y43081D01*
X71215Y56700D02*
X71615Y57100D01*
X72015D01*
X71615Y57500D01*
X72015Y57900D01*
X71615D01*
X71215Y58300D01*
X70815Y57900D01*
X70415D01*
X70815Y57500D01*
X70415Y57100D01*
X70815D01*
X71215Y56700D01*
X92000Y88700D02*
X92400Y89100D01*
X92800D01*
X92400Y89500D01*
X92800Y89900D01*
X92400D01*
X92000Y90300D01*
X91600Y89900D01*
X91200D01*
X91600Y89500D01*
X91200Y89100D01*
X91600D01*
X92000Y88700D01*
X84023Y77715D02*
X84423Y78114D01*
X84823D01*
X84423Y78514D01*
X84823Y78914D01*
X84423D01*
X84023Y79315D01*
X83623Y78914D01*
X83223D01*
X83623Y78514D01*
X83223Y78114D01*
X83623D01*
X84023Y77715D01*
X71551Y81200D02*
X71951Y81600D01*
X72351D01*
X71951Y82000D01*
X72351Y82400D01*
X71951D01*
X71551Y82800D01*
X71151Y82400D01*
X70751D01*
X71151Y82000D01*
X70751Y81600D01*
X71151D01*
X71551Y81200D01*
X71500Y86200D02*
X71900Y86600D01*
X72300D01*
X71900Y87000D01*
X72300Y87400D01*
X71900D01*
X71500Y87800D01*
X71100Y87400D01*
X70700D01*
X71100Y87000D01*
X70700Y86600D01*
X71100D01*
X71500Y86200D01*
X76463Y81700D02*
X76863Y82100D01*
X77263D01*
X76863Y82500D01*
X77263Y82900D01*
X76863D01*
X76463Y83300D01*
X76063Y82900D01*
X75663D01*
X76063Y82500D01*
X75663Y82100D01*
X76063D01*
X76463Y81700D01*
X71000Y75200D02*
X71400Y75600D01*
X71800D01*
X71400Y76000D01*
X71800Y76400D01*
X71400D01*
X71000Y76800D01*
X70600Y76400D01*
X70200D01*
X70600Y76000D01*
X70200Y75600D01*
X70600D01*
X71000Y75200D01*
X45059Y69700D02*
X45459Y70100D01*
X45859D01*
X45459Y70500D01*
X45859Y70900D01*
X45459D01*
X45059Y71300D01*
X44659Y70900D01*
X44259D01*
X44659Y70500D01*
X44259Y70100D01*
X44659D01*
X45059Y69700D01*
Y62274D02*
X45459Y62674D01*
X45859D01*
X45459Y63074D01*
X45859Y63474D01*
X45459D01*
X45059Y63874D01*
X44659Y63474D01*
X44259D01*
X44659Y63074D01*
X44259Y62674D01*
X44659D01*
X45059Y62274D01*
X71500Y51031D02*
X71900Y51431D01*
X72300D01*
X71900Y51831D01*
X72300Y52231D01*
X71900D01*
X71500Y52631D01*
X71100Y52231D01*
X70700D01*
X71100Y51831D01*
X70700Y51431D01*
X71100D01*
X71500Y51031D01*
X107209Y13919D02*
X107609Y14319D01*
X108009D01*
X107609Y14719D01*
X108009Y15119D01*
X107609D01*
X107209Y15519D01*
X106809Y15119D01*
X106409D01*
X106809Y14719D01*
X106409Y14319D01*
X106809D01*
X107209Y13919D01*
Y20200D02*
X107609Y20600D01*
X108009D01*
X107609Y21000D01*
X108009Y21400D01*
X107609D01*
X107209Y21800D01*
X106809Y21400D01*
X106409D01*
X106809Y21000D01*
X106409Y20600D01*
X106809D01*
X107209Y20200D01*
Y27020D02*
X107609Y27420D01*
X108009D01*
X107609Y27820D01*
X108009Y28220D01*
X107609D01*
X107209Y28620D01*
X106809Y28220D01*
X106409D01*
X106809Y27820D01*
X106409Y27420D01*
X106809D01*
X107209Y27020D01*
X90232Y59705D02*
X90632Y60105D01*
X91032D01*
X90632Y60505D01*
X91032Y60905D01*
X90632D01*
X90232Y61305D01*
X89833Y60905D01*
X89433D01*
X89833Y60505D01*
X89433Y60105D01*
X89833D01*
X90232Y59705D01*
X86308Y55874D02*
X86708Y56274D01*
X87108D01*
X86708Y56674D01*
X87108Y57074D01*
X86708D01*
X86308Y57474D01*
X85908Y57074D01*
X85508D01*
X85908Y56674D01*
X85508Y56274D01*
X85908D01*
X86308Y55874D01*
X89815Y51574D02*
X90215Y51974D01*
X90615D01*
X90215Y52374D01*
X90615Y52774D01*
X90215D01*
X89815Y53174D01*
X89415Y52774D01*
X89015D01*
X89415Y52374D01*
X89015Y51974D01*
X89415D01*
X89815Y51574D01*
X98818Y39700D02*
X99218Y40100D01*
X99618D01*
X99218Y40500D01*
X99618Y40900D01*
X99218D01*
X98818Y41300D01*
X98418Y40900D01*
X98018D01*
X98418Y40500D01*
X98018Y40100D01*
X98418D01*
X98818Y39700D01*
X95717Y36516D02*
X96117Y36916D01*
X96517D01*
X96117Y37316D01*
X96517Y37716D01*
X96117D01*
X95717Y38116D01*
X95316Y37716D01*
X94916D01*
X95316Y37316D01*
X94916Y36916D01*
X95316D01*
X95717Y36516D01*
X75500Y71523D02*
X75900Y71923D01*
X76300D01*
X75900Y72323D01*
X76300Y72723D01*
X75900D01*
X75500Y73123D01*
X75100Y72723D01*
X74700D01*
X75100Y72323D01*
X74700Y71923D01*
X75100D01*
X75500Y71523D01*
X98749Y58337D02*
X99149Y58737D01*
X99549D01*
X99149Y59137D01*
X99549Y59537D01*
X99149D01*
X98749Y59937D01*
X98349Y59537D01*
X97949D01*
X98349Y59137D01*
X97949Y58737D01*
X98349D01*
X98749Y58337D01*
X71697Y46200D02*
X72097Y46600D01*
X72497D01*
X72097Y47000D01*
X72497Y47400D01*
X72097D01*
X71697Y47800D01*
X71297Y47400D01*
X70897D01*
X71297Y47000D01*
X70897Y46600D01*
X71297D01*
X71697Y46200D01*
X81500Y51200D02*
X81900Y51600D01*
X82300D01*
X81900Y52000D01*
X82300Y52400D01*
X81900D01*
X81500Y52800D01*
X81100Y52400D01*
X80700D01*
X81100Y52000D01*
X80700Y51600D01*
X81100D01*
X81500Y51200D01*
X101904Y42557D02*
X102304Y42957D01*
X102704D01*
X102304Y43357D01*
X102704Y43757D01*
X102304D01*
X101904Y44157D01*
X101504Y43757D01*
X101104D01*
X101504Y43357D01*
X101104Y42957D01*
X101504D01*
X101904Y42557D01*
X94000Y76319D02*
X94400Y76719D01*
X94800D01*
X94400Y77119D01*
X94800Y77519D01*
X94400D01*
X94000Y77919D01*
X93600Y77519D01*
X93200D01*
X93600Y77119D01*
X93200Y76719D01*
X93600D01*
X94000Y76319D01*
X55000Y75200D02*
X55400Y75600D01*
X55800D01*
X55400Y76000D01*
X55800Y76400D01*
X55400D01*
X55000Y76800D01*
X54600Y76400D01*
X54200D01*
X54600Y76000D01*
X54200Y75600D01*
X54600D01*
X55000Y75200D01*
X69000Y41939D02*
X69400Y42339D01*
X69800D01*
X69400Y42739D01*
X69800Y43139D01*
X69400D01*
X69000Y43539D01*
X68600Y43139D01*
X68200D01*
X68600Y42739D01*
X68200Y42339D01*
X68600D01*
X69000Y41939D01*
X93000Y57200D02*
X93400Y57600D01*
X93800D01*
X93400Y58000D01*
X93800Y58400D01*
X93400D01*
X93000Y58800D01*
X92600Y58400D01*
X92200D01*
X92600Y58000D01*
X92200Y57600D01*
X92600D01*
X93000Y57200D01*
X76000Y64200D02*
X76400Y64600D01*
X76800D01*
X76400Y65000D01*
X76800Y65400D01*
X76400D01*
X76000Y65800D01*
X75600Y65400D01*
X75200D01*
X75600Y65000D01*
X75200Y64600D01*
X75600D01*
X76000Y64200D01*
X122000Y63969D02*
X122400Y64369D01*
X122800D01*
X122400Y64769D01*
X122800Y65169D01*
X122400D01*
X122000Y65569D01*
X121600Y65169D01*
X121200D01*
X121600Y64769D01*
X121200Y64369D01*
X121600D01*
X122000Y63969D01*
X93000Y63724D02*
X93400Y64124D01*
X93800D01*
X93400Y64524D01*
X93800Y64924D01*
X93400D01*
X93000Y65324D01*
X92600Y64924D01*
X92200D01*
X92600Y64524D01*
X92200Y64124D01*
X92600D01*
X93000Y63724D01*
X133500Y58700D02*
X133900Y59100D01*
X134300D01*
X133900Y59500D01*
X134300Y59900D01*
X133900D01*
X133500Y60300D01*
X133100Y59900D01*
X132700D01*
X133100Y59500D01*
X132700Y59100D01*
X133100D01*
X133500Y58700D01*
X148806Y89751D02*
X149206Y90551D01*
X148806Y91351D01*
X149606Y90951D01*
X150406Y91351D01*
X150006Y90551D01*
X150406Y89751D01*
X149606Y90151D01*
X148806Y89751D01*
X7074D02*
X7474Y90551D01*
X7074Y91351D01*
X7874Y90951D01*
X8674Y91351D01*
X8274Y90551D01*
X8674Y89751D01*
X7874Y90151D01*
X7074Y89751D01*
X148806Y7074D02*
X149206Y7874D01*
X148806Y8674D01*
X149606Y8274D01*
X150406Y8674D01*
X150006Y7874D01*
X150406Y7074D01*
X149606Y7474D01*
X148806Y7074D01*
X7074D02*
X7474Y7874D01*
X7074Y8674D01*
X7874Y8274D01*
X8674Y8674D01*
X8274Y7874D01*
X8674Y7074D01*
X7874Y7474D01*
X7074Y7074D01*
X35000Y59700D02*
X35400Y60100D01*
X35800D01*
X35400Y60500D01*
X35800Y60900D01*
X35400D01*
X35000Y61300D01*
X34600Y60900D01*
X34200D01*
X34600Y60500D01*
X34200Y60100D01*
X34600D01*
X35000Y59700D01*
D78*
X24816Y27264D02*
G03*
X24816Y27264I-800J0D01*
G01*
Y71161D02*
G03*
X24816Y71161I-800J0D01*
G01*
M02*
