M48
;Layer_Color=9474304
;FILE_FORMAT=2:5
INCH,LZ
;TYPE=PLATED
T1F00S00C0.01181
T3F00S00C0.03543
T4F00S00C0.08268
%
T01
X0130618Y0029487
X0138Y0041128
Y0046751
X01335Y0049
Y00545
Y00595
X0138037Y0059796
Y0062427
X0143Y0064
X0144Y0069213
X0148538
X0152841
X01335Y007
X0144344Y0043881
X0148538
X0152841
X0101904Y0043357
X0098818Y00405
X0096369Y0043881
X0095717Y0037316
X00905Y0038138
X0087555Y0042496
X00905Y0046025
X0083742
X00815Y0052
X0089815Y0052374
X0086308Y0056674
X0090232Y0060505
X0093Y0058
Y0064524
X0098749Y0059137
X0094Y0077119
X0084023Y0078514
X0076463Y00825
X0071551Y0082
X00715Y0087
X0071Y0076
X00755Y0072323
X0076Y0065
X0073Y0059469
X0071215Y00575
X00715Y0051831
X0071697Y0047
X0069Y0042739
X0044175Y00435
Y00415
X00375Y0045
X0033207Y0042323
X003338Y0048228
X0034Y0052165
X0034603Y0056778
X0035Y00605
X0032Y0064769
X00295
X0045059Y0063074
Y00705
X0055Y0076
X00435Y00565
X0042Y0050197
X0043Y0026619
X0041
X0039
X0044175Y0021382
X005Y00165
X0056488Y0014
Y0012118
X0060988Y0012
X0055843Y0021501
X0026Y00195
Y0017
X0023
Y00195
X002
Y0017
Y0007874
Y0005374
X0023
Y0007874
X0026
Y0005374
X00295Y0033656
X0032
X00795Y0007
X0088606Y00075
Y0005618
X0107209Y0014719
Y0021
Y002782
X0122Y0064769
X0092Y00895
T03
X0077Y00895
X0087
X0097
T04
X0149606Y0007874
Y0090551
X0007874
Y0007874
M30
