G04*
G04 #@! TF.GenerationSoftware,Altium Limited,Altium Designer,18.1.9 (240)*
G04*
G04 Layer_Color=16711935*
%FSLAX25Y25*%
%MOIN*%
G70*
G01*
G75*
%ADD11C,0.00591*%
%ADD15C,0.00600*%
%ADD18C,0.00500*%
%ADD72C,0.00394*%
D11*
X94968Y34736D02*
G03*
X94968Y34736I-1969J0D01*
G01*
X93000Y29725D02*
X112487Y49213D01*
X73513D02*
X93000Y68700D01*
X73513Y49213D02*
X93000Y29725D01*
Y68700D02*
X112487Y49213D01*
D15*
X149606Y0D02*
G03*
X157480Y7874I0J7874D01*
G01*
X0D02*
G03*
X7874Y0I7874J0D01*
G01*
Y98425D02*
G03*
X0Y90551I0J-7874D01*
G01*
X157480D02*
G03*
X149606Y98425I-7874J0D01*
G01*
X0Y7874D02*
Y31496D01*
Y66929D02*
Y90551D01*
X7874Y98425D02*
X149606Y98425D01*
X157480Y7874D02*
Y90551D01*
X7874Y0D02*
X149606D01*
D18*
X27165Y66929D02*
G03*
X27165Y66929I-1575J0D01*
G01*
Y31496D02*
G03*
X27165Y31496I-1575J0D01*
G01*
X0D02*
X25984D01*
Y66929D01*
X0D02*
X25984D01*
D72*
X30984Y6000D02*
G03*
X30984Y6000I-984J0D01*
G01*
X22382Y21555D02*
X32618D01*
X22382Y3445D02*
X32618D01*
X22382D02*
Y21555D01*
X32618Y3445D02*
Y21555D01*
X63941Y34495D02*
X69059D01*
X63941Y22684D02*
X69059D01*
X63941D02*
Y34495D01*
X69059Y22684D02*
Y34495D01*
M02*
