G04*
G04 #@! TF.GenerationSoftware,Altium Limited,Altium Designer,18.1.9 (240)*
G04*
G04 Layer_Physical_Order=1*
G04 Layer_Color=255*
%FSLAX25Y25*%
%MOIN*%
G70*
G01*
G75*
%ADD10C,0.01000*%
%ADD13C,0.02000*%
%ADD15C,0.00600*%
%ADD16C,0.00800*%
%ADD18C,0.00500*%
%ADD20R,0.02200X0.01300*%
%ADD21R,0.04528X0.01181*%
G04:AMPARAMS|DCode=22|XSize=31.5mil|YSize=27.56mil|CornerRadius=0mil|HoleSize=0mil|Usage=FLASHONLY|Rotation=0.000|XOffset=0mil|YOffset=0mil|HoleType=Round|Shape=Octagon|*
%AMOCTAGOND22*
4,1,8,0.01575,-0.00689,0.01575,0.00689,0.00886,0.01378,-0.00886,0.01378,-0.01575,0.00689,-0.01575,-0.00689,-0.00886,-0.01378,0.00886,-0.01378,0.01575,-0.00689,0.0*
%
%ADD22OCTAGOND22*%

%ADD23R,0.03150X0.02756*%
%ADD24R,0.03000X0.03000*%
G04:AMPARAMS|DCode=25|XSize=11mil|YSize=70.87mil|CornerRadius=0mil|HoleSize=0mil|Usage=FLASHONLY|Rotation=225.000|XOffset=0mil|YOffset=0mil|HoleType=Round|Shape=Round|*
%AMOVALD25*
21,1,0.05987,0.01100,0.00000,0.00000,315.0*
1,1,0.01100,-0.02117,0.02117*
1,1,0.01100,0.02117,-0.02117*
%
%ADD25OVALD25*%

%ADD26R,0.05000X0.06500*%
%ADD27P,0.04243X4X180.0*%
%ADD28O,0.13780X0.04016*%
%ADD29R,0.13780X0.04016*%
%ADD30R,0.05118X0.04724*%
%ADD31R,0.03000X0.03000*%
G04:AMPARAMS|DCode=32|XSize=70.87mil|YSize=118.11mil|CornerRadius=0mil|HoleSize=0mil|Usage=FLASHONLY|Rotation=270.000|XOffset=0mil|YOffset=0mil|HoleType=Round|Shape=Octagon|*
%AMOCTAGOND32*
4,1,8,0.05906,0.01772,0.05906,-0.01772,0.04134,-0.03543,-0.04134,-0.03543,-0.05906,-0.01772,-0.05906,0.01772,-0.04134,0.03543,0.04134,0.03543,0.05906,0.01772,0.0*
%
%ADD32OCTAGOND32*%

%ADD33R,0.04724X0.02362*%
%ADD34R,0.08268X0.02362*%
%ADD35P,0.04243X4X270.0*%
G04:AMPARAMS|DCode=36|XSize=11mil|YSize=70.87mil|CornerRadius=0mil|HoleSize=0mil|Usage=FLASHONLY|Rotation=135.000|XOffset=0mil|YOffset=0mil|HoleType=Round|Shape=Round|*
%AMOVALD36*
21,1,0.05987,0.01100,0.00000,0.00000,225.0*
1,1,0.01100,0.02117,0.02117*
1,1,0.01100,-0.02117,-0.02117*
%
%ADD36OVALD36*%

%ADD37R,0.03937X0.01772*%
%ADD38P,0.03409X8X22.5*%
%ADD39R,0.03150X0.03150*%
%ADD63C,0.01500*%
%ADD64C,0.01200*%
%ADD65C,0.01600*%
%ADD66O,0.08661X0.03937*%
%ADD67O,0.07087X0.03937*%
%ADD68R,0.06693X0.06693*%
%ADD69C,0.06693*%
%ADD70C,0.01968*%
%ADD71C,0.12992*%
G36*
X40449Y86900D02*
X40443Y86957D01*
X40425Y87008D01*
X40394Y87053D01*
X40351Y87092D01*
X40296Y87125D01*
X40229Y87152D01*
X40149Y87173D01*
X40058Y87188D01*
X39954Y87197D01*
X39837Y87200D01*
Y87800D01*
X39954Y87803D01*
X40058Y87812D01*
X40149Y87827D01*
X40229Y87848D01*
X40296Y87875D01*
X40351Y87908D01*
X40394Y87947D01*
X40425Y87992D01*
X40443Y88043D01*
X40449Y88100D01*
Y86900D01*
D02*
G37*
G36*
X37600Y88043D02*
X37619Y87992D01*
X37649Y87947D01*
X37692Y87908D01*
X37747Y87875D01*
X37814Y87848D01*
X37894Y87827D01*
X37986Y87812D01*
X38090Y87803D01*
X38206Y87800D01*
Y87200D01*
X38090Y87197D01*
X37986Y87188D01*
X37894Y87173D01*
X37814Y87152D01*
X37747Y87125D01*
X37692Y87092D01*
X37649Y87053D01*
X37619Y87008D01*
X37600Y86957D01*
X37594Y86900D01*
Y88100D01*
X37600Y88043D01*
D02*
G37*
G36*
X32348Y85997D02*
X32222Y85952D01*
X32112Y85877D01*
X32016Y85772D01*
X31934Y85637D01*
X31868Y85472D01*
X31816Y85277D01*
X31780Y85052D01*
X31757Y84797D01*
X31750Y84512D01*
X30250D01*
X30243Y84797D01*
X30220Y85052D01*
X30184Y85277D01*
X30132Y85472D01*
X30066Y85637D01*
X29984Y85772D01*
X29888Y85877D01*
X29778Y85952D01*
X29652Y85997D01*
X29512Y86012D01*
X32488D01*
X32348Y85997D01*
D02*
G37*
G36*
X31757Y84203D02*
X31780Y83948D01*
X31816Y83723D01*
X31868Y83528D01*
X31934Y83363D01*
X32016Y83228D01*
X32112Y83123D01*
X32222Y83048D01*
X32348Y83003D01*
X32488Y82988D01*
X29512D01*
X29652Y83003D01*
X29778Y83048D01*
X29888Y83123D01*
X29984Y83228D01*
X30066Y83363D01*
X30132Y83528D01*
X30184Y83723D01*
X30220Y83948D01*
X30243Y84203D01*
X30250Y84488D01*
X31750D01*
X31757Y84203D01*
D02*
G37*
G36*
X49474Y82043D02*
X49492Y81992D01*
X49522Y81947D01*
X49564Y81908D01*
X49618Y81875D01*
X49684Y81848D01*
X49762Y81827D01*
X49852Y81812D01*
X49954Y81803D01*
X50068Y81800D01*
Y81200D01*
X49954Y81197D01*
X49852Y81188D01*
X49762Y81173D01*
X49684Y81152D01*
X49618Y81125D01*
X49564Y81092D01*
X49522Y81053D01*
X49492Y81008D01*
X49474Y80957D01*
X49468Y80900D01*
Y82100D01*
X49474Y82043D01*
D02*
G37*
G36*
X40449Y80900D02*
X40443Y80957D01*
X40425Y81008D01*
X40394Y81053D01*
X40351Y81092D01*
X40296Y81125D01*
X40229Y81152D01*
X40149Y81173D01*
X40058Y81188D01*
X39954Y81197D01*
X39837Y81200D01*
Y81800D01*
X39954Y81803D01*
X40058Y81812D01*
X40149Y81827D01*
X40229Y81848D01*
X40296Y81875D01*
X40351Y81908D01*
X40394Y81947D01*
X40425Y81992D01*
X40443Y82043D01*
X40449Y82100D01*
Y80900D01*
D02*
G37*
G36*
X37600Y82043D02*
X37619Y81992D01*
X37649Y81947D01*
X37692Y81908D01*
X37747Y81875D01*
X37814Y81848D01*
X37894Y81827D01*
X37986Y81812D01*
X38090Y81803D01*
X38206Y81800D01*
Y81200D01*
X38090Y81197D01*
X37986Y81188D01*
X37894Y81173D01*
X37814Y81152D01*
X37747Y81125D01*
X37692Y81092D01*
X37649Y81053D01*
X37619Y81008D01*
X37600Y80957D01*
X37594Y80900D01*
Y82100D01*
X37600Y82043D01*
D02*
G37*
G36*
X61725Y80582D02*
X73821Y68486D01*
X73533Y67541D01*
X71609Y67465D01*
X65904Y73170D01*
X65606Y73369D01*
X65255Y73439D01*
X61442D01*
X61091Y73369D01*
X60793Y73170D01*
X59980Y72358D01*
X59883Y72260D01*
X59829Y72261D01*
X59754Y72336D01*
X57810Y74280D01*
X55605Y72075D01*
X54840Y71310D01*
X53224Y69695D01*
X51376Y70460D01*
Y70921D01*
X51272Y71448D01*
X50973Y71895D01*
X48395Y74473D01*
X47948Y74772D01*
X47421Y74876D01*
X35070D01*
X33117Y76829D01*
X33443Y79055D01*
X33974Y79339D01*
X33982Y79342D01*
X34136Y79378D01*
X34245Y79394D01*
X34281Y79396D01*
X34493Y79400D01*
X35100Y79400D01*
X38218D01*
Y79400D01*
X39825Y79325D01*
Y79325D01*
X40187Y79325D01*
X44175D01*
Y79340D01*
X46175Y79969D01*
X46818Y79325D01*
X48993D01*
X50080Y80413D01*
X52067Y80582D01*
X61725D01*
D02*
G37*
G36*
X32348Y79997D02*
X32222Y79952D01*
X32112Y79877D01*
X32016Y79772D01*
X31934Y79637D01*
X31868Y79472D01*
X31816Y79277D01*
X31780Y79052D01*
X31757Y78797D01*
X31750Y78512D01*
X30250D01*
X30243Y78797D01*
X30220Y79052D01*
X30184Y79277D01*
X30132Y79472D01*
X30066Y79637D01*
X29984Y79772D01*
X29888Y79877D01*
X29778Y79952D01*
X29652Y79997D01*
X29512Y80012D01*
X32488D01*
X32348Y79997D01*
D02*
G37*
G36*
X125803Y76974D02*
X125812Y76872D01*
X125827Y76782D01*
X125848Y76704D01*
X125875Y76638D01*
X125908Y76584D01*
X125947Y76542D01*
X125992Y76512D01*
X126043Y76494D01*
X126100Y76488D01*
X124900D01*
X124957Y76494D01*
X125008Y76512D01*
X125053Y76542D01*
X125092Y76584D01*
X125125Y76638D01*
X125152Y76704D01*
X125173Y76782D01*
X125188Y76872D01*
X125197Y76974D01*
X125200Y77088D01*
X125800D01*
X125803Y76974D01*
D02*
G37*
G36*
X132100Y75543D02*
X132119Y75492D01*
X132149Y75447D01*
X132192Y75408D01*
X132247Y75375D01*
X132314Y75348D01*
X132394Y75327D01*
X132486Y75312D01*
X132590Y75303D01*
X132706Y75300D01*
Y74700D01*
X132590Y74697D01*
X132486Y74688D01*
X132394Y74673D01*
X132314Y74652D01*
X132247Y74625D01*
X132192Y74592D01*
X132149Y74553D01*
X132119Y74508D01*
X132100Y74457D01*
X132094Y74400D01*
Y75600D01*
X132100Y75543D01*
D02*
G37*
G36*
X102409Y73205D02*
X102305Y73288D01*
X102189Y73340D01*
X102062Y73361D01*
X101923Y73352D01*
X101774Y73310D01*
X101612Y73238D01*
X101440Y73135D01*
X101256Y73000D01*
X101061Y72835D01*
X100855Y72638D01*
X99794Y73699D01*
X99991Y73907D01*
X100157Y74104D01*
X100291Y74291D01*
X100392Y74467D01*
X100462Y74632D01*
X100500Y74787D01*
X100506Y74931D01*
X100480Y75064D01*
X100423Y75187D01*
X100333Y75298D01*
X102409Y73205D01*
D02*
G37*
G36*
X84812Y73479D02*
X84789Y73431D01*
X84778Y73378D01*
X84781Y73320D01*
X84795Y73259D01*
X84823Y73193D01*
X84863Y73123D01*
X84916Y73049D01*
X84982Y72970D01*
X85061Y72888D01*
X84636Y72463D01*
X84554Y72542D01*
X84475Y72608D01*
X84401Y72661D01*
X84331Y72701D01*
X84265Y72729D01*
X84203Y72743D01*
X84146Y72746D01*
X84093Y72735D01*
X84044Y72712D01*
X84000Y72676D01*
X84848Y73524D01*
X84812Y73479D01*
D02*
G37*
G36*
X145060Y96000D02*
X144564Y95593D01*
X143678Y94513D01*
X143019Y93280D01*
X142613Y91942D01*
X142476Y90551D01*
X142613Y89160D01*
X143019Y87823D01*
X143678Y86590D01*
X144564Y85509D01*
X145645Y84623D01*
X146878Y83964D01*
X148215Y83558D01*
X149606Y83421D01*
X150997Y83558D01*
X152335Y83964D01*
X153568Y84623D01*
X154648Y85509D01*
X155000Y85938D01*
X157000Y85222D01*
Y73402D01*
X155990Y71820D01*
X155000Y71820D01*
X142756D01*
X141010Y71820D01*
X139440Y72858D01*
X138037Y74261D01*
X136649Y75649D01*
X136620Y75668D01*
X136620Y75668D01*
X136351Y75848D01*
X136034Y75911D01*
X136034Y75911D01*
X136000Y75918D01*
X134705Y75918D01*
X132718Y77100D01*
Y77100D01*
X129600D01*
X128386Y77100D01*
X126418Y79087D01*
X126418Y80500D01*
X126348Y80851D01*
X126168Y81120D01*
X126168Y81120D01*
X126149Y81149D01*
X125037Y82261D01*
X123649Y83649D01*
X123620Y83668D01*
X123620Y83668D01*
X123351Y83848D01*
X123034Y83911D01*
X123034Y83911D01*
X123000Y83918D01*
X122292Y83918D01*
X122291Y83918D01*
X121037Y83918D01*
X101825D01*
X100946Y85553D01*
X100946Y85918D01*
Y93446D01*
X93054D01*
Y85918D01*
X93054Y85553D01*
X92175Y83918D01*
X89062D01*
X88664Y85918D01*
X88990Y86053D01*
X89815Y86685D01*
X90447Y87510D01*
X90845Y88470D01*
X90980Y89500D01*
X90845Y90530D01*
X90447Y91490D01*
X89815Y92315D01*
X88990Y92947D01*
X88030Y93345D01*
X87000Y93480D01*
X85970Y93345D01*
X85010Y92947D01*
X84185Y92315D01*
X83553Y91490D01*
X83426Y91185D01*
X81391Y90694D01*
X81172Y90787D01*
X80797Y91692D01*
X80100Y92600D01*
X79192Y93297D01*
X78135Y93735D01*
X77500Y93818D01*
Y89500D01*
Y85182D01*
X78135Y85265D01*
X79192Y85703D01*
X80100Y86400D01*
X80797Y87308D01*
X81172Y88213D01*
X81391Y88306D01*
X83426Y87815D01*
X83553Y87510D01*
X84185Y86685D01*
X85010Y86053D01*
X85418Y85884D01*
X85437Y85437D01*
X84880Y83668D01*
X84851Y83649D01*
X84351Y83148D01*
X84350Y83147D01*
X83463Y82261D01*
X78121Y76919D01*
X77234Y76032D01*
X77234Y76031D01*
X76733Y75531D01*
X76714Y75502D01*
X76714Y75502D01*
X76534Y75233D01*
X76471Y74916D01*
X76471Y74916D01*
X76464Y74882D01*
X76464Y73781D01*
X76464Y72681D01*
X76471Y72647D01*
X76471Y72647D01*
X76531Y72346D01*
X76532Y72323D01*
X76284Y71357D01*
X75917Y71165D01*
X73923Y70980D01*
X64142Y80761D01*
X63247Y81656D01*
X63246Y81656D01*
X62753Y82149D01*
X62725Y82168D01*
X62725Y82168D01*
X62456Y82348D01*
X62138Y82411D01*
X62138Y82411D01*
X62105Y82418D01*
X61474Y82418D01*
X61473Y82418D01*
X60141Y82418D01*
X50156D01*
X50085Y82449D01*
X50080Y82449D01*
Y82587D01*
X48993Y83675D01*
X46818D01*
X46175Y83031D01*
X44175Y83659D01*
Y85325D01*
X44175Y85675D01*
Y89675D01*
X40187D01*
X39825Y89675D01*
Y89675D01*
X38218Y89600D01*
Y89600D01*
X33559Y89600D01*
X32018Y89600D01*
X28900D01*
Y86143D01*
X28866Y86081D01*
X28869Y86027D01*
X28863Y86012D01*
X28900Y85400D01*
Y83600D01*
X28863Y82988D01*
X28869Y82973D01*
X28866Y82919D01*
X28900Y82857D01*
X28900Y80143D01*
X28866Y80081D01*
X28869Y80027D01*
X28863Y80012D01*
X28900Y79400D01*
X29624Y77500D01*
Y77000D01*
X29728Y76473D01*
X30027Y76027D01*
X33527Y72527D01*
X33973Y72228D01*
X34500Y72123D01*
X34500Y72124D01*
X46851D01*
X48624Y70351D01*
Y58236D01*
X46764Y56376D01*
X45301D01*
X45301Y56376D01*
X44774Y56272D01*
X44328Y55973D01*
X44328Y55973D01*
X43192Y54838D01*
X42894Y54391D01*
X42813Y53985D01*
X41571Y53584D01*
X40839Y53415D01*
X40483D01*
X39654Y55415D01*
X40590Y56351D01*
X40609Y56380D01*
X40609Y56380D01*
X40789Y56649D01*
X40824Y56827D01*
X41412Y58048D01*
X42041D01*
Y62248D01*
X42041Y62248D01*
Y63900D01*
X42041D01*
X42041Y64248D01*
Y68100D01*
X37841D01*
Y64872D01*
X37841Y64701D01*
X37839Y64699D01*
X37740Y64584D01*
X37699Y64542D01*
X37669Y64467D01*
X35499Y62297D01*
X35430Y62272D01*
X35386Y62232D01*
X35363Y62214D01*
X35337Y62198D01*
X35309Y62183D01*
X35277Y62170D01*
X35239Y62158D01*
X35194Y62148D01*
X35142Y62140D01*
X35083Y62135D01*
X34997Y62134D01*
X34918Y62099D01*
X34382Y61992D01*
X34382Y61992D01*
X33858Y61642D01*
X32445Y60611D01*
X31932Y60672D01*
X29134D01*
X28000Y62215D01*
Y69213D01*
X28000Y69213D01*
X28420Y70235D01*
X28408Y70233D01*
X28114Y70173D01*
X27831Y70096D01*
X27558Y70001D01*
X27297Y69890D01*
X27046Y69761D01*
X26806Y69615D01*
X26577Y69452D01*
Y70661D01*
X24016D01*
X21454D01*
Y69452D01*
X21261Y69587D01*
X21050Y69708D01*
X20822Y69814D01*
X20577Y69906D01*
X20314Y69984D01*
X20034Y70048D01*
X19737Y70098D01*
X19423Y70133D01*
X18752Y70161D01*
X18303Y69516D01*
X17870Y69213D01*
X15201D01*
X14767Y69516D01*
X14319Y70161D01*
X13980Y70154D01*
X13334Y70098D01*
X13036Y70048D01*
X12757Y69984D01*
X12494Y69906D01*
X12249Y69814D01*
X12021Y69708D01*
X11810Y69587D01*
X11617Y69452D01*
Y70661D01*
X8268D01*
Y71161D01*
X7768D01*
Y73123D01*
X6268D01*
X6458Y73143D01*
X6628Y73203D01*
X6778Y73304D01*
X6908Y73445D01*
X7018Y73626D01*
X7108Y73847D01*
X7178Y74109D01*
X7186Y74155D01*
X5906D01*
X5131Y74054D01*
X4408Y73754D01*
X3788Y73279D01*
X3312Y72658D01*
X3013Y71936D01*
X1034Y71029D01*
X500Y71196D01*
Y85198D01*
X2500Y85914D01*
X2832Y85509D01*
X3913Y84623D01*
X5145Y83964D01*
X6483Y83558D01*
X7874Y83421D01*
X9265Y83558D01*
X10603Y83964D01*
X11835Y84623D01*
X12916Y85509D01*
X13803Y86590D01*
X14462Y87823D01*
X14867Y89160D01*
X15004Y90551D01*
X14867Y91942D01*
X14462Y93280D01*
X13803Y94513D01*
X12916Y95593D01*
X12420Y96000D01*
X13136Y98000D01*
X144344D01*
X145060Y96000D01*
D02*
G37*
G36*
X78461Y72030D02*
X78541Y71962D01*
X78617Y71908D01*
X78688Y71867D01*
X78755Y71838D01*
X78817Y71823D01*
X78875Y71820D01*
X78928Y71830D01*
X78977Y71853D01*
X79022Y71889D01*
X78173Y71041D01*
X78209Y71085D01*
X78232Y71134D01*
X78243Y71188D01*
X78240Y71246D01*
X78224Y71308D01*
X78196Y71375D01*
X78154Y71446D01*
X78100Y71521D01*
X78033Y71601D01*
X77953Y71686D01*
X78377Y72110D01*
X78461Y72030D01*
D02*
G37*
G36*
X59595Y71617D02*
X59614Y71615D01*
X59814Y71611D01*
X60214Y71610D01*
Y71010D01*
X59589Y71002D01*
Y71618D01*
X59595Y71617D01*
D02*
G37*
G36*
X122620Y82082D02*
X124582Y80120D01*
Y79087D01*
X123400Y77100D01*
X123400D01*
Y72900D01*
X123400Y72900D01*
X123395Y70950D01*
X123324Y70918D01*
X121000Y70918D01*
X120966Y70911D01*
X120966Y70911D01*
X120649Y70848D01*
X120380Y70668D01*
X120380Y70668D01*
X120351Y70649D01*
X119082Y69379D01*
X117812Y68110D01*
X117792Y68081D01*
X117792Y68081D01*
X117613Y67812D01*
X117550Y67495D01*
X117550Y67495D01*
X117543Y67461D01*
X117543Y65310D01*
X112738Y60505D01*
X111531Y60210D01*
X109633Y61035D01*
X109379Y61416D01*
X108999Y61670D01*
X108550Y61759D01*
X108331Y61979D01*
X108241Y62427D01*
X107987Y62808D01*
X107607Y63062D01*
X107158Y63151D01*
X106939Y63371D01*
X106849Y63819D01*
X106849Y63819D01*
X106595Y64200D01*
X106595D01*
X106215Y64454D01*
X105766Y64543D01*
X105766Y64543D01*
X105683Y64527D01*
X104789Y65178D01*
X104138Y66071D01*
X104155Y66154D01*
X104155Y66154D01*
X104066Y66603D01*
X103811Y66984D01*
Y66984D01*
X103431Y67238D01*
X103431Y67238D01*
X102982Y67327D01*
X102763Y67546D01*
X102673Y67995D01*
X102673D01*
X102419Y68375D01*
X102419D01*
X102039Y68630D01*
X101907Y68656D01*
X101338Y69383D01*
X101199Y69658D01*
X101153Y69769D01*
X100921Y70625D01*
X100964Y70689D01*
X101010Y70919D01*
X102409Y72340D01*
X102866Y72744D01*
X102874Y72761D01*
X102917Y72800D01*
X102936Y72867D01*
X105379Y75309D01*
X102409Y78279D01*
X99938Y75808D01*
X99927Y75805D01*
X99886Y75764D01*
X99875Y75760D01*
X99439Y75309D01*
X99814Y74935D01*
X99826Y74892D01*
X99826Y74892D01*
X99850Y74862D01*
X99844Y74837D01*
X99810Y74757D01*
X99744Y74643D01*
X99643Y74502D01*
X99507Y74340D01*
X99323Y74146D01*
X99303Y74094D01*
X98719Y73510D01*
X98421Y73063D01*
X98316Y72536D01*
Y71786D01*
X95717Y69187D01*
X95717Y69187D01*
X94175Y67646D01*
X92256Y66926D01*
X88023Y71159D01*
X87880Y71255D01*
X87863Y71296D01*
X87745Y71345D01*
X87642Y71414D01*
X87626Y71417D01*
X87555Y71469D01*
X87506Y71480D01*
X87478Y71489D01*
X87446Y71502D01*
X87411Y71519D01*
X87372Y71541D01*
X87329Y71569D01*
X87289Y71598D01*
X87175Y71694D01*
X87116Y71751D01*
X87042Y71780D01*
X86911Y71911D01*
X86230Y74040D01*
Y74040D01*
X83448Y76822D01*
X82488Y78690D01*
X85880Y82082D01*
X122539D01*
X122620D01*
D02*
G37*
G36*
X132797Y69311D02*
X132720Y69385D01*
X132642Y69451D01*
X132563Y69510D01*
X132482Y69560D01*
X132400Y69603D01*
X132317Y69638D01*
X132296Y69645D01*
X132247Y69625D01*
X132192Y69592D01*
X132149Y69553D01*
X132119Y69508D01*
X132100Y69457D01*
X132094Y69400D01*
Y69692D01*
X132060Y69696D01*
X131972Y69700D01*
Y70300D01*
X132060Y70304D01*
X132094Y70309D01*
Y70600D01*
X132100Y70543D01*
X132119Y70492D01*
X132149Y70447D01*
X132192Y70408D01*
X132247Y70375D01*
X132296Y70356D01*
X132317Y70363D01*
X132400Y70398D01*
X132482Y70440D01*
X132563Y70491D01*
X132642Y70549D01*
X132720Y70615D01*
X132797Y70689D01*
Y69311D01*
D02*
G37*
G36*
X86740Y71211D02*
X86889Y71086D01*
X86963Y71032D01*
X87037Y70985D01*
X87110Y70943D01*
X87184Y70908D01*
X87257Y70878D01*
X87331Y70855D01*
X87404Y70837D01*
X86687Y70120D01*
X86669Y70193D01*
X86646Y70267D01*
X86616Y70340D01*
X86581Y70414D01*
X86539Y70487D01*
X86492Y70561D01*
X86438Y70635D01*
X86313Y70784D01*
X86242Y70858D01*
X86666Y71283D01*
X86740Y71211D01*
D02*
G37*
G36*
X124024Y69400D02*
X124018Y69457D01*
X124000Y69508D01*
X123969Y69553D01*
X123926Y69592D01*
X123871Y69625D01*
X123804Y69652D01*
X123724Y69673D01*
X123632Y69688D01*
X123528Y69697D01*
X123412Y69700D01*
Y70300D01*
X123528Y70303D01*
X123632Y70312D01*
X123724Y70327D01*
X123804Y70348D01*
X123871Y70375D01*
X123926Y70408D01*
X123969Y70447D01*
X124000Y70492D01*
X124018Y70543D01*
X124024Y70600D01*
Y69400D01*
D02*
G37*
G36*
X61922Y69660D02*
X61946Y69371D01*
X61967Y69254D01*
X61994Y69156D01*
X62027Y69074D01*
X62066Y69011D01*
X62111Y68967D01*
X62162Y68940D01*
X62219Y68931D01*
X61019D01*
X61076Y68940D01*
X61127Y68967D01*
X61172Y69011D01*
X61211Y69074D01*
X61244Y69156D01*
X61271Y69254D01*
X61292Y69371D01*
X61307Y69507D01*
X61319Y69831D01*
X61919D01*
X61922Y69660D01*
D02*
G37*
G36*
X81082Y69749D02*
X81058Y69700D01*
X81048Y69647D01*
X81050Y69590D01*
X81065Y69528D01*
X81092Y69462D01*
X81133Y69392D01*
X81186Y69318D01*
X81251Y69240D01*
X81330Y69157D01*
X80906Y68733D01*
X80823Y68811D01*
X80744Y68877D01*
X80670Y68930D01*
X80600Y68970D01*
X80534Y68998D01*
X80473Y69013D01*
X80415Y69015D01*
X80362Y69004D01*
X80314Y68981D01*
X80269Y68945D01*
X81118Y69793D01*
X81082Y69749D01*
D02*
G37*
G36*
X83956Y68427D02*
X84105Y68302D01*
X84179Y68248D01*
X84253Y68201D01*
X84326Y68159D01*
X84400Y68124D01*
X84473Y68094D01*
X84547Y68071D01*
X84620Y68053D01*
X83903Y67336D01*
X83886Y67410D01*
X83862Y67483D01*
X83832Y67556D01*
X83797Y67630D01*
X83755Y67703D01*
X83708Y67777D01*
X83654Y67851D01*
X83529Y68000D01*
X83458Y68074D01*
X83882Y68499D01*
X83956Y68427D01*
D02*
G37*
G36*
X63046Y66757D02*
X63023Y66708D01*
X63012Y66654D01*
X63015Y66596D01*
X63031Y66534D01*
X63059Y66467D01*
X63101Y66396D01*
X63155Y66321D01*
X63222Y66241D01*
X63302Y66156D01*
X62878Y65732D01*
X62794Y65812D01*
X62714Y65879D01*
X62638Y65934D01*
X62567Y65975D01*
X62500Y66004D01*
X62438Y66019D01*
X62380Y66022D01*
X62327Y66012D01*
X62278Y65989D01*
X62233Y65953D01*
X63082Y66801D01*
X63046Y66757D01*
D02*
G37*
G36*
X54727Y66186D02*
X54677Y66159D01*
X54633Y66113D01*
X54595Y66050D01*
X54563Y65968D01*
X54537Y65868D01*
X54517Y65750D01*
X54502Y65614D01*
X54491Y65287D01*
X53891D01*
X53887Y65459D01*
X53864Y65750D01*
X53844Y65868D01*
X53818Y65968D01*
X53786Y66050D01*
X53748Y66113D01*
X53704Y66159D01*
X53654Y66186D01*
X53599Y66195D01*
X54782D01*
X54727Y66186D01*
D02*
G37*
G36*
X64130Y65333D02*
X64210Y65266D01*
X64285Y65212D01*
X64356Y65170D01*
X64423Y65142D01*
X64485Y65126D01*
X64543Y65123D01*
X64596Y65134D01*
X64645Y65157D01*
X64690Y65193D01*
X63842Y64344D01*
X63877Y64389D01*
X63901Y64438D01*
X63911Y64491D01*
X63908Y64549D01*
X63893Y64612D01*
X63864Y64678D01*
X63823Y64749D01*
X63768Y64825D01*
X63701Y64905D01*
X63621Y64989D01*
X64045Y65413D01*
X64130Y65333D01*
D02*
G37*
G36*
X132100Y65312D02*
X132119Y65261D01*
X132149Y65216D01*
X132192Y65177D01*
X132247Y65144D01*
X132314Y65117D01*
X132394Y65096D01*
X132486Y65081D01*
X132590Y65072D01*
X132706Y65069D01*
Y64469D01*
X132590Y64466D01*
X132486Y64457D01*
X132394Y64442D01*
X132314Y64421D01*
X132247Y64394D01*
X132192Y64361D01*
X132149Y64322D01*
X132119Y64277D01*
X132100Y64226D01*
X132094Y64169D01*
Y65369D01*
X132100Y65312D01*
D02*
G37*
G36*
X122780Y65384D02*
X122858Y65318D01*
X122937Y65260D01*
X123018Y65209D01*
X123100Y65166D01*
X123183Y65131D01*
X123267Y65104D01*
X123353Y65085D01*
X123440Y65073D01*
X123485Y65071D01*
X123528Y65072D01*
X123632Y65081D01*
X123724Y65096D01*
X123804Y65117D01*
X123871Y65144D01*
X123926Y65177D01*
X123969Y65216D01*
X124000Y65261D01*
X124018Y65312D01*
X124024Y65369D01*
Y64169D01*
X124018Y64226D01*
X124000Y64277D01*
X123969Y64322D01*
X123926Y64361D01*
X123871Y64394D01*
X123804Y64421D01*
X123724Y64442D01*
X123632Y64457D01*
X123528Y64466D01*
X123485Y64467D01*
X123440Y64465D01*
X123353Y64454D01*
X123267Y64434D01*
X123183Y64407D01*
X123100Y64372D01*
X123018Y64329D01*
X122937Y64279D01*
X122858Y64220D01*
X122780Y64154D01*
X122703Y64080D01*
Y65458D01*
X122780Y65384D01*
D02*
G37*
G36*
X39777Y64519D02*
X39694Y64506D01*
X39610Y64484D01*
X39525Y64453D01*
X39441Y64413D01*
X39356Y64366D01*
X39270Y64309D01*
X39185Y64244D01*
X39099Y64170D01*
X39012Y64088D01*
X38164D01*
X38219Y64144D01*
X38349Y64295D01*
X38381Y64339D01*
X38407Y64380D01*
X38427Y64417D01*
X38442Y64452D01*
X38450Y64484D01*
X38453Y64512D01*
X39861Y64524D01*
X39777Y64519D01*
D02*
G37*
G36*
X90559Y64842D02*
X90583Y64769D01*
X90612Y64695D01*
X90648Y64622D01*
X90689Y64548D01*
X90737Y64474D01*
X90790Y64400D01*
X90916Y64252D01*
X90987Y64177D01*
X90563Y63753D01*
X90488Y63825D01*
X90340Y63950D01*
X90266Y64003D01*
X90192Y64051D01*
X90118Y64092D01*
X90045Y64128D01*
X89971Y64157D01*
X89898Y64181D01*
X89825Y64198D01*
X90542Y64915D01*
X90559Y64842D01*
D02*
G37*
G36*
X76986Y64884D02*
X76995Y64781D01*
X77010Y64684D01*
X77031Y64591D01*
X77059Y64503D01*
X77093Y64420D01*
X77133Y64341D01*
X77180Y64267D01*
X77233Y64197D01*
X77293Y64132D01*
X76868Y63707D01*
X76803Y63767D01*
X76733Y63820D01*
X76659Y63867D01*
X76580Y63907D01*
X76497Y63941D01*
X76409Y63969D01*
X76316Y63990D01*
X76218Y64005D01*
X76117Y64014D01*
X76010Y64016D01*
X76984Y64990D01*
X76986Y64884D01*
D02*
G37*
G36*
X143780Y64615D02*
X143858Y64549D01*
X143937Y64491D01*
X144018Y64440D01*
X144100Y64397D01*
X144183Y64362D01*
X144267Y64335D01*
X144353Y64316D01*
X144440Y64304D01*
X144528Y64300D01*
Y63700D01*
X144440Y63696D01*
X144353Y63684D01*
X144267Y63665D01*
X144183Y63638D01*
X144100Y63603D01*
X144018Y63560D01*
X143937Y63509D01*
X143858Y63451D01*
X143780Y63385D01*
X143703Y63311D01*
Y64689D01*
X143780Y64615D01*
D02*
G37*
G36*
X56484Y63218D02*
X56475Y63273D01*
X56449Y63322D01*
X56404Y63366D01*
X56342Y63403D01*
X56262Y63435D01*
X56164Y63461D01*
X56049Y63481D01*
X55915Y63496D01*
X55596Y63507D01*
Y64107D01*
X55765Y64110D01*
X56049Y64133D01*
X56164Y64153D01*
X56262Y64179D01*
X56342Y64211D01*
X56404Y64249D01*
X56449Y64292D01*
X56475Y64341D01*
X56484Y64396D01*
Y63218D01*
D02*
G37*
G36*
X79835Y64257D02*
X80057Y64069D01*
X80127Y64020D01*
X80195Y63978D01*
X80260Y63943D01*
X80324Y63914D01*
X80385Y63892D01*
X80444Y63877D01*
X79727Y63161D01*
X79707Y63248D01*
X79682Y63333D01*
X79651Y63416D01*
X79615Y63498D01*
X79575Y63578D01*
X79528Y63656D01*
X79477Y63732D01*
X79421Y63806D01*
X79359Y63878D01*
X79292Y63949D01*
X79756Y64333D01*
X79835Y64257D01*
D02*
G37*
G36*
X78569Y62857D02*
X78894Y62571D01*
X78942Y62538D01*
X78984Y62512D01*
X79021Y62495D01*
X79052Y62485D01*
X78294Y61979D01*
X78299Y62031D01*
X78295Y62086D01*
X78282Y62145D01*
X78260Y62207D01*
X78228Y62272D01*
X78187Y62340D01*
X78137Y62411D01*
X78078Y62485D01*
X77932Y62644D01*
X78487Y62938D01*
X78569Y62857D01*
D02*
G37*
G36*
X155000Y66605D02*
X155990Y66605D01*
X157000Y65023D01*
Y62067D01*
X155968Y61483D01*
X155000Y61258D01*
X154697Y61491D01*
X154063Y61753D01*
X153382Y61843D01*
X151388D01*
X150049Y62375D01*
X149168Y63246D01*
X149149Y63275D01*
X147819Y64605D01*
X147830Y64967D01*
X148070Y66344D01*
X148174Y66605D01*
X155000D01*
D02*
G37*
G36*
X148803Y61709D02*
X148812Y61605D01*
X148827Y61514D01*
X148848Y61434D01*
X148875Y61367D01*
X148908Y61312D01*
X148947Y61269D01*
X148992Y61238D01*
X149043Y61220D01*
X149100Y61214D01*
X147900D01*
X147957Y61220D01*
X148008Y61238D01*
X148053Y61269D01*
X148092Y61312D01*
X148125Y61367D01*
X148152Y61434D01*
X148173Y61514D01*
X148188Y61605D01*
X148197Y61709D01*
X148200Y61826D01*
X148800D01*
X148803Y61709D01*
D02*
G37*
G36*
X36293Y61368D02*
X36233Y61303D01*
X36180Y61234D01*
X36133Y61159D01*
X36093Y61080D01*
X36059Y60997D01*
X36031Y60909D01*
X36010Y60816D01*
X35995Y60719D01*
X35986Y60616D01*
X35984Y60510D01*
X35010Y61484D01*
X35116Y61486D01*
X35219Y61495D01*
X35316Y61510D01*
X35409Y61531D01*
X35497Y61559D01*
X35580Y61593D01*
X35659Y61633D01*
X35734Y61680D01*
X35803Y61733D01*
X35868Y61793D01*
X36293Y61368D01*
D02*
G37*
G36*
X132797Y58811D02*
X132720Y58885D01*
X132642Y58951D01*
X132563Y59009D01*
X132482Y59060D01*
X132400Y59103D01*
X132317Y59138D01*
X132296Y59145D01*
X132247Y59125D01*
X132192Y59092D01*
X132149Y59053D01*
X132119Y59008D01*
X132100Y58957D01*
X132094Y58900D01*
Y59192D01*
X132060Y59196D01*
X131972Y59200D01*
Y59800D01*
X132060Y59804D01*
X132094Y59808D01*
Y60100D01*
X132100Y60043D01*
X132119Y59992D01*
X132149Y59947D01*
X132192Y59908D01*
X132247Y59875D01*
X132296Y59855D01*
X132317Y59862D01*
X132400Y59897D01*
X132482Y59940D01*
X132563Y59991D01*
X132642Y60049D01*
X132720Y60115D01*
X132797Y60189D01*
Y58811D01*
D02*
G37*
G36*
X100351Y60023D02*
X100341Y60015D01*
X100318Y59993D01*
X100040Y59718D01*
X99921Y59579D01*
X99871Y59510D01*
X99828Y59443D01*
X99794Y59379D01*
X99767Y59317D01*
X99748Y59258D01*
X99737Y59201D01*
X99733Y59147D01*
X98759Y60122D01*
X98813Y60125D01*
X98870Y60136D01*
X98929Y60155D01*
X98990Y60182D01*
X99054Y60217D01*
X99121Y60259D01*
X99190Y60310D01*
X99262Y60368D01*
X99334Y60435D01*
X99634Y60739D01*
X100351Y60023D01*
D02*
G37*
G36*
X124024Y58900D02*
X124018Y58957D01*
X124000Y59008D01*
X123969Y59053D01*
X123926Y59092D01*
X123871Y59125D01*
X123804Y59152D01*
X123724Y59173D01*
X123632Y59188D01*
X123528Y59197D01*
X123412Y59200D01*
Y59800D01*
X123528Y59803D01*
X123632Y59812D01*
X123724Y59827D01*
X123804Y59848D01*
X123871Y59875D01*
X123926Y59908D01*
X123969Y59947D01*
X124000Y59992D01*
X124018Y60043D01*
X124024Y60100D01*
Y58900D01*
D02*
G37*
G36*
X61071Y58638D02*
X61026Y58674D01*
X60977Y58697D01*
X60924Y58707D01*
X60866Y58704D01*
X60804Y58689D01*
X60737Y58660D01*
X60666Y58619D01*
X60590Y58565D01*
X60510Y58497D01*
X60426Y58417D01*
X60002Y58842D01*
X60082Y58926D01*
X60149Y59006D01*
X60203Y59081D01*
X60245Y59152D01*
X60273Y59219D01*
X60289Y59281D01*
X60292Y59339D01*
X60282Y59393D01*
X60259Y59442D01*
X60223Y59486D01*
X61071Y58638D01*
D02*
G37*
G36*
X40484Y58666D02*
X40433Y58647D01*
X40388Y58617D01*
X40349Y58574D01*
X40316Y58519D01*
X40289Y58451D01*
X40268Y58372D01*
X40253Y58280D01*
X40244Y58176D01*
X40241Y58060D01*
X39641D01*
X39638Y58176D01*
X39629Y58280D01*
X39614Y58372D01*
X39593Y58451D01*
X39566Y58519D01*
X39533Y58574D01*
X39494Y58617D01*
X39449Y58647D01*
X39398Y58666D01*
X39341Y58672D01*
X40541D01*
X40484Y58666D01*
D02*
G37*
G36*
X112286Y58331D02*
X112215Y58256D01*
X112089Y58108D01*
X112036Y58034D01*
X111988Y57960D01*
X111947Y57886D01*
X111911Y57813D01*
X111882Y57739D01*
X111858Y57666D01*
X111841Y57593D01*
X111124Y58310D01*
X111197Y58327D01*
X111270Y58351D01*
X111344Y58380D01*
X111417Y58416D01*
X111491Y58457D01*
X111565Y58505D01*
X111639Y58558D01*
X111787Y58684D01*
X111862Y58755D01*
X112286Y58331D01*
D02*
G37*
G36*
X73986Y59353D02*
X73995Y59250D01*
X74010Y59153D01*
X74031Y59060D01*
X74059Y58972D01*
X74093Y58889D01*
X74133Y58810D01*
X74180Y58736D01*
X74232Y58667D01*
X74361Y58558D01*
X74435Y58505D01*
X74509Y58457D01*
X74583Y58416D01*
X74656Y58380D01*
X74730Y58351D01*
X74803Y58327D01*
X74876Y58310D01*
X74159Y57593D01*
X74142Y57666D01*
X74118Y57739D01*
X74089Y57813D01*
X74053Y57886D01*
X74012Y57960D01*
X73964Y58034D01*
X73911Y58108D01*
X73801Y58237D01*
X73734Y58289D01*
X73659Y58336D01*
X73580Y58376D01*
X73497Y58411D01*
X73409Y58438D01*
X73316Y58459D01*
X73219Y58474D01*
X73116Y58483D01*
X73010Y58485D01*
X73984Y59459D01*
X73986Y59353D01*
D02*
G37*
G36*
X155968Y56942D02*
X157000Y56359D01*
Y42067D01*
X155968Y41483D01*
X155000Y41258D01*
X154697Y41491D01*
X154063Y41753D01*
X153382Y41843D01*
X143618D01*
X142937Y41753D01*
X142918Y41745D01*
X141324Y42520D01*
X140918Y42948D01*
Y55477D01*
X141324Y55905D01*
X142918Y56680D01*
X142937Y56672D01*
X143618Y56582D01*
X153382D01*
X154063Y56672D01*
X154697Y56935D01*
X155000Y57167D01*
X155968Y56942D01*
D02*
G37*
G36*
X71538Y62678D02*
X71858Y60611D01*
X71508Y60087D01*
X71385Y59469D01*
X71385Y59469D01*
X71508Y58851D01*
X71714Y58542D01*
X71561Y57945D01*
X70318Y56561D01*
X69869Y56565D01*
X69812Y56542D01*
X69754D01*
X69717Y56549D01*
X69708Y56542D01*
X68190D01*
X66050Y58682D01*
X65779Y58960D01*
X65509Y59991D01*
X65752Y61197D01*
X68279Y63725D01*
X70130Y64086D01*
X71538Y62678D01*
D02*
G37*
G36*
X73484Y56918D02*
X72768Y56201D01*
X72760Y56210D01*
X72738Y56234D01*
X72058Y56920D01*
X72765Y57627D01*
X73484Y56918D01*
D02*
G37*
G36*
X34138Y58093D02*
X34397Y57863D01*
X34448Y57827D01*
X34493Y57798D01*
X34532Y57778D01*
X34566Y57766D01*
X34593Y57762D01*
X33900Y57069D01*
Y56089D01*
X33878Y56106D01*
X33846Y56121D01*
X33804Y56134D01*
X33752Y56146D01*
X33690Y56155D01*
X33537Y56170D01*
X33344Y56177D01*
X33233Y56178D01*
Y57300D01*
X33210Y57323D01*
X33233Y57345D01*
Y57378D01*
X33265Y57378D01*
X34058Y58171D01*
X34138Y58093D01*
D02*
G37*
G36*
X132797Y53811D02*
X132720Y53885D01*
X132642Y53951D01*
X132563Y54010D01*
X132482Y54060D01*
X132400Y54103D01*
X132317Y54138D01*
X132296Y54145D01*
X132247Y54125D01*
X132192Y54092D01*
X132149Y54053D01*
X132119Y54008D01*
X132100Y53957D01*
X132094Y53900D01*
Y54192D01*
X132060Y54196D01*
X131972Y54200D01*
Y54800D01*
X132060Y54804D01*
X132094Y54809D01*
Y55100D01*
X132100Y55043D01*
X132119Y54992D01*
X132149Y54947D01*
X132192Y54908D01*
X132247Y54875D01*
X132296Y54856D01*
X132317Y54863D01*
X132400Y54898D01*
X132482Y54940D01*
X132563Y54991D01*
X132642Y55049D01*
X132720Y55115D01*
X132797Y55189D01*
Y53811D01*
D02*
G37*
G36*
X115070Y55547D02*
X114998Y55472D01*
X114873Y55324D01*
X114820Y55250D01*
X114772Y55176D01*
X114731Y55102D01*
X114695Y55029D01*
X114666Y54955D01*
X114642Y54882D01*
X114625Y54809D01*
X113908Y55526D01*
X113981Y55543D01*
X114054Y55567D01*
X114128Y55596D01*
X114201Y55632D01*
X114275Y55673D01*
X114349Y55721D01*
X114423Y55774D01*
X114571Y55900D01*
X114646Y55971D01*
X115070Y55547D01*
D02*
G37*
G36*
X124024Y53900D02*
X124018Y53957D01*
X124000Y54008D01*
X123969Y54053D01*
X123926Y54092D01*
X123871Y54125D01*
X123804Y54152D01*
X123724Y54173D01*
X123632Y54188D01*
X123528Y54197D01*
X123412Y54200D01*
Y54800D01*
X123528Y54803D01*
X123632Y54812D01*
X123724Y54827D01*
X123804Y54848D01*
X123871Y54875D01*
X123926Y54908D01*
X123969Y54947D01*
X124000Y54992D01*
X124018Y55043D01*
X124024Y55100D01*
Y53900D01*
D02*
G37*
G36*
X70312Y55912D02*
X71512Y55818D01*
X71663Y55775D01*
X71755Y55725D01*
X71787Y55666D01*
X71759Y55600D01*
X71672Y55526D01*
X72468Y53674D01*
X72388Y53815D01*
X72276Y53941D01*
X72131Y54052D01*
X71954Y54149D01*
X71744Y54230D01*
X71502Y54297D01*
X71228Y54349D01*
X70921Y54386D01*
X70582Y54408D01*
X70210Y54416D01*
X69863Y55916D01*
X70312Y55912D01*
D02*
G37*
G36*
X31392Y54659D02*
X31410Y54612D01*
X31440Y54570D01*
X31482Y54534D01*
X31536Y54504D01*
X31602Y54478D01*
X31680Y54459D01*
X31770Y54445D01*
X31872Y54437D01*
X31986Y54434D01*
Y53834D01*
X31872Y53831D01*
X31770Y53823D01*
X31680Y53809D01*
X31602Y53789D01*
X31536Y53764D01*
X31482Y53734D01*
X31440Y53697D01*
X31410Y53656D01*
X31392Y53608D01*
X31386Y53555D01*
Y54712D01*
X31392Y54659D01*
D02*
G37*
G36*
X107311Y53063D02*
X107238Y53045D01*
X107164Y53022D01*
X107091Y52992D01*
X107017Y52957D01*
X106944Y52915D01*
X106870Y52868D01*
X106796Y52814D01*
X106647Y52689D01*
X106573Y52618D01*
X106149Y53042D01*
X106220Y53116D01*
X106345Y53265D01*
X106399Y53339D01*
X106446Y53413D01*
X106488Y53486D01*
X106523Y53560D01*
X106553Y53633D01*
X106576Y53707D01*
X106594Y53780D01*
X107311Y53063D01*
D02*
G37*
G36*
X134946Y51556D02*
X135082Y51316D01*
Y35747D01*
X135082Y34407D01*
X135082Y34406D01*
X135082Y33784D01*
X135089Y33749D01*
X135089Y33749D01*
X135152Y33432D01*
X135332Y33163D01*
X135332Y33163D01*
X135351Y33135D01*
X136739Y31746D01*
X139922Y28564D01*
X140220Y28365D01*
X140571Y28295D01*
X140958D01*
X141030Y28263D01*
X141140Y28261D01*
X141191Y28257D01*
X141340Y27897D01*
X141758Y27353D01*
X142303Y26935D01*
X142937Y26672D01*
X143618Y26582D01*
X153382D01*
X154063Y26672D01*
X154697Y26935D01*
X155000Y27167D01*
X155968Y26942D01*
X157000Y26359D01*
Y13203D01*
X155000Y12487D01*
X154648Y12916D01*
X153568Y13803D01*
X152335Y14462D01*
X150997Y14867D01*
X149606Y15004D01*
X148215Y14867D01*
X146878Y14462D01*
X145645Y13803D01*
X144564Y12916D01*
X143678Y11835D01*
X143019Y10603D01*
X142613Y9265D01*
X142476Y7874D01*
X142613Y6483D01*
X143019Y5145D01*
X143678Y3913D01*
X144564Y2832D01*
X144969Y2500D01*
X144253Y500D01*
X32000D01*
Y8351D01*
X38500D01*
X38959Y8541D01*
X43769Y13351D01*
X46307D01*
X46766Y13541D01*
X48343Y14328D01*
X48488Y14363D01*
X49100Y14400D01*
X50900D01*
X51512Y14363D01*
X51527Y14369D01*
X51581Y14366D01*
X51643Y14400D01*
X53888D01*
X54929Y12400D01*
X54873Y12118D01*
X54873Y12118D01*
X54996Y11500D01*
X55346Y10976D01*
X55870Y10626D01*
X55870Y10626D01*
X56071Y10586D01*
X56488Y10503D01*
X57106Y10626D01*
X57630Y10976D01*
X57925Y11040D01*
X59567Y10990D01*
X59810Y10912D01*
X59846Y10858D01*
X60167Y10643D01*
X60199Y10622D01*
X60199Y10622D01*
X60370Y10508D01*
X61900Y9900D01*
X61900Y9900D01*
X65350Y9900D01*
X66380Y9406D01*
X67018Y8280D01*
Y4900D01*
X71218D01*
Y9100D01*
X71218D01*
X71218Y9900D01*
X71218Y9900D01*
Y14100D01*
X71218D01*
X71218Y14900D01*
X71218Y14900D01*
Y19100D01*
X71218D01*
X70705Y21100D01*
X71649Y22044D01*
X71668Y22073D01*
X73133Y23364D01*
X73568D01*
X73568Y24313D01*
X73568Y26012D01*
X73617Y26557D01*
X73968Y28170D01*
X75149Y29351D01*
X75168Y29380D01*
X75168Y29380D01*
X75348Y29649D01*
X75411Y29966D01*
X75411Y29966D01*
X75418Y30000D01*
X75418Y31963D01*
X75418Y35000D01*
X75348Y35351D01*
X75168Y35620D01*
X75168Y35620D01*
X75149Y35649D01*
X73976Y36822D01*
X73960Y36850D01*
X73975Y36952D01*
X74217Y37128D01*
X75867Y37961D01*
X76147Y37969D01*
X76278Y37839D01*
X76367Y37390D01*
X76367Y37390D01*
X76621Y37009D01*
X77001Y36755D01*
X77450Y36666D01*
X77450Y36666D01*
X77759Y35998D01*
X78013Y35617D01*
X78393Y35363D01*
X79219Y33465D01*
X78924Y32259D01*
X78851Y32186D01*
X78832Y32157D01*
X78832Y32157D01*
X78652Y31888D01*
X78589Y31571D01*
X78589Y31571D01*
X78582Y31537D01*
Y28928D01*
X78589Y28894D01*
X78589Y28894D01*
X78652Y28576D01*
X78832Y28308D01*
X78832Y28308D01*
X78851Y28279D01*
X79380Y27749D01*
X79380Y27749D01*
X80082Y27048D01*
Y26105D01*
X80082Y17156D01*
X80082Y16498D01*
X78117Y14533D01*
X78046Y14506D01*
X77826Y14302D01*
X77755Y14245D01*
X77721Y14222D01*
X77640Y14255D01*
X77590Y14235D01*
X77538Y14248D01*
X77490Y14218D01*
X74900D01*
Y10018D01*
X79100D01*
Y12608D01*
X79129Y12656D01*
X79117Y12708D01*
X79137Y12758D01*
X79104Y12839D01*
X79122Y12866D01*
X79275Y13047D01*
X79379Y13155D01*
X79409Y13229D01*
X81649Y15469D01*
X81668Y15498D01*
X81668Y15498D01*
X81848Y15767D01*
X81918Y16118D01*
Y16863D01*
Y26426D01*
X81918Y27428D01*
X81911Y27461D01*
D01*
X81911Y27461D01*
X81911Y27462D01*
X81848Y27779D01*
X81668Y28048D01*
X81668Y28048D01*
X81668Y28048D01*
X81668Y28048D01*
X81649Y28076D01*
X81029Y28696D01*
X81064Y29015D01*
X83234Y30458D01*
X83327Y30430D01*
X83581Y30050D01*
X83581D01*
X83961Y29796D01*
X84204Y29747D01*
X84749Y29276D01*
X85598Y28198D01*
X85657Y28070D01*
X85624Y27901D01*
Y20500D01*
X85728Y19973D01*
X86027Y19527D01*
X86518Y19035D01*
Y15643D01*
X86484Y15581D01*
X86484Y15581D01*
X86486Y15524D01*
X86481Y15512D01*
X86481Y15512D01*
X86507Y14500D01*
X86481Y13488D01*
X86481Y13488D01*
X86486Y13476D01*
X86484Y13419D01*
X86484Y13419D01*
X86518Y13357D01*
Y10643D01*
X86484Y10581D01*
X86487Y10527D01*
X86481Y10512D01*
X86518Y9900D01*
X86817Y9007D01*
X87077Y7932D01*
X86991Y7500D01*
X87114Y6882D01*
X87242Y6690D01*
Y6428D01*
X87114Y6236D01*
X86991Y5618D01*
X87114Y5000D01*
X87464Y4476D01*
X87988Y4126D01*
X88606Y4003D01*
X89224Y4126D01*
X89748Y4476D01*
X90099Y5000D01*
X90221Y5618D01*
X90099Y6236D01*
X89995Y6392D01*
Y6726D01*
X90099Y6882D01*
X90221Y7500D01*
X90134Y7941D01*
X90134Y7945D01*
X90360Y8870D01*
X90718Y9900D01*
X90756Y10512D01*
X90749Y10527D01*
X90752Y10581D01*
X90718Y10643D01*
Y13357D01*
X90752Y13419D01*
X90752Y13419D01*
X90751Y13476D01*
X90756Y13488D01*
X90756Y13488D01*
X90729Y14500D01*
X90756Y15512D01*
X90756Y15512D01*
X90751Y15524D01*
X90752Y15581D01*
X90752Y15581D01*
X90718Y15643D01*
Y19100D01*
X89951D01*
X89890Y19409D01*
X89591Y19855D01*
X88376Y21070D01*
Y27331D01*
X90284Y29238D01*
X90284Y29238D01*
X91825Y30779D01*
X91965Y30860D01*
X92110Y30931D01*
X94355Y30888D01*
X97223Y28020D01*
X97789Y27454D01*
X97789Y27454D01*
X97977Y27266D01*
X97977Y27266D01*
X98358Y27012D01*
X98358Y27012D01*
X98806Y26922D01*
X98806Y26922D01*
X98806Y26922D01*
X99255Y27012D01*
X100689Y26474D01*
X101200Y26089D01*
Y19176D01*
X101169Y19105D01*
X101169Y19100D01*
X100018D01*
Y14900D01*
X100018Y14900D01*
Y14100D01*
X100018D01*
X100018Y12900D01*
Y9900D01*
X104218D01*
Y12490D01*
X104248Y12538D01*
X104235Y12590D01*
X104256Y12640D01*
X104222Y12721D01*
X105299Y13883D01*
X105299Y13883D01*
Y13883D01*
X105649Y14233D01*
X105848Y14531D01*
X105918Y14882D01*
Y27469D01*
X105848Y27820D01*
X105649Y28118D01*
X105270Y28497D01*
X105614Y29638D01*
X106559Y29924D01*
X106863Y29876D01*
X109044Y27695D01*
X109082Y27657D01*
Y23355D01*
D01*
Y23000D01*
X109089Y22966D01*
X109089Y22966D01*
X109152Y22649D01*
X109332Y22380D01*
X109332Y22380D01*
X109351Y22351D01*
X109535Y22168D01*
X110000Y21680D01*
X110000Y21680D01*
X110700Y20947D01*
X110775Y20867D01*
X110828Y20802D01*
X110830Y20789D01*
X110805Y20739D01*
X110841Y20633D01*
Y16038D01*
X111750D01*
X111900Y14100D01*
X111900D01*
Y9900D01*
X116100D01*
Y14100D01*
X116100D01*
X116250Y16038D01*
X117159D01*
Y21962D01*
X112674D01*
X112645Y21983D01*
X112521Y21962D01*
X112436D01*
X112412Y21976D01*
X112366Y22008D01*
X112198Y22148D01*
X112100Y22242D01*
X111514Y22990D01*
Y22990D01*
X111082Y23542D01*
X110918Y23753D01*
Y25762D01*
X111064Y27701D01*
X112715Y28545D01*
X112848Y28582D01*
X117552D01*
X119072Y27432D01*
X119109Y27326D01*
Y22731D01*
X125427D01*
Y22731D01*
X126900Y23691D01*
X131100D01*
Y27891D01*
X126900D01*
X125427Y28655D01*
Y28655D01*
X124980Y29086D01*
X124881Y31431D01*
X124932Y31573D01*
X124969Y31638D01*
X125021Y31688D01*
X125080Y31738D01*
X125134Y31779D01*
X125182Y31811D01*
X125225Y31835D01*
X125261Y31852D01*
X125292Y31863D01*
X125316Y31869D01*
X125337Y31873D01*
X125387Y31876D01*
X125437Y31900D01*
X127600D01*
Y35280D01*
X128238Y36406D01*
X129269Y36900D01*
X132718D01*
Y41100D01*
X132718D01*
X132718Y41900D01*
X132718Y41900D01*
Y46100D01*
X129181D01*
X128140Y46766D01*
X127600Y47720D01*
Y50781D01*
X128101Y51664D01*
X129149Y52400D01*
X129600Y52400D01*
X132718D01*
Y52400D01*
X133500Y52885D01*
X134946Y51556D01*
D02*
G37*
G36*
X91529Y61914D02*
X91972Y60097D01*
X91858Y59142D01*
X91703Y58911D01*
X91508Y58618D01*
X91385Y58000D01*
X91508Y57382D01*
X91508Y57382D01*
X91624Y57208D01*
Y51830D01*
X91602Y51784D01*
X91588Y51539D01*
X91559Y51370D01*
X91517Y51244D01*
X91468Y51153D01*
X91413Y51086D01*
X91347Y51032D01*
X91256Y50983D01*
X91130Y50941D01*
X90961Y50911D01*
X90716Y50898D01*
X90670Y50876D01*
X81371D01*
X80982Y51577D01*
X80920Y51549D01*
X81267Y51044D01*
X80125Y50906D01*
X80074Y51166D01*
X79500Y50906D01*
X78559Y51685D01*
X77926Y51052D01*
X77298Y51671D01*
X78014Y52388D01*
X78021Y52379D01*
X78040Y52359D01*
X78482Y51912D01*
X78490Y51913D01*
X78681Y51934D01*
X78866Y51969D01*
X79046Y52019D01*
X79220Y52082D01*
X79387Y52160D01*
X79549Y52252D01*
X79705Y52358D01*
X79856Y52478D01*
X80000Y52613D01*
X80408D01*
X80324Y52763D01*
X80740Y53878D01*
X81120Y54132D01*
X81375Y54513D01*
X81683Y55181D01*
X81683Y55181D01*
X82132Y55270D01*
X82512Y55524D01*
X82766Y55905D01*
X82766Y55905D01*
X82856Y56353D01*
X83075Y56573D01*
X83524Y56662D01*
X83904Y56916D01*
X84158Y57297D01*
X84248Y57745D01*
X84467Y57965D01*
X84916Y58054D01*
X85296Y58308D01*
X85550Y58689D01*
X85640Y59137D01*
X85859Y59357D01*
X86308Y59446D01*
X86688Y59700D01*
X86942Y60081D01*
X87032Y60529D01*
X87251Y60749D01*
X87700Y60838D01*
X87700Y60838D01*
X88080Y61092D01*
X88334Y61473D01*
X90206Y62287D01*
X91529Y61914D01*
D02*
G37*
G36*
X44672Y53295D02*
X44649Y53229D01*
X44630Y53135D01*
X44613Y53015D01*
X44587Y52694D01*
X44567Y52012D01*
X44566Y51730D01*
X43766D01*
X43764Y52012D01*
X43682Y53229D01*
X43660Y53295D01*
X43635Y53335D01*
X44696D01*
X44672Y53295D01*
D02*
G37*
G36*
X47743Y52762D02*
X47761Y52725D01*
X47791Y52692D01*
X47833Y52664D01*
X47887Y52640D01*
X47953Y52620D01*
X48031Y52605D01*
X48121Y52594D01*
X48223Y52587D01*
X48337Y52585D01*
Y51985D01*
X48222Y51982D01*
X48118Y51973D01*
X48027Y51958D01*
X47947Y51937D01*
X47880Y51910D01*
X47825Y51877D01*
X47782Y51838D01*
X47751Y51793D01*
X47732Y51742D01*
X47725Y51685D01*
X47737Y52803D01*
X47743Y52762D01*
D02*
G37*
G36*
X31392Y52691D02*
X31410Y52644D01*
X31440Y52602D01*
X31482Y52566D01*
X31536Y52535D01*
X31602Y52510D01*
X31680Y52490D01*
X31770Y52477D01*
X31872Y52468D01*
X31986Y52465D01*
Y51865D01*
X31872Y51863D01*
X31770Y51854D01*
X31680Y51840D01*
X31602Y51821D01*
X31536Y51796D01*
X31482Y51765D01*
X31440Y51729D01*
X31410Y51687D01*
X31392Y51640D01*
X31386Y51587D01*
Y52744D01*
X31392Y52691D01*
D02*
G37*
G36*
X38273Y51565D02*
X38267Y51622D01*
X38249Y51673D01*
X38218Y51718D01*
X38175Y51757D01*
X38120Y51790D01*
X38053Y51817D01*
X37973Y51838D01*
X37882Y51853D01*
X37778Y51862D01*
X37661Y51865D01*
Y52465D01*
X37778Y52468D01*
X37882Y52477D01*
X37973Y52492D01*
X38053Y52513D01*
X38120Y52540D01*
X38175Y52573D01*
X38218Y52612D01*
X38249Y52657D01*
X38267Y52708D01*
X38273Y52765D01*
Y51565D01*
D02*
G37*
G36*
X34780Y52780D02*
X34858Y52714D01*
X34937Y52656D01*
X35018Y52605D01*
X35100Y52563D01*
X35183Y52528D01*
X35267Y52500D01*
X35353Y52481D01*
X35440Y52469D01*
X35528Y52465D01*
Y51865D01*
X35440Y51862D01*
X35353Y51850D01*
X35267Y51830D01*
X35183Y51803D01*
X35100Y51768D01*
X35018Y51725D01*
X34937Y51675D01*
X34858Y51616D01*
X34780Y51550D01*
X34703Y51476D01*
Y52854D01*
X34780Y52780D01*
D02*
G37*
G36*
X33297Y51476D02*
X33220Y51550D01*
X33142Y51616D01*
X33063Y51675D01*
X32982Y51725D01*
X32900Y51768D01*
X32817Y51803D01*
X32733Y51830D01*
X32647Y51850D01*
X32560Y51862D01*
X32472Y51865D01*
Y52465D01*
X32560Y52469D01*
X32647Y52481D01*
X32733Y52500D01*
X32817Y52528D01*
X32900Y52563D01*
X32982Y52605D01*
X33063Y52656D01*
X33142Y52714D01*
X33220Y52780D01*
X33297Y52854D01*
Y51476D01*
D02*
G37*
G36*
X108841Y49983D02*
X108927Y49213D01*
X108819Y48245D01*
X108788Y48020D01*
X108712Y47639D01*
X108493Y47420D01*
X108044Y47331D01*
X107664Y47077D01*
X107409Y46696D01*
X105604Y46038D01*
X104494Y46625D01*
X101786Y49332D01*
X102538Y50712D01*
X102865Y51082D01*
X105531Y51082D01*
X105565Y51089D01*
X107218Y51296D01*
X108841Y49983D01*
D02*
G37*
G36*
X42502Y51529D02*
X42517Y51338D01*
X42530Y51253D01*
X42547Y51176D01*
X42568Y51106D01*
X42593Y51044D01*
X42621Y50988D01*
X42653Y50940D01*
X42689Y50900D01*
X41311D01*
X41347Y50940D01*
X41379Y50988D01*
X41407Y51044D01*
X41432Y51106D01*
X41453Y51176D01*
X41470Y51253D01*
X41483Y51338D01*
X41492Y51430D01*
X41500Y51635D01*
X42500D01*
X42502Y51529D01*
D02*
G37*
G36*
X96453Y56990D02*
X100933Y52510D01*
X100891Y52410D01*
X99754Y50860D01*
X99672Y50876D01*
X95330D01*
X95284Y50898D01*
X95039Y50911D01*
X94870Y50941D01*
X94744Y50983D01*
X94653Y51032D01*
X94586Y51086D01*
X94532Y51153D01*
X94483Y51244D01*
X94441Y51370D01*
X94411Y51539D01*
X94398Y51784D01*
X94376Y51830D01*
Y56238D01*
X96277Y57025D01*
X96453Y56990D01*
D02*
G37*
G36*
X41297Y50699D02*
X41437Y50697D01*
Y49697D01*
X41297Y49696D01*
Y49508D01*
X41256Y49544D01*
X41208Y49576D01*
X41153Y49604D01*
X41091Y49629D01*
X41021Y49650D01*
X40943Y49667D01*
X40916Y49671D01*
X40597Y49647D01*
X40527Y49629D01*
X40477Y49608D01*
X40447Y49585D01*
X40437Y49559D01*
Y50835D01*
X40447Y50809D01*
X40477Y50785D01*
X40527Y50765D01*
X40597Y50747D01*
X40687Y50731D01*
X40797Y50719D01*
X40866Y50715D01*
X40943Y50727D01*
X41021Y50744D01*
X41091Y50765D01*
X41153Y50789D01*
X41208Y50818D01*
X41256Y50850D01*
X41297Y50886D01*
Y50699D01*
D02*
G37*
G36*
X31392Y50722D02*
X31410Y50675D01*
X31440Y50633D01*
X31482Y50597D01*
X31536Y50567D01*
X31602Y50541D01*
X31680Y50522D01*
X31770Y50508D01*
X31872Y50500D01*
X31986Y50497D01*
Y49897D01*
X31872Y49894D01*
X31770Y49886D01*
X31680Y49872D01*
X31602Y49852D01*
X31536Y49827D01*
X31482Y49797D01*
X31440Y49760D01*
X31410Y49719D01*
X31392Y49671D01*
X31386Y49618D01*
Y50775D01*
X31392Y50722D01*
D02*
G37*
G36*
X44574Y51245D02*
X44598Y51109D01*
X44638Y50989D01*
X44694Y50885D01*
X44766Y50797D01*
X44854Y50725D01*
X44958Y50669D01*
X45046Y50640D01*
X45056Y50642D01*
X45128Y50661D01*
X45184Y50684D01*
X45224Y50711D01*
X45248Y50741D01*
X45256Y50775D01*
Y50632D01*
X45273Y50635D01*
X45361Y50656D01*
X45433Y50682D01*
X45489Y50713D01*
X45529Y50749D01*
X45553Y50790D01*
X45561Y50835D01*
Y49559D01*
X45553Y49604D01*
X45529Y49645D01*
X45489Y49680D01*
X45433Y49711D01*
X45361Y49737D01*
X45273Y49759D01*
X45256Y49762D01*
Y49618D01*
X45248Y49652D01*
X45224Y49683D01*
X45184Y49709D01*
X45128Y49733D01*
X45056Y49752D01*
X45046Y49754D01*
X44958Y49725D01*
X44854Y49669D01*
X44766Y49597D01*
X44694Y49509D01*
X44638Y49405D01*
X44598Y49285D01*
X44574Y49149D01*
X44566Y48997D01*
X43766Y50197D01*
X44566Y51397D01*
X44574Y51245D01*
D02*
G37*
G36*
X32677Y47539D02*
X32601Y47613D01*
X32522Y47679D01*
X32443Y47738D01*
X32362Y47788D01*
X32280Y47831D01*
X32197Y47866D01*
X32113Y47893D01*
X32027Y47913D01*
X31940Y47925D01*
X31900Y47926D01*
X31872Y47926D01*
X31770Y47917D01*
X31680Y47903D01*
X31602Y47884D01*
X31536Y47859D01*
X31482Y47828D01*
X31440Y47792D01*
X31410Y47750D01*
X31392Y47703D01*
X31386Y47650D01*
Y48807D01*
X31392Y48754D01*
X31410Y48707D01*
X31440Y48665D01*
X31482Y48629D01*
X31536Y48598D01*
X31602Y48573D01*
X31680Y48553D01*
X31770Y48540D01*
X31872Y48531D01*
X31900Y48531D01*
X31940Y48532D01*
X32027Y48544D01*
X32113Y48563D01*
X32197Y48591D01*
X32280Y48626D01*
X32362Y48668D01*
X32443Y48719D01*
X32522Y48777D01*
X32601Y48843D01*
X32677Y48917D01*
Y47539D01*
D02*
G37*
G36*
X37287Y48872D02*
X37377Y48800D01*
X37470Y48736D01*
X37567Y48681D01*
X37668Y48634D01*
X37772Y48596D01*
X37880Y48566D01*
X37955Y48552D01*
X37973Y48555D01*
X38053Y48576D01*
X38120Y48603D01*
X38175Y48636D01*
X38218Y48675D01*
X38249Y48720D01*
X38267Y48771D01*
X38273Y48828D01*
Y47628D01*
X38267Y47685D01*
X38249Y47736D01*
X38218Y47781D01*
X38175Y47820D01*
X38120Y47853D01*
X38053Y47880D01*
X37973Y47901D01*
X37955Y47904D01*
X37880Y47890D01*
X37772Y47861D01*
X37668Y47822D01*
X37567Y47776D01*
X37470Y47721D01*
X37377Y47657D01*
X37287Y47585D01*
X37200Y47504D01*
X36652Y47804D01*
X36728Y47889D01*
X36787Y47974D01*
X36830Y48059D01*
X36855Y48144D01*
X36864Y48228D01*
X36855Y48313D01*
X36830Y48398D01*
X36787Y48483D01*
X36728Y48568D01*
X36652Y48653D01*
X37200Y48953D01*
X37287Y48872D01*
D02*
G37*
G36*
X82300Y48750D02*
X82015Y48744D01*
X81760Y48726D01*
X81535Y48696D01*
X81340Y48654D01*
X81175Y48600D01*
X81040Y48534D01*
X80935Y48456D01*
X80860Y48366D01*
X80848Y48338D01*
X80821Y48061D01*
X80802Y47586D01*
X80800Y47313D01*
X80200D01*
X80198Y47586D01*
X80167Y48061D01*
X80148Y48347D01*
X80140Y48366D01*
X80065Y48456D01*
X79960Y48534D01*
X79825Y48600D01*
X79660Y48654D01*
X79465Y48696D01*
X78985Y48744D01*
X78700Y48750D01*
X80500Y50250D01*
X82300Y48750D01*
D02*
G37*
G36*
X93765Y51465D02*
X93810Y51210D01*
X93885Y50985D01*
X93990Y50790D01*
X94125Y50625D01*
X94290Y50490D01*
X94485Y50385D01*
X94710Y50310D01*
X94965Y50265D01*
X95250Y50250D01*
Y48750D01*
X94965Y48735D01*
X94710Y48690D01*
X94485Y48615D01*
X94290Y48510D01*
X94125Y48375D01*
X93990Y48210D01*
X93885Y48015D01*
X93810Y47790D01*
X93765Y47535D01*
X93750Y47250D01*
X92250D01*
X92235Y47535D01*
X92190Y47790D01*
X92115Y48015D01*
X92010Y48210D01*
X91875Y48375D01*
X91710Y48510D01*
X91515Y48615D01*
X91290Y48690D01*
X91035Y48735D01*
X90750Y48750D01*
Y50250D01*
X91035Y50265D01*
X91290Y50310D01*
X91515Y50385D01*
X91710Y50490D01*
X91875Y50625D01*
X92010Y50790D01*
X92115Y50985D01*
X92190Y51210D01*
X92235Y51465D01*
X92250Y51750D01*
X93750D01*
X93765Y51465D01*
D02*
G37*
G36*
X126043Y47719D02*
X125992Y47701D01*
X125947Y47671D01*
X125908Y47629D01*
X125875Y47575D01*
X125848Y47509D01*
X125827Y47431D01*
X125812Y47341D01*
X125803Y47239D01*
X125800Y47125D01*
X125200D01*
X125197Y47239D01*
X125188Y47341D01*
X125173Y47431D01*
X125152Y47509D01*
X125125Y47575D01*
X125092Y47629D01*
X125053Y47671D01*
X125008Y47701D01*
X124957Y47719D01*
X124900Y47725D01*
X126100D01*
X126043Y47719D01*
D02*
G37*
G36*
X31392Y46786D02*
X31410Y46738D01*
X31440Y46696D01*
X31482Y46660D01*
X31536Y46630D01*
X31602Y46604D01*
X31680Y46585D01*
X31770Y46571D01*
X31872Y46563D01*
X31986Y46560D01*
Y45960D01*
X31872Y45957D01*
X31770Y45949D01*
X31680Y45935D01*
X31602Y45915D01*
X31536Y45890D01*
X31482Y45860D01*
X31440Y45823D01*
X31410Y45782D01*
X31392Y45734D01*
X31386Y45681D01*
Y46838D01*
X31392Y46786D01*
D02*
G37*
G36*
X125803Y45972D02*
X125812Y45868D01*
X125827Y45776D01*
X125848Y45696D01*
X125875Y45629D01*
X125908Y45574D01*
X125947Y45531D01*
X125992Y45500D01*
X126043Y45482D01*
X126100Y45476D01*
X124900D01*
X124957Y45482D01*
X125008Y45500D01*
X125053Y45531D01*
X125092Y45574D01*
X125125Y45629D01*
X125152Y45696D01*
X125173Y45776D01*
X125188Y45868D01*
X125197Y45972D01*
X125200Y46088D01*
X125800D01*
X125803Y45972D01*
D02*
G37*
G36*
X79852Y45384D02*
X79780Y45309D01*
X79655Y45160D01*
X79601Y45087D01*
X79554Y45013D01*
X79512Y44939D01*
X79477Y44865D01*
X79447Y44792D01*
X79424Y44719D01*
X79406Y44646D01*
X78689Y45362D01*
X78763Y45380D01*
X78836Y45403D01*
X78909Y45433D01*
X78983Y45469D01*
X79056Y45510D01*
X79130Y45557D01*
X79204Y45611D01*
X79353Y45736D01*
X79427Y45808D01*
X79852Y45384D01*
D02*
G37*
G36*
X62411Y56381D02*
X63080Y55712D01*
X65381Y53411D01*
X65946Y53976D01*
X66069Y53894D01*
X66596Y53789D01*
X66596Y53789D01*
X70145D01*
X70197Y53766D01*
X70554Y53759D01*
X70861Y53739D01*
X71128Y53707D01*
X71276Y53679D01*
X73026Y51929D01*
X73026Y51929D01*
X74567Y50388D01*
X74701Y50030D01*
X74472Y47654D01*
X71053Y44235D01*
X70390Y43985D01*
X69676Y44213D01*
X69618Y44231D01*
X69618D01*
X69000Y44354D01*
X69000Y44354D01*
X68382Y44231D01*
X68382Y44231D01*
X68028Y43995D01*
X67858Y43881D01*
X67858Y43881D01*
X67622Y43528D01*
X67549Y43419D01*
D01*
X67508Y43357D01*
X67508Y43357D01*
X67385Y42739D01*
X67385Y42739D01*
X67425Y42538D01*
X67508Y42121D01*
X67508Y42121D01*
X67858Y41597D01*
X67858Y41597D01*
X68382Y41247D01*
X68382Y41247D01*
X68583Y41207D01*
X69000Y41124D01*
X69172Y41057D01*
X70485Y40031D01*
X70779Y39617D01*
X70779Y37803D01*
X70786Y37769D01*
X70786Y37769D01*
X70849Y37452D01*
X71029Y37183D01*
X71029Y37183D01*
X71048Y37154D01*
X72386Y35816D01*
X71558Y33816D01*
X68432D01*
Y33816D01*
X66431Y33760D01*
X59918Y40273D01*
Y56080D01*
X61680Y57130D01*
X62411Y56381D01*
D02*
G37*
G36*
X38106Y44423D02*
X38117Y44297D01*
X38189D01*
X38172Y44275D01*
X38157Y44243D01*
X38144Y44200D01*
X38134Y44158D01*
X38154Y44039D01*
X38196Y43883D01*
X38250Y43751D01*
X38316Y43643D01*
X38394Y43559D01*
X38484Y43499D01*
X38586Y43463D01*
X38700Y43451D01*
X37012D01*
X36991Y43463D01*
X36972Y43499D01*
X36955Y43559D01*
X36943Y43629D01*
X36900D01*
X36899Y43740D01*
X36878Y44087D01*
X36868Y44148D01*
X36856Y44200D01*
X36843Y44243D01*
X36828Y44275D01*
X36811Y44297D01*
X36904D01*
X36900Y44651D01*
X38100D01*
X38106Y44423D01*
D02*
G37*
G36*
X124024Y43400D02*
X124018Y43457D01*
X124000Y43508D01*
X123969Y43553D01*
X123926Y43592D01*
X123871Y43625D01*
X123804Y43652D01*
X123724Y43673D01*
X123632Y43688D01*
X123528Y43697D01*
X123412Y43700D01*
Y44300D01*
X123528Y44303D01*
X123632Y44312D01*
X123724Y44327D01*
X123804Y44348D01*
X123871Y44375D01*
X123926Y44408D01*
X123969Y44447D01*
X124000Y44492D01*
X124018Y44543D01*
X124024Y44600D01*
Y43400D01*
D02*
G37*
G36*
X71882Y42858D02*
X71859Y42858D01*
X71831Y42851D01*
X71798Y42837D01*
X71760Y42815D01*
X71717Y42785D01*
X71669Y42748D01*
X71558Y42652D01*
X71427Y42527D01*
X71003Y42951D01*
X71070Y43019D01*
X71261Y43241D01*
X71291Y43284D01*
X71313Y43322D01*
X71327Y43355D01*
X71334Y43383D01*
X71334Y43406D01*
X71882Y42858D01*
D02*
G37*
G36*
X32504Y41634D02*
X32463Y41670D01*
X32415Y41702D01*
X32360Y41730D01*
X32297Y41755D01*
X32227Y41776D01*
X32150Y41793D01*
X32065Y41806D01*
X32019Y41811D01*
X31426Y41773D01*
X31396Y41759D01*
X31386Y41744D01*
Y42901D01*
X31396Y42886D01*
X31426Y42873D01*
X31476Y42861D01*
X31546Y42851D01*
X31746Y42835D01*
X31957Y42831D01*
X32065Y42840D01*
X32150Y42853D01*
X32227Y42870D01*
X32297Y42891D01*
X32360Y42915D01*
X32415Y42944D01*
X32463Y42976D01*
X32504Y43012D01*
Y41634D01*
D02*
G37*
G36*
X123050Y57292D02*
X122649Y55348D01*
X122352Y55149D01*
X121239Y54037D01*
X119851Y52649D01*
X119832Y52620D01*
X119832Y52620D01*
X119652Y52351D01*
X119589Y52034D01*
X119589Y52034D01*
X119582Y52000D01*
X119582Y50037D01*
Y43762D01*
X118355Y42535D01*
X116287D01*
X115567Y43255D01*
X115538Y43328D01*
X115481Y43387D01*
X115385Y43501D01*
X115356Y43542D01*
X115329Y43585D01*
X115306Y43624D01*
X115289Y43659D01*
X115277Y43691D01*
X115268Y43718D01*
X115256Y43768D01*
X115204Y43839D01*
X115201Y43855D01*
X115133Y43957D01*
X115084Y44075D01*
X115042Y44093D01*
X114947Y44235D01*
X111193Y47989D01*
X110895Y49213D01*
X111193Y50436D01*
X114947Y54190D01*
X115042Y54333D01*
X115084Y54350D01*
X115133Y54468D01*
X115201Y54570D01*
X115204Y54586D01*
X115256Y54658D01*
X115268Y54707D01*
X115277Y54734D01*
X115289Y54766D01*
X115306Y54801D01*
X115329Y54840D01*
X115356Y54883D01*
X115385Y54924D01*
X115481Y55038D01*
X115538Y55097D01*
X115567Y55171D01*
X118979Y58583D01*
X122389D01*
X123050Y57292D01*
D02*
G37*
G36*
X114642Y43543D02*
X114666Y43470D01*
X114695Y43396D01*
X114731Y43323D01*
X114772Y43249D01*
X114820Y43175D01*
X114873Y43101D01*
X114998Y42953D01*
X115070Y42878D01*
X114646Y42454D01*
X114571Y42526D01*
X114423Y42651D01*
X114349Y42704D01*
X114275Y42752D01*
X114201Y42793D01*
X114128Y42829D01*
X114054Y42858D01*
X113981Y42882D01*
X113908Y42900D01*
X114625Y43616D01*
X114642Y43543D01*
D02*
G37*
G36*
X69780Y43354D02*
X69858Y43288D01*
X69937Y43230D01*
X70018Y43179D01*
X70100Y43136D01*
X70183Y43101D01*
X70267Y43074D01*
X70353Y43055D01*
X70440Y43043D01*
X70528Y43039D01*
Y42439D01*
X70440Y42435D01*
X70353Y42423D01*
X70267Y42404D01*
X70183Y42377D01*
X70100Y42342D01*
X70018Y42299D01*
X69937Y42248D01*
X69858Y42190D01*
X69780Y42124D01*
X69703Y42050D01*
Y43428D01*
X69780Y43354D01*
D02*
G37*
G36*
X103436Y43790D02*
X103385Y43595D01*
X103647Y43448D01*
X103363Y42843D01*
X103808Y43288D01*
X104527Y42578D01*
X103810Y41862D01*
X103803Y41871D01*
X103781Y41894D01*
X103193Y42487D01*
X103052Y42575D01*
X102608Y41789D01*
X102476Y41763D01*
X102096Y41509D01*
X102096D01*
X101842Y41128D01*
X101842D01*
X101752Y40680D01*
X101533Y40460D01*
X101084Y40371D01*
X100704Y40117D01*
X100450Y39737D01*
X100360Y39288D01*
X100141Y39068D01*
X99692Y38979D01*
X99692Y38979D01*
X99312Y38725D01*
X99058Y38344D01*
X98818Y37826D01*
X98300Y37587D01*
X97920Y37333D01*
X97666Y36953D01*
X97666Y36953D01*
X97609Y36666D01*
X96369Y35958D01*
X95569Y36046D01*
X94376Y36939D01*
Y47170D01*
X94398Y47216D01*
X94411Y47461D01*
X94441Y47630D01*
X94483Y47756D01*
X94532Y47847D01*
X94586Y47914D01*
X94653Y47968D01*
X94744Y48017D01*
X94870Y48059D01*
X95039Y48088D01*
X95284Y48101D01*
X95330Y48124D01*
X99102D01*
X103436Y43790D01*
D02*
G37*
G36*
X73484Y41508D02*
X73411Y41490D01*
X73338Y41467D01*
X73264Y41437D01*
X73191Y41401D01*
X73117Y41360D01*
X73043Y41312D01*
X72969Y41259D01*
X72821Y41134D01*
X72746Y41062D01*
X72322Y41486D01*
X72394Y41561D01*
X72519Y41709D01*
X72572Y41783D01*
X72620Y41857D01*
X72661Y41931D01*
X72697Y42004D01*
X72726Y42078D01*
X72750Y42151D01*
X72768Y42224D01*
X73484Y41508D01*
D02*
G37*
G36*
X131161Y42506D02*
X131110Y42488D01*
X131065Y42458D01*
X131026Y42416D01*
X130993Y42362D01*
X130966Y42296D01*
X130945Y42218D01*
X130930Y42128D01*
X130921Y42026D01*
X130918Y41912D01*
X130644D01*
X130918Y41500D01*
X130644Y41088D01*
X130918D01*
X130921Y40974D01*
X130930Y40872D01*
X130945Y40782D01*
X130966Y40704D01*
X130993Y40638D01*
X131026Y40584D01*
X131065Y40542D01*
X131110Y40512D01*
X131161Y40494D01*
X131218Y40488D01*
X130018D01*
X130075Y40494D01*
X130126Y40512D01*
X130171Y40542D01*
X130210Y40584D01*
X130243Y40638D01*
X130270Y40704D01*
X130291Y40782D01*
X130296Y40808D01*
X130294Y40816D01*
X130264Y40906D01*
X130222Y40984D01*
X130168Y41050D01*
X130102Y41104D01*
X130024Y41146D01*
X129934Y41176D01*
X129832Y41194D01*
X129718Y41200D01*
Y41800D01*
X129832Y41806D01*
X129934Y41824D01*
X130024Y41854D01*
X130102Y41896D01*
X130168Y41950D01*
X130222Y42016D01*
X130264Y42094D01*
X130294Y42184D01*
X130296Y42192D01*
X130291Y42218D01*
X130270Y42296D01*
X130243Y42362D01*
X130210Y42416D01*
X130171Y42458D01*
X130126Y42488D01*
X130075Y42506D01*
X130018Y42512D01*
X131218D01*
X131161Y42506D01*
D02*
G37*
G36*
X111858Y40759D02*
X111882Y40686D01*
X111911Y40613D01*
X111947Y40539D01*
X111988Y40465D01*
X112036Y40391D01*
X112089Y40317D01*
X112215Y40169D01*
X112286Y40095D01*
X111862Y39670D01*
X111787Y39742D01*
X111639Y39867D01*
X111565Y39920D01*
X111491Y39968D01*
X111417Y40009D01*
X111344Y40045D01*
X111270Y40075D01*
X111197Y40098D01*
X111124Y40116D01*
X111841Y40832D01*
X111858Y40759D01*
D02*
G37*
G36*
X141717Y38617D02*
X141711Y38673D01*
X141691Y38723D01*
X141657Y38768D01*
X141610Y38806D01*
X141549Y38839D01*
X141475Y38865D01*
X141388Y38886D01*
X141287Y38901D01*
X141172Y38910D01*
X141044Y38913D01*
Y39513D01*
X141172Y39516D01*
X141287Y39524D01*
X141388Y39539D01*
X141475Y39560D01*
X141549Y39586D01*
X141610Y39619D01*
X141657Y39657D01*
X141691Y39702D01*
X141711Y39752D01*
X141717Y39808D01*
Y38617D01*
D02*
G37*
G36*
X37024Y38939D02*
Y37776D01*
X37012Y37890D01*
X36975Y37992D01*
X36915Y38082D01*
X36830Y38160D01*
X36721Y38226D01*
X36588Y38280D01*
X36430Y38322D01*
X36248Y38352D01*
X36042Y38370D01*
X35812Y38376D01*
Y39539D01*
Y39576D01*
Y40739D01*
X36042Y40745D01*
X36248Y40763D01*
X36430Y40793D01*
X36588Y40835D01*
X36721Y40889D01*
X36830Y40955D01*
X36915Y41033D01*
X36975Y41123D01*
X37012Y41225D01*
X37024Y41339D01*
Y38939D01*
D02*
G37*
G36*
X126043Y37518D02*
X125992Y37500D01*
X125947Y37469D01*
X125908Y37426D01*
X125875Y37371D01*
X125848Y37304D01*
X125827Y37224D01*
X125812Y37133D01*
X125803Y37029D01*
X125800Y36912D01*
X125200D01*
X125197Y37029D01*
X125188Y37133D01*
X125173Y37224D01*
X125152Y37304D01*
X125125Y37371D01*
X125092Y37426D01*
X125053Y37469D01*
X125008Y37500D01*
X124957Y37518D01*
X124900Y37524D01*
X126100D01*
X126043Y37518D01*
D02*
G37*
G36*
X109064Y38039D02*
X109086Y38016D01*
X109766Y37329D01*
X109059Y36622D01*
X108340Y37332D01*
X109057Y38048D01*
X109064Y38039D01*
D02*
G37*
G36*
X58721Y60106D02*
X58351Y58064D01*
X58332Y58035D01*
X58332Y58035D01*
X58152Y57766D01*
X58089Y57449D01*
X58089Y57449D01*
X58082Y57415D01*
X58082Y56707D01*
X58082Y56706D01*
X58082Y55452D01*
Y44105D01*
X56100Y44063D01*
X56082Y44063D01*
X49900D01*
Y36363D01*
X49900D01*
X51085Y34853D01*
X51254Y34556D01*
X51268Y34478D01*
X51225Y34245D01*
X51175Y34049D01*
X51120Y33891D01*
X51066Y33772D01*
X51016Y33691D01*
X50956Y33620D01*
X50825Y33489D01*
Y33273D01*
X50788Y33183D01*
X50799Y33156D01*
X50790Y33128D01*
X50825Y33060D01*
Y31940D01*
X50790Y31872D01*
X50799Y31844D01*
X50788Y31817D01*
X50825Y31727D01*
Y31511D01*
X50956Y31380D01*
X51016Y31309D01*
X51066Y31228D01*
X51120Y31109D01*
X51175Y30951D01*
X51225Y30755D01*
X51231Y30719D01*
X51093Y29802D01*
X50387Y28843D01*
X50155Y28670D01*
X49100Y28600D01*
X48488Y28637D01*
X48423Y28611D01*
X48310Y28613D01*
X48294Y28600D01*
X46900D01*
X45706Y28600D01*
X45690Y28613D01*
X45576Y28611D01*
X45512Y28637D01*
X44900Y28600D01*
X42943Y28250D01*
X38269D01*
X37645Y28126D01*
X37115Y27772D01*
X33954Y24611D01*
X32000Y24500D01*
X32000Y24500D01*
X29732D01*
X29377Y24791D01*
X28620Y26228D01*
X28294Y26200D01*
X27997Y26150D01*
X27717Y26087D01*
X27455Y26008D01*
X27209Y25916D01*
X26981Y25810D01*
X26771Y25690D01*
X26577Y25555D01*
Y26764D01*
X24016D01*
Y27764D01*
X26577D01*
Y28973D01*
X26771Y28838D01*
X26981Y28717D01*
X27209Y28611D01*
X27455Y28519D01*
X27717Y28441D01*
X27997Y28377D01*
X28294Y28328D01*
X28390Y28317D01*
X28000Y29487D01*
X28000Y29487D01*
X28000D01*
X28000Y29487D01*
Y36210D01*
X29134Y37753D01*
X35737D01*
X35795Y37727D01*
X36005Y37722D01*
X36167Y37707D01*
X36293Y37687D01*
X36381Y37663D01*
X36400Y37656D01*
Y36363D01*
X42600D01*
Y38314D01*
X42731Y38546D01*
X44175Y39885D01*
X44376Y39925D01*
X44793Y40008D01*
X44793Y40008D01*
X45317Y40358D01*
X45667Y40882D01*
X45790Y41500D01*
X45790Y41500D01*
X45750Y41701D01*
X45667Y42118D01*
X45551Y42292D01*
Y42708D01*
X45667Y42882D01*
X45790Y43500D01*
X45667Y44118D01*
X45551Y44292D01*
Y46751D01*
X45551Y46751D01*
X45737Y46978D01*
X48349D01*
Y47601D01*
X48497Y47699D01*
X55149Y54351D01*
X55348Y54649D01*
X55418Y55000D01*
Y60591D01*
X57417Y61419D01*
X58721Y60106D01*
D02*
G37*
G36*
X90716Y48101D02*
X90961Y48088D01*
X91130Y48059D01*
X91256Y48017D01*
X91347Y47968D01*
X91413Y47914D01*
X91468Y47847D01*
X91517Y47756D01*
X91559Y47630D01*
X91588Y47461D01*
X91602Y47216D01*
X91624Y47170D01*
Y37114D01*
X90924Y36601D01*
X89614Y36311D01*
X88372Y36764D01*
X88334Y36953D01*
X88080Y37333D01*
X87700Y37587D01*
X87251Y37676D01*
X87032Y37896D01*
X86942Y38344D01*
X86688Y38725D01*
X86308Y38979D01*
X85859Y39068D01*
X85640Y39288D01*
X85550Y39737D01*
X85296Y40117D01*
X84916Y40371D01*
X84467Y40460D01*
X84248Y40680D01*
X84158Y41128D01*
X84158Y41128D01*
X83904Y41509D01*
X83524Y41763D01*
X83075Y41852D01*
X83075Y41852D01*
X82766Y42520D01*
X82512Y42901D01*
X82132Y43155D01*
X81683Y43244D01*
X81464Y43464D01*
X81375Y43912D01*
X81120Y44293D01*
X81348Y46105D01*
X81348Y46105D01*
X81418Y46456D01*
Y46470D01*
X82359Y48103D01*
X82398Y48124D01*
X90670D01*
X90716Y48101D01*
D02*
G37*
G36*
X107682Y36583D02*
X107706Y36510D01*
X107735Y36437D01*
X107771Y36363D01*
X107812Y36290D01*
X107860Y36216D01*
X107914Y36142D01*
X108039Y35993D01*
X108110Y35919D01*
X107686Y35494D01*
X107612Y35566D01*
X107463Y35691D01*
X107389Y35745D01*
X107315Y35792D01*
X107241Y35834D01*
X107168Y35869D01*
X107094Y35899D01*
X107021Y35922D01*
X106948Y35940D01*
X107665Y36656D01*
X107682Y36583D01*
D02*
G37*
G36*
X125803Y35974D02*
X125812Y35872D01*
X125827Y35782D01*
X125848Y35704D01*
X125875Y35638D01*
X125908Y35584D01*
X125947Y35542D01*
X125992Y35512D01*
X126043Y35494D01*
X126100Y35488D01*
X124900D01*
X124957Y35494D01*
X125008Y35512D01*
X125053Y35542D01*
X125092Y35584D01*
X125125Y35638D01*
X125152Y35704D01*
X125173Y35782D01*
X125188Y35872D01*
X125197Y35974D01*
X125200Y36088D01*
X125800D01*
X125803Y35974D01*
D02*
G37*
G36*
X106229Y35214D02*
X106214Y35160D01*
X106215Y35097D01*
X106233Y35025D01*
X106268Y34945D01*
X106319Y34857D01*
X106388Y34760D01*
X106473Y34654D01*
X106694Y34416D01*
X106178Y34084D01*
X106095Y34165D01*
X105810Y34412D01*
X105750Y34455D01*
X105695Y34490D01*
X105644Y34517D01*
X105598Y34536D01*
X105556Y34548D01*
X106262Y35259D01*
X106229Y35214D01*
D02*
G37*
G36*
X111462Y35640D02*
X111847Y35311D01*
X112014Y35192D01*
X112164Y35105D01*
X112297Y35049D01*
X112413Y35023D01*
X112512Y35029D01*
X112594Y35065D01*
X112658Y35132D01*
X111524Y33462D01*
X111567Y33551D01*
X111585Y33651D01*
X111577Y33763D01*
X111544Y33887D01*
X111485Y34023D01*
X111400Y34170D01*
X111290Y34329D01*
X111154Y34500D01*
X110805Y34876D01*
X111244Y35851D01*
X111462Y35640D01*
D02*
G37*
G36*
X54810Y36966D02*
X54640Y36906D01*
X54490Y36805D01*
X54360Y36665D01*
X54250Y36484D01*
X54160Y36262D01*
X54090Y36001D01*
X54040Y35699D01*
X54010Y35357D01*
X54009Y35320D01*
X54090Y34376D01*
X54141Y34105D01*
X54203Y33863D01*
X54276Y33650D01*
X54360Y33466D01*
X54456Y33310D01*
X54563Y33183D01*
X51437D01*
X51544Y33310D01*
X51640Y33466D01*
X51724Y33650D01*
X51797Y33863D01*
X51859Y34105D01*
X51910Y34376D01*
X51949Y34675D01*
X51991Y35312D01*
X51990Y35357D01*
X51960Y35699D01*
X51910Y36001D01*
X51840Y36262D01*
X51750Y36484D01*
X51640Y36665D01*
X51510Y36805D01*
X51360Y36906D01*
X51190Y36966D01*
X51000Y36987D01*
X55000D01*
X54810Y36966D01*
D02*
G37*
G36*
X104899Y33799D02*
X104922Y33726D01*
X104952Y33653D01*
X104987Y33579D01*
X105029Y33506D01*
X105076Y33432D01*
X105130Y33358D01*
X105255Y33209D01*
X105326Y33135D01*
X104902Y32710D01*
X104828Y32782D01*
X104679Y32907D01*
X104605Y32961D01*
X104531Y33008D01*
X104457Y33050D01*
X104384Y33085D01*
X104311Y33115D01*
X104237Y33138D01*
X104164Y33156D01*
X104881Y33873D01*
X104899Y33799D01*
D02*
G37*
G36*
X81836Y33156D02*
X81763Y33138D01*
X81690Y33115D01*
X81616Y33085D01*
X81542Y33050D01*
X81469Y33008D01*
X81395Y32961D01*
X81321Y32907D01*
X81173Y32782D01*
X81098Y32710D01*
X80674Y33135D01*
X80745Y33209D01*
X80870Y33358D01*
X80924Y33432D01*
X80971Y33506D01*
X81013Y33579D01*
X81049Y33653D01*
X81078Y33726D01*
X81102Y33799D01*
X81119Y33873D01*
X81836Y33156D01*
D02*
G37*
G36*
X93000Y33901D02*
X93291Y33443D01*
X93750Y33902D01*
X93760Y33830D01*
X93790Y33744D01*
X93841Y33644D01*
X93911Y33531D01*
X94002Y33405D01*
X94244Y33110D01*
X94271Y33081D01*
X94342Y33030D01*
X94416Y32983D01*
X94490Y32941D01*
X94563Y32905D01*
X94637Y32876D01*
X94710Y32852D01*
X94783Y32835D01*
X94638Y32690D01*
X94759Y32567D01*
X94335Y32142D01*
X94212Y32263D01*
X94066Y32118D01*
X94049Y32191D01*
X94025Y32265D01*
X93996Y32338D01*
X93960Y32411D01*
X93919Y32485D01*
X93871Y32559D01*
X93850Y32589D01*
X93567Y32837D01*
X93547Y32845D01*
X93431Y32855D01*
X93301Y32836D01*
X93159Y32787D01*
X93004Y32709D01*
X92837Y32601D01*
X92463Y32295D01*
X92257Y32098D01*
X91189Y33151D01*
X91391Y33368D01*
X91571Y33593D01*
X91730Y33827D01*
X91868Y34070D01*
X91985Y34322D01*
X92080Y34582D01*
X92155Y34851D01*
X92208Y35129D01*
X92239Y35416D01*
X92250Y35712D01*
X93000Y33901D01*
D02*
G37*
G36*
X125265Y32519D02*
X125181Y32505D01*
X125097Y32483D01*
X125013Y32452D01*
X124928Y32413D01*
X124843Y32365D01*
X124758Y32309D01*
X124672Y32244D01*
X124586Y32170D01*
X124499Y32088D01*
X123651D01*
X123720Y32157D01*
X123998Y32475D01*
X124009Y32496D01*
X124012Y32512D01*
X125348Y32524D01*
X125265Y32519D01*
D02*
G37*
G36*
X69043Y31730D02*
X69037Y31787D01*
X69020Y31838D01*
X68989Y31883D01*
X68947Y31922D01*
X68893Y31955D01*
X68827Y31982D01*
X68749Y32003D01*
X68660Y32018D01*
X68558Y32027D01*
X68444Y32030D01*
Y32630D01*
X68558Y32633D01*
X68660Y32642D01*
X68749Y32657D01*
X68827Y32678D01*
X68893Y32705D01*
X68947Y32738D01*
X68989Y32777D01*
X69020Y32822D01*
X69037Y32873D01*
X69043Y32930D01*
Y31730D01*
D02*
G37*
G36*
X139082Y70620D02*
Y42176D01*
X139082Y40862D01*
X139082Y40861D01*
X139082Y40213D01*
X139089Y40179D01*
X139089Y40179D01*
X139152Y39861D01*
X139152Y39861D01*
X139351Y39564D01*
X140351Y38564D01*
X140454Y38495D01*
X141696Y37434D01*
X141758Y37353D01*
X142303Y36935D01*
X142937Y36672D01*
X143618Y36582D01*
X153382D01*
X154063Y36672D01*
X154697Y36935D01*
X155000Y37167D01*
X155968Y36942D01*
X157000Y36359D01*
Y32067D01*
X155968Y31483D01*
X155000Y31258D01*
X154697Y31491D01*
X154063Y31753D01*
X153382Y31843D01*
X143618D01*
X142937Y31753D01*
X142303Y31491D01*
X141758Y31073D01*
X139696Y31411D01*
X139640Y31441D01*
X136918Y34163D01*
Y54733D01*
Y59270D01*
Y61001D01*
X136918Y62965D01*
X136911Y62999D01*
X136911Y62999D01*
X136848Y63316D01*
X136668Y63585D01*
X136668Y63585D01*
X136649Y63614D01*
X135747Y64516D01*
X134844Y65418D01*
X134816Y65437D01*
X134816Y65437D01*
X134547Y65617D01*
X134464Y65633D01*
X133858Y66251D01*
X133666Y66572D01*
X134067Y68288D01*
X134642Y68858D01*
X134642D01*
X134992Y69382D01*
X134992Y69382D01*
X135115Y70000D01*
X134992Y70618D01*
X134992Y70618D01*
X134642Y71143D01*
X134198Y71955D01*
X134016Y73323D01*
X136344Y73359D01*
X139082Y70620D01*
D02*
G37*
G36*
X102114Y31016D02*
X102138Y30942D01*
X102168Y30869D01*
X102203Y30795D01*
X102245Y30722D01*
X102292Y30648D01*
X102346Y30574D01*
X102471Y30425D01*
X102542Y30351D01*
X102118Y29927D01*
X102044Y29998D01*
X101895Y30123D01*
X101821Y30177D01*
X101747Y30224D01*
X101674Y30266D01*
X101600Y30301D01*
X101527Y30331D01*
X101453Y30354D01*
X101380Y30372D01*
X102097Y31089D01*
X102114Y31016D01*
D02*
G37*
G36*
X141717Y28617D02*
X141711Y28673D01*
X141691Y28723D01*
X141657Y28768D01*
X141610Y28806D01*
X141549Y28839D01*
X141475Y28865D01*
X141388Y28886D01*
X141287Y28901D01*
X141172Y28910D01*
X141044Y28913D01*
Y29513D01*
X141172Y29516D01*
X141287Y29524D01*
X141388Y29539D01*
X141475Y29560D01*
X141549Y29586D01*
X141610Y29619D01*
X141657Y29657D01*
X141691Y29702D01*
X141711Y29752D01*
X141717Y29808D01*
Y28617D01*
D02*
G37*
G36*
X58332Y39273D02*
X58351Y39245D01*
X58852Y38744D01*
X58852Y38743D01*
X59739Y37856D01*
X64526Y33070D01*
X65413Y32183D01*
X65414Y32182D01*
X65914Y31681D01*
X65943Y31662D01*
X65943Y31662D01*
X66212Y31482D01*
X66349Y31455D01*
X66655Y31299D01*
X67049Y29537D01*
X66085Y28584D01*
X64639Y29183D01*
Y30076D01*
X59502D01*
Y27104D01*
X59502D01*
X61153Y25117D01*
Y21219D01*
X57455Y17520D01*
X57379Y17490D01*
X57191Y17305D01*
X56864Y17002D01*
X56862Y17000D01*
X56837Y17012D01*
X56814Y17027D01*
X56727Y17082D01*
X56591Y17185D01*
X56433Y17321D01*
X56247Y17500D01*
X56139Y17542D01*
X55795Y17772D01*
X55383Y17854D01*
X55276Y17899D01*
X55100Y17902D01*
Y18600D01*
X51643D01*
X51581Y18634D01*
X51527Y18631D01*
X51512Y18638D01*
X50900Y18600D01*
X49100D01*
X48488Y18638D01*
X48473Y18631D01*
X48419Y18634D01*
X48419Y18634D01*
X46766Y18865D01*
X46307Y19055D01*
X42906D01*
X42446Y18865D01*
X40231Y16649D01*
X37655D01*
Y20187D01*
X36801D01*
X36761Y20208D01*
X36648Y20221D01*
X36627Y20228D01*
X36608Y20240D01*
X36574Y20277D01*
X36525Y20358D01*
X36470Y20494D01*
X36419Y20686D01*
X36378Y20932D01*
X36352Y21229D01*
X36342Y21592D01*
X36324Y21632D01*
Y22367D01*
X38945Y24987D01*
X43451D01*
X43490Y24970D01*
X44188Y24946D01*
X44447Y24920D01*
X44661Y24885D01*
X44820Y24846D01*
X44900Y24816D01*
X44900Y24400D01*
X45512Y24363D01*
X45542Y24375D01*
X45623Y24372D01*
X45667Y24400D01*
X48333D01*
X48377Y24372D01*
X48457Y24375D01*
X48488Y24363D01*
X49100Y24400D01*
X50900Y24519D01*
X51512Y24481D01*
X51554Y24499D01*
X51649Y24496D01*
X51682Y24519D01*
X55100D01*
Y27937D01*
X55123Y27970D01*
X55120Y28065D01*
X55137Y28107D01*
X55100Y28719D01*
X54769Y30719D01*
X54775Y30755D01*
X54825Y30951D01*
X54880Y31109D01*
X54934Y31228D01*
X54984Y31309D01*
X55044Y31380D01*
X55175Y31511D01*
Y31727D01*
X55212Y31817D01*
X55201Y31844D01*
X55210Y31872D01*
X55175Y31940D01*
Y33060D01*
X55210Y33128D01*
X55201Y33156D01*
X55212Y33183D01*
X55175Y33273D01*
Y33489D01*
X55044Y33620D01*
X54984Y33691D01*
X54934Y33772D01*
X54880Y33891D01*
X54825Y34049D01*
X54775Y34245D01*
X54734Y34464D01*
X54729Y34520D01*
X56100Y36363D01*
X56100D01*
Y37911D01*
X58100Y39351D01*
X58332Y39273D01*
D02*
G37*
G36*
X100723Y29624D02*
X100746Y29550D01*
X100776Y29477D01*
X100811Y29403D01*
X100853Y29330D01*
X100900Y29256D01*
X100954Y29182D01*
X101079Y29033D01*
X101151Y28959D01*
X100726Y28535D01*
X100652Y28606D01*
X100503Y28731D01*
X100429Y28785D01*
X100355Y28832D01*
X100282Y28874D01*
X100208Y28909D01*
X100135Y28939D01*
X100062Y28962D01*
X99988Y28980D01*
X100705Y29697D01*
X100723Y29624D01*
D02*
G37*
G36*
X54456Y31690D02*
X54360Y31534D01*
X54276Y31350D01*
X54203Y31137D01*
X54141Y30895D01*
X54090Y30624D01*
X54051Y30325D01*
X54009Y29683D01*
X54078Y28827D01*
X54122Y28607D01*
X54176Y28427D01*
X54239Y28287D01*
X54312Y28187D01*
X54395Y28127D01*
X54488Y28107D01*
X51512D01*
X51605Y28127D01*
X51688Y28187D01*
X51761Y28287D01*
X51824Y28427D01*
X51878Y28607D01*
X51922Y28827D01*
X51956Y29087D01*
X51992Y29671D01*
X51910Y30624D01*
X51859Y30895D01*
X51797Y31137D01*
X51724Y31350D01*
X51640Y31534D01*
X51544Y31690D01*
X51437Y31817D01*
X54563D01*
X54456Y31690D01*
D02*
G37*
G36*
X51512Y25131D02*
X51492Y25224D01*
X51432Y25306D01*
X51332Y25380D01*
X51192Y25443D01*
X51012Y25497D01*
X50792Y25541D01*
X50532Y25575D01*
X50020Y25606D01*
X49468Y25564D01*
X49208Y25522D01*
X48988Y25467D01*
X48808Y25400D01*
X48668Y25321D01*
X48568Y25231D01*
X48508Y25127D01*
X48488Y25012D01*
Y27988D01*
X48508Y27918D01*
X48568Y27855D01*
X48668Y27800D01*
X48808Y27752D01*
X48988Y27711D01*
X49208Y27678D01*
X49768Y27634D01*
X49964Y27630D01*
X50792Y27697D01*
X51012Y27741D01*
X51192Y27795D01*
X51332Y27858D01*
X51432Y27931D01*
X51492Y28014D01*
X51512Y28107D01*
Y25131D01*
D02*
G37*
G36*
X120032Y28357D02*
X120240Y28183D01*
X120335Y28118D01*
X120423Y28068D01*
X120505Y28033D01*
X120580Y28013D01*
X120649Y28008D01*
X120711Y28018D01*
X120766Y28043D01*
X119721Y27391D01*
X119764Y27429D01*
X119787Y27477D01*
X119792Y27536D01*
X119778Y27605D01*
X119745Y27685D01*
X119693Y27775D01*
X119623Y27876D01*
X119533Y27987D01*
X119296Y28240D01*
X119918Y28467D01*
X120032Y28357D01*
D02*
G37*
G36*
X62614Y27722D02*
X62563Y27704D01*
X62518Y27673D01*
X62479Y27630D01*
X62446Y27575D01*
X62419Y27508D01*
X62398Y27428D01*
X62383Y27336D01*
X62374Y27233D01*
X62371Y27116D01*
X61771D01*
X61768Y27233D01*
X61759Y27336D01*
X61744Y27428D01*
X61723Y27508D01*
X61696Y27575D01*
X61663Y27630D01*
X61624Y27673D01*
X61579Y27704D01*
X61528Y27722D01*
X61471Y27728D01*
X62671D01*
X62614Y27722D01*
D02*
G37*
G36*
X21454Y25555D02*
X21261Y25690D01*
X21050Y25810D01*
X20822Y25916D01*
X20577Y26008D01*
X20314Y26087D01*
X20034Y26150D01*
X19737Y26200D01*
X19423Y26235D01*
X18742Y26264D01*
Y28264D01*
X19091Y28271D01*
X19737Y28328D01*
X20034Y28377D01*
X20314Y28441D01*
X20577Y28519D01*
X20822Y28611D01*
X21050Y28717D01*
X21261Y28838D01*
X21454Y28973D01*
Y25555D01*
D02*
G37*
G36*
X11810Y28838D02*
X12021Y28717D01*
X12249Y28611D01*
X12494Y28519D01*
X12757Y28441D01*
X13036Y28377D01*
X13334Y28328D01*
X13648Y28292D01*
X14329Y28264D01*
Y26264D01*
X13980Y26257D01*
X13334Y26200D01*
X13036Y26150D01*
X12757Y26087D01*
X12494Y26008D01*
X12249Y25916D01*
X12021Y25810D01*
X11810Y25690D01*
X11617Y25555D01*
Y28973D01*
X11810Y28838D01*
D02*
G37*
G36*
X127524Y25191D02*
X127518Y25248D01*
X127499Y25299D01*
X127469Y25344D01*
X127426Y25383D01*
X127371Y25416D01*
X127304Y25443D01*
X127224Y25464D01*
X127132Y25479D01*
X127028Y25488D01*
X126912Y25491D01*
Y26091D01*
X127028Y26094D01*
X127132Y26103D01*
X127224Y26118D01*
X127304Y26139D01*
X127371Y26166D01*
X127426Y26199D01*
X127469Y26238D01*
X127499Y26283D01*
X127518Y26334D01*
X127524Y26391D01*
Y25191D01*
D02*
G37*
G36*
X124809Y26334D02*
X124827Y26283D01*
X124858Y26238D01*
X124901Y26199D01*
X124956Y26166D01*
X125023Y26139D01*
X125103Y26118D01*
X125195Y26103D01*
X125299Y26094D01*
X125415Y26091D01*
Y25491D01*
X125299Y25488D01*
X125195Y25479D01*
X125103Y25464D01*
X125023Y25443D01*
X124956Y25416D01*
X124901Y25383D01*
X124858Y25344D01*
X124827Y25299D01*
X124809Y25248D01*
X124803Y25191D01*
Y26391D01*
X124809Y26334D01*
D02*
G37*
G36*
X45512Y25012D02*
X45492Y25127D01*
X45432Y25231D01*
X45332Y25321D01*
X45192Y25400D01*
X45012Y25467D01*
X44792Y25522D01*
X44532Y25564D01*
X44232Y25595D01*
X43512Y25619D01*
Y27619D01*
X43892Y27623D01*
X45012Y27711D01*
X45192Y27752D01*
X45332Y27800D01*
X45432Y27855D01*
X45492Y27918D01*
X45512Y27988D01*
Y25012D01*
D02*
G37*
G36*
X71543Y23982D02*
X71492Y23964D01*
X71447Y23933D01*
X71408Y23890D01*
X71375Y23835D01*
X71348Y23768D01*
X71327Y23688D01*
X71312Y23596D01*
X71303Y23492D01*
X71300Y23376D01*
X70700D01*
X70697Y23492D01*
X70688Y23596D01*
X70673Y23688D01*
X70652Y23768D01*
X70625Y23835D01*
X70592Y23890D01*
X70553Y23933D01*
X70508Y23964D01*
X70457Y23982D01*
X70400Y23988D01*
X71600D01*
X71543Y23982D01*
D02*
G37*
G36*
X31000Y16000D02*
X40500D01*
X42906Y18406D01*
X46307D01*
Y14000D01*
X43500D01*
X38500Y9000D01*
X31000D01*
Y500D01*
X9733D01*
X9659Y1000D01*
X10603Y1286D01*
X11835Y1945D01*
X12916Y2832D01*
X13803Y3913D01*
X14462Y5145D01*
X14867Y6483D01*
X15004Y7874D01*
X14867Y9265D01*
X14462Y10603D01*
X13803Y11835D01*
X12916Y12916D01*
X11835Y13803D01*
X10603Y14462D01*
X9265Y14867D01*
X7874Y15004D01*
X6483Y14867D01*
X5145Y14462D01*
X3913Y13803D01*
X2832Y12916D01*
X1945Y11835D01*
X1286Y10603D01*
X1000Y9659D01*
X500Y9733D01*
Y23500D01*
X4165D01*
X4824Y23227D01*
X5906Y23085D01*
X10630D01*
X11711Y23227D01*
X12370Y23500D01*
X31000D01*
Y16000D01*
D02*
G37*
G36*
X111764Y21665D02*
X111973Y21490D01*
X112067Y21425D01*
X112155Y21375D01*
X112237Y21340D01*
X112312Y21320D01*
X112381Y21315D01*
X112443Y21325D01*
X112498Y21350D01*
X111453Y20698D01*
X111496Y20736D01*
X111520Y20785D01*
X111524Y20843D01*
X111511Y20912D01*
X111478Y20992D01*
X111426Y21082D01*
X111355Y21183D01*
X111265Y21294D01*
X111029Y21547D01*
X111650Y21775D01*
X111764Y21665D01*
D02*
G37*
G36*
X35703Y21192D02*
X35733Y20850D01*
X35783Y20549D01*
X35853Y20287D01*
X35943Y20066D01*
X36053Y19884D01*
X36183Y19744D01*
X36333Y19643D01*
X36503Y19583D01*
X36693Y19563D01*
X32693D01*
X32883Y19583D01*
X33053Y19643D01*
X33203Y19744D01*
X33333Y19884D01*
X33443Y20066D01*
X33533Y20287D01*
X33603Y20549D01*
X33653Y20850D01*
X33683Y21192D01*
X33693Y21575D01*
X35693D01*
X35703Y21192D01*
D02*
G37*
G36*
X102421Y18974D02*
X102430Y18872D01*
X102445Y18782D01*
X102466Y18704D01*
X102493Y18638D01*
X102526Y18584D01*
X102565Y18542D01*
X102610Y18512D01*
X102661Y18494D01*
X102718Y18488D01*
X101518D01*
X101575Y18494D01*
X101626Y18512D01*
X101671Y18542D01*
X101710Y18584D01*
X101743Y18638D01*
X101770Y18704D01*
X101791Y18782D01*
X101806Y18872D01*
X101815Y18974D01*
X101818Y19088D01*
X102418D01*
X102421Y18974D01*
D02*
G37*
G36*
X64303Y18972D02*
X64312Y18868D01*
X64327Y18776D01*
X64348Y18696D01*
X64375Y18629D01*
X64408Y18574D01*
X64447Y18531D01*
X64492Y18500D01*
X64543Y18482D01*
X64600Y18476D01*
X63400D01*
X63457Y18482D01*
X63508Y18500D01*
X63553Y18531D01*
X63592Y18574D01*
X63625Y18629D01*
X63652Y18696D01*
X63673Y18776D01*
X63688Y18868D01*
X63697Y18972D01*
X63700Y19088D01*
X64300D01*
X64303Y18972D01*
D02*
G37*
G36*
X114543Y16656D02*
X114492Y16637D01*
X114447Y16607D01*
X114408Y16564D01*
X114375Y16509D01*
X114348Y16442D01*
X114327Y16362D01*
X114312Y16270D01*
X114303Y16166D01*
X114300Y16050D01*
X113700D01*
X113697Y16166D01*
X113688Y16270D01*
X113673Y16362D01*
X113652Y16442D01*
X113625Y16509D01*
X113592Y16564D01*
X113553Y16607D01*
X113508Y16637D01*
X113457Y16656D01*
X113400Y16662D01*
X114600D01*
X114543Y16656D01*
D02*
G37*
G36*
X54496Y17274D02*
X54519Y17269D01*
X54558Y17265D01*
X54683Y17257D01*
X55268Y17250D01*
Y16500D01*
X55798Y17030D01*
X55996Y16841D01*
X56182Y16680D01*
X56357Y16548D01*
X56519Y16445D01*
X56669Y16371D01*
X56808Y16326D01*
X56934Y16310D01*
X57049Y16322D01*
X57071Y16332D01*
X57291Y16512D01*
X57640Y16835D01*
X57835Y17027D01*
X58259Y16602D01*
X58067Y16407D01*
X57502Y15764D01*
X57411Y15638D01*
X57341Y15525D01*
X57290Y15425D01*
X57260Y15339D01*
X57250Y15267D01*
X56792Y15726D01*
X56500Y15268D01*
X55750Y13457D01*
X55740Y13752D01*
X55709Y14038D01*
X55659Y14313D01*
X55588Y14579D01*
X55497Y14835D01*
X55386Y15082D01*
X55254Y15318D01*
X55102Y15545D01*
X54949Y15738D01*
X54488Y15720D01*
Y17280D01*
X54496Y17274D01*
D02*
G37*
G36*
X51512Y15012D02*
X51497Y15152D01*
X51452Y15278D01*
X51377Y15388D01*
X51272Y15484D01*
X51137Y15565D01*
X50972Y15632D01*
X50777Y15684D01*
X50552Y15721D01*
X50297Y15743D01*
X50012Y15750D01*
Y17250D01*
X50297Y17257D01*
X50552Y17279D01*
X50777Y17316D01*
X50972Y17368D01*
X51137Y17435D01*
X51272Y17516D01*
X51377Y17612D01*
X51452Y17722D01*
X51497Y17848D01*
X51512Y17988D01*
Y15012D01*
D02*
G37*
G36*
X48503Y17848D02*
X48548Y17722D01*
X48623Y17612D01*
X48728Y17516D01*
X48863Y17435D01*
X49028Y17368D01*
X49223Y17316D01*
X49448Y17279D01*
X49703Y17257D01*
X49988Y17250D01*
Y15750D01*
X49703Y15743D01*
X49448Y15721D01*
X49223Y15684D01*
X49028Y15632D01*
X48863Y15565D01*
X48728Y15484D01*
X48623Y15388D01*
X48548Y15278D01*
X48503Y15152D01*
X48488Y15012D01*
Y17988D01*
X48503Y17848D01*
D02*
G37*
G36*
X69661Y15506D02*
X69610Y15488D01*
X69565Y15458D01*
X69526Y15416D01*
X69493Y15362D01*
X69466Y15296D01*
X69445Y15218D01*
X69430Y15128D01*
X69421Y15026D01*
X69418Y14912D01*
X68818D01*
X68815Y15026D01*
X68806Y15128D01*
X68791Y15218D01*
X68770Y15296D01*
X68743Y15362D01*
X68710Y15416D01*
X68671Y15458D01*
X68626Y15488D01*
X68575Y15506D01*
X68518Y15512D01*
X69718D01*
X69661Y15506D01*
D02*
G37*
G36*
X78912Y13606D02*
X78794Y13483D01*
X78607Y13262D01*
X78539Y13165D01*
X78488Y13076D01*
X78454Y12995D01*
X78437Y12923D01*
Y12859D01*
X78454Y12804D01*
X78488Y12758D01*
X77640Y13606D01*
X77686Y13572D01*
X77741Y13555D01*
X77805D01*
X77877Y13572D01*
X77958Y13606D01*
X78047Y13657D01*
X78144Y13725D01*
X78250Y13810D01*
X78488Y14030D01*
X78912Y13606D01*
D02*
G37*
G36*
X114303Y13974D02*
X114312Y13872D01*
X114327Y13782D01*
X114348Y13704D01*
X114375Y13638D01*
X114408Y13584D01*
X114447Y13542D01*
X114492Y13512D01*
X114543Y13494D01*
X114600Y13488D01*
X113400D01*
X113457Y13494D01*
X113508Y13512D01*
X113553Y13542D01*
X113592Y13584D01*
X113625Y13638D01*
X113652Y13704D01*
X113673Y13782D01*
X113688Y13872D01*
X113697Y13974D01*
X113700Y14088D01*
X114300D01*
X114303Y13974D01*
D02*
G37*
G36*
X89966Y15497D02*
X89840Y15452D01*
X89730Y15377D01*
X89634Y15272D01*
X89553Y15137D01*
X89486Y14972D01*
X89434Y14777D01*
X89398Y14552D01*
X89393Y14500D01*
X89398Y14448D01*
X89434Y14223D01*
X89486Y14028D01*
X89553Y13863D01*
X89634Y13728D01*
X89730Y13623D01*
X89840Y13548D01*
X89966Y13503D01*
X90106Y13488D01*
X87130D01*
X87270Y13503D01*
X87396Y13548D01*
X87507Y13623D01*
X87602Y13728D01*
X87684Y13863D01*
X87750Y14028D01*
X87802Y14223D01*
X87839Y14448D01*
X87843Y14500D01*
X87839Y14552D01*
X87802Y14777D01*
X87750Y14972D01*
X87684Y15137D01*
X87602Y15272D01*
X87507Y15377D01*
X87396Y15452D01*
X87270Y15497D01*
X87130Y15512D01*
X90106D01*
X89966Y15497D01*
D02*
G37*
G36*
X69421Y13974D02*
X69430Y13872D01*
X69445Y13782D01*
X69466Y13704D01*
X69493Y13638D01*
X69526Y13584D01*
X69565Y13542D01*
X69610Y13512D01*
X69661Y13494D01*
X69718Y13488D01*
X68518D01*
X68575Y13494D01*
X68626Y13512D01*
X68671Y13542D01*
X68710Y13584D01*
X68743Y13638D01*
X68770Y13704D01*
X68791Y13782D01*
X68806Y13872D01*
X68815Y13974D01*
X68818Y14088D01*
X69418D01*
X69421Y13974D01*
D02*
G37*
G36*
X104030Y13488D02*
X103912Y13365D01*
X103725Y13144D01*
X103657Y13047D01*
X103606Y12958D01*
X103572Y12877D01*
X103555Y12805D01*
Y12741D01*
X103572Y12686D01*
X103606Y12640D01*
X102758Y13488D01*
X102804Y13454D01*
X102859Y13437D01*
X102923D01*
X102995Y13454D01*
X103076Y13488D01*
X103165Y13539D01*
X103262Y13607D01*
X103368Y13692D01*
X103606Y13912D01*
X104030Y13488D01*
D02*
G37*
G36*
X62524Y11000D02*
X62514Y11095D01*
X62484Y11180D01*
X62433Y11255D01*
X62362Y11320D01*
X62271Y11375D01*
X62160Y11420D01*
X62028Y11455D01*
X61999Y11460D01*
X61967Y11453D01*
X61897Y11432D01*
X61835Y11407D01*
X61780Y11379D01*
X61732Y11347D01*
X61691Y11311D01*
Y11495D01*
X61512Y11500D01*
Y12500D01*
X61691Y12505D01*
Y12689D01*
X61732Y12653D01*
X61780Y12621D01*
X61835Y12593D01*
X61897Y12568D01*
X61967Y12547D01*
X61999Y12540D01*
X62028Y12545D01*
X62160Y12580D01*
X62271Y12625D01*
X62362Y12680D01*
X62433Y12745D01*
X62484Y12820D01*
X62514Y12905D01*
X62524Y13000D01*
Y11000D01*
D02*
G37*
G36*
X69661Y10518D02*
X69610Y10499D01*
X69565Y10469D01*
X69526Y10426D01*
X69493Y10371D01*
X69466Y10304D01*
X69445Y10224D01*
X69430Y10132D01*
X69421Y10028D01*
X69418Y9912D01*
X68818D01*
X68815Y10028D01*
X68806Y10132D01*
X68791Y10224D01*
X68770Y10304D01*
X68743Y10371D01*
X68710Y10426D01*
X68671Y10469D01*
X68626Y10499D01*
X68575Y10518D01*
X68518Y10524D01*
X69718D01*
X69661Y10518D01*
D02*
G37*
G36*
X89966Y10497D02*
X89840Y10452D01*
X89730Y10377D01*
X89634Y10272D01*
X89553Y10137D01*
X89486Y9972D01*
X89434Y9777D01*
X89398Y9552D01*
X89376Y9297D01*
X89368Y9012D01*
X87868D01*
X87861Y9297D01*
X87839Y9552D01*
X87802Y9777D01*
X87750Y9972D01*
X87684Y10137D01*
X87602Y10272D01*
X87507Y10377D01*
X87396Y10452D01*
X87270Y10497D01*
X87130Y10512D01*
X90106D01*
X89966Y10497D01*
D02*
G37*
G36*
X69421Y8972D02*
X69430Y8868D01*
X69445Y8776D01*
X69466Y8696D01*
X69493Y8629D01*
X69526Y8574D01*
X69565Y8531D01*
X69610Y8501D01*
X69661Y8482D01*
X69718Y8476D01*
X68518D01*
X68575Y8482D01*
X68626Y8501D01*
X68671Y8531D01*
X68710Y8574D01*
X68743Y8629D01*
X68770Y8696D01*
X68791Y8776D01*
X68806Y8868D01*
X68815Y8972D01*
X68818Y9088D01*
X69418D01*
X69421Y8972D01*
D02*
G37*
%LPC*%
G36*
X76500Y93818D02*
X75865Y93735D01*
X74808Y93297D01*
X73900Y92600D01*
X73203Y91692D01*
X72765Y90635D01*
X72682Y90000D01*
X76500D01*
Y93818D01*
D02*
G37*
G36*
Y89000D02*
X72682D01*
X72765Y88365D01*
X73203Y87308D01*
X73900Y86400D01*
X74808Y85703D01*
X75865Y85265D01*
X76500Y85182D01*
Y89000D01*
D02*
G37*
G36*
X25591Y74155D02*
X25093D01*
X25106Y74080D01*
X25175Y73811D01*
X25265Y73584D01*
X25375Y73398D01*
X25505Y73253D01*
X25655Y73150D01*
X25824Y73088D01*
X26014Y73067D01*
X24516D01*
Y71661D01*
X26577D01*
Y72870D01*
X26735Y72764D01*
X26915Y72669D01*
X27118Y72585D01*
X27343Y72512D01*
X27592Y72450D01*
X27863Y72400D01*
X28311Y72350D01*
X28183Y72658D01*
X27708Y73279D01*
X27088Y73754D01*
X26366Y74054D01*
X25591Y74155D01*
D02*
G37*
G36*
X10630D02*
X9350D01*
X9358Y74109D01*
X9428Y73847D01*
X9518Y73626D01*
X9628Y73445D01*
X9758Y73304D01*
X9908Y73203D01*
X10078Y73143D01*
X10268Y73123D01*
X8768D01*
Y71661D01*
X11617D01*
Y72870D01*
X11810Y72736D01*
X12021Y72615D01*
X12249Y72509D01*
X12494Y72417D01*
X12757Y72339D01*
X13036Y72275D01*
X13334Y72225D01*
X13406Y72217D01*
X13223Y72658D01*
X12747Y73279D01*
X12127Y73754D01*
X11405Y74054D01*
X10630Y74155D01*
D02*
G37*
G36*
X22938D02*
X22441D01*
X21666Y74054D01*
X20944Y73754D01*
X20324Y73279D01*
X19848Y72658D01*
X19666Y72219D01*
X19737Y72225D01*
X20034Y72275D01*
X20314Y72339D01*
X20577Y72417D01*
X20822Y72509D01*
X21050Y72615D01*
X21261Y72736D01*
X21454Y72870D01*
Y71661D01*
X23516D01*
Y73067D01*
X22017D01*
X22207Y73088D01*
X22377Y73150D01*
X22526Y73253D01*
X22656Y73398D01*
X22766Y73584D01*
X22856Y73811D01*
X22926Y74080D01*
X22938Y74155D01*
D02*
G37*
%LPD*%
D10*
X42000Y50197D02*
Y54513D01*
X39850Y50197D02*
X42000D01*
X61000Y12000D02*
X64000D01*
X29134Y42323D02*
X33207D01*
X90500Y34185D02*
Y38138D01*
X87918Y31603D02*
X90500Y34185D01*
X79500Y51406D02*
X82350D01*
X78280D02*
X79500D01*
X81235Y53141D01*
X75391Y54294D02*
X78280Y51406D01*
X77000Y7000D02*
X79800D01*
X102042Y44346D02*
X106433Y39955D01*
X69000Y59715D02*
X71215Y57500D01*
X69000Y59715D02*
Y60000D01*
X71330Y57385D02*
X72300D01*
X75391Y54294D01*
X71215Y57500D02*
X71330Y57385D01*
X84850Y28535D02*
X87918Y31603D01*
X130618Y49213D02*
X130831Y49000D01*
X133500D01*
X100760Y69500D02*
X103050D01*
X98082Y66822D02*
X100760Y69500D01*
X98749Y59137D02*
X102258Y62646D01*
X112732Y33656D02*
X113000D01*
X106433Y39955D02*
X112732Y33656D01*
X122268Y19000D02*
X126000Y15268D01*
X115575Y25693D02*
X122268Y19000D01*
D13*
X24500Y77500D02*
G03*
X24016Y77016I0J-484D01*
G01*
X24164Y71310D02*
G03*
X24016Y71161I0J-149D01*
G01*
X31308Y71310D02*
G03*
X31500Y71502I0J192D01*
G01*
X30027Y27048D02*
G03*
X29810Y27264I-216J0D01*
G01*
X8268Y71161D02*
X24016D01*
X24164Y71310D02*
X31308D01*
X24016Y71161D02*
Y77016D01*
Y27264D02*
X29810D01*
X8268Y71161D02*
Y76000D01*
Y27264D02*
X24016D01*
X44175Y21382D02*
X47000D01*
X42041Y21382D02*
X44175D01*
Y21382D02*
Y21382D01*
X43000Y26619D02*
X53000D01*
X39000D02*
X41000D01*
X38269D02*
X39000D01*
X41000D02*
X43000D01*
X34693Y23043D02*
X38269Y26619D01*
X34693Y18406D02*
Y23043D01*
X53000Y32500D02*
Y40213D01*
Y26619D02*
Y32500D01*
Y21501D02*
X55843D01*
X52881Y21382D02*
X53000Y21501D01*
X47000Y21382D02*
X52881D01*
D15*
X59000Y57415D02*
X61690Y60106D01*
X59000Y39893D02*
Y57415D01*
Y39893D02*
X66563Y32330D01*
X80500Y46456D02*
Y49500D01*
X76783Y42739D02*
X80500Y46456D01*
X56500Y15268D02*
X62071Y20839D01*
Y28590D01*
X37075Y54134D02*
X39941Y57000D01*
X29134Y54134D02*
X37075D01*
X39941Y57000D02*
Y60148D01*
X29134Y52165D02*
X34000D01*
X39349D01*
X29134Y50197D02*
X35531D01*
X35531Y46260D02*
X37500Y48228D01*
X29134Y46260D02*
X35531D01*
X37500Y48228D02*
X39349D01*
X35531Y50197D02*
X37500Y48228D01*
X39349Y52165D02*
X39349Y52165D01*
X29134Y48228D02*
X33380D01*
X29134Y52165D02*
X29254Y52285D01*
X136000Y33784D02*
Y62965D01*
X134195Y64769D02*
X136000Y62965D01*
X130618Y64769D02*
X134195D01*
X136000Y33784D02*
X140571Y29213D01*
X61619Y67415D02*
Y67426D01*
Y67415D02*
X65310Y63725D01*
X60230Y71310D02*
X61442Y72521D01*
X65255D01*
X62105Y70921D02*
X64592D01*
X61619Y70436D02*
X62105Y70921D01*
X61619Y67426D02*
Y70436D01*
X57810Y71310D02*
X60230D01*
X65255Y72521D02*
X76588Y61188D01*
X64592Y70921D02*
X75457Y60056D01*
X73000Y59469D02*
X76783Y55686D01*
X76588Y61188D02*
X76849D01*
X79567Y58470D01*
X75457Y59796D02*
Y60056D01*
Y59796D02*
X78175Y57078D01*
X53300Y55497D02*
Y63497D01*
X50088Y52285D02*
X53300Y55497D01*
X46550Y52285D02*
X50088D01*
X54500Y55000D02*
Y63000D01*
X47848Y48348D02*
X54500Y55000D01*
Y63000D02*
X55307Y63807D01*
X53300Y63497D02*
X54190Y64388D01*
Y67691D01*
X55307Y63807D02*
X58000D01*
X46550Y48348D02*
X47848D01*
X66563Y32330D02*
X71000D01*
X117473Y36527D02*
X117645D01*
X122618Y41500D01*
X79500Y28928D02*
X81000Y27428D01*
Y16118D02*
Y27428D01*
X77000Y12118D02*
X81000Y16118D01*
X79500Y28928D02*
Y31537D01*
X83742Y35779D01*
X148500Y59213D02*
Y62626D01*
X147126Y64000D02*
X148500Y62626D01*
X143000Y64000D02*
X147126D01*
X140000Y40213D02*
Y71000D01*
X136000Y75000D02*
X140000Y71000D01*
Y40213D02*
X141000Y39213D01*
X148500D01*
X140571Y29213D02*
X148500D01*
X73090Y28590D02*
X74500Y30000D01*
X68173Y28590D02*
X73090D01*
X64000Y24418D02*
X68173Y28590D01*
X64000Y17000D02*
Y24418D01*
X74500Y30000D02*
Y35000D01*
X71697Y37803D02*
X74500Y35000D01*
X71697Y37803D02*
Y40437D01*
X75391Y44131D01*
X93000Y33901D02*
X96690Y30211D01*
X96690D01*
X69000Y42739D02*
X71215D01*
X73999Y45523D01*
X87918Y66822D02*
X102740Y52000D01*
X47905Y81500D02*
X62104D01*
X76720Y66884D01*
X76780D01*
X82350Y61314D01*
Y61254D02*
Y61314D01*
X76000Y65000D02*
X80959Y60041D01*
Y59862D02*
Y60041D01*
X122000Y64769D02*
X125500D01*
X130618Y41500D02*
Y44000D01*
Y39000D02*
Y41500D01*
X122618D02*
X130618D01*
X123268Y44000D02*
X125500D01*
X118768Y39500D02*
X123268Y44000D01*
X112456Y39500D02*
X118768D01*
X109217Y42739D02*
X112456Y39500D01*
X36118Y87500D02*
X42000D01*
X36118Y81500D02*
X42000D01*
X130618Y59500D02*
X133500D01*
X130618Y54500D02*
X133500D01*
X130618Y59500D02*
X130618Y59500D01*
X130618Y75000D02*
X136000D01*
X130618Y70000D02*
X133500D01*
X105531Y52000D02*
X109217Y55686D01*
X102740Y52000D02*
X105531D01*
X125500Y75000D02*
Y80500D01*
X123000Y83000D02*
X125500Y80500D01*
X85500Y83000D02*
X123000D01*
X77382Y74882D02*
X85500Y83000D01*
X77382Y72681D02*
Y74882D01*
Y72681D02*
X79641Y70421D01*
X121000Y70000D02*
X125500D01*
X118461Y67461D02*
X121000Y70000D01*
X118461Y64930D02*
Y67461D01*
X109217Y55686D02*
X118461Y64930D01*
X118599Y59500D02*
X125500D01*
X112001Y52902D02*
X118599Y59500D01*
X120500Y52000D02*
X123000Y54500D01*
X120500Y43382D02*
Y52000D01*
X123000Y54500D02*
X125500D01*
X118618Y41500D02*
X120500Y43382D01*
X116024Y41500D02*
X118618D01*
X112001Y45523D02*
X116024Y41500D01*
X83484Y74040D02*
X89310Y68214D01*
X83260Y74040D02*
X83484D01*
X79641Y70421D02*
X81563Y68500D01*
X83456D01*
X86526Y65430D01*
X89310Y68214D02*
Y68308D01*
X125500Y44000D02*
Y49213D01*
Y33657D02*
Y39000D01*
Y33512D02*
Y33657D01*
X123244Y31256D02*
X125500Y33512D01*
X111127Y31256D02*
X123244D01*
X110600Y31784D02*
X111127Y31256D01*
X110600Y31784D02*
Y33005D01*
X111186Y29500D02*
X118461D01*
X103649Y37037D02*
X111186Y29500D01*
X103649Y37037D02*
Y37171D01*
X105041Y38563D02*
X110600Y33005D01*
X114000Y25693D02*
X115575D01*
X122268D02*
X122366Y25791D01*
X129000D01*
X114000Y12000D02*
Y19000D01*
X118461Y29500D02*
X122268Y25693D01*
X102258Y35779D02*
X110000Y28037D01*
Y23000D02*
Y28037D01*
Y23000D02*
X114000Y19000D01*
X102118Y12000D02*
X105000Y14882D01*
Y27469D01*
X99474Y32995D02*
X105000Y27469D01*
X102118Y17000D02*
Y27567D01*
X98082Y31603D02*
X102118Y27567D01*
X69100Y18500D02*
Y20793D01*
X69118Y12000D02*
Y17000D01*
Y7000D02*
Y12000D01*
X69100Y20793D02*
X71000Y22693D01*
Y24850D01*
X39941Y65441D02*
Y66000D01*
X35000Y60500D02*
X39941Y65441D01*
X149606Y0D02*
G03*
X157480Y7874I0J7874D01*
G01*
X0D02*
G03*
X7874Y0I7874J0D01*
G01*
Y98425D02*
G03*
X0Y90551I0J-7874D01*
G01*
X157480D02*
G03*
X149606Y98425I-7874J0D01*
G01*
X0Y7874D02*
Y31496D01*
Y66929D02*
Y90551D01*
X7874Y98425D02*
X149606Y98425D01*
X157480Y7874D02*
Y90551D01*
X7874Y0D02*
X149606D01*
D16*
X44166Y50197D02*
Y53865D01*
Y47509D02*
Y50197D01*
X46150D01*
X44166Y46760D02*
Y47509D01*
X44175Y47500D01*
D18*
X27165Y66929D02*
G03*
X27165Y66929I-1575J0D01*
G01*
Y31496D02*
G03*
X27165Y31496I-1575J0D01*
G01*
X0D02*
X25984D01*
Y66929D01*
X0D02*
X25984D01*
D20*
X46649Y52165D02*
D03*
Y50197D02*
D03*
Y48228D02*
D03*
X39349D02*
D03*
Y50197D02*
D03*
Y52165D02*
D03*
D21*
X29134Y62598D02*
D03*
Y61417D02*
D03*
Y35827D02*
D03*
Y37008D02*
D03*
Y59449D02*
D03*
Y56102D02*
D03*
Y54134D02*
D03*
Y52165D02*
D03*
Y38976D02*
D03*
Y58268D02*
D03*
Y40157D02*
D03*
Y42323D02*
D03*
Y44291D02*
D03*
Y46260D02*
D03*
Y50197D02*
D03*
Y48228D02*
D03*
D22*
X53000Y32500D02*
D03*
D23*
X46307D02*
D03*
D24*
X83500Y17000D02*
D03*
X88618D02*
D03*
X130618Y34000D02*
D03*
X125500D02*
D03*
X118118Y33656D02*
D03*
X113000D02*
D03*
X119118Y12000D02*
D03*
X114000D02*
D03*
X97000Y17000D02*
D03*
X102118D02*
D03*
X97000Y12000D02*
D03*
X102118D02*
D03*
X45059Y66000D02*
D03*
X39941D02*
D03*
X45059Y60148D02*
D03*
X39941D02*
D03*
X36118Y87500D02*
D03*
X31000D02*
D03*
X125500Y59500D02*
D03*
X130618D02*
D03*
X125500Y54500D02*
D03*
X130618D02*
D03*
X125500Y75000D02*
D03*
X130618D02*
D03*
X125500Y70000D02*
D03*
X130618D02*
D03*
X125500Y64769D02*
D03*
X130618D02*
D03*
Y49213D02*
D03*
X125500D02*
D03*
X130618Y44000D02*
D03*
X125500D02*
D03*
Y39000D02*
D03*
X130618D02*
D03*
X88618Y12000D02*
D03*
X83500D02*
D03*
X36118Y81500D02*
D03*
X31000D02*
D03*
X69118Y17000D02*
D03*
X64000D02*
D03*
X69118Y7000D02*
D03*
X64000D02*
D03*
Y12000D02*
D03*
X69118D02*
D03*
D25*
X78175Y57078D02*
D03*
X79567Y58470D02*
D03*
X73999Y52902D02*
D03*
X75391Y54294D02*
D03*
X76783Y55686D02*
D03*
X80959Y59862D02*
D03*
X82350Y61254D02*
D03*
X83742Y62646D02*
D03*
X85134Y64038D02*
D03*
X86526Y65430D02*
D03*
X87918Y66822D02*
D03*
X89310Y68214D02*
D03*
X112001Y45523D02*
D03*
X110609Y44131D02*
D03*
X109217Y42739D02*
D03*
X107825Y41347D02*
D03*
X106433Y39955D02*
D03*
X105041Y38563D02*
D03*
X103649Y37171D02*
D03*
X102258Y35779D02*
D03*
X100866Y34387D02*
D03*
X99474Y32995D02*
D03*
X98082Y31603D02*
D03*
X96690Y30211D02*
D03*
D26*
X53000Y40213D02*
D03*
X39500D02*
D03*
D27*
X106028Y71690D02*
D03*
X102409Y75309D02*
D03*
D28*
X148500Y39213D02*
D03*
Y59213D02*
D03*
Y49213D02*
D03*
Y29213D02*
D03*
D29*
Y69213D02*
D03*
D30*
X114000Y19000D02*
D03*
X122268D02*
D03*
Y25693D02*
D03*
X114000D02*
D03*
D31*
X53000Y11382D02*
D03*
Y16500D02*
D03*
Y21501D02*
D03*
Y26619D02*
D03*
X47000Y21382D02*
D03*
Y26500D02*
D03*
X77000Y12118D02*
D03*
Y7000D02*
D03*
X129000Y20673D02*
D03*
Y25791D02*
D03*
X47000Y11382D02*
D03*
Y16500D02*
D03*
D32*
X23200Y12500D02*
D03*
D33*
X34693Y18406D02*
D03*
Y6594D02*
D03*
D34*
X33000Y12500D02*
D03*
D35*
X61619Y67426D02*
D03*
X58000Y63807D02*
D03*
X65381Y56381D02*
D03*
X69000Y60000D02*
D03*
X57810Y71310D02*
D03*
X54190Y67691D02*
D03*
X61690Y60106D02*
D03*
X65310Y63725D02*
D03*
X83260Y74040D02*
D03*
X79641Y70421D02*
D03*
D36*
X89310Y30211D02*
D03*
X87918Y31603D02*
D03*
X86526Y32995D02*
D03*
X85134Y34387D02*
D03*
X83742Y35779D02*
D03*
X82350Y37171D02*
D03*
X80959Y38563D02*
D03*
X79567Y39955D02*
D03*
X78175Y41347D02*
D03*
X76783Y42739D02*
D03*
X75391Y44131D02*
D03*
X73999Y45523D02*
D03*
X96690Y68214D02*
D03*
X98082Y66822D02*
D03*
X99474Y65430D02*
D03*
X100866Y64038D02*
D03*
X102258Y62646D02*
D03*
X103649Y61254D02*
D03*
X105041Y59862D02*
D03*
X106433Y58470D02*
D03*
X107825Y57078D02*
D03*
X109217Y55686D02*
D03*
X110609Y54294D02*
D03*
X112001Y52902D02*
D03*
D37*
X62071Y28590D02*
D03*
X71000Y32330D02*
D03*
Y24850D02*
D03*
D38*
X47905Y87500D02*
D03*
Y81500D02*
D03*
D39*
X42000Y87500D02*
D03*
Y81500D02*
D03*
D63*
X44166Y46760D02*
X44175Y46751D01*
Y43500D02*
Y46751D01*
X88618Y5618D02*
Y12000D01*
X56500Y12118D02*
Y15268D01*
X80500Y49500D02*
X93000D01*
X77401D02*
X80500D01*
X55268Y16500D02*
X56500Y15268D01*
X53000Y16500D02*
X55268D01*
X43587D02*
X47000D01*
X39586Y12500D02*
X43587Y16500D01*
X33000Y12500D02*
X39586D01*
X44175Y41500D02*
Y43500D01*
X44166Y53865D02*
X45301Y55000D01*
X47334D01*
X50000Y57666D01*
Y70921D01*
X47421Y73500D02*
X50000Y70921D01*
X65381Y56381D02*
X66596Y55166D01*
X71736D01*
X73999Y52902D01*
X117473Y36527D02*
X118118Y35882D01*
X116829Y37171D02*
X117473Y36527D01*
X118118Y33656D02*
Y35882D01*
X112001Y37171D02*
X116829D01*
X50000Y16500D02*
X53000D01*
X47000D02*
X50000D01*
X88618Y17000D02*
Y18882D01*
Y12000D02*
Y17000D01*
X87000Y20500D02*
X88618Y18882D01*
X87000Y20500D02*
Y27901D01*
X89310Y30211D01*
X96690Y68214D02*
X99692Y71216D01*
X93000Y64524D02*
X96690Y68214D01*
X99692Y72536D02*
X101465Y74309D01*
X99692Y71216D02*
Y72536D01*
X52787Y11594D02*
X53000Y11382D01*
X93000Y49500D02*
X99672D01*
X93000D02*
Y58000D01*
Y33901D02*
Y49500D01*
X89310Y30211D02*
X93000Y33901D01*
X31000Y81500D02*
Y87500D01*
Y77000D02*
Y81500D01*
X34500Y73500D02*
X47421D01*
X31000Y77000D02*
X34500Y73500D01*
X99672Y49500D02*
X107825Y41347D01*
X112001Y37171D01*
X73999Y52902D02*
X77401Y49500D01*
D64*
X37500Y42213D02*
X39500Y40213D01*
X37500Y42213D02*
Y45000D01*
X29134Y59449D02*
X31932D01*
X29134Y58268D02*
X31520D01*
X33010Y56778D02*
X34603D01*
X31520Y58268D02*
X33010Y56778D01*
X29134Y38976D02*
X38264D01*
X31932Y59449D02*
X34603Y56778D01*
X39426Y40139D02*
X39500Y40213D01*
X38264Y38976D02*
X39426Y40139D01*
X29153D02*
X39426D01*
X29134Y40157D02*
X29153Y40139D01*
X103274Y69500D02*
X103838D01*
X106028Y71690D01*
D65*
X83500Y27185D02*
X84850Y28535D01*
X83500Y17000D02*
Y27185D01*
Y12000D02*
Y17000D01*
D66*
X8268Y27264D02*
D03*
Y71161D02*
D03*
D67*
X24016Y27264D02*
D03*
Y71161D02*
D03*
D68*
X97000Y89500D02*
D03*
D69*
X87000D02*
D03*
X77000D02*
D03*
D70*
X32000Y64769D02*
D03*
X29500D02*
D03*
X32000Y33656D02*
D03*
X29500D02*
D03*
X60988Y12000D02*
D03*
X88606Y7500D02*
D03*
Y5618D02*
D03*
X56488Y14000D02*
D03*
Y12118D02*
D03*
X23000Y17000D02*
D03*
X26000D02*
D03*
Y19500D02*
D03*
X23000D02*
D03*
X20000Y17000D02*
D03*
Y19500D02*
D03*
X23000Y7874D02*
D03*
X20000D02*
D03*
Y5374D02*
D03*
X23000D02*
D03*
X26000Y7874D02*
D03*
Y5374D02*
D03*
X44175Y43500D02*
D03*
Y41500D02*
D03*
X37500Y45000D02*
D03*
X34603Y56778D02*
D03*
X34000Y52165D02*
D03*
X42000Y50197D02*
D03*
X43500Y56500D02*
D03*
X43000Y26619D02*
D03*
X39000D02*
D03*
X41000D02*
D03*
X33207Y42323D02*
D03*
X33380Y48228D02*
D03*
X138037Y59796D02*
D03*
X138000Y46751D02*
D03*
Y41128D02*
D03*
X138037Y62427D02*
D03*
X87555Y42496D02*
D03*
X83742Y46025D02*
D03*
X90500D02*
D03*
Y38138D02*
D03*
X152841Y43881D02*
D03*
X144344D02*
D03*
X148538D02*
D03*
X44175Y21382D02*
D03*
X55843Y21501D02*
D03*
X79500Y7000D02*
D03*
X73000Y59469D02*
D03*
X50000Y16500D02*
D03*
X133500Y49000D02*
D03*
X143000Y64000D02*
D03*
X133500Y70000D02*
D03*
X152841Y69213D02*
D03*
X144000D02*
D03*
X148538D02*
D03*
X133500Y54500D02*
D03*
X130618Y29487D02*
D03*
X96369Y43881D02*
D03*
X71215Y57500D02*
D03*
X92000Y89500D02*
D03*
X84023Y78514D02*
D03*
X71551Y82000D02*
D03*
X71500Y87000D02*
D03*
X76463Y82500D02*
D03*
X71000Y76000D02*
D03*
X45059Y70500D02*
D03*
Y63074D02*
D03*
X71500Y51831D02*
D03*
X107209Y14719D02*
D03*
Y21000D02*
D03*
Y27820D02*
D03*
X90232Y60505D02*
D03*
X86308Y56674D02*
D03*
X89815Y52374D02*
D03*
X98818Y40500D02*
D03*
X95717Y37316D02*
D03*
X75500Y72323D02*
D03*
X98749Y59137D02*
D03*
X71697Y47000D02*
D03*
X81500Y52000D02*
D03*
X101904Y43357D02*
D03*
X94000Y77119D02*
D03*
X55000Y76000D02*
D03*
X69000Y42739D02*
D03*
X93000Y58000D02*
D03*
X76000Y65000D02*
D03*
X122000Y64769D02*
D03*
X93000Y64524D02*
D03*
X133500Y59500D02*
D03*
X35000Y60500D02*
D03*
D71*
X149606Y90551D02*
D03*
X7874D02*
D03*
X149606Y7874D02*
D03*
X7874D02*
D03*
M02*
