G04*
G04 #@! TF.GenerationSoftware,Altium Limited,Altium Designer,18.1.9 (240)*
G04*
G04 Layer_Color=32896*
%FSLAX25Y25*%
%MOIN*%
G70*
G01*
G75*
%ADD15C,0.00600*%
%ADD18C,0.00500*%
G36*
X71669Y42692D02*
X71780Y42664D01*
X71877Y42623D01*
X71960Y42581D01*
X72029Y42539D01*
X72085Y42498D01*
X72113Y42470D01*
X72127Y42456D01*
X72210Y42359D01*
X72265Y42262D01*
X72307Y42178D01*
X72335Y42081D01*
X72349Y42012D01*
X72363Y41943D01*
Y41901D01*
Y41887D01*
X72349Y41762D01*
X72321Y41665D01*
X72293Y41568D01*
X72238Y41484D01*
X72196Y41415D01*
X72168Y41359D01*
X72141Y41332D01*
X72127Y41318D01*
X72029Y41235D01*
X71932Y41179D01*
X71835Y41137D01*
X71738Y41110D01*
X71669Y41096D01*
X71599Y41082D01*
X71544D01*
X71419Y41096D01*
X71308Y41124D01*
X71210Y41151D01*
X71127Y41207D01*
X71058Y41249D01*
X71002Y41276D01*
X70975Y41304D01*
X70961Y41318D01*
X70877Y41415D01*
X70822Y41512D01*
X70766Y41596D01*
X70739Y41693D01*
X70725Y41776D01*
X70711Y41831D01*
Y41873D01*
Y41887D01*
X70725Y42012D01*
X70753Y42123D01*
X70794Y42220D01*
X70836Y42303D01*
X70877Y42359D01*
X70919Y42414D01*
X70947Y42442D01*
X70961Y42456D01*
X71058Y42539D01*
X71155Y42595D01*
X71252Y42650D01*
X71335Y42678D01*
X71419Y42692D01*
X71488Y42706D01*
X71544D01*
X71669Y42692D01*
D02*
G37*
G36*
X79761Y39847D02*
X79844Y39833D01*
X80010Y39763D01*
X80066Y39722D01*
X80108Y39694D01*
X80135Y39680D01*
X80149Y39666D01*
X80219Y39583D01*
X80260Y39513D01*
X80316Y39347D01*
X80330Y39277D01*
X80344Y39222D01*
Y39180D01*
Y39167D01*
Y39069D01*
Y38972D01*
X80330Y38750D01*
Y38653D01*
X80316Y38570D01*
Y38514D01*
Y38500D01*
X80302Y38348D01*
Y38209D01*
X80288Y38098D01*
Y38001D01*
Y37931D01*
Y37876D01*
Y37848D01*
Y37834D01*
Y37543D01*
X80302Y37223D01*
X80316Y36890D01*
X80330Y36571D01*
X80357Y36279D01*
Y36154D01*
X80371Y36044D01*
Y35960D01*
X80385Y35891D01*
Y35849D01*
Y35835D01*
X80413Y35377D01*
X80427Y35183D01*
X80441Y34989D01*
X80455Y34808D01*
Y34642D01*
X80468Y34489D01*
Y34364D01*
Y34239D01*
X80482Y34128D01*
Y34045D01*
Y33975D01*
Y33906D01*
Y33864D01*
Y33850D01*
Y33837D01*
Y33753D01*
X80468Y33656D01*
X80455Y33448D01*
Y33351D01*
X80441Y33281D01*
Y33226D01*
Y33212D01*
X80427Y33059D01*
X80413Y32934D01*
Y32823D01*
X80399Y32740D01*
Y32671D01*
Y32615D01*
Y32587D01*
Y32574D01*
X80385Y32462D01*
X80371Y32365D01*
X80344Y32282D01*
X80302Y32213D01*
X80274Y32157D01*
X80246Y32115D01*
X80233Y32088D01*
X80219Y32074D01*
X80135Y32004D01*
X80052Y31963D01*
X79899Y31907D01*
X79830Y31893D01*
X79774Y31879D01*
X79719D01*
X79608Y31893D01*
X79511Y31907D01*
X79427Y31935D01*
X79358Y31977D01*
X79303Y32018D01*
X79247Y32046D01*
X79233Y32060D01*
X79219Y32074D01*
X79150Y32157D01*
X79108Y32240D01*
X79053Y32393D01*
X79039Y32462D01*
X79025Y32518D01*
Y32560D01*
Y32574D01*
Y32671D01*
Y32768D01*
X79039Y32976D01*
X79053Y33073D01*
Y33143D01*
X79067Y33198D01*
Y33212D01*
X79080Y33365D01*
X79094Y33490D01*
Y33587D01*
X79108Y33684D01*
Y33753D01*
Y33795D01*
Y33823D01*
Y33837D01*
X79094Y34086D01*
Y34197D01*
X79080Y34308D01*
Y34392D01*
X79067Y34461D01*
Y34503D01*
Y34517D01*
X79053Y34669D01*
X79039Y34794D01*
X79025Y34919D01*
Y35016D01*
X79011Y35086D01*
Y35155D01*
Y35183D01*
Y35197D01*
X78858Y35669D01*
X78706Y36085D01*
X78622Y36266D01*
X78525Y36446D01*
X78442Y36613D01*
X78373Y36751D01*
X78289Y36890D01*
X78220Y37001D01*
X78164Y37098D01*
X78109Y37182D01*
X78053Y37251D01*
X78026Y37293D01*
X78012Y37320D01*
X77998Y37334D01*
X77859Y37501D01*
X77734Y37640D01*
X77595Y37778D01*
X77470Y37876D01*
X77332Y37973D01*
X77207Y38042D01*
X76985Y38167D01*
X76790Y38223D01*
X76638Y38264D01*
X76582Y38278D01*
X76499D01*
X76402Y38264D01*
X76318Y38209D01*
X76235Y38139D01*
X76180Y38042D01*
X76124Y37931D01*
X76082Y37806D01*
X76013Y37529D01*
X75971Y37251D01*
X75958Y37112D01*
Y37001D01*
X75944Y36904D01*
Y36835D01*
Y36779D01*
Y36765D01*
Y36682D01*
Y36571D01*
X75958Y36349D01*
Y36252D01*
X75971Y36168D01*
Y36113D01*
Y36085D01*
Y35932D01*
X75985Y35794D01*
Y35683D01*
Y35585D01*
Y35516D01*
Y35474D01*
Y35447D01*
Y35433D01*
X75971Y34891D01*
X75958Y34628D01*
X75930Y34392D01*
X75916Y34184D01*
X75902Y34031D01*
Y33975D01*
X75888Y33934D01*
Y33906D01*
Y33892D01*
X75694Y32365D01*
X75680Y32254D01*
X75638Y32157D01*
X75555Y31991D01*
X75444Y31879D01*
X75333Y31796D01*
X75208Y31755D01*
X75111Y31727D01*
X75041Y31713D01*
X75014D01*
X74903Y31727D01*
X74805Y31741D01*
X74722Y31768D01*
X74653Y31810D01*
X74597Y31852D01*
X74542Y31879D01*
X74528Y31893D01*
X74514Y31907D01*
X74445Y31991D01*
X74389Y32060D01*
X74361Y32143D01*
X74334Y32226D01*
X74320Y32296D01*
X74306Y32351D01*
Y32379D01*
Y32393D01*
Y32629D01*
X74334Y32879D01*
X74347Y33129D01*
X74375Y33365D01*
X74403Y33573D01*
X74417Y33656D01*
X74431Y33739D01*
X74445Y33809D01*
Y33850D01*
X74458Y33878D01*
Y33892D01*
X74514Y34225D01*
X74542Y34517D01*
X74569Y34767D01*
X74597Y34989D01*
Y35155D01*
X74611Y35280D01*
Y35363D01*
Y35391D01*
X74597Y36044D01*
Y36751D01*
X74611Y36987D01*
X74625Y37209D01*
X74639Y37404D01*
X74667Y37598D01*
X74694Y37778D01*
X74722Y37931D01*
X74750Y38084D01*
X74778Y38209D01*
X74805Y38320D01*
X74833Y38417D01*
X74861Y38500D01*
X74889Y38570D01*
X74903Y38625D01*
X74916Y38667D01*
X74930Y38681D01*
Y38695D01*
X75028Y38875D01*
X75125Y39028D01*
X75236Y39153D01*
X75361Y39277D01*
X75486Y39375D01*
X75624Y39444D01*
X75749Y39513D01*
X75874Y39569D01*
X76124Y39638D01*
X76221Y39666D01*
X76318Y39680D01*
X76388Y39694D01*
X76499D01*
X76735Y39680D01*
X76957Y39625D01*
X77179Y39555D01*
X77401Y39444D01*
X77609Y39333D01*
X77817Y39194D01*
X77998Y39055D01*
X78178Y38917D01*
X78331Y38764D01*
X78484Y38625D01*
X78609Y38486D01*
X78706Y38375D01*
X78803Y38264D01*
X78858Y38195D01*
X78900Y38139D01*
X78914Y38126D01*
X78942Y38944D01*
X78956Y39111D01*
X78997Y39250D01*
X79039Y39375D01*
X79080Y39472D01*
X79136Y39569D01*
X79191Y39638D01*
X79316Y39749D01*
X79441Y39819D01*
X79552Y39847D01*
X79622Y39860D01*
X79650D01*
X79761Y39847D01*
D02*
G37*
G36*
X68226D02*
X68310Y39833D01*
X68476Y39763D01*
X68532Y39722D01*
X68573Y39694D01*
X68601Y39680D01*
X68615Y39666D01*
X68684Y39583D01*
X68726Y39513D01*
X68782Y39347D01*
X68795Y39277D01*
X68809Y39222D01*
Y39180D01*
Y39167D01*
Y39069D01*
Y38972D01*
X68795Y38750D01*
Y38653D01*
X68782Y38570D01*
Y38514D01*
Y38500D01*
X68768Y38348D01*
Y38209D01*
X68754Y38098D01*
Y38001D01*
Y37931D01*
Y37876D01*
Y37848D01*
Y37834D01*
Y37543D01*
X68768Y37223D01*
X68782Y36890D01*
X68795Y36571D01*
X68823Y36279D01*
Y36154D01*
X68837Y36044D01*
Y35960D01*
X68851Y35891D01*
Y35849D01*
Y35835D01*
X68879Y35377D01*
X68893Y35183D01*
X68906Y34989D01*
X68920Y34808D01*
Y34642D01*
X68934Y34489D01*
Y34364D01*
Y34239D01*
X68948Y34128D01*
Y34045D01*
Y33975D01*
Y33906D01*
Y33864D01*
Y33850D01*
Y33837D01*
Y33753D01*
X68934Y33656D01*
X68920Y33448D01*
Y33351D01*
X68906Y33281D01*
Y33226D01*
Y33212D01*
X68893Y33059D01*
X68879Y32934D01*
Y32823D01*
X68865Y32740D01*
Y32671D01*
Y32615D01*
Y32587D01*
Y32574D01*
X68851Y32462D01*
X68837Y32365D01*
X68809Y32282D01*
X68768Y32213D01*
X68740Y32157D01*
X68712Y32115D01*
X68698Y32088D01*
X68684Y32074D01*
X68601Y32004D01*
X68518Y31963D01*
X68365Y31907D01*
X68296Y31893D01*
X68240Y31879D01*
X68185D01*
X68074Y31893D01*
X67976Y31907D01*
X67893Y31935D01*
X67824Y31977D01*
X67768Y32018D01*
X67713Y32046D01*
X67699Y32060D01*
X67685Y32074D01*
X67616Y32157D01*
X67574Y32240D01*
X67518Y32393D01*
X67505Y32462D01*
X67491Y32518D01*
Y32560D01*
Y32574D01*
Y32671D01*
Y32768D01*
X67505Y32976D01*
X67518Y33073D01*
Y33143D01*
X67532Y33198D01*
Y33212D01*
X67546Y33365D01*
X67560Y33490D01*
Y33587D01*
X67574Y33684D01*
Y33753D01*
Y33795D01*
Y33823D01*
Y33837D01*
X67560Y34086D01*
Y34197D01*
X67546Y34308D01*
Y34392D01*
X67532Y34461D01*
Y34503D01*
Y34517D01*
X67518Y34669D01*
X67505Y34794D01*
X67491Y34919D01*
Y35016D01*
X67477Y35086D01*
Y35155D01*
Y35183D01*
Y35197D01*
X67324Y35669D01*
X67171Y36085D01*
X67088Y36266D01*
X66991Y36446D01*
X66908Y36613D01*
X66838Y36751D01*
X66755Y36890D01*
X66686Y37001D01*
X66630Y37098D01*
X66575Y37182D01*
X66519Y37251D01*
X66491Y37293D01*
X66477Y37320D01*
X66464Y37334D01*
X66325Y37501D01*
X66200Y37640D01*
X66061Y37778D01*
X65936Y37876D01*
X65797Y37973D01*
X65672Y38042D01*
X65450Y38167D01*
X65256Y38223D01*
X65103Y38264D01*
X65048Y38278D01*
X64964D01*
X64867Y38264D01*
X64784Y38209D01*
X64701Y38139D01*
X64645Y38042D01*
X64590Y37931D01*
X64548Y37806D01*
X64479Y37529D01*
X64437Y37251D01*
X64423Y37112D01*
Y37001D01*
X64409Y36904D01*
Y36835D01*
Y36779D01*
Y36765D01*
Y36682D01*
Y36571D01*
X64423Y36349D01*
Y36252D01*
X64437Y36168D01*
Y36113D01*
Y36085D01*
Y35932D01*
X64451Y35794D01*
Y35683D01*
Y35585D01*
Y35516D01*
Y35474D01*
Y35447D01*
Y35433D01*
X64437Y34891D01*
X64423Y34628D01*
X64395Y34392D01*
X64382Y34184D01*
X64368Y34031D01*
Y33975D01*
X64354Y33934D01*
Y33906D01*
Y33892D01*
X64160Y32365D01*
X64146Y32254D01*
X64104Y32157D01*
X64021Y31991D01*
X63910Y31879D01*
X63799Y31796D01*
X63674Y31755D01*
X63577Y31727D01*
X63507Y31713D01*
X63479D01*
X63368Y31727D01*
X63271Y31741D01*
X63188Y31768D01*
X63118Y31810D01*
X63063Y31852D01*
X63007Y31879D01*
X62994Y31893D01*
X62980Y31907D01*
X62910Y31991D01*
X62855Y32060D01*
X62827Y32143D01*
X62799Y32226D01*
X62785Y32296D01*
X62771Y32351D01*
Y32379D01*
Y32393D01*
Y32629D01*
X62799Y32879D01*
X62813Y33129D01*
X62841Y33365D01*
X62869Y33573D01*
X62883Y33656D01*
X62896Y33739D01*
X62910Y33809D01*
Y33850D01*
X62924Y33878D01*
Y33892D01*
X62980Y34225D01*
X63007Y34517D01*
X63035Y34767D01*
X63063Y34989D01*
Y35155D01*
X63077Y35280D01*
Y35363D01*
Y35391D01*
X63063Y36044D01*
Y36751D01*
X63077Y36987D01*
X63091Y37209D01*
X63105Y37404D01*
X63132Y37598D01*
X63160Y37778D01*
X63188Y37931D01*
X63216Y38084D01*
X63243Y38209D01*
X63271Y38320D01*
X63299Y38417D01*
X63327Y38500D01*
X63354Y38570D01*
X63368Y38625D01*
X63382Y38667D01*
X63396Y38681D01*
Y38695D01*
X63493Y38875D01*
X63590Y39028D01*
X63701Y39153D01*
X63826Y39277D01*
X63951Y39375D01*
X64090Y39444D01*
X64215Y39513D01*
X64340Y39569D01*
X64590Y39638D01*
X64687Y39666D01*
X64784Y39680D01*
X64854Y39694D01*
X64964D01*
X65201Y39680D01*
X65423Y39625D01*
X65645Y39555D01*
X65867Y39444D01*
X66075Y39333D01*
X66283Y39194D01*
X66464Y39055D01*
X66644Y38917D01*
X66797Y38764D01*
X66949Y38625D01*
X67074Y38486D01*
X67171Y38375D01*
X67269Y38264D01*
X67324Y38195D01*
X67366Y38139D01*
X67380Y38126D01*
X67407Y38944D01*
X67421Y39111D01*
X67463Y39250D01*
X67505Y39375D01*
X67546Y39472D01*
X67602Y39569D01*
X67657Y39638D01*
X67782Y39749D01*
X67907Y39819D01*
X68018Y39847D01*
X68088Y39860D01*
X68115D01*
X68226Y39847D01*
D02*
G37*
G36*
X48933Y43428D02*
X49086Y43358D01*
X49197Y43261D01*
X49266Y43150D01*
X49322Y43025D01*
X49336Y42928D01*
X49349Y42859D01*
Y42845D01*
Y42831D01*
Y42636D01*
Y42414D01*
Y42178D01*
Y41929D01*
X49363Y41429D01*
Y40929D01*
Y40707D01*
Y40485D01*
X49377Y40291D01*
Y40124D01*
Y39985D01*
Y39874D01*
Y39819D01*
Y39791D01*
Y39430D01*
Y39083D01*
Y38764D01*
X49391Y38459D01*
Y38181D01*
Y37931D01*
Y37709D01*
Y37501D01*
Y37320D01*
Y37168D01*
Y37043D01*
Y36932D01*
Y36849D01*
Y36779D01*
Y36751D01*
Y36737D01*
Y36626D01*
Y36488D01*
X49377Y36210D01*
Y36085D01*
Y35988D01*
Y35919D01*
Y35891D01*
X49363Y35697D01*
Y35516D01*
X49349Y35363D01*
Y35252D01*
Y35155D01*
Y35086D01*
Y35044D01*
Y35030D01*
X49336Y34919D01*
X49322Y34836D01*
X49252Y34683D01*
X49155Y34572D01*
X49030Y34503D01*
X48919Y34447D01*
X48822Y34433D01*
X48753Y34420D01*
X48725D01*
X48614Y34433D01*
X48517Y34447D01*
X48364Y34517D01*
X48253Y34614D01*
X48184Y34725D01*
X48128Y34836D01*
X48114Y34933D01*
X48100Y35002D01*
Y35030D01*
Y42831D01*
Y42942D01*
X48128Y43039D01*
X48197Y43192D01*
X48295Y43303D01*
X48406Y43372D01*
X48531Y43428D01*
X48628Y43442D01*
X48697Y43455D01*
X48836D01*
X48933Y43428D01*
D02*
G37*
G36*
X104273Y39486D02*
X104370Y39472D01*
X104453Y39444D01*
X104536Y39402D01*
X104592Y39361D01*
X104634Y39333D01*
X104661Y39319D01*
X104675Y39305D01*
X104745Y39236D01*
X104786Y39153D01*
X104842Y38986D01*
X104856Y38917D01*
X104869Y38875D01*
Y38833D01*
Y38820D01*
Y38653D01*
X104856Y38473D01*
X104842Y38292D01*
X104828Y38126D01*
X104814Y37973D01*
X104800Y37862D01*
X104786Y37778D01*
Y37765D01*
Y37751D01*
X104620Y36710D01*
X104578Y36377D01*
X104523Y36044D01*
X104481Y35752D01*
X104439Y35460D01*
X104384Y35197D01*
X104342Y34961D01*
X104300Y34739D01*
X104273Y34544D01*
X104231Y34364D01*
X104203Y34211D01*
X104175Y34073D01*
X104148Y33961D01*
X104134Y33878D01*
X104120Y33823D01*
X104106Y33781D01*
Y33767D01*
X104009Y33392D01*
X103926Y33073D01*
X103829Y32796D01*
X103745Y32560D01*
X103648Y32351D01*
X103565Y32185D01*
X103481Y32046D01*
X103412Y31935D01*
X103343Y31852D01*
X103273Y31796D01*
X103218Y31741D01*
X103176Y31713D01*
X103107Y31685D01*
X103079D01*
X102912Y31713D01*
X102787Y31755D01*
X102663Y31824D01*
X102579Y31907D01*
X102496Y31977D01*
X102454Y32046D01*
X102427Y32102D01*
X102413Y32115D01*
X102302Y32226D01*
X102218Y32351D01*
X102191Y32421D01*
X102163Y32462D01*
X102149Y32490D01*
Y32504D01*
X101080Y35391D01*
X100511Y36737D01*
X100275Y35169D01*
X100220Y34808D01*
X100178Y34475D01*
X100123Y34197D01*
X100081Y33961D01*
X100053Y33781D01*
X100025Y33642D01*
X99998Y33559D01*
Y33545D01*
Y33531D01*
X99914Y33198D01*
X99817Y32921D01*
X99734Y32671D01*
X99623Y32449D01*
X99526Y32268D01*
X99429Y32115D01*
X99331Y31991D01*
X99234Y31893D01*
X99151Y31810D01*
X99068Y31755D01*
X98998Y31713D01*
X98929Y31671D01*
X98873Y31657D01*
X98832Y31644D01*
X98804D01*
X98651Y31657D01*
X98526Y31699D01*
X98415Y31768D01*
X98318Y31838D01*
X98235Y31893D01*
X98179Y31963D01*
X98152Y32004D01*
X98138Y32018D01*
X97971Y32268D01*
X97846Y32490D01*
X97735Y32712D01*
X97638Y32907D01*
X97569Y33073D01*
X97527Y33198D01*
X97499Y33281D01*
X97485Y33309D01*
X97319Y33837D01*
X97166Y34350D01*
X97027Y34850D01*
X96889Y35322D01*
X96764Y35780D01*
X96639Y36210D01*
X96528Y36599D01*
X96430Y36973D01*
X96347Y37307D01*
X96278Y37598D01*
X96208Y37848D01*
X96153Y38070D01*
X96111Y38236D01*
X96083Y38375D01*
X96056Y38445D01*
Y38473D01*
X96028Y38570D01*
X96000Y38639D01*
X95986Y38708D01*
Y38736D01*
X95972Y38778D01*
Y38792D01*
X95986Y38903D01*
X96000Y38986D01*
X96083Y39139D01*
X96125Y39194D01*
X96153Y39250D01*
X96181Y39264D01*
X96194Y39277D01*
X96278Y39347D01*
X96361Y39402D01*
X96458Y39430D01*
X96528Y39458D01*
X96597Y39472D01*
X96653Y39486D01*
X96708D01*
X96875Y39472D01*
X97013Y39416D01*
X97124Y39347D01*
X97194Y39264D01*
X97263Y39180D01*
X97291Y39111D01*
X97319Y39055D01*
Y39042D01*
X98221Y35225D01*
X98735Y33323D01*
X98776Y33517D01*
X98818Y33726D01*
X98901Y34170D01*
X98984Y34628D01*
X99068Y35072D01*
X99095Y35266D01*
X99137Y35460D01*
X99165Y35627D01*
X99193Y35780D01*
X99207Y35905D01*
X99220Y35988D01*
X99234Y36057D01*
Y36071D01*
X99276Y36377D01*
X99331Y36668D01*
X99373Y36946D01*
X99415Y37182D01*
X99456Y37418D01*
X99498Y37626D01*
X99526Y37806D01*
X99567Y37973D01*
X99595Y38126D01*
X99623Y38250D01*
X99637Y38361D01*
X99651Y38445D01*
X99678Y38514D01*
Y38556D01*
X99692Y38583D01*
Y38597D01*
X99734Y38750D01*
X99776Y38889D01*
X99831Y39000D01*
X99887Y39097D01*
X99942Y39194D01*
X100012Y39264D01*
X100136Y39361D01*
X100248Y39430D01*
X100345Y39458D01*
X100400Y39472D01*
X100428D01*
X100539Y39458D01*
X100636Y39444D01*
X100803Y39347D01*
X100942Y39222D01*
X101052Y39083D01*
X101136Y38944D01*
X101191Y38820D01*
X101219Y38722D01*
X101233Y38708D01*
Y38695D01*
X101386Y38181D01*
X101538Y37667D01*
X101691Y37196D01*
X101830Y36724D01*
X101969Y36293D01*
X102107Y35877D01*
X102232Y35502D01*
X102343Y35141D01*
X102454Y34822D01*
X102552Y34544D01*
X102635Y34295D01*
X102704Y34100D01*
X102760Y33934D01*
X102801Y33809D01*
X102829Y33739D01*
X102843Y33712D01*
X103259Y36862D01*
X103357Y37890D01*
X103384Y38112D01*
X103398Y38306D01*
X103426Y38486D01*
X103454Y38639D01*
X103481Y38750D01*
X103495Y38847D01*
X103509Y38903D01*
Y38917D01*
X103579Y39111D01*
X103662Y39250D01*
X103773Y39361D01*
X103884Y39430D01*
X103981Y39472D01*
X104078Y39486D01*
X104134Y39500D01*
X104162D01*
X104273Y39486D01*
D02*
G37*
G36*
X71877Y39375D02*
X71974Y39361D01*
X72057Y39319D01*
X72127Y39291D01*
X72182Y39250D01*
X72224Y39208D01*
X72251Y39194D01*
X72265Y39180D01*
X72321Y39097D01*
X72363Y39014D01*
X72418Y38847D01*
X72432Y38778D01*
X72446Y38722D01*
Y38681D01*
Y38667D01*
Y38403D01*
X72460Y38139D01*
X72474Y37862D01*
Y37598D01*
X72487Y37376D01*
X72501Y37279D01*
Y37196D01*
X72515Y37126D01*
Y37071D01*
Y37043D01*
Y37029D01*
X72543Y36682D01*
X72557Y36349D01*
X72571Y36071D01*
Y35835D01*
X72585Y35641D01*
Y35502D01*
Y35447D01*
Y35405D01*
Y35391D01*
Y35377D01*
Y35211D01*
Y35002D01*
Y34794D01*
X72571Y34586D01*
Y34406D01*
Y34253D01*
Y34197D01*
Y34156D01*
Y34128D01*
Y34114D01*
X72557Y33823D01*
Y33573D01*
X72543Y33351D01*
Y33184D01*
Y33045D01*
Y32948D01*
Y32879D01*
Y32865D01*
X72529Y32754D01*
X72515Y32657D01*
X72487Y32574D01*
X72446Y32504D01*
X72418Y32449D01*
X72390Y32407D01*
X72376Y32379D01*
X72363Y32365D01*
X72279Y32296D01*
X72196Y32254D01*
X72043Y32199D01*
X71974Y32185D01*
X71918Y32171D01*
X71863D01*
X71752Y32185D01*
X71655Y32199D01*
X71571Y32226D01*
X71502Y32268D01*
X71447Y32310D01*
X71391Y32337D01*
X71377Y32351D01*
X71363Y32365D01*
X71294Y32449D01*
X71252Y32532D01*
X71197Y32684D01*
X71183Y32754D01*
X71169Y32809D01*
Y32851D01*
Y32865D01*
Y33045D01*
Y33240D01*
X71183Y33448D01*
Y33642D01*
Y33823D01*
X71197Y33975D01*
Y34031D01*
Y34073D01*
Y34100D01*
Y34114D01*
Y34406D01*
X71210Y34669D01*
Y34891D01*
Y35058D01*
Y35197D01*
Y35294D01*
Y35363D01*
Y35377D01*
Y35641D01*
X71197Y35919D01*
X71183Y36196D01*
X71169Y36460D01*
Y36682D01*
X71155Y36779D01*
Y36862D01*
X71141Y36932D01*
Y36987D01*
Y37015D01*
Y37029D01*
X71113Y37376D01*
X71100Y37695D01*
X71086Y37987D01*
Y38223D01*
X71072Y38403D01*
Y38556D01*
Y38597D01*
Y38639D01*
Y38653D01*
Y38667D01*
X71086Y38778D01*
X71100Y38889D01*
X71127Y38972D01*
X71169Y39042D01*
X71210Y39097D01*
X71238Y39139D01*
X71252Y39167D01*
X71266Y39180D01*
X71349Y39250D01*
X71419Y39305D01*
X71516Y39333D01*
X71585Y39361D01*
X71655Y39375D01*
X71710Y39389D01*
X71766D01*
X71877Y39375D01*
D02*
G37*
G36*
X58122D02*
X58455Y39333D01*
X58774Y39277D01*
X59066Y39208D01*
X59329Y39111D01*
X59579Y39014D01*
X59815Y38903D01*
X60023Y38792D01*
X60204Y38681D01*
X60356Y38570D01*
X60495Y38473D01*
X60606Y38375D01*
X60703Y38306D01*
X60759Y38250D01*
X60800Y38209D01*
X60814Y38195D01*
X61009Y37973D01*
X61175Y37723D01*
X61314Y37487D01*
X61439Y37223D01*
X61550Y36973D01*
X61633Y36724D01*
X61703Y36474D01*
X61758Y36238D01*
X61800Y36002D01*
X61841Y35794D01*
X61869Y35613D01*
X61883Y35460D01*
Y35322D01*
X61897Y35225D01*
Y35169D01*
Y35141D01*
X61883Y34891D01*
X61869Y34642D01*
X61828Y34420D01*
X61772Y34211D01*
X61717Y34003D01*
X61647Y33823D01*
X61578Y33656D01*
X61494Y33503D01*
X61425Y33365D01*
X61356Y33240D01*
X61286Y33129D01*
X61231Y33045D01*
X61175Y32976D01*
X61134Y32934D01*
X61120Y32907D01*
X61106Y32893D01*
X60953Y32740D01*
X60787Y32615D01*
X60620Y32490D01*
X60453Y32393D01*
X60273Y32310D01*
X60106Y32240D01*
X59773Y32143D01*
X59621Y32102D01*
X59482Y32074D01*
X59357Y32060D01*
X59246Y32046D01*
X59163Y32032D01*
X59038D01*
X58802Y32046D01*
X58566Y32102D01*
X58372Y32157D01*
X58191Y32240D01*
X58052Y32310D01*
X57941Y32379D01*
X57886Y32421D01*
X57858Y32435D01*
X57664Y32601D01*
X57497Y32809D01*
X57331Y33004D01*
X57206Y33212D01*
X57095Y33392D01*
X57011Y33531D01*
X56984Y33587D01*
X56956Y33628D01*
X56942Y33655D01*
X56942Y33670D01*
Y33656D01*
X56942Y33655D01*
X56956Y33337D01*
X56970Y33018D01*
X56984Y32726D01*
X57011Y32449D01*
X57039Y32199D01*
X57067Y31977D01*
X57095Y31768D01*
X57136Y31588D01*
X57164Y31435D01*
X57192Y31297D01*
X57219Y31172D01*
X57247Y31074D01*
X57275Y31005D01*
X57289Y30950D01*
X57303Y30922D01*
Y30908D01*
X57414Y30672D01*
X57525Y30464D01*
X57664Y30269D01*
X57816Y30117D01*
X57955Y29978D01*
X58122Y29867D01*
X58274Y29784D01*
X58427Y29700D01*
X58566Y29645D01*
X58705Y29603D01*
X58830Y29561D01*
X58941Y29548D01*
X59038Y29534D01*
X59107Y29520D01*
X59426D01*
X59676Y29534D01*
X59898Y29548D01*
X60079Y29575D01*
X60245Y29589D01*
X60370Y29617D01*
X60440Y29631D01*
X60467D01*
X60676Y29673D01*
X60842Y29700D01*
X60995Y29728D01*
X61106Y29742D01*
X61203Y29756D01*
X61425D01*
X61508Y29728D01*
X61661Y29659D01*
X61758Y29561D01*
X61841Y29451D01*
X61883Y29326D01*
X61897Y29228D01*
X61911Y29159D01*
Y29145D01*
Y29131D01*
X61897Y29034D01*
X61869Y28937D01*
X61828Y28854D01*
X61772Y28784D01*
X61633Y28659D01*
X61467Y28562D01*
X61314Y28493D01*
X61175Y28451D01*
X61120Y28423D01*
X61078D01*
X61050Y28409D01*
X61036D01*
X60787Y28368D01*
X60523Y28326D01*
X60259Y28298D01*
X60023Y28285D01*
X59801D01*
X59704Y28271D01*
X59468D01*
X59177Y28285D01*
X58913Y28298D01*
X58649Y28326D01*
X58427Y28368D01*
X58205Y28423D01*
X57997Y28479D01*
X57816Y28534D01*
X57664Y28604D01*
X57511Y28659D01*
X57386Y28715D01*
X57289Y28770D01*
X57192Y28826D01*
X57122Y28868D01*
X57081Y28895D01*
X57053Y28923D01*
X57039D01*
X56914Y29034D01*
X56803Y29145D01*
X56595Y29409D01*
X56414Y29686D01*
X56276Y29964D01*
X56178Y30214D01*
X56137Y30325D01*
X56095Y30422D01*
X56067Y30492D01*
X56054Y30547D01*
X56040Y30589D01*
Y30602D01*
X55956Y30950D01*
X55887Y31338D01*
X55831Y31713D01*
X55804Y32074D01*
X55790Y32240D01*
X55776Y32393D01*
X55762Y32532D01*
Y32643D01*
X55748Y32740D01*
Y32823D01*
Y32865D01*
Y32879D01*
X55582Y35225D01*
X55568Y35294D01*
Y35391D01*
X55540Y35585D01*
X55512Y35807D01*
X55484Y36016D01*
X55457Y36224D01*
X55429Y36391D01*
X55415Y36446D01*
X55401Y36502D01*
Y36529D01*
Y36543D01*
X55346Y36835D01*
X55318Y37098D01*
X55290Y37334D01*
X55262Y37529D01*
Y37667D01*
X55248Y37778D01*
Y37848D01*
Y37876D01*
X55262Y38014D01*
X55276Y38153D01*
X55318Y38250D01*
X55360Y38348D01*
X55415Y38431D01*
X55484Y38500D01*
X55623Y38597D01*
X55762Y38667D01*
X55887Y38695D01*
X55970Y38708D01*
X55998D01*
X56095Y38820D01*
X56206Y38930D01*
X56317Y39014D01*
X56428Y39083D01*
X56525Y39139D01*
X56609Y39180D01*
X56664Y39194D01*
X56678Y39208D01*
X56859Y39264D01*
X57039Y39319D01*
X57219Y39347D01*
X57386Y39361D01*
X57539Y39375D01*
X57664Y39389D01*
X57775D01*
X58122Y39375D01*
D02*
G37*
G36*
X114294Y43081D02*
X114627Y43025D01*
X114946Y42928D01*
X115252Y42817D01*
X115529Y42678D01*
X115779Y42539D01*
X116015Y42373D01*
X116223Y42206D01*
X116418Y42040D01*
X116584Y41887D01*
X116723Y41734D01*
X116834Y41596D01*
X116917Y41484D01*
X116987Y41401D01*
X117028Y41332D01*
X117042Y41318D01*
X117209Y41026D01*
X117361Y40735D01*
X117486Y40430D01*
X117597Y40124D01*
X117695Y39833D01*
X117764Y39527D01*
X117833Y39250D01*
X117875Y38986D01*
X117917Y38736D01*
X117945Y38500D01*
X117972Y38292D01*
X117986Y38126D01*
X118000Y37973D01*
Y37876D01*
Y37806D01*
Y37778D01*
X117986Y37334D01*
X117972Y36918D01*
X117931Y36529D01*
X117889Y36154D01*
X117833Y35807D01*
X117764Y35488D01*
X117695Y35197D01*
X117625Y34933D01*
X117570Y34683D01*
X117500Y34475D01*
X117431Y34295D01*
X117375Y34156D01*
X117334Y34031D01*
X117292Y33948D01*
X117278Y33892D01*
X117264Y33878D01*
X117070Y33531D01*
X116848Y33240D01*
X116612Y32976D01*
X116362Y32754D01*
X116112Y32574D01*
X115849Y32407D01*
X115585Y32282D01*
X115335Y32185D01*
X115099Y32102D01*
X114877Y32032D01*
X114683Y31991D01*
X114502Y31963D01*
X114363Y31949D01*
X114252Y31935D01*
X114155D01*
X113794Y31949D01*
X113461Y32004D01*
X113142Y32074D01*
X112850Y32185D01*
X112587Y32296D01*
X112337Y32435D01*
X112115Y32574D01*
X111921Y32726D01*
X111740Y32865D01*
X111587Y33004D01*
X111462Y33143D01*
X111352Y33254D01*
X111282Y33365D01*
X111213Y33434D01*
X111185Y33490D01*
X111171Y33503D01*
X110991Y33809D01*
X110838Y34156D01*
X110713Y34517D01*
X110588Y34905D01*
X110491Y35294D01*
X110422Y35683D01*
X110352Y36071D01*
X110297Y36446D01*
X110255Y36807D01*
X110227Y37140D01*
X110199Y37431D01*
X110186Y37695D01*
X110172Y37903D01*
Y38001D01*
Y38070D01*
Y38126D01*
Y38167D01*
Y38195D01*
Y38209D01*
X110186Y38570D01*
X110213Y38917D01*
X110255Y39236D01*
X110310Y39555D01*
X110380Y39847D01*
X110463Y40124D01*
X110533Y40374D01*
X110616Y40596D01*
X110713Y40804D01*
X110782Y40999D01*
X110866Y41151D01*
X110935Y41290D01*
X110991Y41387D01*
X111032Y41471D01*
X111060Y41512D01*
X111074Y41526D01*
X111268Y41804D01*
X111490Y42040D01*
X111712Y42248D01*
X111948Y42428D01*
X112198Y42581D01*
X112434Y42706D01*
X112656Y42817D01*
X112892Y42900D01*
X113100Y42970D01*
X113295Y43011D01*
X113475Y43053D01*
X113628Y43067D01*
X113753Y43081D01*
X113850Y43095D01*
X113933D01*
X114294Y43081D01*
D02*
G37*
G36*
X91586Y39513D02*
X91864Y39472D01*
X92142Y39416D01*
X92405Y39333D01*
X92641Y39250D01*
X92877Y39153D01*
X93085Y39042D01*
X93280Y38930D01*
X93460Y38806D01*
X93613Y38708D01*
X93752Y38597D01*
X93863Y38514D01*
X93946Y38431D01*
X94015Y38375D01*
X94057Y38334D01*
X94071Y38320D01*
X94279Y38084D01*
X94446Y37848D01*
X94598Y37598D01*
X94737Y37362D01*
X94848Y37112D01*
X94945Y36876D01*
X95015Y36640D01*
X95084Y36418D01*
X95126Y36210D01*
X95167Y36016D01*
X95181Y35849D01*
X95209Y35697D01*
Y35585D01*
X95223Y35488D01*
Y35433D01*
Y35419D01*
X95209Y35100D01*
X95195Y34794D01*
X95153Y34503D01*
X95112Y34253D01*
X95056Y34003D01*
X95001Y33795D01*
X94945Y33587D01*
X94876Y33420D01*
X94806Y33254D01*
X94751Y33129D01*
X94696Y33018D01*
X94640Y32921D01*
X94598Y32851D01*
X94557Y32796D01*
X94543Y32768D01*
X94529Y32754D01*
X94376Y32587D01*
X94210Y32449D01*
X94029Y32324D01*
X93835Y32226D01*
X93641Y32129D01*
X93446Y32060D01*
X93058Y31949D01*
X92863Y31921D01*
X92697Y31893D01*
X92544Y31866D01*
X92405Y31852D01*
X92294Y31838D01*
X92142D01*
X92003Y31852D01*
X91864Y31866D01*
X91711Y31893D01*
X91586Y31935D01*
X91461Y31977D01*
X91364Y32004D01*
X91309Y32018D01*
X91281Y32032D01*
X91087Y32102D01*
X90878Y32199D01*
X90684Y32282D01*
X90504Y32365D01*
X90337Y32449D01*
X90212Y32518D01*
X90129Y32560D01*
X90115Y32574D01*
X90101D01*
X90032Y32490D01*
X89962Y32393D01*
X89810Y32240D01*
X89740Y32171D01*
X89685Y32115D01*
X89643Y32088D01*
X89629Y32074D01*
X89504Y31963D01*
X89407Y31893D01*
X89324Y31838D01*
X89254Y31796D01*
X89199Y31768D01*
X89171Y31755D01*
X89144D01*
X89046Y31768D01*
X88963Y31782D01*
X88824Y31852D01*
X88769Y31893D01*
X88727Y31921D01*
X88713Y31935D01*
X88699Y31949D01*
X88630Y32018D01*
X88574Y32102D01*
X88547Y32171D01*
X88519Y32240D01*
X88505Y32296D01*
X88491Y32351D01*
Y32379D01*
Y32393D01*
X88547Y32504D01*
X88616Y32671D01*
X88658Y32782D01*
X88685Y32851D01*
X88699Y32879D01*
X88769Y33045D01*
X88824Y33198D01*
X88921Y33462D01*
X89005Y33684D01*
X89060Y33850D01*
X89102Y33975D01*
X89130Y34059D01*
X89144Y34100D01*
Y34114D01*
X89185Y34322D01*
X89213Y34544D01*
X89227Y34767D01*
X89241Y34989D01*
X89254Y35183D01*
Y35350D01*
Y35405D01*
Y35447D01*
Y35474D01*
Y35488D01*
Y35835D01*
X89241Y36141D01*
Y36404D01*
X89227Y36626D01*
Y36807D01*
X89213Y36932D01*
Y37015D01*
Y37043D01*
X89199Y37251D01*
X89171Y37431D01*
X89157Y37584D01*
X89144Y37709D01*
X89130Y37806D01*
X89116Y37862D01*
X89102Y37903D01*
Y37917D01*
X89019Y38042D01*
X88977Y38153D01*
X88963Y38236D01*
Y38250D01*
Y38264D01*
X88977Y38361D01*
X89005Y38459D01*
X89046Y38556D01*
X89116Y38653D01*
X89268Y38806D01*
X89435Y38944D01*
X89615Y39055D01*
X89768Y39139D01*
X89837Y39167D01*
X89879Y39194D01*
X89907Y39208D01*
X89921D01*
X90198Y39319D01*
X90448Y39389D01*
X90684Y39444D01*
X90878Y39486D01*
X91045Y39513D01*
X91170Y39527D01*
X91281D01*
X91586Y39513D01*
D02*
G37*
G36*
X49016Y33351D02*
X49100Y33337D01*
X49252Y33268D01*
X49308Y33226D01*
X49336Y33198D01*
X49363Y33184D01*
X49377Y33170D01*
X49447Y33101D01*
X49488Y33031D01*
X49544Y32893D01*
X49558Y32823D01*
X49572Y32782D01*
Y32754D01*
Y32740D01*
X49558Y32629D01*
X49530Y32518D01*
X49433Y32324D01*
X49391Y32240D01*
X49349Y32185D01*
X49322Y32143D01*
X49308Y32129D01*
X49197Y32004D01*
X49100Y31907D01*
X49003Y31852D01*
X48919Y31796D01*
X48850Y31768D01*
X48794Y31755D01*
X48739D01*
X48642Y31768D01*
X48558Y31782D01*
X48420Y31852D01*
X48364Y31893D01*
X48322Y31921D01*
X48309Y31935D01*
X48295Y31949D01*
X48225Y32018D01*
X48170Y32088D01*
X48142Y32157D01*
X48114Y32226D01*
X48100Y32282D01*
X48086Y32324D01*
Y32351D01*
Y32365D01*
X48100Y32476D01*
X48128Y32587D01*
X48225Y32782D01*
X48281Y32865D01*
X48322Y32934D01*
X48350Y32976D01*
X48364Y32990D01*
X48461Y33115D01*
X48572Y33212D01*
X48656Y33268D01*
X48739Y33323D01*
X48822Y33351D01*
X48878Y33365D01*
X48919D01*
X49016Y33351D01*
D02*
G37*
G36*
X83258Y39583D02*
X83550Y39541D01*
X83841Y39472D01*
X84105Y39402D01*
X84369Y39291D01*
X84619Y39194D01*
X84841Y39069D01*
X85049Y38958D01*
X85243Y38833D01*
X85410Y38708D01*
X85562Y38611D01*
X85687Y38514D01*
X85785Y38431D01*
X85868Y38361D01*
X85909Y38320D01*
X85923Y38306D01*
X85937Y38514D01*
X85951Y38681D01*
X85993Y38847D01*
X86034Y38972D01*
X86090Y39083D01*
X86145Y39180D01*
X86215Y39250D01*
X86270Y39319D01*
X86395Y39402D01*
X86506Y39444D01*
X86590Y39458D01*
X86617D01*
X86728Y39444D01*
X86812Y39430D01*
X86964Y39347D01*
X87075Y39236D01*
X87145Y39111D01*
X87200Y38972D01*
X87214Y38861D01*
X87228Y38778D01*
Y38764D01*
Y38750D01*
Y38653D01*
Y38542D01*
X87242Y38306D01*
Y38209D01*
X87256Y38126D01*
Y38070D01*
Y38042D01*
Y37876D01*
X87270Y37737D01*
Y37626D01*
Y37529D01*
Y37459D01*
Y37404D01*
Y37376D01*
Y37362D01*
Y32435D01*
X87256Y32310D01*
X87242Y32213D01*
X87214Y32115D01*
X87173Y32032D01*
X87075Y31907D01*
X86964Y31824D01*
X86853Y31782D01*
X86756Y31755D01*
X86687Y31741D01*
X86659D01*
X86534Y31755D01*
X86423Y31768D01*
X86340Y31810D01*
X86256Y31852D01*
X86132Y31963D01*
X86048Y32102D01*
X86007Y32226D01*
X85979Y32337D01*
X85965Y32421D01*
Y32435D01*
Y32449D01*
X85979Y36279D01*
X85812Y36613D01*
X85646Y36890D01*
X85479Y37126D01*
X85313Y37320D01*
X85174Y37473D01*
X85049Y37584D01*
X84979Y37640D01*
X84952Y37667D01*
X84674Y37834D01*
X84383Y37973D01*
X84091Y38084D01*
X83800Y38167D01*
X83550Y38223D01*
X83439Y38250D01*
X83342Y38264D01*
X83272Y38278D01*
X83217Y38292D01*
X83161D01*
X83147Y37695D01*
X83133Y37570D01*
Y37473D01*
X83120Y37390D01*
Y37320D01*
Y37265D01*
Y37237D01*
Y37209D01*
X83106Y37084D01*
X83092Y36987D01*
X83064Y36890D01*
X83022Y36807D01*
X82925Y36682D01*
X82814Y36599D01*
X82717Y36557D01*
X82620Y36529D01*
X82551Y36515D01*
X82523D01*
X82412Y36529D01*
X82314Y36557D01*
X82217Y36599D01*
X82148Y36654D01*
X82023Y36793D01*
X81940Y36960D01*
X81884Y37112D01*
X81843Y37251D01*
Y37307D01*
X81829Y37348D01*
Y37376D01*
Y37390D01*
Y37445D01*
X81815Y37515D01*
Y37681D01*
Y37751D01*
Y37820D01*
Y37862D01*
Y37876D01*
X81829Y38181D01*
X81857Y38445D01*
X81912Y38667D01*
X81954Y38847D01*
X82009Y38986D01*
X82065Y39083D01*
X82092Y39153D01*
X82106Y39167D01*
X82217Y39305D01*
X82356Y39416D01*
X82495Y39486D01*
X82634Y39541D01*
X82759Y39569D01*
X82856Y39597D01*
X82953D01*
X83258Y39583D01*
D02*
G37*
G36*
X63577Y59715D02*
X63729Y59646D01*
X63840Y59548D01*
X63910Y59437D01*
X63965Y59312D01*
X63979Y59215D01*
X63993Y59146D01*
Y59132D01*
Y59118D01*
Y58924D01*
Y58702D01*
Y58466D01*
Y58216D01*
X64007Y57716D01*
Y57217D01*
Y56995D01*
Y56773D01*
X64021Y56578D01*
Y56412D01*
Y56273D01*
Y56162D01*
Y56106D01*
Y56078D01*
Y55718D01*
Y55371D01*
Y55051D01*
X64035Y54746D01*
Y54468D01*
Y54219D01*
Y53996D01*
Y53788D01*
Y53608D01*
Y53455D01*
Y53330D01*
Y53219D01*
Y53136D01*
Y53066D01*
Y53039D01*
Y53025D01*
Y52914D01*
Y52775D01*
X64021Y52497D01*
Y52372D01*
Y52275D01*
Y52206D01*
Y52178D01*
X64007Y51984D01*
Y51803D01*
X63993Y51651D01*
Y51540D01*
Y51443D01*
Y51373D01*
Y51332D01*
Y51318D01*
X63979Y51207D01*
X63965Y51123D01*
X63896Y50971D01*
X63799Y50860D01*
X63674Y50790D01*
X63563Y50735D01*
X63465Y50721D01*
X63396Y50707D01*
X63368D01*
X63257Y50721D01*
X63160Y50735D01*
X63007Y50804D01*
X62896Y50901D01*
X62827Y51012D01*
X62771Y51123D01*
X62758Y51221D01*
X62744Y51290D01*
Y51318D01*
Y59118D01*
Y59229D01*
X62771Y59326D01*
X62841Y59479D01*
X62938Y59590D01*
X63049Y59659D01*
X63174Y59715D01*
X63271Y59729D01*
X63341Y59743D01*
X63479D01*
X63577Y59715D01*
D02*
G37*
G36*
X101636Y55801D02*
X101913Y55759D01*
X102177Y55690D01*
X102427Y55607D01*
X102649Y55509D01*
X102857Y55384D01*
X103051Y55273D01*
X103232Y55149D01*
X103384Y55010D01*
X103523Y54899D01*
X103634Y54788D01*
X103731Y54677D01*
X103815Y54593D01*
X103870Y54524D01*
X103898Y54482D01*
X103912Y54468D01*
X104065Y54232D01*
X104203Y53983D01*
X104314Y53733D01*
X104411Y53469D01*
X104495Y53219D01*
X104578Y52956D01*
X104634Y52719D01*
X104675Y52484D01*
X104717Y52262D01*
X104745Y52053D01*
X104759Y51873D01*
X104772Y51720D01*
X104786Y51595D01*
Y51498D01*
Y51443D01*
Y51415D01*
X104772Y51123D01*
X104745Y50860D01*
X104689Y50596D01*
X104620Y50360D01*
X104536Y50138D01*
X104453Y49944D01*
X104356Y49763D01*
X104245Y49597D01*
X104148Y49444D01*
X104051Y49319D01*
X103967Y49208D01*
X103884Y49125D01*
X103815Y49055D01*
X103759Y49000D01*
X103731Y48972D01*
X103718Y48958D01*
X103523Y48819D01*
X103329Y48708D01*
X103121Y48597D01*
X102912Y48514D01*
X102482Y48375D01*
X102080Y48278D01*
X101885Y48250D01*
X101719Y48222D01*
X101566Y48208D01*
X101427Y48195D01*
X101316Y48181D01*
X101164D01*
X100789Y48195D01*
X100414Y48250D01*
X100053Y48333D01*
X99748Y48417D01*
X99595Y48458D01*
X99470Y48500D01*
X99359Y48542D01*
X99262Y48583D01*
X99193Y48611D01*
X99123Y48639D01*
X99095Y48653D01*
X99082D01*
X98860Y48764D01*
X98665Y48875D01*
X98499Y48986D01*
X98346Y49097D01*
X98235Y49208D01*
X98124Y49319D01*
X98041Y49430D01*
X97971Y49527D01*
X97930Y49624D01*
X97888Y49708D01*
X97832Y49860D01*
Y49916D01*
X97818Y49957D01*
Y49971D01*
Y49985D01*
X97832Y50082D01*
X97846Y50152D01*
X97916Y50291D01*
X97957Y50346D01*
X97985Y50388D01*
X97999Y50402D01*
X98013Y50415D01*
X98082Y50485D01*
X98166Y50526D01*
X98304Y50582D01*
X98374Y50596D01*
X98415Y50610D01*
X98457D01*
X98554Y50596D01*
X98651Y50554D01*
X98735Y50485D01*
X98818Y50415D01*
X98873Y50346D01*
X98929Y50277D01*
X98957Y50235D01*
X98971Y50221D01*
X99082Y50082D01*
X99234Y49971D01*
X99401Y49874D01*
X99581Y49777D01*
X99748Y49721D01*
X99887Y49666D01*
X99942Y49652D01*
X99984Y49638D01*
X100012Y49624D01*
X100025D01*
X100261Y49569D01*
X100470Y49527D01*
X100664Y49485D01*
X100830Y49472D01*
X100969Y49458D01*
X101066Y49444D01*
X101150D01*
X101427Y49458D01*
X101691Y49485D01*
X101927Y49541D01*
X102121Y49597D01*
X102288Y49638D01*
X102413Y49694D01*
X102482Y49721D01*
X102510Y49735D01*
X102718Y49860D01*
X102912Y49999D01*
X103079Y50138D01*
X103218Y50277D01*
X103329Y50415D01*
X103412Y50513D01*
X103468Y50582D01*
X103481Y50610D01*
X100817Y51873D01*
X100608Y51970D01*
X100428Y52053D01*
X100261Y52137D01*
X100109Y52220D01*
X99970Y52289D01*
X99859Y52359D01*
X99748Y52414D01*
X99651Y52470D01*
X99498Y52553D01*
X99401Y52609D01*
X99345Y52650D01*
X99331Y52664D01*
X99193Y52775D01*
X99068Y52886D01*
X98971Y52997D01*
X98873Y53108D01*
X98790Y53205D01*
X98735Y53316D01*
X98637Y53511D01*
X98582Y53677D01*
X98554Y53816D01*
X98540Y53899D01*
Y53913D01*
Y53927D01*
X98554Y54107D01*
X98582Y54274D01*
X98624Y54441D01*
X98679Y54579D01*
X98832Y54843D01*
X98998Y55051D01*
X99165Y55204D01*
X99318Y55315D01*
X99373Y55357D01*
X99415Y55384D01*
X99442Y55412D01*
X99456D01*
X99748Y55551D01*
X100067Y55648D01*
X100372Y55718D01*
X100678Y55759D01*
X100942Y55801D01*
X101052D01*
X101150Y55815D01*
X101344D01*
X101636Y55801D01*
D02*
G37*
G36*
X114294Y59368D02*
X114627Y59312D01*
X114946Y59215D01*
X115252Y59104D01*
X115529Y58965D01*
X115779Y58827D01*
X116015Y58660D01*
X116223Y58494D01*
X116418Y58327D01*
X116584Y58174D01*
X116723Y58022D01*
X116834Y57883D01*
X116917Y57772D01*
X116987Y57689D01*
X117028Y57619D01*
X117042Y57605D01*
X117209Y57314D01*
X117361Y57022D01*
X117486Y56717D01*
X117597Y56412D01*
X117695Y56120D01*
X117764Y55815D01*
X117833Y55537D01*
X117875Y55273D01*
X117917Y55024D01*
X117945Y54788D01*
X117972Y54579D01*
X117986Y54413D01*
X118000Y54260D01*
Y54163D01*
Y54094D01*
Y54066D01*
X117986Y53622D01*
X117972Y53205D01*
X117931Y52817D01*
X117889Y52442D01*
X117833Y52095D01*
X117764Y51776D01*
X117695Y51484D01*
X117625Y51221D01*
X117570Y50971D01*
X117500Y50762D01*
X117431Y50582D01*
X117375Y50443D01*
X117334Y50318D01*
X117292Y50235D01*
X117278Y50179D01*
X117264Y50166D01*
X117070Y49819D01*
X116848Y49527D01*
X116612Y49263D01*
X116362Y49041D01*
X116112Y48861D01*
X115849Y48694D01*
X115585Y48569D01*
X115335Y48472D01*
X115099Y48389D01*
X114877Y48320D01*
X114683Y48278D01*
X114502Y48250D01*
X114363Y48236D01*
X114252Y48222D01*
X114155D01*
X113794Y48236D01*
X113461Y48292D01*
X113142Y48361D01*
X112850Y48472D01*
X112587Y48583D01*
X112337Y48722D01*
X112115Y48861D01*
X111921Y49014D01*
X111740Y49152D01*
X111587Y49291D01*
X111462Y49430D01*
X111352Y49541D01*
X111282Y49652D01*
X111213Y49721D01*
X111185Y49777D01*
X111171Y49791D01*
X110991Y50096D01*
X110838Y50443D01*
X110713Y50804D01*
X110588Y51193D01*
X110491Y51581D01*
X110422Y51970D01*
X110352Y52359D01*
X110297Y52733D01*
X110255Y53094D01*
X110227Y53427D01*
X110199Y53719D01*
X110186Y53983D01*
X110172Y54191D01*
Y54288D01*
Y54357D01*
Y54413D01*
Y54454D01*
Y54482D01*
Y54496D01*
X110186Y54857D01*
X110213Y55204D01*
X110255Y55523D01*
X110310Y55843D01*
X110380Y56134D01*
X110463Y56412D01*
X110533Y56661D01*
X110616Y56884D01*
X110713Y57092D01*
X110782Y57286D01*
X110866Y57439D01*
X110935Y57578D01*
X110991Y57675D01*
X111032Y57758D01*
X111060Y57800D01*
X111074Y57814D01*
X111268Y58091D01*
X111490Y58327D01*
X111712Y58535D01*
X111948Y58716D01*
X112198Y58868D01*
X112434Y58993D01*
X112656Y59104D01*
X112892Y59188D01*
X113100Y59257D01*
X113295Y59299D01*
X113475Y59340D01*
X113628Y59354D01*
X113753Y59368D01*
X113850Y59382D01*
X113933D01*
X114294Y59368D01*
D02*
G37*
G36*
X79983Y55745D02*
X80288Y55704D01*
X80566Y55634D01*
X80829Y55537D01*
X81065Y55426D01*
X81301Y55301D01*
X81496Y55176D01*
X81690Y55051D01*
X81857Y54913D01*
X81995Y54788D01*
X82120Y54663D01*
X82217Y54552D01*
X82301Y54468D01*
X82356Y54385D01*
X82384Y54343D01*
X82398Y54330D01*
X82551Y54094D01*
X82675Y53858D01*
X82786Y53622D01*
X82884Y53386D01*
X82953Y53150D01*
X83022Y52914D01*
X83064Y52692D01*
X83106Y52484D01*
X83133Y52289D01*
X83161Y52109D01*
X83175Y51942D01*
X83189Y51803D01*
Y51692D01*
Y51609D01*
Y51554D01*
Y51540D01*
X83175Y51248D01*
X83133Y50957D01*
X83078Y50693D01*
X83022Y50443D01*
X82939Y50221D01*
X82856Y49999D01*
X82773Y49805D01*
X82675Y49638D01*
X82592Y49472D01*
X82509Y49333D01*
X82426Y49222D01*
X82356Y49125D01*
X82287Y49041D01*
X82245Y48986D01*
X82217Y48958D01*
X82204Y48944D01*
X82037Y48792D01*
X81870Y48667D01*
X81704Y48542D01*
X81523Y48445D01*
X81357Y48361D01*
X81190Y48292D01*
X80871Y48195D01*
X80732Y48153D01*
X80593Y48125D01*
X80482Y48111D01*
X80371Y48098D01*
X80288Y48084D01*
X80177D01*
X79913Y48098D01*
X79650Y48139D01*
X79414Y48195D01*
X79191Y48278D01*
X78969Y48375D01*
X78775Y48472D01*
X78595Y48583D01*
X78442Y48708D01*
X78289Y48819D01*
X78164Y48930D01*
X78053Y49027D01*
X77970Y49125D01*
X77901Y49208D01*
X77845Y49263D01*
X77817Y49305D01*
X77803Y49319D01*
X77665Y49527D01*
X77540Y49749D01*
X77429Y49971D01*
X77346Y50207D01*
X77193Y50651D01*
X77096Y51068D01*
X77068Y51262D01*
X77040Y51429D01*
X77012Y51595D01*
X76999Y51720D01*
Y51831D01*
X76985Y51915D01*
Y51970D01*
Y51984D01*
X76999Y52511D01*
X77068Y52983D01*
X77109Y53205D01*
X77151Y53400D01*
X77207Y53594D01*
X77262Y53774D01*
X77304Y53927D01*
X77359Y54066D01*
X77401Y54177D01*
X77456Y54288D01*
X77484Y54357D01*
X77512Y54427D01*
X77540Y54454D01*
Y54468D01*
X77679Y54690D01*
X77831Y54899D01*
X77998Y55065D01*
X78178Y55218D01*
X78345Y55343D01*
X78525Y55440D01*
X78706Y55523D01*
X78872Y55593D01*
X79039Y55648D01*
X79178Y55690D01*
X79316Y55718D01*
X79427Y55745D01*
X79525D01*
X79608Y55759D01*
X79663D01*
X79983Y55745D01*
D02*
G37*
G36*
X63660Y49638D02*
X63743Y49624D01*
X63896Y49555D01*
X63951Y49513D01*
X63979Y49485D01*
X64007Y49472D01*
X64021Y49458D01*
X64090Y49388D01*
X64132Y49319D01*
X64187Y49180D01*
X64201Y49111D01*
X64215Y49069D01*
Y49041D01*
Y49027D01*
X64201Y48916D01*
X64173Y48805D01*
X64076Y48611D01*
X64035Y48528D01*
X63993Y48472D01*
X63965Y48431D01*
X63951Y48417D01*
X63840Y48292D01*
X63743Y48195D01*
X63646Y48139D01*
X63563Y48084D01*
X63493Y48056D01*
X63438Y48042D01*
X63382D01*
X63285Y48056D01*
X63202Y48070D01*
X63063Y48139D01*
X63007Y48181D01*
X62966Y48208D01*
X62952Y48222D01*
X62938Y48236D01*
X62869Y48306D01*
X62813Y48375D01*
X62785Y48445D01*
X62758Y48514D01*
X62744Y48569D01*
X62730Y48611D01*
Y48639D01*
Y48653D01*
X62744Y48764D01*
X62771Y48875D01*
X62869Y49069D01*
X62924Y49152D01*
X62966Y49222D01*
X62994Y49263D01*
X63007Y49277D01*
X63105Y49402D01*
X63216Y49499D01*
X63299Y49555D01*
X63382Y49610D01*
X63465Y49638D01*
X63521Y49652D01*
X63563D01*
X63660Y49638D01*
D02*
G37*
G36*
X92558Y55870D02*
X92849Y55829D01*
X93141Y55759D01*
X93405Y55690D01*
X93668Y55579D01*
X93918Y55482D01*
X94140Y55357D01*
X94349Y55246D01*
X94543Y55121D01*
X94709Y54996D01*
X94862Y54899D01*
X94987Y54801D01*
X95084Y54718D01*
X95167Y54649D01*
X95209Y54607D01*
X95223Y54593D01*
X95237Y54801D01*
X95251Y54968D01*
X95292Y55135D01*
X95334Y55260D01*
X95389Y55371D01*
X95445Y55468D01*
X95514Y55537D01*
X95570Y55607D01*
X95695Y55690D01*
X95806Y55731D01*
X95889Y55745D01*
X95917D01*
X96028Y55731D01*
X96111Y55718D01*
X96264Y55634D01*
X96375Y55523D01*
X96444Y55398D01*
X96500Y55260D01*
X96514Y55149D01*
X96528Y55065D01*
Y55051D01*
Y55037D01*
Y54940D01*
Y54829D01*
X96542Y54593D01*
Y54496D01*
X96555Y54413D01*
Y54357D01*
Y54330D01*
Y54163D01*
X96569Y54024D01*
Y53913D01*
Y53816D01*
Y53747D01*
Y53691D01*
Y53663D01*
Y53649D01*
Y48722D01*
X96555Y48597D01*
X96542Y48500D01*
X96514Y48403D01*
X96472Y48320D01*
X96375Y48195D01*
X96264Y48111D01*
X96153Y48070D01*
X96056Y48042D01*
X95986Y48028D01*
X95959D01*
X95834Y48042D01*
X95723Y48056D01*
X95639Y48098D01*
X95556Y48139D01*
X95431Y48250D01*
X95348Y48389D01*
X95306Y48514D01*
X95278Y48625D01*
X95265Y48708D01*
Y48722D01*
Y48736D01*
X95278Y52567D01*
X95112Y52900D01*
X94945Y53178D01*
X94779Y53413D01*
X94612Y53608D01*
X94473Y53760D01*
X94349Y53872D01*
X94279Y53927D01*
X94251Y53955D01*
X93974Y54121D01*
X93682Y54260D01*
X93391Y54371D01*
X93099Y54454D01*
X92849Y54510D01*
X92738Y54538D01*
X92641Y54552D01*
X92572Y54566D01*
X92516Y54579D01*
X92461D01*
X92447Y53983D01*
X92433Y53858D01*
Y53760D01*
X92419Y53677D01*
Y53608D01*
Y53552D01*
Y53525D01*
Y53497D01*
X92405Y53372D01*
X92391Y53275D01*
X92364Y53178D01*
X92322Y53094D01*
X92225Y52969D01*
X92114Y52886D01*
X92017Y52844D01*
X91919Y52817D01*
X91850Y52803D01*
X91822D01*
X91711Y52817D01*
X91614Y52844D01*
X91517Y52886D01*
X91448Y52942D01*
X91323Y53080D01*
X91239Y53247D01*
X91184Y53400D01*
X91142Y53538D01*
Y53594D01*
X91128Y53636D01*
Y53663D01*
Y53677D01*
Y53733D01*
X91114Y53802D01*
Y53969D01*
Y54038D01*
Y54107D01*
Y54149D01*
Y54163D01*
X91128Y54468D01*
X91156Y54732D01*
X91212Y54954D01*
X91253Y55135D01*
X91309Y55273D01*
X91364Y55371D01*
X91392Y55440D01*
X91406Y55454D01*
X91517Y55593D01*
X91656Y55704D01*
X91795Y55773D01*
X91933Y55829D01*
X92058Y55856D01*
X92155Y55884D01*
X92253D01*
X92558Y55870D01*
D02*
G37*
G36*
X85673D02*
X85965Y55829D01*
X86256Y55759D01*
X86520Y55690D01*
X86784Y55579D01*
X87034Y55482D01*
X87256Y55357D01*
X87464Y55246D01*
X87658Y55121D01*
X87825Y54996D01*
X87978Y54899D01*
X88103Y54801D01*
X88200Y54718D01*
X88283Y54649D01*
X88325Y54607D01*
X88338Y54593D01*
X88352Y54801D01*
X88366Y54968D01*
X88408Y55135D01*
X88450Y55260D01*
X88505Y55371D01*
X88560Y55468D01*
X88630Y55537D01*
X88685Y55607D01*
X88810Y55690D01*
X88921Y55731D01*
X89005Y55745D01*
X89032D01*
X89144Y55731D01*
X89227Y55718D01*
X89379Y55634D01*
X89490Y55523D01*
X89560Y55398D01*
X89615Y55260D01*
X89629Y55149D01*
X89643Y55065D01*
Y55051D01*
Y55037D01*
Y54940D01*
Y54829D01*
X89657Y54593D01*
Y54496D01*
X89671Y54413D01*
Y54357D01*
Y54330D01*
Y54163D01*
X89685Y54024D01*
Y53913D01*
Y53816D01*
Y53747D01*
Y53691D01*
Y53663D01*
Y53649D01*
Y48722D01*
X89671Y48597D01*
X89657Y48500D01*
X89629Y48403D01*
X89588Y48320D01*
X89490Y48195D01*
X89379Y48111D01*
X89268Y48070D01*
X89171Y48042D01*
X89102Y48028D01*
X89074D01*
X88949Y48042D01*
X88838Y48056D01*
X88755Y48098D01*
X88672Y48139D01*
X88547Y48250D01*
X88463Y48389D01*
X88422Y48514D01*
X88394Y48625D01*
X88380Y48708D01*
Y48722D01*
Y48736D01*
X88394Y52567D01*
X88227Y52900D01*
X88061Y53178D01*
X87894Y53413D01*
X87728Y53608D01*
X87589Y53760D01*
X87464Y53872D01*
X87395Y53927D01*
X87367Y53955D01*
X87089Y54121D01*
X86798Y54260D01*
X86506Y54371D01*
X86215Y54454D01*
X85965Y54510D01*
X85854Y54538D01*
X85757Y54552D01*
X85687Y54566D01*
X85632Y54579D01*
X85576D01*
X85562Y53983D01*
X85549Y53858D01*
Y53760D01*
X85535Y53677D01*
Y53608D01*
Y53552D01*
Y53525D01*
Y53497D01*
X85521Y53372D01*
X85507Y53275D01*
X85479Y53178D01*
X85438Y53094D01*
X85340Y52969D01*
X85229Y52886D01*
X85132Y52844D01*
X85035Y52817D01*
X84966Y52803D01*
X84938D01*
X84827Y52817D01*
X84730Y52844D01*
X84632Y52886D01*
X84563Y52942D01*
X84438Y53080D01*
X84355Y53247D01*
X84299Y53400D01*
X84258Y53538D01*
Y53594D01*
X84244Y53636D01*
Y53663D01*
Y53677D01*
Y53733D01*
X84230Y53802D01*
Y53969D01*
Y54038D01*
Y54107D01*
Y54149D01*
Y54163D01*
X84244Y54468D01*
X84272Y54732D01*
X84327Y54954D01*
X84369Y55135D01*
X84424Y55273D01*
X84480Y55371D01*
X84508Y55440D01*
X84521Y55454D01*
X84632Y55593D01*
X84771Y55704D01*
X84910Y55773D01*
X85049Y55829D01*
X85174Y55856D01*
X85271Y55884D01*
X85368D01*
X85673Y55870D01*
D02*
G37*
G36*
X71252D02*
X71544Y55829D01*
X71835Y55759D01*
X72099Y55690D01*
X72363Y55579D01*
X72612Y55482D01*
X72834Y55357D01*
X73043Y55246D01*
X73237Y55121D01*
X73404Y54996D01*
X73556Y54899D01*
X73681Y54801D01*
X73778Y54718D01*
X73862Y54649D01*
X73903Y54607D01*
X73917Y54593D01*
X73931Y54801D01*
X73945Y54968D01*
X73987Y55135D01*
X74028Y55260D01*
X74084Y55371D01*
X74139Y55468D01*
X74209Y55537D01*
X74264Y55607D01*
X74389Y55690D01*
X74500Y55731D01*
X74583Y55745D01*
X74611D01*
X74722Y55731D01*
X74805Y55718D01*
X74958Y55634D01*
X75069Y55523D01*
X75139Y55398D01*
X75194Y55260D01*
X75208Y55149D01*
X75222Y55065D01*
Y55051D01*
Y55037D01*
Y54940D01*
Y54829D01*
X75236Y54593D01*
Y54496D01*
X75250Y54413D01*
Y54357D01*
Y54330D01*
Y54163D01*
X75264Y54024D01*
Y53913D01*
Y53816D01*
Y53747D01*
Y53691D01*
Y53663D01*
Y53649D01*
Y48722D01*
X75250Y48597D01*
X75236Y48500D01*
X75208Y48403D01*
X75166Y48320D01*
X75069Y48195D01*
X74958Y48111D01*
X74847Y48070D01*
X74750Y48042D01*
X74681Y48028D01*
X74653D01*
X74528Y48042D01*
X74417Y48056D01*
X74334Y48098D01*
X74250Y48139D01*
X74125Y48250D01*
X74042Y48389D01*
X74000Y48514D01*
X73973Y48625D01*
X73959Y48708D01*
Y48722D01*
Y48736D01*
X73973Y52567D01*
X73806Y52900D01*
X73640Y53178D01*
X73473Y53413D01*
X73306Y53608D01*
X73168Y53760D01*
X73043Y53872D01*
X72973Y53927D01*
X72945Y53955D01*
X72668Y54121D01*
X72376Y54260D01*
X72085Y54371D01*
X71794Y54454D01*
X71544Y54510D01*
X71433Y54538D01*
X71335Y54552D01*
X71266Y54566D01*
X71210Y54579D01*
X71155D01*
X71141Y53983D01*
X71127Y53858D01*
Y53760D01*
X71113Y53677D01*
Y53608D01*
Y53552D01*
Y53525D01*
Y53497D01*
X71100Y53372D01*
X71086Y53275D01*
X71058Y53178D01*
X71016Y53094D01*
X70919Y52969D01*
X70808Y52886D01*
X70711Y52844D01*
X70614Y52817D01*
X70544Y52803D01*
X70517D01*
X70406Y52817D01*
X70308Y52844D01*
X70211Y52886D01*
X70142Y52942D01*
X70017Y53080D01*
X69934Y53247D01*
X69878Y53400D01*
X69836Y53538D01*
Y53594D01*
X69823Y53636D01*
Y53663D01*
Y53677D01*
Y53733D01*
X69809Y53802D01*
Y53969D01*
Y54038D01*
Y54107D01*
Y54149D01*
Y54163D01*
X69823Y54468D01*
X69850Y54732D01*
X69906Y54954D01*
X69947Y55135D01*
X70003Y55273D01*
X70059Y55371D01*
X70086Y55440D01*
X70100Y55454D01*
X70211Y55593D01*
X70350Y55704D01*
X70489Y55773D01*
X70628Y55829D01*
X70753Y55856D01*
X70850Y55884D01*
X70947D01*
X71252Y55870D01*
D02*
G37*
G36*
X107673Y77077D02*
X107757Y77049D01*
X107840Y77007D01*
X107895Y76965D01*
X107937Y76924D01*
X107965Y76896D01*
X107979Y76882D01*
X108034Y76799D01*
X108076Y76716D01*
X108131Y76549D01*
X108145Y76480D01*
X108159Y76424D01*
Y76396D01*
Y76383D01*
X108131Y76202D01*
X108076Y76049D01*
X107979Y75924D01*
X107881Y75827D01*
X107784Y75772D01*
X107687Y75716D01*
X107632Y75702D01*
X107604Y75689D01*
X107437Y75647D01*
X107243Y75619D01*
X106854Y75564D01*
X106452Y75522D01*
X106063Y75494D01*
X105883Y75480D01*
X105577D01*
X105439Y75467D01*
X105189D01*
X104550Y75480D01*
Y75314D01*
X104536Y75106D01*
X104523Y74897D01*
Y74675D01*
X104481Y74203D01*
X104453Y73745D01*
X104439Y73523D01*
X104425Y73315D01*
X104411Y73135D01*
X104398Y72968D01*
X104384Y72843D01*
X104370Y72732D01*
Y72677D01*
Y72649D01*
X104342Y72316D01*
X104314Y72010D01*
X104300Y71719D01*
X104287Y71441D01*
X104273Y71191D01*
X104259Y70969D01*
X104245Y70747D01*
X104231Y70567D01*
Y70400D01*
Y70248D01*
X104217Y70123D01*
Y70012D01*
Y69942D01*
Y69873D01*
Y69845D01*
Y69831D01*
Y69692D01*
X104203Y69526D01*
Y69345D01*
X104189Y69179D01*
Y69026D01*
X104175Y68901D01*
Y68818D01*
Y68804D01*
Y68790D01*
X104162Y68554D01*
X104148Y68346D01*
X104134Y68166D01*
X104120Y68027D01*
Y67916D01*
Y67832D01*
Y67777D01*
Y67763D01*
Y67680D01*
X104134Y67569D01*
X104148Y67485D01*
X104162Y67472D01*
Y67458D01*
X104175Y67319D01*
X104189Y67222D01*
Y67166D01*
Y67138D01*
X104175Y67027D01*
X104148Y66930D01*
X104120Y66847D01*
X104078Y66778D01*
X104037Y66722D01*
X103995Y66680D01*
X103981Y66653D01*
X103967Y66639D01*
X103884Y66569D01*
X103801Y66528D01*
X103634Y66472D01*
X103565Y66458D01*
X103509Y66444D01*
X103468D01*
X103329Y66458D01*
X103204Y66514D01*
X103107Y66583D01*
X103024Y66680D01*
X102954Y66764D01*
X102912Y66833D01*
X102885Y66889D01*
X102871Y66903D01*
X102815Y67041D01*
X102774Y67180D01*
X102746Y67319D01*
X102718Y67444D01*
Y67555D01*
X102704Y67638D01*
Y67708D01*
Y67721D01*
Y67832D01*
X102718Y67944D01*
X102732Y68193D01*
X102746Y68304D01*
Y68388D01*
X102760Y68443D01*
Y68471D01*
X102774Y68651D01*
X102787Y68804D01*
Y68929D01*
X102801Y69026D01*
Y69109D01*
Y69165D01*
Y69193D01*
Y69207D01*
Y69429D01*
Y69665D01*
X102829Y70178D01*
X102843Y70692D01*
X102871Y71205D01*
X102885Y71441D01*
X102899Y71663D01*
X102912Y71858D01*
X102926Y72024D01*
X102940Y72163D01*
Y72274D01*
X102954Y72330D01*
Y72357D01*
X102982Y72746D01*
X103010Y73121D01*
X103037Y73454D01*
X103051Y73773D01*
X103065Y74051D01*
X103079Y74314D01*
X103093Y74550D01*
X103107Y74745D01*
X103121Y74925D01*
Y75092D01*
Y75217D01*
X103135Y75328D01*
Y75411D01*
Y75467D01*
Y75494D01*
Y75508D01*
X102427D01*
X102177Y75494D01*
X101899Y75480D01*
X101649Y75467D01*
X101413Y75453D01*
X101316Y75439D01*
X101150D01*
X101094Y75425D01*
X101052D01*
X100678Y75397D01*
X100358Y75383D01*
X100081Y75355D01*
X99859D01*
X99678Y75342D01*
X99456D01*
X99345Y75355D01*
X99248Y75369D01*
X99095Y75453D01*
X99040Y75480D01*
X98998Y75522D01*
X98971Y75536D01*
X98957Y75550D01*
X98887Y75633D01*
X98832Y75716D01*
X98804Y75800D01*
X98776Y75883D01*
X98762Y75952D01*
X98748Y76008D01*
Y76049D01*
Y76063D01*
X98762Y76174D01*
X98776Y76271D01*
X98818Y76355D01*
X98846Y76424D01*
X98887Y76480D01*
X98929Y76535D01*
X98943Y76549D01*
X98957Y76563D01*
X99040Y76632D01*
X99123Y76688D01*
X99207Y76716D01*
X99290Y76743D01*
X99359Y76757D01*
X99401Y76771D01*
X99678D01*
X99942Y76785D01*
X100206Y76799D01*
X100470Y76813D01*
X100706Y76827D01*
X100803Y76841D01*
X100969D01*
X101025Y76854D01*
X101066D01*
X101441Y76882D01*
X101760Y76910D01*
X102024Y76924D01*
X102246D01*
X102427Y76938D01*
X103024D01*
X103246Y76924D01*
X103634D01*
X103787Y76910D01*
X104217D01*
X104481Y76896D01*
X105369D01*
X105563Y76910D01*
X105744Y76924D01*
X105924Y76938D01*
X106091Y76952D01*
X106216Y76965D01*
X106299Y76979D01*
X106327D01*
X106480Y76993D01*
X106632Y77021D01*
X106868Y77049D01*
X107063Y77063D01*
X107215Y77090D01*
X107326D01*
X107396Y77104D01*
X107562D01*
X107673Y77077D01*
D02*
G37*
G36*
X89157Y76979D02*
X89268Y76952D01*
X89366Y76910D01*
X89449Y76868D01*
X89518Y76827D01*
X89574Y76785D01*
X89601Y76757D01*
X89615Y76743D01*
X89699Y76646D01*
X89754Y76549D01*
X89796Y76466D01*
X89824Y76369D01*
X89837Y76299D01*
X89851Y76230D01*
Y76188D01*
Y76174D01*
X89837Y76049D01*
X89810Y75952D01*
X89782Y75855D01*
X89726Y75772D01*
X89685Y75702D01*
X89657Y75647D01*
X89629Y75619D01*
X89615Y75605D01*
X89518Y75522D01*
X89421Y75467D01*
X89324Y75425D01*
X89227Y75397D01*
X89157Y75383D01*
X89088Y75369D01*
X89032D01*
X88907Y75383D01*
X88797Y75411D01*
X88699Y75439D01*
X88616Y75494D01*
X88547Y75536D01*
X88491Y75564D01*
X88463Y75591D01*
X88450Y75605D01*
X88366Y75702D01*
X88311Y75800D01*
X88255Y75883D01*
X88227Y75980D01*
X88213Y76063D01*
X88200Y76119D01*
Y76161D01*
Y76174D01*
X88213Y76299D01*
X88241Y76410D01*
X88283Y76508D01*
X88325Y76591D01*
X88366Y76646D01*
X88408Y76702D01*
X88436Y76730D01*
X88450Y76743D01*
X88547Y76827D01*
X88644Y76882D01*
X88741Y76938D01*
X88824Y76965D01*
X88907Y76979D01*
X88977Y76993D01*
X89032D01*
X89157Y76979D01*
D02*
G37*
G36*
X54207Y77243D02*
X54513Y77188D01*
X54818Y77104D01*
X55068Y77021D01*
X55290Y76924D01*
X55387Y76882D01*
X55457Y76854D01*
X55526Y76813D01*
X55568Y76799D01*
X55595Y76771D01*
X55609D01*
X55845Y76618D01*
X56081Y76452D01*
X56317Y76271D01*
X56539Y76091D01*
X56734Y75924D01*
X56886Y75786D01*
X56942Y75730D01*
X56984Y75689D01*
X57011Y75675D01*
X57025Y75661D01*
X57108Y75564D01*
X57178Y75467D01*
X57219Y75383D01*
X57261Y75286D01*
X57275Y75217D01*
X57289Y75147D01*
Y75106D01*
Y75092D01*
X57275Y74995D01*
X57261Y74897D01*
X57178Y74759D01*
X57067Y74661D01*
X56928Y74592D01*
X56803Y74550D01*
X56692Y74537D01*
X56609Y74523D01*
X56581D01*
X56498Y74537D01*
X56428Y74564D01*
X56262Y74648D01*
X56192Y74689D01*
X56137Y74717D01*
X56109Y74745D01*
X56095Y74759D01*
X55096Y75536D01*
X54874Y75661D01*
X54652Y75758D01*
X54444Y75814D01*
X54263Y75869D01*
X54097Y75897D01*
X53972Y75911D01*
X53860D01*
X53680Y75897D01*
X53500Y75855D01*
X53333Y75814D01*
X53180Y75758D01*
X53056Y75689D01*
X52944Y75647D01*
X52889Y75605D01*
X52861Y75591D01*
X52667Y75453D01*
X52528Y75314D01*
X52417Y75189D01*
X52348Y75064D01*
X52306Y74953D01*
X52292Y74870D01*
X52278Y74800D01*
Y74786D01*
Y74620D01*
X52306Y74467D01*
X52375Y74162D01*
X52473Y73898D01*
X52584Y73662D01*
X52695Y73482D01*
X52792Y73343D01*
X52833Y73287D01*
X52861Y73246D01*
X52875Y73232D01*
X52889Y73218D01*
X52958Y73149D01*
X53042Y73065D01*
X53236Y72885D01*
X53458Y72704D01*
X53680Y72538D01*
X53888Y72371D01*
X54055Y72246D01*
X54124Y72205D01*
X54180Y72163D01*
X54207Y72149D01*
X54221Y72135D01*
X54541Y71913D01*
X54832Y71719D01*
X55082Y71525D01*
X55318Y71358D01*
X55526Y71205D01*
X55707Y71066D01*
X55859Y70942D01*
X55984Y70844D01*
X56095Y70747D01*
X56192Y70664D01*
X56262Y70595D01*
X56317Y70553D01*
X56359Y70511D01*
X56387Y70484D01*
X56414Y70456D01*
X56567Y70262D01*
X56706Y70067D01*
X56831Y69845D01*
X56928Y69637D01*
X57011Y69415D01*
X57081Y69193D01*
X57192Y68776D01*
X57233Y68582D01*
X57261Y68402D01*
X57275Y68249D01*
X57289Y68110D01*
X57303Y67985D01*
Y67902D01*
Y67846D01*
Y67832D01*
Y67624D01*
X57289Y67444D01*
X57275Y67305D01*
X57261Y67180D01*
X57247Y67097D01*
X57233Y67041D01*
X57219Y67000D01*
Y66986D01*
X57150Y66833D01*
X57067Y66722D01*
X56956Y66639D01*
X56859Y66583D01*
X56761Y66556D01*
X56678Y66542D01*
X56609Y66528D01*
X56525D01*
X56456Y66514D01*
X56401Y66500D01*
X56373D01*
X56276Y66486D01*
X56206Y66472D01*
X56040D01*
X55901Y66486D01*
X55637Y66514D01*
X55526D01*
X55429Y66528D01*
X55373Y66542D01*
X55346D01*
X55151Y66569D01*
X54985Y66583D01*
X54846Y66597D01*
X54735D01*
X54638Y66611D01*
X54374D01*
X54207Y66625D01*
X54027D01*
X53860Y66639D01*
X53694D01*
X53569Y66653D01*
X53458D01*
X53208Y66667D01*
X52986Y66680D01*
X52792Y66694D01*
X52639Y66708D01*
X52306D01*
X52223Y66694D01*
X52070Y66653D01*
X52001Y66639D01*
X51945Y66611D01*
X51903Y66597D01*
X51890D01*
X51779Y66556D01*
X51681Y66528D01*
X51598Y66514D01*
X51529Y66500D01*
X51473Y66486D01*
X51404D01*
X51307Y66500D01*
X51209Y66514D01*
X51057Y66597D01*
X51001Y66625D01*
X50960Y66667D01*
X50946Y66680D01*
X50932Y66694D01*
X50862Y66778D01*
X50821Y66861D01*
X50765Y67014D01*
X50751Y67083D01*
X50738Y67138D01*
Y67166D01*
Y67180D01*
Y67263D01*
X50765Y67333D01*
X50835Y67472D01*
X50946Y67583D01*
X51057Y67680D01*
X51168Y67749D01*
X51279Y67805D01*
X51348Y67832D01*
X51362Y67846D01*
X51376D01*
X51556Y67916D01*
X51737Y67957D01*
X51903Y67999D01*
X52056Y68013D01*
X52195Y68027D01*
X52292Y68041D01*
X52667D01*
X52986Y68027D01*
X53347Y68013D01*
X53694Y67999D01*
X53860Y67985D01*
X54013Y67971D01*
X54152D01*
X54277Y67957D01*
X54374D01*
X54444Y67944D01*
X54513D01*
X55942Y67819D01*
Y68027D01*
X55915Y68235D01*
X55887Y68415D01*
X55831Y68610D01*
X55707Y68929D01*
X55568Y69221D01*
X55498Y69345D01*
X55429Y69443D01*
X55360Y69540D01*
X55304Y69623D01*
X55248Y69678D01*
X55207Y69720D01*
X55193Y69748D01*
X55179Y69762D01*
X55096Y69845D01*
X54985Y69942D01*
X54874Y70039D01*
X54735Y70137D01*
X54457Y70345D01*
X54166Y70553D01*
X53902Y70733D01*
X53777Y70817D01*
X53666Y70886D01*
X53583Y70942D01*
X53513Y70983D01*
X53472Y71011D01*
X53458Y71025D01*
X53236Y71164D01*
X53014Y71302D01*
X52820Y71441D01*
X52653Y71566D01*
X52486Y71691D01*
X52334Y71816D01*
X52209Y71913D01*
X52098Y72024D01*
X52001Y72107D01*
X51903Y72191D01*
X51834Y72260D01*
X51779Y72316D01*
X51709Y72399D01*
X51681Y72427D01*
X51529Y72621D01*
X51404Y72815D01*
X51307Y72996D01*
X51209Y73162D01*
X51140Y73315D01*
X51098Y73426D01*
X51071Y73496D01*
X51057Y73523D01*
X50987Y73759D01*
X50932Y73995D01*
X50904Y74217D01*
X50876Y74426D01*
X50862Y74592D01*
X50849Y74731D01*
Y74786D01*
Y74828D01*
Y74842D01*
Y74856D01*
X50862Y75050D01*
X50890Y75244D01*
X50946Y75425D01*
X51001Y75591D01*
X51168Y75897D01*
X51348Y76147D01*
X51529Y76355D01*
X51612Y76438D01*
X51695Y76508D01*
X51751Y76563D01*
X51806Y76605D01*
X51834Y76618D01*
X51848Y76632D01*
X52014Y76743D01*
X52195Y76841D01*
X52542Y76993D01*
X52875Y77104D01*
X53194Y77174D01*
X53333Y77201D01*
X53472Y77229D01*
X53583Y77243D01*
X53680D01*
X53763Y77257D01*
X53874D01*
X54207Y77243D01*
D02*
G37*
G36*
X42382Y77382D02*
X42604Y77312D01*
X42798Y77215D01*
X42979Y77104D01*
X43131Y76979D01*
X43242Y76882D01*
X43326Y76813D01*
X43339Y76799D01*
X43353Y76785D01*
X43603Y76577D01*
X43811Y76410D01*
X43992Y76258D01*
X44144Y76147D01*
X44269Y76049D01*
X44353Y75994D01*
X44408Y75952D01*
X44422Y75938D01*
X44533Y75855D01*
X44616Y75772D01*
X44769Y75619D01*
X44866Y75480D01*
X44950Y75355D01*
X44991Y75258D01*
X45005Y75189D01*
X45019Y75147D01*
Y75133D01*
X45005Y75036D01*
X44991Y74953D01*
X44922Y74800D01*
X44880Y74745D01*
X44852Y74703D01*
X44839Y74675D01*
X44825Y74661D01*
X44741Y74592D01*
X44658Y74537D01*
X44575Y74509D01*
X44505Y74481D01*
X44436Y74467D01*
X44381Y74453D01*
X44339D01*
X44283Y74467D01*
X44214Y74481D01*
X44034Y74564D01*
X43839Y74675D01*
X43631Y74814D01*
X43437Y74953D01*
X43284Y75064D01*
X43215Y75106D01*
X43173Y75147D01*
X43145Y75161D01*
X43131Y75175D01*
Y74995D01*
Y74786D01*
X43159Y74356D01*
X43173Y73912D01*
X43201Y73468D01*
X43215Y73260D01*
X43228Y73065D01*
X43242Y72899D01*
X43256Y72746D01*
X43270Y72621D01*
Y72538D01*
X43284Y72468D01*
Y72455D01*
X43312Y72121D01*
X43339Y71816D01*
X43353Y71525D01*
X43367Y71261D01*
X43381Y71025D01*
X43395Y70803D01*
X43409Y70595D01*
X43423Y70414D01*
Y70262D01*
Y70123D01*
X43437Y70012D01*
Y69915D01*
Y69845D01*
Y69790D01*
Y69762D01*
Y69748D01*
Y69609D01*
X43423Y69456D01*
Y69290D01*
X43409Y69137D01*
X43395Y68985D01*
Y68874D01*
X43381Y68790D01*
Y68776D01*
Y68762D01*
X43353Y68527D01*
X43339Y68332D01*
X43326Y68166D01*
Y68027D01*
X43312Y67916D01*
Y67846D01*
Y67791D01*
Y67777D01*
X43603Y67791D01*
X43950D01*
X44144Y67777D01*
X44311Y67763D01*
X44464Y67721D01*
X44589Y67680D01*
X44686Y67624D01*
X44783Y67569D01*
X44852Y67499D01*
X44908Y67444D01*
X44991Y67305D01*
X45033Y67194D01*
X45047Y67111D01*
Y67097D01*
Y67083D01*
X45033Y66944D01*
X44991Y66833D01*
X44936Y66736D01*
X44866Y66667D01*
X44811Y66611D01*
X44755Y66583D01*
X44714Y66556D01*
X44700D01*
X44616Y66542D01*
X44505Y66528D01*
X44283Y66514D01*
X44172Y66500D01*
X44006D01*
X42618Y66486D01*
X41230D01*
X41119Y66500D01*
X41021Y66514D01*
X40938Y66542D01*
X40869Y66583D01*
X40813Y66611D01*
X40758Y66639D01*
X40744Y66653D01*
X40730Y66667D01*
X40661Y66750D01*
X40619Y66819D01*
X40563Y66986D01*
X40550Y67055D01*
X40536Y67111D01*
Y67138D01*
Y67152D01*
X40550Y67263D01*
X40563Y67347D01*
X40633Y67499D01*
X40674Y67555D01*
X40702Y67610D01*
X40716Y67624D01*
X40730Y67638D01*
X40799Y67708D01*
X40883Y67749D01*
X41049Y67805D01*
X41119Y67819D01*
X41160Y67832D01*
X41216D01*
X41952Y67819D01*
Y67957D01*
X41965Y68124D01*
X41979Y68277D01*
X41993Y68429D01*
X42007Y68554D01*
Y68665D01*
X42021Y68735D01*
Y68762D01*
X42035Y68971D01*
X42049Y69165D01*
X42063Y69332D01*
Y69470D01*
X42076Y69595D01*
Y69678D01*
Y69734D01*
Y69748D01*
Y69901D01*
X42063Y70081D01*
X42049Y70456D01*
X42021Y70844D01*
X41993Y71233D01*
X41979Y71413D01*
X41965Y71580D01*
X41952Y71733D01*
X41938Y71858D01*
X41924Y71969D01*
X41910Y72052D01*
Y72107D01*
Y72121D01*
X41882Y72413D01*
X41854Y72677D01*
X41827Y72926D01*
X41813Y73162D01*
X41799Y73371D01*
X41785Y73579D01*
X41771Y73745D01*
X41757Y73912D01*
Y74051D01*
Y74176D01*
X41743Y74273D01*
Y74356D01*
Y74426D01*
Y74467D01*
Y74495D01*
Y74509D01*
Y74606D01*
Y74717D01*
X41757Y74939D01*
Y75036D01*
X41771Y75120D01*
Y75189D01*
Y75203D01*
X41785Y75369D01*
Y75508D01*
Y75633D01*
X41799Y75730D01*
Y75814D01*
Y75869D01*
Y75897D01*
Y75911D01*
Y75980D01*
X41785Y76049D01*
X41771Y76202D01*
Y76271D01*
X41757Y76327D01*
Y76369D01*
Y76383D01*
X41743Y76494D01*
X41729Y76591D01*
X41715Y76674D01*
X41702Y76743D01*
Y76799D01*
Y76841D01*
Y76854D01*
Y76868D01*
X41715Y77049D01*
X41771Y77188D01*
X41854Y77285D01*
X41938Y77340D01*
X42021Y77382D01*
X42104Y77396D01*
X42160Y77410D01*
X42285D01*
X42382Y77382D01*
D02*
G37*
G36*
X85715Y74134D02*
X85798Y74120D01*
X85965Y74051D01*
X86020Y74009D01*
X86062Y73981D01*
X86090Y73967D01*
X86104Y73954D01*
X86173Y73870D01*
X86215Y73801D01*
X86270Y73634D01*
X86284Y73565D01*
X86298Y73509D01*
Y73468D01*
Y73454D01*
Y73357D01*
Y73260D01*
X86284Y73037D01*
Y72940D01*
X86270Y72857D01*
Y72802D01*
Y72788D01*
X86256Y72635D01*
Y72496D01*
X86243Y72385D01*
Y72288D01*
Y72219D01*
Y72163D01*
Y72135D01*
Y72121D01*
Y71830D01*
X86256Y71511D01*
X86270Y71178D01*
X86284Y70858D01*
X86312Y70567D01*
Y70442D01*
X86326Y70331D01*
Y70248D01*
X86340Y70178D01*
Y70137D01*
Y70123D01*
X86367Y69665D01*
X86381Y69470D01*
X86395Y69276D01*
X86409Y69096D01*
Y68929D01*
X86423Y68776D01*
Y68651D01*
Y68527D01*
X86437Y68415D01*
Y68332D01*
Y68263D01*
Y68193D01*
Y68152D01*
Y68138D01*
Y68124D01*
Y68041D01*
X86423Y67944D01*
X86409Y67735D01*
Y67638D01*
X86395Y67569D01*
Y67513D01*
Y67499D01*
X86381Y67347D01*
X86367Y67222D01*
Y67111D01*
X86354Y67027D01*
Y66958D01*
Y66903D01*
Y66875D01*
Y66861D01*
X86340Y66750D01*
X86326Y66653D01*
X86298Y66569D01*
X86256Y66500D01*
X86229Y66444D01*
X86201Y66403D01*
X86187Y66375D01*
X86173Y66361D01*
X86090Y66292D01*
X86007Y66250D01*
X85854Y66195D01*
X85785Y66181D01*
X85729Y66167D01*
X85673D01*
X85562Y66181D01*
X85465Y66195D01*
X85382Y66222D01*
X85313Y66264D01*
X85257Y66306D01*
X85202Y66333D01*
X85188Y66347D01*
X85174Y66361D01*
X85104Y66444D01*
X85063Y66528D01*
X85007Y66680D01*
X84993Y66750D01*
X84979Y66805D01*
Y66847D01*
Y66861D01*
Y66958D01*
Y67055D01*
X84993Y67263D01*
X85007Y67361D01*
Y67430D01*
X85021Y67485D01*
Y67499D01*
X85035Y67652D01*
X85049Y67777D01*
Y67874D01*
X85063Y67971D01*
Y68041D01*
Y68082D01*
Y68110D01*
Y68124D01*
X85049Y68374D01*
Y68485D01*
X85035Y68596D01*
Y68679D01*
X85021Y68749D01*
Y68790D01*
Y68804D01*
X85007Y68957D01*
X84993Y69082D01*
X84979Y69207D01*
Y69304D01*
X84966Y69373D01*
Y69443D01*
Y69470D01*
Y69484D01*
X84813Y69956D01*
X84660Y70372D01*
X84577Y70553D01*
X84480Y70733D01*
X84396Y70900D01*
X84327Y71039D01*
X84244Y71178D01*
X84174Y71289D01*
X84119Y71386D01*
X84063Y71469D01*
X84008Y71538D01*
X83980Y71580D01*
X83966Y71608D01*
X83952Y71622D01*
X83814Y71788D01*
X83689Y71927D01*
X83550Y72066D01*
X83425Y72163D01*
X83286Y72260D01*
X83161Y72330D01*
X82939Y72455D01*
X82745Y72510D01*
X82592Y72552D01*
X82537Y72566D01*
X82453D01*
X82356Y72552D01*
X82273Y72496D01*
X82190Y72427D01*
X82134Y72330D01*
X82079Y72219D01*
X82037Y72094D01*
X81968Y71816D01*
X81926Y71538D01*
X81912Y71400D01*
Y71289D01*
X81898Y71191D01*
Y71122D01*
Y71066D01*
Y71053D01*
Y70969D01*
Y70858D01*
X81912Y70636D01*
Y70539D01*
X81926Y70456D01*
Y70400D01*
Y70372D01*
Y70220D01*
X81940Y70081D01*
Y69970D01*
Y69873D01*
Y69803D01*
Y69762D01*
Y69734D01*
Y69720D01*
X81926Y69179D01*
X81912Y68915D01*
X81884Y68679D01*
X81870Y68471D01*
X81857Y68318D01*
Y68263D01*
X81843Y68221D01*
Y68193D01*
Y68180D01*
X81648Y66653D01*
X81634Y66542D01*
X81593Y66444D01*
X81510Y66278D01*
X81398Y66167D01*
X81287Y66084D01*
X81163Y66042D01*
X81065Y66014D01*
X80996Y66000D01*
X80968D01*
X80857Y66014D01*
X80760Y66028D01*
X80677Y66056D01*
X80607Y66097D01*
X80552Y66139D01*
X80496Y66167D01*
X80482Y66181D01*
X80468Y66195D01*
X80399Y66278D01*
X80344Y66347D01*
X80316Y66431D01*
X80288Y66514D01*
X80274Y66583D01*
X80260Y66639D01*
Y66667D01*
Y66680D01*
Y66916D01*
X80288Y67166D01*
X80302Y67416D01*
X80330Y67652D01*
X80357Y67860D01*
X80371Y67944D01*
X80385Y68027D01*
X80399Y68096D01*
Y68138D01*
X80413Y68166D01*
Y68180D01*
X80468Y68513D01*
X80496Y68804D01*
X80524Y69054D01*
X80552Y69276D01*
Y69443D01*
X80566Y69568D01*
Y69651D01*
Y69678D01*
X80552Y70331D01*
Y71039D01*
X80566Y71275D01*
X80580Y71497D01*
X80593Y71691D01*
X80621Y71885D01*
X80649Y72066D01*
X80677Y72219D01*
X80704Y72371D01*
X80732Y72496D01*
X80760Y72607D01*
X80788Y72704D01*
X80816Y72788D01*
X80843Y72857D01*
X80857Y72913D01*
X80871Y72954D01*
X80885Y72968D01*
Y72982D01*
X80982Y73162D01*
X81079Y73315D01*
X81190Y73440D01*
X81315Y73565D01*
X81440Y73662D01*
X81579Y73731D01*
X81704Y73801D01*
X81829Y73856D01*
X82079Y73926D01*
X82176Y73954D01*
X82273Y73967D01*
X82342Y73981D01*
X82453D01*
X82689Y73967D01*
X82911Y73912D01*
X83133Y73843D01*
X83355Y73731D01*
X83564Y73620D01*
X83772Y73482D01*
X83952Y73343D01*
X84133Y73204D01*
X84285Y73051D01*
X84438Y72913D01*
X84563Y72774D01*
X84660Y72663D01*
X84757Y72552D01*
X84813Y72482D01*
X84855Y72427D01*
X84868Y72413D01*
X84896Y73232D01*
X84910Y73398D01*
X84952Y73537D01*
X84993Y73662D01*
X85035Y73759D01*
X85091Y73856D01*
X85146Y73926D01*
X85271Y74037D01*
X85396Y74106D01*
X85507Y74134D01*
X85576Y74148D01*
X85604D01*
X85715Y74134D01*
D02*
G37*
G36*
X77928Y77729D02*
X78026Y77715D01*
X78109Y77673D01*
X78178Y77646D01*
X78234Y77604D01*
X78275Y77562D01*
X78303Y77548D01*
X78317Y77535D01*
X78373Y77451D01*
X78414Y77382D01*
X78470Y77215D01*
X78484Y77146D01*
X78497Y77090D01*
Y77049D01*
Y77035D01*
Y76785D01*
X78484Y76660D01*
Y76535D01*
Y76438D01*
X78470Y76355D01*
Y76299D01*
Y76285D01*
X78456Y76133D01*
X78442Y75994D01*
Y75869D01*
X78428Y75758D01*
Y75675D01*
Y75605D01*
Y75564D01*
Y75550D01*
Y75147D01*
Y74731D01*
X78442Y74314D01*
Y73940D01*
X78456Y73773D01*
Y73607D01*
Y73468D01*
Y73357D01*
X78470Y73260D01*
Y73176D01*
Y73135D01*
Y73121D01*
X78484Y72621D01*
Y72163D01*
Y71760D01*
X78497Y71566D01*
Y71400D01*
Y71247D01*
Y71108D01*
Y70983D01*
Y70886D01*
Y70803D01*
Y70747D01*
Y70706D01*
Y70692D01*
Y70456D01*
X78511Y70178D01*
X78525Y69887D01*
X78539Y69595D01*
X78553Y69345D01*
X78567Y69234D01*
Y69137D01*
Y69054D01*
X78581Y68998D01*
Y68957D01*
Y68943D01*
X78609Y68540D01*
X78622Y68180D01*
X78650Y67888D01*
Y67638D01*
X78664Y67458D01*
Y67319D01*
Y67236D01*
Y67208D01*
X78650Y67041D01*
X78636Y66903D01*
X78595Y66778D01*
X78553Y66667D01*
X78497Y66569D01*
X78442Y66500D01*
X78317Y66389D01*
X78192Y66320D01*
X78081Y66278D01*
X77998Y66264D01*
X77970D01*
X77859Y66278D01*
X77762Y66292D01*
X77679Y66320D01*
X77609Y66361D01*
X77554Y66403D01*
X77498Y66431D01*
X77484Y66444D01*
X77470Y66458D01*
X77401Y66542D01*
X77359Y66625D01*
X77304Y66778D01*
X77290Y66847D01*
X77276Y66903D01*
Y66944D01*
Y66958D01*
Y67347D01*
X77262Y67735D01*
X77248Y68082D01*
X77234Y68415D01*
X77221Y68554D01*
Y68679D01*
X77207Y68804D01*
Y68901D01*
Y68971D01*
X77193Y69040D01*
Y69068D01*
Y69082D01*
X76887Y69290D01*
X76638Y69470D01*
X76415Y69623D01*
X76235Y69748D01*
X76096Y69859D01*
X75999Y69928D01*
X75944Y69970D01*
X75930Y69984D01*
X74694Y68291D01*
X74431Y67944D01*
X74209Y67624D01*
X74028Y67333D01*
X73875Y67097D01*
X73751Y66903D01*
X73667Y66750D01*
X73640Y66694D01*
X73612Y66653D01*
X73598Y66639D01*
Y66625D01*
X73515Y66486D01*
X73404Y66389D01*
X73306Y66320D01*
X73209Y66278D01*
X73126Y66250D01*
X73057Y66222D01*
X73001D01*
X72890Y66236D01*
X72793Y66250D01*
X72640Y66333D01*
X72571Y66361D01*
X72529Y66403D01*
X72501Y66417D01*
X72487Y66431D01*
X72418Y66514D01*
X72363Y66583D01*
X72321Y66667D01*
X72293Y66736D01*
X72279Y66805D01*
X72265Y66861D01*
Y66889D01*
Y66903D01*
X72279Y67000D01*
X72307Y67111D01*
X72363Y67236D01*
X72432Y67388D01*
X72598Y67694D01*
X72793Y68013D01*
X73001Y68318D01*
X73084Y68457D01*
X73168Y68568D01*
X73237Y68665D01*
X73292Y68735D01*
X73320Y68790D01*
X73334Y68804D01*
X74875Y70900D01*
X74417Y71330D01*
X74014Y71719D01*
X73653Y72094D01*
X73487Y72260D01*
X73334Y72413D01*
X73209Y72552D01*
X73084Y72677D01*
X72987Y72788D01*
X72904Y72871D01*
X72834Y72954D01*
X72793Y73010D01*
X72765Y73037D01*
X72751Y73051D01*
X72682Y73135D01*
X72626Y73232D01*
X72598Y73301D01*
X72571Y73371D01*
X72557Y73440D01*
X72543Y73482D01*
Y73509D01*
Y73523D01*
X72557Y73620D01*
X72571Y73718D01*
X72654Y73884D01*
X72696Y73940D01*
X72723Y73981D01*
X72751Y74009D01*
X72765Y74023D01*
X72848Y74092D01*
X72932Y74148D01*
X73015Y74190D01*
X73084Y74217D01*
X73154Y74231D01*
X73209Y74245D01*
X73251D01*
X73348Y74231D01*
X73445Y74203D01*
X73598Y74120D01*
X73667Y74079D01*
X73709Y74037D01*
X73737Y74009D01*
X73751Y73995D01*
X75291Y72413D01*
X75624Y72094D01*
X75958Y71788D01*
X76263Y71525D01*
X76540Y71289D01*
X76776Y71094D01*
X76874Y71011D01*
X76957Y70942D01*
X77026Y70886D01*
X77082Y70844D01*
X77109Y70831D01*
X77123Y70817D01*
Y71275D01*
Y71719D01*
Y72121D01*
Y72316D01*
X77109Y72496D01*
Y72649D01*
Y72802D01*
Y72926D01*
X77096Y73037D01*
Y73121D01*
Y73190D01*
Y73232D01*
Y73246D01*
X77040Y75508D01*
Y75758D01*
X77054Y75883D01*
Y76008D01*
X77068Y76105D01*
Y76188D01*
X77082Y76244D01*
Y76258D01*
X77096Y76424D01*
X77109Y76563D01*
Y76702D01*
X77123Y76813D01*
Y76910D01*
Y76979D01*
Y77021D01*
Y77035D01*
X77137Y77146D01*
X77151Y77243D01*
X77179Y77326D01*
X77221Y77396D01*
X77262Y77451D01*
X77290Y77507D01*
X77304Y77521D01*
X77318Y77535D01*
X77401Y77604D01*
X77470Y77659D01*
X77568Y77687D01*
X77637Y77715D01*
X77706Y77729D01*
X77762Y77743D01*
X77817D01*
X77928Y77729D01*
D02*
G37*
G36*
X97638Y77285D02*
X97721Y77271D01*
X97874Y77188D01*
X97930Y77146D01*
X97971Y77118D01*
X97999Y77090D01*
X98013Y77077D01*
X98082Y76993D01*
X98124Y76910D01*
X98179Y76743D01*
X98193Y76674D01*
X98207Y76632D01*
Y76591D01*
Y76577D01*
Y75855D01*
X98221Y75147D01*
Y74467D01*
X98235Y73815D01*
X98249Y73190D01*
X98263Y72607D01*
X98277Y72052D01*
X98290Y71552D01*
X98318Y71094D01*
X98332Y70678D01*
Y70497D01*
X98346Y70317D01*
Y70164D01*
X98360Y70025D01*
Y69887D01*
X98374Y69776D01*
Y69678D01*
Y69609D01*
X98388Y69540D01*
Y69498D01*
Y69470D01*
Y69456D01*
X98526Y67138D01*
X98513Y66875D01*
X98457Y66639D01*
X98388Y66458D01*
X98318Y66320D01*
X98235Y66208D01*
X98179Y66125D01*
X98124Y66084D01*
X98110Y66070D01*
X97985Y66000D01*
X97818Y65945D01*
X97652Y65903D01*
X97485Y65875D01*
X97333Y65861D01*
X97208Y65848D01*
X97097D01*
X96708Y65861D01*
X96278Y65889D01*
X95861Y65931D01*
X95459Y65986D01*
X95265Y66014D01*
X95098Y66042D01*
X94945Y66056D01*
X94820Y66084D01*
X94709Y66097D01*
X94626Y66111D01*
X94571Y66125D01*
X94557D01*
X94251Y66181D01*
X93960Y66236D01*
X93696Y66292D01*
X93460Y66347D01*
X93224Y66403D01*
X93030Y66458D01*
X92836Y66514D01*
X92683Y66556D01*
X92530Y66611D01*
X92405Y66653D01*
X92308Y66680D01*
X92225Y66722D01*
X92155Y66736D01*
X92114Y66764D01*
X92086Y66778D01*
X92072D01*
X91919Y66861D01*
X91808Y66972D01*
X91725Y67069D01*
X91670Y67180D01*
X91642Y67277D01*
X91614Y67361D01*
Y67416D01*
Y67430D01*
X91628Y67527D01*
X91642Y67624D01*
X91697Y67777D01*
X91739Y67832D01*
X91767Y67874D01*
X91781Y67902D01*
X91795Y67916D01*
X91878Y67999D01*
X91961Y68055D01*
X92044Y68110D01*
X92128Y68138D01*
X92197Y68152D01*
X92239Y68166D01*
X92378D01*
X92447Y68152D01*
X92502Y68138D01*
X92530Y68124D01*
X93044Y67971D01*
X93530Y67832D01*
X93988Y67721D01*
X94432Y67624D01*
X94834Y67541D01*
X95209Y67472D01*
X95556Y67416D01*
X95875Y67374D01*
X96167Y67333D01*
X96417Y67319D01*
X96625Y67291D01*
X96805D01*
X96958Y67277D01*
X97138D01*
Y67624D01*
X97124Y67805D01*
Y67957D01*
X97111Y68096D01*
Y68207D01*
X97097Y68277D01*
Y68304D01*
X97013Y69359D01*
X96986Y69970D01*
X96944Y70609D01*
X96902Y71858D01*
X96889Y72468D01*
X96861Y73065D01*
X96847Y73648D01*
Y74190D01*
X96833Y74689D01*
Y75147D01*
Y75355D01*
X96819Y75564D01*
Y75744D01*
Y75911D01*
Y76063D01*
Y76188D01*
Y76299D01*
Y76396D01*
Y76480D01*
Y76535D01*
Y76563D01*
Y76577D01*
X96833Y76688D01*
X96847Y76785D01*
X96916Y76938D01*
X96958Y76993D01*
X97000Y77035D01*
X97013Y77063D01*
X97027Y77077D01*
X97111Y77146D01*
X97180Y77201D01*
X97277Y77243D01*
X97347Y77271D01*
X97416Y77285D01*
X97471Y77299D01*
X97527D01*
X97638Y77285D01*
D02*
G37*
G36*
X89366Y73662D02*
X89463Y73648D01*
X89546Y73607D01*
X89615Y73579D01*
X89671Y73537D01*
X89713Y73496D01*
X89740Y73482D01*
X89754Y73468D01*
X89810Y73384D01*
X89851Y73301D01*
X89907Y73135D01*
X89921Y73065D01*
X89935Y73010D01*
Y72968D01*
Y72954D01*
Y72690D01*
X89948Y72427D01*
X89962Y72149D01*
Y71885D01*
X89976Y71663D01*
X89990Y71566D01*
Y71483D01*
X90004Y71413D01*
Y71358D01*
Y71330D01*
Y71316D01*
X90032Y70969D01*
X90046Y70636D01*
X90060Y70359D01*
Y70123D01*
X90073Y69928D01*
Y69790D01*
Y69734D01*
Y69692D01*
Y69678D01*
Y69665D01*
Y69498D01*
Y69290D01*
Y69082D01*
X90060Y68874D01*
Y68693D01*
Y68540D01*
Y68485D01*
Y68443D01*
Y68415D01*
Y68402D01*
X90046Y68110D01*
Y67860D01*
X90032Y67638D01*
Y67472D01*
Y67333D01*
Y67236D01*
Y67166D01*
Y67152D01*
X90018Y67041D01*
X90004Y66944D01*
X89976Y66861D01*
X89935Y66791D01*
X89907Y66736D01*
X89879Y66694D01*
X89865Y66667D01*
X89851Y66653D01*
X89768Y66583D01*
X89685Y66542D01*
X89532Y66486D01*
X89463Y66472D01*
X89407Y66458D01*
X89352D01*
X89241Y66472D01*
X89144Y66486D01*
X89060Y66514D01*
X88991Y66556D01*
X88935Y66597D01*
X88880Y66625D01*
X88866Y66639D01*
X88852Y66653D01*
X88783Y66736D01*
X88741Y66819D01*
X88685Y66972D01*
X88672Y67041D01*
X88658Y67097D01*
Y67138D01*
Y67152D01*
Y67333D01*
Y67527D01*
X88672Y67735D01*
Y67930D01*
Y68110D01*
X88685Y68263D01*
Y68318D01*
Y68360D01*
Y68388D01*
Y68402D01*
Y68693D01*
X88699Y68957D01*
Y69179D01*
Y69345D01*
Y69484D01*
Y69581D01*
Y69651D01*
Y69665D01*
Y69928D01*
X88685Y70206D01*
X88672Y70484D01*
X88658Y70747D01*
Y70969D01*
X88644Y71066D01*
Y71150D01*
X88630Y71219D01*
Y71275D01*
Y71302D01*
Y71316D01*
X88602Y71663D01*
X88588Y71983D01*
X88574Y72274D01*
Y72510D01*
X88560Y72690D01*
Y72843D01*
Y72885D01*
Y72926D01*
Y72940D01*
Y72954D01*
X88574Y73065D01*
X88588Y73176D01*
X88616Y73260D01*
X88658Y73329D01*
X88699Y73384D01*
X88727Y73426D01*
X88741Y73454D01*
X88755Y73468D01*
X88838Y73537D01*
X88907Y73593D01*
X89005Y73620D01*
X89074Y73648D01*
X89144Y73662D01*
X89199Y73676D01*
X89254D01*
X89366Y73662D01*
D02*
G37*
G36*
X113142Y76757D02*
X113406Y76730D01*
X113669Y76674D01*
X113919Y76618D01*
X114391Y76466D01*
X114599Y76369D01*
X114808Y76285D01*
X114988Y76188D01*
X115168Y76091D01*
X115307Y76008D01*
X115432Y75938D01*
X115529Y75883D01*
X115613Y75827D01*
X115654Y75800D01*
X115668Y75786D01*
X115918Y75591D01*
X116126Y75397D01*
X116321Y75189D01*
X116473Y74995D01*
X116612Y74800D01*
X116723Y74620D01*
X116820Y74439D01*
X116890Y74259D01*
X116959Y74106D01*
X117001Y73954D01*
X117028Y73829D01*
X117042Y73718D01*
X117056Y73634D01*
X117070Y73565D01*
Y73523D01*
Y73509D01*
X117056Y73315D01*
X117028Y73135D01*
X116973Y72968D01*
X116917Y72815D01*
X116765Y72538D01*
X116570Y72302D01*
X116390Y72121D01*
X116237Y71996D01*
X116182Y71941D01*
X116126Y71913D01*
X116098Y71899D01*
X116085Y71885D01*
X115779Y71747D01*
X115460Y71636D01*
X115141Y71552D01*
X114849Y71483D01*
X114585Y71455D01*
X114474Y71441D01*
X114377Y71427D01*
X114308D01*
X114252Y71413D01*
X114197D01*
X113753Y71386D01*
X113350Y71316D01*
X112989Y71247D01*
X112837Y71205D01*
X112698Y71150D01*
X112559Y71108D01*
X112448Y71066D01*
X112351Y71039D01*
X112268Y70997D01*
X112198Y70969D01*
X112156Y70942D01*
X112129Y70928D01*
X112115D01*
X111934Y70831D01*
X111782Y70719D01*
X111643Y70609D01*
X111532Y70497D01*
X111435Y70372D01*
X111352Y70262D01*
X111282Y70150D01*
X111227Y70039D01*
X111157Y69845D01*
X111116Y69678D01*
X111102Y69623D01*
Y69581D01*
Y69554D01*
Y69540D01*
X111116Y69345D01*
X111157Y69165D01*
X111213Y68985D01*
X111282Y68832D01*
X111379Y68679D01*
X111476Y68540D01*
X111698Y68304D01*
X111921Y68110D01*
X112018Y68041D01*
X112115Y67971D01*
X112184Y67930D01*
X112240Y67888D01*
X112281Y67874D01*
X112295Y67860D01*
X112656Y67708D01*
X113003Y67597D01*
X113350Y67513D01*
X113656Y67458D01*
X113808Y67444D01*
X113933Y67430D01*
X114044Y67416D01*
X114141D01*
X114211Y67402D01*
X114322D01*
X114724Y67416D01*
X115071Y67458D01*
X115377Y67527D01*
X115613Y67597D01*
X115807Y67666D01*
X115946Y67735D01*
X116029Y67777D01*
X116043Y67791D01*
X116057D01*
X116168Y67874D01*
X116265Y67971D01*
X116473Y68207D01*
X116557Y68318D01*
X116626Y68415D01*
X116667Y68471D01*
X116681Y68499D01*
X116779Y68638D01*
X116890Y68735D01*
X116987Y68804D01*
X117084Y68846D01*
X117167Y68887D01*
X117237Y68901D01*
X117292D01*
X117403Y68887D01*
X117486Y68874D01*
X117653Y68804D01*
X117709Y68762D01*
X117750Y68735D01*
X117778Y68721D01*
X117792Y68707D01*
X117861Y68638D01*
X117903Y68554D01*
X117945Y68485D01*
X117972Y68402D01*
Y68332D01*
X117986Y68291D01*
Y68249D01*
Y68235D01*
X117972Y68041D01*
X117931Y67860D01*
X117861Y67694D01*
X117778Y67527D01*
X117667Y67388D01*
X117556Y67250D01*
X117320Y67014D01*
X117084Y66833D01*
X116973Y66750D01*
X116876Y66694D01*
X116792Y66653D01*
X116723Y66611D01*
X116681Y66597D01*
X116667Y66583D01*
X116265Y66417D01*
X115849Y66306D01*
X115460Y66222D01*
X115099Y66153D01*
X114933Y66139D01*
X114780Y66125D01*
X114655Y66111D01*
X114544D01*
X114447Y66097D01*
X114322D01*
X114003Y66111D01*
X113683Y66139D01*
X113378Y66181D01*
X113100Y66236D01*
X112823Y66292D01*
X112573Y66375D01*
X112337Y66444D01*
X112115Y66528D01*
X111921Y66611D01*
X111740Y66680D01*
X111587Y66764D01*
X111462Y66819D01*
X111365Y66875D01*
X111282Y66916D01*
X111240Y66944D01*
X111227Y66958D01*
X110949Y67152D01*
X110713Y67361D01*
X110505Y67569D01*
X110324Y67791D01*
X110172Y68013D01*
X110047Y68235D01*
X109950Y68443D01*
X109866Y68651D01*
X109797Y68846D01*
X109755Y69026D01*
X109714Y69193D01*
X109700Y69332D01*
X109686Y69443D01*
X109672Y69540D01*
Y69595D01*
Y69609D01*
X109686Y69817D01*
X109714Y70025D01*
X109755Y70220D01*
X109797Y70414D01*
X109936Y70747D01*
X110088Y71039D01*
X110172Y71164D01*
X110241Y71275D01*
X110310Y71372D01*
X110380Y71455D01*
X110422Y71511D01*
X110463Y71552D01*
X110491Y71580D01*
X110505Y71594D01*
X110685Y71747D01*
X110866Y71899D01*
X111074Y72024D01*
X111282Y72121D01*
X111490Y72219D01*
X111685Y72302D01*
X112087Y72441D01*
X112281Y72482D01*
X112448Y72524D01*
X112601Y72552D01*
X112740Y72579D01*
X112850Y72593D01*
X112934Y72607D01*
X113003D01*
X113198Y72621D01*
X113392Y72635D01*
X113558Y72649D01*
X113711Y72663D01*
X113836Y72677D01*
X113961Y72690D01*
X114072Y72704D01*
X114169Y72718D01*
X114322Y72746D01*
X114419Y72760D01*
X114488Y72774D01*
X114502D01*
X114683Y72815D01*
X114835Y72871D01*
X114974Y72940D01*
X115099Y72996D01*
X115196Y73065D01*
X115279Y73135D01*
X115349Y73204D01*
X115404Y73273D01*
X115474Y73398D01*
X115515Y73496D01*
X115529Y73565D01*
Y73593D01*
X115515Y73731D01*
X115502Y73870D01*
X115404Y74134D01*
X115279Y74356D01*
X115141Y74550D01*
X115002Y74703D01*
X114877Y74814D01*
X114780Y74884D01*
X114766Y74911D01*
X114752D01*
X114447Y75078D01*
X114141Y75217D01*
X113836Y75314D01*
X113544Y75369D01*
X113295Y75411D01*
X113184Y75425D01*
X113086Y75439D01*
X113017Y75453D01*
X112753D01*
X112573Y75425D01*
X112392Y75411D01*
X112212Y75383D01*
X112059Y75355D01*
X111934Y75328D01*
X111851Y75314D01*
X111837Y75300D01*
X111823D01*
X111574Y75258D01*
X111365Y75217D01*
X111199Y75189D01*
X111060Y75175D01*
X110963D01*
X110893Y75161D01*
X110838D01*
X110727Y75175D01*
X110630Y75189D01*
X110463Y75258D01*
X110352Y75355D01*
X110283Y75467D01*
X110227Y75577D01*
X110213Y75675D01*
X110199Y75744D01*
Y75772D01*
X110213Y75855D01*
X110241Y75938D01*
X110310Y76008D01*
X110380Y76091D01*
X110560Y76216D01*
X110768Y76327D01*
X110977Y76410D01*
X111157Y76480D01*
X111227Y76508D01*
X111282Y76521D01*
X111324Y76535D01*
X111338D01*
X111657Y76618D01*
X111934Y76674D01*
X112198Y76716D01*
X112434Y76743D01*
X112615Y76757D01*
X112753Y76771D01*
X112878D01*
X113142Y76757D01*
D02*
G37*
G36*
X59315Y77229D02*
X59426Y77201D01*
X59524Y77146D01*
X59607Y77104D01*
X59662Y77049D01*
X59718Y76993D01*
X59746Y76965D01*
X59759Y76952D01*
X59926Y76730D01*
X60079Y76480D01*
X60218Y76230D01*
X60343Y75966D01*
X60453Y75744D01*
X60495Y75647D01*
X60537Y75550D01*
X60565Y75480D01*
X60592Y75425D01*
X60606Y75397D01*
Y75383D01*
X61203Y73676D01*
X63077Y68596D01*
X63118Y68485D01*
X63243Y68846D01*
X63354Y69221D01*
X63590Y69970D01*
X63813Y70733D01*
X63910Y71080D01*
X64007Y71427D01*
X64104Y71747D01*
X64173Y72038D01*
X64243Y72302D01*
X64312Y72538D01*
X64354Y72718D01*
X64395Y72857D01*
X64409Y72899D01*
Y72940D01*
X64423Y72954D01*
Y72968D01*
X65103Y75342D01*
X65367Y76563D01*
X65436Y76757D01*
X65534Y76896D01*
X65645Y77007D01*
X65770Y77077D01*
X65867Y77118D01*
X65964Y77132D01*
X66019Y77146D01*
X66047D01*
X66158Y77132D01*
X66242Y77118D01*
X66394Y77049D01*
X66450Y77007D01*
X66491Y76979D01*
X66519Y76965D01*
X66533Y76952D01*
X66602Y76868D01*
X66658Y76785D01*
X66699Y76702D01*
X66727Y76618D01*
X66741Y76549D01*
X66755Y76494D01*
Y76452D01*
Y76438D01*
Y76341D01*
X66741Y76230D01*
X66713Y76091D01*
X66686Y75952D01*
X66630Y75633D01*
X66547Y75314D01*
X66477Y75008D01*
X66450Y74870D01*
X66408Y74759D01*
X66394Y74661D01*
X66366Y74592D01*
X66352Y74537D01*
Y74523D01*
X65797Y72607D01*
X65603Y71885D01*
X65423Y71191D01*
X65242Y70553D01*
X65062Y69970D01*
X64895Y69415D01*
X64742Y68915D01*
X64604Y68457D01*
X64465Y68055D01*
X64340Y67680D01*
X64229Y67374D01*
X64132Y67097D01*
X64062Y66875D01*
X63993Y66708D01*
X63951Y66583D01*
X63924Y66514D01*
X63910Y66486D01*
X63813Y66306D01*
X63701Y66167D01*
X63577Y66084D01*
X63452Y66014D01*
X63341Y65973D01*
X63243Y65959D01*
X63188Y65945D01*
X63160D01*
X63007Y65959D01*
X62883Y66014D01*
X62771Y66084D01*
X62688Y66167D01*
X62619Y66236D01*
X62563Y66306D01*
X62536Y66361D01*
X62522Y66375D01*
X62355Y66694D01*
X62216Y67000D01*
X62091Y67291D01*
X61966Y67555D01*
X61883Y67777D01*
X61841Y67874D01*
X61814Y67957D01*
X61786Y68027D01*
X61772Y68068D01*
X61758Y68096D01*
Y68110D01*
X59871Y73190D01*
X59343Y74731D01*
X59232Y74995D01*
X59121Y75244D01*
X58996Y75467D01*
X58885Y75675D01*
X58788Y75841D01*
X58705Y75980D01*
X58649Y76063D01*
X58635Y76077D01*
Y76091D01*
X58580Y76174D01*
X58552Y76244D01*
X58496Y76383D01*
Y76424D01*
X58483Y76466D01*
Y76494D01*
Y76508D01*
X58496Y76618D01*
X58510Y76716D01*
X58552Y76799D01*
X58594Y76882D01*
X58635Y76938D01*
X58663Y76979D01*
X58691Y77007D01*
X58705Y77021D01*
X58788Y77090D01*
X58871Y77146D01*
X58955Y77188D01*
X59038Y77215D01*
X59107Y77229D01*
X59163Y77243D01*
X59204D01*
X59315Y77229D01*
D02*
G37*
G36*
X47975Y67569D02*
X48100Y67541D01*
X48197Y67499D01*
X48295Y67458D01*
X48364Y67402D01*
X48420Y67361D01*
X48447Y67333D01*
X48461Y67319D01*
X48544Y67222D01*
X48600Y67125D01*
X48656Y67014D01*
X48683Y66916D01*
X48697Y66833D01*
X48711Y66764D01*
Y66722D01*
Y66708D01*
X48697Y66583D01*
X48669Y66472D01*
X48628Y66361D01*
X48586Y66278D01*
X48544Y66208D01*
X48503Y66153D01*
X48475Y66125D01*
X48461Y66111D01*
X48364Y66028D01*
X48253Y65959D01*
X48156Y65917D01*
X48059Y65875D01*
X47975Y65861D01*
X47906Y65848D01*
X47850D01*
X47726Y65861D01*
X47601Y65889D01*
X47504Y65931D01*
X47406Y65986D01*
X47337Y66028D01*
X47281Y66070D01*
X47254Y66097D01*
X47240Y66111D01*
X47157Y66208D01*
X47087Y66306D01*
X47045Y66417D01*
X47004Y66500D01*
X46990Y66583D01*
X46976Y66653D01*
Y66694D01*
Y66708D01*
X46990Y66833D01*
X47018Y66958D01*
X47059Y67055D01*
X47101Y67152D01*
X47157Y67222D01*
X47198Y67277D01*
X47226Y67305D01*
X47240Y67319D01*
X47337Y67402D01*
X47434Y67472D01*
X47545Y67513D01*
X47642Y67555D01*
X47726Y67569D01*
X47795Y67583D01*
X47850D01*
X47975Y67569D01*
D02*
G37*
%LPC*%
G36*
X57955Y37987D02*
X57830D01*
X57594Y37973D01*
X57497Y37959D01*
X57400Y37945D01*
X57331Y37917D01*
X57275Y37903D01*
X57233Y37890D01*
X57219D01*
X56997Y37806D01*
X56900Y37751D01*
X56803Y37709D01*
X56734Y37667D01*
X56678Y37626D01*
X56637Y37612D01*
X56623Y37598D01*
X56650Y37334D01*
X56692Y37084D01*
X56720Y36862D01*
X56748Y36654D01*
X56775Y36460D01*
X56803Y36279D01*
X56831Y36127D01*
X56845Y35988D01*
X56872Y35863D01*
X56886Y35752D01*
X56900Y35669D01*
X56914Y35585D01*
X56928Y35530D01*
X56942Y35488D01*
Y35474D01*
Y35460D01*
X56997Y35211D01*
X57081Y34975D01*
X57192Y34753D01*
X57317Y34558D01*
X57442Y34392D01*
X57539Y34253D01*
X57608Y34170D01*
X57622Y34156D01*
X57636Y34142D01*
X57761Y34017D01*
X57886Y33906D01*
X58011Y33809D01*
X58136Y33739D01*
X58358Y33601D01*
X58566Y33517D01*
X58746Y33476D01*
X58885Y33448D01*
X58941Y33434D01*
X59010D01*
X59274Y33448D01*
X59510Y33503D01*
X59704Y33573D01*
X59871Y33670D01*
X59996Y33753D01*
X60093Y33823D01*
X60148Y33878D01*
X60162Y33892D01*
X60287Y34086D01*
X60384Y34295D01*
X60440Y34531D01*
X60495Y34753D01*
X60523Y34947D01*
X60537Y35113D01*
Y35183D01*
Y35225D01*
Y35252D01*
Y35266D01*
X60523Y35474D01*
X60509Y35669D01*
X60440Y36044D01*
X60329Y36363D01*
X60218Y36640D01*
X60162Y36751D01*
X60106Y36862D01*
X60051Y36946D01*
X59996Y37015D01*
X59954Y37084D01*
X59926Y37126D01*
X59898Y37140D01*
Y37154D01*
X59759Y37307D01*
X59593Y37431D01*
X59440Y37543D01*
X59260Y37640D01*
X59093Y37723D01*
X58927Y37778D01*
X58594Y37890D01*
X58427Y37917D01*
X58288Y37945D01*
X58163Y37959D01*
X58052Y37973D01*
X57955Y37987D01*
D02*
G37*
G36*
X114003Y41748D02*
X113947D01*
X113739Y41734D01*
X113531Y41706D01*
X113350Y41665D01*
X113170Y41596D01*
X112864Y41443D01*
X112615Y41276D01*
X112420Y41096D01*
X112351Y41012D01*
X112281Y40943D01*
X112226Y40874D01*
X112198Y40832D01*
X112170Y40804D01*
Y40790D01*
X112059Y40610D01*
X111976Y40402D01*
X111823Y39944D01*
X111712Y39486D01*
X111643Y39028D01*
X111629Y38806D01*
X111601Y38611D01*
X111587Y38431D01*
Y38264D01*
X111574Y38139D01*
Y38042D01*
Y37987D01*
Y37959D01*
Y37626D01*
X111587Y37307D01*
X111615Y37015D01*
X111643Y36724D01*
X111685Y36460D01*
X111712Y36210D01*
X111754Y35988D01*
X111796Y35780D01*
X111851Y35599D01*
X111893Y35447D01*
X111921Y35308D01*
X111962Y35183D01*
X111990Y35100D01*
X112018Y35030D01*
X112032Y34989D01*
Y34975D01*
X112156Y34683D01*
X112309Y34420D01*
X112462Y34184D01*
X112628Y34003D01*
X112809Y33837D01*
X112989Y33698D01*
X113156Y33587D01*
X113336Y33490D01*
X113503Y33420D01*
X113656Y33365D01*
X113794Y33337D01*
X113919Y33309D01*
X114016Y33295D01*
X114086Y33281D01*
X114155D01*
X114377Y33295D01*
X114599Y33337D01*
X114794Y33392D01*
X114974Y33462D01*
X115141Y33545D01*
X115293Y33642D01*
X115432Y33753D01*
X115557Y33864D01*
X115668Y33961D01*
X115765Y34073D01*
X115849Y34170D01*
X115918Y34253D01*
X115960Y34322D01*
X116001Y34378D01*
X116015Y34420D01*
X116029Y34433D01*
X116140Y34669D01*
X116223Y34919D01*
X116307Y35183D01*
X116376Y35460D01*
X116487Y36030D01*
X116557Y36599D01*
X116584Y36862D01*
X116612Y37098D01*
X116626Y37320D01*
Y37515D01*
X116640Y37667D01*
Y37792D01*
Y37862D01*
Y37890D01*
X116626Y38153D01*
X116612Y38403D01*
X116543Y38889D01*
X116501Y39097D01*
X116445Y39305D01*
X116390Y39500D01*
X116321Y39680D01*
X116265Y39847D01*
X116209Y39985D01*
X116154Y40110D01*
X116112Y40221D01*
X116071Y40305D01*
X116043Y40360D01*
X116015Y40402D01*
Y40416D01*
X115863Y40652D01*
X115710Y40860D01*
X115543Y41040D01*
X115363Y41193D01*
X115196Y41318D01*
X115030Y41429D01*
X114863Y41512D01*
X114697Y41582D01*
X114544Y41637D01*
X114405Y41679D01*
X114266Y41706D01*
X114169Y41734D01*
X114072D01*
X114003Y41748D01*
D02*
G37*
G36*
X91309Y38292D02*
X91198D01*
X91101Y38278D01*
X91003Y38264D01*
X90934Y38236D01*
X90920Y38223D01*
X90906D01*
X90754Y38167D01*
X90601Y38098D01*
X90545Y38070D01*
X90490Y38056D01*
X90462Y38028D01*
X90448D01*
X90504Y37737D01*
X90518Y37612D01*
X90545Y37501D01*
X90559Y37404D01*
Y37334D01*
X90573Y37279D01*
Y37265D01*
X90587Y37015D01*
Y36904D01*
X90601Y36807D01*
Y36724D01*
Y36668D01*
Y36626D01*
Y36613D01*
Y36432D01*
X90587Y36224D01*
X90573Y36016D01*
X90559Y35794D01*
X90531Y35336D01*
X90490Y34878D01*
X90462Y34669D01*
X90448Y34475D01*
X90434Y34295D01*
X90407Y34142D01*
X90393Y34017D01*
Y33920D01*
X90379Y33864D01*
Y33837D01*
X90545Y33698D01*
X90684Y33587D01*
X90809Y33490D01*
X90906Y33420D01*
X90990Y33365D01*
X91045Y33323D01*
X91073Y33309D01*
X91087Y33295D01*
X91267Y33212D01*
X91461Y33156D01*
X91656Y33115D01*
X91836Y33087D01*
X91989Y33073D01*
X92114Y33059D01*
X92225D01*
X92516Y33087D01*
X92766Y33143D01*
X92974Y33240D01*
X93141Y33351D01*
X93280Y33448D01*
X93377Y33545D01*
X93432Y33601D01*
X93446Y33628D01*
X93585Y33864D01*
X93682Y34142D01*
X93752Y34420D01*
X93793Y34697D01*
X93821Y34961D01*
X93835Y35072D01*
X93849Y35155D01*
Y35238D01*
Y35294D01*
Y35336D01*
Y35350D01*
X93835Y35572D01*
X93821Y35780D01*
X93724Y36168D01*
X93599Y36515D01*
X93460Y36821D01*
X93391Y36946D01*
X93321Y37057D01*
X93252Y37168D01*
X93196Y37251D01*
X93141Y37320D01*
X93099Y37362D01*
X93085Y37390D01*
X93072Y37404D01*
X92919Y37556D01*
X92766Y37695D01*
X92600Y37820D01*
X92447Y37917D01*
X92280Y38001D01*
X92128Y38070D01*
X91836Y38181D01*
X91586Y38250D01*
X91475Y38264D01*
X91378Y38278D01*
X91309Y38292D01*
D02*
G37*
G36*
X101427Y54552D02*
X101344D01*
X100955Y54524D01*
X100622Y54468D01*
X100331Y54371D01*
X100095Y54274D01*
X99901Y54163D01*
X99762Y54066D01*
X99720Y54038D01*
X99678Y54010D01*
X99651Y53983D01*
X99762Y53899D01*
X99887Y53802D01*
X100164Y53622D01*
X100470Y53441D01*
X100761Y53275D01*
X101039Y53136D01*
X101150Y53066D01*
X101261Y53011D01*
X101344Y52969D01*
X101413Y52942D01*
X101455Y52928D01*
X101469Y52914D01*
X103606Y51901D01*
X103551Y52137D01*
X103495Y52359D01*
X103426Y52581D01*
X103357Y52761D01*
X103287Y52942D01*
X103218Y53108D01*
X103148Y53261D01*
X103079Y53386D01*
X103024Y53511D01*
X102968Y53608D01*
X102912Y53691D01*
X102871Y53760D01*
X102829Y53816D01*
X102801Y53858D01*
X102774Y53872D01*
Y53885D01*
X102663Y53996D01*
X102552Y54107D01*
X102316Y54274D01*
X102066Y54385D01*
X101844Y54468D01*
X101649Y54524D01*
X101483Y54538D01*
X101427Y54552D01*
D02*
G37*
G36*
X114003Y58036D02*
X113947D01*
X113739Y58022D01*
X113531Y57994D01*
X113350Y57952D01*
X113170Y57883D01*
X112864Y57730D01*
X112615Y57564D01*
X112420Y57383D01*
X112351Y57300D01*
X112281Y57231D01*
X112226Y57161D01*
X112198Y57120D01*
X112170Y57092D01*
Y57078D01*
X112059Y56897D01*
X111976Y56689D01*
X111823Y56231D01*
X111712Y55773D01*
X111643Y55315D01*
X111629Y55093D01*
X111601Y54899D01*
X111587Y54718D01*
Y54552D01*
X111574Y54427D01*
Y54330D01*
Y54274D01*
Y54246D01*
Y53913D01*
X111587Y53594D01*
X111615Y53303D01*
X111643Y53011D01*
X111685Y52747D01*
X111712Y52497D01*
X111754Y52275D01*
X111796Y52067D01*
X111851Y51887D01*
X111893Y51734D01*
X111921Y51595D01*
X111962Y51470D01*
X111990Y51387D01*
X112018Y51318D01*
X112032Y51276D01*
Y51262D01*
X112156Y50971D01*
X112309Y50707D01*
X112462Y50471D01*
X112628Y50291D01*
X112809Y50124D01*
X112989Y49985D01*
X113156Y49874D01*
X113336Y49777D01*
X113503Y49708D01*
X113656Y49652D01*
X113794Y49624D01*
X113919Y49597D01*
X114016Y49583D01*
X114086Y49569D01*
X114155D01*
X114377Y49583D01*
X114599Y49624D01*
X114794Y49680D01*
X114974Y49749D01*
X115141Y49832D01*
X115293Y49930D01*
X115432Y50041D01*
X115557Y50152D01*
X115668Y50249D01*
X115765Y50360D01*
X115849Y50457D01*
X115918Y50540D01*
X115960Y50610D01*
X116001Y50665D01*
X116015Y50707D01*
X116029Y50721D01*
X116140Y50957D01*
X116223Y51207D01*
X116307Y51470D01*
X116376Y51748D01*
X116487Y52317D01*
X116557Y52886D01*
X116584Y53150D01*
X116612Y53386D01*
X116626Y53608D01*
Y53802D01*
X116640Y53955D01*
Y54080D01*
Y54149D01*
Y54177D01*
X116626Y54441D01*
X116612Y54690D01*
X116543Y55176D01*
X116501Y55384D01*
X116445Y55593D01*
X116390Y55787D01*
X116321Y55967D01*
X116265Y56134D01*
X116209Y56273D01*
X116154Y56398D01*
X116112Y56509D01*
X116071Y56592D01*
X116043Y56648D01*
X116015Y56689D01*
Y56703D01*
X115863Y56939D01*
X115710Y57147D01*
X115543Y57328D01*
X115363Y57480D01*
X115196Y57605D01*
X115030Y57716D01*
X114863Y57800D01*
X114697Y57869D01*
X114544Y57924D01*
X114405Y57966D01*
X114266Y57994D01*
X114169Y58022D01*
X114072D01*
X114003Y58036D01*
D02*
G37*
G36*
X79858Y54343D02*
X79761D01*
X79622Y54330D01*
X79483Y54316D01*
X79247Y54219D01*
X79039Y54094D01*
X78872Y53913D01*
X78720Y53705D01*
X78609Y53483D01*
X78511Y53233D01*
X78442Y52983D01*
X78386Y52719D01*
X78345Y52484D01*
X78317Y52248D01*
X78303Y52053D01*
X78289Y51873D01*
Y51734D01*
Y51692D01*
Y51651D01*
Y51637D01*
Y51623D01*
X78331Y51262D01*
X78400Y50943D01*
X78511Y50679D01*
X78622Y50443D01*
X78733Y50263D01*
X78831Y50138D01*
X78900Y50055D01*
X78914Y50041D01*
X78928Y50027D01*
X79136Y49846D01*
X79344Y49721D01*
X79552Y49624D01*
X79747Y49569D01*
X79927Y49527D01*
X80052Y49513D01*
X80108Y49499D01*
X80177D01*
X80399Y49513D01*
X80607Y49569D01*
X80802Y49638D01*
X80954Y49735D01*
X81093Y49819D01*
X81190Y49888D01*
X81246Y49944D01*
X81274Y49957D01*
X81454Y50193D01*
X81593Y50443D01*
X81676Y50707D01*
X81745Y50957D01*
X81787Y51193D01*
X81801Y51290D01*
Y51373D01*
X81815Y51443D01*
Y51498D01*
Y51526D01*
Y51540D01*
X81801Y51915D01*
X81745Y52262D01*
X81676Y52567D01*
X81593Y52831D01*
X81510Y53053D01*
X81468Y53150D01*
X81440Y53219D01*
X81412Y53275D01*
X81385Y53316D01*
X81371Y53344D01*
Y53358D01*
X81260Y53538D01*
X81135Y53677D01*
X81010Y53816D01*
X80871Y53927D01*
X80732Y54024D01*
X80607Y54107D01*
X80468Y54163D01*
X80344Y54219D01*
X80121Y54288D01*
X80010Y54316D01*
X79927Y54330D01*
X79858Y54343D01*
D02*
G37*
%LPD*%
D15*
X187622Y60590D02*
X189000Y59213D01*
X187083Y60590D02*
X187622D01*
Y57835D02*
X189000Y59213D01*
X187083Y57835D02*
X187622D01*
X156500Y62213D02*
Y64213D01*
Y62213D02*
X158500D01*
Y61213D02*
Y62213D01*
Y56213D02*
Y61213D01*
X156500Y56213D02*
X158500D01*
X156500Y54213D02*
Y56213D01*
X166500Y54213D02*
Y64213D01*
Y57835D02*
X187083D01*
X166500Y60590D02*
X187083D01*
X166500Y30591D02*
X187083D01*
X166500Y27835D02*
X187083D01*
X156500Y24213D02*
X166500D01*
Y34213D01*
X156500Y24213D02*
Y26213D01*
X158500D01*
Y31213D01*
Y32213D01*
X156500D02*
X158500D01*
X156500D02*
Y34213D01*
X187083Y27835D02*
X187622D01*
X189000Y29213D01*
X187083Y30591D02*
X187622D01*
X189000Y29213D01*
X187622Y40591D02*
X189000Y39213D01*
X187083Y40591D02*
X187622D01*
Y37835D02*
X189000Y39213D01*
X187083Y37835D02*
X187622D01*
X156500Y42213D02*
Y44213D01*
Y42213D02*
X158500D01*
Y41213D02*
Y42213D01*
Y36213D02*
Y41213D01*
X156500Y36213D02*
X158500D01*
X156500Y34213D02*
Y36213D01*
X166500Y34213D02*
Y44213D01*
Y37835D02*
X187083D01*
X166500Y40591D02*
X187083D01*
X166500Y50591D02*
X187083D01*
X166500Y47835D02*
X187083D01*
X166500Y44213D02*
Y54213D01*
X156500Y44213D02*
Y46213D01*
X158500D01*
Y51213D01*
Y52213D01*
X156500D02*
X158500D01*
X156500D02*
Y54213D01*
X187083Y47835D02*
X187622D01*
X189000Y49213D01*
X187083Y50591D02*
X187622D01*
X189000Y49213D01*
X166500Y70591D02*
X187083D01*
X166500Y67835D02*
X187083D01*
X166500Y64213D02*
Y74213D01*
X156500D02*
X166500D01*
X156500Y64213D02*
Y66213D01*
X158500D01*
Y71213D01*
Y72213D01*
X156500D02*
X158500D01*
X156500D02*
Y74213D01*
X187083Y67835D02*
X187622D01*
X189000Y69213D01*
X187083Y70591D02*
X187622D01*
X189000Y69213D01*
X150672Y25699D02*
X152195D01*
X152348Y24328D01*
X152195Y24480D01*
X151738Y24633D01*
X151281D01*
X150824Y24480D01*
X150520Y24176D01*
X150367Y23719D01*
Y23414D01*
X150520Y22957D01*
X150824Y22652D01*
X151281Y22500D01*
X151738D01*
X152195Y22652D01*
X152348Y22805D01*
X152500Y23109D01*
X149651Y25699D02*
X148432Y22500D01*
X147213Y25699D02*
X148432Y22500D01*
X145888Y25699D02*
X146345Y25547D01*
X146650Y25090D01*
X146802Y24328D01*
Y23871D01*
X146650Y23109D01*
X146345Y22652D01*
X145888Y22500D01*
X145583D01*
X145126Y22652D01*
X144822Y23109D01*
X144669Y23871D01*
Y24328D01*
X144822Y25090D01*
X145126Y25547D01*
X145583Y25699D01*
X145888D01*
X150215Y35438D02*
X150367Y35742D01*
X150672Y36047D01*
X150977Y36199D01*
X151586D01*
X151891Y36047D01*
X152195Y35742D01*
X152348Y35438D01*
X152500Y34980D01*
Y34219D01*
X152348Y33762D01*
X152195Y33457D01*
X151891Y33152D01*
X151586Y33000D01*
X150977D01*
X150672Y33152D01*
X150367Y33457D01*
X150215Y33762D01*
Y34219D01*
X150977D02*
X150215D01*
X149484Y36199D02*
Y33000D01*
Y36199D02*
X147351Y33000D01*
Y36199D02*
Y33000D01*
X146467Y36199D02*
Y33000D01*
Y36199D02*
X145401D01*
X144943Y36047D01*
X144639Y35742D01*
X144486Y35438D01*
X144334Y34980D01*
Y34219D01*
X144486Y33762D01*
X144639Y33457D01*
X144943Y33152D01*
X145401Y33000D01*
X146467D01*
X151695Y65699D02*
X150020D01*
X150934Y64481D01*
X150477D01*
X150172Y64328D01*
X150020Y64176D01*
X149867Y63719D01*
Y63414D01*
X150020Y62957D01*
X150324Y62652D01*
X150781Y62500D01*
X151238D01*
X151695Y62652D01*
X151848Y62805D01*
X152000Y63109D01*
X149151Y65699D02*
X147932Y62500D01*
X146713Y65699D02*
X147932Y62500D01*
X145998Y65699D02*
X144322D01*
X145236Y64481D01*
X144779D01*
X144474Y64328D01*
X144322Y64176D01*
X144169Y63719D01*
Y63414D01*
X144322Y62957D01*
X144626Y62652D01*
X145083Y62500D01*
X145540D01*
X145998Y62652D01*
X146150Y62805D01*
X146302Y63109D01*
X152500Y45699D02*
Y42500D01*
Y45699D02*
X151129D01*
X150672Y45547D01*
X150520Y45395D01*
X150367Y45090D01*
Y44785D01*
X150520Y44480D01*
X150672Y44328D01*
X151129Y44176D01*
X152500D01*
X151434D02*
X150367Y42500D01*
X149651Y45699D02*
X147518Y42500D01*
Y45699D02*
X149651Y42500D01*
X146802Y45699D02*
Y42500D01*
Y45699D02*
X145736D01*
X145279Y45547D01*
X144974Y45242D01*
X144822Y44938D01*
X144669Y44480D01*
Y43719D01*
X144822Y43262D01*
X144974Y42957D01*
X145279Y42652D01*
X145736Y42500D01*
X146802D01*
X150934Y55699D02*
Y52500D01*
X152000Y55699D02*
X149867D01*
X149486D02*
X147353Y52500D01*
Y55699D02*
X149486Y52500D01*
X146637Y55699D02*
Y52500D01*
Y55699D02*
X145571D01*
X145114Y55547D01*
X144809Y55242D01*
X144657Y54938D01*
X144504Y54480D01*
Y53719D01*
X144657Y53262D01*
X144809Y52957D01*
X145114Y52652D01*
X145571Y52500D01*
X146637D01*
X149977Y79199D02*
Y76762D01*
X150129Y76305D01*
X150281Y76152D01*
X150586Y76000D01*
X150891D01*
X151195Y76152D01*
X151348Y76305D01*
X151500Y76762D01*
Y77066D01*
X149154Y77523D02*
X147783D01*
X147326Y77676D01*
X147173Y77828D01*
X147021Y78133D01*
Y78590D01*
X147173Y78895D01*
X147326Y79047D01*
X147783Y79199D01*
X149154D01*
Y76000D01*
X146153Y78438D02*
Y78590D01*
X146000Y78895D01*
X145848Y79047D01*
X145543Y79199D01*
X144934D01*
X144629Y79047D01*
X144477Y78895D01*
X144324Y78590D01*
Y78285D01*
X144477Y77981D01*
X144781Y77523D01*
X146305Y76000D01*
X144172D01*
X149606Y0D02*
G03*
X157480Y7874I0J7874D01*
G01*
X0D02*
G03*
X7874Y0I7874J0D01*
G01*
Y98425D02*
G03*
X0Y90551I0J-7874D01*
G01*
X157480D02*
G03*
X149606Y98425I-7874J0D01*
G01*
X0Y7874D02*
Y31496D01*
Y66929D02*
Y90551D01*
X7874Y98425D02*
X149606Y98425D01*
X157480Y7874D02*
Y90551D01*
X7874Y0D02*
X149606D01*
D18*
X27165Y66929D02*
G03*
X27165Y66929I-1575J0D01*
G01*
Y31496D02*
G03*
X27165Y31496I-1575J0D01*
G01*
X0D02*
X25984D01*
Y66929D01*
X0D02*
X25984D01*
M02*
