G04*
G04 #@! TF.GenerationSoftware,Altium Limited,Altium Designer,24.7.2 (38)*
G04*
G04 Layer_Physical_Order=4*
G04 Layer_Color=16711680*
%FSLAX44Y44*%
%MOMM*%
G71*
G04*
G04 #@! TF.SameCoordinates,1A42ED2C-D2DC-4C4E-9266-FAA71F5D9F86*
G04*
G04*
G04 #@! TF.FilePolarity,Positive*
G04*
G01*
G75*
%ADD14C,0.2000*%
%ADD16C,1.0000*%
%ADD63R,1.7000X1.7000*%
%ADD64C,1.7000*%
%ADD65C,0.7500*%
%ADD66O,2.0000X1.2000*%
%ADD67O,2.3000X1.2000*%
%ADD68R,1.7000X1.7000*%
%ADD69C,10.0000*%
%ADD70R,2.5000X2.5000*%
%ADD71C,2.5000*%
%ADD72C,6.0000*%
%ADD73C,0.3000*%
%ADD74C,0.2840*%
%ADD80C,0.4000*%
%ADD81C,0.5000*%
%ADD82C,0.6000*%
G36*
X1090261Y737675D02*
X1093280Y735928D01*
X1096933Y734396D01*
X1101219Y733080D01*
X1106138Y731980D01*
X1111690Y731095D01*
X1124694Y729970D01*
X1132145Y729731D01*
X1140230Y729707D01*
X1090732Y680210D01*
X1090709Y688295D01*
X1089345Y708750D01*
X1088460Y714302D01*
X1087360Y719221D01*
X1086043Y723507D01*
X1084512Y727160D01*
X1082765Y730179D01*
X1080803Y732566D01*
X1087874Y739637D01*
X1090261Y737675D01*
D02*
G37*
G36*
X143121Y675697D02*
X142774Y675074D01*
X142469Y674308D01*
X142204Y673400D01*
X141979Y672347D01*
X141796Y671152D01*
X141552Y668333D01*
X141470Y664940D01*
X138470D01*
X138450Y666708D01*
X138144Y671152D01*
X137961Y672347D01*
X137736Y673400D01*
X137472Y674308D01*
X137166Y675074D01*
X136819Y675697D01*
X136432Y676177D01*
X143508D01*
X143121Y675697D01*
D02*
G37*
G36*
X1080230Y731558D02*
X1081873Y729561D01*
X1083541Y726677D01*
X1085025Y723138D01*
X1086312Y718944D01*
X1087397Y714098D01*
X1088269Y708629D01*
X1088499Y705174D01*
X1085690Y698393D01*
X1083722Y691049D01*
X1082730Y683512D01*
Y675909D01*
X1083722Y668371D01*
X1085690Y661027D01*
X1088600Y654002D01*
X1092401Y647418D01*
X1097030Y641386D01*
X1102406Y636010D01*
X1108438Y631381D01*
X1115022Y627580D01*
X1122047Y624670D01*
X1129390Y622702D01*
X1136230Y621802D01*
X1136878Y620032D01*
X1136981Y619534D01*
X1136179Y618549D01*
X1060515D01*
X1059539Y618355D01*
X1058712Y617802D01*
X843673Y402763D01*
X842500Y403249D01*
Y420500D01*
X809500D01*
Y387500D01*
X826751D01*
X827237Y386327D01*
X814198Y373288D01*
X813645Y372461D01*
X813451Y371485D01*
Y273515D01*
X813645Y272539D01*
X814198Y271712D01*
X826712Y259198D01*
X827539Y258645D01*
X828515Y258451D01*
X829412D01*
X829491Y258418D01*
X829755Y258415D01*
X830194Y258397D01*
X830516Y258365D01*
X830603Y258349D01*
X830653Y258337D01*
X830673Y258328D01*
X830685Y258327D01*
X830719Y258315D01*
X830734Y258316D01*
X831017Y258033D01*
X832304Y257500D01*
X833696D01*
X834983Y258033D01*
X835967Y259017D01*
X836500Y260304D01*
Y261696D01*
X835967Y262983D01*
X834983Y263967D01*
X834115Y264327D01*
Y265673D01*
X834983Y266033D01*
X835967Y267017D01*
X836500Y268304D01*
Y269696D01*
X835967Y270983D01*
X834983Y271967D01*
X833696Y272500D01*
X832304D01*
X831017Y271967D01*
X829598Y272007D01*
X824549Y277056D01*
Y367944D01*
X1064056Y607451D01*
X1131384D01*
X1131467Y606181D01*
X1129390Y605908D01*
X1122047Y603940D01*
X1115022Y601030D01*
X1108438Y597229D01*
X1102406Y592600D01*
X1097030Y587224D01*
X1092401Y581192D01*
X1088600Y574608D01*
X1085690Y567584D01*
X1083722Y560239D01*
X1082730Y552701D01*
Y545098D01*
X1083722Y537561D01*
X1085690Y530216D01*
X1088600Y523192D01*
X1092401Y516608D01*
X1097030Y510576D01*
X1102406Y505200D01*
X1108438Y500571D01*
X1115022Y496770D01*
X1122047Y493860D01*
X1129390Y491892D01*
X1136928Y490900D01*
X1144531D01*
X1152069Y491892D01*
X1159414Y493860D01*
X1166438Y496770D01*
X1173022Y500571D01*
X1179054Y505200D01*
X1184430Y510576D01*
X1189059Y516608D01*
X1192860Y523192D01*
X1195770Y530216D01*
X1196833Y534186D01*
X1198103Y534018D01*
Y390809D01*
X1196983Y390210D01*
X1196816Y390322D01*
X1193813Y391566D01*
X1190625Y392200D01*
X1187375D01*
X1184187Y391566D01*
X1181184Y390322D01*
X1178482Y388516D01*
X1176184Y386218D01*
X1174378Y383516D01*
X1173134Y380513D01*
X1172642Y378039D01*
X1067000D01*
X1066220Y377884D01*
X1065558Y377442D01*
X1065558Y377442D01*
X1050558Y362442D01*
X1050116Y361780D01*
X1049961Y361000D01*
Y319845D01*
X1038155Y308039D01*
X990000D01*
X989220Y307884D01*
X988558Y307442D01*
X980558Y299442D01*
X980116Y298780D01*
X979961Y298000D01*
Y293911D01*
X979033Y292983D01*
X978500Y291696D01*
Y290304D01*
X979033Y289017D01*
X980017Y288033D01*
X981304Y287500D01*
X982696D01*
X983983Y288033D01*
X984967Y289017D01*
X985500Y290304D01*
Y291696D01*
X984967Y292983D01*
X984039Y293911D01*
Y297155D01*
X990845Y303961D01*
X1039000D01*
X1039780Y304116D01*
X1040442Y304558D01*
X1053442Y317558D01*
X1053884Y318220D01*
X1054039Y319000D01*
Y360155D01*
X1067845Y373961D01*
X1172523D01*
X1173134Y370887D01*
X1174378Y367884D01*
X1176184Y365182D01*
X1178365Y363000D01*
X1176184Y360818D01*
X1174378Y358116D01*
X1173134Y355113D01*
X1172500Y351925D01*
Y348675D01*
X1173134Y345487D01*
X1174301Y342670D01*
X1173816Y341432D01*
X1173798Y341400D01*
X1172500D01*
Y308400D01*
X1198103D01*
Y140604D01*
X1196833Y140107D01*
X1192955Y143985D01*
X1188116Y147500D01*
X1182787Y150216D01*
X1177098Y152064D01*
X1171191Y153000D01*
X1165209D01*
X1159302Y152064D01*
X1153613Y150216D01*
X1148284Y147500D01*
X1143445Y143985D01*
X1139215Y139755D01*
X1135699Y134916D01*
X1132984Y129587D01*
X1131136Y123898D01*
X1130200Y117991D01*
Y112009D01*
X1131136Y106102D01*
X1132984Y100413D01*
X1135699Y95084D01*
X1139215Y90245D01*
X1143093Y86367D01*
X1142596Y85097D01*
X659334D01*
X658967Y85983D01*
X657983Y86967D01*
X656696Y87500D01*
X655304D01*
X654017Y86967D01*
X653033Y85983D01*
X652666Y85097D01*
X601853D01*
X600983Y85967D01*
X599696Y86500D01*
X598304D01*
X597017Y85967D01*
X596147Y85097D01*
X547334D01*
X546967Y85983D01*
X545983Y86967D01*
X544696Y87500D01*
X543304D01*
X542017Y86967D01*
X541033Y85983D01*
X540666Y85097D01*
X331730D01*
Y112010D01*
X298730D01*
Y85097D01*
X222334D01*
X221967Y85983D01*
X220983Y86967D01*
X219696Y87500D01*
X218304D01*
X217017Y86967D01*
X216033Y85983D01*
X215666Y85097D01*
X138104D01*
X137607Y86367D01*
X141485Y90245D01*
X145000Y95084D01*
X147716Y100413D01*
X149564Y106102D01*
X150500Y112009D01*
Y117991D01*
X149564Y123898D01*
X147716Y129587D01*
X145000Y134916D01*
X141485Y139755D01*
X137255Y143985D01*
X132416Y147500D01*
X127087Y150216D01*
X121398Y152064D01*
X115491Y153000D01*
X109509D01*
X103602Y152064D01*
X97913Y150216D01*
X92584Y147500D01*
X87745Y143985D01*
X83867Y140107D01*
X82597Y140604D01*
Y468092D01*
X83770Y468578D01*
X109882Y442466D01*
Y405000D01*
X110348Y402659D01*
X111674Y400674D01*
X124674Y387674D01*
X126659Y386348D01*
X129000Y385882D01*
X150000D01*
X152341Y386348D01*
X154326Y387674D01*
X170667Y404015D01*
X172341Y404348D01*
X174326Y405674D01*
X175652Y407659D01*
X176117Y410000D01*
X175652Y412341D01*
X174326Y414326D01*
X172341Y415652D01*
X170000Y416118D01*
X168000D01*
X165659Y415652D01*
X163674Y414326D01*
X147466Y398117D01*
X131534D01*
X126163Y403488D01*
X126973Y404475D01*
X128659Y403348D01*
X131000Y402882D01*
X133341Y403348D01*
X135326Y404674D01*
X136652Y406659D01*
X137118Y409000D01*
Y449000D01*
X136652Y451341D01*
X135326Y453326D01*
X91255Y497397D01*
X90118Y498534D01*
Y516794D01*
X91344Y517122D01*
X91641Y516608D01*
X96270Y510576D01*
X101646Y505200D01*
X107678Y500571D01*
X114262Y496770D01*
X121286Y493860D01*
X128631Y491892D01*
X136168Y490900D01*
X143771D01*
X151309Y491892D01*
X158653Y493860D01*
X165678Y496770D01*
X172262Y500571D01*
X178294Y505200D01*
X183670Y510576D01*
X188299Y516608D01*
X192100Y523192D01*
X195010Y530216D01*
X196978Y537561D01*
X197970Y545098D01*
Y552701D01*
X196978Y560239D01*
X195010Y567584D01*
X192100Y574608D01*
X188299Y581192D01*
X183670Y587224D01*
X178294Y592600D01*
X172262Y597229D01*
X165678Y601030D01*
X158653Y603940D01*
X151309Y605908D01*
X145251Y606705D01*
X145334Y607975D01*
X207420D01*
X413451Y401944D01*
Y295515D01*
X413645Y294539D01*
X414198Y293712D01*
X445712Y262198D01*
X446539Y261645D01*
X447515Y261451D01*
X465412D01*
X465490Y261418D01*
X465755Y261415D01*
X466194Y261397D01*
X466516Y261364D01*
X466603Y261350D01*
X466653Y261338D01*
X466673Y261328D01*
X466685Y261327D01*
X466719Y261315D01*
X466734Y261316D01*
X467017Y261033D01*
X468304Y260500D01*
X469696D01*
X470983Y261033D01*
X471967Y262017D01*
X472500Y263304D01*
Y264696D01*
X471967Y265983D01*
X471779Y266170D01*
X471013Y267000D01*
X471779Y267830D01*
X471967Y268017D01*
X472500Y269304D01*
Y270696D01*
X471967Y271983D01*
X470983Y272967D01*
X469696Y273500D01*
X468304D01*
X467017Y272967D01*
X466734Y272684D01*
X466719Y272685D01*
X466685Y272673D01*
X466673Y272672D01*
X466653Y272663D01*
X466603Y272651D01*
X466534Y272639D01*
X465740Y272584D01*
X465490Y272582D01*
X465412Y272549D01*
X451056D01*
X424549Y299056D01*
Y405485D01*
X424355Y406461D01*
X423802Y407288D01*
X213686Y617404D01*
X212859Y617956D01*
X211884Y618150D01*
X143839D01*
X142760Y619186D01*
X142699Y619385D01*
X143032Y621032D01*
X143277Y621710D01*
X143771D01*
X151309Y622702D01*
X158653Y624670D01*
X165678Y627580D01*
X172262Y631381D01*
X178294Y636010D01*
X183670Y641386D01*
X188299Y647418D01*
X192100Y654002D01*
X195010Y661027D01*
X196978Y668371D01*
X197970Y675909D01*
Y683512D01*
X196978Y691049D01*
X195010Y698393D01*
X192100Y705418D01*
X188299Y712002D01*
X183670Y718034D01*
X178294Y723410D01*
X172262Y728039D01*
X165678Y731840D01*
X158653Y734750D01*
X153568Y736112D01*
X153735Y737382D01*
X339966D01*
X420674Y656674D01*
X422659Y655348D01*
X425000Y654883D01*
X844000D01*
X846341Y655348D01*
X848326Y656674D01*
X932534Y740882D01*
X1070906D01*
X1080230Y731558D01*
D02*
G37*
G36*
X136019Y631831D02*
X154380D01*
X151927Y630987D01*
X149732Y630009D01*
X147796Y628897D01*
X146117Y627651D01*
X144698Y626270D01*
X143536Y624756D01*
X142632Y623108D01*
X141986Y621325D01*
X141599Y619409D01*
X141470Y617359D01*
X138470D01*
X138341Y619409D01*
X137954Y621325D01*
X137308Y623108D01*
X136404Y624756D01*
X135243Y626270D01*
X133822Y627651D01*
X132144Y628897D01*
X130377Y629912D01*
X116942Y629506D01*
X111029Y628927D01*
X105686Y628098D01*
X100914Y627019D01*
X96714Y625690D01*
X93083Y624111D01*
X90024Y622283D01*
X87535Y620205D01*
X80464Y627276D01*
X82543Y629764D01*
X84371Y632823D01*
X85950Y636454D01*
X87279Y640655D01*
X88358Y645426D01*
X89187Y650769D01*
X89766Y656682D01*
X90175Y670220D01*
X90005Y677846D01*
X136019Y631831D01*
D02*
G37*
G36*
X1156038Y632111D02*
X1153276Y631108D01*
X1150804Y629970D01*
X1148624Y628697D01*
X1146734Y627289D01*
X1145135Y625746D01*
X1143826Y624067D01*
X1142808Y622253D01*
X1142082Y620304D01*
X1141645Y618219D01*
X1141500Y616000D01*
X1138500D01*
X1138355Y618228D01*
X1137922Y620329D01*
X1137198Y622304D01*
X1136186Y624152D01*
X1134885Y625873D01*
X1133294Y627467D01*
X1131414Y628935D01*
X1129245Y630276D01*
X1126786Y631491D01*
X1124039Y632578D01*
X1156038Y632111D01*
D02*
G37*
G36*
X141570Y607063D02*
X141870Y605489D01*
X142371Y604044D01*
X143072Y602729D01*
X143973Y601544D01*
X145074Y600487D01*
X146376Y599561D01*
X147877Y598763D01*
X149579Y598095D01*
X151481Y597557D01*
X128459D01*
X130361Y598095D01*
X132063Y598763D01*
X133564Y599561D01*
X134866Y600487D01*
X135967Y601544D01*
X136868Y602729D01*
X137569Y604044D01*
X138069Y605489D01*
X138370Y607063D01*
X138470Y608767D01*
X141470D01*
X141570Y607063D01*
D02*
G37*
G36*
X1141615Y608124D02*
X1141959Y606384D01*
X1142533Y604780D01*
X1143337Y603313D01*
X1144370Y601983D01*
X1145633Y600788D01*
X1147125Y599731D01*
X1148847Y598809D01*
X1150799Y598025D01*
X1152980Y597376D01*
X1127070Y596998D01*
X1129242Y597712D01*
X1131185Y598557D01*
X1132899Y599531D01*
X1134385Y600636D01*
X1135642Y601871D01*
X1136671Y603237D01*
X1137471Y604732D01*
X1138043Y606358D01*
X1138386Y608114D01*
X1138500Y610000D01*
X1141500D01*
X1141615Y608124D01*
D02*
G37*
G36*
X467215Y268250D02*
X467153Y268298D01*
X467068Y268340D01*
X466957Y268377D01*
X466823Y268410D01*
X466664Y268438D01*
X466272Y268477D01*
X465782Y268498D01*
X465500Y268500D01*
Y271500D01*
X465782Y271502D01*
X466664Y271562D01*
X466823Y271590D01*
X466957Y271623D01*
X467068Y271660D01*
X467153Y271702D01*
X467215Y271750D01*
Y268250D01*
D02*
G37*
G36*
X831215Y267250D02*
X831153Y267297D01*
X831068Y267340D01*
X830957Y267377D01*
X830823Y267410D01*
X830664Y267437D01*
X830272Y267477D01*
X829782Y267498D01*
X829500Y267500D01*
Y270500D01*
X829782Y270502D01*
X830664Y270562D01*
X830823Y270590D01*
X830957Y270623D01*
X831068Y270660D01*
X831153Y270702D01*
X831215Y270750D01*
Y267250D01*
D02*
G37*
G36*
X467215Y262250D02*
X467153Y262297D01*
X467068Y262340D01*
X466957Y262377D01*
X466823Y262410D01*
X466664Y262437D01*
X466272Y262477D01*
X465782Y262498D01*
X465500Y262500D01*
Y265500D01*
X465782Y265502D01*
X466664Y265562D01*
X466823Y265590D01*
X466957Y265623D01*
X467068Y265660D01*
X467153Y265702D01*
X467215Y265750D01*
Y262250D01*
D02*
G37*
G36*
X831215Y259250D02*
X831153Y259298D01*
X831068Y259340D01*
X830957Y259377D01*
X830823Y259410D01*
X830664Y259438D01*
X830272Y259478D01*
X829782Y259498D01*
X829500Y259500D01*
Y262500D01*
X829782Y262502D01*
X830664Y262563D01*
X830823Y262590D01*
X830957Y262623D01*
X831068Y262660D01*
X831153Y262703D01*
X831215Y262750D01*
Y259250D01*
D02*
G37*
%LPC*%
G36*
X246640Y696210D02*
X213640D01*
Y663210D01*
X246640D01*
Y696210D01*
D02*
G37*
G36*
X1064520Y694940D02*
X1031520D01*
Y661940D01*
X1064520D01*
Y694940D01*
D02*
G37*
G36*
X891101Y594800D02*
X850101D01*
Y553800D01*
X891101D01*
Y594800D01*
D02*
G37*
G36*
X422090D02*
X381090D01*
Y553800D01*
X422090D01*
Y594800D01*
D02*
G37*
G36*
X230696Y544500D02*
X229304D01*
X228017Y543967D01*
X227033Y542983D01*
X226500Y541696D01*
Y541378D01*
X212515D01*
X211539Y541184D01*
X210712Y540632D01*
X204198Y534117D01*
X203645Y533290D01*
X203451Y532315D01*
Y485515D01*
X203645Y484539D01*
X204198Y483712D01*
X343451Y344459D01*
Y274515D01*
X343645Y273539D01*
X344198Y272712D01*
X414712Y202198D01*
X415539Y201645D01*
X416515Y201451D01*
X466412D01*
X466491Y201418D01*
X466755Y201415D01*
X467194Y201397D01*
X467516Y201364D01*
X467603Y201350D01*
X467653Y201338D01*
X467673Y201328D01*
X467685Y201327D01*
X467719Y201315D01*
X467734Y201316D01*
X468017Y201033D01*
X469304Y200500D01*
X470696D01*
X471983Y201033D01*
X472967Y202017D01*
X473500Y203304D01*
Y204696D01*
X472967Y205983D01*
X472089Y206861D01*
X471972Y207204D01*
X471917Y208369D01*
X472355Y209025D01*
X472549Y210000D01*
X472355Y210975D01*
X471802Y211802D01*
X470975Y212355D01*
X470000Y212549D01*
X468899D01*
X468655Y212650D01*
X468350Y212824D01*
X468281Y212805D01*
X468215Y212832D01*
X467890Y212698D01*
X467837Y212683D01*
X467789Y212680D01*
X467719Y212685D01*
X467685Y212673D01*
X467673Y212672D01*
X467653Y212663D01*
X467603Y212651D01*
X467534Y212639D01*
X466740Y212584D01*
X466491Y212582D01*
X466412Y212549D01*
X420056D01*
X354549Y278056D01*
Y348000D01*
X354355Y348975D01*
X353802Y349802D01*
X214549Y489056D01*
Y528774D01*
X216056Y530280D01*
X224914D01*
X225800Y529394D01*
X225832Y529315D01*
X226018Y529126D01*
X226316Y528802D01*
X226520Y528551D01*
X226571Y528479D01*
X226598Y528436D01*
X226605Y528415D01*
X226613Y528406D01*
X226629Y528373D01*
X226682Y528327D01*
X226713Y528291D01*
X226740Y528243D01*
X226875Y527919D01*
X226941Y527891D01*
X226977Y527828D01*
X227316Y527736D01*
X227559Y527635D01*
X228338Y526856D01*
X229165Y526304D01*
X230140Y526110D01*
X231115Y526304D01*
X231942Y526856D01*
X232495Y527683D01*
X232689Y528659D01*
X232495Y529634D01*
X231942Y530461D01*
X231164Y531240D01*
X231063Y531483D01*
X230970Y531822D01*
X230908Y531858D01*
X230880Y531924D01*
X230556Y532059D01*
X230508Y532086D01*
X230472Y532117D01*
X230425Y532170D01*
X230393Y532186D01*
X230384Y532194D01*
X230363Y532201D01*
X230320Y532228D01*
X230262Y532268D01*
X229662Y532791D01*
X229484Y532967D01*
X229405Y532999D01*
X227772Y534632D01*
X227205Y535010D01*
X227449Y536281D01*
X227829D01*
X228805Y536474D01*
X229632Y537027D01*
X230105Y537500D01*
X230696D01*
X231983Y538033D01*
X232967Y539017D01*
X233500Y540304D01*
Y541696D01*
X232967Y542983D01*
X231983Y543967D01*
X230696Y544500D01*
D02*
G37*
G36*
X1048696Y543500D02*
X1047304D01*
X1046017Y542967D01*
X1045033Y541983D01*
X1044500Y540696D01*
Y540295D01*
X1044489Y540285D01*
X1044473Y540253D01*
X1044465Y540244D01*
X1044458Y540223D01*
X1044431Y540180D01*
X1044391Y540122D01*
X1043867Y539523D01*
X1043692Y539344D01*
X1043660Y539265D01*
X1041944Y537549D01*
X998515D01*
X997539Y537355D01*
X996712Y536802D01*
X855198Y395288D01*
X854645Y394461D01*
X854451Y393485D01*
Y252541D01*
X818198Y216288D01*
X817645Y215461D01*
X817451Y214485D01*
Y205515D01*
X817645Y204539D01*
X818198Y203712D01*
X826712Y195198D01*
X827539Y194645D01*
X828515Y194451D01*
X829412D01*
X829491Y194418D01*
X829755Y194415D01*
X830194Y194397D01*
X830516Y194364D01*
X830603Y194349D01*
X830653Y194338D01*
X830673Y194328D01*
X830685Y194327D01*
X830719Y194315D01*
X830734Y194316D01*
X831017Y194033D01*
X832304Y193500D01*
X833696D01*
X834983Y194033D01*
X835967Y195017D01*
X836500Y196304D01*
Y197696D01*
X835967Y198983D01*
X834983Y199967D01*
X834031Y200361D01*
X833986Y201404D01*
X834018Y201673D01*
X834802Y202198D01*
X835355Y203025D01*
X835549Y204000D01*
X835355Y204975D01*
X834802Y205802D01*
X833975Y206355D01*
X833000Y206549D01*
X831056D01*
X828549Y209056D01*
Y210944D01*
X864802Y247198D01*
X865355Y248025D01*
X865549Y249000D01*
Y389944D01*
X1002056Y526451D01*
X1043122D01*
X1043568Y526004D01*
X1043599Y525926D01*
X1044121Y525390D01*
X1044436Y525034D01*
X1044474Y524986D01*
X1044484Y524971D01*
X1044495Y524951D01*
X1044501Y524947D01*
X1044513Y524929D01*
X1044570Y524892D01*
X1044653Y524826D01*
X1044817Y524557D01*
X1044909Y524535D01*
X1044970Y524463D01*
X1045120Y524452D01*
X1045587Y523986D01*
X1046414Y523433D01*
X1047389Y523239D01*
X1047930D01*
X1048906Y523433D01*
X1049733Y523986D01*
X1050285Y524813D01*
X1050479Y525788D01*
X1050285Y526764D01*
X1049733Y527591D01*
X1048906Y528143D01*
X1048593Y528421D01*
X1048410Y528721D01*
X1048266Y529042D01*
X1048199Y529067D01*
X1048162Y529128D01*
X1047820Y529212D01*
X1047767Y529232D01*
X1047706Y529288D01*
X1047652Y529308D01*
X1047646Y529311D01*
X1047639Y529315D01*
X1047636Y529316D01*
X1047624Y529322D01*
X1047556Y529364D01*
X1047475Y529422D01*
X1047011Y529822D01*
X1046834Y529995D01*
X1046756Y530027D01*
X1046718Y530065D01*
X1046681Y530120D01*
X1046658Y530124D01*
X1045980Y530802D01*
X1045153Y531355D01*
X1044385Y531508D01*
X1044272Y531821D01*
X1044197Y532227D01*
X1044213Y532804D01*
X1044802Y533198D01*
X1047265Y535660D01*
X1047344Y535692D01*
X1047533Y535878D01*
X1047857Y536176D01*
X1048107Y536380D01*
X1048180Y536431D01*
X1048223Y536458D01*
X1048244Y536465D01*
X1048253Y536473D01*
X1048286Y536489D01*
X1048295Y536500D01*
X1048696D01*
X1049983Y537033D01*
X1050967Y538017D01*
X1051500Y539304D01*
Y540696D01*
X1050967Y541983D01*
X1049983Y542967D01*
X1048696Y543500D01*
D02*
G37*
G36*
X678440Y545080D02*
X645440D01*
Y512080D01*
X678440D01*
Y545080D01*
D02*
G37*
G36*
X627640D02*
X594640D01*
Y512080D01*
X627640D01*
Y545080D01*
D02*
G37*
G36*
X510196Y475500D02*
X508804D01*
X507739Y475059D01*
X491000D01*
X491000Y475059D01*
X489829Y474826D01*
X488837Y474163D01*
X474108Y459434D01*
X473445Y458441D01*
X473212Y457271D01*
X473212Y457271D01*
Y391538D01*
X464083Y382408D01*
X463017Y381967D01*
X462033Y380983D01*
X461500Y379696D01*
Y378304D01*
X462033Y377017D01*
X463017Y376033D01*
X464304Y375500D01*
X465696D01*
X466983Y376033D01*
X467967Y377017D01*
X468408Y378083D01*
X478434Y388108D01*
X478434Y388108D01*
X479097Y389100D01*
X479330Y390271D01*
Y456004D01*
X492267Y468941D01*
X507739D01*
X508804Y468500D01*
X510196D01*
X511483Y469033D01*
X512467Y470017D01*
X513000Y471304D01*
Y472696D01*
X512467Y473983D01*
X511483Y474967D01*
X510196Y475500D01*
D02*
G37*
G36*
X778696Y533500D02*
X777304D01*
X776017Y532967D01*
X775033Y531983D01*
X774500Y530696D01*
Y529304D01*
X775033Y528017D01*
X776017Y527033D01*
X777083Y526592D01*
X793346Y510328D01*
Y439910D01*
X792905Y438845D01*
Y437453D01*
X793438Y436166D01*
X794423Y435182D01*
X795709Y434649D01*
X797101D01*
X798388Y435182D01*
X799372Y436166D01*
X799905Y437453D01*
Y438845D01*
X799464Y439910D01*
Y511595D01*
X799464Y511595D01*
X799231Y512765D01*
X798568Y513758D01*
X798568Y513758D01*
X781408Y530917D01*
X780967Y531983D01*
X779983Y532967D01*
X778696Y533500D01*
D02*
G37*
G36*
X708696Y432500D02*
X707304D01*
X706017Y431967D01*
X705033Y430983D01*
X704500Y429696D01*
Y428304D01*
X705033Y427017D01*
X706017Y426033D01*
X707304Y425500D01*
X708696D01*
X709983Y426033D01*
X710967Y427017D01*
X711500Y428304D01*
Y429696D01*
X710967Y430983D01*
X709983Y431967D01*
X708696Y432500D01*
D02*
G37*
G36*
X691696Y531500D02*
X690304D01*
X689017Y530967D01*
X688033Y529983D01*
X687500Y528696D01*
Y527304D01*
X688033Y526017D01*
X689017Y525033D01*
X690083Y524592D01*
X690941Y523733D01*
Y401059D01*
X680980D01*
Y420620D01*
X647980D01*
Y387620D01*
X680980D01*
Y394941D01*
X692239D01*
X693304Y394500D01*
X694696D01*
X695983Y395033D01*
X696967Y396017D01*
X697500Y397304D01*
Y398696D01*
X697059Y399761D01*
Y525000D01*
X696826Y526171D01*
X696163Y527163D01*
X694408Y528917D01*
X693967Y529983D01*
X692983Y530967D01*
X691696Y531500D01*
D02*
G37*
G36*
X913696Y405500D02*
X912304D01*
X911017Y404967D01*
X910033Y403983D01*
X909500Y402696D01*
Y401304D01*
X910033Y400017D01*
X911017Y399033D01*
X912304Y398500D01*
X913696D01*
X914983Y399033D01*
X915967Y400017D01*
X916500Y401304D01*
Y402696D01*
X915967Y403983D01*
X914983Y404967D01*
X913696Y405500D01*
D02*
G37*
G36*
X563696Y587500D02*
X562304D01*
X561017Y586967D01*
X560033Y585983D01*
X559500Y584696D01*
Y583304D01*
X559941Y582239D01*
Y442000D01*
X559941Y442000D01*
X560174Y440830D01*
X560837Y439837D01*
X575941Y424733D01*
Y409761D01*
X575500Y408696D01*
Y407304D01*
X576033Y406017D01*
X577017Y405033D01*
X578304Y404500D01*
X579696D01*
X580761Y404941D01*
X590830D01*
Y387620D01*
X623830D01*
Y420620D01*
X590830D01*
Y411059D01*
X582059D01*
Y426000D01*
X581826Y427170D01*
X581163Y428163D01*
X581163Y428163D01*
X566059Y443267D01*
Y582239D01*
X566500Y583304D01*
Y584696D01*
X565967Y585983D01*
X564983Y586967D01*
X563696Y587500D01*
D02*
G37*
G36*
X461270Y420620D02*
X428270D01*
Y387620D01*
X461270D01*
Y420620D01*
D02*
G37*
G36*
X900696Y381500D02*
X899304D01*
X898017Y380967D01*
X897033Y379983D01*
X896500Y378696D01*
Y377304D01*
X897033Y376017D01*
X898017Y375033D01*
X899304Y374500D01*
X900696D01*
X901983Y375033D01*
X902967Y376017D01*
X903500Y377304D01*
Y378696D01*
X902967Y379983D01*
X901983Y380967D01*
X900696Y381500D01*
D02*
G37*
G36*
X721696Y474500D02*
X720304D01*
X719017Y473967D01*
X718033Y472983D01*
X717500Y471696D01*
Y470304D01*
X717941Y469239D01*
Y426937D01*
X708837Y417833D01*
X708174Y416841D01*
X707941Y415670D01*
X707941Y415670D01*
Y379761D01*
X707500Y378696D01*
Y377304D01*
X708033Y376017D01*
X709017Y375033D01*
X710304Y374500D01*
X711696D01*
X712983Y375033D01*
X713967Y376017D01*
X714500Y377304D01*
Y378696D01*
X714059Y379761D01*
Y414403D01*
X723163Y423507D01*
X723163Y423507D01*
X723826Y424500D01*
X724059Y425670D01*
Y469239D01*
X724500Y470304D01*
Y471696D01*
X723967Y472983D01*
X722983Y473967D01*
X721696Y474500D01*
D02*
G37*
G36*
X564696Y381500D02*
X563304D01*
X562017Y380967D01*
X561033Y379983D01*
X560500Y378696D01*
Y377304D01*
X561033Y376017D01*
X562017Y375033D01*
X563304Y374500D01*
X564696D01*
X565983Y375033D01*
X566967Y376017D01*
X567500Y377304D01*
Y378696D01*
X566967Y379983D01*
X565983Y380967D01*
X564696Y381500D01*
D02*
G37*
G36*
X882696Y372500D02*
X881304D01*
X880017Y371967D01*
X879033Y370983D01*
X878500Y369696D01*
Y368304D01*
X879033Y367017D01*
X880017Y366033D01*
X881304Y365500D01*
X882696D01*
X883983Y366033D01*
X884967Y367017D01*
X885500Y368304D01*
Y369696D01*
X884967Y370983D01*
X883983Y371967D01*
X882696Y372500D01*
D02*
G37*
G36*
X1019696Y363500D02*
X1018304D01*
X1017017Y362967D01*
X1016033Y361983D01*
X1015500Y360696D01*
Y359304D01*
X1016033Y358017D01*
X1017017Y357033D01*
X1018304Y356500D01*
X1019696D01*
X1020983Y357033D01*
X1021967Y358017D01*
X1022500Y359304D01*
Y360696D01*
X1021967Y361983D01*
X1020983Y362967D01*
X1019696Y363500D01*
D02*
G37*
G36*
X291696Y343500D02*
X290304D01*
X289017Y342967D01*
X288660Y342610D01*
X288475Y342541D01*
X288358Y342431D01*
X288271Y342363D01*
X288177Y342302D01*
X288077Y342249D01*
X287966Y342202D01*
X287843Y342162D01*
X287707Y342129D01*
X287557Y342104D01*
X287390Y342088D01*
X287176Y342082D01*
X287081Y342039D01*
X271000D01*
X271000Y342039D01*
X270220Y341884D01*
X269558Y341442D01*
X269558Y341442D01*
X262558Y334442D01*
X262116Y333780D01*
X261961Y333000D01*
Y321845D01*
X256155Y316039D01*
X235000D01*
X235000Y316039D01*
X234220Y315884D01*
X233558Y315442D01*
X225329Y307213D01*
X225232Y307176D01*
X225076Y307029D01*
X224947Y306923D01*
X224823Y306834D01*
X224704Y306761D01*
X224589Y306703D01*
X224477Y306658D01*
X224368Y306624D01*
X224260Y306601D01*
X224149Y306587D01*
X223989Y306582D01*
X223809Y306500D01*
X223304D01*
X222017Y305967D01*
X221033Y304983D01*
X220500Y303696D01*
Y302304D01*
X221033Y301017D01*
X222017Y300033D01*
X223304Y299500D01*
X224696D01*
X225983Y300033D01*
X226967Y301017D01*
X227500Y302304D01*
Y302809D01*
X227582Y302989D01*
X227587Y303149D01*
X227601Y303260D01*
X227624Y303368D01*
X227657Y303477D01*
X227703Y303589D01*
X227761Y303704D01*
X227834Y303823D01*
X227923Y303947D01*
X228029Y304076D01*
X228176Y304232D01*
X228213Y304329D01*
X235845Y311961D01*
X257000D01*
X257780Y312116D01*
X258442Y312558D01*
X265442Y319558D01*
X265442Y319558D01*
X265884Y320220D01*
X266039Y321000D01*
X266039Y321000D01*
Y332155D01*
X271845Y337961D01*
X287081D01*
X287176Y337918D01*
X287390Y337912D01*
X287557Y337896D01*
X287707Y337871D01*
X287843Y337838D01*
X287966Y337798D01*
X288077Y337751D01*
X288177Y337698D01*
X288270Y337638D01*
X288358Y337569D01*
X288475Y337459D01*
X288660Y337390D01*
X289017Y337033D01*
X290304Y336500D01*
X291696D01*
X292983Y337033D01*
X293967Y338017D01*
X294500Y339304D01*
Y340696D01*
X293967Y341983D01*
X292983Y342967D01*
X291696Y343500D01*
D02*
G37*
G36*
X496696Y418500D02*
X495304D01*
X494017Y417967D01*
X493033Y416983D01*
X492500Y415696D01*
Y414304D01*
X493033Y413017D01*
X494017Y412033D01*
X494885Y411673D01*
Y410327D01*
X494017Y409967D01*
X493033Y408983D01*
X492500Y407696D01*
Y406304D01*
X493033Y405017D01*
X494017Y404033D01*
X495304Y403500D01*
X496696D01*
X496905Y403587D01*
X497026Y403569D01*
X497150Y403601D01*
X497201Y403607D01*
X497249Y403607D01*
X497300Y403600D01*
X497359Y403584D01*
X497432Y403555D01*
X497519Y403508D01*
X497622Y403440D01*
X497738Y403347D01*
X497893Y403203D01*
X497989Y403167D01*
X501461Y399695D01*
Y370500D01*
X501616Y369720D01*
X502058Y369058D01*
X528558Y342558D01*
X529220Y342116D01*
X530000Y341961D01*
X530000Y341961D01*
X606155D01*
X610961Y337155D01*
Y333919D01*
X610918Y333824D01*
X610912Y333610D01*
X610896Y333443D01*
X610871Y333293D01*
X610838Y333157D01*
X610798Y333034D01*
X610751Y332923D01*
X610698Y332823D01*
X610638Y332729D01*
X610569Y332642D01*
X610460Y332525D01*
X610390Y332340D01*
X610033Y331983D01*
X609500Y330696D01*
Y329304D01*
X610033Y328017D01*
X611017Y327033D01*
X612304Y326500D01*
X613696D01*
X614983Y327033D01*
X615170Y327221D01*
X616000Y327987D01*
X616830Y327221D01*
X617017Y327033D01*
X618304Y326500D01*
X619696D01*
X620983Y327033D01*
X621967Y328017D01*
X622500Y329304D01*
Y330696D01*
X621967Y331983D01*
X621610Y332340D01*
X621540Y332525D01*
X621431Y332642D01*
X621362Y332729D01*
X621302Y332823D01*
X621249Y332923D01*
X621202Y333034D01*
X621162Y333157D01*
X621129Y333293D01*
X621104Y333443D01*
X621088Y333610D01*
X621082Y333824D01*
X621039Y333919D01*
Y340485D01*
X621039Y340485D01*
X620918Y341097D01*
X621311Y341617D01*
X621869Y342077D01*
X622304Y341897D01*
X623696D01*
X624983Y342430D01*
X625170Y342618D01*
X626000Y343384D01*
X626830Y342618D01*
X627017Y342430D01*
X628304Y341897D01*
X629696D01*
X630983Y342430D01*
X631967Y343415D01*
X632500Y344701D01*
Y346093D01*
X631967Y347380D01*
X631684Y347663D01*
X631626Y347833D01*
X631519Y347956D01*
X631450Y348049D01*
X631390Y348148D01*
X631336Y348255D01*
X631289Y348372D01*
X631249Y348501D01*
X631216Y348641D01*
X631191Y348796D01*
X631176Y348965D01*
X631170Y349180D01*
X631137Y349253D01*
X645845Y363961D01*
X752000D01*
X752780Y364116D01*
X753442Y364558D01*
X775671Y386787D01*
X775768Y386824D01*
X775924Y386971D01*
X776053Y387077D01*
X776177Y387166D01*
X776296Y387239D01*
X776412Y387297D01*
X776523Y387343D01*
X776632Y387376D01*
X776740Y387399D01*
X776851Y387413D01*
X777011Y387418D01*
X777191Y387500D01*
X777696D01*
X778983Y388033D01*
X779967Y389017D01*
X780500Y390304D01*
Y391696D01*
X779967Y392983D01*
X778983Y393967D01*
X778115Y394327D01*
Y395673D01*
X778983Y396033D01*
X779967Y397017D01*
X780500Y398304D01*
Y399696D01*
X779967Y400983D01*
X778983Y401967D01*
X777696Y402500D01*
X776304D01*
X775017Y401967D01*
X774033Y400983D01*
X773500Y399696D01*
Y399191D01*
X773418Y399011D01*
X773413Y398851D01*
X773399Y398740D01*
X773376Y398632D01*
X773343Y398523D01*
X773297Y398411D01*
X773239Y398296D01*
X773166Y398177D01*
X773077Y398053D01*
X772971Y397924D01*
X772824Y397768D01*
X772787Y397671D01*
X748155Y373039D01*
X642000D01*
X641220Y372884D01*
X640558Y372442D01*
X621558Y353442D01*
X621116Y352780D01*
X620961Y352000D01*
Y349316D01*
X620918Y349221D01*
X620912Y349007D01*
X620896Y348841D01*
X620871Y348690D01*
X620838Y348554D01*
X620798Y348431D01*
X620751Y348321D01*
X620698Y348220D01*
X620638Y348127D01*
X620569Y348039D01*
X620459Y347922D01*
X620390Y347737D01*
X620033Y347380D01*
X619500Y346093D01*
Y344701D01*
X619525Y344640D01*
X618449Y343921D01*
X612685Y349685D01*
X612685Y349685D01*
X610927Y351442D01*
X610266Y351884D01*
X609485Y352039D01*
X533330D01*
X511539Y373830D01*
Y401500D01*
X511384Y402280D01*
X510942Y402942D01*
X510942Y402942D01*
X500213Y413671D01*
X500176Y413768D01*
X500029Y413924D01*
X499923Y414053D01*
X499834Y414177D01*
X499761Y414296D01*
X499703Y414412D01*
X499657Y414523D01*
X499624Y414632D01*
X499601Y414740D01*
X499587Y414851D01*
X499582Y415011D01*
X499500Y415191D01*
Y415696D01*
X498967Y416983D01*
X497983Y417967D01*
X496696Y418500D01*
D02*
G37*
G36*
X1019696Y347500D02*
X1018304D01*
X1017017Y346967D01*
X1016033Y345983D01*
X1015500Y344696D01*
Y343304D01*
X1016033Y342017D01*
X1017017Y341033D01*
X1018304Y340500D01*
X1019696D01*
X1020983Y341033D01*
X1021967Y342017D01*
X1022500Y343304D01*
Y344696D01*
X1021967Y345983D01*
X1020983Y346967D01*
X1019696Y347500D01*
D02*
G37*
G36*
X952696Y343500D02*
X951304D01*
X950017Y342967D01*
X949033Y341983D01*
X948500Y340696D01*
Y339304D01*
X949033Y338017D01*
X950017Y337033D01*
X951304Y336500D01*
X952696D01*
X953983Y337033D01*
X954967Y338017D01*
X955500Y339304D01*
Y340696D01*
X954967Y341983D01*
X953983Y342967D01*
X952696Y343500D01*
D02*
G37*
G36*
X411740Y363470D02*
X378740D01*
Y330470D01*
X411740D01*
Y363470D01*
D02*
G37*
G36*
X598696Y334500D02*
X597304D01*
X596017Y333967D01*
X595033Y332983D01*
X594500Y331696D01*
Y330304D01*
X595033Y329017D01*
X596017Y328033D01*
X597304Y327500D01*
X598696D01*
X599983Y328033D01*
X600967Y329017D01*
X601500Y330304D01*
Y331696D01*
X600967Y332983D01*
X599983Y333967D01*
X598696Y334500D01*
D02*
G37*
G36*
X407696Y328500D02*
X406304D01*
X405017Y327967D01*
X404033Y326983D01*
X403500Y325696D01*
Y324304D01*
X404033Y323017D01*
X405017Y322033D01*
X406304Y321500D01*
X407696D01*
X408983Y322033D01*
X409967Y323017D01*
X410500Y324304D01*
Y325696D01*
X409967Y326983D01*
X408983Y327967D01*
X407696Y328500D01*
D02*
G37*
G36*
X397696D02*
X396304D01*
X395017Y327967D01*
X394033Y326983D01*
X393500Y325696D01*
Y324304D01*
X394033Y323017D01*
X395017Y322033D01*
X396304Y321500D01*
X397696D01*
X398983Y322033D01*
X399967Y323017D01*
X400500Y324304D01*
Y325696D01*
X399967Y326983D01*
X398983Y327967D01*
X397696Y328500D01*
D02*
G37*
G36*
X387696D02*
X386304D01*
X385017Y327967D01*
X384033Y326983D01*
X383500Y325696D01*
Y324304D01*
X384033Y323017D01*
X385017Y322033D01*
X386304Y321500D01*
X387696D01*
X388983Y322033D01*
X389967Y323017D01*
X390500Y324304D01*
Y325696D01*
X389967Y326983D01*
X388983Y327967D01*
X387696Y328500D01*
D02*
G37*
G36*
X377696D02*
X376304D01*
X375017Y327967D01*
X374033Y326983D01*
X373500Y325696D01*
Y324304D01*
X374033Y323017D01*
X375017Y322033D01*
X376304Y321500D01*
X377696D01*
X378983Y322033D01*
X379967Y323017D01*
X380500Y324304D01*
Y325696D01*
X379967Y326983D01*
X378983Y327967D01*
X377696Y328500D01*
D02*
G37*
G36*
X1084696Y315500D02*
X1083304D01*
X1082017Y314967D01*
X1081033Y313983D01*
X1080500Y312696D01*
Y311304D01*
X1081033Y310017D01*
X1082017Y309033D01*
X1083304Y308500D01*
X1084696D01*
X1085983Y309033D01*
X1086967Y310017D01*
X1087500Y311304D01*
Y312696D01*
X1086967Y313983D01*
X1085983Y314967D01*
X1084696Y315500D01*
D02*
G37*
G36*
Y305500D02*
X1083304D01*
X1082017Y304967D01*
X1081033Y303983D01*
X1080500Y302696D01*
Y301304D01*
X1081033Y300017D01*
X1082017Y299033D01*
X1083304Y298500D01*
X1084696D01*
X1085983Y299033D01*
X1086967Y300017D01*
X1087500Y301304D01*
Y302696D01*
X1086967Y303983D01*
X1085983Y304967D01*
X1084696Y305500D01*
D02*
G37*
G36*
X709696Y303500D02*
X708304D01*
X707017Y302967D01*
X706033Y301983D01*
X705500Y300696D01*
Y299304D01*
X706033Y298017D01*
X707017Y297033D01*
X708304Y296500D01*
X709696D01*
X710983Y297033D01*
X711967Y298017D01*
X712500Y299304D01*
Y300696D01*
X711967Y301983D01*
X710983Y302967D01*
X709696Y303500D01*
D02*
G37*
G36*
X1045696Y302500D02*
X1044304D01*
X1043017Y301967D01*
X1042033Y300983D01*
X1041500Y299696D01*
Y298304D01*
X1042033Y297017D01*
X1043017Y296033D01*
X1044304Y295500D01*
X1045696D01*
X1046983Y296033D01*
X1047967Y297017D01*
X1048500Y298304D01*
Y299696D01*
X1047967Y300983D01*
X1046983Y301967D01*
X1045696Y302500D01*
D02*
G37*
G36*
X1084696Y295500D02*
X1083304D01*
X1082017Y294967D01*
X1081033Y293983D01*
X1080500Y292696D01*
Y291304D01*
X1081033Y290017D01*
X1082017Y289033D01*
X1083304Y288500D01*
X1084696D01*
X1085983Y289033D01*
X1086967Y290017D01*
X1087500Y291304D01*
Y292696D01*
X1086967Y293983D01*
X1085983Y294967D01*
X1084696Y295500D01*
D02*
G37*
G36*
X771696Y294500D02*
X770304D01*
X769017Y293967D01*
X768033Y292983D01*
X767500Y291696D01*
Y290304D01*
X768033Y289017D01*
X769017Y288033D01*
X770304Y287500D01*
X771696D01*
X772983Y288033D01*
X773967Y289017D01*
X774500Y290304D01*
Y291696D01*
X773967Y292983D01*
X772983Y293967D01*
X771696Y294500D01*
D02*
G37*
G36*
X910696Y291500D02*
X909304D01*
X908017Y290967D01*
X907033Y289983D01*
X906500Y288696D01*
Y287304D01*
X907033Y286017D01*
X908017Y285033D01*
X909304Y284500D01*
X910696D01*
X911983Y285033D01*
X912967Y286017D01*
X913500Y287304D01*
Y288696D01*
X912967Y289983D01*
X911983Y290967D01*
X910696Y291500D01*
D02*
G37*
G36*
X1084696Y285500D02*
X1083304D01*
X1082017Y284967D01*
X1081033Y283983D01*
X1080500Y282696D01*
Y281304D01*
X1081033Y280017D01*
X1082017Y279033D01*
X1083304Y278500D01*
X1084696D01*
X1085983Y279033D01*
X1086967Y280017D01*
X1087500Y281304D01*
Y282696D01*
X1086967Y283983D01*
X1085983Y284967D01*
X1084696Y285500D01*
D02*
G37*
G36*
X944213Y264844D02*
X942821D01*
X941535Y264311D01*
X940550Y263326D01*
X940017Y262040D01*
Y261039D01*
X929919D01*
X929824Y261082D01*
X929610Y261088D01*
X929443Y261104D01*
X929293Y261129D01*
X929157Y261162D01*
X929034Y261202D01*
X928923Y261249D01*
X928823Y261302D01*
X928729Y261362D01*
X928642Y261431D01*
X928525Y261541D01*
X928340Y261610D01*
X927983Y261967D01*
X926696Y262500D01*
X925304D01*
X924017Y261967D01*
X923033Y260983D01*
X922500Y259696D01*
Y258304D01*
X923033Y257017D01*
X924017Y256033D01*
X925304Y255500D01*
X926696D01*
X927983Y256033D01*
X928340Y256390D01*
X928525Y256460D01*
X928642Y256569D01*
X928729Y256637D01*
X928823Y256698D01*
X928923Y256751D01*
X929034Y256798D01*
X929157Y256838D01*
X929293Y256871D01*
X929443Y256896D01*
X929610Y256912D01*
X929824Y256918D01*
X929919Y256961D01*
X941173D01*
X941954Y257116D01*
X942615Y257558D01*
X942901Y257844D01*
X944213D01*
X945500Y258377D01*
X946484Y259361D01*
X947017Y260648D01*
Y262040D01*
X946484Y263326D01*
X945500Y264311D01*
X944213Y264844D01*
D02*
G37*
G36*
X740696Y267500D02*
X739304D01*
X738017Y266967D01*
X737033Y265983D01*
X736500Y264696D01*
Y263304D01*
X737033Y262017D01*
X738017Y261033D01*
X739304Y260500D01*
X740696D01*
X741983Y261033D01*
X742967Y262017D01*
X743500Y263304D01*
Y264696D01*
X742967Y265983D01*
X741983Y266967D01*
X740696Y267500D01*
D02*
G37*
G36*
X1003696Y264500D02*
X1002304D01*
X1001017Y263967D01*
X1000033Y262983D01*
X999500Y261696D01*
Y260304D01*
X1000033Y259017D01*
X1001017Y258033D01*
X1002304Y257500D01*
X1003696D01*
X1004983Y258033D01*
X1005967Y259017D01*
X1006500Y260304D01*
Y261696D01*
X1005967Y262983D01*
X1004983Y263967D01*
X1003696Y264500D01*
D02*
G37*
G36*
X350696Y256500D02*
X349304D01*
X348017Y255967D01*
X347033Y254983D01*
X346500Y253696D01*
Y252304D01*
X347033Y251017D01*
X348017Y250033D01*
X349304Y249500D01*
X350696D01*
X351983Y250033D01*
X352967Y251017D01*
X353500Y252304D01*
Y253696D01*
X352967Y254983D01*
X351983Y255967D01*
X350696Y256500D01*
D02*
G37*
G36*
X340696D02*
X339304D01*
X338017Y255967D01*
X337033Y254983D01*
X336500Y253696D01*
Y252304D01*
X337033Y251017D01*
X338017Y250033D01*
X339304Y249500D01*
X340696D01*
X341983Y250033D01*
X342967Y251017D01*
X343500Y252304D01*
Y253696D01*
X342967Y254983D01*
X341983Y255967D01*
X340696Y256500D01*
D02*
G37*
G36*
X1165535Y256691D02*
X1163645D01*
X1161899Y255968D01*
X1160563Y254632D01*
X1159840Y252886D01*
Y250996D01*
X1160563Y249251D01*
X1161899Y247914D01*
X1163645Y247191D01*
X1165535D01*
X1167280Y247914D01*
X1168617Y249251D01*
X1169340Y250996D01*
Y252886D01*
X1168617Y254632D01*
X1167280Y255968D01*
X1165535Y256691D01*
D02*
G37*
G36*
X216696Y253500D02*
X215304D01*
X214017Y252967D01*
X213033Y251983D01*
X212500Y250696D01*
Y249304D01*
X213033Y248017D01*
X214017Y247033D01*
X215304Y246500D01*
X216696D01*
X217983Y247033D01*
X218967Y248017D01*
X219500Y249304D01*
Y250696D01*
X218967Y251983D01*
X217983Y252967D01*
X216696Y253500D01*
D02*
G37*
G36*
X206696D02*
X205304D01*
X204017Y252967D01*
X203033Y251983D01*
X202500Y250696D01*
Y249304D01*
X203033Y248017D01*
X204017Y247033D01*
X205304Y246500D01*
X206696D01*
X207983Y247033D01*
X208967Y248017D01*
X209500Y249304D01*
Y250696D01*
X208967Y251983D01*
X207983Y252967D01*
X206696Y253500D01*
D02*
G37*
G36*
X531696Y252500D02*
X530304D01*
X529017Y251967D01*
X528033Y250983D01*
X527500Y249696D01*
Y248304D01*
X528033Y247017D01*
X529017Y246033D01*
X530304Y245500D01*
X531696D01*
X532983Y246033D01*
X533967Y247017D01*
X534500Y248304D01*
Y249696D01*
X533967Y250983D01*
X532983Y251967D01*
X531696Y252500D01*
D02*
G37*
G36*
X350696Y246500D02*
X349304D01*
X348017Y245967D01*
X347033Y244983D01*
X346500Y243696D01*
Y242304D01*
X347033Y241017D01*
X348017Y240033D01*
X349304Y239500D01*
X350696D01*
X351983Y240033D01*
X352967Y241017D01*
X353500Y242304D01*
Y243696D01*
X352967Y244983D01*
X351983Y245967D01*
X350696Y246500D01*
D02*
G37*
G36*
X340696D02*
X339304D01*
X338017Y245967D01*
X337033Y244983D01*
X336500Y243696D01*
Y242304D01*
X337033Y241017D01*
X338017Y240033D01*
X339304Y239500D01*
X340696D01*
X341983Y240033D01*
X342967Y241017D01*
X343500Y242304D01*
Y243696D01*
X342967Y244983D01*
X341983Y245967D01*
X340696Y246500D01*
D02*
G37*
G36*
X216696Y243500D02*
X215304D01*
X214017Y242967D01*
X213033Y241983D01*
X212500Y240696D01*
Y239304D01*
X213033Y238017D01*
X214017Y237033D01*
X215304Y236500D01*
X216696D01*
X217983Y237033D01*
X218967Y238017D01*
X219500Y239304D01*
Y240696D01*
X218967Y241983D01*
X217983Y242967D01*
X216696Y243500D01*
D02*
G37*
G36*
X206696D02*
X205304D01*
X204017Y242967D01*
X203033Y241983D01*
X202500Y240696D01*
Y239304D01*
X203033Y238017D01*
X204017Y237033D01*
X205304Y236500D01*
X206696D01*
X207983Y237033D01*
X208967Y238017D01*
X209500Y239304D01*
Y240696D01*
X208967Y241983D01*
X207983Y242967D01*
X206696Y243500D01*
D02*
G37*
G36*
X565696Y235500D02*
X564304D01*
X563017Y234967D01*
X562033Y233983D01*
X561500Y232696D01*
Y231304D01*
X562033Y230017D01*
X563017Y229033D01*
X564304Y228500D01*
X565696D01*
X566983Y229033D01*
X567340Y229390D01*
X567525Y229459D01*
X567642Y229569D01*
X567729Y229638D01*
X567823Y229698D01*
X567923Y229751D01*
X568034Y229798D01*
X568157Y229838D01*
X568293Y229871D01*
X568443Y229896D01*
X568610Y229912D01*
X568824Y229918D01*
X568919Y229961D01*
X633155D01*
X646787Y216329D01*
X646824Y216232D01*
X646971Y216076D01*
X647077Y215947D01*
X647166Y215823D01*
X647239Y215704D01*
X647297Y215588D01*
X647343Y215477D01*
X647376Y215368D01*
X647399Y215260D01*
X647413Y215149D01*
X647418Y214989D01*
X647500Y214809D01*
Y214304D01*
X648033Y213017D01*
X649017Y212033D01*
X650304Y211500D01*
X651696D01*
X652983Y212033D01*
X653967Y213017D01*
X654327Y213885D01*
X655673D01*
X656033Y213017D01*
X657017Y212033D01*
X658304Y211500D01*
X659696D01*
X660983Y212033D01*
X661967Y213017D01*
X662500Y214304D01*
Y214809D01*
X662582Y214989D01*
X662587Y215149D01*
X662601Y215260D01*
X662624Y215368D01*
X662657Y215477D01*
X662703Y215588D01*
X662761Y215704D01*
X662834Y215823D01*
X662923Y215947D01*
X663029Y216076D01*
X663176Y216232D01*
X663213Y216329D01*
X674845Y227961D01*
X705081D01*
X705176Y227918D01*
X705390Y227912D01*
X705557Y227896D01*
X705707Y227871D01*
X705843Y227838D01*
X705966Y227798D01*
X706077Y227751D01*
X706177Y227698D01*
X706271Y227638D01*
X706358Y227569D01*
X706475Y227460D01*
X706660Y227390D01*
X707017Y227033D01*
X708304Y226500D01*
X709696D01*
X710983Y227033D01*
X711967Y228017D01*
X712500Y229304D01*
Y230696D01*
X711967Y231983D01*
X710983Y232967D01*
X709696Y233500D01*
X708304D01*
X707017Y232967D01*
X706660Y232610D01*
X706475Y232540D01*
X706358Y232431D01*
X706271Y232362D01*
X706177Y232302D01*
X706077Y232249D01*
X705966Y232202D01*
X705843Y232162D01*
X705707Y232129D01*
X705557Y232104D01*
X705390Y232088D01*
X705176Y232082D01*
X705081Y232039D01*
X674000D01*
X673220Y231884D01*
X672558Y231442D01*
X672558Y231442D01*
X660329Y219213D01*
X660232Y219176D01*
X660076Y219029D01*
X659947Y218923D01*
X659823Y218834D01*
X659704Y218761D01*
X659588Y218703D01*
X659477Y218657D01*
X659368Y218624D01*
X659260Y218601D01*
X659149Y218587D01*
X658989Y218582D01*
X658809Y218500D01*
X658304D01*
X657017Y217967D01*
X656033Y216983D01*
X655673Y216115D01*
X654327D01*
X653967Y216983D01*
X652983Y217967D01*
X651696Y218500D01*
X651191D01*
X651011Y218582D01*
X650851Y218587D01*
X650740Y218601D01*
X650632Y218624D01*
X650523Y218657D01*
X650412Y218703D01*
X650296Y218761D01*
X650177Y218834D01*
X650053Y218923D01*
X649924Y219029D01*
X649768Y219176D01*
X649671Y219213D01*
X635442Y233442D01*
X634780Y233884D01*
X634000Y234039D01*
X568919D01*
X568824Y234082D01*
X568610Y234088D01*
X568443Y234104D01*
X568293Y234129D01*
X568157Y234162D01*
X568034Y234202D01*
X567923Y234249D01*
X567823Y234302D01*
X567729Y234362D01*
X567642Y234431D01*
X567525Y234541D01*
X567340Y234610D01*
X566983Y234967D01*
X565696Y235500D01*
D02*
G37*
G36*
X331730Y259330D02*
X298730D01*
Y226330D01*
X331730D01*
Y259330D01*
D02*
G37*
G36*
X990696Y262500D02*
X989304D01*
X988017Y261967D01*
X987033Y260983D01*
X986500Y259696D01*
Y258304D01*
X987033Y257017D01*
X987362Y256689D01*
X987367Y256645D01*
X987367Y256630D01*
X987370Y256624D01*
X987372Y256603D01*
X987394Y256565D01*
X987396Y256558D01*
X987412Y256505D01*
X987433Y256410D01*
X987451Y256299D01*
X987495Y255676D01*
X987498Y255430D01*
X987533Y255348D01*
Y222662D01*
X987498Y222584D01*
X987486Y222085D01*
X987452Y221711D01*
X987433Y221590D01*
X987412Y221495D01*
X987396Y221441D01*
X987393Y221434D01*
X987372Y221397D01*
X987370Y221376D01*
X987367Y221369D01*
X987367Y221355D01*
X987362Y221311D01*
X987033Y220983D01*
X986500Y219696D01*
Y218304D01*
X987033Y217017D01*
X988017Y216033D01*
X989304Y215500D01*
X990696D01*
X991983Y216033D01*
X992967Y217017D01*
X993500Y218304D01*
Y219696D01*
X992967Y220983D01*
X992638Y221311D01*
X992633Y221355D01*
X992633Y221369D01*
X992630Y221376D01*
X992628Y221397D01*
X992606Y221434D01*
X992604Y221442D01*
X992588Y221495D01*
X992567Y221590D01*
X992549Y221701D01*
X992505Y222324D01*
X992502Y222570D01*
X992467Y222652D01*
Y255338D01*
X992502Y255416D01*
X992514Y255915D01*
X992548Y256289D01*
X992567Y256410D01*
X992588Y256505D01*
X992604Y256558D01*
X992607Y256565D01*
X992628Y256603D01*
X992630Y256624D01*
X992633Y256630D01*
X992633Y256645D01*
X992638Y256689D01*
X992967Y257017D01*
X993500Y258304D01*
Y259696D01*
X992967Y260983D01*
X991983Y261967D01*
X990696Y262500D01*
D02*
G37*
G36*
X525696Y213500D02*
X524304D01*
X523017Y212967D01*
X522033Y211983D01*
X521500Y210696D01*
Y209304D01*
X522033Y208017D01*
X523017Y207033D01*
X524304Y206500D01*
X525696D01*
X526983Y207033D01*
X527967Y208017D01*
X528500Y209304D01*
Y210696D01*
X527967Y211983D01*
X526983Y212967D01*
X525696Y213500D01*
D02*
G37*
G36*
X663696Y197500D02*
X662304D01*
X661017Y196967D01*
X660660Y196610D01*
X660475Y196541D01*
X660358Y196431D01*
X660271Y196362D01*
X660177Y196302D01*
X660077Y196249D01*
X659966Y196202D01*
X659843Y196162D01*
X659707Y196129D01*
X659557Y196104D01*
X659390Y196088D01*
X659176Y196082D01*
X659081Y196039D01*
X558364D01*
X558364Y196039D01*
X557584Y195884D01*
X556922Y195442D01*
X556922Y195442D01*
X555670Y194190D01*
X554172Y194488D01*
X553967Y194983D01*
X552983Y195967D01*
X551696Y196500D01*
X550304D01*
X549017Y195967D01*
X548033Y194983D01*
X547500Y193696D01*
Y192304D01*
X547912Y191309D01*
X547352Y190039D01*
X494919D01*
X494824Y190082D01*
X494610Y190088D01*
X494443Y190104D01*
X494293Y190129D01*
X494157Y190162D01*
X494034Y190202D01*
X493923Y190249D01*
X493823Y190302D01*
X493730Y190362D01*
X493642Y190431D01*
X493525Y190541D01*
X493340Y190610D01*
X492983Y190967D01*
X491696Y191500D01*
X490304D01*
X489017Y190967D01*
X488033Y189983D01*
X487500Y188696D01*
Y187304D01*
X488033Y186017D01*
X489017Y185033D01*
X490304Y184500D01*
X491696D01*
X492983Y185033D01*
X493340Y185390D01*
X493525Y185459D01*
X493642Y185569D01*
X493729Y185637D01*
X493823Y185698D01*
X493923Y185751D01*
X494034Y185798D01*
X494157Y185838D01*
X494293Y185871D01*
X494443Y185896D01*
X494610Y185912D01*
X494824Y185918D01*
X494919Y185961D01*
X540350D01*
X540741Y184691D01*
X540033Y183983D01*
X539500Y182696D01*
Y181304D01*
X540033Y180017D01*
X540390Y179660D01*
X540459Y179475D01*
X540569Y179358D01*
X540638Y179271D01*
X540698Y179177D01*
X540751Y179077D01*
X540798Y178966D01*
X540838Y178843D01*
X540871Y178707D01*
X540896Y178557D01*
X540912Y178390D01*
X540918Y178176D01*
X540961Y178081D01*
Y167000D01*
X541116Y166220D01*
X541558Y165558D01*
X577787Y129329D01*
X577824Y129232D01*
X577971Y129076D01*
X578077Y128947D01*
X578166Y128823D01*
X578239Y128703D01*
X578297Y128588D01*
X578343Y128477D01*
X578376Y128368D01*
X578400Y128260D01*
X578413Y128149D01*
X578418Y127989D01*
X578500Y127809D01*
Y127304D01*
X579033Y126017D01*
X580017Y125033D01*
X581304Y124500D01*
X582696D01*
X583983Y125033D01*
X584967Y126017D01*
X585500Y127304D01*
Y128696D01*
X584967Y129983D01*
X583983Y130967D01*
X582696Y131500D01*
X582191D01*
X582011Y131582D01*
X581851Y131587D01*
X581740Y131601D01*
X581632Y131624D01*
X581523Y131657D01*
X581412Y131703D01*
X581296Y131761D01*
X581177Y131834D01*
X581053Y131923D01*
X580924Y132029D01*
X580768Y132176D01*
X580671Y132213D01*
X545039Y167845D01*
Y178081D01*
X545082Y178176D01*
X545088Y178390D01*
X545104Y178557D01*
X545129Y178707D01*
X545162Y178843D01*
X545202Y178966D01*
X545249Y179077D01*
X545302Y179177D01*
X545362Y179270D01*
X545431Y179358D01*
X545541Y179475D01*
X545610Y179660D01*
X545967Y180017D01*
X546500Y181304D01*
Y182696D01*
X545967Y183983D01*
X545259Y184691D01*
X545650Y185961D01*
X552364D01*
X553144Y186116D01*
X553806Y186558D01*
X559209Y191961D01*
X647224D01*
X647750Y190691D01*
X647526Y190467D01*
X646993Y189180D01*
Y187788D01*
X647526Y186502D01*
X648511Y185517D01*
X649797Y184984D01*
X651189D01*
X652476Y185517D01*
X652833Y185874D01*
X653018Y185944D01*
X653135Y186053D01*
X653223Y186122D01*
X653316Y186182D01*
X653417Y186235D01*
X653528Y186282D01*
X653650Y186322D01*
X653786Y186355D01*
X653937Y186380D01*
X654103Y186396D01*
X654317Y186402D01*
X654412Y186445D01*
X654671D01*
X661961Y179155D01*
Y159000D01*
X662116Y158220D01*
X662558Y157558D01*
X691787Y128329D01*
X691824Y128232D01*
X691971Y128076D01*
X692077Y127947D01*
X692166Y127823D01*
X692239Y127704D01*
X692297Y127588D01*
X692343Y127477D01*
X692376Y127368D01*
X692400Y127260D01*
X692413Y127149D01*
X692418Y126989D01*
X692500Y126809D01*
Y126304D01*
X693033Y125017D01*
X694017Y124033D01*
X695304Y123500D01*
X696696D01*
X697983Y124033D01*
X698967Y125017D01*
X699500Y126304D01*
Y127696D01*
X698967Y128983D01*
X697983Y129967D01*
X696696Y130500D01*
X696191D01*
X696011Y130582D01*
X695851Y130587D01*
X695740Y130601D01*
X695632Y130624D01*
X695523Y130657D01*
X695412Y130703D01*
X695296Y130761D01*
X695177Y130834D01*
X695053Y130923D01*
X694924Y131029D01*
X694768Y131176D01*
X694671Y131213D01*
X666039Y159845D01*
Y180000D01*
X665884Y180780D01*
X665442Y181442D01*
X665442Y181442D01*
X656958Y189926D01*
X656296Y190368D01*
X655516Y190523D01*
X654674D01*
X654389Y190974D01*
X654380Y191037D01*
X654925Y191961D01*
X659081D01*
X659176Y191918D01*
X659390Y191912D01*
X659557Y191896D01*
X659707Y191871D01*
X659843Y191838D01*
X659966Y191798D01*
X660077Y191751D01*
X660177Y191698D01*
X660270Y191638D01*
X660358Y191569D01*
X660475Y191459D01*
X660660Y191390D01*
X661017Y191033D01*
X662304Y190500D01*
X663696D01*
X664983Y191033D01*
X665967Y192017D01*
X666500Y193304D01*
Y194696D01*
X665967Y195983D01*
X664983Y196967D01*
X663696Y197500D01*
D02*
G37*
G36*
X794696Y201500D02*
X793304D01*
X792017Y200967D01*
X791033Y199983D01*
X790500Y198696D01*
Y197304D01*
X791033Y196017D01*
X792017Y195033D01*
X793304Y194500D01*
X794696D01*
X795983Y195033D01*
X796967Y196017D01*
X797500Y197304D01*
Y198696D01*
X796967Y199983D01*
X795983Y200967D01*
X794696Y201500D01*
D02*
G37*
G36*
X211696Y200500D02*
X210304D01*
X209017Y199967D01*
X208033Y198983D01*
X207500Y197696D01*
Y196304D01*
X208033Y195017D01*
X209017Y194033D01*
X210304Y193500D01*
X211696D01*
X212983Y194033D01*
X213967Y195017D01*
X214500Y196304D01*
Y197696D01*
X213967Y198983D01*
X212983Y199967D01*
X211696Y200500D01*
D02*
G37*
G36*
X201696D02*
X200304D01*
X199017Y199967D01*
X198033Y198983D01*
X197500Y197696D01*
Y196304D01*
X198033Y195017D01*
X199017Y194033D01*
X200304Y193500D01*
X201696D01*
X202983Y194033D01*
X203967Y195017D01*
X204500Y196304D01*
Y197696D01*
X203967Y198983D01*
X202983Y199967D01*
X201696Y200500D01*
D02*
G37*
G36*
X1165535Y198891D02*
X1163645D01*
X1161899Y198168D01*
X1160563Y196832D01*
X1159840Y195086D01*
Y193196D01*
X1160563Y191450D01*
X1161899Y190114D01*
X1163645Y189391D01*
X1165535D01*
X1167280Y190114D01*
X1168617Y191450D01*
X1169340Y193196D01*
Y195086D01*
X1168617Y196832D01*
X1167280Y198168D01*
X1165535Y198891D01*
D02*
G37*
G36*
X1019696Y296500D02*
X1018304D01*
X1017017Y295967D01*
X1016033Y294983D01*
X1015500Y293696D01*
Y292304D01*
X1016033Y291017D01*
X1016390Y290660D01*
X1016460Y290475D01*
X1016569Y290358D01*
X1016637Y290271D01*
X1016698Y290177D01*
X1016751Y290077D01*
X1016798Y289966D01*
X1016838Y289843D01*
X1016871Y289707D01*
X1016896Y289557D01*
X1016912Y289390D01*
X1016918Y289176D01*
X1016961Y289081D01*
Y200140D01*
X1017116Y199359D01*
X1017558Y198698D01*
X1027313Y188943D01*
X1027350Y188845D01*
X1027497Y188689D01*
X1027603Y188561D01*
X1027692Y188437D01*
X1027765Y188317D01*
X1027823Y188202D01*
X1027868Y188091D01*
X1027902Y187981D01*
X1027925Y187873D01*
X1027939Y187763D01*
X1027944Y187602D01*
X1028026Y187423D01*
Y186917D01*
X1028559Y185631D01*
X1029543Y184646D01*
X1030830Y184114D01*
X1032222D01*
X1033509Y184646D01*
X1034493Y185631D01*
X1035026Y186917D01*
Y188310D01*
X1034493Y189596D01*
X1033509Y190581D01*
X1032222Y191114D01*
X1031717D01*
X1031537Y191195D01*
X1031377Y191201D01*
X1031266Y191214D01*
X1031158Y191237D01*
X1031049Y191271D01*
X1030938Y191316D01*
X1030822Y191375D01*
X1030703Y191447D01*
X1030579Y191536D01*
X1030450Y191643D01*
X1030294Y191790D01*
X1030197Y191827D01*
X1021039Y200984D01*
Y289081D01*
X1021082Y289176D01*
X1021088Y289390D01*
X1021104Y289557D01*
X1021129Y289707D01*
X1021162Y289843D01*
X1021202Y289966D01*
X1021249Y290077D01*
X1021302Y290177D01*
X1021362Y290271D01*
X1021431Y290358D01*
X1021541Y290475D01*
X1021610Y290660D01*
X1021967Y291017D01*
X1022500Y292304D01*
Y293696D01*
X1021967Y294983D01*
X1020983Y295967D01*
X1019696Y296500D01*
D02*
G37*
G36*
X211696Y190500D02*
X210304D01*
X209017Y189967D01*
X208033Y188983D01*
X207500Y187696D01*
Y186304D01*
X208033Y185017D01*
X209017Y184033D01*
X210304Y183500D01*
X211696D01*
X212983Y184033D01*
X213967Y185017D01*
X214500Y186304D01*
Y187696D01*
X213967Y188983D01*
X212983Y189967D01*
X211696Y190500D01*
D02*
G37*
G36*
X201696D02*
X200304D01*
X199017Y189967D01*
X198033Y188983D01*
X197500Y187696D01*
Y186304D01*
X198033Y185017D01*
X199017Y184033D01*
X200304Y183500D01*
X201696D01*
X202983Y184033D01*
X203967Y185017D01*
X204500Y186304D01*
Y187696D01*
X203967Y188983D01*
X202983Y189967D01*
X201696Y190500D01*
D02*
G37*
G36*
X576696Y186500D02*
X575304D01*
X574017Y185967D01*
X573033Y184983D01*
X572500Y183696D01*
Y182304D01*
X573033Y181017D01*
X574017Y180033D01*
X575304Y179500D01*
X576696D01*
X577983Y180033D01*
X578967Y181017D01*
X579500Y182304D01*
Y183696D01*
X578967Y184983D01*
X577983Y185967D01*
X576696Y186500D01*
D02*
G37*
G36*
X697696Y180500D02*
X696304D01*
X695017Y179967D01*
X694033Y178983D01*
X693500Y177696D01*
Y176304D01*
X694033Y175017D01*
X695017Y174033D01*
X696304Y173500D01*
X697696D01*
X698983Y174033D01*
X699967Y175017D01*
X700500Y176304D01*
Y177696D01*
X699967Y178983D01*
X698983Y179967D01*
X697696Y180500D01*
D02*
G37*
G36*
X350696Y180500D02*
X349304D01*
X348017Y179967D01*
X347033Y178983D01*
X346500Y177696D01*
Y176304D01*
X347033Y175017D01*
X348017Y174033D01*
X349304Y173500D01*
X350696D01*
X351983Y174033D01*
X352967Y175017D01*
X353500Y176304D01*
Y177696D01*
X352967Y178983D01*
X351983Y179967D01*
X350696Y180500D01*
D02*
G37*
G36*
X340696D02*
X339304D01*
X338017Y179967D01*
X337033Y178983D01*
X336500Y177696D01*
Y176304D01*
X337033Y175017D01*
X338017Y174033D01*
X339304Y173500D01*
X340696D01*
X341983Y174033D01*
X342967Y175017D01*
X343500Y176304D01*
Y177696D01*
X342967Y178983D01*
X341983Y179967D01*
X340696Y180500D01*
D02*
G37*
G36*
X350696Y170500D02*
X349304D01*
X348017Y169967D01*
X347033Y168983D01*
X346500Y167696D01*
Y166304D01*
X347033Y165017D01*
X348017Y164033D01*
X349304Y163500D01*
X350696D01*
X351983Y164033D01*
X352967Y165017D01*
X353500Y166304D01*
Y167696D01*
X352967Y168983D01*
X351983Y169967D01*
X350696Y170500D01*
D02*
G37*
G36*
X340696D02*
X339304D01*
X338017Y169967D01*
X337033Y168983D01*
X336500Y167696D01*
Y166304D01*
X337033Y165017D01*
X338017Y164033D01*
X339304Y163500D01*
X340696D01*
X341983Y164033D01*
X342967Y165017D01*
X343500Y166304D01*
Y167696D01*
X342967Y168983D01*
X341983Y169967D01*
X340696Y170500D01*
D02*
G37*
G36*
X331730Y189480D02*
X298730D01*
Y156480D01*
X331730D01*
Y189480D01*
D02*
G37*
G36*
X967696Y161500D02*
X966304D01*
X965017Y160967D01*
X964033Y159983D01*
X963500Y158696D01*
Y157304D01*
X964033Y156017D01*
X965017Y155033D01*
X966304Y154500D01*
X967696D01*
X968983Y155033D01*
X969967Y156017D01*
X970500Y157304D01*
Y158696D01*
X969967Y159983D01*
X968983Y160967D01*
X967696Y161500D01*
D02*
G37*
G36*
X441315Y156460D02*
X438065D01*
X434877Y155826D01*
X431874Y154582D01*
X429172Y152776D01*
X426990Y150595D01*
X424808Y152776D01*
X422106Y154582D01*
X419103Y155826D01*
X415915Y156460D01*
X412665D01*
X409477Y155826D01*
X406660Y154659D01*
X405422Y155145D01*
X405390Y155162D01*
Y156460D01*
X372390D01*
Y123460D01*
X405390D01*
Y124758D01*
X405422Y124775D01*
X406660Y125261D01*
X409477Y124094D01*
X412665Y123460D01*
X415915D01*
X419103Y124094D01*
X422106Y125338D01*
X424808Y127144D01*
X426990Y129326D01*
X429172Y127144D01*
X431874Y125338D01*
X434877Y124094D01*
X438065Y123460D01*
X441315D01*
X444503Y124094D01*
X447506Y125338D01*
X450208Y127144D01*
X452506Y129442D01*
X454312Y132144D01*
X455556Y135147D01*
X456190Y138335D01*
Y141585D01*
X455556Y144773D01*
X454312Y147776D01*
X452506Y150478D01*
X450208Y152776D01*
X447506Y154582D01*
X444503Y155826D01*
X441315Y156460D01*
D02*
G37*
G36*
X589696Y303260D02*
X588304D01*
X587017Y302727D01*
X586033Y301743D01*
X585500Y300456D01*
Y299064D01*
X586033Y297777D01*
X586221Y297590D01*
X586987Y296760D01*
X586221Y295930D01*
X586033Y295743D01*
X585500Y294456D01*
Y293064D01*
X586033Y291777D01*
X587017Y290793D01*
X588304Y290260D01*
X589696D01*
X590983Y290793D01*
X591340Y291150D01*
X591525Y291220D01*
X591642Y291329D01*
X591729Y291397D01*
X591823Y291458D01*
X591923Y291511D01*
X592034Y291558D01*
X592157Y291598D01*
X592293Y291631D01*
X592443Y291656D01*
X592610Y291672D01*
X592824Y291678D01*
X592919Y291721D01*
X632395D01*
X687558Y236558D01*
X687558Y236558D01*
X688220Y236116D01*
X689000Y235961D01*
X729155D01*
X755961Y209155D01*
Y165929D01*
X756116Y165149D01*
X756558Y164487D01*
X770487Y150558D01*
X771149Y150116D01*
X771929Y149961D01*
X871485D01*
X872266Y150116D01*
X872927Y150558D01*
X932914Y210544D01*
X933011Y210581D01*
X933167Y210728D01*
X933295Y210835D01*
X933420Y210924D01*
X933539Y210996D01*
X933654Y211055D01*
X933765Y211100D01*
X933875Y211134D01*
X933983Y211157D01*
X934093Y211170D01*
X934254Y211176D01*
X934434Y211257D01*
X934939D01*
X936225Y211790D01*
X937210Y212775D01*
X937743Y214061D01*
Y215454D01*
X937210Y216740D01*
X936225Y217724D01*
X934939Y218257D01*
X934673D01*
X933545Y218302D01*
X933500Y219431D01*
Y219696D01*
X932967Y220983D01*
X931983Y221967D01*
X930696Y222500D01*
X929304D01*
X928017Y221967D01*
X927033Y220983D01*
X926500Y219696D01*
Y219191D01*
X926418Y219011D01*
X926413Y218851D01*
X926400Y218740D01*
X926376Y218632D01*
X926343Y218523D01*
X926297Y218412D01*
X926239Y218296D01*
X926166Y218177D01*
X926077Y218053D01*
X925971Y217924D01*
X925824Y217768D01*
X925787Y217671D01*
X867155Y159039D01*
X774845D01*
X765039Y168845D01*
Y212071D01*
X765039Y212071D01*
X764884Y212851D01*
X764442Y213513D01*
X733513Y244442D01*
X732851Y244884D01*
X732071Y245039D01*
X691916D01*
X635753Y301202D01*
X635092Y301644D01*
X634311Y301799D01*
X592919D01*
X592824Y301842D01*
X592610Y301848D01*
X592443Y301864D01*
X592293Y301889D01*
X592157Y301922D01*
X592034Y301962D01*
X591923Y302009D01*
X591823Y302062D01*
X591730Y302122D01*
X591642Y302191D01*
X591525Y302300D01*
X591340Y302370D01*
X590983Y302727D01*
X589696Y303260D01*
D02*
G37*
G36*
X1018696Y143500D02*
X1017304D01*
X1016017Y142967D01*
X1015033Y141983D01*
X1014500Y140696D01*
Y139304D01*
X1015033Y138017D01*
X1016017Y137033D01*
X1017304Y136500D01*
X1018696D01*
X1019983Y137033D01*
X1020967Y138017D01*
X1021500Y139304D01*
Y140696D01*
X1020967Y141983D01*
X1019983Y142967D01*
X1018696Y143500D01*
D02*
G37*
G36*
X945696Y141500D02*
X944304D01*
X943017Y140967D01*
X942033Y139983D01*
X941500Y138696D01*
Y137304D01*
X942033Y136017D01*
X943017Y135033D01*
X944304Y134500D01*
X945696D01*
X946983Y135033D01*
X947967Y136017D01*
X948500Y137304D01*
Y138696D01*
X947967Y139983D01*
X946983Y140967D01*
X945696Y141500D01*
D02*
G37*
G36*
X581696Y179500D02*
X580304D01*
X579017Y178967D01*
X578033Y177983D01*
X577500Y176696D01*
Y176191D01*
X577418Y176011D01*
X577413Y175851D01*
X577399Y175740D01*
X577376Y175632D01*
X577343Y175523D01*
X577297Y175411D01*
X577239Y175296D01*
X577166Y175177D01*
X577077Y175053D01*
X576971Y174924D01*
X576824Y174768D01*
X576787Y174671D01*
X570558Y168442D01*
X570116Y167780D01*
X569961Y167000D01*
Y148000D01*
X570116Y147220D01*
X570558Y146558D01*
X591558Y125558D01*
X591558Y125558D01*
X592220Y125116D01*
X593000Y124961D01*
X593000Y124961D01*
X651081D01*
X651176Y124918D01*
X651390Y124912D01*
X651557Y124896D01*
X651707Y124871D01*
X651843Y124838D01*
X651966Y124798D01*
X652077Y124751D01*
X652177Y124698D01*
X652271Y124638D01*
X652358Y124569D01*
X652475Y124459D01*
X652660Y124390D01*
X653017Y124033D01*
X654304Y123500D01*
X655696D01*
X656983Y124033D01*
X657967Y125017D01*
X658500Y126304D01*
Y127696D01*
X657967Y128983D01*
X656983Y129967D01*
X655696Y130500D01*
X654304D01*
X653017Y129967D01*
X652660Y129610D01*
X652475Y129541D01*
X652358Y129431D01*
X652271Y129362D01*
X652177Y129302D01*
X652077Y129249D01*
X651966Y129202D01*
X651843Y129162D01*
X651707Y129129D01*
X651557Y129104D01*
X651390Y129088D01*
X651176Y129082D01*
X651081Y129039D01*
X593845D01*
X574039Y148845D01*
Y166155D01*
X579671Y171787D01*
X579768Y171824D01*
X579924Y171971D01*
X580053Y172077D01*
X580177Y172166D01*
X580297Y172239D01*
X580412Y172297D01*
X580523Y172343D01*
X580632Y172376D01*
X580740Y172400D01*
X580851Y172413D01*
X581011Y172418D01*
X581191Y172500D01*
X581696D01*
X582983Y173033D01*
X583967Y174017D01*
X584500Y175304D01*
Y176696D01*
X583967Y177983D01*
X582983Y178967D01*
X581696Y179500D01*
D02*
G37*
G36*
X282696Y125500D02*
X281304D01*
X280017Y124967D01*
X279033Y123983D01*
X278500Y122696D01*
Y121304D01*
X279033Y120017D01*
X280017Y119033D01*
X281304Y118500D01*
X282696D01*
X283983Y119033D01*
X284967Y120017D01*
X285500Y121304D01*
Y122696D01*
X284967Y123983D01*
X283983Y124967D01*
X282696Y125500D01*
D02*
G37*
%LPD*%
G36*
X228927Y531997D02*
X229593Y531416D01*
X229725Y531323D01*
X229843Y531250D01*
X229947Y531199D01*
X230038Y531169D01*
X230115Y531159D01*
X227640Y528684D01*
X227630Y528761D01*
X227600Y528852D01*
X227548Y528956D01*
X227476Y529074D01*
X227383Y529206D01*
X227134Y529512D01*
X226802Y529872D01*
X226604Y530073D01*
X228726Y532194D01*
X228927Y531997D01*
D02*
G37*
G36*
X468215Y208250D02*
X468153Y208298D01*
X468068Y208340D01*
X467957Y208377D01*
X467823Y208410D01*
X467663Y208438D01*
X467272Y208477D01*
X466782Y208498D01*
X466500Y208500D01*
Y211500D01*
X466782Y211502D01*
X467663Y211562D01*
X467823Y211590D01*
X467957Y211623D01*
X468068Y211660D01*
X468153Y211702D01*
X468215Y211750D01*
Y208250D01*
D02*
G37*
G36*
Y202250D02*
X468153Y202297D01*
X468068Y202340D01*
X467957Y202377D01*
X467823Y202410D01*
X467663Y202437D01*
X467272Y202477D01*
X466782Y202498D01*
X466500Y202500D01*
Y205500D01*
X466782Y205502D01*
X467663Y205562D01*
X467823Y205590D01*
X467957Y205623D01*
X468068Y205660D01*
X468153Y205702D01*
X468215Y205750D01*
Y202250D01*
D02*
G37*
G36*
X1047975Y537500D02*
X1047898Y537490D01*
X1047807Y537460D01*
X1047703Y537408D01*
X1047585Y537336D01*
X1047453Y537243D01*
X1047147Y536994D01*
X1046787Y536662D01*
X1046586Y536465D01*
X1044464Y538586D01*
X1044662Y538787D01*
X1045243Y539453D01*
X1045336Y539585D01*
X1045408Y539703D01*
X1045460Y539807D01*
X1045490Y539898D01*
X1045500Y539975D01*
X1047975Y537500D01*
D02*
G37*
G36*
X1046279Y529025D02*
X1046805Y528570D01*
X1046956Y528462D01*
X1047094Y528377D01*
X1047220Y528313D01*
X1047334Y528272D01*
X1047434Y528252D01*
X1047523Y528255D01*
X1045456Y525430D01*
X1045440Y525479D01*
X1045404Y525544D01*
X1045347Y525626D01*
X1045269Y525726D01*
X1044914Y526127D01*
X1044375Y526681D01*
X1046078Y529221D01*
X1046279Y529025D01*
D02*
G37*
G36*
X831215Y195250D02*
X831153Y195298D01*
X831068Y195340D01*
X830957Y195378D01*
X830823Y195410D01*
X830664Y195438D01*
X830272Y195478D01*
X829782Y195497D01*
X829500Y195500D01*
Y198500D01*
X829782Y198503D01*
X830664Y198563D01*
X830823Y198590D01*
X830957Y198622D01*
X831068Y198660D01*
X831153Y198703D01*
X831215Y198750D01*
Y195250D01*
D02*
G37*
G36*
X672961Y401620D02*
X673083Y401280D01*
X673286Y400980D01*
X673568Y400720D01*
X673931Y400500D01*
X674375Y400320D01*
X674898Y400180D01*
X675502Y400080D01*
X676185Y400020D01*
X676949Y400000D01*
Y396000D01*
X676189Y395997D01*
X673309Y395829D01*
X673110Y395776D01*
X672990Y395717D01*
X672950Y395650D01*
X672919Y402000D01*
X672961Y401620D01*
D02*
G37*
G36*
X598891Y404000D02*
X598851Y404380D01*
X598730Y404720D01*
X598528Y405020D01*
X598246Y405280D01*
X597883Y405500D01*
X597440Y405680D01*
X596916Y405820D01*
X596311Y405920D01*
X595626Y405980D01*
X594860Y406000D01*
Y410000D01*
X595626Y410020D01*
X596311Y410080D01*
X596916Y410180D01*
X597440Y410320D01*
X597883Y410500D01*
X598246Y410720D01*
X598528Y410980D01*
X598730Y411280D01*
X598851Y411620D01*
X598891Y412000D01*
Y404000D01*
D02*
G37*
G36*
X289215Y338250D02*
X289062Y338392D01*
X288899Y338520D01*
X288725Y338633D01*
X288541Y338730D01*
X288346Y338812D01*
X288140Y338880D01*
X287923Y338932D01*
X287696Y338970D01*
X287458Y338993D01*
X287209Y339000D01*
Y341000D01*
X287458Y341007D01*
X287696Y341030D01*
X287923Y341068D01*
X288140Y341120D01*
X288346Y341188D01*
X288541Y341270D01*
X288725Y341367D01*
X288899Y341480D01*
X289062Y341608D01*
X289215Y341750D01*
Y338250D01*
D02*
G37*
G36*
X227388Y304974D02*
X227217Y304792D01*
X227065Y304608D01*
X226931Y304421D01*
X226814Y304231D01*
X226717Y304037D01*
X226637Y303841D01*
X226575Y303641D01*
X226532Y303439D01*
X226507Y303234D01*
X226500Y303025D01*
X224025Y305500D01*
X224233Y305507D01*
X224439Y305532D01*
X224641Y305575D01*
X224841Y305637D01*
X225037Y305717D01*
X225231Y305814D01*
X225421Y305931D01*
X225608Y306065D01*
X225793Y306217D01*
X225974Y306388D01*
X227388Y304974D01*
D02*
G37*
G36*
X498507Y414767D02*
X498532Y414561D01*
X498575Y414358D01*
X498637Y414159D01*
X498717Y413963D01*
X498815Y413769D01*
X498931Y413579D01*
X499065Y413392D01*
X499217Y413208D01*
X499388Y413026D01*
X497974Y411612D01*
X497793Y411783D01*
X497608Y411935D01*
X497421Y412069D01*
X497231Y412186D01*
X497037Y412283D01*
X496841Y412363D01*
X496642Y412425D01*
X496439Y412468D01*
X496233Y412493D01*
X496025Y412500D01*
X498500Y414975D01*
X498507Y414767D01*
D02*
G37*
G36*
X498458Y407526D02*
X498531Y407341D01*
X498617Y407157D01*
X498715Y406974D01*
X498825Y406792D01*
X499083Y406430D01*
X499230Y406251D01*
X499560Y405894D01*
X498631Y403994D01*
X498446Y404167D01*
X498260Y404315D01*
X498074Y404439D01*
X497888Y404538D01*
X497701Y404613D01*
X497513Y404663D01*
X497325Y404689D01*
X497137Y404690D01*
X496948Y404666D01*
X496759Y404618D01*
X498397Y407711D01*
X498458Y407526D01*
D02*
G37*
G36*
X776975Y396500D02*
X776767Y396493D01*
X776561Y396468D01*
X776358Y396425D01*
X776159Y396363D01*
X775963Y396283D01*
X775769Y396185D01*
X775579Y396069D01*
X775392Y395935D01*
X775208Y395783D01*
X775026Y395612D01*
X773612Y397026D01*
X773783Y397207D01*
X773935Y397392D01*
X774069Y397579D01*
X774185Y397769D01*
X774283Y397963D01*
X774363Y398159D01*
X774425Y398358D01*
X774468Y398561D01*
X774493Y398767D01*
X774500Y398975D01*
X776975Y396500D01*
D02*
G37*
G36*
Y388500D02*
X776767Y388493D01*
X776561Y388468D01*
X776358Y388425D01*
X776159Y388363D01*
X775963Y388283D01*
X775769Y388186D01*
X775579Y388069D01*
X775392Y387935D01*
X775208Y387783D01*
X775026Y387612D01*
X773612Y389026D01*
X773783Y389207D01*
X773935Y389392D01*
X774069Y389579D01*
X774185Y389769D01*
X774283Y389963D01*
X774363Y390159D01*
X774425Y390359D01*
X774468Y390561D01*
X774493Y390766D01*
X774500Y390975D01*
X776975Y388500D01*
D02*
G37*
G36*
X624007Y348940D02*
X624030Y348702D01*
X624067Y348474D01*
X624120Y348257D01*
X624188Y348052D01*
X624270Y347856D01*
X624367Y347672D01*
X624480Y347498D01*
X624608Y347335D01*
X624750Y347183D01*
X621250D01*
X621393Y347335D01*
X621520Y347498D01*
X621632Y347672D01*
X621730Y347856D01*
X621813Y348052D01*
X621880Y348257D01*
X621932Y348474D01*
X621970Y348702D01*
X621992Y348940D01*
X622000Y349188D01*
X624000D01*
X624007Y348940D01*
D02*
G37*
G36*
X630088Y349148D02*
X630095Y348900D01*
X630117Y348662D01*
X630153Y348433D01*
X630204Y348215D01*
X630269Y348008D01*
X630348Y347810D01*
X630442Y347622D01*
X630551Y347445D01*
X630674Y347277D01*
X630812Y347120D01*
X627314Y347243D01*
X627461Y347390D01*
X627592Y347548D01*
X627708Y347718D01*
X627809Y347899D01*
X627894Y348092D01*
X627964Y348296D01*
X628018Y348511D01*
X628057Y348737D01*
X628080Y348975D01*
X628088Y349225D01*
X630088Y349148D01*
D02*
G37*
G36*
X620008Y333543D02*
X620030Y333304D01*
X620067Y333077D01*
X620120Y332860D01*
X620187Y332654D01*
X620270Y332459D01*
X620368Y332275D01*
X620480Y332101D01*
X620607Y331938D01*
X620750Y331785D01*
X617250D01*
X617393Y331938D01*
X617520Y332101D01*
X617632Y332275D01*
X617730Y332459D01*
X617812Y332654D01*
X617880Y332860D01*
X617933Y333077D01*
X617970Y333304D01*
X617993Y333543D01*
X618000Y333791D01*
X620000D01*
X620008Y333543D01*
D02*
G37*
G36*
X614007D02*
X614030Y333304D01*
X614067Y333077D01*
X614120Y332860D01*
X614188Y332654D01*
X614270Y332459D01*
X614367Y332275D01*
X614480Y332101D01*
X614608Y331938D01*
X614750Y331785D01*
X611250D01*
X611393Y331938D01*
X611520Y332101D01*
X611632Y332275D01*
X611730Y332459D01*
X611813Y332654D01*
X611880Y332860D01*
X611932Y333077D01*
X611970Y333304D01*
X611992Y333543D01*
X612000Y333791D01*
X614000D01*
X614007Y333543D01*
D02*
G37*
G36*
X927938Y260607D02*
X928101Y260480D01*
X928275Y260368D01*
X928459Y260270D01*
X928654Y260187D01*
X928860Y260120D01*
X929077Y260068D01*
X929304Y260030D01*
X929542Y260007D01*
X929791Y260000D01*
Y258000D01*
X929542Y257992D01*
X929304Y257970D01*
X929077Y257932D01*
X928860Y257880D01*
X928654Y257812D01*
X928459Y257730D01*
X928275Y257633D01*
X928101Y257520D01*
X927938Y257393D01*
X927785Y257250D01*
Y260750D01*
X927938Y260607D01*
D02*
G37*
G36*
X566938Y233608D02*
X567101Y233480D01*
X567275Y233368D01*
X567459Y233270D01*
X567654Y233188D01*
X567860Y233120D01*
X568077Y233067D01*
X568304Y233030D01*
X568543Y233008D01*
X568791Y233000D01*
Y231000D01*
X568543Y230993D01*
X568304Y230970D01*
X568077Y230933D01*
X567860Y230880D01*
X567654Y230812D01*
X567459Y230730D01*
X567275Y230632D01*
X567101Y230520D01*
X566938Y230392D01*
X566785Y230250D01*
Y233750D01*
X566938Y233608D01*
D02*
G37*
G36*
X707215Y228250D02*
X707062Y228393D01*
X706899Y228520D01*
X706725Y228633D01*
X706541Y228730D01*
X706346Y228813D01*
X706140Y228880D01*
X705923Y228932D01*
X705696Y228970D01*
X705458Y228993D01*
X705209Y229000D01*
Y231000D01*
X705458Y231007D01*
X705696Y231030D01*
X705923Y231068D01*
X706140Y231120D01*
X706346Y231187D01*
X706541Y231270D01*
X706725Y231367D01*
X706899Y231480D01*
X707062Y231607D01*
X707215Y231750D01*
Y228250D01*
D02*
G37*
G36*
X662388Y216974D02*
X662217Y216793D01*
X662065Y216608D01*
X661931Y216421D01*
X661814Y216231D01*
X661717Y216037D01*
X661637Y215841D01*
X661575Y215641D01*
X661532Y215439D01*
X661507Y215233D01*
X661500Y215025D01*
X659025Y217500D01*
X659233Y217507D01*
X659439Y217532D01*
X659641Y217575D01*
X659841Y217637D01*
X660037Y217717D01*
X660231Y217815D01*
X660421Y217931D01*
X660608Y218065D01*
X660792Y218217D01*
X660974Y218388D01*
X662388Y216974D01*
D02*
G37*
G36*
X649208Y218217D02*
X649392Y218065D01*
X649579Y217931D01*
X649769Y217815D01*
X649963Y217717D01*
X650159Y217637D01*
X650359Y217575D01*
X650561Y217532D01*
X650767Y217507D01*
X650975Y217500D01*
X648500Y215025D01*
X648493Y215233D01*
X648468Y215439D01*
X648425Y215641D01*
X648363Y215841D01*
X648283Y216037D01*
X648186Y216231D01*
X648069Y216421D01*
X647935Y216608D01*
X647783Y216793D01*
X647612Y216974D01*
X649026Y218388D01*
X649208Y218217D01*
D02*
G37*
G36*
X991687Y257139D02*
X991631Y257040D01*
X991582Y256919D01*
X991539Y256776D01*
X991503Y256610D01*
X991473Y256421D01*
X991433Y255977D01*
X991420Y255442D01*
X988580D01*
X988577Y255721D01*
X988527Y256421D01*
X988497Y256610D01*
X988461Y256776D01*
X988418Y256919D01*
X988369Y257040D01*
X988313Y257139D01*
X988250Y257215D01*
X991750D01*
X991687Y257139D01*
D02*
G37*
G36*
X991423Y222279D02*
X991473Y221579D01*
X991503Y221390D01*
X991539Y221224D01*
X991582Y221081D01*
X991631Y220960D01*
X991687Y220861D01*
X991750Y220785D01*
X988250D01*
X988313Y220861D01*
X988369Y220960D01*
X988418Y221081D01*
X988461Y221224D01*
X988497Y221390D01*
X988527Y221579D01*
X988567Y222023D01*
X988580Y222558D01*
X991420D01*
X991423Y222279D01*
D02*
G37*
G36*
X661215Y192250D02*
X661062Y192393D01*
X660899Y192520D01*
X660725Y192633D01*
X660541Y192730D01*
X660346Y192812D01*
X660140Y192880D01*
X659923Y192932D01*
X659696Y192970D01*
X659457Y192992D01*
X659209Y193000D01*
Y195000D01*
X659457Y195007D01*
X659696Y195030D01*
X659923Y195068D01*
X660140Y195120D01*
X660346Y195187D01*
X660541Y195270D01*
X660725Y195368D01*
X660899Y195480D01*
X661062Y195607D01*
X661215Y195750D01*
Y192250D01*
D02*
G37*
G36*
X652431Y190092D02*
X652594Y189964D01*
X652768Y189852D01*
X652952Y189754D01*
X653148Y189672D01*
X653354Y189604D01*
X653570Y189552D01*
X653798Y189514D01*
X654036Y189492D01*
X654285Y189484D01*
Y187484D01*
X654036Y187477D01*
X653798Y187454D01*
X653570Y187417D01*
X653354Y187364D01*
X653148Y187297D01*
X652952Y187214D01*
X652768Y187117D01*
X652594Y187004D01*
X652431Y186877D01*
X652279Y186734D01*
Y190234D01*
X652431Y190092D01*
D02*
G37*
G36*
X492938Y189608D02*
X493101Y189480D01*
X493275Y189368D01*
X493459Y189270D01*
X493654Y189188D01*
X493860Y189120D01*
X494077Y189067D01*
X494304Y189030D01*
X494543Y189007D01*
X494791Y189000D01*
Y187000D01*
X494543Y186992D01*
X494304Y186970D01*
X494077Y186933D01*
X493860Y186880D01*
X493654Y186812D01*
X493459Y186730D01*
X493275Y186632D01*
X493101Y186520D01*
X492938Y186392D01*
X492785Y186250D01*
Y189750D01*
X492938Y189608D01*
D02*
G37*
G36*
X544608Y180062D02*
X544480Y179899D01*
X544367Y179725D01*
X544270Y179541D01*
X544188Y179346D01*
X544120Y179140D01*
X544067Y178923D01*
X544030Y178696D01*
X544007Y178458D01*
X544000Y178209D01*
X542000D01*
X541992Y178458D01*
X541970Y178696D01*
X541932Y178923D01*
X541880Y179140D01*
X541813Y179346D01*
X541730Y179541D01*
X541632Y179725D01*
X541520Y179899D01*
X541393Y180062D01*
X541250Y180215D01*
X544750D01*
X544608Y180062D01*
D02*
G37*
G36*
X580207Y131217D02*
X580392Y131065D01*
X580579Y130931D01*
X580769Y130815D01*
X580963Y130717D01*
X581159Y130637D01*
X581359Y130575D01*
X581561Y130532D01*
X581767Y130507D01*
X581975Y130500D01*
X579500Y128025D01*
X579493Y128233D01*
X579468Y128439D01*
X579425Y128641D01*
X579363Y128841D01*
X579283Y129037D01*
X579185Y129231D01*
X579069Y129421D01*
X578935Y129608D01*
X578783Y129792D01*
X578612Y129974D01*
X580026Y131388D01*
X580207Y131217D01*
D02*
G37*
G36*
X694208Y130217D02*
X694392Y130065D01*
X694579Y129931D01*
X694769Y129815D01*
X694963Y129717D01*
X695159Y129637D01*
X695359Y129575D01*
X695561Y129532D01*
X695767Y129507D01*
X695975Y129500D01*
X693500Y127025D01*
X693493Y127233D01*
X693468Y127439D01*
X693425Y127641D01*
X693363Y127841D01*
X693283Y128037D01*
X693186Y128231D01*
X693069Y128421D01*
X692935Y128608D01*
X692783Y128792D01*
X692612Y128974D01*
X694026Y130388D01*
X694208Y130217D01*
D02*
G37*
G36*
X1020608Y291062D02*
X1020480Y290899D01*
X1020368Y290725D01*
X1020270Y290541D01*
X1020188Y290346D01*
X1020120Y290140D01*
X1020068Y289923D01*
X1020030Y289696D01*
X1020007Y289457D01*
X1020000Y289209D01*
X1018000D01*
X1017992Y289457D01*
X1017970Y289696D01*
X1017933Y289923D01*
X1017880Y290140D01*
X1017812Y290346D01*
X1017730Y290541D01*
X1017633Y290725D01*
X1017520Y290899D01*
X1017393Y291062D01*
X1017250Y291215D01*
X1020750D01*
X1020608Y291062D01*
D02*
G37*
G36*
X1029733Y190831D02*
X1029918Y190679D01*
X1030105Y190544D01*
X1030295Y190428D01*
X1030489Y190330D01*
X1030685Y190251D01*
X1030884Y190189D01*
X1031087Y190146D01*
X1031292Y190121D01*
X1031501Y190114D01*
X1029026Y187639D01*
X1029019Y187847D01*
X1028994Y188053D01*
X1028951Y188255D01*
X1028889Y188454D01*
X1028809Y188651D01*
X1028711Y188844D01*
X1028595Y189035D01*
X1028461Y189222D01*
X1028309Y189406D01*
X1028138Y189587D01*
X1029552Y191002D01*
X1029733Y190831D01*
D02*
G37*
G36*
X590938Y301367D02*
X591101Y301240D01*
X591275Y301127D01*
X591459Y301030D01*
X591654Y300947D01*
X591860Y300880D01*
X592077Y300828D01*
X592304Y300790D01*
X592542Y300767D01*
X592791Y300760D01*
Y298760D01*
X592542Y298752D01*
X592304Y298730D01*
X592077Y298692D01*
X591860Y298640D01*
X591654Y298573D01*
X591459Y298490D01*
X591275Y298393D01*
X591101Y298280D01*
X590938Y298153D01*
X590785Y298010D01*
Y301510D01*
X590938Y301367D01*
D02*
G37*
G36*
Y295368D02*
X591101Y295240D01*
X591275Y295128D01*
X591459Y295030D01*
X591654Y294947D01*
X591860Y294880D01*
X592077Y294827D01*
X592304Y294790D01*
X592542Y294767D01*
X592791Y294760D01*
Y292760D01*
X592542Y292752D01*
X592304Y292730D01*
X592077Y292693D01*
X591860Y292640D01*
X591654Y292572D01*
X591459Y292490D01*
X591275Y292393D01*
X591101Y292280D01*
X590938Y292153D01*
X590785Y292010D01*
Y295510D01*
X590938Y295368D01*
D02*
G37*
G36*
X929975Y216500D02*
X929766Y216493D01*
X929561Y216468D01*
X929359Y216425D01*
X929159Y216363D01*
X928963Y216283D01*
X928769Y216185D01*
X928579Y216069D01*
X928392Y215935D01*
X928207Y215783D01*
X928026Y215612D01*
X926612Y217026D01*
X926783Y217208D01*
X926935Y217392D01*
X927069Y217579D01*
X927186Y217769D01*
X927283Y217963D01*
X927363Y218159D01*
X927425Y218359D01*
X927468Y218561D01*
X927493Y218766D01*
X927500Y218975D01*
X929975Y216500D01*
D02*
G37*
G36*
X934218Y212257D02*
X934009Y212250D01*
X933804Y212225D01*
X933601Y212182D01*
X933402Y212120D01*
X933205Y212041D01*
X933012Y211943D01*
X932822Y211827D01*
X932634Y211693D01*
X932450Y211540D01*
X932269Y211369D01*
X930855Y212784D01*
X931025Y212965D01*
X931178Y213149D01*
X931312Y213336D01*
X931428Y213527D01*
X931526Y213720D01*
X931606Y213916D01*
X931667Y214116D01*
X931711Y214318D01*
X931736Y214524D01*
X931743Y214732D01*
X934218Y212257D01*
D02*
G37*
G36*
X580975Y173500D02*
X580766Y173493D01*
X580561Y173468D01*
X580359Y173425D01*
X580159Y173363D01*
X579963Y173283D01*
X579769Y173186D01*
X579579Y173069D01*
X579392Y172935D01*
X579207Y172783D01*
X579026Y172612D01*
X577612Y174026D01*
X577783Y174207D01*
X577935Y174392D01*
X578069Y174579D01*
X578186Y174769D01*
X578283Y174963D01*
X578363Y175159D01*
X578425Y175359D01*
X578468Y175561D01*
X578493Y175767D01*
X578500Y175975D01*
X580975Y173500D01*
D02*
G37*
G36*
X653215Y125250D02*
X653062Y125393D01*
X652899Y125520D01*
X652725Y125632D01*
X652541Y125730D01*
X652346Y125813D01*
X652140Y125880D01*
X651923Y125933D01*
X651696Y125970D01*
X651458Y125992D01*
X651209Y126000D01*
Y128000D01*
X651458Y128007D01*
X651696Y128030D01*
X651923Y128068D01*
X652140Y128120D01*
X652346Y128188D01*
X652541Y128270D01*
X652725Y128368D01*
X652899Y128480D01*
X653062Y128608D01*
X653215Y128750D01*
Y125250D01*
D02*
G37*
D14*
X1052000Y361000D02*
X1067000Y376000D01*
X1052000Y319000D02*
Y361000D01*
X1067000Y376000D02*
X1190000D01*
X1039000Y306000D02*
X1052000Y319000D01*
X990000Y306000D02*
X1039000D01*
X1193000Y376000D02*
X1194000Y375000D01*
X982000Y291000D02*
Y298000D01*
X990000Y306000D01*
X1019000Y200140D02*
Y293000D01*
Y200140D02*
X1031526Y187614D01*
X926000Y259000D02*
X941173D01*
X943517Y261344D01*
X871485Y152000D02*
X934243Y214757D01*
X868000Y157000D02*
X930000Y219000D01*
X771929Y152000D02*
X871485D01*
X774000Y157000D02*
X868000D01*
X758000Y165929D02*
X771929Y152000D01*
X763000Y168000D02*
X774000Y157000D01*
X763000Y168000D02*
Y212071D01*
X758000Y165929D02*
Y210000D01*
X732071Y243000D02*
X763000Y212071D01*
X691071Y243000D02*
X732071D01*
X730000Y238000D02*
X758000Y210000D01*
X689000Y238000D02*
X730000D01*
X633240Y293760D02*
X689000Y238000D01*
X634311Y299760D02*
X691071Y243000D01*
X589000Y299760D02*
X634311D01*
X589000Y293760D02*
X633240D01*
X543000Y167000D02*
X582000Y128000D01*
X543000Y167000D02*
Y182000D01*
X572000Y148000D02*
Y167000D01*
X581000Y176000D01*
X572000Y148000D02*
X593000Y127000D01*
X655000D01*
X650493Y188484D02*
X655516D01*
X664000Y180000D01*
Y159000D02*
Y180000D01*
Y159000D02*
X696000Y127000D01*
X629088Y350088D02*
X645000Y366000D01*
X642000Y371000D02*
X749000D01*
X623000Y352000D02*
X642000Y371000D01*
X752000Y366000D02*
X777000Y391000D01*
X645000Y366000D02*
X752000D01*
X749000Y371000D02*
X777000Y399000D01*
X607000Y344000D02*
X613000Y338000D01*
X503500Y370500D02*
X530000Y344000D01*
X607000D01*
X629088Y345485D02*
Y350088D01*
X623000Y345397D02*
Y352000D01*
X629000Y345397D02*
X629088Y345485D01*
X611243Y348243D02*
X619000Y340485D01*
Y330000D02*
Y340485D01*
X611243Y348243D02*
X611243D01*
X609485Y350000D02*
X611243Y348243D01*
X532485Y350000D02*
X609485D01*
X613000Y330000D02*
Y338000D01*
X565000Y232000D02*
X634000D01*
X496000Y415000D02*
X509500Y401500D01*
X496000Y407000D02*
X497040D01*
X503500Y400540D01*
Y370500D02*
Y400540D01*
X509500Y372985D02*
Y401500D01*
Y372985D02*
X532485Y350000D01*
X558364Y194000D02*
X663000D01*
X491000Y188000D02*
X552364D01*
X558364Y194000D01*
X659000Y215000D02*
X674000Y230000D01*
X634000Y232000D02*
X651000Y215000D01*
X674000Y230000D02*
X709000D01*
X271000Y340000D02*
X291000D01*
X235000Y314000D02*
X257000D01*
X224000Y303000D02*
X235000Y314000D01*
X264000Y321000D02*
Y333000D01*
X257000Y314000D02*
X264000Y321000D01*
Y333000D02*
X271000Y340000D01*
D16*
X73000Y550905D02*
G03*
X73000Y546894I66970J-2006D01*
G01*
X84000Y550733D02*
G03*
X84000Y547066I55970J-1833D01*
G01*
X73000Y488000D02*
Y546894D01*
X75929Y485071D02*
X116000Y445000D01*
X73000Y488000D02*
X75929Y485071D01*
X73000Y695000D02*
X121500Y743500D01*
X73000Y550905D02*
Y695000D01*
X84000Y496000D02*
X86929Y493071D01*
X131000Y449000D01*
X84000Y623740D02*
X139970Y679710D01*
X84000Y550733D02*
Y623740D01*
Y496000D02*
Y547066D01*
X844000Y661000D02*
X930000Y747000D01*
X425000Y661000D02*
X844000D01*
X342500Y743500D02*
X425000Y661000D01*
X1072720Y747720D02*
X1140730Y679710D01*
X930000Y747000D02*
X1072000D01*
X121500Y743500D02*
X342500D01*
X131000Y409000D02*
Y449000D01*
X168000Y410000D02*
X170000D01*
X150000Y392000D02*
X168000Y410000D01*
X116000Y405000D02*
X129000Y392000D01*
X150000D01*
X116000Y405000D02*
Y445000D01*
D63*
X1189000Y324900D02*
D03*
X826000Y404000D02*
D03*
X664480Y404120D02*
D03*
X607330D02*
D03*
X395240Y346970D02*
D03*
X1048020Y678440D02*
D03*
X661940Y528580D02*
D03*
X611140D02*
D03*
X230140Y679710D02*
D03*
X292370Y472700D02*
D03*
X444770Y404120D02*
D03*
D64*
X1189000Y350300D02*
D03*
Y375700D02*
D03*
Y401100D02*
D03*
X414290Y139960D02*
D03*
X465090D02*
D03*
X439690D02*
D03*
D65*
X1164590Y194141D02*
D03*
Y251941D02*
D03*
D66*
X1201090Y178040D02*
D03*
X1201090Y268041D02*
D03*
D67*
X1159590Y268039D02*
D03*
X1159590Y178039D02*
D03*
D68*
X388890Y139960D02*
D03*
X315230Y95510D02*
D03*
Y172980D02*
D03*
Y242830D02*
D03*
D69*
X1140730Y679710D02*
D03*
Y548900D02*
D03*
X139970D02*
D03*
Y679710D02*
D03*
D70*
X870601Y574300D02*
D03*
X401590D02*
D03*
D71*
X870601Y498300D02*
D03*
X401590D02*
D03*
D72*
X1168200Y115000D02*
D03*
Y830400D02*
D03*
X112500Y115000D02*
D03*
Y830400D02*
D03*
D73*
X225969Y532830D02*
X230140Y528659D01*
X212515Y538829D02*
X227829D01*
X230000Y541000D01*
X206000Y532315D02*
X212515Y538829D01*
X212000Y529829D02*
X215000Y532830D01*
X225969D01*
X212000Y488000D02*
Y529829D01*
X139970Y617359D02*
Y679710D01*
Y617359D02*
X141727Y615601D01*
X211884D01*
X422000Y405485D01*
X141727Y610524D02*
X208476D01*
X139970Y548900D02*
Y608767D01*
X208476Y610524D02*
X416000Y403000D01*
X139970Y608767D02*
X141727Y610524D01*
X822000Y369000D02*
X1063000Y610000D01*
X816000Y273515D02*
Y371485D01*
X1063000Y610000D02*
X1140000D01*
X857000Y251485D02*
Y393485D01*
X822000Y276000D02*
Y369000D01*
X1060515Y616000D02*
X1140000D01*
X998515Y535000D02*
X1043000D01*
X1001000Y529000D02*
X1044177D01*
X863000Y391000D02*
X1001000Y529000D01*
X857000Y393485D02*
X998515Y535000D01*
X863000Y249000D02*
Y391000D01*
X816000Y371485D02*
X1060515Y616000D01*
X1043000Y535000D02*
X1048000Y540000D01*
X820000Y214485D02*
X857000Y251485D01*
X828515Y197000D02*
X833000D01*
X820000Y205515D02*
X828515Y197000D01*
X820000Y205515D02*
Y214485D01*
X822000Y276000D02*
X829000Y269000D01*
X833000D01*
X828515Y261000D02*
X833000D01*
X816000Y273515D02*
X828515Y261000D01*
X1047389Y525788D02*
X1047930D01*
X1044177Y529000D02*
X1047389Y525788D01*
X1140000Y549630D02*
Y610000D01*
Y549630D02*
X1140730Y548900D01*
X826000Y212000D02*
X863000Y249000D01*
X826000Y208000D02*
Y212000D01*
Y208000D02*
X830000Y204000D01*
X833000D01*
X1140000Y616000D02*
Y678980D01*
X1140730Y679710D01*
X416515Y204000D02*
X470000D01*
X346000Y274515D02*
X416515Y204000D01*
X419000Y210000D02*
X470000D01*
X352000Y277000D02*
X419000Y210000D01*
X352000Y277000D02*
Y348000D01*
X346000Y274515D02*
Y345515D01*
X206000Y485515D02*
X346000Y345515D01*
X206000Y485515D02*
Y532315D01*
X212000Y488000D02*
X352000Y348000D01*
X447515Y264000D02*
X469000D01*
X450000Y270000D02*
X469000D01*
X416000Y295515D02*
X447515Y264000D01*
X422000Y298000D02*
X450000Y270000D01*
X422000Y298000D02*
Y405485D01*
X416000Y295515D02*
Y403000D01*
D74*
X990000Y219000D02*
Y259000D01*
D80*
X796405Y438149D02*
Y511595D01*
X778000Y530000D02*
X796405Y511595D01*
X721000Y425670D02*
Y471000D01*
X711000Y415670D02*
X721000Y425670D01*
X711000Y378000D02*
Y415670D01*
X664480Y404120D02*
X670600Y398000D01*
X694000D01*
X691000Y528000D02*
X694000Y525000D01*
Y398000D02*
Y525000D01*
X579000Y408000D02*
X603450D01*
X607330Y404120D01*
X579000Y408000D02*
Y426000D01*
X563000Y442000D02*
Y584000D01*
Y442000D02*
X579000Y426000D01*
X476271Y457271D02*
X491000Y472000D01*
X465000Y379000D02*
X476271Y390271D01*
Y457271D01*
X491000Y472000D02*
X509500D01*
D81*
X286000Y290000D02*
D03*
X310000D02*
D03*
X336000D02*
D03*
X364000D02*
D03*
X263000Y298000D02*
D03*
X214000Y285000D02*
D03*
X193000D02*
D03*
X377000Y325000D02*
D03*
X387000D02*
D03*
X397000D02*
D03*
X407000D02*
D03*
X1178000Y418000D02*
D03*
Y258000D02*
D03*
Y178000D02*
D03*
X1138000Y418000D02*
D03*
Y338000D02*
D03*
X1158000Y298000D02*
D03*
X1138000Y178000D02*
D03*
X1098000Y418000D02*
D03*
Y338000D02*
D03*
X1118000Y298000D02*
D03*
Y218000D02*
D03*
X1098000Y178000D02*
D03*
X1118000Y138000D02*
D03*
X1098000Y98000D02*
D03*
X1058000Y418000D02*
D03*
Y338000D02*
D03*
Y258000D02*
D03*
X1078000Y218000D02*
D03*
X1058000Y178000D02*
D03*
X1078000Y138000D02*
D03*
X1058000Y98000D02*
D03*
X1018000Y498000D02*
D03*
X1038000Y458000D02*
D03*
X1018000Y418000D02*
D03*
X1038000Y378000D02*
D03*
Y218000D02*
D03*
Y138000D02*
D03*
X1018000Y98000D02*
D03*
X978000Y498000D02*
D03*
X998000Y458000D02*
D03*
Y378000D02*
D03*
X978000Y338000D02*
D03*
X998000Y218000D02*
D03*
X978000Y178000D02*
D03*
X998000Y138000D02*
D03*
X978000Y98000D02*
D03*
X958000Y458000D02*
D03*
X938000Y418000D02*
D03*
X958000Y378000D02*
D03*
X938000Y338000D02*
D03*
X958000Y298000D02*
D03*
X938000Y178000D02*
D03*
X958000Y138000D02*
D03*
X938000Y98000D02*
D03*
X898000Y498000D02*
D03*
Y418000D02*
D03*
X918000Y378000D02*
D03*
X898000Y258000D02*
D03*
X918000Y218000D02*
D03*
Y138000D02*
D03*
X898000Y98000D02*
D03*
X878000Y458000D02*
D03*
Y378000D02*
D03*
Y298000D02*
D03*
Y218000D02*
D03*
X858000Y178000D02*
D03*
X878000Y138000D02*
D03*
X858000Y98000D02*
D03*
X818000Y498000D02*
D03*
X838000Y458000D02*
D03*
Y298000D02*
D03*
X818000Y258000D02*
D03*
Y178000D02*
D03*
X838000Y138000D02*
D03*
X818000Y98000D02*
D03*
X778000Y498000D02*
D03*
Y338000D02*
D03*
Y258000D02*
D03*
X798000Y138000D02*
D03*
X778000Y98000D02*
D03*
X738000Y338000D02*
D03*
Y178000D02*
D03*
X758000Y138000D02*
D03*
X738000Y98000D02*
D03*
X718000Y618000D02*
D03*
Y378000D02*
D03*
X698000Y338000D02*
D03*
X718000Y218000D02*
D03*
Y138000D02*
D03*
X698000Y98000D02*
D03*
X678000Y458000D02*
D03*
Y378000D02*
D03*
X658000Y338000D02*
D03*
X678000Y298000D02*
D03*
X658000Y258000D02*
D03*
X678000Y218000D02*
D03*
Y138000D02*
D03*
X658000Y98000D02*
D03*
X638000Y618000D02*
D03*
Y538000D02*
D03*
Y458000D02*
D03*
Y378000D02*
D03*
X618000Y258000D02*
D03*
X638000Y218000D02*
D03*
Y138000D02*
D03*
X598000Y458000D02*
D03*
Y378000D02*
D03*
X578000Y338000D02*
D03*
Y98000D02*
D03*
X558000Y378000D02*
D03*
X538000Y338000D02*
D03*
X558000Y298000D02*
D03*
X538000Y258000D02*
D03*
X558000Y218000D02*
D03*
X538000Y178000D02*
D03*
X558000Y138000D02*
D03*
X538000Y98000D02*
D03*
X498000Y498000D02*
D03*
X518000Y378000D02*
D03*
X498000Y338000D02*
D03*
X518000Y298000D02*
D03*
Y218000D02*
D03*
Y138000D02*
D03*
X498000Y98000D02*
D03*
X458000Y498000D02*
D03*
Y338000D02*
D03*
X478000Y298000D02*
D03*
Y218000D02*
D03*
X458000Y178000D02*
D03*
X478000Y138000D02*
D03*
X418000Y498000D02*
D03*
X438000Y458000D02*
D03*
X418000Y418000D02*
D03*
X438000Y378000D02*
D03*
Y298000D02*
D03*
X418000Y258000D02*
D03*
Y178000D02*
D03*
X378000Y498000D02*
D03*
X398000Y458000D02*
D03*
X378000Y418000D02*
D03*
X398000Y378000D02*
D03*
X378000Y178000D02*
D03*
X338000Y498000D02*
D03*
Y418000D02*
D03*
X358000Y378000D02*
D03*
Y218000D02*
D03*
Y138000D02*
D03*
X298000Y498000D02*
D03*
X318000Y458000D02*
D03*
X298000Y418000D02*
D03*
Y338000D02*
D03*
X318000Y218000D02*
D03*
Y138000D02*
D03*
X258000Y498000D02*
D03*
X278000Y458000D02*
D03*
X258000Y418000D02*
D03*
X278000Y378000D02*
D03*
Y138000D02*
D03*
X218000Y418000D02*
D03*
X238000Y378000D02*
D03*
Y298000D02*
D03*
X218000Y98000D02*
D03*
X178000Y418000D02*
D03*
Y258000D02*
D03*
X198000Y218000D02*
D03*
X178000Y178000D02*
D03*
X198000Y138000D02*
D03*
X178000Y98000D02*
D03*
X158000Y378000D02*
D03*
X138000Y258000D02*
D03*
X158000Y218000D02*
D03*
X138000Y178000D02*
D03*
X158000Y138000D02*
D03*
X98000Y418000D02*
D03*
X118000Y378000D02*
D03*
X98000Y338000D02*
D03*
Y258000D02*
D03*
X118000Y218000D02*
D03*
X98000Y178000D02*
D03*
X1019000Y293000D02*
D03*
X244960Y338500D02*
D03*
X255960D02*
D03*
X244960Y327500D02*
D03*
X255960D02*
D03*
X279320Y94563D02*
D03*
X1141000Y309000D02*
D03*
X1084000Y282000D02*
D03*
Y292000D02*
D03*
Y302000D02*
D03*
Y312000D02*
D03*
X1143000Y255000D02*
D03*
X1142000Y191000D02*
D03*
X1031526Y187614D02*
D03*
X982000Y291000D02*
D03*
X988500D02*
D03*
X1011000Y242000D02*
D03*
X1003000Y261000D02*
D03*
X1045000Y299000D02*
D03*
X1019000Y360000D02*
D03*
Y344000D02*
D03*
X1044000Y323000D02*
D03*
X1019000Y337000D02*
D03*
X1045000Y343000D02*
D03*
Y360000D02*
D03*
X1029000Y401000D02*
D03*
X1015000D02*
D03*
X995000Y387000D02*
D03*
X991000Y375000D02*
D03*
X979000D02*
D03*
X1007000Y398000D02*
D03*
X1006617Y414383D02*
D03*
X995541Y419000D02*
D03*
X981000D02*
D03*
X962000D02*
D03*
X950000D02*
D03*
X947809Y406809D02*
D03*
X944842Y381617D02*
D03*
X936190Y384351D02*
D03*
X913000Y402000D02*
D03*
X901000D02*
D03*
X888000D02*
D03*
X882000Y369000D02*
D03*
X900000Y378000D02*
D03*
X952000Y340000D02*
D03*
X963000Y374000D02*
D03*
X958511Y340303D02*
D03*
X926000Y403000D02*
D03*
X936423Y405058D02*
D03*
X913000Y308000D02*
D03*
X990000Y259000D02*
D03*
Y219000D02*
D03*
X1114000Y239000D02*
D03*
Y210000D02*
D03*
X1017000Y187000D02*
D03*
X1018000Y140000D02*
D03*
X967000Y158000D02*
D03*
X945000Y138000D02*
D03*
X910000Y296000D02*
D03*
X882000Y288000D02*
D03*
X910000D02*
D03*
X926000Y259000D02*
D03*
X943517Y261344D02*
D03*
X934243Y214757D02*
D03*
X930000Y219000D02*
D03*
X589000Y299760D02*
D03*
Y293760D02*
D03*
X684000Y274000D02*
D03*
Y294000D02*
D03*
X771000Y291000D02*
D03*
X543000Y182000D02*
D03*
X582000Y128000D02*
D03*
X596000Y183000D02*
D03*
X581000Y176000D02*
D03*
X655000Y127000D02*
D03*
X639000Y188000D02*
D03*
X650493Y188484D02*
D03*
X696000Y127000D02*
D03*
X768000Y267000D02*
D03*
X740000Y264000D02*
D03*
X736000Y272000D02*
D03*
Y300000D02*
D03*
Y286000D02*
D03*
X709000Y300000D02*
D03*
X1048000Y540000D02*
D03*
X833000Y197000D02*
D03*
Y269000D02*
D03*
Y261000D02*
D03*
X1047930Y525788D02*
D03*
X833000Y204000D02*
D03*
X656000Y84000D02*
D03*
X599000Y83000D02*
D03*
X569000Y123000D02*
D03*
X544000Y84000D02*
D03*
X796405Y438149D02*
D03*
X804000Y416000D02*
D03*
Y404000D02*
D03*
Y391000D02*
D03*
Y379000D02*
D03*
X777000Y407000D02*
D03*
X721000Y471000D02*
D03*
X711000Y378000D02*
D03*
X694000Y398000D02*
D03*
X603000Y310000D02*
D03*
X496000Y398000D02*
D03*
X629000Y345397D02*
D03*
X623000D02*
D03*
X777000Y391000D02*
D03*
Y399000D02*
D03*
X619000Y330000D02*
D03*
X613000D02*
D03*
X684000Y425000D02*
D03*
X669000Y215000D02*
D03*
X590000Y227000D02*
D03*
X531000Y249000D02*
D03*
X525000Y201000D02*
D03*
Y210000D02*
D03*
X496000Y415000D02*
D03*
Y407000D02*
D03*
X579000Y408000D02*
D03*
X577000Y378000D02*
D03*
X465000Y429000D02*
D03*
Y417000D02*
D03*
X466000Y404000D02*
D03*
X465000Y391000D02*
D03*
Y379000D02*
D03*
X470000Y210000D02*
D03*
Y204000D02*
D03*
X230140Y528659D02*
D03*
X230000Y541000D02*
D03*
X469000Y264000D02*
D03*
Y270000D02*
D03*
X131000Y409000D02*
D03*
X716000Y93000D02*
D03*
X663000Y194000D02*
D03*
X551000Y193000D02*
D03*
X491000Y188000D02*
D03*
X659000Y215000D02*
D03*
X651000D02*
D03*
X565000Y232000D02*
D03*
X511000Y299000D02*
D03*
X531000Y273000D02*
D03*
X545000Y261000D02*
D03*
X534000Y225000D02*
D03*
X697000Y177000D02*
D03*
X689000Y160000D02*
D03*
X673000D02*
D03*
X576000Y183000D02*
D03*
X598000Y362000D02*
D03*
Y331000D02*
D03*
X551270Y178000D02*
D03*
X609000Y188000D02*
D03*
X592000Y174000D02*
D03*
X581000Y167000D02*
D03*
Y155000D02*
D03*
X587000Y146000D02*
D03*
X598000Y144000D02*
D03*
X612000Y143000D02*
D03*
X627000D02*
D03*
X642000D02*
D03*
X646000Y155000D02*
D03*
X657000Y163000D02*
D03*
Y173000D02*
D03*
X648000Y181000D02*
D03*
X629000Y188000D02*
D03*
X709000Y230000D02*
D03*
X790000Y234000D02*
D03*
X794000Y198000D02*
D03*
Y208000D02*
D03*
X282000Y122000D02*
D03*
X227000Y101000D02*
D03*
X232000Y136000D02*
D03*
Y122000D02*
D03*
X219000Y84000D02*
D03*
X350000Y177000D02*
D03*
X340000D02*
D03*
Y167000D02*
D03*
X350000D02*
D03*
X288000Y166000D02*
D03*
X211000Y159000D02*
D03*
X201000D02*
D03*
Y169000D02*
D03*
X211000D02*
D03*
Y197000D02*
D03*
X201000D02*
D03*
Y187000D02*
D03*
X211000D02*
D03*
X708000Y429000D02*
D03*
X564000Y378000D02*
D03*
X350000Y253000D02*
D03*
Y243000D02*
D03*
X340000D02*
D03*
Y253000D02*
D03*
X274000Y214000D02*
D03*
X284000D02*
D03*
X231000Y223000D02*
D03*
Y213000D02*
D03*
X241000D02*
D03*
Y223000D02*
D03*
X216000Y240000D02*
D03*
X206000D02*
D03*
Y250000D02*
D03*
X216000D02*
D03*
X197000Y379000D02*
D03*
X190000Y355000D02*
D03*
X189000Y327000D02*
D03*
X291000Y340000D02*
D03*
X224000Y303000D02*
D03*
X360000Y276000D02*
D03*
X370000D02*
D03*
X380000D02*
D03*
X390000D02*
D03*
X400000D02*
D03*
X410000D02*
D03*
X178000Y268000D02*
D03*
X168000D02*
D03*
X158000D02*
D03*
X148000D02*
D03*
X138000D02*
D03*
X128000D02*
D03*
X170000Y410000D02*
D03*
X778000Y530000D02*
D03*
X691000Y528000D02*
D03*
X509500Y472000D02*
D03*
X563000Y584000D02*
D03*
D82*
X744870Y391040D02*
D03*
Y399040D02*
D03*
Y407040D02*
D03*
Y415040D02*
D03*
X752870Y391040D02*
D03*
Y399040D02*
D03*
Y407040D02*
D03*
Y415040D02*
D03*
X736870Y391040D02*
D03*
Y399040D02*
D03*
Y407040D02*
D03*
Y415040D02*
D03*
X526750Y415040D02*
D03*
Y407040D02*
D03*
Y399040D02*
D03*
Y391040D02*
D03*
X518750Y415040D02*
D03*
Y407040D02*
D03*
Y399040D02*
D03*
Y391040D02*
D03*
X534750Y415040D02*
D03*
Y407040D02*
D03*
Y399040D02*
D03*
Y391040D02*
D03*
M02*
