G04*
G04 #@! TF.GenerationSoftware,Altium Limited,Altium Designer,24.7.2 (38)*
G04*
G04 Layer_Color=8388736*
%FSLAX44Y44*%
%MOMM*%
G71*
G04*
G04 #@! TF.SameCoordinates,1A42ED2C-D2DC-4C4E-9266-FAA71F5D9F86*
G04*
G04*
G04 #@! TF.FilePolarity,Negative*
G04*
G01*
G75*
%ADD22O,0.2500X1.5500*%
%ADD23O,1.5500X0.2500*%
%ADD24R,0.5000X0.4000*%
%ADD25R,1.3000X1.2000*%
%ADD26R,0.4000X0.5000*%
%ADD27R,1.3500X1.2000*%
%ADD28R,0.8500X1.8000*%
%ADD29R,1.1500X0.3000*%
%ADD30R,1.1481X0.2997*%
%ADD31R,0.9140X1.2190*%
%ADD32R,1.0000X0.4500*%
%ADD33R,0.8890X1.2700*%
G04:AMPARAMS|DCode=34|XSize=1.27mm|YSize=0.889mm|CornerRadius=0mm|HoleSize=0mm|Usage=FLASHONLY|Rotation=90.000|XOffset=0mm|YOffset=0mm|HoleType=Round|Shape=Octagon|*
%AMOCTAGOND34*
4,1,8,0.2223,0.6350,-0.2223,0.6350,-0.4445,0.4128,-0.4445,-0.4128,-0.2223,-0.6350,0.2223,-0.6350,0.4445,-0.4128,0.4445,0.4128,0.2223,0.6350,0.0*
%
%ADD34OCTAGOND34*%

%ADD35R,1.1000X1.0000*%
%ADD36R,0.5721X1.5052*%
G04:AMPARAMS|DCode=37|XSize=1.5052mm|YSize=0.5721mm|CornerRadius=0.2861mm|HoleSize=0mm|Usage=FLASHONLY|Rotation=270.000|XOffset=0mm|YOffset=0mm|HoleType=Round|Shape=RoundedRectangle|*
%AMROUNDEDRECTD37*
21,1,1.5052,0.0000,0,0,270.0*
21,1,0.9331,0.5721,0,0,270.0*
1,1,0.5721,0.0000,-0.4666*
1,1,0.5721,0.0000,0.4666*
1,1,0.5721,0.0000,0.4666*
1,1,0.5721,0.0000,-0.4666*
%
%ADD37ROUNDEDRECTD37*%
%ADD38R,1.1640X0.3358*%
G04:AMPARAMS|DCode=39|XSize=1.164mm|YSize=0.3358mm|CornerRadius=0.1679mm|HoleSize=0mm|Usage=FLASHONLY|Rotation=180.000|XOffset=0mm|YOffset=0mm|HoleType=Round|Shape=RoundedRectangle|*
%AMROUNDEDRECTD39*
21,1,1.1640,0.0000,0,0,180.0*
21,1,0.8281,0.3358,0,0,180.0*
1,1,0.3358,-0.4141,0.0000*
1,1,0.3358,0.4141,0.0000*
1,1,0.3358,0.4141,0.0000*
1,1,0.3358,-0.4141,0.0000*
%
%ADD39ROUNDEDRECTD39*%
%ADD40R,0.8890X0.8890*%
%ADD41R,0.7620X0.7620*%
%ADD42R,1.2000X0.3000*%
%ADD43R,0.3000X1.2000*%
G04:AMPARAMS|DCode=44|XSize=1.5052mm|YSize=0.5721mm|CornerRadius=0.2861mm|HoleSize=0mm|Usage=FLASHONLY|Rotation=180.000|XOffset=0mm|YOffset=0mm|HoleType=Round|Shape=RoundedRectangle|*
%AMROUNDEDRECTD44*
21,1,1.5052,0.0000,0,0,180.0*
21,1,0.9331,0.5721,0,0,180.0*
1,1,0.5721,-0.4666,0.0000*
1,1,0.5721,0.4666,0.0000*
1,1,0.5721,0.4666,0.0000*
1,1,0.5721,-0.4666,0.0000*
%
%ADD44ROUNDEDRECTD44*%
%ADD45R,1.5052X0.5721*%
%ADD46R,0.9500X0.6500*%
%ADD47R,1.8000X1.4000*%
%ADD48R,1.2700X0.8890*%
%ADD49R,1.1800X4.7000*%
%ADD50R,1.0500X0.6000*%
%ADD51R,2.3000X2.3000*%
%ADD52O,1.4500X0.6000*%
%ADD53R,1.5748X1.3970*%
%ADD54R,1.7500X2.2000*%
%ADD55R,3.2000X1.6500*%
%ADD56R,6.3500X5.2800*%
%ADD57R,5.3300X5.5900*%
%ADD58R,1.0000X0.8000*%
%ADD59R,11.0000X4.5000*%
%ADD60R,1.1600X0.5900*%
%ADD61R,2.4500X3.3800*%
%ADD62C,0.3150*%
%ADD63R,1.7000X1.7000*%
%ADD64C,1.7000*%
%ADD65C,0.7500*%
%ADD66O,2.0000X1.2000*%
%ADD67O,2.3000X1.2000*%
%ADD68R,1.7000X1.7000*%
%ADD69C,10.0000*%
%ADD70R,2.5000X2.5000*%
%ADD71C,2.5000*%
%ADD72C,6.0000*%
G36*
X550750Y397290D02*
X543452D01*
X542900Y397518D01*
X542478Y397940D01*
X542250Y398492D01*
Y398790D01*
Y399290D01*
Y399588D01*
X542478Y400140D01*
X542900Y400562D01*
X543452Y400790D01*
X550750D01*
Y397290D01*
D02*
G37*
G36*
X510600Y400562D02*
X511022Y400140D01*
X511250Y399588D01*
Y399290D01*
Y398790D01*
Y398492D01*
X511022Y397940D01*
X510600Y397518D01*
X510048Y397290D01*
X502750D01*
Y400790D01*
X510048D01*
X510600Y400562D01*
D02*
G37*
G36*
X550750Y389290D02*
X543750Y389290D01*
X543452D01*
X542900Y389518D01*
X542478Y389940D01*
X542250Y390492D01*
Y390790D01*
Y391290D01*
Y391588D01*
X542478Y392140D01*
X542900Y392562D01*
X543452Y392790D01*
X550750D01*
Y389290D01*
D02*
G37*
G36*
X510600Y392562D02*
X511022Y392140D01*
X511250Y391588D01*
Y391290D01*
Y390790D01*
Y390492D01*
X511022Y389940D01*
X510600Y389518D01*
X510048Y389290D01*
X509750D01*
Y389290D01*
X502750D01*
Y392790D01*
X510048D01*
X510600Y392562D01*
D02*
G37*
G36*
X555981Y242764D02*
X556109Y242738D01*
X556233Y242696D01*
X556351Y242638D01*
X556460Y242565D01*
X556559Y242479D01*
X556645Y242380D01*
X556718Y242271D01*
X556776Y242153D01*
X556818Y242029D01*
X556843Y241901D01*
X556852Y241770D01*
Y236270D01*
X556843Y236139D01*
X556818Y236011D01*
X556776Y235886D01*
X556718Y235769D01*
X556645Y235660D01*
X556559Y235561D01*
X556460Y235475D01*
X556351Y235402D01*
X556233Y235344D01*
X556109Y235302D01*
X555981Y235276D01*
X555850Y235268D01*
X548200D01*
X548069Y235276D01*
X547941Y235302D01*
X547817Y235344D01*
X547699Y235402D01*
X547625Y235452D01*
X547551Y235402D01*
X547434Y235344D01*
X547309Y235302D01*
X547181Y235276D01*
X547050Y235268D01*
X542250D01*
X542119Y235276D01*
X541991Y235302D01*
X541866Y235344D01*
X541749Y235402D01*
X541640Y235475D01*
X541541Y235561D01*
X541455Y235660D01*
X541382Y235769D01*
X541324Y235886D01*
X541282Y236011D01*
X541256Y236139D01*
X541248Y236270D01*
Y241770D01*
X541256Y241901D01*
X541282Y242029D01*
X541324Y242153D01*
X541382Y242271D01*
X541455Y242380D01*
X541541Y242479D01*
X541640Y242565D01*
X541749Y242638D01*
X541866Y242696D01*
X541991Y242738D01*
X542119Y242764D01*
X542250Y242772D01*
X547050D01*
X547181Y242764D01*
X547309Y242738D01*
X547402Y242707D01*
X547434Y242696D01*
X547551Y242638D01*
X547660Y242565D01*
X547725Y242508D01*
X547790Y242565D01*
X547899Y242638D01*
X548017Y242696D01*
X548141Y242738D01*
X548269Y242764D01*
X548400Y242772D01*
X555850D01*
X555981Y242764D01*
D02*
G37*
G36*
X548880Y532200D02*
X503880D01*
Y540100D01*
X512380D01*
Y544800D01*
X503880D01*
Y552800D01*
X512380D01*
Y557500D01*
X503880D01*
Y565500D01*
X512380D01*
Y570200D01*
X503880D01*
Y578200D01*
X548880D01*
Y532200D01*
D02*
G37*
G36*
X568540Y515790D02*
X560040D01*
Y511090D01*
X568540D01*
Y503090D01*
X560040D01*
Y498390D01*
X568540D01*
Y490390D01*
X560040D01*
Y485690D01*
X568540D01*
Y477690D01*
X523540D01*
Y523690D01*
X568540D01*
Y515790D01*
D02*
G37*
G36*
X550750Y413290D02*
X543452D01*
X542900Y413518D01*
X542478Y413940D01*
X542250Y414492D01*
Y414790D01*
Y415290D01*
Y415588D01*
X542478Y416140D01*
X542900Y416562D01*
X543452Y416790D01*
X543750D01*
Y416790D01*
X550750D01*
Y413290D01*
D02*
G37*
G36*
X509750Y416790D02*
X510048D01*
X510600Y416562D01*
X511022Y416140D01*
X511250Y415588D01*
Y415290D01*
Y414790D01*
Y414492D01*
X511022Y413940D01*
X510600Y413518D01*
X510048Y413290D01*
X502750D01*
Y416790D01*
X509750Y416790D01*
D02*
G37*
G36*
X550750Y405290D02*
X543452D01*
X542900Y405518D01*
X542478Y405940D01*
X542250Y406492D01*
Y406790D01*
Y407290D01*
Y407588D01*
X542478Y408140D01*
X542900Y408562D01*
X543452Y408790D01*
X550750D01*
Y405290D01*
D02*
G37*
G36*
X510600Y408562D02*
X511022Y408140D01*
X511250Y407588D01*
Y407290D01*
Y406790D01*
Y406492D01*
X511022Y405940D01*
X510600Y405518D01*
X510048Y405290D01*
X502750D01*
Y408790D01*
X510048D01*
X510600Y408562D01*
D02*
G37*
G36*
X766660Y571670D02*
X758160D01*
Y566970D01*
X766660D01*
Y558970D01*
X758160D01*
Y554270D01*
X766660D01*
Y546270D01*
X758160D01*
Y541570D01*
X766660D01*
Y533570D01*
X721660D01*
Y579570D01*
X766660D01*
Y571670D01*
D02*
G37*
G36*
X748270Y478860D02*
X703270D01*
Y486760D01*
X711770D01*
Y491460D01*
X703270D01*
Y499460D01*
X711770D01*
Y504160D01*
X703270D01*
Y512160D01*
X711770D01*
Y516860D01*
X703270D01*
Y524860D01*
X748270D01*
Y478860D01*
D02*
G37*
G36*
X768870Y413290D02*
X761572D01*
X761020Y413518D01*
X760598Y413940D01*
X760370Y414492D01*
Y414790D01*
Y415290D01*
Y415588D01*
X760598Y416140D01*
X761020Y416562D01*
X761572Y416790D01*
X761870D01*
Y416790D01*
X768870D01*
Y413290D01*
D02*
G37*
G36*
X727870Y416790D02*
X728168D01*
X728720Y416562D01*
X729142Y416140D01*
X729370Y415588D01*
Y415290D01*
Y414790D01*
Y414492D01*
X729142Y413940D01*
X728720Y413518D01*
X728168Y413290D01*
X720870D01*
Y416790D01*
X727870Y416790D01*
D02*
G37*
G36*
X768870Y405290D02*
X761572D01*
X761020Y405518D01*
X760598Y405940D01*
X760370Y406492D01*
Y406790D01*
Y407290D01*
Y407588D01*
X760598Y408140D01*
X761020Y408562D01*
X761572Y408790D01*
X768870D01*
Y405290D01*
D02*
G37*
G36*
X728720Y408562D02*
X729142Y408140D01*
X729370Y407588D01*
Y407290D01*
Y406790D01*
Y406492D01*
X729142Y405940D01*
X728720Y405518D01*
X728168Y405290D01*
X720870D01*
Y408790D01*
X728168D01*
X728720Y408562D01*
D02*
G37*
G36*
X768870Y397290D02*
X761572D01*
X761020Y397518D01*
X760598Y397940D01*
X760370Y398492D01*
Y398790D01*
Y399290D01*
Y399588D01*
X760598Y400140D01*
X761020Y400562D01*
X761572Y400790D01*
X768870D01*
Y397290D01*
D02*
G37*
G36*
X728720Y400562D02*
X729142Y400140D01*
X729370Y399588D01*
Y399290D01*
Y398790D01*
Y398492D01*
X729142Y397940D01*
X728720Y397518D01*
X728168Y397290D01*
X720870D01*
Y400790D01*
X728168D01*
X728720Y400562D01*
D02*
G37*
G36*
X768870Y389290D02*
X761870Y389290D01*
X761572D01*
X761020Y389518D01*
X760598Y389940D01*
X760370Y390492D01*
Y390790D01*
Y391290D01*
Y391588D01*
X760598Y392140D01*
X761020Y392562D01*
X761572Y392790D01*
X768870D01*
Y389290D01*
D02*
G37*
G36*
X728720Y392562D02*
X729142Y392140D01*
X729370Y391588D01*
Y391290D01*
Y390790D01*
Y390492D01*
X729142Y389940D01*
X728720Y389518D01*
X728168Y389290D01*
X727870D01*
Y389290D01*
X720870D01*
Y392790D01*
X728168D01*
X728720Y392562D01*
D02*
G37*
G36*
X1040391Y302453D02*
X1040519Y302428D01*
X1040643Y302386D01*
X1040761Y302328D01*
X1040870Y302255D01*
X1040969Y302169D01*
X1041055Y302070D01*
X1041128Y301961D01*
X1041186Y301843D01*
X1041228Y301719D01*
X1041254Y301591D01*
X1041262Y301460D01*
Y295960D01*
X1041254Y295829D01*
X1041228Y295701D01*
X1041186Y295576D01*
X1041128Y295459D01*
X1041055Y295350D01*
X1040969Y295251D01*
X1040870Y295165D01*
X1040761Y295092D01*
X1040643Y295034D01*
X1040519Y294992D01*
X1040391Y294966D01*
X1040260Y294958D01*
X1032610D01*
X1032479Y294966D01*
X1032351Y294992D01*
X1032226Y295034D01*
X1032109Y295092D01*
X1032035Y295142D01*
X1031961Y295092D01*
X1031843Y295034D01*
X1031719Y294992D01*
X1031591Y294966D01*
X1031460Y294958D01*
X1026660D01*
X1026529Y294966D01*
X1026401Y294992D01*
X1026276Y295034D01*
X1026159Y295092D01*
X1026050Y295165D01*
X1025951Y295251D01*
X1025865Y295350D01*
X1025792Y295459D01*
X1025734Y295576D01*
X1025692Y295701D01*
X1025667Y295829D01*
X1025658Y295960D01*
Y301460D01*
X1025667Y301591D01*
X1025692Y301719D01*
X1025734Y301843D01*
X1025792Y301961D01*
X1025865Y302070D01*
X1025951Y302169D01*
X1026050Y302255D01*
X1026159Y302328D01*
X1026276Y302386D01*
X1026401Y302428D01*
X1026529Y302453D01*
X1026660Y302462D01*
X1031460D01*
X1031591Y302453D01*
X1031719Y302428D01*
X1031812Y302397D01*
X1031843Y302386D01*
X1031961Y302328D01*
X1032070Y302255D01*
X1032135Y302198D01*
X1032200Y302255D01*
X1032309Y302328D01*
X1032427Y302386D01*
X1032551Y302428D01*
X1032679Y302453D01*
X1032810Y302462D01*
X1040260D01*
X1040391Y302453D01*
D02*
G37*
D22*
X993484Y355984D02*
D03*
X988484D02*
D03*
X983484D02*
D03*
X978484D02*
D03*
X973484D02*
D03*
X968484D02*
D03*
X963484D02*
D03*
X958484D02*
D03*
X953484D02*
D03*
X948484D02*
D03*
X943484D02*
D03*
X938484D02*
D03*
Y275484D02*
D03*
X943484D02*
D03*
X948484D02*
D03*
X953484D02*
D03*
X958484D02*
D03*
X963484D02*
D03*
X968484D02*
D03*
X973484D02*
D03*
X978484D02*
D03*
X983484D02*
D03*
X988484D02*
D03*
X993484D02*
D03*
D23*
X925734Y343234D02*
D03*
Y338234D02*
D03*
Y333234D02*
D03*
Y328234D02*
D03*
Y323234D02*
D03*
Y318234D02*
D03*
Y313234D02*
D03*
Y308234D02*
D03*
Y303234D02*
D03*
Y298234D02*
D03*
Y293234D02*
D03*
Y288234D02*
D03*
X1006234D02*
D03*
Y293234D02*
D03*
Y298234D02*
D03*
Y303234D02*
D03*
Y308234D02*
D03*
Y313234D02*
D03*
Y318234D02*
D03*
Y323234D02*
D03*
Y328234D02*
D03*
Y333234D02*
D03*
Y338234D02*
D03*
Y343234D02*
D03*
D24*
X1028971Y384879D02*
D03*
Y393379D02*
D03*
X1015001Y384879D02*
D03*
Y393379D02*
D03*
X1000999Y397501D02*
D03*
X1001000Y406500D02*
D03*
X944000Y389500D02*
D03*
X944001Y398499D02*
D03*
X925999Y385771D02*
D03*
X926000Y394770D02*
D03*
X913299Y385771D02*
D03*
Y394271D02*
D03*
X900599Y385771D02*
D03*
X900600Y394770D02*
D03*
X887899Y385771D02*
D03*
Y394271D02*
D03*
X926101Y242639D02*
D03*
Y251139D02*
D03*
X961661Y242639D02*
D03*
Y251139D02*
D03*
X988001Y242999D02*
D03*
Y251499D02*
D03*
X975301Y242999D02*
D03*
Y251499D02*
D03*
X1003001D02*
D03*
X1003000Y242500D02*
D03*
X1003571Y183559D02*
D03*
Y192059D02*
D03*
X1031509Y178861D02*
D03*
Y170361D02*
D03*
X1017539Y178861D02*
D03*
Y170361D02*
D03*
X1017540Y155810D02*
D03*
Y147310D02*
D03*
X945150Y153540D02*
D03*
Y145040D02*
D03*
X689000Y167500D02*
D03*
X689001Y176499D02*
D03*
X673370Y167210D02*
D03*
X673371Y176209D02*
D03*
X648000Y163500D02*
D03*
X648001Y172499D02*
D03*
X591000Y164500D02*
D03*
X590999Y155501D02*
D03*
X724169Y93551D02*
D03*
X724170Y102550D02*
D03*
X664479Y91891D02*
D03*
Y83391D02*
D03*
X607329Y91891D02*
D03*
Y83391D02*
D03*
X552719Y91891D02*
D03*
Y83391D02*
D03*
X476519Y283661D02*
D03*
Y275161D02*
D03*
X476521Y250259D02*
D03*
Y258759D02*
D03*
X531000Y265500D02*
D03*
X530999Y256501D02*
D03*
X517160Y200920D02*
D03*
X517161Y209919D02*
D03*
X785130Y206690D02*
D03*
X785129Y197691D02*
D03*
X824499Y282391D02*
D03*
Y273891D02*
D03*
X825001Y248999D02*
D03*
Y257499D02*
D03*
X768000Y273500D02*
D03*
X768001Y282499D02*
D03*
X598440Y355280D02*
D03*
X598439Y346281D02*
D03*
X226999Y84501D02*
D03*
X227000Y93500D02*
D03*
X223790Y173560D02*
D03*
X223791Y182559D02*
D03*
X288560Y173560D02*
D03*
X288561Y182559D02*
D03*
X297450Y315800D02*
D03*
X297451Y324799D02*
D03*
X1013731Y528909D02*
D03*
Y537409D02*
D03*
X999761Y528161D02*
D03*
X999762Y537160D02*
D03*
X778001Y513999D02*
D03*
Y522499D02*
D03*
X691149Y544011D02*
D03*
Y535511D02*
D03*
X493029Y488131D02*
D03*
Y479631D02*
D03*
X578121Y567759D02*
D03*
Y576259D02*
D03*
X277130Y528161D02*
D03*
X277131Y537160D02*
D03*
X263161Y528909D02*
D03*
Y537409D02*
D03*
D25*
X982500Y389500D02*
D03*
X961500D02*
D03*
Y406500D02*
D03*
X982500D02*
D03*
X630530Y172590D02*
D03*
X609530D02*
D03*
Y155590D02*
D03*
X630530D02*
D03*
D26*
X898849Y368559D02*
D03*
X890349D02*
D03*
Y355859D02*
D03*
X898849D02*
D03*
X890349Y343159D02*
D03*
X898849D02*
D03*
X1028281Y359671D02*
D03*
X1037280Y359670D02*
D03*
X1028281Y343161D02*
D03*
X1037280Y343160D02*
D03*
X1036781Y322841D02*
D03*
X1028281D02*
D03*
X898849Y288549D02*
D03*
X889850Y288550D02*
D03*
X1121501Y239001D02*
D03*
X1130001D02*
D03*
X1121999Y209999D02*
D03*
X1130499D02*
D03*
X947881Y250451D02*
D03*
X939381D02*
D03*
X567769Y177999D02*
D03*
X558770Y178000D02*
D03*
X503001Y236001D02*
D03*
X494501D02*
D03*
X494999Y298999D02*
D03*
X503499D02*
D03*
X553641Y252991D02*
D03*
X545141D02*
D03*
X541870Y225050D02*
D03*
X550869Y225049D02*
D03*
X728670Y272040D02*
D03*
X719671Y272041D02*
D03*
X728670Y286010D02*
D03*
X719671Y286011D02*
D03*
X728670Y299980D02*
D03*
X719671Y299981D02*
D03*
X806001Y234001D02*
D03*
X797501D02*
D03*
X796999Y296999D02*
D03*
X805499D02*
D03*
X797379Y378549D02*
D03*
X788380Y378550D02*
D03*
X788381Y391251D02*
D03*
X796881D02*
D03*
X797379Y403949D02*
D03*
X788380Y403950D02*
D03*
X788381Y416651D02*
D03*
X796881D02*
D03*
X788381Y429351D02*
D03*
X796881D02*
D03*
X702021Y386171D02*
D03*
X711020Y386170D02*
D03*
X711019Y398869D02*
D03*
X702519D02*
D03*
X562190Y420630D02*
D03*
X571189Y420629D02*
D03*
X571001Y408001D02*
D03*
X562501D02*
D03*
X472519Y429519D02*
D03*
X481019D02*
D03*
X481020Y416820D02*
D03*
X472021Y416821D02*
D03*
X472519Y404119D02*
D03*
X481019D02*
D03*
X481020Y391420D02*
D03*
X472021Y391421D02*
D03*
X472519Y378719D02*
D03*
X481019D02*
D03*
X274009Y122179D02*
D03*
X265509D02*
D03*
X248609Y136149D02*
D03*
X239610Y136150D02*
D03*
X248609Y122179D02*
D03*
X240109D02*
D03*
X258770Y214890D02*
D03*
X249771Y214891D02*
D03*
X227250Y370730D02*
D03*
X218750D02*
D03*
X196720D02*
D03*
X205220D02*
D03*
X197120Y354590D02*
D03*
X205620D02*
D03*
X196430Y340620D02*
D03*
X205429Y340619D02*
D03*
X196680Y326650D02*
D03*
X205180D02*
D03*
D27*
X1099310Y308600D02*
D03*
X1128810D02*
D03*
D28*
X1097810Y281930D02*
D03*
X1130310D02*
D03*
D29*
X1151605Y189539D02*
D03*
Y192539D02*
D03*
X1151631Y197540D02*
D03*
Y200540D02*
D03*
X1151586Y210540D02*
D03*
X1151609Y215538D02*
D03*
X1151590Y220540D02*
D03*
X1151605Y225539D02*
D03*
X1151590Y230540D02*
D03*
Y240539D02*
D03*
X1151590Y245539D02*
D03*
Y248541D02*
D03*
X1151590Y253540D02*
D03*
Y256539D02*
D03*
D30*
X1151591Y205540D02*
D03*
X1151590Y235539D02*
D03*
D31*
X1097677Y256530D02*
D03*
X1130443D02*
D03*
D32*
X1001030Y148850D02*
D03*
Y167850D02*
D03*
X978350Y158350D02*
D03*
D33*
X927625Y149539D02*
D03*
X680925Y89161D02*
D03*
X623840Y89160D02*
D03*
X568468D02*
D03*
D34*
X927625Y167319D02*
D03*
X680925Y106941D02*
D03*
X623840Y106940D02*
D03*
X568468D02*
D03*
D35*
X781320Y86620D02*
D03*
X741320D02*
D03*
X781320Y110620D02*
D03*
X741320D02*
D03*
D36*
X513740Y278124D02*
D03*
X787280Y254526D02*
D03*
D37*
X504240Y278124D02*
D03*
X494740D02*
D03*
Y256114D02*
D03*
X513740D02*
D03*
X796780Y254526D02*
D03*
X806280D02*
D03*
Y276536D02*
D03*
X787280D02*
D03*
D38*
X496740Y197180D02*
D03*
X805450Y210180D02*
D03*
D39*
X496740Y203680D02*
D03*
Y210180D02*
D03*
X481338D02*
D03*
Y203680D02*
D03*
Y197180D02*
D03*
X805450Y203680D02*
D03*
Y197180D02*
D03*
X820852D02*
D03*
Y203680D02*
D03*
Y210180D02*
D03*
D40*
X722900Y255530D02*
D03*
X740680D02*
D03*
D41*
X694939Y417919D02*
D03*
X707939D02*
D03*
X564001Y388881D02*
D03*
X577001D02*
D03*
D42*
X578500Y224260D02*
D03*
Y229260D02*
D03*
Y234260D02*
D03*
Y239260D02*
D03*
Y244260D02*
D03*
Y249260D02*
D03*
Y254260D02*
D03*
Y259260D02*
D03*
Y264260D02*
D03*
Y269260D02*
D03*
Y274260D02*
D03*
Y279260D02*
D03*
Y284260D02*
D03*
Y289260D02*
D03*
Y294260D02*
D03*
Y299260D02*
D03*
X693500D02*
D03*
Y294260D02*
D03*
Y289260D02*
D03*
Y284260D02*
D03*
Y279260D02*
D03*
Y274260D02*
D03*
Y269260D02*
D03*
Y264260D02*
D03*
Y259260D02*
D03*
Y254260D02*
D03*
Y249260D02*
D03*
Y244260D02*
D03*
Y239260D02*
D03*
Y234260D02*
D03*
Y229260D02*
D03*
Y224260D02*
D03*
D43*
X598500Y319260D02*
D03*
X603500D02*
D03*
X608500D02*
D03*
X613500D02*
D03*
X618500D02*
D03*
X623500D02*
D03*
X628500D02*
D03*
X633500D02*
D03*
X638500D02*
D03*
X643500D02*
D03*
X648500D02*
D03*
X653500D02*
D03*
X658500D02*
D03*
X663500D02*
D03*
X668500D02*
D03*
X673500D02*
D03*
Y204260D02*
D03*
X668500D02*
D03*
X663500D02*
D03*
X658500D02*
D03*
X653500D02*
D03*
X648500D02*
D03*
X643500D02*
D03*
X638500D02*
D03*
X633500D02*
D03*
X628500D02*
D03*
X623500D02*
D03*
X618500D02*
D03*
X613500D02*
D03*
X608500D02*
D03*
X603500D02*
D03*
X598500D02*
D03*
D44*
X245964Y84960D02*
D03*
Y103960D02*
D03*
X267974D02*
D03*
Y94460D02*
D03*
D45*
Y84960D02*
D03*
D46*
X269756Y183320D02*
D03*
Y164320D02*
D03*
X242256D02*
D03*
Y173820D02*
D03*
Y183320D02*
D03*
D47*
X282210Y232370D02*
D03*
Y258370D02*
D03*
D48*
X382541Y309479D02*
D03*
Y290479D02*
D03*
X407941Y309479D02*
D03*
Y290479D02*
D03*
D49*
X354640Y334270D02*
D03*
X321540D02*
D03*
D50*
X229590Y252330D02*
D03*
Y242830D02*
D03*
Y233330D02*
D03*
X256090D02*
D03*
Y252330D02*
D03*
D51*
X250460Y333000D02*
D03*
D52*
X223210Y352050D02*
D03*
Y339350D02*
D03*
Y326650D02*
D03*
Y313950D02*
D03*
X277710Y352050D02*
D03*
Y339350D02*
D03*
Y326650D02*
D03*
Y313950D02*
D03*
D53*
X167910Y285980D02*
D03*
Y314480D02*
D03*
X134890Y285980D02*
D03*
Y314480D02*
D03*
X976900Y547411D02*
D03*
Y518910D02*
D03*
X299990Y547411D02*
D03*
Y518910D02*
D03*
D54*
X170450Y391560D02*
D03*
Y345560D02*
D03*
X131080Y391560D02*
D03*
Y345560D02*
D03*
X1048020Y637940D02*
D03*
Y591940D02*
D03*
X230140Y592033D02*
D03*
Y638032D02*
D03*
D55*
X1048020Y503159D02*
D03*
Y562659D02*
D03*
X230140Y563159D02*
D03*
Y503659D02*
D03*
D56*
X635300Y840374D02*
D03*
D57*
X686050Y619624D02*
D03*
X584550D02*
D03*
D58*
X762270Y520960D02*
D03*
Y508260D02*
D03*
Y495560D02*
D03*
Y482860D02*
D03*
X707660Y537470D02*
D03*
Y550170D02*
D03*
Y562870D02*
D03*
Y575570D02*
D03*
X509540Y481590D02*
D03*
Y494290D02*
D03*
Y506990D02*
D03*
Y519690D02*
D03*
X562880Y574300D02*
D03*
Y561600D02*
D03*
Y548900D02*
D03*
Y536200D02*
D03*
D59*
X869000Y811500D02*
D03*
D60*
X1151600Y247050D02*
D03*
D61*
X744870Y403040D02*
D03*
X526750Y403040D02*
D03*
D62*
X764620Y415040D02*
D03*
Y407040D02*
D03*
Y399040D02*
D03*
Y391040D02*
D03*
X725120D02*
D03*
Y399040D02*
D03*
Y407040D02*
D03*
Y415040D02*
D03*
X507000Y391040D02*
D03*
Y399040D02*
D03*
Y407040D02*
D03*
Y415040D02*
D03*
X546500D02*
D03*
Y407040D02*
D03*
Y399040D02*
D03*
Y391040D02*
D03*
D63*
X1189000Y324900D02*
D03*
X826000Y404000D02*
D03*
X664480Y404120D02*
D03*
X607330D02*
D03*
X395240Y346970D02*
D03*
X1048020Y678440D02*
D03*
X661940Y528580D02*
D03*
X611140D02*
D03*
X230140Y679710D02*
D03*
X292370Y472700D02*
D03*
X444770Y404120D02*
D03*
D64*
X1189000Y350300D02*
D03*
Y375700D02*
D03*
Y401100D02*
D03*
X414290Y139960D02*
D03*
X465090D02*
D03*
X439690D02*
D03*
D65*
X1164590Y194141D02*
D03*
Y251941D02*
D03*
D66*
X1201090Y178040D02*
D03*
X1201090Y268041D02*
D03*
D67*
X1159590Y268039D02*
D03*
X1159590Y178039D02*
D03*
D68*
X388890Y139960D02*
D03*
X315230Y95510D02*
D03*
Y172980D02*
D03*
Y242830D02*
D03*
D69*
X1140730Y679710D02*
D03*
Y548900D02*
D03*
X139970D02*
D03*
Y679710D02*
D03*
D70*
X870601Y574300D02*
D03*
X401590D02*
D03*
D71*
X870601Y498300D02*
D03*
X401590D02*
D03*
D72*
X1168200Y115000D02*
D03*
Y830400D02*
D03*
X112500Y115000D02*
D03*
Y830400D02*
D03*
M02*
