G04*
G04 #@! TF.GenerationSoftware,Altium Limited,Altium Designer,24.7.2 (38)*
G04*
G04 Layer_Color=32768*
%FSLAX44Y44*%
%MOMM*%
G71*
G04*
G04 #@! TF.SameCoordinates,1A42ED2C-D2DC-4C4E-9266-FAA71F5D9F86*
G04*
G04*
G04 #@! TF.FilePolarity,Positive*
G04*
G01*
G75*
%ADD12C,0.1000*%
%ADD14C,0.2000*%
%ADD95C,0.0500*%
D12*
X1114060Y303600D02*
Y313600D01*
X1109060Y308600D02*
X1119060D01*
X1114060Y276930D02*
Y286930D01*
X1109060Y281930D02*
X1119060D01*
D14*
X521240Y246088D02*
Y288150D01*
X487240Y246088D02*
X521240D01*
X487240D02*
Y288150D01*
X521240D01*
X474519Y192680D02*
X503560D01*
X474519D02*
Y214680D01*
X503560D01*
Y192680D02*
Y214680D01*
X798630D02*
X827672D01*
Y192680D02*
Y214680D01*
X798630Y192680D02*
X827672D01*
X798630D02*
Y214680D01*
X779780Y244500D02*
Y286562D01*
X813780D01*
Y244500D02*
Y286562D01*
X779780Y244500D02*
X813780D01*
X719870Y381540D02*
Y424540D01*
Y381540D02*
X769870D01*
Y424540D01*
X719870D02*
X769870D01*
X571500Y197260D02*
X700500D01*
Y326260D01*
X571500D02*
X700500D01*
X571500Y197260D02*
Y326260D01*
X278000Y77460D02*
Y111460D01*
X235938D02*
X278000D01*
X235938Y77460D02*
Y111460D01*
Y77460D02*
X278000D01*
X272210Y224370D02*
Y266370D01*
X292210D01*
Y224370D02*
Y266370D01*
X272210Y224370D02*
X292210D01*
X309690Y304870D02*
Y363670D01*
Y304870D02*
X366490D01*
Y363670D01*
X309690D02*
X366490D01*
X551750Y381540D02*
Y424540D01*
X501750D02*
X551750D01*
X501750Y381540D02*
Y424540D01*
Y381540D02*
X551750D01*
D95*
X1091060Y320100D02*
X1137060D01*
X1091060Y297100D02*
X1137060D01*
X1091060D02*
Y320100D01*
X1137060Y297100D02*
Y320100D01*
X1091060Y293430D02*
X1137060D01*
X1091060Y270430D02*
X1137060D01*
X1091060D02*
Y293430D01*
X1137060Y270430D02*
Y293430D01*
M02*
