M48
;Layer_Color=9474304
;FILE_FORMAT=4:4
METRIC,LZ
;TYPE=PLATED
T01F00S00C0.3000
T04F00S00C0.9000
T05F00S00C1.0000
T06F00S00C1.4000
T07F00S00C3.2000
T08F00S00C6.0000
;TYPE=NON_PLATED
T09F00S00C0.7500
%
T01
X00219Y00084
X0027932Y00094563
X00544Y00084
X00599Y00083
X00656Y00084
X00716Y00093
X00818Y00098
X00858
X00898
X00938
X00978
X01018
X01058
X01098
X01118Y00138
X01078
X01038
X01018Y0014
X00998Y00138
X00958
X00945Y00138
X00918Y00138
X00878
X00838
X00818Y00178
X00833Y00197
Y00204
X00858Y00178
X00878Y00218
X00918
X0093Y00219
X00934243Y00214757
X00938Y00178
X00978
X00967Y00158
X01017Y00187
X01031526Y00187614
X01058Y00178
X01098
X01138
X01142Y00191
X01114Y0021
X01118Y00218
X01114Y00239
X01143Y00255
X01178Y00258
X01158Y00298
X01141Y00309
X01138Y00338
X01098
X01084Y00312
Y00302
Y00292
Y00282
X01118Y00298
X01045Y00299
X01044Y00323
X01045Y00343
Y0036
X01038Y00378
X01029Y00401
X01015
X01007Y00398
X01006617Y00414383
X01018Y00418
X00995541Y00419
X00981
X00962
X0095
X00938Y00418
X00936423Y00405058
X00926Y00403
X00913Y00402
X00901
X00888
X00898Y00418
X009Y00378
X00918Y00378
X0093619Y00384351
X00944842Y00381617
X00958Y00378
X00963Y00374
X00979Y00375
X00991
X00998Y00378
X00995Y00387
X01019Y0036
Y00344
Y00337
X01058Y00338
Y00418
X01098
X01138
X01178
X01038Y00458
X00998
X00958
X00947809Y00406809
X00952Y0034
X00958511Y00340303
X00978Y00338
X00938
X00913Y00308
X0091Y00296
Y00288
X00882
X00878Y00298
X00838
X00833Y00269
Y00261
X00818Y00258
X00898
X00926Y00259
X00943517Y00261344
X0099Y00259
X01003Y00261
X01011Y00242
X00998Y00218
X0099Y00219
X01038Y00218
X01078
X01058Y00258
X01019Y00293
X009885Y00291
X00982
X00958Y00298
X00882Y00369
X00878Y00378
Y00458
X00838
X01178Y00178
X00794Y00198
Y00208
X0079Y00234
X00778Y00258
X00768Y00267
X00771Y00291
X00736Y00286
Y00272
X0074Y00264
X00736Y003
X00709
X00684Y00294
X00678Y00298
X00684Y00274
X00658Y00258
X00618
X0059Y00227
X00565Y00232
X00558Y00218
X00534Y00225
X00518Y00218
X00525Y0021
Y00201
X00551Y00193
X0055127Y00178
X00543Y00182
X00538Y00178
X00576Y00183
X00581Y00176
Y00167
Y00155
X00587Y00146
X00598Y00144
X00612Y00143
X00627
X00642
X00638Y00138
X00646Y00155
X00657Y00163
Y00173
X00648Y00181
X00650493Y00188484
X00639Y00188
X00629
X00609
X00596Y00183
X00592Y00174
X00582Y00128
X00569Y00123
X00558Y00138
X00518
X00478
X00458Y00178
X0047Y00204
Y0021
X00478Y00218
X00491Y00188
X00418Y00178
Y00258
X00469Y00264
Y0027
X00478Y00298
X00511Y00299
X00518Y00298
X00531Y00273
X00538Y00258
X00545Y00261
X00531Y00249
X00558Y00298
X00589Y0029976
Y0029376
X00603Y0031
X00598Y00331
X00613Y0033
X00619
X00623Y00345397
X00629
X00658Y00338
X00698
X00738
X00778
X00777Y00391
Y00399
Y00407
X0075287Y0040704
Y0039904
X0074487
Y0040704
Y0041504
X0075287
X0073687
Y0040704
Y0039904
Y0039104
X0074487
X0075287
X00718Y00378
X00711Y00378
X00678Y00378
X00694Y00398
X00684Y00425
X00708Y00429
X00721Y00471
X00678Y00458
X00638
X00598
X00579Y00408
X00577Y00378
X00564
X00558Y00378
X0053475Y0039104
X0052675
Y0039904
Y0040704
Y0041504
X0051875
Y0040704
Y0039904
Y0039104
X00518Y00378
X0053475Y0039904
Y0040704
Y0041504
X00496Y00415
Y00407
Y00398
X00466Y00404
X00465Y00417
Y00429
Y00391
Y00379
X00438Y00378
X00418Y00418
X00438Y00458
X005095Y00472
X00498Y00338
X00538
X00578
X00598Y00362
X00598Y00378
X00638
Y00218
X00651Y00215
X00659
X00669
X00678Y00218
X00663Y00194
X00673Y0016
X00689
X00697Y00177
X00738Y00178
X00758Y00138
X00798
X00778Y00098
X00738
X00698
X00696Y00127
X00678Y00138
X00655Y00127
X00658Y00098
X00578
X00538
X00498
X00718Y00138
Y00218
X00709Y0023
X00804Y00379
Y00391
Y00404
Y00416
X00796405Y00438149
X00458Y00338
X00438Y00298
X0041Y00276
X004
X0039
X0038
X0037
X0036
X00364Y0029
X00336
X0031
X00286
X00263Y00298
X00238Y00298
X00224Y00303
X00214Y00285
X00193
X00178Y00268
X00168
X00158
X00148
X00138
X00128
X00138Y00258
X00178
X00206Y0025
Y0024
X00216
Y0025
X00231Y00223
Y00213
X00241
Y00223
X00274Y00214
X00284
X00318Y00218
X00358
X0035Y00243
Y00253
X0034
Y00243
Y00177
Y00167
X0035
Y00177
X00378Y00178
X00358Y00138
X00318
X00278
X00282Y00122
X00232
Y00136
X00198Y00138
X00201Y00159
Y00169
X00211
Y00159
Y00187
Y00197
X00201
Y00187
X00178Y00178
X00138
X00098
X00118Y00218
X00158
X00198
X00189Y00327
X0019Y00355
X00197Y00379
X00158Y00378
X00118
X00131Y00409
X0017Y0041
X00178Y00418
X00218
X00258
X00298
X00338
X00378
X00398Y00458
Y00378
X00358
X00377Y00325
X00387
X00397
X00407
X00298Y00338
X00291Y0034
X0025596Y003385
Y003275
X0024496
Y003385
X00238Y00378
X00278
Y00458
X00318
X00098Y00418
Y00338
Y00258
X00158Y00138
X00178Y00098
X00218
X00227Y00101
X00288Y00166
X00298Y00498
X00338
X00378
X00258
X0023014Y00528659
X0023Y00541
X00418Y00498
X00458
X00498
X00563Y00584
X00638Y00618
X00718
X00691Y00528
X00638Y00538
X00778Y0053
X00778Y00498
X00818
X00898
X00978
X01018
X0104793Y00525788
X01048Y0054
T04
X01189Y003249
Y003503
Y003757
Y004011
X0046509Y0013996
X0043969
X0041429
X0038889
T05
X00826Y00404
X0066448Y0040412
X0060733
X0044477
X0039524Y0034697
X0031523Y0024283
Y0017298
Y0009551
X0029237Y004727
X0023014Y0067971
X0061114Y0052858
X0066194
X0104802Y0067844
T06
X0040159Y004983
Y005743
X00870601
Y004983
T07
X011682Y00115
X001125
Y008304
X011682
T08
X0013997Y005489
Y0067971
X0114073
Y005489
T09
X0116459Y00194141
Y00251941
M30
