G04*
G04 #@! TF.GenerationSoftware,Altium Limited,Altium Designer,24.7.2 (38)*
G04*
G04 Layer_Color=255*
%FSLAX44Y44*%
%MOMM*%
G71*
G04*
G04 #@! TF.SameCoordinates,1A42ED2C-D2DC-4C4E-9266-FAA71F5D9F86*
G04*
G04*
G04 #@! TF.FilePolarity,Positive*
G04*
G01*
G75*
%ADD63R,1.7000X1.7000*%
%ADD64C,1.7000*%
%ADD65C,0.7500*%
%ADD66O,2.0000X1.2000*%
%ADD67O,2.3000X1.2000*%
%ADD68R,1.7000X1.7000*%
%ADD69C,10.0000*%
%ADD70R,2.5000X2.5000*%
%ADD71C,2.5000*%
%ADD72C,6.0000*%
D63*
X1189000Y324900D02*
D03*
X826000Y404000D02*
D03*
X664480Y404120D02*
D03*
X607330D02*
D03*
X395240Y346970D02*
D03*
X1048020Y678440D02*
D03*
X661940Y528580D02*
D03*
X611140D02*
D03*
X230140Y679710D02*
D03*
X292370Y472700D02*
D03*
X444770Y404120D02*
D03*
D64*
X1189000Y350300D02*
D03*
Y375700D02*
D03*
Y401100D02*
D03*
X414290Y139960D02*
D03*
X465090D02*
D03*
X439690D02*
D03*
D65*
X1164590Y194141D02*
D03*
Y251941D02*
D03*
D66*
X1201090Y178040D02*
D03*
X1201090Y268041D02*
D03*
D67*
X1159590Y268039D02*
D03*
X1159590Y178039D02*
D03*
D68*
X388890Y139960D02*
D03*
X315230Y95510D02*
D03*
Y172980D02*
D03*
Y242830D02*
D03*
D69*
X1140730Y679710D02*
D03*
Y548900D02*
D03*
X139970D02*
D03*
Y679710D02*
D03*
D70*
X870601Y574300D02*
D03*
X401590D02*
D03*
D71*
X870601Y498300D02*
D03*
X401590D02*
D03*
D72*
X1168200Y115000D02*
D03*
Y830400D02*
D03*
X112500Y115000D02*
D03*
Y830400D02*
D03*
M02*
