G04*
G04 #@! TF.GenerationSoftware,Altium Limited,Altium Designer,24.7.2 (38)*
G04*
G04 Layer_Color=16711935*
%FSLAX44Y44*%
%MOMM*%
G71*
G04*
G04 #@! TF.SameCoordinates,1A42ED2C-D2DC-4C4E-9266-FAA71F5D9F86*
G04*
G04*
G04 #@! TF.FilePolarity,Positive*
G04*
G01*
G75*
%ADD14C,0.2000*%
D14*
X521240Y246088D02*
Y288150D01*
X487240Y246088D02*
X521240D01*
X487240D02*
Y288150D01*
X521240D01*
X474519Y192680D02*
X503560D01*
X474519D02*
Y214680D01*
X503560D01*
Y192680D02*
Y214680D01*
X798630D02*
X827672D01*
Y192680D02*
Y214680D01*
X798630Y192680D02*
X827672D01*
X798630D02*
Y214680D01*
X779780Y244500D02*
Y286562D01*
X813780D01*
Y244500D02*
Y286562D01*
X779780Y244500D02*
X813780D01*
X719870Y381540D02*
Y424540D01*
Y381540D02*
X769870D01*
Y424540D01*
X719870D02*
X769870D01*
X571500Y197260D02*
X700500D01*
Y326260D01*
X571500D02*
X700500D01*
X571500Y197260D02*
Y326260D01*
X278000Y77460D02*
Y111460D01*
X235938D02*
X278000D01*
X235938Y77460D02*
Y111460D01*
Y77460D02*
X278000D01*
X272210Y224370D02*
Y266370D01*
X292210D01*
Y224370D02*
Y266370D01*
X272210Y224370D02*
X292210D01*
X309690Y304870D02*
Y363670D01*
Y304870D02*
X366490D01*
Y363670D01*
X309690D02*
X366490D01*
X551750Y381540D02*
Y424540D01*
X501750D02*
X551750D01*
X501750Y381540D02*
Y424540D01*
Y381540D02*
X551750D01*
X514354Y265119D02*
X506024D01*
X504358Y263453D01*
Y260121D01*
X506024Y258454D01*
X514354D01*
X506024Y255122D02*
X504358Y253456D01*
Y250124D01*
X506024Y248458D01*
X512688D01*
X514354Y250124D01*
Y253456D01*
X512688Y255122D01*
X511022D01*
X509356Y253456D01*
Y248458D01*
X487039Y191683D02*
Y200014D01*
X485373Y201680D01*
X482041D01*
X480375Y200014D01*
Y191683D01*
X477043D02*
X470378D01*
Y193349D01*
X477043Y200014D01*
Y201680D01*
X815151Y215677D02*
Y207346D01*
X816817Y205680D01*
X820149D01*
X821815Y207346D01*
Y215677D01*
X825148Y214011D02*
X826814Y215677D01*
X830146D01*
X831812Y214011D01*
Y212344D01*
X830146Y210678D01*
X831812Y209012D01*
Y207346D01*
X830146Y205680D01*
X826814D01*
X825148Y207346D01*
Y209012D01*
X826814Y210678D01*
X825148Y212344D01*
Y214011D01*
X826814Y210678D02*
X830146D01*
X786666Y267531D02*
X794996D01*
X796662Y269197D01*
Y272529D01*
X794996Y274195D01*
X786666D01*
X796662Y277528D02*
Y280860D01*
Y279194D01*
X786666D01*
X788332Y277528D01*
Y285858D02*
X786666Y287525D01*
Y290857D01*
X788332Y292523D01*
X794996D01*
X796662Y290857D01*
Y287525D01*
X794996Y285858D01*
X788332D01*
X746870Y415037D02*
Y406706D01*
X748536Y405040D01*
X751868D01*
X753534Y406706D01*
Y415037D01*
X763531Y405040D02*
X756867D01*
X763531Y411704D01*
Y413371D01*
X761865Y415037D01*
X758533D01*
X756867Y413371D01*
X624003Y263760D02*
X632334D01*
X634000Y265426D01*
Y268758D01*
X632334Y270424D01*
X624003D01*
Y280421D02*
X625670Y277089D01*
X629002Y273757D01*
X632334D01*
X634000Y275423D01*
Y278755D01*
X632334Y280421D01*
X630668D01*
X629002Y278755D01*
Y273757D01*
X254969Y84346D02*
Y92676D01*
X253303Y94342D01*
X249971D01*
X248305Y92676D01*
Y84346D01*
X244972Y94342D02*
X241640D01*
X243306D01*
Y84346D01*
X244972Y86012D01*
X236642Y94342D02*
X233309D01*
X234975D01*
Y84346D01*
X236642Y86012D01*
X273762Y254035D02*
X272096Y252368D01*
Y249036D01*
X273762Y247370D01*
X280426D01*
X282092Y249036D01*
Y252368D01*
X280426Y254035D01*
X282092Y257367D02*
Y260699D01*
Y259033D01*
X272096D01*
X273762Y257367D01*
X272096Y272362D02*
X273762Y269030D01*
X277094Y265697D01*
X280426D01*
X282092Y267363D01*
Y270696D01*
X280426Y272362D01*
X278760D01*
X277094Y270696D01*
Y265697D01*
X340090Y346267D02*
Y336270D01*
X346754D01*
X356751D02*
X350087D01*
X356751Y342934D01*
Y344600D01*
X355085Y346267D01*
X351753D01*
X350087Y344600D01*
X524750Y391043D02*
Y399374D01*
X523084Y401040D01*
X519752D01*
X518086Y399374D01*
Y391043D01*
X514753Y401040D02*
X511421D01*
X513087D01*
Y391043D01*
X514753Y392709D01*
M02*
