G04*
G04 #@! TF.GenerationSoftware,Altium Limited,Altium Designer,24.7.2 (38)*
G04*
G04 Layer_Color=8388736*
%FSLAX44Y44*%
%MOMM*%
G71*
G04*
G04 #@! TF.SameCoordinates,1A42ED2C-D2DC-4C4E-9266-FAA71F5D9F86*
G04*
G04*
G04 #@! TF.FilePolarity,Positive*
G04*
G01*
G75*
%ADD14C,0.2000*%
D14*
X518740Y259119D02*
Y275119D01*
X489740Y259119D02*
X518740D01*
X489740D02*
Y275119D01*
X518740D01*
X482789Y193680D02*
X495289D01*
X482789D02*
Y213680D01*
X495289D01*
Y193680D02*
Y213680D01*
X806901D02*
X819401D01*
Y193680D02*
Y213680D01*
X806901Y193680D02*
X819401D01*
X806901D02*
Y213680D01*
X782280Y257531D02*
Y273531D01*
X811280D01*
Y257531D02*
Y273531D01*
X782280Y257531D02*
X811280D01*
X724370Y382540D02*
Y423540D01*
Y382540D02*
X765370D01*
Y423540D01*
X724370D02*
X765370D01*
X586000Y211760D02*
X686000D01*
Y311760D01*
X586000D02*
X686000D01*
X586000Y211760D02*
Y311760D01*
X264969Y79960D02*
Y108960D01*
X248969D02*
X264969D01*
X248969Y79960D02*
Y108960D01*
Y79960D02*
X264969D01*
X273210Y228370D02*
Y262370D01*
X291210D01*
Y228370D02*
Y262370D01*
X273210Y228370D02*
X291210D01*
X310690Y305870D02*
Y362670D01*
Y305870D02*
X365490D01*
Y362670D01*
X310690D02*
X365490D01*
X547250Y382540D02*
Y423540D01*
X506250D02*
X547250D01*
X506250Y382540D02*
Y423540D01*
Y382540D02*
X547250D01*
M02*
